<?xml version="1.0" encoding="UTF-8" standalone="no"?>
<!DOCTYPE svg PUBLIC "-//W3C//DTD SVG 1.1//EN" "http://www.w3.org/Graphics/SVG/1.1/DTD/svg11.dtd">
<svg width="1699px" height="478px" version="1.1" xmlns="http://www.w3.org/2000/svg" xmlns:xlink="http://www.w3.org/1999/xlink" xml:space="preserve" xmlns:serif="http://www.serif.com/" style="fill-rule:evenodd;clip-rule:evenodd;stroke-linecap:round;stroke-linejoin:round;">
    <g transform="matrix(1.33333,0,0,1.33333,0,0)">
        <g id="p-0">
            <g transform="matrix(1,0,0,1,178.951,275.556)">
                <g transform="matrix(28.3465,0,0,28.3465,-66.7969,0)">
                    <path d="M0.313,0.018C0.239,0.018 0.179,-0.017 0.133,-0.087C0.087,-0.157 0.063,-0.249 0.063,-0.362C0.063,-0.476 0.087,-0.567 0.133,-0.637C0.179,-0.706 0.241,-0.741 0.316,-0.741C0.392,-0.741 0.453,-0.706 0.5,-0.637C0.546,-0.567 0.569,-0.476 0.569,-0.363C0.569,-0.247 0.546,-0.155 0.5,-0.086C0.453,-0.017 0.391,0.018 0.313,0.018ZM0.314,-0.054C0.416,-0.054 0.467,-0.158 0.467,-0.365C0.467,-0.567 0.417,-0.668 0.316,-0.668C0.216,-0.668 0.166,-0.566 0.166,-0.362C0.166,-0.157 0.215,-0.054 0.314,-0.054Z" style="fill-rule:nonzero;"/>
                </g>
                <g transform="matrix(28.3465,0,0,28.3465,-48.8727,0)">
                    <rect x="0.098" y="-0.121" width="0.121" height="0.121" style="fill-rule:nonzero;"/>
                </g>
                <g transform="matrix(28.3465,0,0,28.3465,-39.9037,0)">
                    <path d="M0.15,-0L0.15,-0.072L0.295,-0.072L0.295,-0.643L0.15,-0.606L0.15,-0.681L0.392,-0.741L0.392,-0.072L0.536,-0.072L0.536,-0L0.15,-0Z" style="fill-rule:nonzero;"/>
                </g>
                <g transform="matrix(28.3465,0,0,28.3465,-21.9796,0)">
                    <path d="M0.313,0.018C0.239,0.018 0.179,-0.017 0.133,-0.087C0.087,-0.157 0.063,-0.249 0.063,-0.362C0.063,-0.476 0.087,-0.567 0.133,-0.637C0.179,-0.706 0.241,-0.741 0.316,-0.741C0.392,-0.741 0.453,-0.706 0.5,-0.637C0.546,-0.567 0.569,-0.476 0.569,-0.363C0.569,-0.247 0.546,-0.155 0.5,-0.086C0.453,-0.017 0.391,0.018 0.313,0.018ZM0.314,-0.054C0.416,-0.054 0.467,-0.158 0.467,-0.365C0.467,-0.567 0.417,-0.668 0.316,-0.668C0.216,-0.668 0.166,-0.566 0.166,-0.362C0.166,-0.157 0.215,-0.054 0.314,-0.054Z" style="fill-rule:nonzero;"/>
                </g>
                <g transform="matrix(28.3465,0,0,28.3465,-4.05543,0)">
                    <path d="M0.313,0.018C0.239,0.018 0.179,-0.017 0.133,-0.087C0.087,-0.157 0.063,-0.249 0.063,-0.362C0.063,-0.476 0.087,-0.567 0.133,-0.637C0.179,-0.706 0.241,-0.741 0.316,-0.741C0.392,-0.741 0.453,-0.706 0.5,-0.637C0.546,-0.567 0.569,-0.476 0.569,-0.363C0.569,-0.247 0.546,-0.155 0.5,-0.086C0.453,-0.017 0.391,0.018 0.313,0.018ZM0.314,-0.054C0.416,-0.054 0.467,-0.158 0.467,-0.365C0.467,-0.567 0.417,-0.668 0.316,-0.668C0.216,-0.668 0.166,-0.566 0.166,-0.362C0.166,-0.157 0.215,-0.054 0.314,-0.054Z" style="fill-rule:nonzero;"/>
                </g>
                <g transform="matrix(28.3465,0,0,28.3465,13.8687,0)">
                    <path d="M0.096,-0L0.096,-0.53L0.192,-0.53L0.192,-0.431C0.239,-0.505 0.299,-0.542 0.373,-0.542C0.444,-0.542 0.492,-0.505 0.518,-0.431C0.564,-0.505 0.623,-0.542 0.696,-0.542C0.743,-0.542 0.779,-0.529 0.805,-0.501C0.83,-0.474 0.843,-0.435 0.843,-0.386L0.843,-0L0.747,-0L0.747,-0.371C0.747,-0.431 0.723,-0.461 0.675,-0.461C0.625,-0.461 0.573,-0.426 0.518,-0.355L0.518,-0L0.421,-0L0.421,-0.371C0.421,-0.431 0.397,-0.462 0.348,-0.462C0.3,-0.462 0.248,-0.426 0.192,-0.355L0.192,-0L0.096,-0Z" style="fill-rule:nonzero;"/>
                </g>
                <g transform="matrix(28.3465,0,0,28.3465,40.3328,0)">
                    <path d="M0.096,-0L0.096,-0.53L0.192,-0.53L0.192,-0.431C0.239,-0.505 0.299,-0.542 0.373,-0.542C0.444,-0.542 0.492,-0.505 0.518,-0.431C0.564,-0.505 0.623,-0.542 0.696,-0.542C0.743,-0.542 0.779,-0.529 0.805,-0.501C0.83,-0.474 0.843,-0.435 0.843,-0.386L0.843,-0L0.747,-0L0.747,-0.371C0.747,-0.431 0.723,-0.461 0.675,-0.461C0.625,-0.461 0.573,-0.426 0.518,-0.355L0.518,-0L0.421,-0L0.421,-0.371C0.421,-0.431 0.397,-0.462 0.348,-0.462C0.3,-0.462 0.248,-0.426 0.192,-0.355L0.192,-0L0.096,-0Z" style="fill-rule:nonzero;"/>
                </g>
            </g>
            <g transform="matrix(0,-1,1,0,275.613,178.894)">
                <g transform="matrix(28.3465,0,0,28.3465,-66.7969,0)">
                    <path d="M0.313,0.018C0.239,0.018 0.179,-0.017 0.133,-0.087C0.087,-0.157 0.063,-0.249 0.063,-0.362C0.063,-0.476 0.087,-0.567 0.133,-0.637C0.179,-0.706 0.241,-0.741 0.316,-0.741C0.392,-0.741 0.453,-0.706 0.5,-0.637C0.546,-0.567 0.569,-0.476 0.569,-0.363C0.569,-0.247 0.546,-0.155 0.5,-0.086C0.453,-0.017 0.391,0.018 0.313,0.018ZM0.314,-0.054C0.416,-0.054 0.467,-0.158 0.467,-0.365C0.467,-0.567 0.417,-0.668 0.316,-0.668C0.216,-0.668 0.166,-0.566 0.166,-0.362C0.166,-0.157 0.215,-0.054 0.314,-0.054Z" style="fill-rule:nonzero;"/>
                </g>
                <g transform="matrix(28.3465,0,0,28.3465,-48.8727,0)">
                    <rect x="0.098" y="-0.121" width="0.121" height="0.121" style="fill-rule:nonzero;"/>
                </g>
                <g transform="matrix(28.3465,0,0,28.3465,-39.9037,0)">
                    <path d="M0.15,-0L0.15,-0.072L0.295,-0.072L0.295,-0.643L0.15,-0.606L0.15,-0.681L0.392,-0.741L0.392,-0.072L0.536,-0.072L0.536,-0L0.15,-0Z" style="fill-rule:nonzero;"/>
                </g>
                <g transform="matrix(28.3465,0,0,28.3465,-21.9796,0)">
                    <path d="M0.15,-0L0.15,-0.072L0.295,-0.072L0.295,-0.643L0.15,-0.606L0.15,-0.681L0.392,-0.741L0.392,-0.072L0.536,-0.072L0.536,-0L0.15,-0Z" style="fill-rule:nonzero;"/>
                </g>
                <g transform="matrix(28.3465,0,0,28.3465,-4.05543,0)">
                    <path d="M0.313,0.018C0.239,0.018 0.179,-0.017 0.133,-0.087C0.087,-0.157 0.063,-0.249 0.063,-0.362C0.063,-0.476 0.087,-0.567 0.133,-0.637C0.179,-0.706 0.241,-0.741 0.316,-0.741C0.392,-0.741 0.453,-0.706 0.5,-0.637C0.546,-0.567 0.569,-0.476 0.569,-0.363C0.569,-0.247 0.546,-0.155 0.5,-0.086C0.453,-0.017 0.391,0.018 0.313,0.018ZM0.314,-0.054C0.416,-0.054 0.467,-0.158 0.467,-0.365C0.467,-0.567 0.417,-0.668 0.316,-0.668C0.216,-0.668 0.166,-0.566 0.166,-0.362C0.166,-0.157 0.215,-0.054 0.314,-0.054Z" style="fill-rule:nonzero;"/>
                </g>
                <g transform="matrix(28.3465,0,0,28.3465,13.8687,0)">
                    <path d="M0.096,-0L0.096,-0.53L0.192,-0.53L0.192,-0.431C0.239,-0.505 0.299,-0.542 0.373,-0.542C0.444,-0.542 0.492,-0.505 0.518,-0.431C0.564,-0.505 0.623,-0.542 0.696,-0.542C0.743,-0.542 0.779,-0.529 0.805,-0.501C0.83,-0.474 0.843,-0.435 0.843,-0.386L0.843,-0L0.747,-0L0.747,-0.371C0.747,-0.431 0.723,-0.461 0.675,-0.461C0.625,-0.461 0.573,-0.426 0.518,-0.355L0.518,-0L0.421,-0L0.421,-0.371C0.421,-0.431 0.397,-0.462 0.348,-0.462C0.3,-0.462 0.248,-0.426 0.192,-0.355L0.192,-0L0.096,-0Z" style="fill-rule:nonzero;"/>
                </g>
                <g transform="matrix(28.3465,0,0,28.3465,40.3328,0)">
                    <path d="M0.096,-0L0.096,-0.53L0.192,-0.53L0.192,-0.431C0.239,-0.505 0.299,-0.542 0.373,-0.542C0.444,-0.542 0.492,-0.505 0.518,-0.431C0.564,-0.505 0.623,-0.542 0.696,-0.542C0.743,-0.542 0.779,-0.529 0.805,-0.501C0.83,-0.474 0.843,-0.435 0.843,-0.386L0.843,-0L0.747,-0L0.747,-0.371C0.747,-0.431 0.723,-0.461 0.675,-0.461C0.625,-0.461 0.573,-0.426 0.518,-0.355L0.518,-0L0.421,-0L0.421,-0.371C0.421,-0.431 0.397,-0.462 0.348,-0.462C0.3,-0.462 0.248,-0.426 0.192,-0.355L0.192,-0L0.096,-0Z" style="fill-rule:nonzero;"/>
                </g>
            </g>
            <g transform="matrix(-1,0,0,-1,178.923,82.2047)">
                <g transform="matrix(28.3465,0,0,28.3465,-66.7969,0)">
                    <path d="M0.313,0.018C0.239,0.018 0.179,-0.017 0.133,-0.087C0.087,-0.157 0.063,-0.249 0.063,-0.362C0.063,-0.476 0.087,-0.567 0.133,-0.637C0.179,-0.706 0.241,-0.741 0.316,-0.741C0.392,-0.741 0.453,-0.706 0.5,-0.637C0.546,-0.567 0.569,-0.476 0.569,-0.363C0.569,-0.247 0.546,-0.155 0.5,-0.086C0.453,-0.017 0.391,0.018 0.313,0.018ZM0.314,-0.054C0.416,-0.054 0.467,-0.158 0.467,-0.365C0.467,-0.567 0.417,-0.668 0.316,-0.668C0.216,-0.668 0.166,-0.566 0.166,-0.362C0.166,-0.157 0.215,-0.054 0.314,-0.054Z" style="fill-rule:nonzero;"/>
                </g>
                <g transform="matrix(28.3465,0,0,28.3465,-48.8727,0)">
                    <rect x="0.098" y="-0.121" width="0.121" height="0.121" style="fill-rule:nonzero;"/>
                </g>
                <g transform="matrix(28.3465,0,0,28.3465,-39.9037,0)">
                    <path d="M0.15,-0L0.15,-0.072L0.295,-0.072L0.295,-0.643L0.15,-0.606L0.15,-0.681L0.392,-0.741L0.392,-0.072L0.536,-0.072L0.536,-0L0.15,-0Z" style="fill-rule:nonzero;"/>
                </g>
                <g transform="matrix(28.3465,0,0,28.3465,-21.9796,0)">
                    <path d="M0.083,-0L0.083,-0.084C0.111,-0.15 0.168,-0.221 0.253,-0.298L0.308,-0.348C0.379,-0.412 0.415,-0.475 0.415,-0.539C0.415,-0.579 0.402,-0.611 0.378,-0.634C0.354,-0.657 0.321,-0.668 0.278,-0.668C0.228,-0.668 0.169,-0.649 0.101,-0.61L0.101,-0.695C0.165,-0.726 0.229,-0.741 0.292,-0.741C0.36,-0.741 0.414,-0.722 0.455,-0.686C0.496,-0.65 0.517,-0.601 0.517,-0.541C0.517,-0.498 0.506,-0.459 0.486,-0.426C0.465,-0.392 0.426,-0.352 0.37,-0.304L0.333,-0.272C0.256,-0.207 0.211,-0.144 0.199,-0.084L0.513,-0.084L0.513,-0L0.083,-0Z" style="fill-rule:nonzero;"/>
                </g>
                <g transform="matrix(28.3465,0,0,28.3465,-4.05543,0)">
                    <path d="M0.313,0.018C0.239,0.018 0.179,-0.017 0.133,-0.087C0.087,-0.157 0.063,-0.249 0.063,-0.362C0.063,-0.476 0.087,-0.567 0.133,-0.637C0.179,-0.706 0.241,-0.741 0.316,-0.741C0.392,-0.741 0.453,-0.706 0.5,-0.637C0.546,-0.567 0.569,-0.476 0.569,-0.363C0.569,-0.247 0.546,-0.155 0.5,-0.086C0.453,-0.017 0.391,0.018 0.313,0.018ZM0.314,-0.054C0.416,-0.054 0.467,-0.158 0.467,-0.365C0.467,-0.567 0.417,-0.668 0.316,-0.668C0.216,-0.668 0.166,-0.566 0.166,-0.362C0.166,-0.157 0.215,-0.054 0.314,-0.054Z" style="fill-rule:nonzero;"/>
                </g>
                <g transform="matrix(28.3465,0,0,28.3465,13.8687,0)">
                    <path d="M0.096,-0L0.096,-0.53L0.192,-0.53L0.192,-0.431C0.239,-0.505 0.299,-0.542 0.373,-0.542C0.444,-0.542 0.492,-0.505 0.518,-0.431C0.564,-0.505 0.623,-0.542 0.696,-0.542C0.743,-0.542 0.779,-0.529 0.805,-0.501C0.83,-0.474 0.843,-0.435 0.843,-0.386L0.843,-0L0.747,-0L0.747,-0.371C0.747,-0.431 0.723,-0.461 0.675,-0.461C0.625,-0.461 0.573,-0.426 0.518,-0.355L0.518,-0L0.421,-0L0.421,-0.371C0.421,-0.431 0.397,-0.462 0.348,-0.462C0.3,-0.462 0.248,-0.426 0.192,-0.355L0.192,-0L0.096,-0Z" style="fill-rule:nonzero;"/>
                </g>
                <g transform="matrix(28.3465,0,0,28.3465,40.3328,0)">
                    <path d="M0.096,-0L0.096,-0.53L0.192,-0.53L0.192,-0.431C0.239,-0.505 0.299,-0.542 0.373,-0.542C0.444,-0.542 0.492,-0.505 0.518,-0.431C0.564,-0.505 0.623,-0.542 0.696,-0.542C0.743,-0.542 0.779,-0.529 0.805,-0.501C0.83,-0.474 0.843,-0.435 0.843,-0.386L0.843,-0L0.747,-0L0.747,-0.371C0.747,-0.431 0.723,-0.461 0.675,-0.461C0.625,-0.461 0.573,-0.426 0.518,-0.355L0.518,-0L0.421,-0L0.421,-0.371C0.421,-0.431 0.397,-0.462 0.348,-0.462C0.3,-0.462 0.248,-0.426 0.192,-0.355L0.192,-0L0.096,-0Z" style="fill-rule:nonzero;"/>
                </g>
            </g>
            <g transform="matrix(0,1,-1,0,82.2047,178.923)">
                <g transform="matrix(28.3465,0,0,28.3465,-66.7969,0)">
                    <path d="M0.313,0.018C0.239,0.018 0.179,-0.017 0.133,-0.087C0.087,-0.157 0.063,-0.249 0.063,-0.362C0.063,-0.476 0.087,-0.567 0.133,-0.637C0.179,-0.706 0.241,-0.741 0.316,-0.741C0.392,-0.741 0.453,-0.706 0.5,-0.637C0.546,-0.567 0.569,-0.476 0.569,-0.363C0.569,-0.247 0.546,-0.155 0.5,-0.086C0.453,-0.017 0.391,0.018 0.313,0.018ZM0.314,-0.054C0.416,-0.054 0.467,-0.158 0.467,-0.365C0.467,-0.567 0.417,-0.668 0.316,-0.668C0.216,-0.668 0.166,-0.566 0.166,-0.362C0.166,-0.157 0.215,-0.054 0.314,-0.054Z" style="fill-rule:nonzero;"/>
                </g>
                <g transform="matrix(28.3465,0,0,28.3465,-48.8727,0)">
                    <rect x="0.098" y="-0.121" width="0.121" height="0.121" style="fill-rule:nonzero;"/>
                </g>
                <g transform="matrix(28.3465,0,0,28.3465,-39.9037,0)">
                    <path d="M0.15,-0L0.15,-0.072L0.295,-0.072L0.295,-0.643L0.15,-0.606L0.15,-0.681L0.392,-0.741L0.392,-0.072L0.536,-0.072L0.536,-0L0.15,-0Z" style="fill-rule:nonzero;"/>
                </g>
                <g transform="matrix(28.3465,0,0,28.3465,-21.9796,0)">
                    <path d="M0.102,-0.005L0.102,-0.095C0.171,-0.068 0.225,-0.054 0.265,-0.054C0.311,-0.054 0.348,-0.068 0.377,-0.094C0.406,-0.121 0.42,-0.156 0.42,-0.199C0.42,-0.3 0.349,-0.351 0.207,-0.351L0.168,-0.351L0.168,-0.416L0.202,-0.417C0.336,-0.417 0.402,-0.464 0.402,-0.558C0.402,-0.632 0.358,-0.668 0.271,-0.668C0.222,-0.668 0.169,-0.655 0.111,-0.628L0.111,-0.712C0.168,-0.731 0.224,-0.741 0.277,-0.741C0.425,-0.741 0.499,-0.685 0.499,-0.573C0.499,-0.488 0.449,-0.428 0.348,-0.392C0.465,-0.365 0.523,-0.301 0.523,-0.2C0.523,-0.132 0.5,-0.079 0.456,-0.04C0.411,-0.001 0.349,0.018 0.271,0.018C0.226,0.018 0.17,0.01 0.102,-0.005Z" style="fill-rule:nonzero;"/>
                </g>
                <g transform="matrix(28.3465,0,0,28.3465,-4.05543,0)">
                    <path d="M0.313,0.018C0.239,0.018 0.179,-0.017 0.133,-0.087C0.087,-0.157 0.063,-0.249 0.063,-0.362C0.063,-0.476 0.087,-0.567 0.133,-0.637C0.179,-0.706 0.241,-0.741 0.316,-0.741C0.392,-0.741 0.453,-0.706 0.5,-0.637C0.546,-0.567 0.569,-0.476 0.569,-0.363C0.569,-0.247 0.546,-0.155 0.5,-0.086C0.453,-0.017 0.391,0.018 0.313,0.018ZM0.314,-0.054C0.416,-0.054 0.467,-0.158 0.467,-0.365C0.467,-0.567 0.417,-0.668 0.316,-0.668C0.216,-0.668 0.166,-0.566 0.166,-0.362C0.166,-0.157 0.215,-0.054 0.314,-0.054Z" style="fill-rule:nonzero;"/>
                </g>
                <g transform="matrix(28.3465,0,0,28.3465,13.8687,0)">
                    <path d="M0.096,-0L0.096,-0.53L0.192,-0.53L0.192,-0.431C0.239,-0.505 0.299,-0.542 0.373,-0.542C0.444,-0.542 0.492,-0.505 0.518,-0.431C0.564,-0.505 0.623,-0.542 0.696,-0.542C0.743,-0.542 0.779,-0.529 0.805,-0.501C0.83,-0.474 0.843,-0.435 0.843,-0.386L0.843,-0L0.747,-0L0.747,-0.371C0.747,-0.431 0.723,-0.461 0.675,-0.461C0.625,-0.461 0.573,-0.426 0.518,-0.355L0.518,-0L0.421,-0L0.421,-0.371C0.421,-0.431 0.397,-0.462 0.348,-0.462C0.3,-0.462 0.248,-0.426 0.192,-0.355L0.192,-0L0.096,-0Z" style="fill-rule:nonzero;"/>
                </g>
                <g transform="matrix(28.3465,0,0,28.3465,40.3328,0)">
                    <path d="M0.096,-0L0.096,-0.53L0.192,-0.53L0.192,-0.431C0.239,-0.505 0.299,-0.542 0.373,-0.542C0.444,-0.542 0.492,-0.505 0.518,-0.431C0.564,-0.505 0.623,-0.542 0.696,-0.542C0.743,-0.542 0.779,-0.529 0.805,-0.501C0.83,-0.474 0.843,-0.435 0.843,-0.386L0.843,-0L0.747,-0L0.747,-0.371C0.747,-0.431 0.723,-0.461 0.675,-0.461C0.625,-0.461 0.573,-0.426 0.518,-0.355L0.518,-0L0.421,-0L0.421,-0.371C0.421,-0.431 0.397,-0.462 0.348,-0.462C0.3,-0.462 0.248,-0.426 0.192,-0.355L0.192,-0L0.096,-0Z" style="fill-rule:nonzero;"/>
                </g>
            </g>
            <g transform="matrix(1,0,0,1,484.243,284.173)">
                <g transform="matrix(28.3465,0,0,28.3465,-66.7969,0)">
                    <path d="M0.313,0.018C0.239,0.018 0.179,-0.017 0.133,-0.087C0.087,-0.157 0.063,-0.249 0.063,-0.362C0.063,-0.476 0.087,-0.567 0.133,-0.637C0.179,-0.706 0.241,-0.741 0.316,-0.741C0.392,-0.741 0.453,-0.706 0.5,-0.637C0.546,-0.567 0.569,-0.476 0.569,-0.363C0.569,-0.247 0.546,-0.155 0.5,-0.086C0.453,-0.017 0.391,0.018 0.313,0.018ZM0.314,-0.054C0.416,-0.054 0.467,-0.158 0.467,-0.365C0.467,-0.567 0.417,-0.668 0.316,-0.668C0.216,-0.668 0.166,-0.566 0.166,-0.362C0.166,-0.157 0.215,-0.054 0.314,-0.054Z" style="fill-rule:nonzero;"/>
                </g>
                <g transform="matrix(28.3465,0,0,28.3465,-48.8727,0)">
                    <rect x="0.098" y="-0.121" width="0.121" height="0.121" style="fill-rule:nonzero;"/>
                </g>
                <g transform="matrix(28.3465,0,0,28.3465,-39.9037,0)">
                    <path d="M0.15,-0L0.15,-0.072L0.295,-0.072L0.295,-0.643L0.15,-0.606L0.15,-0.681L0.392,-0.741L0.392,-0.072L0.536,-0.072L0.536,-0L0.15,-0Z" style="fill-rule:nonzero;"/>
                </g>
                <g transform="matrix(28.3465,0,0,28.3465,-21.9796,0)">
                    <path d="M0.313,0.018C0.239,0.018 0.179,-0.017 0.133,-0.087C0.087,-0.157 0.063,-0.249 0.063,-0.362C0.063,-0.476 0.087,-0.567 0.133,-0.637C0.179,-0.706 0.241,-0.741 0.316,-0.741C0.392,-0.741 0.453,-0.706 0.5,-0.637C0.546,-0.567 0.569,-0.476 0.569,-0.363C0.569,-0.247 0.546,-0.155 0.5,-0.086C0.453,-0.017 0.391,0.018 0.313,0.018ZM0.314,-0.054C0.416,-0.054 0.467,-0.158 0.467,-0.365C0.467,-0.567 0.417,-0.668 0.316,-0.668C0.216,-0.668 0.166,-0.566 0.166,-0.362C0.166,-0.157 0.215,-0.054 0.314,-0.054Z" style="fill-rule:nonzero;"/>
                </g>
                <g transform="matrix(28.3465,0,0,28.3465,-4.05543,0)">
                    <path d="M0.313,0.018C0.239,0.018 0.179,-0.017 0.133,-0.087C0.087,-0.157 0.063,-0.249 0.063,-0.362C0.063,-0.476 0.087,-0.567 0.133,-0.637C0.179,-0.706 0.241,-0.741 0.316,-0.741C0.392,-0.741 0.453,-0.706 0.5,-0.637C0.546,-0.567 0.569,-0.476 0.569,-0.363C0.569,-0.247 0.546,-0.155 0.5,-0.086C0.453,-0.017 0.391,0.018 0.313,0.018ZM0.314,-0.054C0.416,-0.054 0.467,-0.158 0.467,-0.365C0.467,-0.567 0.417,-0.668 0.316,-0.668C0.216,-0.668 0.166,-0.566 0.166,-0.362C0.166,-0.157 0.215,-0.054 0.314,-0.054Z" style="fill-rule:nonzero;"/>
                </g>
                <g transform="matrix(28.3465,0,0,28.3465,13.8687,0)">
                    <path d="M0.096,-0L0.096,-0.53L0.192,-0.53L0.192,-0.431C0.239,-0.505 0.299,-0.542 0.373,-0.542C0.444,-0.542 0.492,-0.505 0.518,-0.431C0.564,-0.505 0.623,-0.542 0.696,-0.542C0.743,-0.542 0.779,-0.529 0.805,-0.501C0.83,-0.474 0.843,-0.435 0.843,-0.386L0.843,-0L0.747,-0L0.747,-0.371C0.747,-0.431 0.723,-0.461 0.675,-0.461C0.625,-0.461 0.573,-0.426 0.518,-0.355L0.518,-0L0.421,-0L0.421,-0.371C0.421,-0.431 0.397,-0.462 0.348,-0.462C0.3,-0.462 0.248,-0.426 0.192,-0.355L0.192,-0L0.096,-0Z" style="fill-rule:nonzero;"/>
                </g>
                <g transform="matrix(28.3465,0,0,28.3465,40.3328,0)">
                    <path d="M0.096,-0L0.096,-0.53L0.192,-0.53L0.192,-0.431C0.239,-0.505 0.299,-0.542 0.373,-0.542C0.444,-0.542 0.492,-0.505 0.518,-0.431C0.564,-0.505 0.623,-0.542 0.696,-0.542C0.743,-0.542 0.779,-0.529 0.805,-0.501C0.83,-0.474 0.843,-0.435 0.843,-0.386L0.843,-0L0.747,-0L0.747,-0.371C0.747,-0.431 0.723,-0.461 0.675,-0.461C0.625,-0.461 0.573,-0.426 0.518,-0.355L0.518,-0L0.421,-0L0.421,-0.371C0.421,-0.431 0.397,-0.462 0.348,-0.462C0.3,-0.462 0.248,-0.426 0.192,-0.355L0.192,-0L0.096,-0Z" style="fill-rule:nonzero;"/>
                </g>
            </g>
            <g transform="matrix(0,-1,1,0,589.408,179.008)">
                <g transform="matrix(28.3465,0,0,28.3465,-66.7969,0)">
                    <path d="M0.313,0.018C0.239,0.018 0.179,-0.017 0.133,-0.087C0.087,-0.157 0.063,-0.249 0.063,-0.362C0.063,-0.476 0.087,-0.567 0.133,-0.637C0.179,-0.706 0.241,-0.741 0.316,-0.741C0.392,-0.741 0.453,-0.706 0.5,-0.637C0.546,-0.567 0.569,-0.476 0.569,-0.363C0.569,-0.247 0.546,-0.155 0.5,-0.086C0.453,-0.017 0.391,0.018 0.313,0.018ZM0.314,-0.054C0.416,-0.054 0.467,-0.158 0.467,-0.365C0.467,-0.567 0.417,-0.668 0.316,-0.668C0.216,-0.668 0.166,-0.566 0.166,-0.362C0.166,-0.157 0.215,-0.054 0.314,-0.054Z" style="fill-rule:nonzero;"/>
                </g>
                <g transform="matrix(28.3465,0,0,28.3465,-48.8727,0)">
                    <rect x="0.098" y="-0.121" width="0.121" height="0.121" style="fill-rule:nonzero;"/>
                </g>
                <g transform="matrix(28.3465,0,0,28.3465,-39.9037,0)">
                    <path d="M0.15,-0L0.15,-0.072L0.295,-0.072L0.295,-0.643L0.15,-0.606L0.15,-0.681L0.392,-0.741L0.392,-0.072L0.536,-0.072L0.536,-0L0.15,-0Z" style="fill-rule:nonzero;"/>
                </g>
                <g transform="matrix(28.3465,0,0,28.3465,-21.9796,0)">
                    <path d="M0.15,-0L0.15,-0.072L0.295,-0.072L0.295,-0.643L0.15,-0.606L0.15,-0.681L0.392,-0.741L0.392,-0.072L0.536,-0.072L0.536,-0L0.15,-0Z" style="fill-rule:nonzero;"/>
                </g>
                <g transform="matrix(28.3465,0,0,28.3465,-4.05543,0)">
                    <path d="M0.313,0.018C0.239,0.018 0.179,-0.017 0.133,-0.087C0.087,-0.157 0.063,-0.249 0.063,-0.362C0.063,-0.476 0.087,-0.567 0.133,-0.637C0.179,-0.706 0.241,-0.741 0.316,-0.741C0.392,-0.741 0.453,-0.706 0.5,-0.637C0.546,-0.567 0.569,-0.476 0.569,-0.363C0.569,-0.247 0.546,-0.155 0.5,-0.086C0.453,-0.017 0.391,0.018 0.313,0.018ZM0.314,-0.054C0.416,-0.054 0.467,-0.158 0.467,-0.365C0.467,-0.567 0.417,-0.668 0.316,-0.668C0.216,-0.668 0.166,-0.566 0.166,-0.362C0.166,-0.157 0.215,-0.054 0.314,-0.054Z" style="fill-rule:nonzero;"/>
                </g>
                <g transform="matrix(28.3465,0,0,28.3465,13.8687,0)">
                    <path d="M0.096,-0L0.096,-0.53L0.192,-0.53L0.192,-0.431C0.239,-0.505 0.299,-0.542 0.373,-0.542C0.444,-0.542 0.492,-0.505 0.518,-0.431C0.564,-0.505 0.623,-0.542 0.696,-0.542C0.743,-0.542 0.779,-0.529 0.805,-0.501C0.83,-0.474 0.843,-0.435 0.843,-0.386L0.843,-0L0.747,-0L0.747,-0.371C0.747,-0.431 0.723,-0.461 0.675,-0.461C0.625,-0.461 0.573,-0.426 0.518,-0.355L0.518,-0L0.421,-0L0.421,-0.371C0.421,-0.431 0.397,-0.462 0.348,-0.462C0.3,-0.462 0.248,-0.426 0.192,-0.355L0.192,-0L0.096,-0Z" style="fill-rule:nonzero;"/>
                </g>
                <g transform="matrix(28.3465,0,0,28.3465,40.3328,0)">
                    <path d="M0.096,-0L0.096,-0.53L0.192,-0.53L0.192,-0.431C0.239,-0.505 0.299,-0.542 0.373,-0.542C0.444,-0.542 0.492,-0.505 0.518,-0.431C0.564,-0.505 0.623,-0.542 0.696,-0.542C0.743,-0.542 0.779,-0.529 0.805,-0.501C0.83,-0.474 0.843,-0.435 0.843,-0.386L0.843,-0L0.747,-0L0.747,-0.371C0.747,-0.431 0.723,-0.461 0.675,-0.461C0.625,-0.461 0.573,-0.426 0.518,-0.355L0.518,-0L0.421,-0L0.421,-0.371C0.421,-0.431 0.397,-0.462 0.348,-0.462C0.3,-0.462 0.248,-0.426 0.192,-0.355L0.192,-0L0.096,-0Z" style="fill-rule:nonzero;"/>
                </g>
            </g>
            <g transform="matrix(-1,0,0,-1,484.214,73.8142)">
                <g transform="matrix(28.3465,0,0,28.3465,-66.7969,0)">
                    <path d="M0.313,0.018C0.239,0.018 0.179,-0.017 0.133,-0.087C0.087,-0.157 0.063,-0.249 0.063,-0.362C0.063,-0.476 0.087,-0.567 0.133,-0.637C0.179,-0.706 0.241,-0.741 0.316,-0.741C0.392,-0.741 0.453,-0.706 0.5,-0.637C0.546,-0.567 0.569,-0.476 0.569,-0.363C0.569,-0.247 0.546,-0.155 0.5,-0.086C0.453,-0.017 0.391,0.018 0.313,0.018ZM0.314,-0.054C0.416,-0.054 0.467,-0.158 0.467,-0.365C0.467,-0.567 0.417,-0.668 0.316,-0.668C0.216,-0.668 0.166,-0.566 0.166,-0.362C0.166,-0.157 0.215,-0.054 0.314,-0.054Z" style="fill-rule:nonzero;"/>
                </g>
                <g transform="matrix(28.3465,0,0,28.3465,-48.8727,0)">
                    <rect x="0.098" y="-0.121" width="0.121" height="0.121" style="fill-rule:nonzero;"/>
                </g>
                <g transform="matrix(28.3465,0,0,28.3465,-39.9037,0)">
                    <path d="M0.15,-0L0.15,-0.072L0.295,-0.072L0.295,-0.643L0.15,-0.606L0.15,-0.681L0.392,-0.741L0.392,-0.072L0.536,-0.072L0.536,-0L0.15,-0Z" style="fill-rule:nonzero;"/>
                </g>
                <g transform="matrix(28.3465,0,0,28.3465,-21.9796,0)">
                    <path d="M0.083,-0L0.083,-0.084C0.111,-0.15 0.168,-0.221 0.253,-0.298L0.308,-0.348C0.379,-0.412 0.415,-0.475 0.415,-0.539C0.415,-0.579 0.402,-0.611 0.378,-0.634C0.354,-0.657 0.321,-0.668 0.278,-0.668C0.228,-0.668 0.169,-0.649 0.101,-0.61L0.101,-0.695C0.165,-0.726 0.229,-0.741 0.292,-0.741C0.36,-0.741 0.414,-0.722 0.455,-0.686C0.496,-0.65 0.517,-0.601 0.517,-0.541C0.517,-0.498 0.506,-0.459 0.486,-0.426C0.465,-0.392 0.426,-0.352 0.37,-0.304L0.333,-0.272C0.256,-0.207 0.211,-0.144 0.199,-0.084L0.513,-0.084L0.513,-0L0.083,-0Z" style="fill-rule:nonzero;"/>
                </g>
                <g transform="matrix(28.3465,0,0,28.3465,-4.05543,0)">
                    <path d="M0.313,0.018C0.239,0.018 0.179,-0.017 0.133,-0.087C0.087,-0.157 0.063,-0.249 0.063,-0.362C0.063,-0.476 0.087,-0.567 0.133,-0.637C0.179,-0.706 0.241,-0.741 0.316,-0.741C0.392,-0.741 0.453,-0.706 0.5,-0.637C0.546,-0.567 0.569,-0.476 0.569,-0.363C0.569,-0.247 0.546,-0.155 0.5,-0.086C0.453,-0.017 0.391,0.018 0.313,0.018ZM0.314,-0.054C0.416,-0.054 0.467,-0.158 0.467,-0.365C0.467,-0.567 0.417,-0.668 0.316,-0.668C0.216,-0.668 0.166,-0.566 0.166,-0.362C0.166,-0.157 0.215,-0.054 0.314,-0.054Z" style="fill-rule:nonzero;"/>
                </g>
                <g transform="matrix(28.3465,0,0,28.3465,13.8687,0)">
                    <path d="M0.096,-0L0.096,-0.53L0.192,-0.53L0.192,-0.431C0.239,-0.505 0.299,-0.542 0.373,-0.542C0.444,-0.542 0.492,-0.505 0.518,-0.431C0.564,-0.505 0.623,-0.542 0.696,-0.542C0.743,-0.542 0.779,-0.529 0.805,-0.501C0.83,-0.474 0.843,-0.435 0.843,-0.386L0.843,-0L0.747,-0L0.747,-0.371C0.747,-0.431 0.723,-0.461 0.675,-0.461C0.625,-0.461 0.573,-0.426 0.518,-0.355L0.518,-0L0.421,-0L0.421,-0.371C0.421,-0.431 0.397,-0.462 0.348,-0.462C0.3,-0.462 0.248,-0.426 0.192,-0.355L0.192,-0L0.096,-0Z" style="fill-rule:nonzero;"/>
                </g>
                <g transform="matrix(28.3465,0,0,28.3465,40.3328,0)">
                    <path d="M0.096,-0L0.096,-0.53L0.192,-0.53L0.192,-0.431C0.239,-0.505 0.299,-0.542 0.373,-0.542C0.444,-0.542 0.492,-0.505 0.518,-0.431C0.564,-0.505 0.623,-0.542 0.696,-0.542C0.743,-0.542 0.779,-0.529 0.805,-0.501C0.83,-0.474 0.843,-0.435 0.843,-0.386L0.843,-0L0.747,-0L0.747,-0.371C0.747,-0.431 0.723,-0.461 0.675,-0.461C0.625,-0.461 0.573,-0.426 0.518,-0.355L0.518,-0L0.421,-0L0.421,-0.371C0.421,-0.431 0.397,-0.462 0.348,-0.462C0.3,-0.462 0.248,-0.426 0.192,-0.355L0.192,-0L0.096,-0Z" style="fill-rule:nonzero;"/>
                </g>
            </g>
            <g transform="matrix(0,1,-1,0,378.992,179.036)">
                <g transform="matrix(28.3465,0,0,28.3465,-66.7969,0)">
                    <path d="M0.313,0.018C0.239,0.018 0.179,-0.017 0.133,-0.087C0.087,-0.157 0.063,-0.249 0.063,-0.362C0.063,-0.476 0.087,-0.567 0.133,-0.637C0.179,-0.706 0.241,-0.741 0.316,-0.741C0.392,-0.741 0.453,-0.706 0.5,-0.637C0.546,-0.567 0.569,-0.476 0.569,-0.363C0.569,-0.247 0.546,-0.155 0.5,-0.086C0.453,-0.017 0.391,0.018 0.313,0.018ZM0.314,-0.054C0.416,-0.054 0.467,-0.158 0.467,-0.365C0.467,-0.567 0.417,-0.668 0.316,-0.668C0.216,-0.668 0.166,-0.566 0.166,-0.362C0.166,-0.157 0.215,-0.054 0.314,-0.054Z" style="fill-rule:nonzero;"/>
                </g>
                <g transform="matrix(28.3465,0,0,28.3465,-48.8727,0)">
                    <rect x="0.098" y="-0.121" width="0.121" height="0.121" style="fill-rule:nonzero;"/>
                </g>
                <g transform="matrix(28.3465,0,0,28.3465,-39.9037,0)">
                    <path d="M0.15,-0L0.15,-0.072L0.295,-0.072L0.295,-0.643L0.15,-0.606L0.15,-0.681L0.392,-0.741L0.392,-0.072L0.536,-0.072L0.536,-0L0.15,-0Z" style="fill-rule:nonzero;"/>
                </g>
                <g transform="matrix(28.3465,0,0,28.3465,-21.9796,0)">
                    <path d="M0.102,-0.005L0.102,-0.095C0.171,-0.068 0.225,-0.054 0.265,-0.054C0.311,-0.054 0.348,-0.068 0.377,-0.094C0.406,-0.121 0.42,-0.156 0.42,-0.199C0.42,-0.3 0.349,-0.351 0.207,-0.351L0.168,-0.351L0.168,-0.416L0.202,-0.417C0.336,-0.417 0.402,-0.464 0.402,-0.558C0.402,-0.632 0.358,-0.668 0.271,-0.668C0.222,-0.668 0.169,-0.655 0.111,-0.628L0.111,-0.712C0.168,-0.731 0.224,-0.741 0.277,-0.741C0.425,-0.741 0.499,-0.685 0.499,-0.573C0.499,-0.488 0.449,-0.428 0.348,-0.392C0.465,-0.365 0.523,-0.301 0.523,-0.2C0.523,-0.132 0.5,-0.079 0.456,-0.04C0.411,-0.001 0.349,0.018 0.271,0.018C0.226,0.018 0.17,0.01 0.102,-0.005Z" style="fill-rule:nonzero;"/>
                </g>
                <g transform="matrix(28.3465,0,0,28.3465,-4.05543,0)">
                    <path d="M0.313,0.018C0.239,0.018 0.179,-0.017 0.133,-0.087C0.087,-0.157 0.063,-0.249 0.063,-0.362C0.063,-0.476 0.087,-0.567 0.133,-0.637C0.179,-0.706 0.241,-0.741 0.316,-0.741C0.392,-0.741 0.453,-0.706 0.5,-0.637C0.546,-0.567 0.569,-0.476 0.569,-0.363C0.569,-0.247 0.546,-0.155 0.5,-0.086C0.453,-0.017 0.391,0.018 0.313,0.018ZM0.314,-0.054C0.416,-0.054 0.467,-0.158 0.467,-0.365C0.467,-0.567 0.417,-0.668 0.316,-0.668C0.216,-0.668 0.166,-0.566 0.166,-0.362C0.166,-0.157 0.215,-0.054 0.314,-0.054Z" style="fill-rule:nonzero;"/>
                </g>
                <g transform="matrix(28.3465,0,0,28.3465,13.8687,0)">
                    <path d="M0.096,-0L0.096,-0.53L0.192,-0.53L0.192,-0.431C0.239,-0.505 0.299,-0.542 0.373,-0.542C0.444,-0.542 0.492,-0.505 0.518,-0.431C0.564,-0.505 0.623,-0.542 0.696,-0.542C0.743,-0.542 0.779,-0.529 0.805,-0.501C0.83,-0.474 0.843,-0.435 0.843,-0.386L0.843,-0L0.747,-0L0.747,-0.371C0.747,-0.431 0.723,-0.461 0.675,-0.461C0.625,-0.461 0.573,-0.426 0.518,-0.355L0.518,-0L0.421,-0L0.421,-0.371C0.421,-0.431 0.397,-0.462 0.348,-0.462C0.3,-0.462 0.248,-0.426 0.192,-0.355L0.192,-0L0.096,-0Z" style="fill-rule:nonzero;"/>
                </g>
                <g transform="matrix(28.3465,0,0,28.3465,40.3328,0)">
                    <path d="M0.096,-0L0.096,-0.53L0.192,-0.53L0.192,-0.431C0.239,-0.505 0.299,-0.542 0.373,-0.542C0.444,-0.542 0.492,-0.505 0.518,-0.431C0.564,-0.505 0.623,-0.542 0.696,-0.542C0.743,-0.542 0.779,-0.529 0.805,-0.501C0.83,-0.474 0.843,-0.435 0.843,-0.386L0.843,-0L0.747,-0L0.747,-0.371C0.747,-0.431 0.723,-0.461 0.675,-0.461C0.625,-0.461 0.573,-0.426 0.518,-0.355L0.518,-0L0.421,-0L0.421,-0.371C0.421,-0.431 0.397,-0.462 0.348,-0.462C0.3,-0.462 0.248,-0.426 0.192,-0.355L0.192,-0L0.096,-0Z" style="fill-rule:nonzero;"/>
                </g>
            </g>
            <g transform="matrix(1,0,0,1,789.534,275.783)">
                <g transform="matrix(28.3465,0,0,28.3465,-66.7969,0)">
                    <path d="M0.313,0.018C0.239,0.018 0.179,-0.017 0.133,-0.087C0.087,-0.157 0.063,-0.249 0.063,-0.362C0.063,-0.476 0.087,-0.567 0.133,-0.637C0.179,-0.706 0.241,-0.741 0.316,-0.741C0.392,-0.741 0.453,-0.706 0.5,-0.637C0.546,-0.567 0.569,-0.476 0.569,-0.363C0.569,-0.247 0.546,-0.155 0.5,-0.086C0.453,-0.017 0.391,0.018 0.313,0.018ZM0.314,-0.054C0.416,-0.054 0.467,-0.158 0.467,-0.365C0.467,-0.567 0.417,-0.668 0.316,-0.668C0.216,-0.668 0.166,-0.566 0.166,-0.362C0.166,-0.157 0.215,-0.054 0.314,-0.054Z" style="fill-rule:nonzero;"/>
                </g>
                <g transform="matrix(28.3465,0,0,28.3465,-48.8727,0)">
                    <rect x="0.098" y="-0.121" width="0.121" height="0.121" style="fill-rule:nonzero;"/>
                </g>
                <g transform="matrix(28.3465,0,0,28.3465,-39.9037,0)">
                    <path d="M0.15,-0L0.15,-0.072L0.295,-0.072L0.295,-0.643L0.15,-0.606L0.15,-0.681L0.392,-0.741L0.392,-0.072L0.536,-0.072L0.536,-0L0.15,-0Z" style="fill-rule:nonzero;"/>
                </g>
                <g transform="matrix(28.3465,0,0,28.3465,-21.9796,0)">
                    <path d="M0.376,-0L0.376,-0.205L0.051,-0.205L0.051,-0.277L0.376,-0.723L0.467,-0.723L0.467,-0.283L0.563,-0.283L0.563,-0.205L0.467,-0.205L0.467,-0L0.376,-0ZM0.146,-0.283L0.383,-0.283L0.383,-0.604L0.146,-0.283Z" style="fill-rule:nonzero;"/>
                </g>
                <g transform="matrix(28.3465,0,0,28.3465,-4.05543,0)">
                    <path d="M0.313,0.018C0.239,0.018 0.179,-0.017 0.133,-0.087C0.087,-0.157 0.063,-0.249 0.063,-0.362C0.063,-0.476 0.087,-0.567 0.133,-0.637C0.179,-0.706 0.241,-0.741 0.316,-0.741C0.392,-0.741 0.453,-0.706 0.5,-0.637C0.546,-0.567 0.569,-0.476 0.569,-0.363C0.569,-0.247 0.546,-0.155 0.5,-0.086C0.453,-0.017 0.391,0.018 0.313,0.018ZM0.314,-0.054C0.416,-0.054 0.467,-0.158 0.467,-0.365C0.467,-0.567 0.417,-0.668 0.316,-0.668C0.216,-0.668 0.166,-0.566 0.166,-0.362C0.166,-0.157 0.215,-0.054 0.314,-0.054Z" style="fill-rule:nonzero;"/>
                </g>
                <g transform="matrix(28.3465,0,0,28.3465,13.8687,0)">
                    <path d="M0.096,-0L0.096,-0.53L0.192,-0.53L0.192,-0.431C0.239,-0.505 0.299,-0.542 0.373,-0.542C0.444,-0.542 0.492,-0.505 0.518,-0.431C0.564,-0.505 0.623,-0.542 0.696,-0.542C0.743,-0.542 0.779,-0.529 0.805,-0.501C0.83,-0.474 0.843,-0.435 0.843,-0.386L0.843,-0L0.747,-0L0.747,-0.371C0.747,-0.431 0.723,-0.461 0.675,-0.461C0.625,-0.461 0.573,-0.426 0.518,-0.355L0.518,-0L0.421,-0L0.421,-0.371C0.421,-0.431 0.397,-0.462 0.348,-0.462C0.3,-0.462 0.248,-0.426 0.192,-0.355L0.192,-0L0.096,-0Z" style="fill-rule:nonzero;"/>
                </g>
                <g transform="matrix(28.3465,0,0,28.3465,40.3328,0)">
                    <path d="M0.096,-0L0.096,-0.53L0.192,-0.53L0.192,-0.431C0.239,-0.505 0.299,-0.542 0.373,-0.542C0.444,-0.542 0.492,-0.505 0.518,-0.431C0.564,-0.505 0.623,-0.542 0.696,-0.542C0.743,-0.542 0.779,-0.529 0.805,-0.501C0.83,-0.474 0.843,-0.435 0.843,-0.386L0.843,-0L0.747,-0L0.747,-0.371C0.747,-0.431 0.723,-0.461 0.675,-0.461C0.625,-0.461 0.573,-0.426 0.518,-0.355L0.518,-0L0.421,-0L0.421,-0.371C0.421,-0.431 0.397,-0.462 0.348,-0.462C0.3,-0.462 0.248,-0.426 0.192,-0.355L0.192,-0L0.096,-0Z" style="fill-rule:nonzero;"/>
                </g>
            </g>
            <g transform="matrix(0,-1,1,0,886.309,179.008)">
                <g transform="matrix(28.3465,0,0,28.3465,-66.7969,0)">
                    <path d="M0.313,0.018C0.239,0.018 0.179,-0.017 0.133,-0.087C0.087,-0.157 0.063,-0.249 0.063,-0.362C0.063,-0.476 0.087,-0.567 0.133,-0.637C0.179,-0.706 0.241,-0.741 0.316,-0.741C0.392,-0.741 0.453,-0.706 0.5,-0.637C0.546,-0.567 0.569,-0.476 0.569,-0.363C0.569,-0.247 0.546,-0.155 0.5,-0.086C0.453,-0.017 0.391,0.018 0.313,0.018ZM0.314,-0.054C0.416,-0.054 0.467,-0.158 0.467,-0.365C0.467,-0.567 0.417,-0.668 0.316,-0.668C0.216,-0.668 0.166,-0.566 0.166,-0.362C0.166,-0.157 0.215,-0.054 0.314,-0.054Z" style="fill-rule:nonzero;"/>
                </g>
                <g transform="matrix(28.3465,0,0,28.3465,-48.8727,0)">
                    <rect x="0.098" y="-0.121" width="0.121" height="0.121" style="fill-rule:nonzero;"/>
                </g>
                <g transform="matrix(28.3465,0,0,28.3465,-39.9037,0)">
                    <path d="M0.15,-0L0.15,-0.072L0.295,-0.072L0.295,-0.643L0.15,-0.606L0.15,-0.681L0.392,-0.741L0.392,-0.072L0.536,-0.072L0.536,-0L0.15,-0Z" style="fill-rule:nonzero;"/>
                </g>
                <g transform="matrix(28.3465,0,0,28.3465,-21.9796,0)">
                    <path d="M0.122,0.003L0.122,-0.083C0.169,-0.064 0.215,-0.054 0.258,-0.054C0.306,-0.054 0.343,-0.068 0.37,-0.096C0.398,-0.124 0.411,-0.163 0.411,-0.212C0.411,-0.32 0.336,-0.375 0.187,-0.375C0.17,-0.375 0.152,-0.373 0.134,-0.371L0.134,-0.723L0.5,-0.723L0.5,-0.639L0.218,-0.639L0.218,-0.448C0.311,-0.448 0.383,-0.427 0.436,-0.384C0.488,-0.342 0.514,-0.283 0.514,-0.207C0.514,-0.137 0.49,-0.082 0.443,-0.042C0.395,-0.002 0.33,0.018 0.246,0.018C0.209,0.018 0.168,0.013 0.122,0.003Z" style="fill-rule:nonzero;"/>
                </g>
                <g transform="matrix(28.3465,0,0,28.3465,-4.05543,0)">
                    <path d="M0.313,0.018C0.239,0.018 0.179,-0.017 0.133,-0.087C0.087,-0.157 0.063,-0.249 0.063,-0.362C0.063,-0.476 0.087,-0.567 0.133,-0.637C0.179,-0.706 0.241,-0.741 0.316,-0.741C0.392,-0.741 0.453,-0.706 0.5,-0.637C0.546,-0.567 0.569,-0.476 0.569,-0.363C0.569,-0.247 0.546,-0.155 0.5,-0.086C0.453,-0.017 0.391,0.018 0.313,0.018ZM0.314,-0.054C0.416,-0.054 0.467,-0.158 0.467,-0.365C0.467,-0.567 0.417,-0.668 0.316,-0.668C0.216,-0.668 0.166,-0.566 0.166,-0.362C0.166,-0.157 0.215,-0.054 0.314,-0.054Z" style="fill-rule:nonzero;"/>
                </g>
                <g transform="matrix(28.3465,0,0,28.3465,13.8687,0)">
                    <path d="M0.096,-0L0.096,-0.53L0.192,-0.53L0.192,-0.431C0.239,-0.505 0.299,-0.542 0.373,-0.542C0.444,-0.542 0.492,-0.505 0.518,-0.431C0.564,-0.505 0.623,-0.542 0.696,-0.542C0.743,-0.542 0.779,-0.529 0.805,-0.501C0.83,-0.474 0.843,-0.435 0.843,-0.386L0.843,-0L0.747,-0L0.747,-0.371C0.747,-0.431 0.723,-0.461 0.675,-0.461C0.625,-0.461 0.573,-0.426 0.518,-0.355L0.518,-0L0.421,-0L0.421,-0.371C0.421,-0.431 0.397,-0.462 0.348,-0.462C0.3,-0.462 0.248,-0.426 0.192,-0.355L0.192,-0L0.096,-0Z" style="fill-rule:nonzero;"/>
                </g>
                <g transform="matrix(28.3465,0,0,28.3465,40.3328,0)">
                    <path d="M0.096,-0L0.096,-0.53L0.192,-0.53L0.192,-0.431C0.239,-0.505 0.299,-0.542 0.373,-0.542C0.444,-0.542 0.492,-0.505 0.518,-0.431C0.564,-0.505 0.623,-0.542 0.696,-0.542C0.743,-0.542 0.779,-0.529 0.805,-0.501C0.83,-0.474 0.843,-0.435 0.843,-0.386L0.843,-0L0.747,-0L0.747,-0.371C0.747,-0.431 0.723,-0.461 0.675,-0.461C0.625,-0.461 0.573,-0.426 0.518,-0.355L0.518,-0L0.421,-0L0.421,-0.371C0.421,-0.431 0.397,-0.462 0.348,-0.462C0.3,-0.462 0.248,-0.426 0.192,-0.355L0.192,-0L0.096,-0Z" style="fill-rule:nonzero;"/>
                </g>
            </g>
            <g transform="matrix(-1,0,0,-1,789.506,82.2047)">
                <g transform="matrix(28.3465,0,0,28.3465,-66.7969,0)">
                    <path d="M0.313,0.018C0.239,0.018 0.179,-0.017 0.133,-0.087C0.087,-0.157 0.063,-0.249 0.063,-0.362C0.063,-0.476 0.087,-0.567 0.133,-0.637C0.179,-0.706 0.241,-0.741 0.316,-0.741C0.392,-0.741 0.453,-0.706 0.5,-0.637C0.546,-0.567 0.569,-0.476 0.569,-0.363C0.569,-0.247 0.546,-0.155 0.5,-0.086C0.453,-0.017 0.391,0.018 0.313,0.018ZM0.314,-0.054C0.416,-0.054 0.467,-0.158 0.467,-0.365C0.467,-0.567 0.417,-0.668 0.316,-0.668C0.216,-0.668 0.166,-0.566 0.166,-0.362C0.166,-0.157 0.215,-0.054 0.314,-0.054Z" style="fill-rule:nonzero;"/>
                </g>
                <g transform="matrix(28.3465,0,0,28.3465,-48.8727,0)">
                    <rect x="0.098" y="-0.121" width="0.121" height="0.121" style="fill-rule:nonzero;"/>
                </g>
                <g transform="matrix(28.3465,0,0,28.3465,-39.9037,0)">
                    <path d="M0.15,-0L0.15,-0.072L0.295,-0.072L0.295,-0.643L0.15,-0.606L0.15,-0.681L0.392,-0.741L0.392,-0.072L0.536,-0.072L0.536,-0L0.15,-0Z" style="fill-rule:nonzero;"/>
                </g>
                <g transform="matrix(28.3465,0,0,28.3465,-21.9796,0)">
                    <path d="M0.172,-0.375C0.218,-0.434 0.276,-0.464 0.345,-0.464C0.408,-0.464 0.46,-0.443 0.5,-0.401C0.54,-0.359 0.561,-0.306 0.561,-0.24C0.561,-0.165 0.538,-0.103 0.493,-0.055C0.448,-0.006 0.391,0.018 0.321,0.018C0.242,0.018 0.179,-0.014 0.134,-0.078C0.089,-0.142 0.067,-0.231 0.067,-0.345C0.067,-0.471 0.093,-0.568 0.144,-0.637C0.196,-0.707 0.269,-0.741 0.362,-0.741C0.405,-0.741 0.459,-0.732 0.523,-0.714L0.523,-0.63C0.455,-0.656 0.4,-0.669 0.356,-0.669C0.233,-0.669 0.172,-0.571 0.172,-0.375ZM0.464,-0.219C0.464,-0.273 0.452,-0.316 0.427,-0.348C0.402,-0.379 0.368,-0.395 0.325,-0.395C0.284,-0.395 0.249,-0.381 0.22,-0.354C0.19,-0.326 0.176,-0.293 0.176,-0.255C0.176,-0.194 0.19,-0.146 0.218,-0.109C0.245,-0.073 0.282,-0.054 0.328,-0.054C0.369,-0.054 0.402,-0.069 0.427,-0.099C0.452,-0.129 0.464,-0.169 0.464,-0.219Z" style="fill-rule:nonzero;"/>
                </g>
                <g transform="matrix(28.3465,0,0,28.3465,-4.05543,0)">
                    <path d="M0.313,0.018C0.239,0.018 0.179,-0.017 0.133,-0.087C0.087,-0.157 0.063,-0.249 0.063,-0.362C0.063,-0.476 0.087,-0.567 0.133,-0.637C0.179,-0.706 0.241,-0.741 0.316,-0.741C0.392,-0.741 0.453,-0.706 0.5,-0.637C0.546,-0.567 0.569,-0.476 0.569,-0.363C0.569,-0.247 0.546,-0.155 0.5,-0.086C0.453,-0.017 0.391,0.018 0.313,0.018ZM0.314,-0.054C0.416,-0.054 0.467,-0.158 0.467,-0.365C0.467,-0.567 0.417,-0.668 0.316,-0.668C0.216,-0.668 0.166,-0.566 0.166,-0.362C0.166,-0.157 0.215,-0.054 0.314,-0.054Z" style="fill-rule:nonzero;"/>
                </g>
                <g transform="matrix(28.3465,0,0,28.3465,13.8687,0)">
                    <path d="M0.096,-0L0.096,-0.53L0.192,-0.53L0.192,-0.431C0.239,-0.505 0.299,-0.542 0.373,-0.542C0.444,-0.542 0.492,-0.505 0.518,-0.431C0.564,-0.505 0.623,-0.542 0.696,-0.542C0.743,-0.542 0.779,-0.529 0.805,-0.501C0.83,-0.474 0.843,-0.435 0.843,-0.386L0.843,-0L0.747,-0L0.747,-0.371C0.747,-0.431 0.723,-0.461 0.675,-0.461C0.625,-0.461 0.573,-0.426 0.518,-0.355L0.518,-0L0.421,-0L0.421,-0.371C0.421,-0.431 0.397,-0.462 0.348,-0.462C0.3,-0.462 0.248,-0.426 0.192,-0.355L0.192,-0L0.096,-0Z" style="fill-rule:nonzero;"/>
                </g>
                <g transform="matrix(28.3465,0,0,28.3465,40.3328,0)">
                    <path d="M0.096,-0L0.096,-0.53L0.192,-0.53L0.192,-0.431C0.239,-0.505 0.299,-0.542 0.373,-0.542C0.444,-0.542 0.492,-0.505 0.518,-0.431C0.564,-0.505 0.623,-0.542 0.696,-0.542C0.743,-0.542 0.779,-0.529 0.805,-0.501C0.83,-0.474 0.843,-0.435 0.843,-0.386L0.843,-0L0.747,-0L0.747,-0.371C0.747,-0.431 0.723,-0.461 0.675,-0.461C0.625,-0.461 0.573,-0.426 0.518,-0.355L0.518,-0L0.421,-0L0.421,-0.371C0.421,-0.431 0.397,-0.462 0.348,-0.462C0.3,-0.462 0.248,-0.426 0.192,-0.355L0.192,-0L0.096,-0Z" style="fill-rule:nonzero;"/>
                </g>
            </g>
            <g transform="matrix(0,1,-1,0,692.674,179.036)">
                <g transform="matrix(28.3465,0,0,28.3465,-66.7969,0)">
                    <path d="M0.313,0.018C0.239,0.018 0.179,-0.017 0.133,-0.087C0.087,-0.157 0.063,-0.249 0.063,-0.362C0.063,-0.476 0.087,-0.567 0.133,-0.637C0.179,-0.706 0.241,-0.741 0.316,-0.741C0.392,-0.741 0.453,-0.706 0.5,-0.637C0.546,-0.567 0.569,-0.476 0.569,-0.363C0.569,-0.247 0.546,-0.155 0.5,-0.086C0.453,-0.017 0.391,0.018 0.313,0.018ZM0.314,-0.054C0.416,-0.054 0.467,-0.158 0.467,-0.365C0.467,-0.567 0.417,-0.668 0.316,-0.668C0.216,-0.668 0.166,-0.566 0.166,-0.362C0.166,-0.157 0.215,-0.054 0.314,-0.054Z" style="fill-rule:nonzero;"/>
                </g>
                <g transform="matrix(28.3465,0,0,28.3465,-48.8727,0)">
                    <rect x="0.098" y="-0.121" width="0.121" height="0.121" style="fill-rule:nonzero;"/>
                </g>
                <g transform="matrix(28.3465,0,0,28.3465,-39.9037,0)">
                    <path d="M0.15,-0L0.15,-0.072L0.295,-0.072L0.295,-0.643L0.15,-0.606L0.15,-0.681L0.392,-0.741L0.392,-0.072L0.536,-0.072L0.536,-0L0.15,-0Z" style="fill-rule:nonzero;"/>
                </g>
                <g transform="matrix(28.3465,0,0,28.3465,-21.9796,0)">
                    <path d="M0.15,-0C0.16,-0.056 0.173,-0.105 0.191,-0.146C0.208,-0.187 0.239,-0.243 0.283,-0.315L0.48,-0.632L0.108,-0.632L0.108,-0.723L0.572,-0.723L0.572,-0.632C0.387,-0.359 0.283,-0.148 0.261,-0L0.15,-0Z" style="fill-rule:nonzero;"/>
                </g>
                <g transform="matrix(28.3465,0,0,28.3465,-4.05543,0)">
                    <path d="M0.313,0.018C0.239,0.018 0.179,-0.017 0.133,-0.087C0.087,-0.157 0.063,-0.249 0.063,-0.362C0.063,-0.476 0.087,-0.567 0.133,-0.637C0.179,-0.706 0.241,-0.741 0.316,-0.741C0.392,-0.741 0.453,-0.706 0.5,-0.637C0.546,-0.567 0.569,-0.476 0.569,-0.363C0.569,-0.247 0.546,-0.155 0.5,-0.086C0.453,-0.017 0.391,0.018 0.313,0.018ZM0.314,-0.054C0.416,-0.054 0.467,-0.158 0.467,-0.365C0.467,-0.567 0.417,-0.668 0.316,-0.668C0.216,-0.668 0.166,-0.566 0.166,-0.362C0.166,-0.157 0.215,-0.054 0.314,-0.054Z" style="fill-rule:nonzero;"/>
                </g>
                <g transform="matrix(28.3465,0,0,28.3465,13.8687,0)">
                    <path d="M0.096,-0L0.096,-0.53L0.192,-0.53L0.192,-0.431C0.239,-0.505 0.299,-0.542 0.373,-0.542C0.444,-0.542 0.492,-0.505 0.518,-0.431C0.564,-0.505 0.623,-0.542 0.696,-0.542C0.743,-0.542 0.779,-0.529 0.805,-0.501C0.83,-0.474 0.843,-0.435 0.843,-0.386L0.843,-0L0.747,-0L0.747,-0.371C0.747,-0.431 0.723,-0.461 0.675,-0.461C0.625,-0.461 0.573,-0.426 0.518,-0.355L0.518,-0L0.421,-0L0.421,-0.371C0.421,-0.431 0.397,-0.462 0.348,-0.462C0.3,-0.462 0.248,-0.426 0.192,-0.355L0.192,-0L0.096,-0Z" style="fill-rule:nonzero;"/>
                </g>
                <g transform="matrix(28.3465,0,0,28.3465,40.3328,0)">
                    <path d="M0.096,-0L0.096,-0.53L0.192,-0.53L0.192,-0.431C0.239,-0.505 0.299,-0.542 0.373,-0.542C0.444,-0.542 0.492,-0.505 0.518,-0.431C0.564,-0.505 0.623,-0.542 0.696,-0.542C0.743,-0.542 0.779,-0.529 0.805,-0.501C0.83,-0.474 0.843,-0.435 0.843,-0.386L0.843,-0L0.747,-0L0.747,-0.371C0.747,-0.431 0.723,-0.461 0.675,-0.461C0.625,-0.461 0.573,-0.426 0.518,-0.355L0.518,-0L0.421,-0L0.421,-0.371C0.421,-0.431 0.397,-0.462 0.348,-0.462C0.3,-0.462 0.248,-0.426 0.192,-0.355L0.192,-0L0.096,-0Z" style="fill-rule:nonzero;"/>
                </g>
            </g>
            <g transform="matrix(1,0,0,1,1094.83,284.4)">
                <g transform="matrix(28.3465,0,0,28.3465,-66.7969,0)">
                    <path d="M0.313,0.018C0.239,0.018 0.179,-0.017 0.133,-0.087C0.087,-0.157 0.063,-0.249 0.063,-0.362C0.063,-0.476 0.087,-0.567 0.133,-0.637C0.179,-0.706 0.241,-0.741 0.316,-0.741C0.392,-0.741 0.453,-0.706 0.5,-0.637C0.546,-0.567 0.569,-0.476 0.569,-0.363C0.569,-0.247 0.546,-0.155 0.5,-0.086C0.453,-0.017 0.391,0.018 0.313,0.018ZM0.314,-0.054C0.416,-0.054 0.467,-0.158 0.467,-0.365C0.467,-0.567 0.417,-0.668 0.316,-0.668C0.216,-0.668 0.166,-0.566 0.166,-0.362C0.166,-0.157 0.215,-0.054 0.314,-0.054Z" style="fill-rule:nonzero;"/>
                </g>
                <g transform="matrix(28.3465,0,0,28.3465,-48.8727,0)">
                    <rect x="0.098" y="-0.121" width="0.121" height="0.121" style="fill-rule:nonzero;"/>
                </g>
                <g transform="matrix(28.3465,0,0,28.3465,-39.9037,0)">
                    <path d="M0.15,-0L0.15,-0.072L0.295,-0.072L0.295,-0.643L0.15,-0.606L0.15,-0.681L0.392,-0.741L0.392,-0.072L0.536,-0.072L0.536,-0L0.15,-0Z" style="fill-rule:nonzero;"/>
                </g>
                <g transform="matrix(28.3465,0,0,28.3465,-21.9796,0)">
                    <path d="M0.376,-0L0.376,-0.205L0.051,-0.205L0.051,-0.277L0.376,-0.723L0.467,-0.723L0.467,-0.283L0.563,-0.283L0.563,-0.205L0.467,-0.205L0.467,-0L0.376,-0ZM0.146,-0.283L0.383,-0.283L0.383,-0.604L0.146,-0.283Z" style="fill-rule:nonzero;"/>
                </g>
                <g transform="matrix(28.3465,0,0,28.3465,-4.05543,0)">
                    <path d="M0.313,0.018C0.239,0.018 0.179,-0.017 0.133,-0.087C0.087,-0.157 0.063,-0.249 0.063,-0.362C0.063,-0.476 0.087,-0.567 0.133,-0.637C0.179,-0.706 0.241,-0.741 0.316,-0.741C0.392,-0.741 0.453,-0.706 0.5,-0.637C0.546,-0.567 0.569,-0.476 0.569,-0.363C0.569,-0.247 0.546,-0.155 0.5,-0.086C0.453,-0.017 0.391,0.018 0.313,0.018ZM0.314,-0.054C0.416,-0.054 0.467,-0.158 0.467,-0.365C0.467,-0.567 0.417,-0.668 0.316,-0.668C0.216,-0.668 0.166,-0.566 0.166,-0.362C0.166,-0.157 0.215,-0.054 0.314,-0.054Z" style="fill-rule:nonzero;"/>
                </g>
                <g transform="matrix(28.3465,0,0,28.3465,13.8687,0)">
                    <path d="M0.096,-0L0.096,-0.53L0.192,-0.53L0.192,-0.431C0.239,-0.505 0.299,-0.542 0.373,-0.542C0.444,-0.542 0.492,-0.505 0.518,-0.431C0.564,-0.505 0.623,-0.542 0.696,-0.542C0.743,-0.542 0.779,-0.529 0.805,-0.501C0.83,-0.474 0.843,-0.435 0.843,-0.386L0.843,-0L0.747,-0L0.747,-0.371C0.747,-0.431 0.723,-0.461 0.675,-0.461C0.625,-0.461 0.573,-0.426 0.518,-0.355L0.518,-0L0.421,-0L0.421,-0.371C0.421,-0.431 0.397,-0.462 0.348,-0.462C0.3,-0.462 0.248,-0.426 0.192,-0.355L0.192,-0L0.096,-0Z" style="fill-rule:nonzero;"/>
                </g>
                <g transform="matrix(28.3465,0,0,28.3465,40.3328,0)">
                    <path d="M0.096,-0L0.096,-0.53L0.192,-0.53L0.192,-0.431C0.239,-0.505 0.299,-0.542 0.373,-0.542C0.444,-0.542 0.492,-0.505 0.518,-0.431C0.564,-0.505 0.623,-0.542 0.696,-0.542C0.743,-0.542 0.779,-0.529 0.805,-0.501C0.83,-0.474 0.843,-0.435 0.843,-0.386L0.843,-0L0.747,-0L0.747,-0.371C0.747,-0.431 0.723,-0.461 0.675,-0.461C0.625,-0.461 0.573,-0.426 0.518,-0.355L0.518,-0L0.421,-0L0.421,-0.371C0.421,-0.431 0.397,-0.462 0.348,-0.462C0.3,-0.462 0.248,-0.426 0.192,-0.355L0.192,-0L0.096,-0Z" style="fill-rule:nonzero;"/>
                </g>
            </g>
            <g transform="matrix(0,-1,1,0,1200.1,179.121)">
                <g transform="matrix(28.3465,0,0,28.3465,-66.7969,0)">
                    <path d="M0.313,0.018C0.239,0.018 0.179,-0.017 0.133,-0.087C0.087,-0.157 0.063,-0.249 0.063,-0.362C0.063,-0.476 0.087,-0.567 0.133,-0.637C0.179,-0.706 0.241,-0.741 0.316,-0.741C0.392,-0.741 0.453,-0.706 0.5,-0.637C0.546,-0.567 0.569,-0.476 0.569,-0.363C0.569,-0.247 0.546,-0.155 0.5,-0.086C0.453,-0.017 0.391,0.018 0.313,0.018ZM0.314,-0.054C0.416,-0.054 0.467,-0.158 0.467,-0.365C0.467,-0.567 0.417,-0.668 0.316,-0.668C0.216,-0.668 0.166,-0.566 0.166,-0.362C0.166,-0.157 0.215,-0.054 0.314,-0.054Z" style="fill-rule:nonzero;"/>
                </g>
                <g transform="matrix(28.3465,0,0,28.3465,-48.8727,0)">
                    <rect x="0.098" y="-0.121" width="0.121" height="0.121" style="fill-rule:nonzero;"/>
                </g>
                <g transform="matrix(28.3465,0,0,28.3465,-39.9037,0)">
                    <path d="M0.15,-0L0.15,-0.072L0.295,-0.072L0.295,-0.643L0.15,-0.606L0.15,-0.681L0.392,-0.741L0.392,-0.072L0.536,-0.072L0.536,-0L0.15,-0Z" style="fill-rule:nonzero;"/>
                </g>
                <g transform="matrix(28.3465,0,0,28.3465,-21.9796,0)">
                    <path d="M0.122,0.003L0.122,-0.083C0.169,-0.064 0.215,-0.054 0.258,-0.054C0.306,-0.054 0.343,-0.068 0.37,-0.096C0.398,-0.124 0.411,-0.163 0.411,-0.212C0.411,-0.32 0.336,-0.375 0.187,-0.375C0.17,-0.375 0.152,-0.373 0.134,-0.371L0.134,-0.723L0.5,-0.723L0.5,-0.639L0.218,-0.639L0.218,-0.448C0.311,-0.448 0.383,-0.427 0.436,-0.384C0.488,-0.342 0.514,-0.283 0.514,-0.207C0.514,-0.137 0.49,-0.082 0.443,-0.042C0.395,-0.002 0.33,0.018 0.246,0.018C0.209,0.018 0.168,0.013 0.122,0.003Z" style="fill-rule:nonzero;"/>
                </g>
                <g transform="matrix(28.3465,0,0,28.3465,-4.05543,0)">
                    <path d="M0.313,0.018C0.239,0.018 0.179,-0.017 0.133,-0.087C0.087,-0.157 0.063,-0.249 0.063,-0.362C0.063,-0.476 0.087,-0.567 0.133,-0.637C0.179,-0.706 0.241,-0.741 0.316,-0.741C0.392,-0.741 0.453,-0.706 0.5,-0.637C0.546,-0.567 0.569,-0.476 0.569,-0.363C0.569,-0.247 0.546,-0.155 0.5,-0.086C0.453,-0.017 0.391,0.018 0.313,0.018ZM0.314,-0.054C0.416,-0.054 0.467,-0.158 0.467,-0.365C0.467,-0.567 0.417,-0.668 0.316,-0.668C0.216,-0.668 0.166,-0.566 0.166,-0.362C0.166,-0.157 0.215,-0.054 0.314,-0.054Z" style="fill-rule:nonzero;"/>
                </g>
                <g transform="matrix(28.3465,0,0,28.3465,13.8687,0)">
                    <path d="M0.096,-0L0.096,-0.53L0.192,-0.53L0.192,-0.431C0.239,-0.505 0.299,-0.542 0.373,-0.542C0.444,-0.542 0.492,-0.505 0.518,-0.431C0.564,-0.505 0.623,-0.542 0.696,-0.542C0.743,-0.542 0.779,-0.529 0.805,-0.501C0.83,-0.474 0.843,-0.435 0.843,-0.386L0.843,-0L0.747,-0L0.747,-0.371C0.747,-0.431 0.723,-0.461 0.675,-0.461C0.625,-0.461 0.573,-0.426 0.518,-0.355L0.518,-0L0.421,-0L0.421,-0.371C0.421,-0.431 0.397,-0.462 0.348,-0.462C0.3,-0.462 0.248,-0.426 0.192,-0.355L0.192,-0L0.096,-0Z" style="fill-rule:nonzero;"/>
                </g>
                <g transform="matrix(28.3465,0,0,28.3465,40.3328,0)">
                    <path d="M0.096,-0L0.096,-0.53L0.192,-0.53L0.192,-0.431C0.239,-0.505 0.299,-0.542 0.373,-0.542C0.444,-0.542 0.492,-0.505 0.518,-0.431C0.564,-0.505 0.623,-0.542 0.696,-0.542C0.743,-0.542 0.779,-0.529 0.805,-0.501C0.83,-0.474 0.843,-0.435 0.843,-0.386L0.843,-0L0.747,-0L0.747,-0.371C0.747,-0.431 0.723,-0.461 0.675,-0.461C0.625,-0.461 0.573,-0.426 0.518,-0.355L0.518,-0L0.421,-0L0.421,-0.371C0.421,-0.431 0.397,-0.462 0.348,-0.462C0.3,-0.462 0.248,-0.426 0.192,-0.355L0.192,-0L0.096,-0Z" style="fill-rule:nonzero;"/>
                </g>
            </g>
            <g transform="matrix(-1,0,0,-1,1094.8,73.8142)">
                <g transform="matrix(28.3465,0,0,28.3465,-66.7969,0)">
                    <path d="M0.313,0.018C0.239,0.018 0.179,-0.017 0.133,-0.087C0.087,-0.157 0.063,-0.249 0.063,-0.362C0.063,-0.476 0.087,-0.567 0.133,-0.637C0.179,-0.706 0.241,-0.741 0.316,-0.741C0.392,-0.741 0.453,-0.706 0.5,-0.637C0.546,-0.567 0.569,-0.476 0.569,-0.363C0.569,-0.247 0.546,-0.155 0.5,-0.086C0.453,-0.017 0.391,0.018 0.313,0.018ZM0.314,-0.054C0.416,-0.054 0.467,-0.158 0.467,-0.365C0.467,-0.567 0.417,-0.668 0.316,-0.668C0.216,-0.668 0.166,-0.566 0.166,-0.362C0.166,-0.157 0.215,-0.054 0.314,-0.054Z" style="fill-rule:nonzero;"/>
                </g>
                <g transform="matrix(28.3465,0,0,28.3465,-48.8727,0)">
                    <rect x="0.098" y="-0.121" width="0.121" height="0.121" style="fill-rule:nonzero;"/>
                </g>
                <g transform="matrix(28.3465,0,0,28.3465,-39.9037,0)">
                    <path d="M0.15,-0L0.15,-0.072L0.295,-0.072L0.295,-0.643L0.15,-0.606L0.15,-0.681L0.392,-0.741L0.392,-0.072L0.536,-0.072L0.536,-0L0.15,-0Z" style="fill-rule:nonzero;"/>
                </g>
                <g transform="matrix(28.3465,0,0,28.3465,-21.9796,0)">
                    <path d="M0.172,-0.375C0.218,-0.434 0.276,-0.464 0.345,-0.464C0.408,-0.464 0.46,-0.443 0.5,-0.401C0.54,-0.359 0.561,-0.306 0.561,-0.24C0.561,-0.165 0.538,-0.103 0.493,-0.055C0.448,-0.006 0.391,0.018 0.321,0.018C0.242,0.018 0.179,-0.014 0.134,-0.078C0.089,-0.142 0.067,-0.231 0.067,-0.345C0.067,-0.471 0.093,-0.568 0.144,-0.637C0.196,-0.707 0.269,-0.741 0.362,-0.741C0.405,-0.741 0.459,-0.732 0.523,-0.714L0.523,-0.63C0.455,-0.656 0.4,-0.669 0.356,-0.669C0.233,-0.669 0.172,-0.571 0.172,-0.375ZM0.464,-0.219C0.464,-0.273 0.452,-0.316 0.427,-0.348C0.402,-0.379 0.368,-0.395 0.325,-0.395C0.284,-0.395 0.249,-0.381 0.22,-0.354C0.19,-0.326 0.176,-0.293 0.176,-0.255C0.176,-0.194 0.19,-0.146 0.218,-0.109C0.245,-0.073 0.282,-0.054 0.328,-0.054C0.369,-0.054 0.402,-0.069 0.427,-0.099C0.452,-0.129 0.464,-0.169 0.464,-0.219Z" style="fill-rule:nonzero;"/>
                </g>
                <g transform="matrix(28.3465,0,0,28.3465,-4.05543,0)">
                    <path d="M0.313,0.018C0.239,0.018 0.179,-0.017 0.133,-0.087C0.087,-0.157 0.063,-0.249 0.063,-0.362C0.063,-0.476 0.087,-0.567 0.133,-0.637C0.179,-0.706 0.241,-0.741 0.316,-0.741C0.392,-0.741 0.453,-0.706 0.5,-0.637C0.546,-0.567 0.569,-0.476 0.569,-0.363C0.569,-0.247 0.546,-0.155 0.5,-0.086C0.453,-0.017 0.391,0.018 0.313,0.018ZM0.314,-0.054C0.416,-0.054 0.467,-0.158 0.467,-0.365C0.467,-0.567 0.417,-0.668 0.316,-0.668C0.216,-0.668 0.166,-0.566 0.166,-0.362C0.166,-0.157 0.215,-0.054 0.314,-0.054Z" style="fill-rule:nonzero;"/>
                </g>
                <g transform="matrix(28.3465,0,0,28.3465,13.8687,0)">
                    <path d="M0.096,-0L0.096,-0.53L0.192,-0.53L0.192,-0.431C0.239,-0.505 0.299,-0.542 0.373,-0.542C0.444,-0.542 0.492,-0.505 0.518,-0.431C0.564,-0.505 0.623,-0.542 0.696,-0.542C0.743,-0.542 0.779,-0.529 0.805,-0.501C0.83,-0.474 0.843,-0.435 0.843,-0.386L0.843,-0L0.747,-0L0.747,-0.371C0.747,-0.431 0.723,-0.461 0.675,-0.461C0.625,-0.461 0.573,-0.426 0.518,-0.355L0.518,-0L0.421,-0L0.421,-0.371C0.421,-0.431 0.397,-0.462 0.348,-0.462C0.3,-0.462 0.248,-0.426 0.192,-0.355L0.192,-0L0.096,-0Z" style="fill-rule:nonzero;"/>
                </g>
                <g transform="matrix(28.3465,0,0,28.3465,40.3328,0)">
                    <path d="M0.096,-0L0.096,-0.53L0.192,-0.53L0.192,-0.431C0.239,-0.505 0.299,-0.542 0.373,-0.542C0.444,-0.542 0.492,-0.505 0.518,-0.431C0.564,-0.505 0.623,-0.542 0.696,-0.542C0.743,-0.542 0.779,-0.529 0.805,-0.501C0.83,-0.474 0.843,-0.435 0.843,-0.386L0.843,-0L0.747,-0L0.747,-0.371C0.747,-0.431 0.723,-0.461 0.675,-0.461C0.625,-0.461 0.573,-0.426 0.518,-0.355L0.518,-0L0.421,-0L0.421,-0.371C0.421,-0.431 0.397,-0.462 0.348,-0.462C0.3,-0.462 0.248,-0.426 0.192,-0.355L0.192,-0L0.096,-0Z" style="fill-rule:nonzero;"/>
                </g>
            </g>
            <g transform="matrix(0,1,-1,0,989.461,179.15)">
                <g transform="matrix(28.3465,0,0,28.3465,-66.7969,0)">
                    <path d="M0.313,0.018C0.239,0.018 0.179,-0.017 0.133,-0.087C0.087,-0.157 0.063,-0.249 0.063,-0.362C0.063,-0.476 0.087,-0.567 0.133,-0.637C0.179,-0.706 0.241,-0.741 0.316,-0.741C0.392,-0.741 0.453,-0.706 0.5,-0.637C0.546,-0.567 0.569,-0.476 0.569,-0.363C0.569,-0.247 0.546,-0.155 0.5,-0.086C0.453,-0.017 0.391,0.018 0.313,0.018ZM0.314,-0.054C0.416,-0.054 0.467,-0.158 0.467,-0.365C0.467,-0.567 0.417,-0.668 0.316,-0.668C0.216,-0.668 0.166,-0.566 0.166,-0.362C0.166,-0.157 0.215,-0.054 0.314,-0.054Z" style="fill-rule:nonzero;"/>
                </g>
                <g transform="matrix(28.3465,0,0,28.3465,-48.8727,0)">
                    <rect x="0.098" y="-0.121" width="0.121" height="0.121" style="fill-rule:nonzero;"/>
                </g>
                <g transform="matrix(28.3465,0,0,28.3465,-39.9037,0)">
                    <path d="M0.15,-0L0.15,-0.072L0.295,-0.072L0.295,-0.643L0.15,-0.606L0.15,-0.681L0.392,-0.741L0.392,-0.072L0.536,-0.072L0.536,-0L0.15,-0Z" style="fill-rule:nonzero;"/>
                </g>
                <g transform="matrix(28.3465,0,0,28.3465,-21.9796,0)">
                    <path d="M0.15,-0C0.16,-0.056 0.173,-0.105 0.191,-0.146C0.208,-0.187 0.239,-0.243 0.283,-0.315L0.48,-0.632L0.108,-0.632L0.108,-0.723L0.572,-0.723L0.572,-0.632C0.387,-0.359 0.283,-0.148 0.261,-0L0.15,-0Z" style="fill-rule:nonzero;"/>
                </g>
                <g transform="matrix(28.3465,0,0,28.3465,-4.05543,0)">
                    <path d="M0.313,0.018C0.239,0.018 0.179,-0.017 0.133,-0.087C0.087,-0.157 0.063,-0.249 0.063,-0.362C0.063,-0.476 0.087,-0.567 0.133,-0.637C0.179,-0.706 0.241,-0.741 0.316,-0.741C0.392,-0.741 0.453,-0.706 0.5,-0.637C0.546,-0.567 0.569,-0.476 0.569,-0.363C0.569,-0.247 0.546,-0.155 0.5,-0.086C0.453,-0.017 0.391,0.018 0.313,0.018ZM0.314,-0.054C0.416,-0.054 0.467,-0.158 0.467,-0.365C0.467,-0.567 0.417,-0.668 0.316,-0.668C0.216,-0.668 0.166,-0.566 0.166,-0.362C0.166,-0.157 0.215,-0.054 0.314,-0.054Z" style="fill-rule:nonzero;"/>
                </g>
                <g transform="matrix(28.3465,0,0,28.3465,13.8687,0)">
                    <path d="M0.096,-0L0.096,-0.53L0.192,-0.53L0.192,-0.431C0.239,-0.505 0.299,-0.542 0.373,-0.542C0.444,-0.542 0.492,-0.505 0.518,-0.431C0.564,-0.505 0.623,-0.542 0.696,-0.542C0.743,-0.542 0.779,-0.529 0.805,-0.501C0.83,-0.474 0.843,-0.435 0.843,-0.386L0.843,-0L0.747,-0L0.747,-0.371C0.747,-0.431 0.723,-0.461 0.675,-0.461C0.625,-0.461 0.573,-0.426 0.518,-0.355L0.518,-0L0.421,-0L0.421,-0.371C0.421,-0.431 0.397,-0.462 0.348,-0.462C0.3,-0.462 0.248,-0.426 0.192,-0.355L0.192,-0L0.096,-0Z" style="fill-rule:nonzero;"/>
                </g>
                <g transform="matrix(28.3465,0,0,28.3465,40.3328,0)">
                    <path d="M0.096,-0L0.096,-0.53L0.192,-0.53L0.192,-0.431C0.239,-0.505 0.299,-0.542 0.373,-0.542C0.444,-0.542 0.492,-0.505 0.518,-0.431C0.564,-0.505 0.623,-0.542 0.696,-0.542C0.743,-0.542 0.779,-0.529 0.805,-0.501C0.83,-0.474 0.843,-0.435 0.843,-0.386L0.843,-0L0.747,-0L0.747,-0.371C0.747,-0.431 0.723,-0.461 0.675,-0.461C0.625,-0.461 0.573,-0.426 0.518,-0.355L0.518,-0L0.421,-0L0.421,-0.371C0.421,-0.431 0.397,-0.462 0.348,-0.462C0.3,-0.462 0.248,-0.426 0.192,-0.355L0.192,-0L0.096,-0Z" style="fill-rule:nonzero;"/>
                </g>
            </g>
            <path d="M37.219,320.91L68.117,320.91C68.4,320.91 68.117,320.627 68.117,320.91L68.117,329.131C68.117,329.287 68.244,329.414 68.4,329.414L85.408,329.414C85.564,329.414 85.691,329.287 85.691,329.131L85.691,320.91C85.691,320.627 85.408,320.91 85.691,320.91L102.132,320.91C102.416,320.91 102.132,320.627 102.132,320.91L102.132,329.131C102.132,329.287 102.26,329.414 102.416,329.414L119.424,329.414C119.58,329.414 119.707,329.287 119.707,329.131L119.707,320.91C119.707,320.627 119.424,320.91 119.707,320.91L136.148,320.91C136.431,320.91 136.148,320.627 136.148,320.91L136.148,329.131C136.148,329.287 136.276,329.414 136.431,329.414L153.439,329.414C153.595,329.414 153.723,329.287 153.723,329.131L153.723,320.91C153.723,320.627 153.439,320.91 153.723,320.91L170.164,320.91C170.447,320.91 170.164,320.627 170.164,320.91L170.164,329.131C170.164,329.287 170.291,329.414 170.447,329.414L187.455,329.414C187.611,329.414 187.739,329.287 187.739,329.131L187.739,320.91C187.739,320.627 187.455,320.91 187.739,320.91L204.18,320.91C204.463,320.91 204.18,320.627 204.18,320.91L204.18,329.131C204.18,329.287 204.307,329.414 204.463,329.414L221.471,329.414C221.627,329.414 221.754,329.287 221.754,329.131L221.754,320.91C221.754,320.627 221.471,320.91 221.754,320.91L238.195,320.91C238.479,320.91 238.195,320.627 238.195,320.91L238.195,329.131C238.195,329.287 238.323,329.414 238.479,329.414L255.487,329.414C255.643,329.414 255.77,329.287 255.77,329.131L255.77,320.91C255.77,320.627 255.487,320.91 255.77,320.91L272.211,320.91C272.494,320.91 272.211,320.627 272.211,320.91L272.211,329.131C272.211,329.287 272.339,329.414 272.494,329.414L289.502,329.414C289.658,329.414 289.786,329.287 289.786,329.131L289.786,320.91C289.786,320.627 289.502,320.91 289.786,320.91L320.683,320.91C320.839,320.91 320.967,320.783 320.967,320.627M320.967,320.627L320.967,289.757C320.967,289.446 320.655,289.757 320.967,289.757L329.159,289.757C329.332,289.757 329.471,289.619 329.471,289.446L329.471,272.438C329.471,272.265 329.332,272.126 329.159,272.126L320.967,272.126C320.655,272.126 320.967,272.438 320.967,272.126L320.967,255.742C320.967,255.43 320.655,255.742 320.967,255.742L329.159,255.742C329.332,255.742 329.471,255.603 329.471,255.43L329.471,238.422C329.471,238.249 329.332,238.11 329.159,238.11L320.967,238.11C320.655,238.11 320.967,238.422 320.967,238.11L320.967,221.726C320.967,221.414 320.655,221.726 320.967,221.726L329.159,221.726C329.332,221.726 329.471,221.587 329.471,221.414L329.471,204.406C329.471,204.233 329.332,204.094 329.159,204.094L320.967,204.094C320.655,204.094 320.967,204.406 320.967,204.094L320.967,187.71C320.967,187.398 320.655,187.71 320.967,187.71L329.159,187.71C329.332,187.71 329.471,187.571 329.471,187.398L329.471,170.391C329.471,170.218 329.332,170.079 329.159,170.079L320.967,170.079C320.655,170.079 320.967,170.391 320.967,170.079L320.967,153.694C320.967,153.383 320.655,153.694 320.967,153.694L329.159,153.694C329.332,153.694 329.471,153.556 329.471,153.383L329.471,136.375C329.471,136.202 329.332,136.063 329.159,136.063L320.967,136.063C320.655,136.063 320.967,136.375 320.967,136.063L320.967,119.679C320.967,119.367 320.655,119.679 320.967,119.679L329.159,119.679C329.332,119.679 329.471,119.54 329.471,119.367L329.471,102.359C329.471,102.186 329.332,102.047 329.159,102.047L320.967,102.047C320.655,102.047 320.967,102.359 320.967,102.047L320.967,85.663C320.967,85.351 320.655,85.663 320.967,85.663L329.159,85.663C329.332,85.663 329.471,85.524 329.471,85.351L329.471,68.343C329.471,68.17 329.332,68.031 329.159,68.031L320.967,68.031C320.655,68.031 320.967,68.343 320.967,68.031L320.967,37.162C320.967,36.989 320.828,36.85 320.655,36.85M320.655,36.85L289.814,36.85C289.474,36.85 289.814,37.191 289.814,36.85L289.814,28.687C289.814,28.5 289.661,28.346 289.474,28.346L272.466,28.346C272.279,28.346 272.126,28.5 272.126,28.687L272.126,36.85C272.126,37.191 272.466,36.85 272.126,36.85L255.798,36.85C255.458,36.85 255.798,37.191 255.798,36.85L255.798,28.687C255.798,28.5 255.645,28.346 255.458,28.346L238.45,28.346C238.263,28.346 238.11,28.5 238.11,28.687L238.11,36.85C238.11,37.191 238.45,36.85 238.11,36.85L221.783,36.85C221.443,36.85 221.783,37.191 221.783,36.85L221.783,28.687C221.783,28.5 221.63,28.346 221.443,28.346L204.435,28.346C204.248,28.346 204.094,28.5 204.094,28.687L204.094,36.85C204.094,37.191 204.435,36.85 204.094,36.85L187.767,36.85C187.427,36.85 187.767,37.191 187.767,36.85L187.767,28.687C187.767,28.5 187.614,28.346 187.427,28.346L170.419,28.346C170.232,28.346 170.079,28.5 170.079,28.687L170.079,36.85C170.079,37.191 170.419,36.85 170.079,36.85L153.751,36.85C153.411,36.85 153.751,37.191 153.751,36.85L153.751,28.687C153.751,28.5 153.598,28.346 153.411,28.346L136.403,28.346C136.216,28.346 136.063,28.5 136.063,28.687L136.063,36.85C136.063,37.191 136.403,36.85 136.063,36.85L119.735,36.85C119.395,36.85 119.735,37.191 119.735,36.85L119.735,28.687C119.735,28.5 119.582,28.346 119.395,28.346L102.387,28.346C102.2,28.346 102.047,28.5 102.047,28.687L102.047,36.85C102.047,37.191 102.387,36.85 102.047,36.85L85.72,36.85C85.38,36.85 85.72,37.191 85.72,36.85L85.72,28.687C85.72,28.5 85.567,28.346 85.38,28.346L68.372,28.346C68.185,28.346 68.031,28.5 68.031,28.687L68.031,36.85C68.031,37.191 68.372,36.85 68.031,36.85L37.191,36.85C37.003,36.85 36.85,37.003 36.85,37.191M36.85,37.191L36.85,68.003C36.85,68.372 37.219,68.003 36.85,68.003L28.715,68.003C28.511,68.003 28.346,68.168 28.346,68.372L28.346,85.38C28.346,85.584 28.511,85.748 28.715,85.748L36.85,85.748C37.219,85.748 36.85,85.38 36.85,85.748L36.85,102.019C36.85,102.387 37.219,102.019 36.85,102.019L28.715,102.019C28.511,102.019 28.346,102.183 28.346,102.387L28.346,119.395C28.346,119.599 28.511,119.764 28.715,119.764L36.85,119.764C37.219,119.764 36.85,119.395 36.85,119.764L36.85,136.035C36.85,136.403 37.219,136.035 36.85,136.035L28.715,136.035C28.511,136.035 28.346,136.199 28.346,136.403L28.346,153.411C28.346,153.615 28.511,153.78 28.715,153.78L36.85,153.78C37.219,153.78 36.85,153.411 36.85,153.78L36.85,170.05C36.85,170.419 37.219,170.05 36.85,170.05L28.715,170.05C28.511,170.05 28.346,170.215 28.346,170.419L28.346,187.427C28.346,187.631 28.511,187.795 28.715,187.795L36.85,187.795C37.219,187.795 36.85,187.427 36.85,187.795L36.85,204.066C36.85,204.435 37.219,204.066 36.85,204.066L28.715,204.066C28.511,204.066 28.346,204.231 28.346,204.435L28.346,221.443C28.346,221.647 28.511,221.811 28.715,221.811L36.85,221.811C37.219,221.811 36.85,221.443 36.85,221.811L36.85,238.082C36.85,238.45 37.219,238.082 36.85,238.082L28.715,238.082C28.511,238.082 28.346,238.246 28.346,238.45L28.346,255.458C28.346,255.662 28.511,255.827 28.715,255.827L36.85,255.827C37.219,255.827 36.85,255.458 36.85,255.827L36.85,272.098C36.85,272.466 37.219,272.098 36.85,272.098L28.715,272.098C28.511,272.098 28.346,272.262 28.346,272.466L28.346,289.474C28.346,289.678 28.511,289.843 28.715,289.843L36.85,289.843C37.219,289.843 36.85,289.474 36.85,289.843L36.85,320.655C36.85,320.859 37.015,321.024 37.219,321.024M342.51,329.528L373.691,329.528C373.847,329.528 373.975,329.4 373.975,329.244L373.975,321.024C373.975,320.74 373.691,321.024 373.975,321.024L390.416,321.024C390.699,321.024 390.416,320.74 390.416,321.024L390.416,329.244C390.416,329.4 390.543,329.528 390.699,329.528L407.707,329.528C407.863,329.528 407.991,329.4 407.991,329.244L407.991,321.024C407.991,320.74 407.707,321.024 407.991,321.024L424.431,321.024C424.715,321.024 424.431,320.74 424.431,321.024L424.431,329.244C424.431,329.4 424.559,329.528 424.715,329.528L441.723,329.528C441.879,329.528 442.006,329.4 442.006,329.244L442.006,321.024C442.006,320.74 441.723,321.024 442.006,321.024L458.447,321.024C458.731,321.024 458.447,320.74 458.447,321.024L458.447,329.244C458.447,329.4 458.575,329.528 458.731,329.528L475.739,329.528C475.894,329.528 476.022,329.4 476.022,329.244L476.022,321.024C476.022,320.74 475.739,321.024 476.022,321.024L492.463,321.024C492.746,321.024 492.463,320.74 492.463,321.024L492.463,329.244C492.463,329.4 492.591,329.528 492.746,329.528L509.754,329.528C509.91,329.528 510.038,329.4 510.038,329.244L510.038,321.024C510.038,320.74 509.754,321.024 510.038,321.024L526.479,321.024C526.762,321.024 526.479,320.74 526.479,321.024L526.479,329.244C526.479,329.4 526.606,329.528 526.762,329.528L543.77,329.528C543.926,329.528 544.054,329.4 544.054,329.244L544.054,321.024C544.054,320.74 543.77,321.024 544.054,321.024L560.494,321.024C560.778,321.024 560.494,320.74 560.494,321.024L560.494,329.244C560.494,329.4 560.622,329.528 560.778,329.528L577.786,329.528C577.942,329.528 578.069,329.4 578.069,329.244L578.069,321.024C578.069,320.74 577.786,321.024 578.069,321.024L594.51,321.024C594.794,321.024 594.51,320.74 594.51,321.024L594.51,329.244C594.51,329.4 594.638,329.528 594.794,329.528L634.479,329.528C634.635,329.528 634.762,329.4 634.762,329.244L634.762,320.74M634.762,320.74L634.762,289.559C634.762,289.386 634.623,289.247 634.45,289.247L626.258,289.247C625.946,289.247 626.258,289.559 626.258,289.247L626.258,272.863C626.258,272.551 625.946,272.863 626.258,272.863L634.45,272.863C634.623,272.863 634.762,272.724 634.762,272.551L634.762,255.543C634.762,255.37 634.623,255.231 634.45,255.231L626.258,255.231C625.946,255.231 626.258,255.543 626.258,255.231L626.258,238.847C626.258,238.535 625.946,238.847 626.258,238.847L634.45,238.847C634.623,238.847 634.762,238.708 634.762,238.535L634.762,221.528C634.762,221.355 634.623,221.216 634.45,221.216L626.258,221.216C625.946,221.216 626.258,221.528 626.258,221.216L626.258,204.831C626.258,204.52 625.946,204.831 626.258,204.831L634.45,204.831C634.623,204.831 634.762,204.693 634.762,204.52L634.762,187.512C634.762,187.339 634.623,187.2 634.45,187.2L626.258,187.2C625.946,187.2 626.258,187.512 626.258,187.2L626.258,170.816C626.258,170.504 625.946,170.816 626.258,170.816L634.45,170.816C634.623,170.816 634.762,170.677 634.762,170.504L634.762,153.496C634.762,153.323 634.623,153.184 634.45,153.184L626.258,153.184C625.946,153.184 626.258,153.496 626.258,153.184L626.258,136.8C626.258,136.488 625.946,136.8 626.258,136.8L634.45,136.8C634.623,136.8 634.762,136.661 634.762,136.488L634.762,119.48C634.762,119.307 634.623,119.169 634.45,119.169L626.258,119.169C625.946,119.169 626.258,119.48 626.258,119.169L626.258,102.784C626.258,102.472 625.946,102.784 626.258,102.784L634.45,102.784C634.623,102.784 634.762,102.645 634.762,102.472L634.762,85.465C634.762,85.292 634.623,85.153 634.45,85.153L626.258,85.153C625.946,85.153 626.258,85.465 626.258,85.153L626.258,68.769C626.258,68.457 625.946,68.769 626.258,68.769L634.45,68.769C634.623,68.769 634.762,68.63 634.762,68.457L634.762,28.772C634.762,28.599 634.623,28.46 634.45,28.46L625.946,28.46M625.946,28.46L594.765,28.46C594.578,28.46 594.425,28.613 594.425,28.8L594.425,36.964C594.425,37.304 594.765,36.964 594.425,36.964L578.098,36.964C577.757,36.964 578.098,37.304 578.098,36.964L578.098,28.8C578.098,28.613 577.945,28.46 577.757,28.46L560.75,28.46C560.563,28.46 560.409,28.613 560.409,28.8L560.409,36.964C560.409,37.304 560.75,36.964 560.409,36.964L544.082,36.964C543.742,36.964 544.082,37.304 544.082,36.964L544.082,28.8C544.082,28.613 543.929,28.46 543.742,28.46L526.734,28.46C526.547,28.46 526.394,28.613 526.394,28.8L526.394,36.964C526.394,37.304 526.734,36.964 526.394,36.964L510.066,36.964C509.726,36.964 510.066,37.304 510.066,36.964L510.066,28.8C510.066,28.613 509.913,28.46 509.726,28.46L492.718,28.46C492.531,28.46 492.378,28.613 492.378,28.8L492.378,36.964C492.378,37.304 492.718,36.964 492.378,36.964L476.05,36.964C475.71,36.964 476.05,37.304 476.05,36.964L476.05,28.8C476.05,28.613 475.897,28.46 475.71,28.46L458.702,28.46C458.515,28.46 458.362,28.613 458.362,28.8L458.362,36.964C458.362,37.304 458.702,36.964 458.362,36.964L442.035,36.964C441.694,36.964 442.035,37.304 442.035,36.964L442.035,28.8C442.035,28.613 441.882,28.46 441.694,28.46L424.687,28.46C424.5,28.46 424.346,28.613 424.346,28.8L424.346,36.964C424.346,37.304 424.687,36.964 424.346,36.964L408.019,36.964C407.679,36.964 408.019,37.304 408.019,36.964L408.019,28.8C408.019,28.613 407.866,28.46 407.679,28.46L390.671,28.46C390.484,28.46 390.331,28.613 390.331,28.8L390.331,36.964C390.331,37.304 390.671,36.964 390.331,36.964L374.003,36.964C373.663,36.964 374.003,37.304 374.003,36.964L374.003,28.8C374.003,28.613 373.85,28.46 373.663,28.46L333.978,28.46C333.791,28.46 333.638,28.613 333.638,28.8L333.638,37.304M333.638,37.304L333.638,68.485C333.638,68.689 333.802,68.854 334.006,68.854L342.142,68.854C342.51,68.854 342.142,68.485 342.142,68.854L342.142,85.124C342.142,85.493 342.51,85.124 342.142,85.124L334.006,85.124C333.802,85.124 333.638,85.289 333.638,85.493L333.638,102.501C333.638,102.705 333.802,102.869 334.006,102.869L342.142,102.869C342.51,102.869 342.142,102.501 342.142,102.869L342.142,119.14C342.142,119.509 342.51,119.14 342.142,119.14L334.006,119.14C333.802,119.14 333.638,119.305 333.638,119.509L333.638,136.517C333.638,136.721 333.802,136.885 334.006,136.885L342.142,136.885C342.51,136.885 342.142,136.517 342.142,136.885L342.142,153.156C342.142,153.524 342.51,153.156 342.142,153.156L334.006,153.156C333.802,153.156 333.638,153.32 333.638,153.524L333.638,170.532C333.638,170.736 333.802,170.901 334.006,170.901L342.142,170.901C342.51,170.901 342.142,170.532 342.142,170.901L342.142,187.172C342.142,187.54 342.51,187.172 342.142,187.172L334.006,187.172C333.802,187.172 333.638,187.336 333.638,187.54L333.638,204.548C333.638,204.752 333.802,204.917 334.006,204.917L342.142,204.917C342.51,204.917 342.142,204.548 342.142,204.917L342.142,221.187C342.142,221.556 342.51,221.187 342.142,221.187L334.006,221.187C333.802,221.187 333.638,221.352 333.638,221.556L333.638,238.564C333.638,238.768 333.802,238.932 334.006,238.932L342.142,238.932C342.51,238.932 342.142,238.564 342.142,238.932L342.142,255.203C342.142,255.572 342.51,255.203 342.142,255.203L334.006,255.203C333.802,255.203 333.638,255.368 333.638,255.572L333.638,272.58C333.638,272.784 333.802,272.948 334.006,272.948L342.142,272.948C342.51,272.948 342.142,272.58 342.142,272.948L342.142,289.219C342.142,289.587 342.51,289.219 342.142,289.219L334.006,289.219C333.802,289.219 333.638,289.383 333.638,289.587L333.638,329.272C333.638,329.477 333.802,329.641 334.006,329.641L342.51,329.641M647.802,321.137L678.586,321.137C678.983,321.137 678.586,320.74 678.586,321.137L678.586,329.244C678.586,329.462 678.764,329.641 678.983,329.641L695.991,329.641C696.209,329.641 696.387,329.462 696.387,329.244L696.387,321.137C696.387,320.74 695.991,321.137 696.387,321.137L712.602,321.137C712.998,321.137 712.602,320.74 712.602,321.137L712.602,329.244C712.602,329.462 712.78,329.641 712.998,329.641L730.006,329.641C730.225,329.641 730.403,329.462 730.403,329.244L730.403,321.137C730.403,320.74 730.006,321.137 730.403,321.137L746.617,321.137C747.014,321.137 746.617,320.74 746.617,321.137L746.617,329.244C746.617,329.462 746.796,329.641 747.014,329.641L764.022,329.641C764.24,329.641 764.419,329.462 764.419,329.244L764.419,321.137C764.419,320.74 764.022,321.137 764.419,321.137L780.633,321.137C781.03,321.137 780.633,320.74 780.633,321.137L780.633,329.244C780.633,329.462 780.812,329.641 781.03,329.641L798.038,329.641C798.256,329.641 798.435,329.462 798.435,329.244L798.435,321.137C798.435,320.74 798.038,321.137 798.435,321.137L814.649,321.137C815.046,321.137 814.649,320.74 814.649,321.137L814.649,329.244C814.649,329.462 814.827,329.641 815.046,329.641L832.054,329.641C832.272,329.641 832.45,329.462 832.45,329.244L832.45,321.137C832.45,320.74 832.054,321.137 832.45,321.137L848.665,321.137C849.061,321.137 848.665,320.74 848.665,321.137L848.665,329.244C848.665,329.462 848.843,329.641 849.061,329.641L866.069,329.641C866.288,329.641 866.466,329.462 866.466,329.244L866.466,321.137C866.466,320.74 866.069,321.137 866.466,321.137L882.68,321.137C883.077,321.137 882.68,320.74 882.68,321.137L882.68,329.244C882.68,329.462 882.859,329.641 883.077,329.641L900.085,329.641C900.303,329.641 900.482,329.462 900.482,329.244L900.482,321.137C900.482,320.74 900.085,321.137 900.482,321.137L931.266,321.137C931.484,321.137 931.663,320.958 931.663,320.74M931.663,320.74L931.663,289.559C931.663,289.794 931.473,289.984 931.238,289.984L939.742,289.984C939.977,289.984 940.167,289.794 940.167,289.559L940.167,272.551C940.167,272.316 939.977,272.126 939.742,272.126L931.238,272.126C931.473,272.126 931.663,272.316 931.663,272.551L931.663,255.543C931.663,255.779 931.473,255.969 931.238,255.969L939.742,255.969C939.977,255.969 940.167,255.779 940.167,255.543L940.167,238.535C940.167,238.3 939.977,238.11 939.742,238.11L931.238,238.11C931.473,238.11 931.663,238.3 931.663,238.535L931.663,221.528C931.663,221.763 931.473,221.953 931.238,221.953L939.742,221.953C939.977,221.953 940.167,221.763 940.167,221.528L940.167,204.52C940.167,204.284 939.977,204.094 939.742,204.094L931.238,204.094C931.473,204.094 931.663,204.284 931.663,204.52L931.663,187.512C931.663,187.747 931.473,187.937 931.238,187.937L939.742,187.937C939.977,187.937 940.167,187.747 940.167,187.512L940.167,170.504C940.167,170.269 939.977,170.079 939.742,170.079L931.238,170.079C931.473,170.079 931.663,170.269 931.663,170.504L931.663,153.496C931.663,153.731 931.473,153.921 931.238,153.921L939.742,153.921C939.977,153.921 940.167,153.731 940.167,153.496L940.167,136.488C940.167,136.253 939.977,136.063 939.742,136.063L931.238,136.063C931.473,136.063 931.663,136.253 931.663,136.488L931.663,119.48C931.663,119.716 931.473,119.906 931.238,119.906L939.742,119.906C939.977,119.906 940.167,119.716 940.167,119.48L940.167,102.472C940.167,102.237 939.977,102.047 939.742,102.047L931.238,102.047C931.473,102.047 931.663,102.237 931.663,102.472L931.663,85.465C931.663,85.7 931.473,85.89 931.238,85.89L939.742,85.89C939.977,85.89 940.167,85.7 940.167,85.465L940.167,68.457C940.167,68.221 939.977,68.031 939.742,68.031L931.238,68.031C931.473,68.031 931.663,68.221 931.663,68.457L931.663,37.276C931.663,37.04 931.473,36.85 931.238,36.85M931.238,36.85L900.057,36.85C900.306,36.85 900.51,37.054 900.51,37.304L900.51,28.8C900.51,28.551 900.306,28.346 900.057,28.346L883.049,28.346C882.799,28.346 882.595,28.551 882.595,28.8L882.595,37.304C882.595,37.054 882.799,36.85 883.049,36.85L866.041,36.85C866.29,36.85 866.494,37.054 866.494,37.304L866.494,28.8C866.494,28.551 866.29,28.346 866.041,28.346L849.033,28.346C848.784,28.346 848.58,28.551 848.58,28.8L848.58,37.304C848.58,37.054 848.784,36.85 849.033,36.85L832.025,36.85C832.275,36.85 832.479,37.054 832.479,37.304L832.479,28.8C832.479,28.551 832.275,28.346 832.025,28.346L815.017,28.346C814.768,28.346 814.564,28.551 814.564,28.8L814.564,37.304C814.564,37.054 814.768,36.85 815.017,36.85L798.009,36.85C798.259,36.85 798.463,37.054 798.463,37.304L798.463,28.8C798.463,28.551 798.259,28.346 798.009,28.346L781.002,28.346C780.752,28.346 780.548,28.551 780.548,28.8L780.548,37.304C780.548,37.054 780.752,36.85 781.002,36.85L763.994,36.85C764.243,36.85 764.447,37.054 764.447,37.304L764.447,28.8C764.447,28.551 764.243,28.346 763.994,28.346L746.986,28.346C746.736,28.346 746.532,28.551 746.532,28.8L746.532,37.304C746.532,37.054 746.736,36.85 746.986,36.85L729.978,36.85C730.227,36.85 730.431,37.054 730.431,37.304L730.431,28.8C730.431,28.551 730.227,28.346 729.978,28.346L712.97,28.346C712.721,28.346 712.517,28.551 712.517,28.8L712.517,37.304C712.517,37.054 712.721,36.85 712.97,36.85L695.962,36.85C696.212,36.85 696.416,37.054 696.416,37.304L696.416,28.8C696.416,28.551 696.212,28.346 695.962,28.346L678.954,28.346C678.705,28.346 678.501,28.551 678.501,28.8L678.501,37.304C678.501,37.054 678.705,36.85 678.954,36.85L647.773,36.85C647.524,36.85 647.32,37.054 647.32,37.304M647.32,37.304L647.32,68.485C647.32,68.219 647.535,68.003 647.802,68.003L639.298,68.003C639.031,68.003 638.816,68.219 638.816,68.485L638.816,85.493C638.816,85.759 639.031,85.975 639.298,85.975L647.802,85.975C647.535,85.975 647.32,85.759 647.32,85.493L647.32,102.501C647.32,102.234 647.535,102.019 647.802,102.019L639.298,102.019C639.031,102.019 638.816,102.234 638.816,102.501L638.816,119.509C638.816,119.775 639.031,119.991 639.298,119.991L647.802,119.991C647.535,119.991 647.32,119.775 647.32,119.509L647.32,136.517C647.32,136.25 647.535,136.035 647.802,136.035L639.298,136.035C639.031,136.035 638.816,136.25 638.816,136.517L638.816,153.524C638.816,153.791 639.031,154.006 639.298,154.006L647.802,154.006C647.535,154.006 647.32,153.791 647.32,153.524L647.32,170.532C647.32,170.266 647.535,170.05 647.802,170.05L639.298,170.05C639.031,170.05 638.816,170.266 638.816,170.532L638.816,187.54C638.816,187.807 639.031,188.022 639.298,188.022L647.802,188.022C647.535,188.022 647.32,187.807 647.32,187.54L647.32,204.548C647.32,204.282 647.535,204.066 647.802,204.066L639.298,204.066C639.031,204.066 638.816,204.282 638.816,204.548L638.816,221.556C638.816,221.822 639.031,222.038 639.298,222.038L647.802,222.038C647.535,222.038 647.32,221.822 647.32,221.556L647.32,238.564C647.32,238.297 647.535,238.082 647.802,238.082L639.298,238.082C639.031,238.082 638.816,238.297 638.816,238.564L638.816,255.572C638.816,255.838 639.031,256.054 639.298,256.054L647.802,256.054C647.535,256.054 647.32,255.838 647.32,255.572L647.32,272.58C647.32,272.313 647.535,272.098 647.802,272.098L639.298,272.098C639.031,272.098 638.816,272.313 638.816,272.58L638.816,289.587C638.816,289.854 639.031,290.069 639.298,290.069L647.802,290.069C647.535,290.069 647.32,289.854 647.32,289.587L647.32,320.769C647.32,321.035 647.535,321.25 647.802,321.25M953.093,329.754L984.274,329.754C984.492,329.754 984.671,329.576 984.671,329.357L984.671,321.25C984.671,320.854 984.274,321.25 984.671,321.25L1000.88,321.25C1001.28,321.25 1000.88,320.854 1000.88,321.25L1000.88,329.357C1000.88,329.576 1001.06,329.754 1001.28,329.754L1018.29,329.754C1018.51,329.754 1018.69,329.576 1018.69,329.357L1018.69,321.25C1018.69,320.854 1018.29,321.25 1018.69,321.25L1034.9,321.25C1035.3,321.25 1034.9,320.854 1034.9,321.25L1034.9,329.357C1034.9,329.576 1035.08,329.754 1035.3,329.754L1052.31,329.754C1052.52,329.754 1052.7,329.576 1052.7,329.357L1052.7,321.25C1052.7,320.854 1052.31,321.25 1052.7,321.25L1068.92,321.25C1069.31,321.25 1068.92,320.854 1068.92,321.25L1068.92,329.357C1068.92,329.576 1069.1,329.754 1069.31,329.754L1086.32,329.754C1086.54,329.754 1086.72,329.576 1086.72,329.357L1086.72,321.25C1086.72,320.854 1086.32,321.25 1086.72,321.25L1102.93,321.25C1103.33,321.25 1102.93,320.854 1102.93,321.25L1102.93,329.357C1102.93,329.576 1103.11,329.754 1103.33,329.754L1120.34,329.754C1120.56,329.754 1120.73,329.576 1120.73,329.357L1120.73,321.25C1120.73,320.854 1120.34,321.25 1120.73,321.25L1136.95,321.25C1137.35,321.25 1136.95,320.854 1136.95,321.25L1136.95,329.357C1136.95,329.576 1137.13,329.754 1137.35,329.754L1154.35,329.754C1154.57,329.754 1154.75,329.576 1154.75,329.357L1154.75,321.25C1154.75,320.854 1154.35,321.25 1154.75,321.25L1170.96,321.25C1171.36,321.25 1170.96,320.854 1170.96,321.25L1170.96,329.357C1170.96,329.576 1171.14,329.754 1171.36,329.754L1188.37,329.754C1188.59,329.754 1188.77,329.576 1188.77,329.357L1188.77,321.25C1188.77,320.854 1188.37,321.25 1188.77,321.25L1204.98,321.25C1205.38,321.25 1204.98,320.854 1204.98,321.25L1204.98,329.357C1204.98,329.576 1205.16,329.754 1205.38,329.754L1245.06,329.754C1245.28,329.754 1245.46,329.576 1245.46,329.357L1245.46,320.854M1245.46,320.854L1245.46,289.672C1245.46,289.437 1245.27,289.247 1245.03,289.247L1236.53,289.247C1236.76,289.247 1236.95,289.437 1236.95,289.672L1236.95,272.665C1236.95,272.9 1236.76,273.09 1236.53,273.09L1245.03,273.09C1245.27,273.09 1245.46,272.9 1245.46,272.665L1245.46,255.657C1245.46,255.421 1245.27,255.231 1245.03,255.231L1236.53,255.231C1236.76,255.231 1236.95,255.421 1236.95,255.657L1236.95,238.649C1236.95,238.884 1236.76,239.074 1236.53,239.074L1245.03,239.074C1245.27,239.074 1245.46,238.884 1245.46,238.649L1245.46,221.641C1245.46,221.406 1245.27,221.216 1245.03,221.216L1236.53,221.216C1236.76,221.216 1236.95,221.406 1236.95,221.641L1236.95,204.633C1236.95,204.868 1236.76,205.058 1236.53,205.058L1245.03,205.058C1245.27,205.058 1245.46,204.868 1245.46,204.633L1245.46,187.625C1245.46,187.39 1245.27,187.2 1245.03,187.2L1236.53,187.2C1236.76,187.2 1236.95,187.39 1236.95,187.625L1236.95,170.617C1236.95,170.853 1236.76,171.043 1236.53,171.043L1245.03,171.043C1245.27,171.043 1245.46,170.853 1245.46,170.617L1245.46,153.609C1245.46,153.374 1245.27,153.184 1245.03,153.184L1236.53,153.184C1236.76,153.184 1236.95,153.374 1236.95,153.609L1236.95,136.602C1236.95,136.837 1236.76,137.027 1236.53,137.027L1245.03,137.027C1245.27,137.027 1245.46,136.837 1245.46,136.602L1245.46,119.594C1245.46,119.358 1245.27,119.169 1245.03,119.169L1236.53,119.169C1236.76,119.169 1236.95,119.358 1236.95,119.594L1236.95,102.586C1236.95,102.821 1236.76,103.011 1236.53,103.011L1245.03,103.011C1245.27,103.011 1245.46,102.821 1245.46,102.586L1245.46,85.578C1245.46,85.343 1245.27,85.153 1245.03,85.153L1236.53,85.153C1236.76,85.153 1236.95,85.343 1236.95,85.578L1236.95,68.57C1236.95,68.805 1236.76,68.995 1236.53,68.995L1245.03,68.995C1245.27,68.995 1245.46,68.805 1245.46,68.57L1245.46,28.885C1245.46,28.65 1245.27,28.46 1245.03,28.46L1236.53,28.46M1236.53,28.46L1205.35,28.46C1205.1,28.46 1204.89,28.664 1204.89,28.913L1204.89,37.417C1204.89,37.168 1205.1,36.964 1205.35,36.964L1188.34,36.964C1188.59,36.964 1188.79,37.168 1188.79,37.417L1188.79,28.913C1188.79,28.664 1188.59,28.46 1188.34,28.46L1171.33,28.46C1171.08,28.46 1170.88,28.664 1170.88,28.913L1170.88,37.417C1170.88,37.168 1171.08,36.964 1171.33,36.964L1154.32,36.964C1154.57,36.964 1154.78,37.168 1154.78,37.417L1154.78,28.913C1154.78,28.664 1154.57,28.46 1154.32,28.46L1137.32,28.46C1137.07,28.46 1136.86,28.664 1136.86,28.913L1136.86,37.417C1136.86,37.168 1137.07,36.964 1137.32,36.964L1120.31,36.964C1120.56,36.964 1120.76,37.168 1120.76,37.417L1120.76,28.913C1120.76,28.664 1120.56,28.46 1120.31,28.46L1103.3,28.46C1103.05,28.46 1102.85,28.664 1102.85,28.913L1102.85,37.417C1102.85,37.168 1103.05,36.964 1103.3,36.964L1086.29,36.964C1086.54,36.964 1086.75,37.168 1086.75,37.417L1086.75,28.913C1086.75,28.664 1086.54,28.46 1086.29,28.46L1069.29,28.46C1069.04,28.46 1068.83,28.664 1068.83,28.913L1068.83,37.417C1068.83,37.168 1069.04,36.964 1069.29,36.964L1052.28,36.964C1052.53,36.964 1052.73,37.168 1052.73,37.417L1052.73,28.913C1052.73,28.664 1052.53,28.46 1052.28,28.46L1035.27,28.46C1035.02,28.46 1034.82,28.664 1034.82,28.913L1034.82,37.417C1034.82,37.168 1035.02,36.964 1035.27,36.964L1018.26,36.964C1018.51,36.964 1018.72,37.168 1018.72,37.417L1018.72,28.913C1018.72,28.664 1018.51,28.46 1018.26,28.46L1001.25,28.46C1001,28.46 1000.8,28.664 1000.8,28.913L1000.8,37.417C1000.8,37.168 1001,36.964 1001.25,36.964L984.246,36.964C984.495,36.964 984.699,37.168 984.699,37.417L984.699,28.913C984.699,28.664 984.495,28.46 984.246,28.46L944.561,28.46C944.311,28.46 944.107,28.664 944.107,28.913L944.107,37.417M944.107,37.417L944.107,68.598C944.107,68.865 944.323,69.08 944.589,69.08L953.093,69.08C952.826,69.08 952.611,68.865 952.611,68.598L952.611,85.606C952.611,85.34 952.826,85.124 953.093,85.124L944.589,85.124C944.323,85.124 944.107,85.34 944.107,85.606L944.107,102.614C944.107,102.881 944.323,103.096 944.589,103.096L953.093,103.096C952.826,103.096 952.611,102.881 952.611,102.614L952.611,119.622C952.611,119.356 952.826,119.14 953.093,119.14L944.589,119.14C944.323,119.14 944.107,119.356 944.107,119.622L944.107,136.63C944.107,136.896 944.323,137.112 944.589,137.112L953.093,137.112C952.826,137.112 952.611,136.896 952.611,136.63L952.611,153.638C952.611,153.371 952.826,153.156 953.093,153.156L944.589,153.156C944.323,153.156 944.107,153.371 944.107,153.638L944.107,170.646C944.107,170.912 944.323,171.128 944.589,171.128L953.093,171.128C952.826,171.128 952.611,170.912 952.611,170.646L952.611,187.654C952.611,187.387 952.826,187.172 953.093,187.172L944.589,187.172C944.323,187.172 944.107,187.387 944.107,187.654L944.107,204.661C944.107,204.928 944.323,205.143 944.589,205.143L953.093,205.143C952.826,205.143 952.611,204.928 952.611,204.661L952.611,221.669C952.611,221.403 952.826,221.187 953.093,221.187L944.589,221.187C944.323,221.187 944.107,221.403 944.107,221.669L944.107,238.677C944.107,238.944 944.323,239.159 944.589,239.159L953.093,239.159C952.826,239.159 952.611,238.944 952.611,238.677L952.611,255.685C952.611,255.419 952.826,255.203 953.093,255.203L944.589,255.203C944.323,255.203 944.107,255.419 944.107,255.685L944.107,272.693C944.107,272.959 944.323,273.175 944.589,273.175L953.093,273.175C952.826,273.175 952.611,272.959 952.611,272.693L952.611,289.701C952.611,289.434 952.826,289.219 953.093,289.219L944.589,289.219C944.323,289.219 944.107,289.434 944.107,289.701L944.107,329.386C944.107,329.652 944.323,329.868 944.589,329.868L953.093,329.868" style="fill:none;fill-rule:nonzero;stroke:black;stroke-width:0.57px;"/>
        </g>
    </g>
</svg>
