<?xml version="1.0" encoding="UTF-8" standalone="no"?>
<!DOCTYPE svg PUBLIC "-//W3C//DTD SVG 1.1//EN" "http://www.w3.org/Graphics/SVG/1.1/DTD/svg11.dtd">
<svg width="1920px" height="1152px" version="1.1" xmlns="http://www.w3.org/2000/svg" xmlns:xlink="http://www.w3.org/1999/xlink" xml:space="preserve" xmlns:serif="http://www.serif.com/" style="fill-rule:evenodd;clip-rule:evenodd;stroke-linecap:round;stroke-linejoin:round;">
    <rect id="Artboard1" x="0" y="0" width="1920" height="1152" style="fill:none;"/>
    <g id="Artboard11" serif:id="Artboard1">
        <g id="Cut-Layer" serif:id="Cut Layer">
            <g transform="matrix(1.33333,0,0,1.33333,10.8171,-746.371)">
                <path d="M28.545,938.041L70.923,938.041C71.033,938.041 71.121,937.953 71.121,937.843L71.121,929.537C71.121,929.339 70.923,929.537 71.121,929.537L87.732,929.537C87.931,929.537 87.732,929.339 87.732,929.537L87.732,937.843C87.732,937.953 87.82,938.041 87.931,938.041L104.939,938.041C105.049,938.041 105.137,937.953 105.137,937.843L105.137,929.537C105.137,929.339 104.939,929.537 105.137,929.537L121.748,929.537C121.946,929.537 121.748,929.339 121.748,929.537L121.748,937.843C121.748,937.953 121.836,938.041 121.946,938.041L138.954,938.041C139.065,938.041 139.153,937.953 139.153,937.843L139.153,929.537C139.153,929.339 138.954,929.537 139.153,929.537L155.764,929.537C155.962,929.537 155.764,929.339 155.764,929.537L155.764,937.843C155.764,937.953 155.852,938.041 155.962,938.041L172.97,938.041C173.081,938.041 173.169,937.953 173.169,937.843L173.169,929.537C173.169,929.339 172.97,929.537 173.169,929.537L189.78,929.537C189.978,929.537 189.78,929.339 189.78,929.537L189.78,937.843C189.78,937.953 189.867,938.041 189.978,938.041L206.986,938.041C207.096,938.041 207.184,937.953 207.184,937.843L207.184,929.537C207.184,929.339 206.986,929.537 207.184,929.537L223.795,929.537C223.994,929.537 223.795,929.339 223.795,929.537L223.795,937.843C223.795,937.953 223.883,938.041 223.994,938.041L241.002,938.041C241.112,938.041 241.2,937.953 241.2,937.843L241.2,929.537C241.2,929.339 241.002,929.537 241.2,929.537L257.811,929.537C258.009,929.537 257.811,929.339 257.811,929.537L257.811,937.843C257.811,937.953 257.899,938.041 258.009,938.041L275.017,938.041C275.128,938.041 275.216,937.953 275.216,937.843L275.216,929.537C275.216,929.339 275.017,929.537 275.216,929.537L291.827,929.537C292.025,929.537 291.827,929.339 291.827,929.537L291.827,937.843C291.827,937.953 291.915,938.041 292.025,938.041L309.033,938.041C309.144,938.041 309.231,937.953 309.231,937.843L309.231,929.537C309.231,929.339 309.033,929.537 309.231,929.537L325.843,929.537C326.041,929.537 325.843,929.339 325.843,929.537L325.843,937.843C325.843,937.953 325.93,938.041 326.041,938.041L343.049,938.041C343.159,938.041 343.247,937.953 343.247,937.843L343.247,929.537C343.247,929.339 343.049,929.537 343.247,929.537L359.858,929.537C360.057,929.537 359.858,929.339 359.858,929.537L359.858,937.843C359.858,937.953 359.946,938.041 360.057,938.041L377.065,938.041C377.175,938.041 377.263,937.953 377.263,937.843L377.263,929.537C377.263,929.339 377.065,929.537 377.263,929.537L393.874,929.537C394.072,929.537 393.874,929.339 393.874,929.537L393.874,937.843C393.874,937.953 393.962,938.041 394.072,938.041L411.08,938.041C411.191,938.041 411.279,937.953 411.279,937.843L411.279,929.537C411.279,929.339 411.08,929.537 411.279,929.537L427.89,929.537C428.088,929.537 427.89,929.339 427.89,929.537L427.89,937.843C427.89,937.953 427.978,938.041 428.088,938.041L445.096,938.041C445.207,938.041 445.294,937.953 445.294,937.843L445.294,929.537C445.294,929.339 445.096,929.537 445.294,929.537L461.906,929.537C462.104,929.537 461.906,929.339 461.906,929.537L461.906,937.843C461.906,937.953 461.993,938.041 462.104,938.041L479.112,938.041C479.222,938.041 479.31,937.953 479.31,937.843L479.31,929.537C479.31,929.339 479.112,929.537 479.31,929.537L495.921,929.537C496.12,929.537 495.921,929.339 495.921,929.537L495.921,937.843C495.921,937.953 496.009,938.041 496.12,938.041L513.128,938.041C513.238,938.041 513.326,937.953 513.326,937.843L513.326,929.537C513.326,929.339 513.128,929.537 513.326,929.537L529.937,929.537C530.135,929.537 529.937,929.339 529.937,929.537L529.937,937.843C529.937,937.953 530.025,938.041 530.135,938.041L547.143,938.041C547.254,938.041 547.342,937.953 547.342,937.843L547.342,929.537C547.342,929.339 547.143,929.537 547.342,929.537L563.953,929.537C564.151,929.537 563.953,929.339 563.953,929.537L563.953,937.843C563.953,937.953 564.041,938.041 564.151,938.041L581.159,938.041C581.27,938.041 581.357,937.953 581.357,937.843L581.357,929.537C581.357,929.339 581.159,929.537 581.357,929.537L597.969,929.537C598.167,929.537 597.969,929.339 597.969,929.537L597.969,937.843C597.969,937.953 598.056,938.041 598.167,938.041L640.545,938.041C640.655,938.041 640.743,937.953 640.743,937.843L640.743,902.409C640.743,902.299 640.655,902.211 640.545,902.211L632.239,902.211C632.041,902.211 632.239,902.409 632.239,902.211L632.239,885.6C632.239,885.402 632.041,885.6 632.239,885.6L640.545,885.6C640.655,885.6 640.743,885.512 640.743,885.402L640.743,868.394C640.743,868.283 640.655,868.195 640.545,868.195L632.239,868.195C632.041,868.195 632.239,868.394 632.239,868.195L632.239,851.584C632.239,851.386 632.041,851.584 632.239,851.584L640.545,851.584C640.655,851.584 640.743,851.496 640.743,851.386L640.743,834.378C640.743,834.267 640.655,834.18 640.545,834.18L632.239,834.18C632.041,834.18 632.239,834.378 632.239,834.18L632.239,817.569C632.239,817.37 632.041,817.569 632.239,817.569L640.545,817.569C640.655,817.569 640.743,817.481 640.743,817.37L640.743,800.362C640.743,800.252 640.655,800.164 640.545,800.164L632.239,800.164C632.041,800.164 632.239,800.362 632.239,800.164L632.239,783.553C632.239,783.354 632.041,783.553 632.239,783.553L640.545,783.553C640.655,783.553 640.743,783.465 640.743,783.354L640.743,766.346C640.743,766.236 640.655,766.148 640.545,766.148L632.239,766.148C632.041,766.148 632.239,766.346 632.239,766.148L632.239,749.537C632.239,749.339 632.041,749.537 632.239,749.537L640.545,749.537C640.655,749.537 640.743,749.449 640.743,749.339L640.743,732.331C640.743,732.22 640.655,732.132 640.545,732.132L632.239,732.132C632.041,732.132 632.239,732.331 632.239,732.132L632.239,715.521C632.239,715.323 632.041,715.521 632.239,715.521L640.545,715.521C640.655,715.521 640.743,715.433 640.743,715.323L640.743,698.315C640.743,698.204 640.655,698.117 640.545,698.117L632.239,698.117C632.041,698.117 632.239,698.315 632.239,698.117L632.239,681.506C632.239,681.307 632.041,681.506 632.239,681.506L640.545,681.506C640.655,681.506 640.743,681.418 640.743,681.307L640.743,664.299C640.743,664.189 640.655,664.101 640.545,664.101L632.239,664.101C632.041,664.101 632.239,664.299 632.239,664.101L632.239,647.49C632.239,647.291 632.041,647.49 632.239,647.49L640.545,647.49C640.655,647.49 640.743,647.402 640.743,647.291L640.743,630.283C640.743,630.173 640.655,630.085 640.545,630.085L632.239,630.085C632.041,630.085 632.239,630.283 632.239,630.085L632.239,613.474C632.239,613.276 632.041,613.474 632.239,613.474L640.545,613.474C640.655,613.474 640.743,613.386 640.743,613.276L640.743,577.843C640.743,577.732 640.655,577.644 640.545,577.644L598.167,577.644C598.056,577.644 597.969,577.732 597.969,577.843L597.969,586.148C597.969,586.346 598.167,586.148 597.969,586.148L581.357,586.148C581.159,586.148 581.357,586.346 581.357,586.148L581.357,577.843C581.357,577.732 581.27,577.644 581.159,577.644L564.151,577.644C564.041,577.644 563.953,577.732 563.953,577.843L563.953,586.148C563.953,586.346 564.151,586.148 563.953,586.148L547.342,586.148C547.143,586.148 547.342,586.346 547.342,586.148L547.342,577.843C547.342,577.732 547.254,577.644 547.143,577.644L530.135,577.644C530.025,577.644 529.937,577.732 529.937,577.843L529.937,586.148C529.937,586.346 530.135,586.148 529.937,586.148L513.326,586.148C513.128,586.148 513.326,586.346 513.326,586.148L513.326,577.843C513.326,577.732 513.238,577.644 513.128,577.644L496.12,577.644C496.009,577.644 495.921,577.732 495.921,577.843L495.921,586.148C495.921,586.346 496.12,586.148 495.921,586.148L479.31,586.148C479.112,586.148 479.31,586.346 479.31,586.148L479.31,577.843C479.31,577.732 479.222,577.644 479.112,577.644L462.104,577.644C461.993,577.644 461.906,577.732 461.906,577.843L461.906,586.148C461.906,586.346 462.104,586.148 461.906,586.148L445.294,586.148C445.096,586.148 445.294,586.346 445.294,586.148L445.294,577.843C445.294,577.732 445.207,577.644 445.096,577.644L428.088,577.644C427.978,577.644 427.89,577.732 427.89,577.843L427.89,586.148C427.89,586.346 428.088,586.148 427.89,586.148L411.279,586.148C411.08,586.148 411.279,586.346 411.279,586.148L411.279,577.843C411.279,577.732 411.191,577.644 411.08,577.644L394.072,577.644C393.962,577.644 393.874,577.732 393.874,577.843L393.874,586.148C393.874,586.346 394.072,586.148 393.874,586.148L377.263,586.148C377.065,586.148 377.263,586.346 377.263,586.148L377.263,577.843C377.263,577.732 377.175,577.644 377.065,577.644L360.057,577.644C359.946,577.644 359.858,577.732 359.858,577.843L359.858,586.148C359.858,586.346 360.057,586.148 359.858,586.148L343.247,586.148C343.049,586.148 343.247,586.346 343.247,586.148L343.247,577.843C343.247,577.732 343.159,577.644 343.049,577.644L326.041,577.644C325.93,577.644 325.843,577.732 325.843,577.843L325.843,586.148C325.843,586.346 326.041,586.148 325.843,586.148L309.231,586.148C309.033,586.148 309.231,586.346 309.231,586.148L309.231,577.843C309.231,577.732 309.144,577.644 309.033,577.644L292.025,577.644C291.915,577.644 291.827,577.732 291.827,577.843L291.827,586.148C291.827,586.346 292.025,586.148 291.827,586.148L275.216,586.148C275.017,586.148 275.216,586.346 275.216,586.148L275.216,577.843C275.216,577.732 275.128,577.644 275.017,577.644L258.009,577.644C257.899,577.644 257.811,577.732 257.811,577.843L257.811,586.148C257.811,586.346 258.009,586.148 257.811,586.148L241.2,586.148C241.002,586.148 241.2,586.346 241.2,586.148L241.2,577.843C241.2,577.732 241.112,577.644 241.002,577.644L223.994,577.644C223.883,577.644 223.795,577.732 223.795,577.843L223.795,586.148C223.795,586.346 223.994,586.148 223.795,586.148L207.184,586.148C206.986,586.148 207.184,586.346 207.184,586.148L207.184,577.843C207.184,577.732 207.096,577.644 206.986,577.644L189.978,577.644C189.867,577.644 189.78,577.732 189.78,577.843L189.78,586.148C189.78,586.346 189.978,586.148 189.78,586.148L173.169,586.148C172.97,586.148 173.169,586.346 173.169,586.148L173.169,577.843C173.169,577.732 173.081,577.644 172.97,577.644L155.962,577.644C155.852,577.644 155.764,577.732 155.764,577.843L155.764,586.148C155.764,586.346 155.962,586.148 155.764,586.148L139.153,586.148C138.954,586.148 139.153,586.346 139.153,586.148L139.153,577.843C139.153,577.732 139.065,577.644 138.954,577.644L121.946,577.644C121.836,577.644 121.748,577.732 121.748,577.843L121.748,586.148C121.748,586.346 121.946,586.148 121.748,586.148L105.137,586.148C104.939,586.148 105.137,586.346 105.137,586.148L105.137,577.843C105.137,577.732 105.049,577.644 104.939,577.644L87.931,577.644C87.82,577.644 87.732,577.732 87.732,577.843L87.732,586.148C87.732,586.346 87.931,586.148 87.732,586.148L71.121,586.148C70.923,586.148 71.121,586.346 71.121,586.148L71.121,577.843C71.121,577.732 71.033,577.644 70.923,577.644L28.545,577.644C28.434,577.644 28.346,577.732 28.346,577.843L28.346,613.276C28.346,613.386 28.434,613.474 28.545,613.474L36.85,613.474C37.049,613.474 36.85,613.276 36.85,613.474L36.85,630.085C36.85,630.283 37.049,630.085 36.85,630.085L28.545,630.085C28.434,630.085 28.346,630.173 28.346,630.283L28.346,647.291C28.346,647.402 28.434,647.49 28.545,647.49L36.85,647.49C37.049,647.49 36.85,647.291 36.85,647.49L36.85,664.101C36.85,664.299 37.049,664.101 36.85,664.101L28.545,664.101C28.434,664.101 28.346,664.189 28.346,664.299L28.346,681.307C28.346,681.418 28.434,681.506 28.545,681.506L36.85,681.506C37.049,681.506 36.85,681.307 36.85,681.506L36.85,698.117C36.85,698.315 37.049,698.117 36.85,698.117L28.545,698.117C28.434,698.117 28.346,698.204 28.346,698.315L28.346,715.323C28.346,715.433 28.434,715.521 28.545,715.521L36.85,715.521C37.049,715.521 36.85,715.323 36.85,715.521L36.85,732.132C36.85,732.331 37.049,732.132 36.85,732.132L28.545,732.132C28.434,732.132 28.346,732.22 28.346,732.331L28.346,749.339C28.346,749.449 28.434,749.537 28.545,749.537L36.85,749.537C37.049,749.537 36.85,749.339 36.85,749.537L36.85,766.148C36.85,766.346 37.049,766.148 36.85,766.148L28.545,766.148C28.434,766.148 28.346,766.236 28.346,766.346L28.346,783.354C28.346,783.465 28.434,783.553 28.545,783.553L36.85,783.553C37.049,783.553 36.85,783.354 36.85,783.553L36.85,800.164C36.85,800.362 37.049,800.164 36.85,800.164L28.545,800.164C28.434,800.164 28.346,800.252 28.346,800.362L28.346,817.37C28.346,817.481 28.434,817.569 28.545,817.569L36.85,817.569C37.049,817.569 36.85,817.37 36.85,817.569L36.85,834.18C36.85,834.378 37.049,834.18 36.85,834.18L28.545,834.18C28.434,834.18 28.346,834.267 28.346,834.378L28.346,851.386C28.346,851.496 28.434,851.584 28.545,851.584L36.85,851.584C37.049,851.584 36.85,851.386 36.85,851.584L36.85,868.195C36.85,868.394 37.049,868.195 36.85,868.195L28.545,868.195C28.434,868.195 28.346,868.283 28.346,868.394L28.346,885.402C28.346,885.512 28.434,885.6 28.545,885.6L36.85,885.6C37.049,885.6 36.85,885.402 36.85,885.6L36.85,902.211C36.85,902.409 37.049,902.211 36.85,902.211L28.545,902.211C28.434,902.211 28.346,902.299 28.346,902.409L28.346,937.843C28.346,937.953 28.434,938.041 28.545,938.041Z" style="fill:none;fill-rule:nonzero;stroke:rgb(13,40,242);stroke-width:2px;"/>
            </g>
            <g transform="matrix(1.02516,0,0,1,-9.14946,-3.27955)">
                <path d="M789.516,171.522C789.516,152.733 774.636,137.479 756.308,137.479L156.135,137.479C137.807,137.479 122.927,152.733 122.927,171.522L122.927,397.819C122.927,416.608 137.807,431.862 156.135,431.862L756.308,431.862C774.636,431.862 789.516,416.608 789.516,397.819L789.516,171.522Z" style="fill:none;stroke:rgb(13,40,242);stroke-width:2.63px;stroke-miterlimit:1.5;"/>
            </g>
        </g>
        <g id="Engrave-Layer" serif:id="Engrave Layer">
        </g>
        <g id="Score-Layer" serif:id="Score Layer">
        </g>
    </g>
</svg>
