<?xml version="1.0" encoding="UTF-8" standalone="no"?>
<!DOCTYPE svg PUBLIC "-//W3C//DTD SVG 1.1//EN" "http://www.w3.org/Graphics/SVG/1.1/DTD/svg11.dtd">
<svg width="1715px" height="1289px" version="1.1" xmlns="http://www.w3.org/2000/svg" xmlns:xlink="http://www.w3.org/1999/xlink" xml:space="preserve" xmlns:serif="http://www.serif.com/" style="fill-rule:evenodd;clip-rule:evenodd;stroke-linecap:round;stroke-linejoin:round;">
    <g transform="matrix(1.33333,0,0,1.33333,0,0)">
        <g id="p-0">
            <path d="M28.545,938.041L70.923,938.041C71.033,938.041 71.121,937.953 71.121,937.843L71.121,929.537C71.121,929.339 70.923,929.537 71.121,929.537L87.732,929.537C87.931,929.537 87.732,929.339 87.732,929.537L87.732,937.843C87.732,937.953 87.82,938.041 87.931,938.041L104.939,938.041C105.049,938.041 105.137,937.953 105.137,937.843L105.137,929.537C105.137,929.339 104.939,929.537 105.137,929.537L121.748,929.537C121.946,929.537 121.748,929.339 121.748,929.537L121.748,937.843C121.748,937.953 121.836,938.041 121.946,938.041L138.954,938.041C139.065,938.041 139.153,937.953 139.153,937.843L139.153,929.537C139.153,929.339 138.954,929.537 139.153,929.537L155.764,929.537C155.962,929.537 155.764,929.339 155.764,929.537L155.764,937.843C155.764,937.953 155.852,938.041 155.962,938.041L172.97,938.041C173.081,938.041 173.169,937.953 173.169,937.843L173.169,929.537C173.169,929.339 172.97,929.537 173.169,929.537L189.78,929.537C189.978,929.537 189.78,929.339 189.78,929.537L189.78,937.843C189.78,937.953 189.867,938.041 189.978,938.041L206.986,938.041C207.096,938.041 207.184,937.953 207.184,937.843L207.184,929.537C207.184,929.339 206.986,929.537 207.184,929.537L223.795,929.537C223.994,929.537 223.795,929.339 223.795,929.537L223.795,937.843C223.795,937.953 223.883,938.041 223.994,938.041L241.002,938.041C241.112,938.041 241.2,937.953 241.2,937.843L241.2,929.537C241.2,929.339 241.002,929.537 241.2,929.537L257.811,929.537C258.009,929.537 257.811,929.339 257.811,929.537L257.811,937.843C257.811,937.953 257.899,938.041 258.009,938.041L275.017,938.041C275.128,938.041 275.216,937.953 275.216,937.843L275.216,929.537C275.216,929.339 275.017,929.537 275.216,929.537L291.827,929.537C292.025,929.537 291.827,929.339 291.827,929.537L291.827,937.843C291.827,937.953 291.915,938.041 292.025,938.041L309.033,938.041C309.144,938.041 309.231,937.953 309.231,937.843L309.231,929.537C309.231,929.339 309.033,929.537 309.231,929.537L325.843,929.537C326.041,929.537 325.843,929.339 325.843,929.537L325.843,937.843C325.843,937.953 325.93,938.041 326.041,938.041L343.049,938.041C343.159,938.041 343.247,937.953 343.247,937.843L343.247,929.537C343.247,929.339 343.049,929.537 343.247,929.537L359.858,929.537C360.057,929.537 359.858,929.339 359.858,929.537L359.858,937.843C359.858,937.953 359.946,938.041 360.057,938.041L377.065,938.041C377.175,938.041 377.263,937.953 377.263,937.843L377.263,929.537C377.263,929.339 377.065,929.537 377.263,929.537L393.874,929.537C394.072,929.537 393.874,929.339 393.874,929.537L393.874,937.843C393.874,937.953 393.962,938.041 394.072,938.041L411.08,938.041C411.191,938.041 411.279,937.953 411.279,937.843L411.279,929.537C411.279,929.339 411.08,929.537 411.279,929.537L427.89,929.537C428.088,929.537 427.89,929.339 427.89,929.537L427.89,937.843C427.89,937.953 427.978,938.041 428.088,938.041L445.096,938.041C445.207,938.041 445.294,937.953 445.294,937.843L445.294,929.537C445.294,929.339 445.096,929.537 445.294,929.537L461.906,929.537C462.104,929.537 461.906,929.339 461.906,929.537L461.906,937.843C461.906,937.953 461.993,938.041 462.104,938.041L479.112,938.041C479.222,938.041 479.31,937.953 479.31,937.843L479.31,929.537C479.31,929.339 479.112,929.537 479.31,929.537L495.921,929.537C496.12,929.537 495.921,929.339 495.921,929.537L495.921,937.843C495.921,937.953 496.009,938.041 496.12,938.041L513.128,938.041C513.238,938.041 513.326,937.953 513.326,937.843L513.326,929.537C513.326,929.339 513.128,929.537 513.326,929.537L529.937,929.537C530.135,929.537 529.937,929.339 529.937,929.537L529.937,937.843C529.937,937.953 530.025,938.041 530.135,938.041L547.143,938.041C547.254,938.041 547.342,937.953 547.342,937.843L547.342,929.537C547.342,929.339 547.143,929.537 547.342,929.537L563.953,929.537C564.151,929.537 563.953,929.339 563.953,929.537L563.953,937.843C563.953,937.953 564.041,938.041 564.151,938.041L581.159,938.041C581.27,938.041 581.357,937.953 581.357,937.843L581.357,929.537C581.357,929.339 581.159,929.537 581.357,929.537L597.969,929.537C598.167,929.537 597.969,929.339 597.969,929.537L597.969,937.843C597.969,937.953 598.056,938.041 598.167,938.041L640.545,938.041C640.655,938.041 640.743,937.953 640.743,937.843L640.743,902.409C640.743,902.299 640.655,902.211 640.545,902.211L632.239,902.211C632.041,902.211 632.239,902.409 632.239,902.211L632.239,885.6C632.239,885.402 632.041,885.6 632.239,885.6L640.545,885.6C640.655,885.6 640.743,885.512 640.743,885.402L640.743,868.394C640.743,868.283 640.655,868.195 640.545,868.195L632.239,868.195C632.041,868.195 632.239,868.394 632.239,868.195L632.239,851.584C632.239,851.386 632.041,851.584 632.239,851.584L640.545,851.584C640.655,851.584 640.743,851.496 640.743,851.386L640.743,834.378C640.743,834.267 640.655,834.18 640.545,834.18L632.239,834.18C632.041,834.18 632.239,834.378 632.239,834.18L632.239,817.569C632.239,817.37 632.041,817.569 632.239,817.569L640.545,817.569C640.655,817.569 640.743,817.481 640.743,817.37L640.743,800.362C640.743,800.252 640.655,800.164 640.545,800.164L632.239,800.164C632.041,800.164 632.239,800.362 632.239,800.164L632.239,783.553C632.239,783.354 632.041,783.553 632.239,783.553L640.545,783.553C640.655,783.553 640.743,783.465 640.743,783.354L640.743,766.346C640.743,766.236 640.655,766.148 640.545,766.148L632.239,766.148C632.041,766.148 632.239,766.346 632.239,766.148L632.239,749.537C632.239,749.339 632.041,749.537 632.239,749.537L640.545,749.537C640.655,749.537 640.743,749.449 640.743,749.339L640.743,732.331C640.743,732.22 640.655,732.132 640.545,732.132L632.239,732.132C632.041,732.132 632.239,732.331 632.239,732.132L632.239,715.521C632.239,715.323 632.041,715.521 632.239,715.521L640.545,715.521C640.655,715.521 640.743,715.433 640.743,715.323L640.743,698.315C640.743,698.204 640.655,698.117 640.545,698.117L632.239,698.117C632.041,698.117 632.239,698.315 632.239,698.117L632.239,681.506C632.239,681.307 632.041,681.506 632.239,681.506L640.545,681.506C640.655,681.506 640.743,681.418 640.743,681.307L640.743,664.299C640.743,664.189 640.655,664.101 640.545,664.101L632.239,664.101C632.041,664.101 632.239,664.299 632.239,664.101L632.239,647.49C632.239,647.291 632.041,647.49 632.239,647.49L640.545,647.49C640.655,647.49 640.743,647.402 640.743,647.291L640.743,630.283C640.743,630.173 640.655,630.085 640.545,630.085L632.239,630.085C632.041,630.085 632.239,630.283 632.239,630.085L632.239,613.474C632.239,613.276 632.041,613.474 632.239,613.474L640.545,613.474C640.655,613.474 640.743,613.386 640.743,613.276L640.743,577.843C640.743,577.732 640.655,577.644 640.545,577.644L598.167,577.644C598.056,577.644 597.969,577.732 597.969,577.843L597.969,586.148C597.969,586.346 598.167,586.148 597.969,586.148L581.357,586.148C581.159,586.148 581.357,586.346 581.357,586.148L581.357,577.843C581.357,577.732 581.27,577.644 581.159,577.644L564.151,577.644C564.041,577.644 563.953,577.732 563.953,577.843L563.953,586.148C563.953,586.346 564.151,586.148 563.953,586.148L547.342,586.148C547.143,586.148 547.342,586.346 547.342,586.148L547.342,577.843C547.342,577.732 547.254,577.644 547.143,577.644L530.135,577.644C530.025,577.644 529.937,577.732 529.937,577.843L529.937,586.148C529.937,586.346 530.135,586.148 529.937,586.148L513.326,586.148C513.128,586.148 513.326,586.346 513.326,586.148L513.326,577.843C513.326,577.732 513.238,577.644 513.128,577.644L496.12,577.644C496.009,577.644 495.921,577.732 495.921,577.843L495.921,586.148C495.921,586.346 496.12,586.148 495.921,586.148L479.31,586.148C479.112,586.148 479.31,586.346 479.31,586.148L479.31,577.843C479.31,577.732 479.222,577.644 479.112,577.644L462.104,577.644C461.993,577.644 461.906,577.732 461.906,577.843L461.906,586.148C461.906,586.346 462.104,586.148 461.906,586.148L445.294,586.148C445.096,586.148 445.294,586.346 445.294,586.148L445.294,577.843C445.294,577.732 445.207,577.644 445.096,577.644L428.088,577.644C427.978,577.644 427.89,577.732 427.89,577.843L427.89,586.148C427.89,586.346 428.088,586.148 427.89,586.148L411.279,586.148C411.08,586.148 411.279,586.346 411.279,586.148L411.279,577.843C411.279,577.732 411.191,577.644 411.08,577.644L394.072,577.644C393.962,577.644 393.874,577.732 393.874,577.843L393.874,586.148C393.874,586.346 394.072,586.148 393.874,586.148L377.263,586.148C377.065,586.148 377.263,586.346 377.263,586.148L377.263,577.843C377.263,577.732 377.175,577.644 377.065,577.644L360.057,577.644C359.946,577.644 359.858,577.732 359.858,577.843L359.858,586.148C359.858,586.346 360.057,586.148 359.858,586.148L343.247,586.148C343.049,586.148 343.247,586.346 343.247,586.148L343.247,577.843C343.247,577.732 343.159,577.644 343.049,577.644L326.041,577.644C325.93,577.644 325.843,577.732 325.843,577.843L325.843,586.148C325.843,586.346 326.041,586.148 325.843,586.148L309.231,586.148C309.033,586.148 309.231,586.346 309.231,586.148L309.231,577.843C309.231,577.732 309.144,577.644 309.033,577.644L292.025,577.644C291.915,577.644 291.827,577.732 291.827,577.843L291.827,586.148C291.827,586.346 292.025,586.148 291.827,586.148L275.216,586.148C275.017,586.148 275.216,586.346 275.216,586.148L275.216,577.843C275.216,577.732 275.128,577.644 275.017,577.644L258.009,577.644C257.899,577.644 257.811,577.732 257.811,577.843L257.811,586.148C257.811,586.346 258.009,586.148 257.811,586.148L241.2,586.148C241.002,586.148 241.2,586.346 241.2,586.148L241.2,577.843C241.2,577.732 241.112,577.644 241.002,577.644L223.994,577.644C223.883,577.644 223.795,577.732 223.795,577.843L223.795,586.148C223.795,586.346 223.994,586.148 223.795,586.148L207.184,586.148C206.986,586.148 207.184,586.346 207.184,586.148L207.184,577.843C207.184,577.732 207.096,577.644 206.986,577.644L189.978,577.644C189.867,577.644 189.78,577.732 189.78,577.843L189.78,586.148C189.78,586.346 189.978,586.148 189.78,586.148L173.169,586.148C172.97,586.148 173.169,586.346 173.169,586.148L173.169,577.843C173.169,577.732 173.081,577.644 172.97,577.644L155.962,577.644C155.852,577.644 155.764,577.732 155.764,577.843L155.764,586.148C155.764,586.346 155.962,586.148 155.764,586.148L139.153,586.148C138.954,586.148 139.153,586.346 139.153,586.148L139.153,577.843C139.153,577.732 139.065,577.644 138.954,577.644L121.946,577.644C121.836,577.644 121.748,577.732 121.748,577.843L121.748,586.148C121.748,586.346 121.946,586.148 121.748,586.148L105.137,586.148C104.939,586.148 105.137,586.346 105.137,586.148L105.137,577.843C105.137,577.732 105.049,577.644 104.939,577.644L87.931,577.644C87.82,577.644 87.732,577.732 87.732,577.843L87.732,586.148C87.732,586.346 87.931,586.148 87.732,586.148L71.121,586.148C70.923,586.148 71.121,586.346 71.121,586.148L71.121,577.843C71.121,577.732 71.033,577.644 70.923,577.644L28.545,577.644C28.434,577.644 28.346,577.732 28.346,577.843L28.346,613.276C28.346,613.386 28.434,613.474 28.545,613.474L36.85,613.474C37.049,613.474 36.85,613.276 36.85,613.474L36.85,630.085C36.85,630.283 37.049,630.085 36.85,630.085L28.545,630.085C28.434,630.085 28.346,630.173 28.346,630.283L28.346,647.291C28.346,647.402 28.434,647.49 28.545,647.49L36.85,647.49C37.049,647.49 36.85,647.291 36.85,647.49L36.85,664.101C36.85,664.299 37.049,664.101 36.85,664.101L28.545,664.101C28.434,664.101 28.346,664.189 28.346,664.299L28.346,681.307C28.346,681.418 28.434,681.506 28.545,681.506L36.85,681.506C37.049,681.506 36.85,681.307 36.85,681.506L36.85,698.117C36.85,698.315 37.049,698.117 36.85,698.117L28.545,698.117C28.434,698.117 28.346,698.204 28.346,698.315L28.346,715.323C28.346,715.433 28.434,715.521 28.545,715.521L36.85,715.521C37.049,715.521 36.85,715.323 36.85,715.521L36.85,732.132C36.85,732.331 37.049,732.132 36.85,732.132L28.545,732.132C28.434,732.132 28.346,732.22 28.346,732.331L28.346,749.339C28.346,749.449 28.434,749.537 28.545,749.537L36.85,749.537C37.049,749.537 36.85,749.339 36.85,749.537L36.85,766.148C36.85,766.346 37.049,766.148 36.85,766.148L28.545,766.148C28.434,766.148 28.346,766.236 28.346,766.346L28.346,783.354C28.346,783.465 28.434,783.553 28.545,783.553L36.85,783.553C37.049,783.553 36.85,783.354 36.85,783.553L36.85,800.164C36.85,800.362 37.049,800.164 36.85,800.164L28.545,800.164C28.434,800.164 28.346,800.252 28.346,800.362L28.346,817.37C28.346,817.481 28.434,817.569 28.545,817.569L36.85,817.569C37.049,817.569 36.85,817.37 36.85,817.569L36.85,834.18C36.85,834.378 37.049,834.18 36.85,834.18L28.545,834.18C28.434,834.18 28.346,834.267 28.346,834.378L28.346,851.386C28.346,851.496 28.434,851.584 28.545,851.584L36.85,851.584C37.049,851.584 36.85,851.386 36.85,851.584L36.85,868.195C36.85,868.394 37.049,868.195 36.85,868.195L28.545,868.195C28.434,868.195 28.346,868.283 28.346,868.394L28.346,885.402C28.346,885.512 28.434,885.6 28.545,885.6L36.85,885.6C37.049,885.6 36.85,885.402 36.85,885.6L36.85,902.211C36.85,902.409 37.049,902.211 36.85,902.211L28.545,902.211C28.434,902.211 28.346,902.299 28.346,902.409L28.346,937.843C28.346,937.953 28.434,938.041 28.545,938.041Z" style="fill:none;fill-rule:nonzero;stroke:black;stroke-width:0.4px;"/>
        </g>
        <g id="p-1">
            <path d="M653.698,938.041L675.666,938.041C675.777,938.041 675.865,937.953 675.865,937.843L675.865,929.537C675.865,929.339 675.666,929.537 675.865,929.537L692.476,929.537C692.674,929.537 692.476,929.339 692.476,929.537L692.476,937.843C692.476,937.953 692.563,938.041 692.674,938.041L709.682,938.041C709.792,938.041 709.88,937.953 709.88,937.843L709.88,929.537C709.88,929.339 709.682,929.537 709.88,929.537L726.491,929.537C726.69,929.537 726.491,929.339 726.491,929.537L726.491,937.843C726.491,937.953 726.579,938.041 726.69,938.041L743.698,938.041C743.808,938.041 743.896,937.953 743.896,937.843L743.896,929.537C743.896,929.339 743.698,929.537 743.896,929.537L760.507,929.537C760.706,929.537 760.507,929.339 760.507,929.537L760.507,937.843C760.507,937.953 760.595,938.041 760.706,938.041L777.713,938.041C777.824,938.041 777.912,937.953 777.912,937.843L777.912,929.537C777.912,929.339 777.713,929.537 777.912,929.537L794.523,929.537C794.721,929.537 794.523,929.339 794.523,929.537L794.523,937.843C794.523,937.953 794.611,938.041 794.721,938.041L816.69,938.041C816.8,938.041 816.888,937.953 816.888,937.843L816.888,902.608C816.888,902.409 816.69,902.608 816.888,902.608L825.194,902.608C825.304,902.608 825.392,902.52 825.392,902.409L825.392,885.402C825.392,885.291 825.304,885.203 825.194,885.203L816.888,885.203C816.69,885.203 816.888,885.402 816.888,885.203L816.888,868.592C816.888,868.394 816.69,868.592 816.888,868.592L825.194,868.592C825.304,868.592 825.392,868.504 825.392,868.394L825.392,851.386C825.392,851.275 825.304,851.187 825.194,851.187L816.888,851.187C816.69,851.187 816.888,851.386 816.888,851.187L816.888,834.576C816.888,834.378 816.69,834.576 816.888,834.576L825.194,834.576C825.304,834.576 825.392,834.489 825.392,834.378L825.392,817.37C825.392,817.26 825.304,817.172 825.194,817.172L816.888,817.172C816.69,817.172 816.888,817.37 816.888,817.172L816.888,800.561C816.888,800.362 816.69,800.561 816.888,800.561L825.194,800.561C825.304,800.561 825.392,800.473 825.392,800.362L825.392,783.354C825.392,783.244 825.304,783.156 825.194,783.156L816.888,783.156C816.69,783.156 816.888,783.354 816.888,783.156L816.888,766.545C816.888,766.346 816.69,766.545 816.888,766.545L825.194,766.545C825.304,766.545 825.392,766.457 825.392,766.346L825.392,749.339C825.392,749.228 825.304,749.14 825.194,749.14L816.888,749.14C816.69,749.14 816.888,749.339 816.888,749.14L816.888,732.529C816.888,732.331 816.69,732.529 816.888,732.529L825.194,732.529C825.304,732.529 825.392,732.441 825.392,732.331L825.392,715.323C825.392,715.212 825.304,715.124 825.194,715.124L816.888,715.124C816.69,715.124 816.888,715.323 816.888,715.124L816.888,698.513C816.888,698.315 816.69,698.513 816.888,698.513L825.194,698.513C825.304,698.513 825.392,698.426 825.392,698.315L825.392,681.307C825.392,681.197 825.304,681.109 825.194,681.109L816.888,681.109C816.69,681.109 816.888,681.307 816.888,681.109L816.888,664.498C816.888,664.299 816.69,664.498 816.888,664.498L825.194,664.498C825.304,664.498 825.392,664.41 825.392,664.299L825.392,647.291C825.392,647.181 825.304,647.093 825.194,647.093L816.888,647.093C816.69,647.093 816.888,647.291 816.888,647.093L816.888,630.482C816.888,630.283 816.69,630.482 816.888,630.482L825.194,630.482C825.304,630.482 825.392,630.394 825.392,630.283L825.392,613.276C825.392,613.165 825.304,613.077 825.194,613.077L816.888,613.077C816.69,613.077 816.888,613.276 816.888,613.077L816.888,577.843C816.888,577.732 816.8,577.644 816.69,577.644L794.721,577.644C794.611,577.644 794.523,577.732 794.523,577.843L794.523,586.148C794.523,586.346 794.721,586.148 794.523,586.148L777.912,586.148C777.713,586.148 777.912,586.346 777.912,586.148L777.912,577.843C777.912,577.732 777.824,577.644 777.713,577.644L760.706,577.644C760.595,577.644 760.507,577.732 760.507,577.843L760.507,586.148C760.507,586.346 760.706,586.148 760.507,586.148L743.896,586.148C743.698,586.148 743.896,586.346 743.896,586.148L743.896,577.843C743.896,577.732 743.808,577.644 743.698,577.644L726.69,577.644C726.579,577.644 726.491,577.732 726.491,577.843L726.491,586.148C726.491,586.346 726.69,586.148 726.491,586.148L709.88,586.148C709.682,586.148 709.88,586.346 709.88,586.148L709.88,577.843C709.88,577.732 709.792,577.644 709.682,577.644L692.674,577.644C692.563,577.644 692.476,577.732 692.476,577.843L692.476,586.148C692.476,586.346 692.674,586.148 692.476,586.148L675.865,586.148C675.666,586.148 675.865,586.346 675.865,586.148L675.865,577.843C675.865,577.732 675.777,577.644 675.666,577.644L653.698,577.644C653.587,577.644 653.499,577.732 653.499,577.843L653.499,613.077C653.499,613.276 653.698,613.077 653.499,613.077L645.194,613.077C645.083,613.077 644.995,613.165 644.995,613.276L644.995,630.283C644.995,630.394 645.083,630.482 645.194,630.482L653.499,630.482C653.698,630.482 653.499,630.283 653.499,630.482L653.499,647.093C653.499,647.291 653.698,647.093 653.499,647.093L645.194,647.093C645.083,647.093 644.995,647.181 644.995,647.291L644.995,664.299C644.995,664.41 645.083,664.498 645.194,664.498L653.499,664.498C653.698,664.498 653.499,664.299 653.499,664.498L653.499,681.109C653.499,681.307 653.698,681.109 653.499,681.109L645.194,681.109C645.083,681.109 644.995,681.197 644.995,681.307L644.995,698.315C644.995,698.426 645.083,698.513 645.194,698.513L653.499,698.513C653.698,698.513 653.499,698.315 653.499,698.513L653.499,715.124C653.499,715.323 653.698,715.124 653.499,715.124L645.194,715.124C645.083,715.124 644.995,715.212 644.995,715.323L644.995,732.331C644.995,732.441 645.083,732.529 645.194,732.529L653.499,732.529C653.698,732.529 653.499,732.331 653.499,732.529L653.499,749.14C653.499,749.339 653.698,749.14 653.499,749.14L645.194,749.14C645.083,749.14 644.995,749.228 644.995,749.339L644.995,766.346C644.995,766.457 645.083,766.545 645.194,766.545L653.499,766.545C653.698,766.545 653.499,766.346 653.499,766.545L653.499,783.156C653.499,783.354 653.698,783.156 653.499,783.156L645.194,783.156C645.083,783.156 644.995,783.244 644.995,783.354L644.995,800.362C644.995,800.473 645.083,800.561 645.194,800.561L653.499,800.561C653.698,800.561 653.499,800.362 653.499,800.561L653.499,817.172C653.499,817.37 653.698,817.172 653.499,817.172L645.194,817.172C645.083,817.172 644.995,817.26 644.995,817.37L644.995,834.378C644.995,834.489 645.083,834.576 645.194,834.576L653.499,834.576C653.698,834.576 653.499,834.378 653.499,834.576L653.499,851.187C653.499,851.386 653.698,851.187 653.499,851.187L645.194,851.187C645.083,851.187 644.995,851.275 644.995,851.386L644.995,868.394C644.995,868.504 645.083,868.592 645.194,868.592L653.499,868.592C653.698,868.592 653.499,868.394 653.499,868.592L653.499,885.203C653.499,885.402 653.698,885.203 653.499,885.203L645.194,885.203C645.083,885.203 644.995,885.291 644.995,885.402L644.995,902.409C644.995,902.52 645.083,902.608 645.194,902.608L653.499,902.608C653.698,902.608 653.499,902.409 653.499,902.608L653.499,937.843C653.499,937.953 653.587,938.041 653.698,938.041Z" style="fill:none;fill-rule:nonzero;stroke:black;stroke-width:0.4px;"/>
        </g>
        <g id="p-2">
            <path d="M653.698,573.392L675.666,573.392C675.777,573.392 675.865,573.304 675.865,573.194L675.865,564.888C675.865,564.69 675.666,564.888 675.865,564.888L692.476,564.888C692.674,564.888 692.476,564.69 692.476,564.888L692.476,573.194C692.476,573.304 692.563,573.392 692.674,573.392L709.682,573.392C709.792,573.392 709.88,573.304 709.88,573.194L709.88,564.888C709.88,564.69 709.682,564.888 709.88,564.888L726.491,564.888C726.69,564.888 726.491,564.69 726.491,564.888L726.491,573.194C726.491,573.304 726.579,573.392 726.69,573.392L743.698,573.392C743.808,573.392 743.896,573.304 743.896,573.194L743.896,564.888C743.896,564.69 743.698,564.888 743.896,564.888L760.507,564.888C760.706,564.888 760.507,564.69 760.507,564.888L760.507,573.194C760.507,573.304 760.595,573.392 760.706,573.392L777.713,573.392C777.824,573.392 777.912,573.304 777.912,573.194L777.912,564.888C777.912,564.69 777.713,564.888 777.912,564.888L794.523,564.888C794.721,564.888 794.523,564.69 794.523,564.888L794.523,573.194C794.523,573.304 794.611,573.392 794.721,573.392L816.69,573.392C816.8,573.392 816.888,573.304 816.888,573.194L816.888,537.959C816.888,537.761 816.69,537.959 816.888,537.959L825.194,537.959C825.304,537.959 825.392,537.871 825.392,537.761L825.392,520.753C825.392,520.642 825.304,520.554 825.194,520.554L816.888,520.554C816.69,520.554 816.888,520.753 816.888,520.554L816.888,503.943C816.888,503.745 816.69,503.943 816.888,503.943L825.194,503.943C825.304,503.943 825.392,503.855 825.392,503.745L825.392,486.737C825.392,486.626 825.304,486.539 825.194,486.539L816.888,486.539C816.69,486.539 816.888,486.737 816.888,486.539L816.888,469.928C816.888,469.729 816.69,469.928 816.888,469.928L825.194,469.928C825.304,469.928 825.392,469.84 825.392,469.729L825.392,452.721C825.392,452.611 825.304,452.523 825.194,452.523L816.888,452.523C816.69,452.523 816.888,452.721 816.888,452.523L816.888,435.912C816.888,435.713 816.69,435.912 816.888,435.912L825.194,435.912C825.304,435.912 825.392,435.824 825.392,435.713L825.392,418.706C825.392,418.595 825.304,418.507 825.194,418.507L816.888,418.507C816.69,418.507 816.888,418.706 816.888,418.507L816.888,401.896C816.888,401.698 816.69,401.896 816.888,401.896L825.194,401.896C825.304,401.896 825.392,401.808 825.392,401.698L825.392,384.69C825.392,384.579 825.304,384.491 825.194,384.491L816.888,384.491C816.69,384.491 816.888,384.69 816.888,384.491L816.888,367.88C816.888,367.682 816.69,367.88 816.888,367.88L825.194,367.88C825.304,367.88 825.392,367.792 825.392,367.682L825.392,350.674C825.392,350.563 825.304,350.476 825.194,350.476L816.888,350.476C816.69,350.476 816.888,350.674 816.888,350.476L816.888,333.865C816.888,333.666 816.69,333.865 816.888,333.865L825.194,333.865C825.304,333.865 825.392,333.777 825.392,333.666L825.392,316.658C825.392,316.548 825.304,316.46 825.194,316.46L816.888,316.46C816.69,316.46 816.888,316.658 816.888,316.46L816.888,299.849C816.888,299.65 816.69,299.849 816.888,299.849L825.194,299.849C825.304,299.849 825.392,299.761 825.392,299.65L825.392,282.643C825.392,282.532 825.304,282.444 825.194,282.444L816.888,282.444C816.69,282.444 816.888,282.643 816.888,282.444L816.888,265.833C816.888,265.635 816.69,265.833 816.888,265.833L825.194,265.833C825.304,265.833 825.392,265.745 825.392,265.635L825.392,248.627C825.392,248.516 825.304,248.428 825.194,248.428L816.888,248.428C816.69,248.428 816.888,248.627 816.888,248.428L816.888,213.194C816.888,213.083 816.8,212.995 816.69,212.995L794.721,212.995C794.611,212.995 794.523,213.083 794.523,213.194L794.523,221.499C794.523,221.698 794.721,221.499 794.523,221.499L777.912,221.499C777.713,221.499 777.912,221.698 777.912,221.499L777.912,213.194C777.912,213.083 777.824,212.995 777.713,212.995L760.706,212.995C760.595,212.995 760.507,213.083 760.507,213.194L760.507,221.499C760.507,221.698 760.706,221.499 760.507,221.499L743.896,221.499C743.698,221.499 743.896,221.698 743.896,221.499L743.896,213.194C743.896,213.083 743.808,212.995 743.698,212.995L726.69,212.995C726.579,212.995 726.491,213.083 726.491,213.194L726.491,221.499C726.491,221.698 726.69,221.499 726.491,221.499L709.88,221.499C709.682,221.499 709.88,221.698 709.88,221.499L709.88,213.194C709.88,213.083 709.792,212.995 709.682,212.995L692.674,212.995C692.563,212.995 692.476,213.083 692.476,213.194L692.476,221.499C692.476,221.698 692.674,221.499 692.476,221.499L675.865,221.499C675.666,221.499 675.865,221.698 675.865,221.499L675.865,213.194C675.865,213.083 675.777,212.995 675.666,212.995L653.698,212.995C653.587,212.995 653.499,213.083 653.499,213.194L653.499,248.428C653.499,248.627 653.698,248.428 653.499,248.428L645.194,248.428C645.083,248.428 644.995,248.516 644.995,248.627L644.995,265.635C644.995,265.745 645.083,265.833 645.194,265.833L653.499,265.833C653.698,265.833 653.499,265.635 653.499,265.833L653.499,282.444C653.499,282.643 653.698,282.444 653.499,282.444L645.194,282.444C645.083,282.444 644.995,282.532 644.995,282.643L644.995,299.65C644.995,299.761 645.083,299.849 645.194,299.849L653.499,299.849C653.698,299.849 653.499,299.65 653.499,299.849L653.499,316.46C653.499,316.658 653.698,316.46 653.499,316.46L645.194,316.46C645.083,316.46 644.995,316.548 644.995,316.658L644.995,333.666C644.995,333.777 645.083,333.865 645.194,333.865L653.499,333.865C653.698,333.865 653.499,333.666 653.499,333.865L653.499,350.476C653.499,350.674 653.698,350.476 653.499,350.476L645.194,350.476C645.083,350.476 644.995,350.563 644.995,350.674L644.995,367.682C644.995,367.792 645.083,367.88 645.194,367.88L653.499,367.88C653.698,367.88 653.499,367.682 653.499,367.88L653.499,384.491C653.499,384.69 653.698,384.491 653.499,384.491L645.194,384.491C645.083,384.491 644.995,384.579 644.995,384.69L644.995,401.698C644.995,401.808 645.083,401.896 645.194,401.896L653.499,401.896C653.698,401.896 653.499,401.698 653.499,401.896L653.499,418.507C653.499,418.706 653.698,418.507 653.499,418.507L645.194,418.507C645.083,418.507 644.995,418.595 644.995,418.706L644.995,435.713C644.995,435.824 645.083,435.912 645.194,435.912L653.499,435.912C653.698,435.912 653.499,435.713 653.499,435.912L653.499,452.523C653.499,452.721 653.698,452.523 653.499,452.523L645.194,452.523C645.083,452.523 644.995,452.611 644.995,452.721L644.995,469.729C644.995,469.84 645.083,469.928 645.194,469.928L653.499,469.928C653.698,469.928 653.499,469.729 653.499,469.928L653.499,486.539C653.499,486.737 653.698,486.539 653.499,486.539L645.194,486.539C645.083,486.539 644.995,486.626 644.995,486.737L644.995,503.745C644.995,503.855 645.083,503.943 645.194,503.943L653.499,503.943C653.698,503.943 653.499,503.745 653.499,503.943L653.499,520.554C653.499,520.753 653.698,520.554 653.499,520.554L645.194,520.554C645.083,520.554 644.995,520.642 644.995,520.753L644.995,537.761C644.995,537.871 645.083,537.959 645.194,537.959L653.499,537.959C653.698,537.959 653.499,537.761 653.499,537.959L653.499,573.194C653.499,573.304 653.587,573.392 653.698,573.392Z" style="fill:none;fill-rule:nonzero;stroke:black;stroke-width:0.4px;"/>
        </g>
        <g id="p-3">
            <path d="M28.545,573.392L70.923,573.392C71.033,573.392 71.121,573.304 71.121,573.194L71.121,564.888C71.121,564.69 70.923,564.888 71.121,564.888L87.732,564.888C87.931,564.888 87.732,564.69 87.732,564.888L87.732,573.194C87.732,573.304 87.82,573.392 87.931,573.392L104.939,573.392C105.049,573.392 105.137,573.304 105.137,573.194L105.137,564.888C105.137,564.69 104.939,564.888 105.137,564.888L121.748,564.888C121.946,564.888 121.748,564.69 121.748,564.888L121.748,573.194C121.748,573.304 121.836,573.392 121.946,573.392L138.954,573.392C139.065,573.392 139.153,573.304 139.153,573.194L139.153,564.888C139.153,564.69 138.954,564.888 139.153,564.888L155.764,564.888C155.962,564.888 155.764,564.69 155.764,564.888L155.764,573.194C155.764,573.304 155.852,573.392 155.962,573.392L172.97,573.392C173.081,573.392 173.169,573.304 173.169,573.194L173.169,564.888C173.169,564.69 172.97,564.888 173.169,564.888L189.78,564.888C189.978,564.888 189.78,564.69 189.78,564.888L189.78,573.194C189.78,573.304 189.867,573.392 189.978,573.392L206.986,573.392C207.096,573.392 207.184,573.304 207.184,573.194L207.184,564.888C207.184,564.69 206.986,564.888 207.184,564.888L223.795,564.888C223.994,564.888 223.795,564.69 223.795,564.888L223.795,573.194C223.795,573.304 223.883,573.392 223.994,573.392L241.002,573.392C241.112,573.392 241.2,573.304 241.2,573.194L241.2,564.888C241.2,564.69 241.002,564.888 241.2,564.888L257.811,564.888C258.009,564.888 257.811,564.69 257.811,564.888L257.811,573.194C257.811,573.304 257.899,573.392 258.009,573.392L275.017,573.392C275.128,573.392 275.216,573.304 275.216,573.194L275.216,564.888C275.216,564.69 275.017,564.888 275.216,564.888L291.827,564.888C292.025,564.888 291.827,564.69 291.827,564.888L291.827,573.194C291.827,573.304 291.915,573.392 292.025,573.392L309.033,573.392C309.144,573.392 309.231,573.304 309.231,573.194L309.231,564.888C309.231,564.69 309.033,564.888 309.231,564.888L325.843,564.888C326.041,564.888 325.843,564.69 325.843,564.888L325.843,573.194C325.843,573.304 325.93,573.392 326.041,573.392L343.049,573.392C343.159,573.392 343.247,573.304 343.247,573.194L343.247,564.888C343.247,564.69 343.049,564.888 343.247,564.888L359.858,564.888C360.057,564.888 359.858,564.69 359.858,564.888L359.858,573.194C359.858,573.304 359.946,573.392 360.057,573.392L377.065,573.392C377.175,573.392 377.263,573.304 377.263,573.194L377.263,564.888C377.263,564.69 377.065,564.888 377.263,564.888L393.874,564.888C394.072,564.888 393.874,564.69 393.874,564.888L393.874,573.194C393.874,573.304 393.962,573.392 394.072,573.392L411.08,573.392C411.191,573.392 411.279,573.304 411.279,573.194L411.279,564.888C411.279,564.69 411.08,564.888 411.279,564.888L427.89,564.888C428.088,564.888 427.89,564.69 427.89,564.888L427.89,573.194C427.89,573.304 427.978,573.392 428.088,573.392L445.096,573.392C445.207,573.392 445.294,573.304 445.294,573.194L445.294,564.888C445.294,564.69 445.096,564.888 445.294,564.888L461.906,564.888C462.104,564.888 461.906,564.69 461.906,564.888L461.906,573.194C461.906,573.304 461.993,573.392 462.104,573.392L479.112,573.392C479.222,573.392 479.31,573.304 479.31,573.194L479.31,564.888C479.31,564.69 479.112,564.888 479.31,564.888L495.921,564.888C496.12,564.888 495.921,564.69 495.921,564.888L495.921,573.194C495.921,573.304 496.009,573.392 496.12,573.392L513.128,573.392C513.238,573.392 513.326,573.304 513.326,573.194L513.326,564.888C513.326,564.69 513.128,564.888 513.326,564.888L529.937,564.888C530.135,564.888 529.937,564.69 529.937,564.888L529.937,573.194C529.937,573.304 530.025,573.392 530.135,573.392L547.143,573.392C547.254,573.392 547.342,573.304 547.342,573.194L547.342,564.888C547.342,564.69 547.143,564.888 547.342,564.888L563.953,564.888C564.151,564.888 563.953,564.69 563.953,564.888L563.953,573.194C563.953,573.304 564.041,573.392 564.151,573.392L581.159,573.392C581.27,573.392 581.357,573.304 581.357,573.194L581.357,564.888C581.357,564.69 581.159,564.888 581.357,564.888L597.969,564.888C598.167,564.888 597.969,564.69 597.969,564.888L597.969,573.194C597.969,573.304 598.056,573.392 598.167,573.392L640.545,573.392C640.655,573.392 640.743,573.304 640.743,573.194L640.743,537.761C640.743,537.65 640.655,537.562 640.545,537.562L632.239,537.562C632.041,537.562 632.239,537.761 632.239,537.562L632.239,520.951C632.239,520.753 632.041,520.951 632.239,520.951L640.545,520.951C640.655,520.951 640.743,520.863 640.743,520.753L640.743,503.745C640.743,503.634 640.655,503.546 640.545,503.546L632.239,503.546C632.041,503.546 632.239,503.745 632.239,503.546L632.239,486.935C632.239,486.737 632.041,486.935 632.239,486.935L640.545,486.935C640.655,486.935 640.743,486.848 640.743,486.737L640.743,469.729C640.743,469.619 640.655,469.531 640.545,469.531L632.239,469.531C632.041,469.531 632.239,469.729 632.239,469.531L632.239,452.92C632.239,452.721 632.041,452.92 632.239,452.92L640.545,452.92C640.655,452.92 640.743,452.832 640.743,452.721L640.743,435.713C640.743,435.603 640.655,435.515 640.545,435.515L632.239,435.515C632.041,435.515 632.239,435.713 632.239,435.515L632.239,418.904C632.239,418.706 632.041,418.904 632.239,418.904L640.545,418.904C640.655,418.904 640.743,418.816 640.743,418.706L640.743,401.698C640.743,401.587 640.655,401.499 640.545,401.499L632.239,401.499C632.041,401.499 632.239,401.698 632.239,401.499L632.239,384.888C632.239,384.69 632.041,384.888 632.239,384.888L640.545,384.888C640.655,384.888 640.743,384.8 640.743,384.69L640.743,367.682C640.743,367.571 640.655,367.483 640.545,367.483L632.239,367.483C632.041,367.483 632.239,367.682 632.239,367.483L632.239,350.872C632.239,350.674 632.041,350.872 632.239,350.872L640.545,350.872C640.655,350.872 640.743,350.785 640.743,350.674L640.743,333.666C640.743,333.556 640.655,333.468 640.545,333.468L632.239,333.468C632.041,333.468 632.239,333.666 632.239,333.468L632.239,316.857C632.239,316.658 632.041,316.857 632.239,316.857L640.545,316.857C640.655,316.857 640.743,316.769 640.743,316.658L640.743,299.65C640.743,299.54 640.655,299.452 640.545,299.452L632.239,299.452C632.041,299.452 632.239,299.65 632.239,299.452L632.239,282.841C632.239,282.643 632.041,282.841 632.239,282.841L640.545,282.841C640.655,282.841 640.743,282.753 640.743,282.643L640.743,265.635C640.743,265.524 640.655,265.436 640.545,265.436L632.239,265.436C632.041,265.436 632.239,265.635 632.239,265.436L632.239,248.825C632.239,248.627 632.041,248.825 632.239,248.825L640.545,248.825C640.655,248.825 640.743,248.737 640.743,248.627L640.743,213.194C640.743,213.083 640.655,212.995 640.545,212.995L598.167,212.995C598.056,212.995 597.969,213.083 597.969,213.194L597.969,221.499C597.969,221.698 598.167,221.499 597.969,221.499L581.357,221.499C581.159,221.499 581.357,221.698 581.357,221.499L581.357,213.194C581.357,213.083 581.27,212.995 581.159,212.995L564.151,212.995C564.041,212.995 563.953,213.083 563.953,213.194L563.953,221.499C563.953,221.698 564.151,221.499 563.953,221.499L547.342,221.499C547.143,221.499 547.342,221.698 547.342,221.499L547.342,213.194C547.342,213.083 547.254,212.995 547.143,212.995L530.135,212.995C530.025,212.995 529.937,213.083 529.937,213.194L529.937,221.499C529.937,221.698 530.135,221.499 529.937,221.499L513.326,221.499C513.128,221.499 513.326,221.698 513.326,221.499L513.326,213.194C513.326,213.083 513.238,212.995 513.128,212.995L496.12,212.995C496.009,212.995 495.921,213.083 495.921,213.194L495.921,221.499C495.921,221.698 496.12,221.499 495.921,221.499L479.31,221.499C479.112,221.499 479.31,221.698 479.31,221.499L479.31,213.194C479.31,213.083 479.222,212.995 479.112,212.995L462.104,212.995C461.993,212.995 461.906,213.083 461.906,213.194L461.906,221.499C461.906,221.698 462.104,221.499 461.906,221.499L445.294,221.499C445.096,221.499 445.294,221.698 445.294,221.499L445.294,213.194C445.294,213.083 445.207,212.995 445.096,212.995L428.088,212.995C427.978,212.995 427.89,213.083 427.89,213.194L427.89,221.499C427.89,221.698 428.088,221.499 427.89,221.499L411.279,221.499C411.08,221.499 411.279,221.698 411.279,221.499L411.279,213.194C411.279,213.083 411.191,212.995 411.08,212.995L394.072,212.995C393.962,212.995 393.874,213.083 393.874,213.194L393.874,221.499C393.874,221.698 394.072,221.499 393.874,221.499L377.263,221.499C377.065,221.499 377.263,221.698 377.263,221.499L377.263,213.194C377.263,213.083 377.175,212.995 377.065,212.995L360.057,212.995C359.946,212.995 359.858,213.083 359.858,213.194L359.858,221.499C359.858,221.698 360.057,221.499 359.858,221.499L343.247,221.499C343.049,221.499 343.247,221.698 343.247,221.499L343.247,213.194C343.247,213.083 343.159,212.995 343.049,212.995L326.041,212.995C325.93,212.995 325.843,213.083 325.843,213.194L325.843,221.499C325.843,221.698 326.041,221.499 325.843,221.499L309.231,221.499C309.033,221.499 309.231,221.698 309.231,221.499L309.231,213.194C309.231,213.083 309.144,212.995 309.033,212.995L292.025,212.995C291.915,212.995 291.827,213.083 291.827,213.194L291.827,221.499C291.827,221.698 292.025,221.499 291.827,221.499L275.216,221.499C275.017,221.499 275.216,221.698 275.216,221.499L275.216,213.194C275.216,213.083 275.128,212.995 275.017,212.995L258.009,212.995C257.899,212.995 257.811,213.083 257.811,213.194L257.811,221.499C257.811,221.698 258.009,221.499 257.811,221.499L241.2,221.499C241.002,221.499 241.2,221.698 241.2,221.499L241.2,213.194C241.2,213.083 241.112,212.995 241.002,212.995L223.994,212.995C223.883,212.995 223.795,213.083 223.795,213.194L223.795,221.499C223.795,221.698 223.994,221.499 223.795,221.499L207.184,221.499C206.986,221.499 207.184,221.698 207.184,221.499L207.184,213.194C207.184,213.083 207.096,212.995 206.986,212.995L189.978,212.995C189.867,212.995 189.78,213.083 189.78,213.194L189.78,221.499C189.78,221.698 189.978,221.499 189.78,221.499L173.169,221.499C172.97,221.499 173.169,221.698 173.169,221.499L173.169,213.194C173.169,213.083 173.081,212.995 172.97,212.995L155.962,212.995C155.852,212.995 155.764,213.083 155.764,213.194L155.764,221.499C155.764,221.698 155.962,221.499 155.764,221.499L139.153,221.499C138.954,221.499 139.153,221.698 139.153,221.499L139.153,213.194C139.153,213.083 139.065,212.995 138.954,212.995L121.946,212.995C121.836,212.995 121.748,213.083 121.748,213.194L121.748,221.499C121.748,221.698 121.946,221.499 121.748,221.499L105.137,221.499C104.939,221.499 105.137,221.698 105.137,221.499L105.137,213.194C105.137,213.083 105.049,212.995 104.939,212.995L87.931,212.995C87.82,212.995 87.732,213.083 87.732,213.194L87.732,221.499C87.732,221.698 87.931,221.499 87.732,221.499L71.121,221.499C70.923,221.499 71.121,221.698 71.121,221.499L71.121,213.194C71.121,213.083 71.033,212.995 70.923,212.995L28.545,212.995C28.434,212.995 28.346,213.083 28.346,213.194L28.346,248.627C28.346,248.737 28.434,248.825 28.545,248.825L36.85,248.825C37.049,248.825 36.85,248.627 36.85,248.825L36.85,265.436C36.85,265.635 37.049,265.436 36.85,265.436L28.545,265.436C28.434,265.436 28.346,265.524 28.346,265.635L28.346,282.643C28.346,282.753 28.434,282.841 28.545,282.841L36.85,282.841C37.049,282.841 36.85,282.643 36.85,282.841L36.85,299.452C36.85,299.65 37.049,299.452 36.85,299.452L28.545,299.452C28.434,299.452 28.346,299.54 28.346,299.65L28.346,316.658C28.346,316.769 28.434,316.857 28.545,316.857L36.85,316.857C37.049,316.857 36.85,316.658 36.85,316.857L36.85,333.468C36.85,333.666 37.049,333.468 36.85,333.468L28.545,333.468C28.434,333.468 28.346,333.556 28.346,333.666L28.346,350.674C28.346,350.785 28.434,350.872 28.545,350.872L36.85,350.872C37.049,350.872 36.85,350.674 36.85,350.872L36.85,367.483C36.85,367.682 37.049,367.483 36.85,367.483L28.545,367.483C28.434,367.483 28.346,367.571 28.346,367.682L28.346,384.69C28.346,384.8 28.434,384.888 28.545,384.888L36.85,384.888C37.049,384.888 36.85,384.69 36.85,384.888L36.85,401.499C36.85,401.698 37.049,401.499 36.85,401.499L28.545,401.499C28.434,401.499 28.346,401.587 28.346,401.698L28.346,418.706C28.346,418.816 28.434,418.904 28.545,418.904L36.85,418.904C37.049,418.904 36.85,418.706 36.85,418.904L36.85,435.515C36.85,435.713 37.049,435.515 36.85,435.515L28.545,435.515C28.434,435.515 28.346,435.603 28.346,435.713L28.346,452.721C28.346,452.832 28.434,452.92 28.545,452.92L36.85,452.92C37.049,452.92 36.85,452.721 36.85,452.92L36.85,469.531C36.85,469.729 37.049,469.531 36.85,469.531L28.545,469.531C28.434,469.531 28.346,469.619 28.346,469.729L28.346,486.737C28.346,486.848 28.434,486.935 28.545,486.935L36.85,486.935C37.049,486.935 36.85,486.737 36.85,486.935L36.85,503.546C36.85,503.745 37.049,503.546 36.85,503.546L28.545,503.546C28.434,503.546 28.346,503.634 28.346,503.745L28.346,520.753C28.346,520.863 28.434,520.951 28.545,520.951L36.85,520.951C37.049,520.951 36.85,520.753 36.85,520.951L36.85,537.562C36.85,537.761 37.049,537.562 36.85,537.562L28.545,537.562C28.434,537.562 28.346,537.65 28.346,537.761L28.346,573.194C28.346,573.304 28.434,573.392 28.545,573.392Z" style="fill:none;fill-rule:nonzero;stroke:black;stroke-width:0.4px;"/>
        </g>
        <g id="p-4">
            <path d="M37.049,200.239L70.724,200.239C70.923,200.239 70.724,200.041 70.724,200.239L70.724,208.545C70.724,208.655 70.812,208.743 70.923,208.743L87.931,208.743C88.041,208.743 88.129,208.655 88.129,208.545L88.129,200.239C88.129,200.041 87.931,200.239 88.129,200.239L104.74,200.239C104.939,200.239 104.74,200.041 104.74,200.239L104.74,208.545C104.74,208.655 104.828,208.743 104.939,208.743L121.946,208.743C122.057,208.743 122.145,208.655 122.145,208.545L122.145,200.239C122.145,200.041 121.946,200.239 122.145,200.239L138.756,200.239C138.954,200.239 138.756,200.041 138.756,200.239L138.756,208.545C138.756,208.655 138.844,208.743 138.954,208.743L155.962,208.743C156.073,208.743 156.161,208.655 156.161,208.545L156.161,200.239C156.161,200.041 155.962,200.239 156.161,200.239L172.772,200.239C172.97,200.239 172.772,200.041 172.772,200.239L172.772,208.545C172.772,208.655 172.86,208.743 172.97,208.743L189.978,208.743C190.089,208.743 190.176,208.655 190.176,208.545L190.176,200.239C190.176,200.041 189.978,200.239 190.176,200.239L206.787,200.239C206.986,200.239 206.787,200.041 206.787,200.239L206.787,208.545C206.787,208.655 206.875,208.743 206.986,208.743L223.994,208.743C224.104,208.743 224.192,208.655 224.192,208.545L224.192,200.239C224.192,200.041 223.994,200.239 224.192,200.239L240.803,200.239C241.002,200.239 240.803,200.041 240.803,200.239L240.803,208.545C240.803,208.655 240.891,208.743 241.002,208.743L258.009,208.743C258.12,208.743 258.208,208.655 258.208,208.545L258.208,200.239C258.208,200.041 258.009,200.239 258.208,200.239L274.819,200.239C275.017,200.239 274.819,200.041 274.819,200.239L274.819,208.545C274.819,208.655 274.907,208.743 275.017,208.743L292.025,208.743C292.136,208.743 292.224,208.655 292.224,208.545L292.224,200.239C292.224,200.041 292.025,200.239 292.224,200.239L308.835,200.239C309.033,200.239 308.835,200.041 308.835,200.239L308.835,208.545C308.835,208.655 308.923,208.743 309.033,208.743L326.041,208.743C326.151,208.743 326.239,208.655 326.239,208.545L326.239,200.239C326.239,200.041 326.041,200.239 326.239,200.239L342.85,200.239C343.049,200.239 342.85,200.041 342.85,200.239L342.85,208.545C342.85,208.655 342.938,208.743 343.049,208.743L360.057,208.743C360.167,208.743 360.255,208.655 360.255,208.545L360.255,200.239C360.255,200.041 360.057,200.239 360.255,200.239L376.866,200.239C377.065,200.239 376.866,200.041 376.866,200.239L376.866,208.545C376.866,208.655 376.954,208.743 377.065,208.743L394.072,208.743C394.183,208.743 394.271,208.655 394.271,208.545L394.271,200.239C394.271,200.041 394.072,200.239 394.271,200.239L410.882,200.239C411.08,200.239 410.882,200.041 410.882,200.239L410.882,208.545C410.882,208.655 410.97,208.743 411.08,208.743L428.088,208.743C428.199,208.743 428.287,208.655 428.287,208.545L428.287,200.239C428.287,200.041 428.088,200.239 428.287,200.239L444.898,200.239C445.096,200.239 444.898,200.041 444.898,200.239L444.898,208.545C444.898,208.655 444.986,208.743 445.096,208.743L462.104,208.743C462.214,208.743 462.302,208.655 462.302,208.545L462.302,200.239C462.302,200.041 462.104,200.239 462.302,200.239L478.913,200.239C479.112,200.239 478.913,200.041 478.913,200.239L478.913,208.545C478.913,208.655 479.001,208.743 479.112,208.743L496.12,208.743C496.23,208.743 496.318,208.655 496.318,208.545L496.318,200.239C496.318,200.041 496.12,200.239 496.318,200.239L512.929,200.239C513.128,200.239 512.929,200.041 512.929,200.239L512.929,208.545C512.929,208.655 513.017,208.743 513.128,208.743L530.135,208.743C530.246,208.743 530.334,208.655 530.334,208.545L530.334,200.239C530.334,200.041 530.135,200.239 530.334,200.239L546.945,200.239C547.143,200.239 546.945,200.041 546.945,200.239L546.945,208.545C546.945,208.655 547.033,208.743 547.143,208.743L564.151,208.743C564.262,208.743 564.35,208.655 564.35,208.545L564.35,200.239C564.35,200.041 564.151,200.239 564.35,200.239L580.961,200.239C581.159,200.239 580.961,200.041 580.961,200.239L580.961,208.545C580.961,208.655 581.049,208.743 581.159,208.743L598.167,208.743C598.277,208.743 598.365,208.655 598.365,208.545L598.365,200.239C598.365,200.041 598.167,200.239 598.365,200.239L632.041,200.239C632.151,200.239 632.239,200.151 632.239,200.041L632.239,178.271C632.239,178.072 632.041,178.271 632.239,178.271L640.545,178.271C640.655,178.271 640.743,178.183 640.743,178.072L640.743,161.065C640.743,160.954 640.655,160.866 640.545,160.866L632.239,160.866C632.041,160.866 632.239,161.065 632.239,160.866L632.239,144.255C632.239,144.057 632.041,144.255 632.239,144.255L640.545,144.255C640.655,144.255 640.743,144.167 640.743,144.057L640.743,127.049C640.743,126.938 640.655,126.85 640.545,126.85L632.239,126.85C632.041,126.85 632.239,127.049 632.239,126.85L632.239,110.239C632.239,110.041 632.041,110.239 632.239,110.239L640.545,110.239C640.655,110.239 640.743,110.151 640.743,110.041L640.743,93.033C640.743,92.923 640.655,92.835 640.545,92.835L632.239,92.835C632.041,92.835 632.239,93.033 632.239,92.835L632.239,76.224C632.239,76.025 632.041,76.224 632.239,76.224L640.545,76.224C640.655,76.224 640.743,76.136 640.743,76.025L640.743,59.017C640.743,58.907 640.655,58.819 640.545,58.819L632.239,58.819C632.041,58.819 632.239,59.017 632.239,58.819L632.239,37.049C632.239,36.938 632.151,36.85 632.041,36.85L598.365,36.85C598.167,36.85 598.365,37.049 598.365,36.85L598.365,28.545C598.365,28.434 598.277,28.346 598.167,28.346L581.159,28.346C581.049,28.346 580.961,28.434 580.961,28.545L580.961,36.85C580.961,37.049 581.159,36.85 580.961,36.85L564.35,36.85C564.151,36.85 564.35,37.049 564.35,36.85L564.35,28.545C564.35,28.434 564.262,28.346 564.151,28.346L547.143,28.346C547.033,28.346 546.945,28.434 546.945,28.545L546.945,36.85C546.945,37.049 547.143,36.85 546.945,36.85L530.334,36.85C530.135,36.85 530.334,37.049 530.334,36.85L530.334,28.545C530.334,28.434 530.246,28.346 530.135,28.346L513.128,28.346C513.017,28.346 512.929,28.434 512.929,28.545L512.929,36.85C512.929,37.049 513.128,36.85 512.929,36.85L496.318,36.85C496.12,36.85 496.318,37.049 496.318,36.85L496.318,28.545C496.318,28.434 496.23,28.346 496.12,28.346L479.112,28.346C479.001,28.346 478.913,28.434 478.913,28.545L478.913,36.85C478.913,37.049 479.112,36.85 478.913,36.85L462.302,36.85C462.104,36.85 462.302,37.049 462.302,36.85L462.302,28.545C462.302,28.434 462.214,28.346 462.104,28.346L445.096,28.346C444.986,28.346 444.898,28.434 444.898,28.545L444.898,36.85C444.898,37.049 445.096,36.85 444.898,36.85L428.287,36.85C428.088,36.85 428.287,37.049 428.287,36.85L428.287,28.545C428.287,28.434 428.199,28.346 428.088,28.346L411.08,28.346C410.97,28.346 410.882,28.434 410.882,28.545L410.882,36.85C410.882,37.049 411.08,36.85 410.882,36.85L394.271,36.85C394.072,36.85 394.271,37.049 394.271,36.85L394.271,28.545C394.271,28.434 394.183,28.346 394.072,28.346L377.065,28.346C376.954,28.346 376.866,28.434 376.866,28.545L376.866,36.85C376.866,37.049 377.065,36.85 376.866,36.85L360.255,36.85C360.057,36.85 360.255,37.049 360.255,36.85L360.255,28.545C360.255,28.434 360.167,28.346 360.057,28.346L343.049,28.346C342.938,28.346 342.85,28.434 342.85,28.545L342.85,36.85C342.85,37.049 343.049,36.85 342.85,36.85L326.239,36.85C326.041,36.85 326.239,37.049 326.239,36.85L326.239,28.545C326.239,28.434 326.151,28.346 326.041,28.346L309.033,28.346C308.923,28.346 308.835,28.434 308.835,28.545L308.835,36.85C308.835,37.049 309.033,36.85 308.835,36.85L292.224,36.85C292.025,36.85 292.224,37.049 292.224,36.85L292.224,28.545C292.224,28.434 292.136,28.346 292.025,28.346L275.017,28.346C274.907,28.346 274.819,28.434 274.819,28.545L274.819,36.85C274.819,37.049 275.017,36.85 274.819,36.85L258.208,36.85C258.009,36.85 258.208,37.049 258.208,36.85L258.208,28.545C258.208,28.434 258.12,28.346 258.009,28.346L241.002,28.346C240.891,28.346 240.803,28.434 240.803,28.545L240.803,36.85C240.803,37.049 241.002,36.85 240.803,36.85L224.192,36.85C223.994,36.85 224.192,37.049 224.192,36.85L224.192,28.545C224.192,28.434 224.104,28.346 223.994,28.346L206.986,28.346C206.875,28.346 206.787,28.434 206.787,28.545L206.787,36.85C206.787,37.049 206.986,36.85 206.787,36.85L190.176,36.85C189.978,36.85 190.176,37.049 190.176,36.85L190.176,28.545C190.176,28.434 190.089,28.346 189.978,28.346L172.97,28.346C172.86,28.346 172.772,28.434 172.772,28.545L172.772,36.85C172.772,37.049 172.97,36.85 172.772,36.85L156.161,36.85C155.962,36.85 156.161,37.049 156.161,36.85L156.161,28.545C156.161,28.434 156.073,28.346 155.962,28.346L138.954,28.346C138.844,28.346 138.756,28.434 138.756,28.545L138.756,36.85C138.756,37.049 138.954,36.85 138.756,36.85L122.145,36.85C121.946,36.85 122.145,37.049 122.145,36.85L122.145,28.545C122.145,28.434 122.057,28.346 121.946,28.346L104.939,28.346C104.828,28.346 104.74,28.434 104.74,28.545L104.74,36.85C104.74,37.049 104.939,36.85 104.74,36.85L88.129,36.85C87.931,36.85 88.129,37.049 88.129,36.85L88.129,28.545C88.129,28.434 88.041,28.346 87.931,28.346L70.923,28.346C70.812,28.346 70.724,28.434 70.724,28.545L70.724,36.85C70.724,37.049 70.923,36.85 70.724,36.85L37.049,36.85C36.938,36.85 36.85,36.938 36.85,37.049L36.85,58.819C36.85,59.017 37.049,58.819 36.85,58.819L28.545,58.819C28.434,58.819 28.346,58.907 28.346,59.017L28.346,76.025C28.346,76.136 28.434,76.224 28.545,76.224L36.85,76.224C37.049,76.224 36.85,76.025 36.85,76.224L36.85,92.835C36.85,93.033 37.049,92.835 36.85,92.835L28.545,92.835C28.434,92.835 28.346,92.923 28.346,93.033L28.346,110.041C28.346,110.151 28.434,110.239 28.545,110.239L36.85,110.239C37.049,110.239 36.85,110.041 36.85,110.239L36.85,126.85C36.85,127.049 37.049,126.85 36.85,126.85L28.545,126.85C28.434,126.85 28.346,126.938 28.346,127.049L28.346,144.057C28.346,144.167 28.434,144.255 28.545,144.255L36.85,144.255C37.049,144.255 36.85,144.057 36.85,144.255L36.85,160.866C36.85,161.065 37.049,160.866 36.85,160.866L28.545,160.866C28.434,160.866 28.346,160.954 28.346,161.065L28.346,178.072C28.346,178.183 28.434,178.271 28.545,178.271L36.85,178.271C37.049,178.271 36.85,178.072 36.85,178.271L36.85,200.041C36.85,200.151 36.938,200.239 37.049,200.239Z" style="fill:none;fill-rule:nonzero;stroke:black;stroke-width:0.4px;"/>
        </g>
        <g id="p-5">
            <path d="M653.698,200.239L687.373,200.239C687.572,200.239 687.373,200.041 687.373,200.239L687.373,208.545C687.373,208.655 687.461,208.743 687.572,208.743L704.58,208.743C704.69,208.743 704.778,208.655 704.778,208.545L704.778,200.239C704.778,200.041 704.58,200.239 704.778,200.239L721.389,200.239C721.587,200.239 721.389,200.041 721.389,200.239L721.389,208.545C721.389,208.655 721.477,208.743 721.587,208.743L738.595,208.743C738.706,208.743 738.794,208.655 738.794,208.545L738.794,200.239C738.794,200.041 738.595,200.239 738.794,200.239L755.405,200.239C755.603,200.239 755.405,200.041 755.405,200.239L755.405,208.545C755.405,208.655 755.493,208.743 755.603,208.743L772.611,208.743C772.722,208.743 772.809,208.655 772.809,208.545L772.809,200.239C772.809,200.041 772.611,200.239 772.809,200.239L789.42,200.239C789.619,200.239 789.42,200.041 789.42,200.239L789.42,208.545C789.42,208.655 789.508,208.743 789.619,208.743L806.627,208.743C806.737,208.743 806.825,208.655 806.825,208.545L806.825,200.239C806.825,200.041 806.627,200.239 806.825,200.239L823.436,200.239C823.635,200.239 823.436,200.041 823.436,200.239L823.436,208.545C823.436,208.655 823.524,208.743 823.635,208.743L840.643,208.743C840.753,208.743 840.841,208.655 840.841,208.545L840.841,200.239C840.841,200.041 840.643,200.239 840.841,200.239L857.452,200.239C857.65,200.239 857.452,200.041 857.452,200.239L857.452,208.545C857.452,208.655 857.54,208.743 857.65,208.743L874.658,208.743C874.769,208.743 874.857,208.655 874.857,208.545L874.857,200.239C874.857,200.041 874.658,200.239 874.857,200.239L891.468,200.239C891.666,200.239 891.468,200.041 891.468,200.239L891.468,208.545C891.468,208.655 891.556,208.743 891.666,208.743L908.674,208.743C908.785,208.743 908.872,208.655 908.872,208.545L908.872,200.239C908.872,200.041 908.674,200.239 908.872,200.239L925.483,200.239C925.682,200.239 925.483,200.041 925.483,200.239L925.483,208.545C925.483,208.655 925.571,208.743 925.682,208.743L942.69,208.743C942.8,208.743 942.888,208.655 942.888,208.545L942.888,200.239C942.888,200.041 942.69,200.239 942.888,200.239L959.499,200.239C959.698,200.239 959.499,200.041 959.499,200.239L959.499,208.545C959.499,208.655 959.587,208.743 959.698,208.743L976.706,208.743C976.816,208.743 976.904,208.655 976.904,208.545L976.904,200.239C976.904,200.041 976.706,200.239 976.904,200.239L993.515,200.239C993.713,200.239 993.515,200.041 993.515,200.239L993.515,208.545C993.515,208.655 993.603,208.743 993.713,208.743L1010.72,208.743C1010.83,208.743 1010.92,208.655 1010.92,208.545L1010.92,200.239C1010.92,200.041 1010.72,200.239 1010.92,200.239L1027.53,200.239C1027.73,200.239 1027.53,200.041 1027.53,200.239L1027.53,208.545C1027.53,208.655 1027.62,208.743 1027.73,208.743L1044.74,208.743C1044.85,208.743 1044.93,208.655 1044.93,208.545L1044.93,200.239C1044.93,200.041 1044.74,200.239 1044.93,200.239L1061.55,200.239C1061.75,200.239 1061.55,200.041 1061.55,200.239L1061.55,208.545C1061.55,208.655 1061.63,208.743 1061.75,208.743L1078.75,208.743C1078.86,208.743 1078.95,208.655 1078.95,208.545L1078.95,200.239C1078.95,200.041 1078.75,200.239 1078.95,200.239L1095.56,200.239C1095.76,200.239 1095.56,200.041 1095.56,200.239L1095.56,208.545C1095.56,208.655 1095.65,208.743 1095.76,208.743L1112.77,208.743C1112.88,208.743 1112.97,208.655 1112.97,208.545L1112.97,200.239C1112.97,200.041 1112.77,200.239 1112.97,200.239L1129.58,200.239C1129.78,200.239 1129.58,200.041 1129.58,200.239L1129.58,208.545C1129.58,208.655 1129.67,208.743 1129.78,208.743L1146.78,208.743C1146.89,208.743 1146.98,208.655 1146.98,208.545L1146.98,200.239C1146.98,200.041 1146.78,200.239 1146.98,200.239L1163.59,200.239C1163.79,200.239 1163.59,200.041 1163.59,200.239L1163.59,208.545C1163.59,208.655 1163.68,208.743 1163.79,208.743L1180.8,208.743C1180.91,208.743 1181,208.655 1181,208.545L1181,200.239C1181,200.041 1180.8,200.239 1181,200.239L1197.61,200.239C1197.81,200.239 1197.61,200.041 1197.61,200.239L1197.61,208.545C1197.61,208.655 1197.7,208.743 1197.81,208.743L1214.82,208.743C1214.93,208.743 1215.01,208.655 1215.01,208.545L1215.01,200.239C1215.01,200.041 1214.82,200.239 1215.01,200.239L1248.69,200.239C1248.8,200.239 1248.89,200.151 1248.89,200.041L1248.89,178.271C1248.89,178.072 1248.69,178.271 1248.89,178.271L1257.19,178.271C1257.3,178.271 1257.39,178.183 1257.39,178.072L1257.39,161.065C1257.39,160.954 1257.3,160.866 1257.19,160.866L1248.89,160.866C1248.69,160.866 1248.89,161.065 1248.89,160.866L1248.89,144.255C1248.89,144.057 1248.69,144.255 1248.89,144.255L1257.19,144.255C1257.3,144.255 1257.39,144.167 1257.39,144.057L1257.39,127.049C1257.39,126.938 1257.3,126.85 1257.19,126.85L1248.89,126.85C1248.69,126.85 1248.89,127.049 1248.89,126.85L1248.89,110.239C1248.89,110.041 1248.69,110.239 1248.89,110.239L1257.19,110.239C1257.3,110.239 1257.39,110.151 1257.39,110.041L1257.39,93.033C1257.39,92.923 1257.3,92.835 1257.19,92.835L1248.89,92.835C1248.69,92.835 1248.89,93.033 1248.89,92.835L1248.89,76.224C1248.89,76.025 1248.69,76.224 1248.89,76.224L1257.19,76.224C1257.3,76.224 1257.39,76.136 1257.39,76.025L1257.39,59.017C1257.39,58.907 1257.3,58.819 1257.19,58.819L1248.89,58.819C1248.69,58.819 1248.89,59.017 1248.89,58.819L1248.89,37.049C1248.89,36.938 1248.8,36.85 1248.69,36.85L1215.01,36.85C1214.82,36.85 1215.01,37.049 1215.01,36.85L1215.01,28.545C1215.01,28.434 1214.93,28.346 1214.82,28.346L1197.81,28.346C1197.7,28.346 1197.61,28.434 1197.61,28.545L1197.61,36.85C1197.61,37.049 1197.81,36.85 1197.61,36.85L1181,36.85C1180.8,36.85 1181,37.049 1181,36.85L1181,28.545C1181,28.434 1180.91,28.346 1180.8,28.346L1163.79,28.346C1163.68,28.346 1163.59,28.434 1163.59,28.545L1163.59,36.85C1163.59,37.049 1163.79,36.85 1163.59,36.85L1146.98,36.85C1146.78,36.85 1146.98,37.049 1146.98,36.85L1146.98,28.545C1146.98,28.434 1146.89,28.346 1146.78,28.346L1129.78,28.346C1129.67,28.346 1129.58,28.434 1129.58,28.545L1129.58,36.85C1129.58,37.049 1129.78,36.85 1129.58,36.85L1112.97,36.85C1112.77,36.85 1112.97,37.049 1112.97,36.85L1112.97,28.545C1112.97,28.434 1112.88,28.346 1112.77,28.346L1095.76,28.346C1095.65,28.346 1095.56,28.434 1095.56,28.545L1095.56,36.85C1095.56,37.049 1095.76,36.85 1095.56,36.85L1078.95,36.85C1078.75,36.85 1078.95,37.049 1078.95,36.85L1078.95,28.545C1078.95,28.434 1078.86,28.346 1078.75,28.346L1061.75,28.346C1061.63,28.346 1061.55,28.434 1061.55,28.545L1061.55,36.85C1061.55,37.049 1061.75,36.85 1061.55,36.85L1044.93,36.85C1044.74,36.85 1044.93,37.049 1044.93,36.85L1044.93,28.545C1044.93,28.434 1044.85,28.346 1044.74,28.346L1027.73,28.346C1027.62,28.346 1027.53,28.434 1027.53,28.545L1027.53,36.85C1027.53,37.049 1027.73,36.85 1027.53,36.85L1010.92,36.85C1010.72,36.85 1010.92,37.049 1010.92,36.85L1010.92,28.545C1010.92,28.434 1010.83,28.346 1010.72,28.346L993.713,28.346C993.603,28.346 993.515,28.434 993.515,28.545L993.515,36.85C993.515,37.049 993.713,36.85 993.515,36.85L976.904,36.85C976.706,36.85 976.904,37.049 976.904,36.85L976.904,28.545C976.904,28.434 976.816,28.346 976.706,28.346L959.698,28.346C959.587,28.346 959.499,28.434 959.499,28.545L959.499,36.85C959.499,37.049 959.698,36.85 959.499,36.85L942.888,36.85C942.69,36.85 942.888,37.049 942.888,36.85L942.888,28.545C942.888,28.434 942.8,28.346 942.69,28.346L925.682,28.346C925.571,28.346 925.483,28.434 925.483,28.545L925.483,36.85C925.483,37.049 925.682,36.85 925.483,36.85L908.872,36.85C908.674,36.85 908.872,37.049 908.872,36.85L908.872,28.545C908.872,28.434 908.785,28.346 908.674,28.346L891.666,28.346C891.556,28.346 891.468,28.434 891.468,28.545L891.468,36.85C891.468,37.049 891.666,36.85 891.468,36.85L874.857,36.85C874.658,36.85 874.857,37.049 874.857,36.85L874.857,28.545C874.857,28.434 874.769,28.346 874.658,28.346L857.65,28.346C857.54,28.346 857.452,28.434 857.452,28.545L857.452,36.85C857.452,37.049 857.65,36.85 857.452,36.85L840.841,36.85C840.643,36.85 840.841,37.049 840.841,36.85L840.841,28.545C840.841,28.434 840.753,28.346 840.643,28.346L823.635,28.346C823.524,28.346 823.436,28.434 823.436,28.545L823.436,36.85C823.436,37.049 823.635,36.85 823.436,36.85L806.825,36.85C806.627,36.85 806.825,37.049 806.825,36.85L806.825,28.545C806.825,28.434 806.737,28.346 806.627,28.346L789.619,28.346C789.508,28.346 789.42,28.434 789.42,28.545L789.42,36.85C789.42,37.049 789.619,36.85 789.42,36.85L772.809,36.85C772.611,36.85 772.809,37.049 772.809,36.85L772.809,28.545C772.809,28.434 772.722,28.346 772.611,28.346L755.603,28.346C755.493,28.346 755.405,28.434 755.405,28.545L755.405,36.85C755.405,37.049 755.603,36.85 755.405,36.85L738.794,36.85C738.595,36.85 738.794,37.049 738.794,36.85L738.794,28.545C738.794,28.434 738.706,28.346 738.595,28.346L721.587,28.346C721.477,28.346 721.389,28.434 721.389,28.545L721.389,36.85C721.389,37.049 721.587,36.85 721.389,36.85L704.778,36.85C704.58,36.85 704.778,37.049 704.778,36.85L704.778,28.545C704.778,28.434 704.69,28.346 704.58,28.346L687.572,28.346C687.461,28.346 687.373,28.434 687.373,28.545L687.373,36.85C687.373,37.049 687.572,36.85 687.373,36.85L653.698,36.85C653.587,36.85 653.499,36.938 653.499,37.049L653.499,58.819C653.499,59.017 653.698,58.819 653.499,58.819L645.194,58.819C645.083,58.819 644.995,58.907 644.995,59.017L644.995,76.025C644.995,76.136 645.083,76.224 645.194,76.224L653.499,76.224C653.698,76.224 653.499,76.025 653.499,76.224L653.499,92.835C653.499,93.033 653.698,92.835 653.499,92.835L645.194,92.835C645.083,92.835 644.995,92.923 644.995,93.033L644.995,110.041C644.995,110.151 645.083,110.239 645.194,110.239L653.499,110.239C653.698,110.239 653.499,110.041 653.499,110.239L653.499,126.85C653.499,127.049 653.698,126.85 653.499,126.85L645.194,126.85C645.083,126.85 644.995,126.938 644.995,127.049L644.995,144.057C644.995,144.167 645.083,144.255 645.194,144.255L653.499,144.255C653.698,144.255 653.499,144.057 653.499,144.255L653.499,160.866C653.499,161.065 653.698,160.866 653.499,160.866L645.194,160.866C645.083,160.866 644.995,160.954 644.995,161.065L644.995,178.072C644.995,178.183 645.083,178.271 645.194,178.271L653.499,178.271C653.698,178.271 653.499,178.072 653.499,178.271L653.499,200.041C653.499,200.151 653.587,200.239 653.698,200.239Z" style="fill:none;fill-rule:nonzero;stroke:black;stroke-width:0.4px;"/>
        </g>
    </g>
</svg>
