<?xml version="1.0" encoding="UTF-8" standalone="no"?>
<!DOCTYPE svg PUBLIC "-//W3C//DTD SVG 1.1//EN" "http://www.w3.org/Graphics/SVG/1.1/DTD/svg11.dtd">
<svg width="1323px" height="617px" version="1.1" xmlns="http://www.w3.org/2000/svg" xmlns:xlink="http://www.w3.org/1999/xlink" xml:space="preserve" xmlns:serif="http://www.serif.com/" style="fill-rule:evenodd;clip-rule:evenodd;">
    <g transform="matrix(1.33333,0,0,1.33333,0,0)">
        <path d="M2.835,459.797L2.835,2.835L4.142,2.841L58.249,3.057L101.151,3.458L102.728,3.478L149.332,4.156L150.298,4.178L186.687,4.995L187.555,5.025L189.808,5.098L242.518,6.812L243.306,6.849L263.349,7.736L272.74,8.257L300.975,9.825L301.346,9.848L337.66,12.455L373.629,15.633L391.644,17.442L392.378,17.519L430.028,21.784L430.811,21.88L431.226,21.937L471.742,27.3L488.846,29.853L493.642,30.569L495.95,30.944L516.373,34.265L539.901,38.432L564.165,43.129L589.082,48.416L614.537,54.351L640.403,60.99L666.527,68.38L681.721,73.125L692.742,76.567L718.872,85.589L744.721,95.477L770.097,106.225L794.789,117.831L818.597,130.263L830.103,136.772L841.312,143.464L852.197,150.327L862.733,157.343L867.492,160.699L872.895,164.509L882.663,171.794L892.012,179.184L900.921,186.661L909.371,194.202L917.345,201.781L924.829,209.375L931.813,216.964L938.29,224.518L943.7,231.316L944.254,232.013L949.708,239.423L954.655,246.722L959.105,253.888L963.074,260.892L966.583,267.715L972.337,280.721L972.403,280.899L974.673,286.921L975.249,288.701L978.319,298.184L978.372,298.352L981.156,308.744L981.216,309.013L983.336,318.194L983.793,320.588L984.483,324.201L986.485,334.684L986.53,334.93L987.673,343.321L988.469,352.31L988.917,362.106L988.968,365.776L989.062,372.449L989.063,372.757L989.063,372.874L989.054,373.42L988.603,405.621L988.595,406.168L988.591,406.906L988.497,417.087L988.241,445.048L988.541,459.582L988.546,459.797L2.835,459.797Z" style="fill:none;fill-rule:nonzero;stroke:rgb(0,1,255);stroke-width:2px;"/>
    </g>
</svg>
