<?xml version="1.0" standalone="no"?>
<!DOCTYPE svg PUBLIC "-//W3C//DTD SVG 1.1//EN"
  "http://www.w3.org/Graphics/SVG/1.1/DTD/svg11.dtd">
<svg width="65.5mm" height="90.9000015258789mm" viewBox="-32.75 -45.45000076293945 65.5 90.9000015258789" xmlns="http://www.w3.org/2000/svg" version="1.1">
	<title>svgOutput</title>
	<desc>made with tinkercad</desc>
<path d="M -31.75 -43.18000030517578 L -31.731000900268555 -43.4010009765625 L -31.67300033569336 -43.61399841308594 L -31.579999923706055 -43.814998626708984 L -31.452999114990234 -43.99599838256836 L -31.29599952697754 -44.15299987792969 L -31.114999771118164 -44.279998779296875 L -30.913999557495117 -44.37300109863281 L -30.701000213623047 -44.430999755859375 L -30.479999542236328 -44.45000076293945 L -28.672000885009766 -44.45000076293945 L -28.444591522216797 -44.45000076293945 L -27.835763931274414 -44.45000076293945 L -27.283180236816406 -44.45000076293945 L -26.730356216430664 -44.45000076293945 L -24.576000213623047 -44.45000076293945 L -16.384000778198242 -44.45000076293945 L 0 -44.45000076293945 L 16.384000778198242 -44.45000076293945 L 24.576000213623047 -44.45000076293945 L 24.677106857299805 -44.45000076293945 L 28.672000885009766 -44.45000076293945 L 29.14964485168457 -44.45000076293945 L 30.479999542236328 -44.45000076293945 L 30.701000213623047 -44.430999755859375 L 30.913999557495117 -44.37300109863281 L 31.114999771118164 -44.279998779296875 L 31.29599952697754 -44.15299987792969 L 31.452999114990234 -43.99599838256836 L 31.579999923706055 -43.814998626708984 L 31.67300033569336 -43.61399841308594 L 31.731000900268555 -43.4010009765625 L 31.75 -43.18000030517578 L 31.75 -40.959999084472656 L 31.75 -36.86399841308594 L 31.75 -32.768001556396484 L 31.75 -16.384000778198242 L 31.75 1.1102230246251565e-16 L 31.75 16.384000778198242 L 31.75 32.768001556396484 L 31.75 36.86399841308594 L 31.75 40.69062042236328 L 31.75 40.959999084472656 L 31.75 43.18000030517578 L 31.731000900268555 43.4010009765625 L 31.67300033569336 43.61399841308594 L 31.579999923706055 43.814998626708984 L 31.452999114990234 43.99599838256836 L 31.29599952697754 44.15299987792969 L 31.114999771118164 44.279998779296875 L 30.913999557495117 44.37300109863281 L 30.701000213623047 44.430999755859375 L 30.479999542236328 44.45000076293945 L 28.672000885009766 44.45000076293945 L 28.12511444091797 44.45000076293945 L 27.56867218017578 44.45000076293945 L 26.999414443969727 44.45000076293945 L 24.576000213623047 44.45000076293945 L 16.384000778198242 44.45000076293945 L 0 44.45000076293945 L -16.384000778198242 44.45000076293945 L -24.576000213623047 44.45000076293945 L -28.672000885009766 44.45000076293945 L -28.880586624145508 44.45000076293945 L -30.479999542236328 44.45000076293945 L -30.701000213623047 44.430999755859375 L -30.913999557495117 44.37300109863281 L -31.114999771118164 44.279998779296875 L -31.29599952697754 44.15299987792969 L -31.452999114990234 43.99599838256836 L -31.579999923706055 43.814998626708984 L -31.67300033569336 43.61399841308594 L -31.731000900268555 43.4010009765625 L -31.75 43.18000030517578 L -31.75 40.959999084472656 L -31.75 40.40105438232422 L -31.75 36.86399841308594 L -31.75 32.768001556396484 L -31.75 16.384000778198242 L -31.75 1.1102230246251565e-16 L -31.75 -16.384000778198242 L -31.75 -32.768001556396484 L -31.75 -36.86399841308594 L -31.75 -40.959999084472656 L -31.75 -43.18000030517578 M -3.9749999046325684 -19.049999237060547 L -3.953000068664551 -18.634000778198242 L -3.888000011444092 -18.224000930786133 L -3.7809998989105225 -17.82200050354004 L -3.63100004196167 -17.433000564575195 L -3.443000078201294 -17.062000274658203 L -3.2160000801086426 -16.71299934387207 L -2.9539999961853027 -16.389999389648438 L -2.947999954223633 -16.384000778198242 L -2.6600000858306885 -16.09600067138672 L -2.3369998931884766 -15.833999633789062 L -1.9880000352859497 -15.607000350952148 L -1.6169999837875366 -15.418999671936035 L -1.2280000448226929 -15.269000053405762 L -0.8259999752044678 -15.161999702453613 L -0.41600000858306885 -15.097000122070312 L 0 -15.074999809265137 L 0.41600000858306885 -15.097000122070312 L 0.8259999752044678 -15.161999702453613 L 1.2280000448226929 -15.269000053405762 L 1.6169999837875366 -15.418999671936035 L 1.9880000352859497 -15.607000350952148 L 2.3369998931884766 -15.833999633789062 L 2.6600000858306885 -16.09600067138672 L 2.947999954223633 -16.384000778198242 L 2.9539999961853027 -16.389999389648438 L 3.2160000801086426 -16.71299934387207 L 3.443000078201294 -17.062000274658203 L 3.63100004196167 -17.433000564575195 L 3.7809998989105225 -17.82200050354004 L 3.888000011444092 -18.224000930786133 L 3.953000068664551 -18.634000778198242 L 3.9749999046325684 -19.049999237060547 L 3.953000068664551 -19.465999603271484 L 3.888000011444092 -19.875999450683594 L 3.7809998989105225 -20.277999877929688 L 3.703108072280884 -20.479999542236328 L 3.63100004196167 -20.66699981689453 L 3.443000078201294 -21.038000106811523 L 3.2160000801086426 -21.386999130249023 L 2.9539999961853027 -21.709999084472656 L 2.6600000858306885 -22.003999710083008 L 2.3369998931884766 -22.266000747680664 L 1.9880000352859497 -22.493000030517578 L 1.6169999837875366 -22.680999755859375 L 1.2280000448226929 -22.83099937438965 L 0.8259999752044678 -22.937999725341797 L 0.41600000858306885 -23.003000259399414 L 0 -23.024999618530273 L -0.41600000858306885 -23.003000259399414 L -0.8259999752044678 -22.937999725341797 L -1.2280000448226929 -22.83099937438965 L -1.6169999837875366 -22.680999755859375 L -1.9880000352859497 -22.493000030517578 L -2.3369998931884766 -22.266000747680664 L -2.6600000858306885 -22.003999710083008 L -2.9539999961853027 -21.709999084472656 L -3.2160000801086426 -21.386999130249023 L -3.443000078201294 -21.038000106811523 L -3.63100004196167 -20.66699981689453 L -3.703108072280884 -20.479999542236328 L -3.7809998989105225 -20.277999877929688 L -3.888000011444092 -19.875999450683594 L -3.953000068664551 -19.465999603271484 L -3.9749999046325684 -19.049999237060547 M 3.2160000801086426 16.71299934387207 L 2.9539999961853027 16.389999389648438 L 2.947999954223633 16.384000778198242 L 2.6600000858306885 16.09600067138672 L 2.3369998931884766 15.833999633789062 L 1.9880000352859497 15.607000350952148 L 1.6169999837875366 15.418999671936035 L 1.2280000448226929 15.269000053405762 L 0.8259999752044678 15.161999702453613 L 0.41600000858306885 15.097000122070312 L 0 15.074999809265137 L -0.41600000858306885 15.097000122070312 L -0.8259999752044678 15.161999702453613 L -1.2280000448226929 15.269000053405762 L -1.6169999837875366 15.418999671936035 L -1.9880000352859497 15.607000350952148 L -2.3369998931884766 15.833999633789062 L -2.6600000858306885 16.09600067138672 L -2.947999954223633 16.384000778198242 L -2.9539999961853027 16.389999389648438 L -3.2160000801086426 16.71299934387207 L -3.443000078201294 17.062000274658203 L -3.63100004196167 17.433000564575195 L -3.7809998989105225 17.82200050354004 L -3.888000011444092 18.224000930786133 L -3.953000068664551 18.634000778198242 L -3.9749999046325684 19.049999237060547 L -3.953000068664551 19.465999603271484 L -3.888000011444092 19.875999450683594 L -3.7809998989105225 20.277999877929688 L -3.703108072280884 20.479999542236328 L -3.63100004196167 20.66699981689453 L -3.443000078201294 21.038000106811523 L -3.2160000801086426 21.386999130249023 L -2.9539999961853027 21.709999084472656 L -2.6600000858306885 22.003999710083008 L -2.3369998931884766 22.266000747680664 L -1.9880000352859497 22.493000030517578 L -1.6169999837875366 22.680999755859375 L -1.2280000448226929 22.83099937438965 L -0.8259999752044678 22.937999725341797 L -0.41600000858306885 23.003000259399414 L 0 23.024999618530273 L 0.41600000858306885 23.003000259399414 L 0.8259999752044678 22.937999725341797 L 1.2280000448226929 22.83099937438965 L 1.6169999837875366 22.680999755859375 L 1.9880000352859497 22.493000030517578 L 2.3369998931884766 22.266000747680664 L 2.6600000858306885 22.003999710083008 L 2.9539999961853027 21.709999084472656 L 3.2160000801086426 21.386999130249023 L 3.443000078201294 21.038000106811523 L 3.63100004196167 20.66699981689453 L 3.703108072280884 20.479999542236328 L 3.7809998989105225 20.277999877929688 L 3.888000011444092 19.875999450683594 L 3.953000068664551 19.465999603271484 L 3.9749999046325684 19.049999237060547 L 3.953000068664551 18.634000778198242 L 3.888000011444092 18.224000930786133 L 3.7809998989105225 17.82200050354004 L 3.63100004196167 17.433000564575195 L 3.443000078201294 17.062000274658203 L 3.2160000801086426 16.71299934387207 M -28.792999267578125 -39.07099914550781 L -28.672000885009766 -39.01657485961914 L -28.54400062561035 -38.95899963378906 L -28.280000686645508 -38.887001037597656 L -28.007999420166016 -38.85499954223633 L -27.735000610351562 -38.86600112915039 L -27.466999053955078 -38.917999267578125 L -27.208999633789062 -39.0099983215332 L -26.9689998626709 -39.14099884033203 L -26.75200080871582 -39.30699920654297 L -26.562000274658203 -39.50400161743164 L -26.405000686645508 -39.72700119018555 L -26.284000396728516 -39.97200012207031 L -26.201000213623047 -40.233001708984375 L -26.159000396728516 -40.50299835205078 L -26.159000396728516 -40.777000427246094 L -26.187467575073242 -40.959999084472656 L -26.201000213623047 -41.047000885009766 L -26.284000396728516 -41.30799865722656 L -26.405000686645508 -41.553001403808594 L -26.562000274658203 -41.7760009765625 L -26.75200080871582 -41.972999572753906 L -26.9689998626709 -42.138999938964844 L -27.208999633789062 -42.27000045776367 L -27.466999053955078 -42.36199951171875 L -27.735000610351562 -42.41400146484375 L -28.007999420166016 -42.42499923706055 L -28.280000686645508 -42.393001556396484 L -28.54400062561035 -42.32099914550781 L -28.672000885009766 -42.263423919677734 L -28.792999267578125 -42.20899963378906 L -29.023000717163086 -42.060001373291016 L -29.226999282836914 -41.87799835205078 L -29.400999069213867 -41.66699981689453 L -29.540000915527344 -41.43199920654297 L -29.64299964904785 -41.17900085449219 L -29.694046020507812 -40.959999084472656 L -29.704999923706055 -40.91299819946289 L -29.72599983215332 -40.63999938964844 L -29.704999923706055 -40.367000579833984 L -29.64299964904785 -40.10100173950195 L -29.540000915527344 -39.847999572753906 L -29.400999069213867 -39.612998962402344 L -29.226999282836914 -39.402000427246094 L -29.023000717163086 -39.220001220703125 L -28.792999267578125 -39.07099914550781 M -26.187467575073242 40.959999084472656 L -26.159000396728516 40.777000427246094 L -26.159000396728516 40.50299835205078 L -26.201000213623047 40.233001708984375 L -26.284000396728516 39.97200012207031 L -26.405000686645508 39.72700119018555 L -26.562000274658203 39.50400161743164 L -26.75200080871582 39.30699920654297 L -26.9689998626709 39.14099884033203 L -27.208999633789062 39.0099983215332 L -27.466999053955078 38.917999267578125 L -27.735000610351562 38.86600112915039 L -28.007999420166016 38.85499954223633 L -28.280000686645508 38.887001037597656 L -28.54400062561035 38.95899963378906 L -28.672000885009766 39.01657485961914 L -28.792999267578125 39.07099914550781 L -29.023000717163086 39.220001220703125 L -29.226999282836914 39.402000427246094 L -29.400999069213867 39.612998962402344 L -29.540000915527344 39.847999572753906 L -29.64299964904785 40.10100173950195 L -29.704999923706055 40.367000579833984 L -29.72599983215332 40.63999938964844 L -29.704999923706055 40.91299819946289 L -29.694046020507812 40.959999084472656 L -29.64299964904785 41.17900085449219 L -29.540000915527344 41.43199920654297 L -29.400999069213867 41.66699981689453 L -29.226999282836914 41.87799835205078 L -29.023000717163086 42.060001373291016 L -28.792999267578125 42.20899963378906 L -28.672000885009766 42.263423919677734 L -28.54400062561035 42.32099914550781 L -28.280000686645508 42.393001556396484 L -28.007999420166016 42.42499923706055 L -27.735000610351562 42.41400146484375 L -27.466999053955078 42.36199951171875 L -27.208999633789062 42.27000045776367 L -26.9689998626709 42.138999938964844 L -26.75200080871582 41.972999572753906 L -26.562000274658203 41.7760009765625 L -26.405000686645508 41.553001403808594 L -26.284000396728516 41.30799865722656 L -26.201000213623047 41.047000885009766 L -26.187467575073242 40.959999084472656 M 28.910999298095703 -42.138999938964844 L 28.672000885009766 -42.26945495605469 L 28.67099952697754 -42.27000045776367 L 28.413000106811523 -42.36199951171875 L 28.145000457763672 -42.41400146484375 L 27.871999740600586 -42.42499923706055 L 27.600000381469727 -42.393001556396484 L 27.336000442504883 -42.32099914550781 L 27.086999893188477 -42.20899963378906 L 26.85700035095215 -42.060001373291016 L 26.652999877929688 -41.87799835205078 L 26.479000091552734 -41.66699981689453 L 26.34000015258789 -41.43199920654297 L 26.23699951171875 -41.17900085449219 L 26.185955047607422 -40.959999084472656 L 26.174999237060547 -40.91299819946289 L 26.15399932861328 -40.63999938964844 L 26.174999237060547 -40.367000579833984 L 26.23699951171875 -40.10100173950195 L 26.34000015258789 -39.847999572753906 L 26.479000091552734 -39.612998962402344 L 26.652999877929688 -39.402000427246094 L 26.85700035095215 -39.220001220703125 L 27.086999893188477 -39.07099914550781 L 27.336000442504883 -38.95899963378906 L 27.600000381469727 -38.887001037597656 L 27.871999740600586 -38.85499954223633 L 28.145000457763672 -38.86600112915039 L 28.413000106811523 -38.917999267578125 L 28.67099952697754 -39.0099983215332 L 28.672000885009766 -39.01054763793945 L 28.910999298095703 -39.14099884033203 L 29.128000259399414 -39.30699920654297 L 29.31800079345703 -39.50400161743164 L 29.475000381469727 -39.72700119018555 L 29.59600067138672 -39.97200012207031 L 29.679000854492188 -40.233001708984375 L 29.72100067138672 -40.50299835205078 L 29.72100067138672 -40.777000427246094 L 29.692533493041992 -40.959999084472656 L 29.679000854492188 -41.047000885009766 L 29.59600067138672 -41.30799865722656 L 29.475000381469727 -41.553001403808594 L 29.31800079345703 -41.7760009765625 L 29.128000259399414 -41.972999572753906 L 28.910999298095703 -42.138999938964844 M 26.174999237060547 40.91299819946289 L 26.185955047607422 40.959999084472656 L 26.23699951171875 41.17900085449219 L 26.34000015258789 41.43199920654297 L 26.479000091552734 41.66699981689453 L 26.652999877929688 41.87799835205078 L 26.85700035095215 42.060001373291016 L 27.086999893188477 42.20899963378906 L 27.336000442504883 42.32099914550781 L 27.600000381469727 42.393001556396484 L 27.871999740600586 42.42499923706055 L 28.145000457763672 42.41400146484375 L 28.413000106811523 42.36199951171875 L 28.67099952697754 42.27000045776367 L 28.672000885009766 42.26945495605469 L 28.910999298095703 42.138999938964844 L 29.128000259399414 41.972999572753906 L 29.31800079345703 41.7760009765625 L 29.475000381469727 41.553001403808594 L 29.59600067138672 41.30799865722656 L 29.679000854492188 41.047000885009766 L 29.692533493041992 40.959999084472656 L 29.72100067138672 40.777000427246094 L 29.72100067138672 40.50299835205078 L 29.679000854492188 40.233001708984375 L 29.59600067138672 39.97200012207031 L 29.475000381469727 39.72700119018555 L 29.31800079345703 39.50400161743164 L 29.128000259399414 39.30699920654297 L 28.910999298095703 39.14099884033203 L 28.672000885009766 39.01054763793945 L 28.67099952697754 39.0099983215332 L 28.413000106811523 38.917999267578125 L 28.145000457763672 38.86600112915039 L 27.871999740600586 38.85499954223633 L 27.600000381469727 38.887001037597656 L 27.336000442504883 38.95899963378906 L 27.086999893188477 39.07099914550781 L 26.85700035095215 39.220001220703125 L 26.652999877929688 39.402000427246094 L 26.479000091552734 39.612998962402344 L 26.34000015258789 39.847999572753906 L 26.23699951171875 40.10100173950195 L 26.174999237060547 40.367000579833984 L 26.15399932861328 40.63999938964844 L 26.174999237060547 40.91299819946289 z" fill="none" stroke="rgb(255,0,0)" stroke-width="0.001mm" />
</svg>