<?xml version="1.0" encoding="UTF-8" standalone="no"?>
<!DOCTYPE svg PUBLIC "-//W3C//DTD SVG 1.1//EN" "http://www.w3.org/Graphics/SVG/1.1/DTD/svg11.dtd">
<svg width="248px" height="344px" version="1.1" xmlns="http://www.w3.org/2000/svg" xmlns:xlink="http://www.w3.org/1999/xlink" xml:space="preserve" xmlns:serif="http://www.serif.com/" style="fill-rule:evenodd;clip-rule:evenodd;">
    <g transform="matrix(1.33333,0,0,1.33333,0,0)">
        <path d="M2.835,6.435L2.889,5.808L3.053,5.204L3.317,4.635L3.677,4.122L4.122,3.677L4.635,3.317L5.204,3.053L5.808,2.889L6.435,2.835L179.235,2.835L179.861,2.889L180.465,3.053L181.035,3.317L181.548,3.677L181.993,4.122L182.353,4.635L182.616,5.204L182.781,5.808L182.835,6.435L182.835,251.235L182.781,251.861L182.616,252.465L182.353,253.035L181.993,253.548L181.548,253.993L181.035,254.353L180.465,254.616L179.861,254.781L179.235,254.835L6.435,254.835L5.808,254.781L5.204,254.616L4.635,254.353L4.122,253.993L3.677,253.548L3.317,253.035L3.053,252.465L2.889,251.861L2.835,251.235L2.835,6.435M81.567,74.835L81.629,76.014L81.814,77.176L82.117,78.316L82.542,79.418L83.075,80.47L83.718,81.459L84.461,82.375L84.478,82.392L85.294,83.208L86.21,83.951L87.199,84.594L88.251,85.127L89.354,85.552L90.493,85.856L91.655,86.04L92.835,86.102L94.014,86.04L95.176,85.856L96.316,85.552L97.418,85.127L98.47,84.594L99.459,83.951L100.375,83.208L101.191,82.392L101.208,82.375L101.951,81.459L102.594,80.47L103.127,79.418L103.552,78.316L103.856,77.176L104.04,76.014L104.102,74.835L104.04,73.655L103.856,72.493L103.552,71.354L103.127,70.251L102.594,69.199L101.951,68.21L101.208,67.294L100.375,66.461L99.459,65.718L98.47,65.075L97.418,64.542L96.316,64.117L95.176,63.814L94.014,63.629L92.835,63.567L91.655,63.629L90.493,63.814L89.354,64.117L88.251,64.542L87.199,65.075L86.21,65.718L85.294,66.461L84.461,67.294L83.718,68.21L83.075,69.199L82.542,70.251L82.117,71.354L81.814,72.493L81.629,73.655L81.567,74.835M101.951,176.21L101.208,175.294L101.191,175.277L100.375,174.461L99.459,173.718L98.47,173.075L97.418,172.542L96.316,172.117L95.176,171.814L94.014,171.629L92.835,171.567L91.655,171.629L90.493,171.814L89.354,172.117L88.251,172.542L87.199,173.075L86.21,173.718L85.294,174.461L84.478,175.277L84.461,175.294L83.718,176.21L83.075,177.199L82.542,178.251L82.117,179.354L81.814,180.493L81.629,181.655L81.567,182.835L81.629,184.014L81.814,185.176L82.117,186.316L82.542,187.418L83.075,188.47L83.718,189.459L84.461,190.375L85.294,191.208L86.21,191.951L87.199,192.594L88.251,193.127L89.354,193.552L90.493,193.856L91.655,194.04L92.835,194.102L94.014,194.04L95.176,193.856L96.316,193.552L97.418,193.127L98.47,192.594L99.459,191.951L100.375,191.208L101.208,190.375L101.951,189.459L102.594,188.47L103.127,187.418L103.552,186.316L103.856,185.176L104.04,184.014L104.102,182.835L104.04,181.655L103.856,180.493L103.552,179.354L103.127,178.251L102.594,177.199L101.951,176.21M11.217,18.082L11.923,18.4L12.671,18.604L13.442,18.694L14.216,18.663L14.975,18.516L15.707,18.255L16.387,17.884L17.002,17.413L17.541,16.855L17.986,16.223L18.329,15.528L18.564,14.788L18.683,14.023L18.683,13.246L18.564,12.481L18.329,11.741L17.986,11.047L17.541,10.414L17.002,9.856L16.387,9.386L15.707,9.014L14.975,8.753L14.216,8.606L13.442,8.575L12.671,8.666L11.923,8.87L11.217,9.187L10.565,9.609L9.986,10.125L9.493,10.723L9.099,11.39L8.807,12.107L8.663,12.728L8.631,12.861L8.572,13.635L8.631,14.409L8.807,15.163L9.099,15.88L9.493,16.546L9.986,17.144L10.565,17.66L11.217,18.082M18.602,244.942L18.683,244.423L18.683,243.646L18.564,242.881L18.329,242.141L17.986,241.447L17.541,240.814L17.002,240.256L16.387,239.786L15.707,239.414L14.975,239.153L14.216,239.006L13.442,238.975L12.671,239.066L11.923,239.27L11.217,239.587L10.565,240.009L9.986,240.525L9.493,241.123L9.099,241.79L8.807,242.507L8.631,243.261L8.572,244.035L8.631,244.809L8.663,244.942L8.807,245.563L9.099,246.28L9.493,246.946L9.986,247.544L10.565,248.06L11.217,248.482L11.923,248.8L12.671,249.004L13.442,249.094L14.216,249.063L14.975,248.916L15.707,248.655L16.387,248.284L17.002,247.813L17.541,247.255L17.986,246.623L18.329,245.928L18.564,245.188L18.602,244.942M174.787,9.386L174.11,9.016L174.107,9.014L173.375,8.753L172.616,8.606L171.842,8.575L171.071,8.666L170.323,8.87L169.617,9.187L168.965,9.609L168.386,10.125L167.893,10.723L167.499,11.39L167.207,12.107L167.031,12.861L166.972,13.635L167.031,14.409L167.207,15.163L167.499,15.88L167.893,16.546L168.386,17.144L168.965,17.66L169.617,18.082L170.323,18.4L171.071,18.604L171.842,18.694L172.616,18.663L173.375,18.516L174.107,18.255L174.11,18.254L174.787,17.884L175.402,17.413L175.941,16.855L176.386,16.223L176.729,15.528L176.964,14.788L177.083,14.023L177.083,13.246L176.964,12.481L176.729,11.741L176.386,11.047L175.941,10.414L175.402,9.856L174.787,9.386M167.031,244.809L167.207,245.563L167.499,246.28L167.893,246.946L168.386,247.544L168.965,248.06L169.617,248.482L170.323,248.8L171.071,249.004L171.842,249.094L172.616,249.063L173.375,248.916L174.107,248.655L174.11,248.654L174.787,248.284L175.402,247.813L175.941,247.255L176.386,246.623L176.729,245.928L176.964,245.188L177.083,244.423L177.083,243.646L176.964,242.881L176.729,242.141L176.386,241.447L175.941,240.814L175.402,240.256L174.787,239.786L174.11,239.416L174.107,239.414L173.375,239.153L172.616,239.006L171.842,238.975L171.071,239.066L170.323,239.27L169.617,239.587L168.965,240.009L168.386,240.525L167.893,241.123L167.499,241.79L167.207,242.507L167.031,243.261L166.972,244.035L167.031,244.809Z" style="fill:none;fill-rule:nonzero;stroke:rgb(13,40,242);stroke-width:0.95px;"/>
        <g transform="matrix(1,0,0,1,-914.46,-49.667)">
            <g transform="matrix(10,0,0,10,965.41,119.71)">
                <path d="M0.073,-0L0.073,-0.716L0.342,-0.716C0.396,-0.716 0.44,-0.709 0.473,-0.694C0.506,-0.68 0.532,-0.657 0.551,-0.627C0.57,-0.597 0.579,-0.566 0.579,-0.533C0.579,-0.502 0.571,-0.473 0.554,-0.446C0.538,-0.419 0.513,-0.397 0.479,-0.381C0.522,-0.368 0.556,-0.347 0.579,-0.316C0.602,-0.285 0.614,-0.249 0.614,-0.208C0.614,-0.174 0.607,-0.143 0.593,-0.114C0.578,-0.085 0.561,-0.063 0.54,-0.047C0.519,-0.032 0.493,-0.02 0.462,-0.012C0.43,-0.004 0.392,-0 0.346,-0L0.073,-0ZM0.168,-0.415L0.323,-0.415C0.365,-0.415 0.395,-0.418 0.413,-0.423C0.437,-0.431 0.455,-0.442 0.468,-0.459C0.48,-0.476 0.486,-0.496 0.486,-0.521C0.486,-0.545 0.48,-0.566 0.469,-0.584C0.457,-0.602 0.441,-0.615 0.42,-0.621C0.399,-0.628 0.362,-0.631 0.311,-0.631L0.168,-0.631L0.168,-0.415ZM0.168,-0.084L0.346,-0.084C0.377,-0.084 0.398,-0.086 0.411,-0.088C0.432,-0.092 0.451,-0.098 0.465,-0.107C0.48,-0.117 0.492,-0.13 0.501,-0.147C0.511,-0.165 0.516,-0.185 0.516,-0.208C0.516,-0.234 0.509,-0.257 0.495,-0.277C0.481,-0.297 0.462,-0.311 0.438,-0.319C0.414,-0.327 0.379,-0.331 0.333,-0.331L0.168,-0.331L0.168,-0.084Z" style="fill-rule:nonzero;"/>
            </g>
            <g transform="matrix(10,0,0,10,965.134,130.037)">
                <path d="M0.079,-0L0.079,-0.716L0.396,-0.716C0.46,-0.716 0.508,-0.709 0.542,-0.697C0.575,-0.684 0.601,-0.661 0.621,-0.628C0.641,-0.596 0.651,-0.56 0.651,-0.521C0.651,-0.47 0.634,-0.427 0.602,-0.392C0.569,-0.357 0.518,-0.335 0.449,-0.326C0.474,-0.314 0.493,-0.302 0.506,-0.29C0.534,-0.265 0.56,-0.233 0.585,-0.195L0.709,-0L0.59,-0L0.496,-0.149C0.468,-0.192 0.445,-0.225 0.427,-0.248C0.409,-0.27 0.393,-0.286 0.379,-0.295C0.365,-0.305 0.351,-0.311 0.336,-0.314C0.325,-0.317 0.308,-0.318 0.283,-0.318L0.173,-0.318L0.173,-0L0.079,-0ZM0.173,-0.4L0.377,-0.4C0.42,-0.4 0.454,-0.404 0.479,-0.413C0.503,-0.422 0.521,-0.437 0.534,-0.456C0.547,-0.476 0.553,-0.497 0.553,-0.521C0.553,-0.554 0.541,-0.582 0.516,-0.604C0.492,-0.626 0.453,-0.637 0.4,-0.637L0.173,-0.637L0.173,-0.4Z" style="fill-rule:nonzero;"/>
            </g>
            <g transform="matrix(10,0,0,10,965.691,140.364)">
                <path d="M0.259,-0L0.259,-0.631L0.023,-0.631L0.023,-0.716L0.591,-0.716L0.591,-0.631L0.354,-0.631L0.354,-0L0.259,-0Z" style="fill-rule:nonzero;"/>
            </g>
        </g>
        <g transform="matrix(1,0,0,1,-875.29,-88.4163)">
            <g transform="matrix(16,0,0,16,901.317,125.906)">
                <path d="M0.412,-0.281L0.412,-0.365L0.715,-0.365L0.715,-0.1C0.669,-0.063 0.621,-0.035 0.571,-0.016C0.522,0.003 0.471,0.012 0.419,0.012C0.349,0.012 0.285,-0.003 0.227,-0.033C0.17,-0.063 0.126,-0.107 0.097,-0.164C0.068,-0.221 0.053,-0.284 0.053,-0.354C0.053,-0.424 0.068,-0.489 0.097,-0.55C0.126,-0.61 0.168,-0.655 0.223,-0.684C0.277,-0.713 0.34,-0.728 0.412,-0.728C0.463,-0.728 0.51,-0.72 0.552,-0.703C0.594,-0.686 0.627,-0.663 0.65,-0.633C0.674,-0.603 0.692,-0.564 0.705,-0.516L0.619,-0.492C0.608,-0.529 0.595,-0.557 0.579,-0.578C0.563,-0.599 0.54,-0.616 0.511,-0.628C0.481,-0.641 0.448,-0.647 0.412,-0.647C0.369,-0.647 0.331,-0.64 0.3,-0.627C0.268,-0.614 0.243,-0.597 0.223,-0.575C0.204,-0.554 0.189,-0.53 0.178,-0.504C0.16,-0.46 0.151,-0.412 0.151,-0.36C0.151,-0.297 0.162,-0.243 0.184,-0.2C0.206,-0.157 0.238,-0.125 0.28,-0.104C0.322,-0.084 0.366,-0.073 0.414,-0.073C0.455,-0.073 0.495,-0.081 0.534,-0.097C0.573,-0.113 0.602,-0.13 0.623,-0.147L0.623,-0.281L0.412,-0.281Z" style="fill-rule:nonzero;"/>
            </g>
            <g transform="matrix(16,0,0,16,913.762,125.906)">
                <path d="M0.073,-0L0.073,-0.716L0.168,-0.716L0.168,-0.084L0.521,-0.084L0.521,-0L0.073,-0Z" style="fill-rule:nonzero;"/>
            </g>
            <g transform="matrix(16,0,0,16,922.661,125.906)">
                <path d="M-0.001,-0L0.273,-0.716L0.375,-0.716L0.668,-0L0.561,-0L0.477,-0.217L0.178,-0.217L0.099,-0L-0.001,-0ZM0.205,-0.294L0.448,-0.294L0.373,-0.492C0.35,-0.552 0.333,-0.602 0.322,-0.641C0.313,-0.595 0.3,-0.549 0.284,-0.504L0.205,-0.294Z" style="fill-rule:nonzero;"/>
            </g>
            <g transform="matrix(16,0,0,16,933.333,125.906)">
                <path d="M0.079,-0L0.079,-0.716L0.396,-0.716C0.46,-0.716 0.508,-0.709 0.542,-0.697C0.575,-0.684 0.601,-0.661 0.621,-0.628C0.641,-0.596 0.651,-0.56 0.651,-0.521C0.651,-0.47 0.634,-0.427 0.602,-0.392C0.569,-0.357 0.518,-0.335 0.449,-0.326C0.474,-0.314 0.493,-0.302 0.506,-0.29C0.534,-0.265 0.56,-0.233 0.585,-0.195L0.709,-0L0.59,-0L0.496,-0.149C0.468,-0.192 0.445,-0.225 0.427,-0.248C0.409,-0.27 0.393,-0.286 0.379,-0.295C0.365,-0.305 0.351,-0.311 0.336,-0.314C0.325,-0.317 0.308,-0.318 0.283,-0.318L0.173,-0.318L0.173,-0L0.079,-0ZM0.173,-0.4L0.377,-0.4C0.42,-0.4 0.454,-0.404 0.479,-0.413C0.503,-0.422 0.521,-0.437 0.534,-0.456C0.547,-0.476 0.553,-0.497 0.553,-0.521C0.553,-0.554 0.541,-0.582 0.516,-0.604C0.492,-0.626 0.453,-0.637 0.4,-0.637L0.173,-0.637L0.173,-0.4Z" style="fill-rule:nonzero;"/>
            </g>
            <g transform="matrix(16,0,0,16,944.887,125.906)">
                <path d="M0.079,-0L0.079,-0.716L0.597,-0.716L0.597,-0.631L0.174,-0.631L0.174,-0.412L0.57,-0.412L0.57,-0.328L0.174,-0.328L0.174,-0.084L0.613,-0.084L0.613,-0L0.079,-0Z" style="fill-rule:nonzero;"/>
            </g>
            <g transform="matrix(16,0,0,16,955.559,125.906)">
                <path d="M0.045,-0.23L0.134,-0.238C0.139,-0.202 0.148,-0.173 0.164,-0.15C0.179,-0.127 0.203,-0.108 0.236,-0.094C0.268,-0.08 0.305,-0.073 0.346,-0.073C0.382,-0.073 0.414,-0.078 0.441,-0.089C0.469,-0.1 0.49,-0.114 0.503,-0.133C0.517,-0.152 0.523,-0.172 0.523,-0.194C0.523,-0.217 0.517,-0.236 0.504,-0.253C0.491,-0.27 0.469,-0.284 0.439,-0.295C0.42,-0.303 0.378,-0.315 0.312,-0.33C0.246,-0.346 0.2,-0.361 0.174,-0.375C0.14,-0.393 0.114,-0.415 0.097,-0.442C0.081,-0.468 0.072,-0.498 0.072,-0.531C0.072,-0.567 0.083,-0.601 0.103,-0.632C0.124,-0.663 0.153,-0.687 0.193,-0.704C0.232,-0.72 0.276,-0.728 0.324,-0.728C0.377,-0.728 0.424,-0.719 0.465,-0.702C0.505,-0.685 0.536,-0.66 0.558,-0.627C0.58,-0.594 0.592,-0.556 0.593,-0.514L0.502,-0.507C0.498,-0.553 0.481,-0.587 0.453,-0.61C0.425,-0.633 0.383,-0.645 0.328,-0.645C0.271,-0.645 0.229,-0.634 0.203,-0.613C0.177,-0.592 0.164,-0.567 0.164,-0.537C0.164,-0.511 0.173,-0.49 0.191,-0.474C0.21,-0.457 0.257,-0.44 0.334,-0.423C0.411,-0.405 0.464,-0.39 0.493,-0.377C0.534,-0.358 0.565,-0.333 0.585,-0.304C0.605,-0.274 0.615,-0.241 0.615,-0.202C0.615,-0.164 0.604,-0.128 0.582,-0.094C0.56,-0.061 0.529,-0.035 0.488,-0.016C0.447,0.003 0.401,0.012 0.35,0.012C0.285,0.012 0.231,0.003 0.187,-0.016C0.143,-0.035 0.109,-0.063 0.084,-0.101C0.059,-0.139 0.046,-0.182 0.045,-0.23Z" style="fill-rule:nonzero;"/>
            </g>
            <g transform="matrix(16,0,0,16,966.231,125.906)">
                <path d="M0.08,-0L0.08,-0.716L0.175,-0.716L0.175,-0.422L0.547,-0.422L0.547,-0.716L0.642,-0.716L0.642,-0L0.547,-0L0.547,-0.337L0.175,-0.337L0.175,-0L0.08,-0Z" style="fill-rule:nonzero;"/>
            </g>
            <g transform="matrix(16,0,0,16,977.786,125.906)">
                <rect x="0.093" y="-0.716" width="0.095" height="0.716" style="fill-rule:nonzero;"/>
            </g>
            <g transform="matrix(16,0,0,16,982.231,125.906)">
                <path d="M0.079,-0L0.079,-0.716L0.597,-0.716L0.597,-0.631L0.174,-0.631L0.174,-0.412L0.57,-0.412L0.57,-0.328L0.174,-0.328L0.174,-0.084L0.613,-0.084L0.613,-0L0.079,-0Z" style="fill-rule:nonzero;"/>
            </g>
            <g transform="matrix(16,0,0,16,992.903,125.906)">
                <path d="M0.073,-0L0.073,-0.716L0.168,-0.716L0.168,-0.084L0.521,-0.084L0.521,-0L0.073,-0Z" style="fill-rule:nonzero;"/>
            </g>
            <g transform="matrix(16,0,0,16,1001.8,125.906)">
                <path d="M0.077,-0L0.077,-0.716L0.324,-0.716C0.379,-0.716 0.422,-0.712 0.451,-0.706C0.492,-0.696 0.527,-0.679 0.556,-0.654C0.594,-0.622 0.622,-0.582 0.641,-0.532C0.66,-0.482 0.669,-0.426 0.669,-0.362C0.669,-0.307 0.663,-0.259 0.65,-0.217C0.637,-0.175 0.621,-0.141 0.601,-0.113C0.581,-0.086 0.559,-0.064 0.536,-0.048C0.512,-0.032 0.484,-0.02 0.45,-0.012C0.417,-0.004 0.379,-0 0.335,-0L0.077,-0ZM0.172,-0.084L0.325,-0.084C0.372,-0.084 0.409,-0.089 0.436,-0.098C0.463,-0.106 0.484,-0.119 0.5,-0.135C0.522,-0.157 0.54,-0.187 0.552,-0.225C0.565,-0.263 0.571,-0.309 0.571,-0.363C0.571,-0.438 0.559,-0.496 0.534,-0.536C0.51,-0.576 0.48,-0.603 0.445,-0.617C0.419,-0.626 0.379,-0.631 0.322,-0.631L0.172,-0.631L0.172,-0.084Z" style="fill-rule:nonzero;"/>
            </g>
            <g transform="matrix(16,0,0,16,1017.8,125.906)">
                <path d="M0.073,-0L0.073,-0.716L0.168,-0.716L0.168,-0.084L0.521,-0.084L0.521,-0L0.073,-0Z" style="fill-rule:nonzero;"/>
            </g>
            <g transform="matrix(16,0,0,16,1025.51,125.906)">
                <path d="M0.259,-0L0.259,-0.631L0.023,-0.631L0.023,-0.716L0.591,-0.716L0.591,-0.631L0.354,-0.631L0.354,-0L0.259,-0Z" style="fill-rule:nonzero;"/>
            </g>
        </g>
        <g transform="matrix(1,0,0,1,-875.608,19.1814)">
            <g transform="matrix(16,0,0,16,932.887,125.906)">
                <path d="M0.588,-0.251L0.683,-0.227C0.663,-0.149 0.627,-0.09 0.575,-0.049C0.524,-0.008 0.461,0.012 0.386,0.012C0.309,0.012 0.246,-0.003 0.198,-0.035C0.15,-0.066 0.113,-0.112 0.088,-0.171C0.062,-0.231 0.05,-0.295 0.05,-0.363C0.05,-0.438 0.064,-0.503 0.093,-0.558C0.121,-0.614 0.162,-0.656 0.214,-0.685C0.267,-0.714 0.325,-0.728 0.388,-0.728C0.459,-0.728 0.52,-0.71 0.568,-0.673C0.617,-0.637 0.651,-0.586 0.67,-0.52L0.577,-0.498C0.561,-0.55 0.536,-0.588 0.505,-0.611C0.473,-0.635 0.434,-0.647 0.386,-0.647C0.331,-0.647 0.285,-0.634 0.248,-0.607C0.211,-0.581 0.185,-0.546 0.17,-0.501C0.155,-0.457 0.147,-0.411 0.147,-0.364C0.147,-0.303 0.156,-0.25 0.174,-0.204C0.192,-0.159 0.219,-0.125 0.257,-0.103C0.294,-0.08 0.335,-0.069 0.378,-0.069C0.431,-0.069 0.476,-0.084 0.513,-0.115C0.55,-0.145 0.575,-0.191 0.588,-0.251Z" style="fill-rule:nonzero;"/>
            </g>
            <g transform="matrix(16,0,0,16,944.442,125.906)">
                <path d="M-0.001,-0L0.273,-0.716L0.375,-0.716L0.668,-0L0.561,-0L0.477,-0.217L0.178,-0.217L0.099,-0L-0.001,-0ZM0.205,-0.294L0.448,-0.294L0.373,-0.492C0.35,-0.552 0.333,-0.602 0.322,-0.641C0.313,-0.595 0.3,-0.549 0.284,-0.504L0.205,-0.294Z" style="fill-rule:nonzero;"/>
            </g>
            <g transform="matrix(16,0,0,16,955.114,125.906)">
                <path d="M0.073,-0L0.073,-0.716L0.342,-0.716C0.396,-0.716 0.44,-0.709 0.473,-0.694C0.506,-0.68 0.532,-0.657 0.551,-0.627C0.57,-0.597 0.579,-0.566 0.579,-0.533C0.579,-0.502 0.571,-0.473 0.554,-0.446C0.538,-0.419 0.513,-0.397 0.479,-0.381C0.522,-0.368 0.556,-0.347 0.579,-0.316C0.602,-0.285 0.614,-0.249 0.614,-0.208C0.614,-0.174 0.607,-0.143 0.593,-0.114C0.578,-0.085 0.561,-0.063 0.54,-0.047C0.519,-0.032 0.493,-0.02 0.462,-0.012C0.43,-0.004 0.392,-0 0.346,-0L0.073,-0ZM0.168,-0.415L0.323,-0.415C0.365,-0.415 0.395,-0.418 0.413,-0.423C0.437,-0.431 0.455,-0.442 0.468,-0.459C0.48,-0.476 0.486,-0.496 0.486,-0.521C0.486,-0.545 0.48,-0.566 0.469,-0.584C0.457,-0.602 0.441,-0.615 0.42,-0.621C0.399,-0.628 0.362,-0.631 0.311,-0.631L0.168,-0.631L0.168,-0.415ZM0.168,-0.084L0.346,-0.084C0.377,-0.084 0.398,-0.086 0.411,-0.088C0.432,-0.092 0.451,-0.098 0.465,-0.107C0.48,-0.117 0.492,-0.13 0.501,-0.147C0.511,-0.165 0.516,-0.185 0.516,-0.208C0.516,-0.234 0.509,-0.257 0.495,-0.277C0.481,-0.297 0.462,-0.311 0.438,-0.319C0.414,-0.327 0.379,-0.331 0.333,-0.331L0.168,-0.331L0.168,-0.084Z" style="fill-rule:nonzero;"/>
            </g>
            <g transform="matrix(16,0,0,16,965.786,125.906)">
                <rect x="0.093" y="-0.716" width="0.095" height="0.716" style="fill-rule:nonzero;"/>
            </g>
            <g transform="matrix(16,0,0,16,970.231,125.906)">
                <path d="M0.076,-0L0.076,-0.716L0.173,-0.716L0.549,-0.154L0.549,-0.716L0.64,-0.716L0.64,-0L0.543,-0L0.167,-0.563L0.167,-0L0.076,-0Z" style="fill-rule:nonzero;"/>
            </g>
            <g transform="matrix(16,0,0,16,986.231,125.906)">
                <path d="M0.073,-0L0.073,-0.716L0.168,-0.716L0.168,-0.084L0.521,-0.084L0.521,-0L0.073,-0Z" style="fill-rule:nonzero;"/>
            </g>
            <g transform="matrix(16,0,0,16,993.942,125.906)">
                <path d="M0.259,-0L0.259,-0.631L0.023,-0.631L0.023,-0.716L0.591,-0.716L0.591,-0.631L0.354,-0.631L0.354,-0L0.259,-0Z" style="fill-rule:nonzero;"/>
            </g>
        </g>
        <g transform="matrix(1.62322,0,0,1,13.4255,-58.1248)">
            <g transform="matrix(0.462045,-0,-0,0.75,-8.27089,58.1248)">
                <path d="M77.099,65.663L81.291,64.973L79.329,68.741L77.099,65.663Z"/>
                <path d="M72.131,77.237C72.131,77.237 72.109,72.162 78.829,66.756" style="fill:none;stroke:black;stroke-width:1.27px;stroke-linecap:round;stroke-linejoin:round;stroke-miterlimit:1.5;"/>
            </g>
        </g>
        <g transform="matrix(1.62322,0,0,-1,13.8329,210.728)">
            <path d="M25.057,116.053C25.057,116.053 25.045,111.366 29.289,106.854" style="fill:none;stroke:black;stroke-width:0.7px;stroke-linecap:round;stroke-linejoin:round;stroke-miterlimit:1.5;"/>
        </g>
        <g transform="matrix(1,0,0,1,-911.821,55.808)">
            <g transform="matrix(10,0,0,10,965.41,119.71)">
                <path d="M0.073,-0L0.073,-0.716L0.342,-0.716C0.396,-0.716 0.44,-0.709 0.473,-0.694C0.506,-0.68 0.532,-0.657 0.551,-0.627C0.57,-0.597 0.579,-0.566 0.579,-0.533C0.579,-0.502 0.571,-0.473 0.554,-0.446C0.538,-0.419 0.513,-0.397 0.479,-0.381C0.522,-0.368 0.556,-0.347 0.579,-0.316C0.602,-0.285 0.614,-0.249 0.614,-0.208C0.614,-0.174 0.607,-0.143 0.593,-0.114C0.578,-0.085 0.561,-0.063 0.54,-0.047C0.519,-0.032 0.493,-0.02 0.462,-0.012C0.43,-0.004 0.392,-0 0.346,-0L0.073,-0ZM0.168,-0.415L0.323,-0.415C0.365,-0.415 0.395,-0.418 0.413,-0.423C0.437,-0.431 0.455,-0.442 0.468,-0.459C0.48,-0.476 0.486,-0.496 0.486,-0.521C0.486,-0.545 0.48,-0.566 0.469,-0.584C0.457,-0.602 0.441,-0.615 0.42,-0.621C0.399,-0.628 0.362,-0.631 0.311,-0.631L0.168,-0.631L0.168,-0.415ZM0.168,-0.084L0.346,-0.084C0.377,-0.084 0.398,-0.086 0.411,-0.088C0.432,-0.092 0.451,-0.098 0.465,-0.107C0.48,-0.117 0.492,-0.13 0.501,-0.147C0.511,-0.165 0.516,-0.185 0.516,-0.208C0.516,-0.234 0.509,-0.257 0.495,-0.277C0.481,-0.297 0.462,-0.311 0.438,-0.319C0.414,-0.327 0.379,-0.331 0.333,-0.331L0.168,-0.331L0.168,-0.084Z" style="fill-rule:nonzero;"/>
            </g>
            <g transform="matrix(10,0,0,10,965.134,130.037)">
                <path d="M0.079,-0L0.079,-0.716L0.396,-0.716C0.46,-0.716 0.508,-0.709 0.542,-0.697C0.575,-0.684 0.601,-0.661 0.621,-0.628C0.641,-0.596 0.651,-0.56 0.651,-0.521C0.651,-0.47 0.634,-0.427 0.602,-0.392C0.569,-0.357 0.518,-0.335 0.449,-0.326C0.474,-0.314 0.493,-0.302 0.506,-0.29C0.534,-0.265 0.56,-0.233 0.585,-0.195L0.709,-0L0.59,-0L0.496,-0.149C0.468,-0.192 0.445,-0.225 0.427,-0.248C0.409,-0.27 0.393,-0.286 0.379,-0.295C0.365,-0.305 0.351,-0.311 0.336,-0.314C0.325,-0.317 0.308,-0.318 0.283,-0.318L0.173,-0.318L0.173,-0L0.079,-0ZM0.173,-0.4L0.377,-0.4C0.42,-0.4 0.454,-0.404 0.479,-0.413C0.503,-0.422 0.521,-0.437 0.534,-0.456C0.547,-0.476 0.553,-0.497 0.553,-0.521C0.553,-0.554 0.541,-0.582 0.516,-0.604C0.492,-0.626 0.453,-0.637 0.4,-0.637L0.173,-0.637L0.173,-0.4Z" style="fill-rule:nonzero;"/>
            </g>
            <g transform="matrix(10,0,0,10,965.691,140.364)">
                <path d="M0.259,-0L0.259,-0.631L0.023,-0.631L0.023,-0.716L0.591,-0.716L0.591,-0.631L0.354,-0.631L0.354,-0L0.259,-0Z" style="fill-rule:nonzero;"/>
            </g>
        </g>
        <g transform="matrix(1.62322,0,0,1,16.0645,47.3502)">
            <g transform="matrix(0.462045,-0,-0,0.75,-9.89671,-47.3502)">
                <path d="M80.618,206.297L84.81,205.606L82.847,209.374L80.618,206.297Z"/>
                <path d="M75.65,217.871C75.65,217.871 75.628,212.795 82.348,207.389" style="fill:none;stroke:black;stroke-width:1.27px;stroke-linecap:round;stroke-linejoin:round;stroke-miterlimit:1.5;"/>
            </g>
        </g>
        <g transform="matrix(1.62322,0,0,-1,16.472,316.203)">
            <path d="M25.057,116.053C25.057,116.053 25.045,111.366 29.289,106.854" style="fill:none;stroke:black;stroke-width:0.7px;stroke-linecap:round;stroke-linejoin:round;stroke-miterlimit:1.5;"/>
        </g>
    </g>
</svg>
