<?xml version="1.0" standalone="no"?>
<!DOCTYPE svg PUBLIC "-//W3C//DTD SVG 1.1//EN"
  "http://www.w3.org/Graphics/SVG/1.1/DTD/svg11.dtd">
<svg width="167.17916107177734mm" height="344.8999938964844mm" viewBox="-83.58916473388672 -172.4499969482422 167.17916107177734 344.8999938964844" xmlns="http://www.w3.org/2000/svg" version="1.1">
	<title>svgOutput</title>
	<desc>made with tinkercad</desc>
<path d="M -79.56116485595703 -76.51716613769531 L -78.5876693725586 -79.88408660888672 L -78.51300048828125 -80.14099884033203 L -77.95408630371094 -81.91999816894531 L -77.71499633789062 -82.68099975585938 L -76.87799835205078 -85.11799621582031 L -74.8479995727539 -89.70600128173828 L -74.6391830444336 -90.11199951171875 L -73.61000061035156 -92.11299896240234 L -72.20999908447266 -94.58399963378906 L -72.07758331298828 -94.78516387939453 L -70.22591400146484 -97.57733154296875 L -70.07875061035156 -97.79100036621094 L -69.72160339355469 -98.30400085449219 L -68.42141723632812 -100.17158508300781 L -68.26091766357422 -100.39458465576172 L -66.92900085449219 -102.23799896240234 L -65.53600311279297 -104.06673431396484 L -64.86699676513672 -104.94499969482422 L -62.582000732421875 -107.61000061035156 L -60.11800003051758 -110.28700256347656 L -57.47800064086914 -112.96600341796875 L -54.665000915527344 -115.63999938964844 L -53.17499923706055 -116.97000122070312 L -50.95199966430664 -118.83999633789062 L -48.61000061035156 -120.73899841308594 L -46.167999267578125 -122.65499877929688 L -43.65399932861328 -124.56999969482422 L -41.09600067138672 -126.46199798583984 L -38.52299880981445 -128.30999755859375 L -35.95800018310547 -130.09300231933594 L -34.498985290527344 -131.07200622558594 L -33.41999816894531 -131.79600524902344 L -30.6560001373291 -133.53900146484375 L -26.70199966430664 -135.89999389648438 L -22.64299964904785 -138.1959991455078 L -14.244000434875488 -142.58200073242188 L -5.5329999923706055 -146.67599487304688 L 0 -149.01974487304688 L 3.4189999103546143 -150.46800231933594 L 12.538000106811523 -153.95599365234375 L 21.756000518798828 -157.13900756835938 L 31.003999710083008 -160.02699279785156 L 31.26099967956543 -160.09767150878906 L 31.664417266845703 -160.2062530517578 L 37.4183349609375 -161.7755889892578 L 41.93971252441406 -162.97193908691406 L 43.539833068847656 -163.3953399658203 L 43.95899963378906 -163.50599670410156 L 50.887001037597656 -165.27499389648438 L 57.840999603271484 -166.9600067138672 L 61.25899887084961 -167.74099731445312 L 64.60600280761719 -168.46800231933594 L 65.53600311279297 -168.65821838378906 L 67.86699676513672 -169.13499450683594 L 71.02999877929688 -169.73800659179688 L 73.72799682617188 -170.20913696289062 L 74.08799743652344 -170.27200317382812 L 77.03500366210938 -170.73599243164062 L 77.8239974975586 -170.8454132080078 L 78.3421630859375 -170.91726684570312 L 79.43647003173828 -171.0690155029297 L 79.86900329589844 -171.12899780273438 L 80.70681762695312 -171.22784423828125 L 81.91999816894531 -171.37095642089844 L 82.58999633789062 -171.4499969482422 L 82.58999633789062 -163.83999633789062 L 82.58999633789062 -163.030029296875 L 82.58999633789062 -162.0053253173828 L 82.58999633789062 -160.85809326171875 L 82.58999633789062 -159.55079650878906 L 82.58999633789062 -157.93016052246094 L 82.58999633789062 -155.75901794433594 L 82.58999633789062 -152.46859741210938 L 82.58999633789062 -146.9290008544922 L 82.58999633789062 -131.07200622558594 L 82.58999633789062 -65.53600311279297 L 82.58999633789062 1.1102230246251565e-16 L 82.58999633789062 65.53600311279297 L 82.58999633789062 131.07200622558594 L 82.58999633789062 163.83999633789062 L 82.58999633789062 171.4499969482422 L 81.91999816894531 171.4499969482422 L 73.72799682617188 171.4499969482422 L 69.63200378417969 171.4499969482422 L 65.53600311279297 171.4499969482422 L 0 171.4499969482422 L -65.53600311279297 171.4499969482422 L -73.72799682617188 171.4499969482422 L -77.8239974975586 171.4499969482422 L -81.91999816894531 171.4499969482422 L -82.50900268554688 171.4499969482422 L -82.50900268554688 163.83999633789062 L -82.50900268554688 163.78842163085938 L -82.50900268554688 162.7449493408203 L -82.50900268554688 161.59535217285156 L -82.50900268554688 160.24839782714844 L -82.50900268554688 158.5799560546875 L -82.50900268554688 131.07200622558594 L -82.50900268554688 65.53600311279297 L -82.50900268554688 1.1102230246251565e-16 L -82.50900268554688 -56.5816650390625 L -82.50900268554688 -57.150001525878906 L -82.55999755859375 -57.64699935913086 L -82.56224822998047 -57.694000244140625 L -82.5616683959961 -57.7755012512207 L -82.58916473388672 -58.87091827392578 L -82.5792465209961 -59.029998779296875 L -82.52058410644531 -60.35733413696289 L -82.46099853515625 -61.097999572753906 L -82.43476867675781 -61.3477783203125 L -82.27899932861328 -62.83100128173828 L -81.95358276367188 -65.25375366210938 L -81.91500091552734 -65.53600311279297 L -81.91374969482422 -65.545166015625 L -81.63600158691406 -67.38858032226562 L -81.59716796875 -67.62633514404297 L -81.3863296508789 -68.88583374023438 L -81.36042022705078 -69.01616668701172 L -81.08816528320312 -70.44891357421875 L -81.06908416748047 -70.5338363647461 L -80.9839096069336 -70.90961456298828 L -80.7106704711914 -72.11508178710938 L -80.68133544921875 -72.23408508300781 L -80.40174865722656 -73.36616516113281 L -79.64733123779297 -76.19499969482422 L -79.60033416748047 -76.37533569335938 L -79.56842803955078 -76.49088287353516 L -79.56116485595703 -76.51716613769531 M 9.173999786376953 81.79299926757812 L 9.0830717086792 81.91999816894531 L 7.959000110626221 83.48999786376953 L 6.872000217437744 85.27200317382812 L 5.916999816894531 87.12799835205078 L 5.10099983215332 89.04900360107422 L 4.427000045776367 91.0250015258789 L 3.8989999294281006 93.04399871826172 L 3.5199999809265137 95.09700012207031 L 3.2920000553131104 97.1709976196289 L 3.250720977783203 98.30400085449219 L 3.2160000801086426 99.25700378417969 L 3.2920000553131104 101.34300231933594 L 3.5199999809265137 103.41799926757812 L 3.8989999294281006 105.47000122070312 L 4.427000045776367 107.48999786376953 L 5.10099983215332 109.46499633789062 L 5.916999816894531 111.38600158691406 L 6.872000217437744 113.24199676513672 L 7.7540435791015625 114.68800354003906 L 7.959000110626221 115.02400207519531 L 8.192000389099121 115.34943389892578 L 9.173999786376953 116.72100067138672 L 10.508999824523926 118.32599639892578 L 10.950533866882324 118.78399658203125 L 11.956999778747559 119.8280029296875 L 13.51200008392334 121.22100067138672 L 15.163999557495117 122.49700164794922 L 15.74282169342041 122.87999725341797 L 16.384000778198242 123.30426025390625 L 16.905000686645508 123.64900207519531 L 18.725000381469727 124.66999816894531 L 20.614999771118164 125.55599975585938 L 22.56399917602539 126.302001953125 L 24.562999725341797 126.90299987792969 L 26.600000381469727 127.35700225830078 L 28.665000915527344 127.66100311279297 L 30.746999740600586 127.81300354003906 L 32.768001556396484 127.81300354003906 L 32.83399963378906 127.81300354003906 L 34.91600036621094 127.66100311279297 L 36.98099899291992 127.35700225830078 L 39.018001556396484 126.90299987792969 L 41.016998291015625 126.302001953125 L 42.965999603271484 125.55599975585938 L 44.85599899291992 124.66999816894531 L 46.67599868774414 123.64900207519531 L 48.41699981689453 122.49700164794922 L 49.152000427246094 121.92929077148438 L 50.069000244140625 121.22100067138672 L 51.62300109863281 119.8280029296875 L 52.63016128540039 118.78399658203125 L 53.071998596191406 118.32599639892578 L 54.40700149536133 116.72100067138672 L 55.62200164794922 115.02400207519531 L 55.82695770263672 114.68800354003906 L 56.70899963378906 113.24199676513672 L 57.66299819946289 111.38600158691406 L 58.47999954223633 109.46499633789062 L 59.15399932861328 107.48999786376953 L 59.68199920654297 105.47000122070312 L 60.06100082397461 103.41799926757812 L 60.28900146484375 101.34300231933594 L 60.3650016784668 99.25700378417969 L 60.33028030395508 98.30400085449219 L 60.28900146484375 97.1709976196289 L 60.06100082397461 95.09700012207031 L 59.68199920654297 93.04399871826172 L 59.15399932861328 91.0250015258789 L 58.47999954223633 89.04900360107422 L 57.66299819946289 87.12799835205078 L 56.70899963378906 85.27200317382812 L 55.62200164794922 83.48999786376953 L 54.497928619384766 81.91999816894531 L 54.40700149536133 81.79299926757812 L 53.579071044921875 80.7982406616211 L 53.071998596191406 80.18900299072266 L 51.62300109863281 78.68599700927734 L 50.661373138427734 77.8239974975586 L 50.069000244140625 77.29299926757812 L 49.152000427246094 76.58470916748047 L 48.41699981689453 76.01699829101562 L 46.67599868774414 74.86599731445312 L 44.85599899291992 73.84400177001953 L 42.965999603271484 72.95800018310547 L 41.016998291015625 72.21299743652344 L 39.018001556396484 71.61100006103516 L 36.98099899291992 71.15799713134766 L 34.91600036621094 70.85399627685547 L 32.83399963378906 70.70099639892578 L 32.768001556396484 70.70099639892578 L 30.746999740600586 70.70099639892578 L 28.665000915527344 70.85399627685547 L 26.600000381469727 71.15799713134766 L 24.562999725341797 71.61100006103516 L 22.56399917602539 72.21299743652344 L 20.614999771118164 72.95800018310547 L 18.725000381469727 73.84400177001953 L 16.905000686645508 74.86599731445312 L 16.384000778198242 75.21044158935547 L 15.163999557495117 76.01699829101562 L 13.51200008392334 77.29299926757812 L 12.919246673583984 77.8239974975586 L 12.145186424255371 78.51741790771484 L 11.956999778747559 78.68599700927734 L 10.508999824523926 80.18900299072266 L 9.173999786376953 81.79299926757812 M 10.258000373840332 78.11599731445312 L 10.55074691772461 77.8239974975586 L 10.649999618530273 77.7249984741211 L 10.967000007629395 77.27200317382812 L 11.201000213623047 76.7699966430664 L 11.343999862670898 76.23500061035156 L 11.392000198364258 75.68399810791016 L 11.343999862670898 75.13300323486328 L 11.201000213623047 74.5979995727539 L 10.967000007629395 74.09700012207031 L 10.7093505859375 73.72799682617188 L 10.649999618530273 73.64299774169922 L 10.258000373840332 73.25199890136719 L 9.805000305175781 72.93399810791016 L 9.303000450134277 72.70099639892578 L 8.769000053405762 72.55699920654297 L 8.217000007629395 72.50900268554688 L 7.665999889373779 72.55699920654297 L 7.131999969482422 72.70099639892578 L 6.630000114440918 72.93399810791016 L 6.177000045776367 73.25199890136719 L 5.784999847412109 73.64299774169922 L 5.725649833679199 73.72799682617188 L 5.4679999351501465 74.09700012207031 L 5.234000205993652 74.5979995727539 L 5.091000080108643 75.13300323486328 L 5.041999816894531 75.68399810791016 L 5.091000080108643 76.23500061035156 L 5.234000205993652 76.7699966430664 L 5.4679999351501465 77.27200317382812 L 5.784999847412109 77.7249984741211 L 6.177000045776367 78.11599731445312 L 6.630000114440918 78.43399810791016 L 7.131999969482422 78.66799926757812 L 7.665999889373779 78.81099700927734 L 8.192000389099121 78.85681915283203 L 8.217000007629395 78.85900115966797 L 8.769000053405762 78.81099700927734 L 9.303000450134277 78.66799926757812 L 9.805000305175781 78.43399810791016 L 10.258000373840332 78.11599731445312 M 57.400001525878906 120.39399719238281 L 57.34400177001953 120.35481262207031 L 56.946998596191406 120.0770034790039 L 56.44499969482422 119.84300231933594 L 55.9109992980957 119.69999694824219 L 55.35900115966797 119.6510009765625 L 54.80799865722656 119.69999694824219 L 54.27399826049805 119.84300231933594 L 53.77199935913086 120.0770034790039 L 53.319000244140625 120.39399719238281 L 53.24800109863281 120.46499633789062 L 52.926998138427734 120.78600311279297 L 52.61000061035156 121.23899841308594 L 52.375999450683594 121.74099731445312 L 52.233001708984375 122.2750015258789 L 52.183998107910156 122.82599639892578 L 52.18879318237305 122.87999725341797 L 52.233001708984375 123.37799835205078 L 52.375999450683594 123.91200256347656 L 52.61000061035156 124.41400146484375 L 52.926998138427734 124.86699676513672 L 53.319000244140625 125.25900268554688 L 53.77199935913086 125.57599639892578 L 54.27399826049805 125.80999755859375 L 54.80799865722656 125.9530029296875 L 55.35900115966797 126.0009994506836 L 55.9109992980957 125.9530029296875 L 56.44499969482422 125.80999755859375 L 56.946998596191406 125.57599639892578 L 57.34400177001953 125.29818725585938 L 57.400001525878906 125.25900268554688 L 57.79199981689453 124.86699676513672 L 58.10900115966797 124.41400146484375 L 58.34299850463867 123.91200256347656 L 58.486000061035156 123.37799835205078 L 58.52930450439453 122.87999725341797 L 58.534000396728516 122.82599639892578 L 58.486000061035156 122.2750015258789 L 58.34299850463867 121.74099731445312 L 58.10900115966797 121.23899841308594 L 57.79199981689453 120.78600311279297 L 57.400001525878906 120.39399719238281 M 52.926998138427734 77.7249984741211 L 53.02625274658203 77.8239974975586 L 53.319000244140625 78.11599731445312 L 53.77199935913086 78.43399810791016 L 54.27399826049805 78.66799926757812 L 54.80799865722656 78.81099700927734 L 55.35900115966797 78.85900115966797 L 55.9109992980957 78.81099700927734 L 56.44499969482422 78.66799926757812 L 56.946998596191406 78.43399810791016 L 57.34400177001953 78.15531158447266 L 57.400001525878906 78.11599731445312 L 57.79199981689453 77.7249984741211 L 58.10900115966797 77.27200317382812 L 58.34299850463867 76.7699966430664 L 58.486000061035156 76.23500061035156 L 58.534000396728516 75.68399810791016 L 58.486000061035156 75.13300323486328 L 58.34299850463867 74.5979995727539 L 58.10900115966797 74.09700012207031 L 57.851348876953125 73.72799682617188 L 57.79199981689453 73.64299774169922 L 57.400001525878906 73.25199890136719 L 56.946998596191406 72.93399810791016 L 56.44499969482422 72.70099639892578 L 55.9109992980957 72.55699920654297 L 55.35900115966797 72.50900268554688 L 54.80799865722656 72.55699920654297 L 54.27399826049805 72.70099639892578 L 53.77199935913086 72.93399810791016 L 53.319000244140625 73.25199890136719 L 52.926998138427734 73.64299774169922 L 52.86764907836914 73.72799682617188 L 52.61000061035156 74.09700012207031 L 52.375999450683594 74.5979995727539 L 52.233001708984375 75.13300323486328 L 52.183998107910156 75.68399810791016 L 52.233001708984375 76.23500061035156 L 52.375999450683594 76.7699966430664 L 52.61000061035156 77.27200317382812 L 52.926998138427734 77.7249984741211 M 11.201000213623047 123.91200256347656 L 11.343999862670898 123.37799835205078 L 11.387304306030273 122.87999725341797 L 11.392000198364258 122.82599639892578 L 11.343999862670898 122.2750015258789 L 11.201000213623047 121.74099731445312 L 10.967000007629395 121.23899841308594 L 10.649999618530273 120.78600311279297 L 10.258000373840332 120.39399719238281 L 9.805000305175781 120.0770034790039 L 9.303000450134277 119.84300231933594 L 8.769000053405762 119.69999694824219 L 8.217000007629395 119.6510009765625 L 8.192000389099121 119.6532211303711 L 7.665999889373779 119.69999694824219 L 7.131999969482422 119.84300231933594 L 6.630000114440918 120.0770034790039 L 6.177000045776367 120.39399719238281 L 5.784999847412109 120.78600311279297 L 5.4679999351501465 121.23899841308594 L 5.234000205993652 121.74099731445312 L 5.091000080108643 122.2750015258789 L 5.041999816894531 122.82599639892578 L 5.046793460845947 122.87999725341797 L 5.091000080108643 123.37799835205078 L 5.234000205993652 123.91200256347656 L 5.4679999351501465 124.41400146484375 L 5.784999847412109 124.86699676513672 L 6.177000045776367 125.25900268554688 L 6.630000114440918 125.57599639892578 L 7.131999969482422 125.80999755859375 L 7.665999889373779 125.9530029296875 L 8.192000389099121 125.99882507324219 L 8.217000007629395 126.0009994506836 L 8.769000053405762 125.9530029296875 L 9.303000450134277 125.80999755859375 L 9.805000305175781 125.57599639892578 L 10.258000373840332 125.25900268554688 L 10.649999618530273 124.86699676513672 L 10.967000007629395 124.41400146484375 L 11.201000213623047 123.91200256347656 M 55.28499984741211 47.917999267578125 L 55.33300018310547 48.46900177001953 L 55.47700119018555 49.00400161743164 L 55.54612731933594 49.152000427246094 L 55.71099853515625 49.505001068115234 L 56.02799987792969 49.95899963378906 L 56.41899871826172 50.349998474121094 L 56.87300109863281 50.667999267578125 L 57.374000549316406 50.9010009765625 L 57.909000396728516 51.04499816894531 L 58.459999084472656 51.09299850463867 L 59.012001037597656 51.04499816894531 L 59.54600143432617 50.9010009765625 L 60.04800033569336 50.667999267578125 L 60.500999450683594 50.349998474121094 L 60.891998291015625 49.95899963378906 L 61.209999084472656 49.505001068115234 L 61.374874114990234 49.152000427246094 L 61.444000244140625 49.00400161743164 L 61.58700180053711 48.46900177001953 L 61.6349983215332 47.917999267578125 L 61.58700180053711 47.367000579833984 L 61.444000244140625 46.832000732421875 L 61.209999084472656 46.33000183105469 L 60.891998291015625 45.87699890136719 L 60.500999450683594 45.486000061035156 L 60.04800033569336 45.167999267578125 L 59.54600143432617 44.933998107910156 L 59.012001037597656 44.79100036621094 L 58.459999084472656 44.74300003051758 L 57.909000396728516 44.79100036621094 L 57.374000549316406 44.933998107910156 L 57.34400177001953 44.94801330566406 L 56.87300109863281 45.167999267578125 L 56.41899871826172 45.486000061035156 L 56.02799987792969 45.87699890136719 L 55.71099853515625 46.33000183105469 L 55.47700119018555 46.832000732421875 L 55.33300018310547 47.367000579833984 L 55.28499984741211 47.917999267578125 M -32.768001556396484 52.362998962402344 L 0 52.362998962402344 L 32.768001556396484 52.362998962402344 L 54.01499938964844 52.362998962402344 L 54.01499938964844 49.152000427246094 L 54.01499938964844 43.572265625 L 54.01499938964844 40.959999084472656 L 54.01499938964844 32.768001556396484 L 54.01499938964844 1.1102230246251565e-16 L 54.01499938964844 -16.384000778198242 L 54.01499938964844 -24.576000213623047 L 54.01499938964844 -24.653173446655273 L 54.01499938964844 -25.35477638244629 L 54.01499938964844 -26.128520965576172 L 54.01499938964844 -27.011999130249023 L 49.152000427246094 -27.011999130249023 L 32.768001556396484 -27.011999130249023 L 0 -27.011999130249023 L -32.768001556396484 -27.011999130249023 L -49.152000427246094 -27.011999130249023 L -53.933998107910156 -27.011999130249023 L -53.933998107910156 -24.576000213623047 L -53.933998107910156 -21.74042510986328 L -53.933998107910156 -21.143056869506836 L -53.933998107910156 -20.48810386657715 L -53.933998107910156 -16.384000778198242 L -53.933998107910156 1.1102230246251565e-16 L -53.933998107910156 32.768001556396484 L -53.933998107910156 40.959999084472656 L -53.933998107910156 43.538021087646484 L -53.933998107910156 45.87596130371094 L -53.933998107910156 49.152000427246094 L -53.933998107910156 49.341941833496094 L -53.933998107910156 49.99689483642578 L -53.933998107910156 50.70577621459961 L -53.933998107910156 51.480224609375 L -53.933998107910156 52.362998962402344 L -43.80045700073242 52.362998962402344 L -32.768001556396484 52.362998962402344 M -11.310999870300293 75.68399810791016 L -11.262999534606934 76.23500061035156 L -11.119999885559082 76.7699966430664 L -10.88599967956543 77.27200317382812 L -10.567999839782715 77.7249984741211 L -10.468999862670898 77.8239974975586 L -10.177000045776367 78.11599731445312 L -9.723999977111816 78.43399810791016 L -9.222000122070312 78.66799926757812 L -8.687000274658203 78.81099700927734 L -8.192000389099121 78.85411834716797 L -8.13599967956543 78.85900115966797 L -7.585000038146973 78.81099700927734 L -7.050000190734863 78.66799926757812 L -6.548999786376953 78.43399810791016 L -6.09499979019165 78.11599731445312 L -5.703999996185303 77.7249984741211 L -5.386000156402588 77.27200317382812 L -5.1529998779296875 76.7699966430664 L -5.008999824523926 76.23500061035156 L -4.960999965667725 75.68399810791016 L -5.008999824523926 75.13300323486328 L -5.1529998779296875 74.5979995727539 L -5.386000156402588 74.09700012207031 L -5.644462585449219 73.72799682617188 L -5.703999996185303 73.64299774169922 L -6.09499979019165 73.25199890136719 L -6.548999786376953 72.93399810791016 L -7.050000190734863 72.70099639892578 L -7.585000038146973 72.55699920654297 L -8.13599967956543 72.50900268554688 L -8.687000274658203 72.55699920654297 L -9.222000122070312 72.70099639892578 L -9.723999977111816 72.93399810791016 L -10.177000045776367 73.25199890136719 L -10.567999839782715 73.64299774169922 L -10.627537727355957 73.72799682617188 L -10.88599967956543 74.09700012207031 L -11.119999885559082 74.5979995727539 L -11.262999534606934 75.13300323486328 L -11.310999870300293 75.68399810791016 M -61.55400085449219 -22.566999435424805 L -61.50600051879883 -22.016000747680664 L -61.36199951171875 -21.481000900268555 L -61.12799835205078 -20.979999542236328 L -60.81100082397461 -20.525999069213867 L -60.41999816894531 -20.135000228881836 L -59.965999603271484 -19.816999435424805 L -59.46500015258789 -19.583999633789062 L -58.93000030517578 -19.440000534057617 L -58.37900161743164 -19.392000198364258 L -57.827999114990234 -19.440000534057617 L -57.34400177001953 -19.57027244567871 L -57.292999267578125 -19.583999633789062 L -56.79100036621094 -19.816999435424805 L -56.3380012512207 -20.135000228881836 L -55.946998596191406 -20.525999069213867 L -55.62900161743164 -20.979999542236328 L -55.39500045776367 -21.481000900268555 L -55.25199890136719 -22.016000747680664 L -55.20399856567383 -22.566999435424805 L -55.25199890136719 -23.118000030517578 L -55.39500045776367 -23.652999877929688 L -55.62900161743164 -24.155000686645508 L -55.924537658691406 -24.576000213623047 L -55.946998596191406 -24.607999801635742 L -56.3380012512207 -24.999000549316406 L -56.79100036621094 -25.316999435424805 L -57.292999267578125 -25.551000595092773 L -57.827999114990234 -25.694000244140625 L -58.37900161743164 -25.742000579833984 L -58.93000030517578 -25.694000244140625 L -59.46500015258789 -25.551000595092773 L -59.965999603271484 -25.316999435424805 L -60.41999816894531 -24.999000549316406 L -60.81100082397461 -24.607999801635742 L -60.83339309692383 -24.576000213623047 L -61.12799835205078 -24.155000686645508 L -61.36199951171875 -23.652999877929688 L -61.50600051879883 -23.118000030517578 L -61.55400085449219 -22.566999435424805 M -61.55400085449219 47.917999267578125 L -61.50600051879883 48.46900177001953 L -61.36199951171875 49.00400161743164 L -61.29287338256836 49.152000427246094 L -61.12799835205078 49.505001068115234 L -60.81100082397461 49.95899963378906 L -60.41999816894531 50.349998474121094 L -59.965999603271484 50.667999267578125 L -59.46500015258789 50.9010009765625 L -58.93000030517578 51.04499816894531 L -58.37900161743164 51.09299850463867 L -57.827999114990234 51.04499816894531 L -57.292999267578125 50.9010009765625 L -56.79100036621094 50.667999267578125 L -56.3380012512207 50.349998474121094 L -55.946998596191406 49.95899963378906 L -55.62900161743164 49.505001068115234 L -55.46412658691406 49.152000427246094 L -55.39500045776367 49.00400161743164 L -55.25199890136719 48.46900177001953 L -55.20399856567383 47.917999267578125 L -55.25199890136719 47.367000579833984 L -55.39500045776367 46.832000732421875 L -55.62900161743164 46.33000183105469 L -55.946998596191406 45.87699890136719 L -56.3380012512207 45.486000061035156 L -56.79100036621094 45.167999267578125 L -57.292999267578125 44.933998107910156 L -57.34400177001953 44.92036819458008 L -57.827999114990234 44.79100036621094 L -58.37900161743164 44.74300003051758 L -58.93000030517578 44.79100036621094 L -59.46500015258789 44.933998107910156 L -59.965999603271484 45.167999267578125 L -60.41999816894531 45.486000061035156 L -60.81100082397461 45.87699890136719 L -61.12799835205078 46.33000183105469 L -61.36199951171875 46.832000732421875 L -61.50600051879883 47.367000579833984 L -61.55400085449219 47.917999267578125 M -48.1870002746582 -44.00299835205078 L -47.525001525878906 -43.94499969482422 L -32.768001556396484 -43.94499969482422 L 0 -43.94499969482422 L 32.768001556396484 -43.94499969482422 L 47.7239990234375 -43.94499969482422 L 48.3849983215332 -44.00299835205078 L 49.027000427246094 -44.17499923706055 L 49.62900161743164 -44.45600128173828 L 50.17300033569336 -44.83700180053711 L 50.641998291015625 -45.305999755859375 L 51.02299880981445 -45.849998474121094 L 51.30400085449219 -46.45199966430664 L 51.47600173950195 -47.09400177001953 L 51.534000396728516 -47.755001068115234 L 51.534000396728516 -49.152000427246094 L 51.534000396728516 -49.29630661010742 L 51.534000396728516 -53.24800109863281 L 51.534000396728516 -55.625633239746094 L 51.534000396728516 -57.34400177001953 L 51.534000396728516 -57.6159553527832 L 51.534000396728516 -58.39533615112305 L 51.534000396728516 -59.27934646606445 L 51.534000396728516 -60.36469268798828 L 51.534000396728516 -61.724998474121094 L 51.53068923950195 -61.76279830932617 L 51.47600173950195 -62.387001037597656 L 51.30400085449219 -63.02799987792969 L 51.02299880981445 -63.630001068115234 L 50.641998291015625 -64.17400360107422 L 50.17300033569336 -64.64399719238281 L 49.62900161743164 -65.0250015258789 L 49.152000427246094 -65.24765014648438 L 49.027000427246094 -65.30599975585938 L 48.3849983215332 -65.47699737548828 L 47.7239990234375 -65.53500366210938 L 32.768001556396484 -65.53500366210938 L 0 -65.53500366210938 L -32.768001556396484 -65.53500366210938 L -47.525001525878906 -65.53500366210938 L -48.1870002746582 -65.47699737548828 L -48.82899856567383 -65.30599975585938 L -49.152000427246094 -65.15498352050781 L -49.43000030517578 -65.0250015258789 L -49.9739990234375 -64.64399719238281 L -50.444000244140625 -64.17400360107422 L -50.82500076293945 -63.630001068115234 L -51.10599899291992 -63.02799987792969 L -51.27799987792969 -62.387001037597656 L -51.334999084472656 -61.724998474121094 L -51.334999084472656 -57.34400177001953 L -51.334999084472656 -55.657196044921875 L -51.334999084472656 -53.24800109863281 L -51.334999084472656 -49.152000427246094 L -51.334999084472656 -47.755001068115234 L -51.27799987792969 -47.09400177001953 L -51.10599899291992 -46.45199966430664 L -50.82500076293945 -45.849998474121094 L -50.444000244140625 -45.305999755859375 L -49.9739990234375 -44.83700180053711 L -49.43000030517578 -44.45600128173828 L -48.82899856567383 -44.17499923706055 L -48.1870002746582 -44.00299835205078 M -7.877999782562256 83.48999786376953 L -9.00114631652832 81.91999816894531 L -9.092000007629395 81.79299926757812 L -10.427000045776367 80.18900299072266 L -11.87600040435791 78.68599700927734 L -12.064953804016113 78.51673126220703 L -12.838247299194336 77.8239974975586 L -13.430999755859375 77.29299926757812 L -15.083000183105469 76.01699829101562 L -16.384000778198242 75.1563949584961 L -16.822999954223633 74.86599731445312 L -18.64299964904785 73.84400177001953 L -20.533000946044922 72.95800018310547 L -22.482999801635742 72.21299743652344 L -24.48200035095215 71.61100006103516 L -26.518999099731445 71.15799713134766 L -28.583999633789062 70.85399627685547 L -30.665000915527344 70.70099639892578 L -32.75299835205078 70.70099639892578 L -32.768001556396484 70.70210266113281 L -34.83399963378906 70.85399627685547 L -36.89899826049805 71.15799713134766 L -38.9370002746582 71.61100006103516 L -40.935001373291016 72.21299743652344 L -42.8849983215332 72.95800018310547 L -44.775001525878906 73.84400177001953 L -46.595001220703125 74.86599731445312 L -48.33599853515625 76.01699829101562 L -49.152000427246094 76.64727783203125 L -49.987998962402344 77.29299926757812 L -50.58037185668945 77.8239974975586 L -51.35361099243164 78.51712799072266 L -51.54199981689453 78.68599700927734 L -52.99100112915039 80.18900299072266 L -54.32600021362305 81.79299926757812 L -54.41685485839844 81.91999816894531 L -55.540000915527344 83.48999786376953 L -56.62799835205078 85.27200317382812 L -57.582000732421875 87.12799835205078 L -58.39799880981445 89.04900360107422 L -59.071998596191406 91.0250015258789 L -59.599998474121094 93.04399871826172 L -59.979000091552734 95.09700012207031 L -60.20800018310547 97.1709976196289 L -60.2492790222168 98.30400085449219 L -60.284000396728516 99.25700378417969 L -60.20800018310547 101.34300231933594 L -59.979000091552734 103.41799926757812 L -59.599998474121094 105.47000122070312 L -59.071998596191406 107.48999786376953 L -58.39799880981445 109.46499633789062 L -57.582000732421875 111.38600158691406 L -56.62799835205078 113.24199676513672 L -55.74514389038086 114.68800354003906 L -55.540000915527344 115.02400207519531 L -54.32600021362305 116.72100067138672 L -52.99100112915039 118.32599639892578 L -52.54916000366211 118.78399658203125 L -52.44578170776367 118.89115905761719 L -51.54199981689453 119.8280029296875 L -49.987998962402344 121.22100067138672 L -49.152000427246094 121.8667221069336 L -48.33599853515625 122.49700164794922 L -46.595001220703125 123.64900207519531 L -44.775001525878906 124.66999816894531 L -42.8849983215332 125.55599975585938 L -40.935001373291016 126.302001953125 L -38.9370002746582 126.90299987792969 L -36.89899826049805 127.35700225830078 L -34.83399963378906 127.66100311279297 L -32.768001556396484 127.81190490722656 L -32.75299835205078 127.81300354003906 L -30.665000915527344 127.81300354003906 L -28.583999633789062 127.66100311279297 L -26.518999099731445 127.35700225830078 L -24.48200035095215 126.90299987792969 L -22.482999801635742 126.302001953125 L -20.533000946044922 125.55599975585938 L -18.64299964904785 124.66999816894531 L -16.822999954223633 123.64900207519531 L -16.384000778198242 123.35835266113281 L -15.661489486694336 122.87999725341797 L -15.083000183105469 122.49700164794922 L -13.430999755859375 121.22100067138672 L -11.87600040435791 119.8280029296875 L -10.427000045776367 118.32599639892578 L -9.092000007629395 116.72100067138672 L -8.192000389099121 115.46292877197266 L -7.877999782562256 115.02400207519531 L -7.672855377197266 114.68800354003906 L -6.789999961853027 113.24199676513672 L -5.835999965667725 111.38600158691406 L -5.019999980926514 109.46499633789062 L -4.3460001945495605 107.48999786376953 L -3.818000078201294 105.47000122070312 L -3.438999891281128 103.41799926757812 L -3.2109999656677246 101.34300231933594 L -3.134000062942505 99.25700378417969 L -3.169177770614624 98.30400085449219 L -3.2109999656677246 97.1709976196289 L -3.438999891281128 95.09700012207031 L -3.818000078201294 93.04399871826172 L -4.3460001945495605 91.0250015258789 L -5.019999980926514 89.04900360107422 L -5.835999965667725 87.12799835205078 L -6.789999961853027 85.27200317382812 L -7.877999782562256 83.48999786376953 M -74.83499908447266 164.04600524902344 L -75.04176330566406 163.83999633789062 L -75.1050033569336 163.77699279785156 L -75.41699981689453 163.55799865722656 L -75.76200103759766 163.39700317382812 L -76.12899780273438 163.2989959716797 L -76.50900268554688 163.26600646972656 L -76.88800048828125 163.2989959716797 L -77.25599670410156 163.39700317382812 L -77.60099792480469 163.55799865722656 L -77.91300201416016 163.77699279785156 L -77.97599792480469 163.83999633789062 L -78.18199920654297 164.04600524902344 L -78.4000015258789 164.35800170898438 L -78.56099700927734 164.7030029296875 L -78.66000366210938 165.0709991455078 L -78.69300079345703 165.4499969482422 L -78.66000366210938 165.82899475097656 L -78.56099700927734 166.19700622558594 L -78.4000015258789 166.54200744628906 L -78.18199920654297 166.85400390625 L -77.91300201416016 167.1230010986328 L -77.8239974975586 167.1854705810547 L -77.60099792480469 167.3419952392578 L -77.25599670410156 167.5030059814453 L -76.88800048828125 167.6009979248047 L -76.50900268554688 167.63400268554688 L -76.12899780273438 167.6009979248047 L -75.76200103759766 167.5030059814453 L -75.41699981689453 167.3419952392578 L -75.1050033569336 167.1230010986328 L -74.83499908447266 166.85400390625 L -74.61699676513672 166.54200744628906 L -74.45600128173828 166.19700622558594 L -74.37371063232422 165.88800048828125 L -74.35800170898438 165.82899475097656 L -74.3239974975586 165.4499969482422 L -74.35800170898438 165.0709991455078 L -74.45600128173828 164.7030029296875 L -74.61699676513672 164.35800170898438 L -74.83499908447266 164.04600524902344 M -53.19200134277344 -56.84000015258789 L -53.58399963378906 -57.23099899291992 L -53.745479583740234 -57.34400177001953 L -53.755794525146484 -57.351219177246094 L -54.0369987487793 -57.54800033569336 L -54.53900146484375 -57.78200149536133 L -55.073001861572266 -57.92599868774414 L -55.624000549316406 -57.9739990234375 L -56.17599868774414 -57.92599868774414 L -56.709999084472656 -57.78200149536133 L -57.21200180053711 -57.54800033569336 L -57.50352096557617 -57.34400177001953 L -57.665000915527344 -57.23099899291992 L -58.05699920654297 -56.84000015258789 L -58.374000549316406 -56.38600158691406 L -58.608001708984375 -55.8849983215332 L -58.750999450683594 -55.349998474121094 L -58.79899978637695 -54.79899978637695 L -58.750999450683594 -54.24700164794922 L -58.608001708984375 -53.7130012512207 L -58.374000549316406 -53.21099853515625 L -58.05699920654297 -52.757999420166016 L -57.665000915527344 -52.367000579833984 L -57.34400177001953 -52.14166259765625 L -57.21200180053711 -52.04899978637695 L -56.709999084472656 -51.814998626708984 L -56.17599868774414 -51.672000885009766 L -55.624000549316406 -51.624000549316406 L -55.073001861572266 -51.672000885009766 L -54.53900146484375 -51.814998626708984 L -54.0369987487793 -52.04899978637695 L -53.58399963378906 -52.367000579833984 L -53.19200134277344 -52.757999420166016 L -52.875 -53.21099853515625 L -52.85775375366211 -53.24800109863281 L -52.64099884033203 -53.7130012512207 L -52.49800109863281 -54.24700164794922 L -52.45000076293945 -54.79899978637695 L -52.49800109863281 -55.349998474121094 L -52.64099884033203 -55.8849983215332 L -52.875 -56.38600158691406 L -53.19200134277344 -56.84000015258789 M -67.2300033569336 -85.6780014038086 L -66.96099853515625 -85.947998046875 L -66.91326904296875 -86.01599884033203 L -66.74199676513672 -86.26000213623047 L -66.58100128173828 -86.6050033569336 L -66.48300170898438 -86.97200012207031 L -66.4489974975586 -87.35199737548828 L -66.48300170898438 -87.73100280761719 L -66.58100128173828 -88.0989990234375 L -66.74199676513672 -88.44400024414062 L -66.96099853515625 -88.75599670410156 L -67.2300033569336 -89.0250015258789 L -67.54199981689453 -89.24299621582031 L -67.88700103759766 -89.40399932861328 L -68.25499725341797 -89.50299835205078 L -68.63400268554688 -89.53600311279297 L -69.01300048828125 -89.50299835205078 L -69.38099670410156 -89.40399932861328 L -69.63200378417969 -89.286865234375 L -69.72599792480469 -89.24299621582031 L -70.03800201416016 -89.0250015258789 L -70.30699920654297 -88.75599670410156 L -70.5260009765625 -88.44400024414062 L -70.68599700927734 -88.0989990234375 L -70.78500366210938 -87.73100280761719 L -70.81800079345703 -87.35199737548828 L -70.78500366210938 -86.97200012207031 L -70.68599700927734 -86.6050033569336 L -70.5260009765625 -86.26000213623047 L -70.35472869873047 -86.01599884033203 L -70.30699920654297 -85.947998046875 L -70.03800201416016 -85.6780014038086 L -69.72599792480469 -85.45999908447266 L -69.38099670410156 -85.29900360107422 L -69.01300048828125 -85.20099639892578 L -68.63400268554688 -85.16699981689453 L -68.25499725341797 -85.20099639892578 L -67.88700103759766 -85.29900360107422 L -67.54199981689453 -85.45999908447266 L -67.2300033569336 -85.6780014038086 M -53.23699951171875 78.11599731445312 L -52.94499969482422 77.8239974975586 L -52.84600067138672 77.7249984741211 L -52.52899932861328 77.27200317382812 L -52.29499816894531 76.7699966430664 L -52.1510009765625 76.23500061035156 L -52.10300064086914 75.68399810791016 L -52.1510009765625 75.13300323486328 L -52.29499816894531 74.5979995727539 L -52.52899932861328 74.09700012207031 L -52.786651611328125 73.72799682617188 L -52.84600067138672 73.64299774169922 L -53.23699951171875 73.25199890136719 L -53.691001892089844 72.93399810791016 L -54.19200134277344 72.70099639892578 L -54.72700119018555 72.55699920654297 L -55.27799987792969 72.50900268554688 L -55.82899856567383 72.55699920654297 L -56.36399841308594 72.70099639892578 L -56.86600112915039 72.93399810791016 L -57.319000244140625 73.25199890136719 L -57.709999084472656 73.64299774169922 L -57.76953887939453 73.72799682617188 L -58.02799987792969 74.09700012207031 L -58.262001037597656 74.5979995727539 L -58.404998779296875 75.13300323486328 L -58.452999114990234 75.68399810791016 L -58.404998779296875 76.23500061035156 L -58.262001037597656 76.7699966430664 L -58.02799987792969 77.27200317382812 L -57.709999084472656 77.7249984741211 L -57.34400177001953 78.09100341796875 L -57.319000244140625 78.11599731445312 L -56.86600112915039 78.43399810791016 L -56.36399841308594 78.66799926757812 L -55.82899856567383 78.81099700927734 L -55.27799987792969 78.85900115966797 L -54.72700119018555 78.81099700927734 L -54.19200134277344 78.66799926757812 L -53.691001892089844 78.43399810791016 L -53.23699951171875 78.11599731445312 M 55.28499984741211 -22.566999435424805 L 55.33300018310547 -22.016000747680664 L 55.47700119018555 -21.481000900268555 L 55.71099853515625 -20.979999542236328 L 56.02799987792969 -20.525999069213867 L 56.41899871826172 -20.135000228881836 L 56.87300109863281 -19.816999435424805 L 57.34400177001953 -19.597951889038086 L 57.374000549316406 -19.583999633789062 L 57.909000396728516 -19.440000534057617 L 58.459999084472656 -19.392000198364258 L 59.012001037597656 -19.440000534057617 L 59.54600143432617 -19.583999633789062 L 60.04800033569336 -19.816999435424805 L 60.500999450683594 -20.135000228881836 L 60.891998291015625 -20.525999069213867 L 61.209999084472656 -20.979999542236328 L 61.444000244140625 -21.481000900268555 L 61.58700180053711 -22.016000747680664 L 61.6349983215332 -22.566999435424805 L 61.58700180053711 -23.118000030517578 L 61.444000244140625 -23.652999877929688 L 61.209999084472656 -24.155000686645508 L 60.91446304321289 -24.576000213623047 L 60.891998291015625 -24.607999801635742 L 60.500999450683594 -24.999000549316406 L 60.04800033569336 -25.316999435424805 L 59.54600143432617 -25.551000595092773 L 59.012001037597656 -25.694000244140625 L 58.459999084472656 -25.742000579833984 L 57.909000396728516 -25.694000244140625 L 57.374000549316406 -25.551000595092773 L 56.87300109863281 -25.316999435424805 L 56.41899871826172 -24.999000549316406 L 56.02799987792969 -24.607999801635742 L 56.00560760498047 -24.576000213623047 L 55.71099853515625 -24.155000686645508 L 55.47700119018555 -23.652999877929688 L 55.33300018310547 -23.118000030517578 L 55.28499984741211 -22.566999435424805 M -8.13599967956543 119.6510009765625 L -8.192000389099121 119.6559829711914 L -8.687000274658203 119.69999694824219 L -9.222000122070312 119.84300231933594 L -9.723999977111816 120.0770034790039 L -10.177000045776367 120.39399719238281 L -10.567999839782715 120.78600311279297 L -10.88599967956543 121.23899841308594 L -11.119999885559082 121.74099731445312 L -11.262999534606934 122.2750015258789 L -11.310999870300293 122.82599639892578 L -11.306303977966309 122.87999725341797 L -11.262999534606934 123.37799835205078 L -11.119999885559082 123.91200256347656 L -10.88599967956543 124.41400146484375 L -10.567999839782715 124.86699676513672 L -10.177000045776367 125.25900268554688 L -9.723999977111816 125.57599639892578 L -9.222000122070312 125.80999755859375 L -8.687000274658203 125.9530029296875 L -8.192000389099121 125.99612426757812 L -8.13599967956543 126.0009994506836 L -7.585000038146973 125.9530029296875 L -7.050000190734863 125.80999755859375 L -6.548999786376953 125.57599639892578 L -6.09499979019165 125.25900268554688 L -5.703999996185303 124.86699676513672 L -5.386000156402588 124.41400146484375 L -5.1529998779296875 123.91200256347656 L -5.008999824523926 123.37799835205078 L -4.965695858001709 122.87999725341797 L -4.960999965667725 122.82599639892578 L -5.008999824523926 122.2750015258789 L -5.1529998779296875 121.74099731445312 L -5.386000156402588 121.23899841308594 L -5.703999996185303 120.78600311279297 L -6.09499979019165 120.39399719238281 L -6.548999786376953 120.0770034790039 L -7.050000190734863 119.84300231933594 L -7.585000038146973 119.69999694824219 L -8.13599967956543 119.6510009765625 M 56.47200012207031 -51.70399856567383 L 57.00600051879883 -51.84700012207031 L 57.34400177001953 -52.004554748535156 L 57.507999420166016 -52.08100128173828 L 57.96099853515625 -52.39799880981445 L 58.35200119018555 -52.790000915527344 L 58.66999816894531 -53.24300003051758 L 58.90399932861328 -53.744998931884766 L 59.047000885009766 -54.27899932861328 L 59.095001220703125 -54.83100128173828 L 59.047000885009766 -55.38199996948242 L 58.90399932861328 -55.91600036621094 L 58.66999816894531 -56.417999267578125 L 58.35200119018555 -56.87099838256836 L 57.96099853515625 -57.26300048828125 L 57.84524917602539 -57.34400177001953 L 57.507999420166016 -57.58000183105469 L 57.00600051879883 -57.81399917602539 L 56.47200012207031 -57.957000732421875 L 55.91999816894531 -58.00600051879883 L 55.36899948120117 -57.957000732421875 L 54.83399963378906 -57.81399917602539 L 54.33300018310547 -57.58000183105469 L 53.9950065612793 -57.34400177001953 L 53.87900161743164 -57.26300048828125 L 53.487998962402344 -56.87099838256836 L 53.17100143432617 -56.417999267578125 L 52.9370002746582 -55.91600036621094 L 52.792999267578125 -55.38199996948242 L 52.744998931884766 -54.83100128173828 L 52.792999267578125 -54.27899932861328 L 52.9370002746582 -53.744998931884766 L 53.168670654296875 -53.24800109863281 L 53.17100143432617 -53.24300003051758 L 53.487998962402344 -52.790000915527344 L 53.87900161743164 -52.39799880981445 L 54.33300018310547 -52.08100128173828 L 54.83399963378906 -51.84700012207031 L 55.36899948120117 -51.70399856567383 L 55.91999816894531 -51.65599822998047 L 56.47200012207031 -51.70399856567383 M -58.452999114990234 122.82599639892578 L -58.44830322265625 122.87999725341797 L -58.404998779296875 123.37799835205078 L -58.262001037597656 123.91200256347656 L -58.02799987792969 124.41400146484375 L -57.709999084472656 124.86699676513672 L -57.34400177001953 125.23393249511719 L -57.319000244140625 125.25900268554688 L -56.86600112915039 125.57599639892578 L -56.36399841308594 125.80999755859375 L -55.82899856567383 125.9530029296875 L -55.27799987792969 126.0009994506836 L -54.72700119018555 125.9530029296875 L -54.19200134277344 125.80999755859375 L -53.691001892089844 125.57599639892578 L -53.23699951171875 125.25900268554688 L -52.84600067138672 124.86699676513672 L -52.52899932861328 124.41400146484375 L -52.29499816894531 123.91200256347656 L -52.1510009765625 123.37799835205078 L -52.107696533203125 122.87999725341797 L -52.10300064086914 122.82599639892578 L -52.1510009765625 122.2750015258789 L -52.29499816894531 121.74099731445312 L -52.52899932861328 121.23899841308594 L -52.84600067138672 120.78600311279297 L -53.23699951171875 120.39399719238281 L -53.24800109863281 120.38632202148438 L -53.691001892089844 120.0770034790039 L -54.19200134277344 119.84300231933594 L -54.72700119018555 119.69999694824219 L -55.27799987792969 119.6510009765625 L -55.82899856567383 119.69999694824219 L -56.36399841308594 119.84300231933594 L -56.86600112915039 120.0770034790039 L -57.319000244140625 120.39399719238281 L -57.34400177001953 120.4190673828125 L -57.709999084472656 120.78600311279297 L -58.02799987792969 121.23899841308594 L -58.262001037597656 121.74099731445312 L -58.404998779296875 122.2750015258789 L -58.452999114990234 122.82599639892578 M 78.10199737548828 -166.375 L 77.8239974975586 -166.56924438476562 L 77.79000091552734 -166.59300231933594 L 77.44499969482422 -166.75399780273438 L 77.0770034790039 -166.85299682617188 L 76.697998046875 -166.88600158691406 L 76.31800079345703 -166.85299682617188 L 75.95099639892578 -166.75399780273438 L 75.60600280761719 -166.59300231933594 L 75.29399871826172 -166.375 L 75.02400207519531 -166.10499572753906 L 74.80599975585938 -165.79400634765625 L 74.6449966430664 -165.447998046875 L 74.5469970703125 -165.08099365234375 L 74.51300048828125 -164.7010040283203 L 74.5469970703125 -164.32200622558594 L 74.6449966430664 -163.95399475097656 L 74.69819641113281 -163.83999633789062 L 74.80599975585938 -163.60899353027344 L 75.02400207519531 -163.2969970703125 L 75.29399871826172 -163.0279998779297 L 75.60600280761719 -162.80999755859375 L 75.95099639892578 -162.6490020751953 L 76.31800079345703 -162.5500030517578 L 76.697998046875 -162.51699829101562 L 77.0770034790039 -162.5500030517578 L 77.44499969482422 -162.6490020751953 L 77.79000091552734 -162.80999755859375 L 78.10199737548828 -163.0279998779297 L 78.37100219726562 -163.2969970703125 L 78.58899688720703 -163.60899353027344 L 78.6968002319336 -163.83999633789062 L 78.75 -163.95399475097656 L 78.8489990234375 -164.32200622558594 L 78.88200378417969 -164.7010040283203 L 78.8489990234375 -165.08099365234375 L 78.75 -165.447998046875 L 78.58899688720703 -165.79400634765625 L 78.37100219726562 -166.10499572753906 L 78.10199737548828 -166.375 M 68.85199737548828 163.83700561523438 L 68.84989166259766 163.83999633789062 L 68.63300323486328 164.1490020751953 L 68.47200012207031 164.49400329589844 L 68.3740005493164 164.86199951171875 L 68.34100341796875 165.24200439453125 L 68.3740005493164 165.62100219726562 L 68.47200012207031 165.98899841308594 L 68.63300323486328 166.33399963378906 L 68.85199737548828 166.64599609375 L 69.12100219726562 166.9149932861328 L 69.43299865722656 167.13299560546875 L 69.63200378417969 167.22586059570312 L 69.77799987792969 167.29400634765625 L 70.14600372314453 167.39300537109375 L 70.5250015258789 167.42599487304688 L 70.90399932861328 167.39300537109375 L 71.27200317382812 167.29400634765625 L 71.61699676513672 167.13299560546875 L 71.92900085449219 166.9149932861328 L 72.197998046875 166.64599609375 L 72.41699981689453 166.33399963378906 L 72.5780029296875 165.98899841308594 L 72.6760025024414 165.62100219726562 L 72.70899963378906 165.24200439453125 L 72.6760025024414 164.86199951171875 L 72.5780029296875 164.49400329589844 L 72.41699981689453 164.1490020751953 L 72.20010375976562 163.83999633789062 L 72.197998046875 163.83700561523438 L 71.92900085449219 163.5679931640625 L 71.61699676513672 163.35000610351562 L 71.27200317382812 163.18899536132812 L 70.90399932861328 163.08999633789062 L 70.5250015258789 163.0570068359375 L 70.14600372314453 163.08999633789062 L 69.77799987792969 163.18899536132812 L 69.43299865722656 163.35000610351562 L 69.12100219726562 163.5679931640625 L 68.85199737548828 163.83700561523438 z" fill="none" stroke="rgb(255,0,0)" stroke-width="0.001mm" />
</svg>