<?xml version="1.0" encoding="UTF-8" standalone="no"?>
<!DOCTYPE svg PUBLIC "-//W3C//DTD SVG 1.1//EN" "http://www.w3.org/Graphics/SVG/1.1/DTD/svg11.dtd">
<svg width="584px" height="488px" version="1.1" xmlns="http://www.w3.org/2000/svg" xmlns:xlink="http://www.w3.org/1999/xlink" xml:space="preserve" xmlns:serif="http://www.serif.com/" style="fill-rule:evenodd;clip-rule:evenodd;stroke-linecap:round;stroke-linejoin:round;stroke-miterlimit:1.5;">
    <g transform="matrix(1.33333,0,0,1.33333,0,0)">
        <g transform="matrix(1,0,0,1,0,19)">
            <path d="M219.977,70.973L243.736,70.973L257.986,173.866L353.453,187.542L353.453,212.349L257.919,225.092" style="fill:none;stroke:black;stroke-width:3px;"/>
        </g>
        <g transform="matrix(-1,0,0,1,439.43,19)">
            <path d="M219.977,70.973L243.736,70.973L257.986,173.866L353.453,187.542L353.453,212.349L257.919,225.092" style="fill:none;stroke:black;stroke-width:3px;"/>
        </g>
        <g transform="matrix(1,0,0,1,8.95776,50.8742)">
            <g transform="matrix(16,0,0,16,12.3112,149.226)">
                <path d="M0.498,-0.082L0.498,-0L0.092,-0L0.092,-0.717L0.188,-0.717L0.188,-0.082L0.498,-0.082Z" style="fill-rule:nonzero;"/>
            </g>
            <g transform="matrix(16,0,0,16,20.5272,149.226)">
                <path d="M0.534,-0.079L0.533,-0L0.092,-0L0.092,-0.717L0.533,-0.717L0.533,-0.638L0.189,-0.638L0.189,-0.4L0.468,-0.4L0.468,-0.324L0.189,-0.324L0.189,-0.079L0.534,-0.079Z" style="fill-rule:nonzero;"/>
            </g>
            <g transform="matrix(16,0,0,16,29.7672,149.226)">
                <path d="M0.189,-0.638L0.189,-0.387L0.483,-0.387L0.483,-0.308L0.189,-0.308L0.189,-0L0.092,-0L0.092,-0.717L0.533,-0.717L0.533,-0.638L0.189,-0.638Z" style="fill-rule:nonzero;"/>
            </g>
            <g transform="matrix(16,0,0,16,38.8152,149.226)">
                <path d="M0.576,-0.635L0.344,-0.635L0.344,-0L0.248,-0L0.248,-0.635L0.015,-0.635L0.015,-0.717L0.576,-0.717L0.576,-0.635Z" style="fill-rule:nonzero;"/>
            </g>
            <g transform="matrix(16,0,0,16,2.40718,165.226)">
                <path d="M0.494,-0.085C0.503,-0.085 0.511,-0.082 0.517,-0.076C0.522,-0.07 0.525,-0.063 0.525,-0.054L0.525,-0L0.047,-0L0.047,-0.031C0.047,-0.037 0.048,-0.043 0.051,-0.05C0.054,-0.057 0.058,-0.063 0.064,-0.069L0.293,-0.299C0.312,-0.318 0.329,-0.337 0.345,-0.355C0.361,-0.373 0.374,-0.391 0.385,-0.409C0.396,-0.427 0.405,-0.445 0.411,-0.463C0.417,-0.482 0.42,-0.501 0.42,-0.523C0.42,-0.544 0.416,-0.562 0.41,-0.578C0.403,-0.594 0.394,-0.607 0.382,-0.617C0.371,-0.627 0.357,-0.635 0.342,-0.64C0.326,-0.645 0.309,-0.648 0.291,-0.648C0.273,-0.648 0.256,-0.645 0.241,-0.64C0.225,-0.635 0.212,-0.627 0.2,-0.618C0.188,-0.608 0.178,-0.597 0.17,-0.584C0.162,-0.571 0.156,-0.557 0.153,-0.541C0.149,-0.529 0.144,-0.522 0.137,-0.518C0.13,-0.514 0.12,-0.513 0.108,-0.515L0.062,-0.523C0.066,-0.555 0.075,-0.584 0.089,-0.609C0.102,-0.634 0.119,-0.656 0.14,-0.673C0.16,-0.69 0.184,-0.702 0.21,-0.711C0.236,-0.72 0.265,-0.725 0.296,-0.725C0.326,-0.725 0.354,-0.72 0.381,-0.711C0.407,-0.702 0.43,-0.689 0.449,-0.672C0.468,-0.655 0.484,-0.634 0.495,-0.609C0.505,-0.584 0.511,-0.556 0.511,-0.525C0.511,-0.498 0.507,-0.474 0.499,-0.451C0.491,-0.428 0.48,-0.406 0.467,-0.386C0.453,-0.365 0.437,-0.345 0.419,-0.325C0.401,-0.305 0.383,-0.286 0.363,-0.266L0.174,-0.073C0.187,-0.076 0.2,-0.079 0.214,-0.081C0.228,-0.083 0.241,-0.085 0.254,-0.085L0.494,-0.085Z" style="fill-rule:nonzero;"/>
            </g>
            <g transform="matrix(16,0,0,16,11.6872,165.226)">
                <path d="M0.289,-0.066C0.313,-0.066 0.335,-0.07 0.354,-0.078C0.374,-0.085 0.39,-0.096 0.404,-0.11C0.418,-0.123 0.429,-0.139 0.436,-0.158C0.444,-0.177 0.448,-0.197 0.448,-0.219C0.448,-0.242 0.444,-0.263 0.437,-0.282C0.429,-0.301 0.419,-0.317 0.405,-0.33C0.392,-0.343 0.376,-0.354 0.357,-0.361C0.338,-0.368 0.318,-0.371 0.296,-0.371C0.272,-0.371 0.25,-0.367 0.231,-0.359C0.211,-0.351 0.195,-0.34 0.181,-0.326C0.168,-0.312 0.157,-0.296 0.15,-0.278C0.143,-0.26 0.14,-0.241 0.14,-0.221C0.14,-0.198 0.143,-0.177 0.15,-0.158C0.156,-0.139 0.166,-0.123 0.179,-0.109C0.192,-0.095 0.207,-0.085 0.226,-0.077C0.244,-0.07 0.265,-0.066 0.289,-0.066ZM0.237,-0.448C0.231,-0.44 0.225,-0.432 0.219,-0.425C0.213,-0.417 0.207,-0.41 0.202,-0.403C0.219,-0.414 0.238,-0.423 0.258,-0.43C0.278,-0.436 0.301,-0.439 0.325,-0.439C0.354,-0.439 0.381,-0.434 0.407,-0.425C0.432,-0.415 0.455,-0.401 0.474,-0.383C0.493,-0.365 0.508,-0.343 0.52,-0.316C0.531,-0.29 0.537,-0.26 0.537,-0.226C0.537,-0.193 0.531,-0.162 0.519,-0.134C0.507,-0.105 0.49,-0.081 0.468,-0.06C0.447,-0.039 0.421,-0.022 0.391,-0.01C0.361,0.002 0.327,0.008 0.291,0.008C0.255,0.008 0.222,0.002 0.193,-0.009C0.164,-0.021 0.139,-0.037 0.118,-0.058C0.098,-0.079 0.082,-0.105 0.071,-0.135C0.06,-0.165 0.054,-0.199 0.054,-0.237C0.054,-0.268 0.061,-0.301 0.075,-0.337C0.089,-0.372 0.111,-0.41 0.141,-0.451L0.323,-0.695C0.328,-0.701 0.334,-0.706 0.342,-0.71C0.35,-0.714 0.36,-0.717 0.371,-0.717L0.45,-0.717L0.237,-0.448Z" style="fill-rule:nonzero;"/>
            </g>
            <g transform="matrix(16,0,0,16,20.9672,165.226)">
                <path d="M0.056,-0.055C0.056,-0.064 0.057,-0.072 0.06,-0.08C0.063,-0.087 0.068,-0.094 0.073,-0.1C0.079,-0.105 0.085,-0.11 0.093,-0.113C0.101,-0.116 0.109,-0.118 0.118,-0.118C0.126,-0.118 0.134,-0.116 0.142,-0.113C0.15,-0.11 0.156,-0.105 0.162,-0.1C0.168,-0.094 0.172,-0.087 0.176,-0.08C0.179,-0.072 0.181,-0.064 0.181,-0.055C0.181,-0.046 0.179,-0.038 0.176,-0.03C0.172,-0.023 0.168,-0.016 0.162,-0.011C0.156,-0.005 0.15,-0 0.142,0.003C0.134,0.006 0.126,0.008 0.118,0.008C0.109,0.008 0.101,0.006 0.093,0.003C0.085,-0 0.079,-0.005 0.073,-0.011C0.068,-0.016 0.063,-0.023 0.06,-0.03C0.057,-0.038 0.056,-0.046 0.056,-0.055Z" style="fill-rule:nonzero;"/>
            </g>
            <g transform="matrix(16,0,0,16,24.7432,165.226)">
                <path d="M0.181,-0.446C0.218,-0.454 0.253,-0.458 0.284,-0.458C0.321,-0.458 0.354,-0.452 0.383,-0.442C0.412,-0.431 0.436,-0.415 0.455,-0.396C0.474,-0.377 0.488,-0.354 0.498,-0.328C0.508,-0.301 0.513,-0.273 0.513,-0.242C0.513,-0.204 0.506,-0.169 0.493,-0.139C0.48,-0.108 0.462,-0.082 0.439,-0.06C0.416,-0.038 0.388,-0.021 0.357,-0.01C0.326,0.002 0.292,0.008 0.256,0.008C0.235,0.008 0.214,0.006 0.195,0.002C0.176,-0.002 0.158,-0.008 0.141,-0.015C0.124,-0.022 0.108,-0.03 0.094,-0.039C0.08,-0.048 0.067,-0.057 0.056,-0.068L0.084,-0.106C0.09,-0.114 0.097,-0.119 0.107,-0.119C0.114,-0.119 0.121,-0.116 0.13,-0.111C0.138,-0.106 0.148,-0.1 0.16,-0.094C0.172,-0.087 0.186,-0.081 0.202,-0.076C0.218,-0.071 0.238,-0.069 0.26,-0.069C0.285,-0.069 0.308,-0.073 0.328,-0.081C0.347,-0.089 0.365,-0.1 0.379,-0.115C0.393,-0.13 0.404,-0.147 0.412,-0.168C0.42,-0.189 0.424,-0.212 0.424,-0.238C0.424,-0.26 0.42,-0.28 0.414,-0.298C0.407,-0.316 0.397,-0.331 0.384,-0.344C0.371,-0.357 0.355,-0.367 0.335,-0.374C0.315,-0.381 0.292,-0.384 0.266,-0.384C0.248,-0.384 0.229,-0.383 0.21,-0.38C0.19,-0.377 0.17,-0.372 0.15,-0.365L0.094,-0.382L0.152,-0.717L0.491,-0.717L0.491,-0.678C0.491,-0.665 0.487,-0.654 0.479,-0.646C0.471,-0.638 0.458,-0.634 0.439,-0.634L0.214,-0.634L0.181,-0.446Z" style="fill-rule:nonzero;"/>
            </g>
            <g transform="matrix(16,0,0,16,38.1192,165.226)">
                <path d="M0.247,-0.248C0.265,-0.247 0.281,-0.25 0.295,-0.255C0.308,-0.26 0.32,-0.267 0.329,-0.276C0.338,-0.285 0.345,-0.296 0.35,-0.308C0.355,-0.321 0.357,-0.335 0.357,-0.35C0.357,-0.381 0.348,-0.405 0.329,-0.424C0.31,-0.442 0.283,-0.451 0.247,-0.451C0.211,-0.451 0.184,-0.442 0.165,-0.424C0.146,-0.405 0.137,-0.381 0.137,-0.35C0.137,-0.335 0.139,-0.321 0.144,-0.308C0.149,-0.296 0.156,-0.285 0.165,-0.276C0.174,-0.267 0.186,-0.26 0.2,-0.255C0.213,-0.25 0.229,-0.247 0.247,-0.248ZM0.408,0.028C0.408,0.015 0.404,0.005 0.397,-0.003C0.39,-0.01 0.381,-0.016 0.369,-0.021C0.357,-0.025 0.343,-0.028 0.328,-0.03C0.312,-0.032 0.295,-0.033 0.278,-0.034C0.26,-0.035 0.243,-0.036 0.225,-0.037C0.207,-0.038 0.189,-0.04 0.173,-0.042C0.154,-0.033 0.139,-0.022 0.127,-0.009C0.115,0.004 0.109,0.019 0.109,0.037C0.109,0.048 0.112,0.059 0.118,0.069C0.124,0.079 0.132,0.087 0.145,0.094C0.157,0.101 0.172,0.107 0.19,0.111C0.208,0.115 0.229,0.118 0.254,0.118C0.278,0.118 0.3,0.115 0.319,0.111C0.338,0.107 0.354,0.1 0.367,0.093C0.38,0.085 0.39,0.075 0.397,0.064C0.404,0.053 0.408,0.041 0.408,0.028ZM0.498,-0.487L0.498,-0.454C0.498,-0.443 0.491,-0.436 0.477,-0.433L0.42,-0.425C0.431,-0.403 0.436,-0.379 0.437,-0.352C0.436,-0.327 0.432,-0.305 0.422,-0.285C0.413,-0.265 0.4,-0.247 0.383,-0.233C0.366,-0.219 0.346,-0.208 0.323,-0.2C0.3,-0.192 0.274,-0.189 0.247,-0.189C0.223,-0.189 0.201,-0.191 0.18,-0.197C0.169,-0.19 0.161,-0.183 0.156,-0.176C0.15,-0.168 0.147,-0.161 0.147,-0.153C0.147,-0.141 0.152,-0.132 0.162,-0.126C0.172,-0.12 0.185,-0.115 0.201,-0.113C0.217,-0.11 0.235,-0.108 0.255,-0.108C0.276,-0.107 0.297,-0.106 0.318,-0.104C0.34,-0.103 0.361,-0.1 0.381,-0.097C0.402,-0.093 0.42,-0.087 0.436,-0.079C0.452,-0.07 0.465,-0.059 0.475,-0.044C0.485,-0.029 0.49,-0.01 0.49,0.013C0.49,0.035 0.484,0.056 0.473,0.076C0.462,0.096 0.447,0.114 0.427,0.13C0.406,0.146 0.381,0.159 0.352,0.168C0.322,0.178 0.289,0.183 0.252,0.183C0.215,0.183 0.183,0.179 0.155,0.172C0.127,0.164 0.104,0.154 0.086,0.142C0.068,0.13 0.054,0.115 0.045,0.099C0.036,0.083 0.031,0.066 0.031,0.049C0.031,0.024 0.039,0.002 0.055,-0.015C0.07,-0.032 0.092,-0.046 0.119,-0.057C0.104,-0.063 0.092,-0.072 0.083,-0.083C0.074,-0.094 0.07,-0.11 0.07,-0.129C0.07,-0.136 0.071,-0.143 0.074,-0.151C0.077,-0.159 0.081,-0.167 0.086,-0.175C0.092,-0.183 0.098,-0.19 0.107,-0.197C0.115,-0.204 0.124,-0.21 0.135,-0.216C0.11,-0.23 0.09,-0.248 0.076,-0.271C0.062,-0.294 0.055,-0.321 0.055,-0.352C0.055,-0.377 0.06,-0.399 0.069,-0.419C0.079,-0.439 0.092,-0.457 0.109,-0.471C0.126,-0.485 0.146,-0.496 0.17,-0.504C0.193,-0.511 0.219,-0.515 0.247,-0.515C0.269,-0.515 0.29,-0.513 0.309,-0.508C0.328,-0.503 0.345,-0.496 0.361,-0.487L0.498,-0.487Z" style="fill-rule:nonzero;"/>
            </g>
            <g transform="matrix(16,0,0,16,46.4392,165.226)">
                <path d="M0.345,-0.228C0.304,-0.227 0.269,-0.223 0.24,-0.218C0.211,-0.213 0.188,-0.206 0.17,-0.198C0.152,-0.19 0.138,-0.18 0.13,-0.169C0.122,-0.157 0.118,-0.145 0.118,-0.131C0.118,-0.117 0.12,-0.106 0.125,-0.096C0.129,-0.086 0.135,-0.078 0.142,-0.072C0.15,-0.066 0.159,-0.062 0.169,-0.059C0.179,-0.056 0.19,-0.055 0.202,-0.055C0.217,-0.055 0.232,-0.056 0.245,-0.059C0.258,-0.062 0.27,-0.067 0.281,-0.073C0.293,-0.079 0.304,-0.086 0.314,-0.095C0.325,-0.103 0.335,-0.112 0.345,-0.123L0.345,-0.228ZM0.058,-0.435C0.086,-0.462 0.116,-0.482 0.148,-0.496C0.18,-0.509 0.216,-0.516 0.256,-0.516C0.284,-0.516 0.309,-0.511 0.331,-0.502C0.353,-0.492 0.372,-0.479 0.387,-0.463C0.402,-0.446 0.413,-0.426 0.421,-0.402C0.428,-0.378 0.432,-0.352 0.432,-0.324L0.432,-0L0.393,-0C0.384,-0 0.377,-0.001 0.373,-0.004C0.368,-0.007 0.364,-0.013 0.362,-0.021L0.352,-0.069C0.338,-0.057 0.325,-0.046 0.313,-0.036C0.3,-0.027 0.286,-0.019 0.273,-0.012C0.259,-0.006 0.244,-0.001 0.228,0.003C0.212,0.006 0.194,0.008 0.175,0.008C0.155,0.008 0.137,0.005 0.12,-0C0.102,-0.006 0.087,-0.014 0.074,-0.025C0.061,-0.036 0.051,-0.05 0.044,-0.067C0.036,-0.084 0.033,-0.103 0.033,-0.127C0.033,-0.147 0.038,-0.166 0.049,-0.184C0.06,-0.203 0.078,-0.219 0.103,-0.234C0.127,-0.248 0.159,-0.26 0.199,-0.269C0.239,-0.278 0.287,-0.283 0.345,-0.285L0.345,-0.324C0.345,-0.363 0.337,-0.393 0.32,-0.413C0.303,-0.433 0.278,-0.444 0.245,-0.444C0.223,-0.444 0.205,-0.441 0.19,-0.435C0.175,-0.43 0.162,-0.424 0.151,-0.417C0.14,-0.41 0.131,-0.404 0.123,-0.398C0.115,-0.393 0.108,-0.39 0.1,-0.39C0.094,-0.39 0.089,-0.392 0.085,-0.395C0.08,-0.398 0.077,-0.402 0.074,-0.407L0.058,-0.435Z" style="fill-rule:nonzero;"/>
            </g>
            <g transform="matrix(16,0,0,16,54.3912,165.226)">
                <rect x="0.074" y="-0.737" width="0.089" height="0.737" style="fill-rule:nonzero;"/>
            </g>
            <g transform="matrix(16,0,0,16,7.41518,181.226)">
                <path d="M0.498,-0.082L0.498,-0L0.092,-0L0.092,-0.717L0.188,-0.717L0.188,-0.082L0.498,-0.082Z" style="fill-rule:nonzero;"/>
            </g>
            <g transform="matrix(16,0,0,16,15.6312,181.226)">
                <path d="M0.534,-0.079L0.533,-0L0.092,-0L0.092,-0.717L0.533,-0.717L0.533,-0.638L0.189,-0.638L0.189,-0.4L0.468,-0.4L0.468,-0.324L0.189,-0.324L0.189,-0.079L0.534,-0.079Z" style="fill-rule:nonzero;"/>
            </g>
            <g transform="matrix(16,0,0,16,24.8712,181.226)">
                <path d="M0.674,-0.717L0.382,-0L0.295,-0L0.003,-0.717L0.081,-0.717C0.089,-0.717 0.096,-0.714 0.102,-0.71C0.107,-0.706 0.111,-0.7 0.114,-0.694L0.316,-0.188C0.32,-0.177 0.324,-0.164 0.328,-0.151C0.332,-0.138 0.336,-0.124 0.34,-0.109C0.343,-0.124 0.346,-0.138 0.35,-0.151C0.354,-0.164 0.358,-0.177 0.362,-0.188L0.564,-0.694C0.566,-0.699 0.569,-0.704 0.575,-0.709C0.581,-0.714 0.588,-0.717 0.597,-0.717L0.674,-0.717Z" style="fill-rule:nonzero;"/>
            </g>
            <g transform="matrix(16,0,0,16,35.7032,181.226)">
                <path d="M0.534,-0.079L0.533,-0L0.092,-0L0.092,-0.717L0.533,-0.717L0.533,-0.638L0.189,-0.638L0.189,-0.4L0.468,-0.4L0.468,-0.324L0.189,-0.324L0.189,-0.079L0.534,-0.079Z" style="fill-rule:nonzero;"/>
            </g>
            <g transform="matrix(16,0,0,16,44.9432,181.226)">
                <path d="M0.498,-0.082L0.498,-0L0.092,-0L0.092,-0.717L0.188,-0.717L0.188,-0.082L0.498,-0.082Z" style="fill-rule:nonzero;"/>
            </g>
            <g transform="matrix(16,0,0,16,2.73918,197.226)">
                <path d="M0.189,-0.638L0.189,-0.387L0.483,-0.387L0.483,-0.308L0.189,-0.308L0.189,-0L0.092,-0L0.092,-0.717L0.533,-0.717L0.533,-0.638L0.189,-0.638Z" style="fill-rule:nonzero;"/>
            </g>
            <g transform="matrix(16,0,0,16,11.7872,197.226)">
                <path d="M0.498,-0.082L0.498,-0L0.092,-0L0.092,-0.717L0.188,-0.717L0.188,-0.082L0.498,-0.082Z" style="fill-rule:nonzero;"/>
            </g>
            <g transform="matrix(16,0,0,16,20.0032,197.226)">
                <rect x="0.092" y="-0.717" width="0.097" height="0.717" style="fill-rule:nonzero;"/>
            </g>
            <g transform="matrix(16,0,0,16,24.4832,197.226)">
                <path d="M0.674,-0.345L0.674,-0.07C0.638,-0.044 0.599,-0.024 0.558,-0.011C0.517,0.002 0.473,0.008 0.424,0.008C0.366,0.008 0.314,-0.001 0.268,-0.019C0.222,-0.037 0.182,-0.062 0.149,-0.094C0.116,-0.126 0.091,-0.165 0.074,-0.21C0.056,-0.255 0.047,-0.304 0.047,-0.358C0.047,-0.413 0.056,-0.463 0.073,-0.508C0.09,-0.553 0.114,-0.591 0.146,-0.623C0.178,-0.655 0.216,-0.68 0.262,-0.698C0.307,-0.716 0.358,-0.725 0.414,-0.725C0.442,-0.725 0.468,-0.722 0.493,-0.718C0.517,-0.714 0.539,-0.708 0.56,-0.7C0.581,-0.692 0.6,-0.683 0.618,-0.672C0.635,-0.661 0.652,-0.648 0.667,-0.634L0.64,-0.59C0.635,-0.583 0.63,-0.579 0.623,-0.577C0.616,-0.575 0.608,-0.577 0.6,-0.582C0.592,-0.587 0.583,-0.592 0.573,-0.599C0.562,-0.606 0.55,-0.612 0.535,-0.618C0.52,-0.624 0.502,-0.63 0.482,-0.634C0.462,-0.638 0.438,-0.641 0.411,-0.641C0.37,-0.641 0.334,-0.634 0.301,-0.621C0.268,-0.608 0.241,-0.589 0.218,-0.564C0.195,-0.54 0.177,-0.51 0.165,-0.475C0.152,-0.44 0.146,-0.401 0.146,-0.358C0.146,-0.313 0.152,-0.273 0.165,-0.237C0.178,-0.202 0.196,-0.172 0.22,-0.147C0.244,-0.122 0.273,-0.103 0.307,-0.09C0.341,-0.077 0.379,-0.071 0.422,-0.071C0.455,-0.071 0.484,-0.074 0.51,-0.082C0.536,-0.089 0.561,-0.1 0.586,-0.113L0.586,-0.271L0.475,-0.271C0.468,-0.271 0.463,-0.272 0.459,-0.276C0.455,-0.28 0.454,-0.284 0.454,-0.29L0.454,-0.345L0.674,-0.345Z" style="fill-rule:nonzero;"/>
            </g>
            <g transform="matrix(16,0,0,16,36.1712,197.226)">
                <path d="M0.672,-0.717L0.672,-0L0.575,-0L0.575,-0.326L0.189,-0.326L0.189,-0L0.092,-0L0.092,-0.717L0.189,-0.717L0.189,-0.397L0.575,-0.397L0.575,-0.717L0.672,-0.717Z" style="fill-rule:nonzero;"/>
            </g>
            <g transform="matrix(16,0,0,16,48.3872,197.226)">
                <path d="M0.576,-0.635L0.344,-0.635L0.344,-0L0.248,-0L0.248,-0.635L0.015,-0.635L0.015,-0.717L0.576,-0.717L0.576,-0.635Z" style="fill-rule:nonzero;"/>
            </g>
            <g transform="matrix(16,0,0,16,9.43118,213.226)">
                <path d="M0.754,-0.358C0.754,-0.304 0.745,-0.255 0.728,-0.21C0.711,-0.165 0.687,-0.127 0.656,-0.095C0.625,-0.062 0.588,-0.037 0.544,-0.019C0.501,-0.001 0.453,0.008 0.4,0.008C0.347,0.008 0.299,-0.001 0.256,-0.019C0.213,-0.037 0.175,-0.062 0.145,-0.095C0.114,-0.127 0.09,-0.165 0.073,-0.21C0.055,-0.255 0.047,-0.304 0.047,-0.358C0.047,-0.412 0.055,-0.461 0.073,-0.506C0.09,-0.551 0.114,-0.589 0.145,-0.622C0.175,-0.654 0.213,-0.68 0.256,-0.698C0.299,-0.716 0.347,-0.725 0.4,-0.725C0.453,-0.725 0.501,-0.716 0.544,-0.698C0.588,-0.68 0.625,-0.654 0.656,-0.622C0.687,-0.589 0.711,-0.551 0.728,-0.506C0.745,-0.461 0.754,-0.412 0.754,-0.358ZM0.654,-0.358C0.654,-0.402 0.648,-0.442 0.636,-0.477C0.624,-0.511 0.607,-0.541 0.585,-0.565C0.563,-0.589 0.536,-0.608 0.505,-0.621C0.474,-0.634 0.439,-0.641 0.4,-0.641C0.362,-0.641 0.327,-0.634 0.296,-0.621C0.264,-0.608 0.237,-0.589 0.215,-0.565C0.193,-0.541 0.176,-0.511 0.164,-0.477C0.152,-0.442 0.146,-0.402 0.146,-0.358C0.146,-0.314 0.152,-0.275 0.164,-0.24C0.176,-0.205 0.193,-0.175 0.215,-0.151C0.237,-0.127 0.264,-0.109 0.296,-0.096C0.327,-0.083 0.362,-0.077 0.4,-0.077C0.439,-0.077 0.474,-0.083 0.505,-0.096C0.536,-0.109 0.563,-0.127 0.585,-0.151C0.607,-0.175 0.624,-0.205 0.636,-0.24C0.648,-0.275 0.654,-0.314 0.654,-0.358Z" style="fill-rule:nonzero;"/>
            </g>
            <g transform="matrix(16,0,0,16,22.2392,213.226)">
                <path d="M0.672,-0.717L0.672,-0L0.624,-0C0.616,-0 0.609,-0.001 0.604,-0.004C0.599,-0.007 0.594,-0.011 0.589,-0.018L0.175,-0.558C0.175,-0.549 0.176,-0.541 0.176,-0.533C0.176,-0.525 0.177,-0.518 0.177,-0.511L0.177,-0L0.092,-0L0.092,-0.717L0.142,-0.717C0.146,-0.717 0.15,-0.716 0.153,-0.716C0.156,-0.715 0.158,-0.714 0.161,-0.713C0.163,-0.712 0.165,-0.71 0.168,-0.708C0.17,-0.706 0.172,-0.703 0.175,-0.7L0.59,-0.161C0.589,-0.169 0.588,-0.178 0.588,-0.186C0.587,-0.194 0.587,-0.202 0.587,-0.209L0.587,-0.717L0.672,-0.717Z" style="fill-rule:nonzero;"/>
            </g>
            <g transform="matrix(16,0,0,16,34.4552,213.226)">
                <path d="M0.498,-0.082L0.498,-0L0.092,-0L0.092,-0.717L0.188,-0.717L0.188,-0.082L0.498,-0.082Z" style="fill-rule:nonzero;"/>
            </g>
            <g transform="matrix(16,0,0,16,41.1592,213.226)">
                <path d="M0.361,-0.286L0.361,-0L0.264,-0L0.264,-0.286L0.001,-0.717L0.086,-0.717C0.095,-0.717 0.101,-0.714 0.107,-0.71C0.112,-0.706 0.116,-0.701 0.12,-0.694L0.284,-0.416C0.29,-0.404 0.295,-0.393 0.3,-0.383C0.305,-0.373 0.309,-0.362 0.313,-0.352C0.317,-0.362 0.321,-0.373 0.326,-0.383C0.33,-0.393 0.335,-0.404 0.341,-0.416L0.505,-0.694C0.507,-0.7 0.512,-0.705 0.517,-0.71C0.522,-0.714 0.529,-0.717 0.538,-0.717L0.623,-0.717L0.361,-0.286Z" style="fill-rule:nonzero;"/>
            </g>
        </g>
        <g transform="matrix(1,0,0,1,188.782,-111.232)">
            <g transform="matrix(16,0,0,16,8.13518,149.226)">
                <path d="M0.343,-0.077C0.371,-0.077 0.395,-0.08 0.415,-0.087C0.435,-0.093 0.451,-0.102 0.464,-0.113C0.477,-0.125 0.486,-0.138 0.492,-0.154C0.498,-0.17 0.501,-0.188 0.501,-0.207C0.501,-0.244 0.488,-0.273 0.462,-0.294C0.435,-0.316 0.396,-0.327 0.343,-0.327L0.188,-0.327L0.188,-0.077L0.343,-0.077ZM0.188,-0.64L0.188,-0.396L0.316,-0.396C0.343,-0.396 0.367,-0.399 0.387,-0.405C0.407,-0.411 0.424,-0.419 0.437,-0.43C0.45,-0.44 0.46,-0.453 0.467,-0.468C0.473,-0.483 0.476,-0.5 0.476,-0.518C0.476,-0.56 0.463,-0.591 0.438,-0.611C0.413,-0.63 0.373,-0.64 0.32,-0.64L0.188,-0.64ZM0.32,-0.717C0.364,-0.717 0.402,-0.712 0.434,-0.704C0.466,-0.695 0.492,-0.683 0.512,-0.667C0.533,-0.651 0.548,-0.631 0.558,-0.608C0.567,-0.585 0.572,-0.559 0.572,-0.53C0.572,-0.512 0.569,-0.495 0.564,-0.479C0.558,-0.463 0.55,-0.448 0.539,-0.434C0.528,-0.42 0.514,-0.407 0.497,-0.396C0.48,-0.385 0.461,-0.376 0.438,-0.369C0.491,-0.359 0.53,-0.34 0.557,-0.312C0.583,-0.285 0.597,-0.249 0.597,-0.204C0.597,-0.174 0.591,-0.146 0.58,-0.121C0.569,-0.096 0.552,-0.075 0.531,-0.057C0.509,-0.039 0.483,-0.025 0.452,-0.015C0.42,-0.005 0.385,-0 0.345,-0L0.092,-0L0.092,-0.717L0.32,-0.717Z" style="fill-rule:nonzero;"/>
            </g>
            <g transform="matrix(16,0,0,16,18.4792,149.226)">
                <path d="M0.754,-0.358C0.754,-0.304 0.745,-0.255 0.728,-0.21C0.711,-0.165 0.687,-0.127 0.656,-0.095C0.625,-0.062 0.588,-0.037 0.544,-0.019C0.501,-0.001 0.453,0.008 0.4,0.008C0.347,0.008 0.299,-0.001 0.256,-0.019C0.213,-0.037 0.175,-0.062 0.145,-0.095C0.114,-0.127 0.09,-0.165 0.073,-0.21C0.055,-0.255 0.047,-0.304 0.047,-0.358C0.047,-0.412 0.055,-0.461 0.073,-0.506C0.09,-0.551 0.114,-0.589 0.145,-0.622C0.175,-0.654 0.213,-0.68 0.256,-0.698C0.299,-0.716 0.347,-0.725 0.4,-0.725C0.453,-0.725 0.501,-0.716 0.544,-0.698C0.588,-0.68 0.625,-0.654 0.656,-0.622C0.687,-0.589 0.711,-0.551 0.728,-0.506C0.745,-0.461 0.754,-0.412 0.754,-0.358ZM0.654,-0.358C0.654,-0.402 0.648,-0.442 0.636,-0.477C0.624,-0.511 0.607,-0.541 0.585,-0.565C0.563,-0.589 0.536,-0.608 0.505,-0.621C0.474,-0.634 0.439,-0.641 0.4,-0.641C0.362,-0.641 0.327,-0.634 0.296,-0.621C0.264,-0.608 0.237,-0.589 0.215,-0.565C0.193,-0.541 0.176,-0.511 0.164,-0.477C0.152,-0.442 0.146,-0.402 0.146,-0.358C0.146,-0.314 0.152,-0.275 0.164,-0.24C0.176,-0.205 0.193,-0.175 0.215,-0.151C0.237,-0.127 0.264,-0.109 0.296,-0.096C0.327,-0.083 0.362,-0.077 0.4,-0.077C0.439,-0.077 0.474,-0.083 0.505,-0.096C0.536,-0.109 0.563,-0.127 0.585,-0.151C0.607,-0.175 0.624,-0.205 0.636,-0.24C0.648,-0.275 0.654,-0.314 0.654,-0.358Z" style="fill-rule:nonzero;"/>
            </g>
            <g transform="matrix(16,0,0,16,30.7752,149.226)">
                <path d="M0.576,-0.635L0.344,-0.635L0.344,-0L0.248,-0L0.248,-0.635L0.015,-0.635L0.015,-0.717L0.576,-0.717L0.576,-0.635Z" style="fill-rule:nonzero;"/>
            </g>
            <g transform="matrix(16,0,0,16,40.2232,149.226)">
                <path d="M0.672,-0.717L0.672,-0L0.575,-0L0.575,-0.326L0.189,-0.326L0.189,-0L0.092,-0L0.092,-0.717L0.189,-0.717L0.189,-0.397L0.575,-0.397L0.575,-0.717L0.672,-0.717Z" style="fill-rule:nonzero;"/>
            </g>
            <g transform="matrix(16,0,0,16,2.40718,165.226)">
                <path d="M0.181,-0.446C0.218,-0.454 0.253,-0.458 0.284,-0.458C0.321,-0.458 0.354,-0.452 0.383,-0.442C0.412,-0.431 0.436,-0.415 0.455,-0.396C0.474,-0.377 0.488,-0.354 0.498,-0.328C0.508,-0.301 0.513,-0.273 0.513,-0.242C0.513,-0.204 0.506,-0.169 0.493,-0.139C0.48,-0.108 0.462,-0.082 0.439,-0.06C0.416,-0.038 0.388,-0.021 0.357,-0.01C0.326,0.002 0.292,0.008 0.256,0.008C0.235,0.008 0.214,0.006 0.195,0.002C0.176,-0.002 0.158,-0.008 0.141,-0.015C0.124,-0.022 0.108,-0.03 0.094,-0.039C0.08,-0.048 0.067,-0.057 0.056,-0.068L0.084,-0.106C0.09,-0.114 0.097,-0.119 0.107,-0.119C0.114,-0.119 0.121,-0.116 0.13,-0.111C0.138,-0.106 0.148,-0.1 0.16,-0.094C0.172,-0.087 0.186,-0.081 0.202,-0.076C0.218,-0.071 0.238,-0.069 0.26,-0.069C0.285,-0.069 0.308,-0.073 0.328,-0.081C0.347,-0.089 0.365,-0.1 0.379,-0.115C0.393,-0.13 0.404,-0.147 0.412,-0.168C0.42,-0.189 0.424,-0.212 0.424,-0.238C0.424,-0.26 0.42,-0.28 0.414,-0.298C0.407,-0.316 0.397,-0.331 0.384,-0.344C0.371,-0.357 0.355,-0.367 0.335,-0.374C0.315,-0.381 0.292,-0.384 0.266,-0.384C0.248,-0.384 0.229,-0.383 0.21,-0.38C0.19,-0.377 0.17,-0.372 0.15,-0.365L0.094,-0.382L0.152,-0.717L0.491,-0.717L0.491,-0.678C0.491,-0.665 0.487,-0.654 0.479,-0.646C0.471,-0.638 0.458,-0.634 0.439,-0.634L0.214,-0.634L0.181,-0.446Z" style="fill-rule:nonzero;"/>
            </g>
            <g transform="matrix(16,0,0,16,11.6872,165.226)">
                <path d="M0.065,-0.523C0.07,-0.555 0.079,-0.584 0.092,-0.609C0.105,-0.634 0.122,-0.656 0.143,-0.673C0.163,-0.69 0.187,-0.702 0.213,-0.711C0.24,-0.72 0.268,-0.725 0.299,-0.725C0.329,-0.725 0.357,-0.72 0.383,-0.712C0.409,-0.703 0.431,-0.691 0.449,-0.675C0.468,-0.659 0.482,-0.639 0.493,-0.617C0.503,-0.594 0.508,-0.569 0.508,-0.541C0.508,-0.518 0.505,-0.498 0.499,-0.48C0.493,-0.462 0.485,-0.447 0.474,-0.434C0.463,-0.42 0.45,-0.409 0.435,-0.4C0.42,-0.39 0.403,-0.383 0.384,-0.377C0.43,-0.365 0.465,-0.344 0.489,-0.315C0.512,-0.286 0.524,-0.249 0.524,-0.206C0.524,-0.173 0.518,-0.143 0.505,-0.117C0.493,-0.09 0.476,-0.068 0.454,-0.049C0.432,-0.031 0.407,-0.017 0.378,-0.007C0.349,0.003 0.319,0.008 0.286,0.008C0.248,0.008 0.215,0.003 0.188,-0.006C0.161,-0.016 0.138,-0.029 0.12,-0.046C0.101,-0.062 0.086,-0.082 0.074,-0.105C0.062,-0.128 0.051,-0.152 0.043,-0.179L0.082,-0.195C0.092,-0.199 0.101,-0.201 0.111,-0.199C0.12,-0.197 0.127,-0.191 0.132,-0.182C0.136,-0.173 0.141,-0.162 0.148,-0.149C0.154,-0.135 0.163,-0.123 0.175,-0.111C0.186,-0.099 0.2,-0.089 0.218,-0.081C0.235,-0.072 0.258,-0.068 0.285,-0.068C0.31,-0.068 0.331,-0.072 0.35,-0.08C0.369,-0.088 0.385,-0.099 0.397,-0.112C0.41,-0.125 0.419,-0.139 0.426,-0.156C0.432,-0.171 0.435,-0.187 0.435,-0.203C0.435,-0.222 0.432,-0.24 0.428,-0.256C0.423,-0.272 0.413,-0.286 0.4,-0.298C0.386,-0.309 0.367,-0.318 0.343,-0.325C0.319,-0.332 0.289,-0.335 0.252,-0.335L0.252,-0.4C0.282,-0.4 0.308,-0.403 0.33,-0.41C0.351,-0.416 0.369,-0.424 0.382,-0.436C0.396,-0.447 0.406,-0.46 0.412,-0.475C0.418,-0.49 0.421,-0.507 0.421,-0.526C0.421,-0.547 0.418,-0.565 0.411,-0.58C0.405,-0.595 0.396,-0.608 0.385,-0.618C0.373,-0.628 0.36,-0.635 0.344,-0.641C0.329,-0.646 0.312,-0.648 0.294,-0.648C0.276,-0.648 0.259,-0.645 0.244,-0.64C0.228,-0.635 0.215,-0.627 0.203,-0.618C0.191,-0.608 0.181,-0.597 0.173,-0.584C0.165,-0.571 0.159,-0.557 0.156,-0.541C0.152,-0.529 0.146,-0.522 0.14,-0.518C0.133,-0.514 0.124,-0.513 0.112,-0.515L0.065,-0.523Z" style="fill-rule:nonzero;"/>
            </g>
            <g transform="matrix(16,0,0,16,20.9672,165.226)">
                <path d="M0.056,-0.055C0.056,-0.064 0.057,-0.072 0.06,-0.08C0.063,-0.087 0.068,-0.094 0.073,-0.1C0.079,-0.105 0.085,-0.11 0.093,-0.113C0.101,-0.116 0.109,-0.118 0.118,-0.118C0.126,-0.118 0.134,-0.116 0.142,-0.113C0.15,-0.11 0.156,-0.105 0.162,-0.1C0.168,-0.094 0.172,-0.087 0.176,-0.08C0.179,-0.072 0.181,-0.064 0.181,-0.055C0.181,-0.046 0.179,-0.038 0.176,-0.03C0.172,-0.023 0.168,-0.016 0.162,-0.011C0.156,-0.005 0.15,-0 0.142,0.003C0.134,0.006 0.126,0.008 0.118,0.008C0.109,0.008 0.101,0.006 0.093,0.003C0.085,-0 0.079,-0.005 0.073,-0.011C0.068,-0.016 0.063,-0.023 0.06,-0.03C0.057,-0.038 0.056,-0.046 0.056,-0.055Z" style="fill-rule:nonzero;"/>
            </g>
            <g transform="matrix(16,0,0,16,24.7432,165.226)">
                <path d="M0.55,-0.358C0.55,-0.295 0.543,-0.241 0.53,-0.195C0.516,-0.149 0.498,-0.112 0.475,-0.082C0.451,-0.051 0.424,-0.029 0.392,-0.015C0.36,0 0.326,0.008 0.29,0.008C0.253,0.008 0.219,0 0.187,-0.015C0.156,-0.029 0.128,-0.051 0.105,-0.082C0.082,-0.112 0.063,-0.149 0.05,-0.195C0.037,-0.241 0.03,-0.295 0.03,-0.358C0.03,-0.421 0.037,-0.475 0.05,-0.521C0.063,-0.567 0.082,-0.605 0.105,-0.635C0.128,-0.665 0.156,-0.688 0.187,-0.703C0.219,-0.717 0.253,-0.725 0.29,-0.725C0.326,-0.725 0.36,-0.717 0.392,-0.703C0.424,-0.688 0.451,-0.665 0.475,-0.635C0.498,-0.605 0.516,-0.567 0.53,-0.521C0.543,-0.475 0.55,-0.421 0.55,-0.358ZM0.458,-0.358C0.458,-0.413 0.453,-0.459 0.444,-0.496C0.435,-0.533 0.422,-0.563 0.407,-0.586C0.391,-0.608 0.373,-0.624 0.353,-0.634C0.333,-0.644 0.312,-0.649 0.29,-0.649C0.268,-0.649 0.246,-0.644 0.226,-0.634C0.206,-0.624 0.188,-0.608 0.173,-0.586C0.157,-0.563 0.145,-0.533 0.136,-0.496C0.127,-0.459 0.122,-0.413 0.122,-0.358C0.122,-0.303 0.127,-0.258 0.136,-0.221C0.145,-0.184 0.157,-0.154 0.173,-0.131C0.188,-0.108 0.206,-0.092 0.226,-0.082C0.246,-0.072 0.268,-0.068 0.29,-0.068C0.312,-0.068 0.333,-0.072 0.353,-0.082C0.373,-0.092 0.391,-0.108 0.407,-0.131C0.422,-0.154 0.435,-0.184 0.444,-0.221C0.453,-0.258 0.458,-0.303 0.458,-0.358Z" style="fill-rule:nonzero;"/>
            </g>
            <g transform="matrix(16,0,0,16,38.1192,165.226)">
                <path d="M0.247,-0.248C0.265,-0.247 0.281,-0.25 0.295,-0.255C0.308,-0.26 0.32,-0.267 0.329,-0.276C0.338,-0.285 0.345,-0.296 0.35,-0.308C0.355,-0.321 0.357,-0.335 0.357,-0.35C0.357,-0.381 0.348,-0.405 0.329,-0.424C0.31,-0.442 0.283,-0.451 0.247,-0.451C0.211,-0.451 0.184,-0.442 0.165,-0.424C0.146,-0.405 0.137,-0.381 0.137,-0.35C0.137,-0.335 0.139,-0.321 0.144,-0.308C0.149,-0.296 0.156,-0.285 0.165,-0.276C0.174,-0.267 0.186,-0.26 0.2,-0.255C0.213,-0.25 0.229,-0.247 0.247,-0.248ZM0.408,0.028C0.408,0.015 0.404,0.005 0.397,-0.003C0.39,-0.01 0.381,-0.016 0.369,-0.021C0.357,-0.025 0.343,-0.028 0.328,-0.03C0.312,-0.032 0.295,-0.033 0.278,-0.034C0.26,-0.035 0.243,-0.036 0.225,-0.037C0.207,-0.038 0.189,-0.04 0.173,-0.042C0.154,-0.033 0.139,-0.022 0.127,-0.009C0.115,0.004 0.109,0.019 0.109,0.037C0.109,0.048 0.112,0.059 0.118,0.069C0.124,0.079 0.132,0.087 0.145,0.094C0.157,0.101 0.172,0.107 0.19,0.111C0.208,0.115 0.229,0.118 0.254,0.118C0.278,0.118 0.3,0.115 0.319,0.111C0.338,0.107 0.354,0.1 0.367,0.093C0.38,0.085 0.39,0.075 0.397,0.064C0.404,0.053 0.408,0.041 0.408,0.028ZM0.498,-0.487L0.498,-0.454C0.498,-0.443 0.491,-0.436 0.477,-0.433L0.42,-0.425C0.431,-0.403 0.436,-0.379 0.437,-0.352C0.436,-0.327 0.432,-0.305 0.422,-0.285C0.413,-0.265 0.4,-0.247 0.383,-0.233C0.366,-0.219 0.346,-0.208 0.323,-0.2C0.3,-0.192 0.274,-0.189 0.247,-0.189C0.223,-0.189 0.201,-0.191 0.18,-0.197C0.169,-0.19 0.161,-0.183 0.156,-0.176C0.15,-0.168 0.147,-0.161 0.147,-0.153C0.147,-0.141 0.152,-0.132 0.162,-0.126C0.172,-0.12 0.185,-0.115 0.201,-0.113C0.217,-0.11 0.235,-0.108 0.255,-0.108C0.276,-0.107 0.297,-0.106 0.318,-0.104C0.34,-0.103 0.361,-0.1 0.381,-0.097C0.402,-0.093 0.42,-0.087 0.436,-0.079C0.452,-0.07 0.465,-0.059 0.475,-0.044C0.485,-0.029 0.49,-0.01 0.49,0.013C0.49,0.035 0.484,0.056 0.473,0.076C0.462,0.096 0.447,0.114 0.427,0.13C0.406,0.146 0.381,0.159 0.352,0.168C0.322,0.178 0.289,0.183 0.252,0.183C0.215,0.183 0.183,0.179 0.155,0.172C0.127,0.164 0.104,0.154 0.086,0.142C0.068,0.13 0.054,0.115 0.045,0.099C0.036,0.083 0.031,0.066 0.031,0.049C0.031,0.024 0.039,0.002 0.055,-0.015C0.07,-0.032 0.092,-0.046 0.119,-0.057C0.104,-0.063 0.092,-0.072 0.083,-0.083C0.074,-0.094 0.07,-0.11 0.07,-0.129C0.07,-0.136 0.071,-0.143 0.074,-0.151C0.077,-0.159 0.081,-0.167 0.086,-0.175C0.092,-0.183 0.098,-0.19 0.107,-0.197C0.115,-0.204 0.124,-0.21 0.135,-0.216C0.11,-0.23 0.09,-0.248 0.076,-0.271C0.062,-0.294 0.055,-0.321 0.055,-0.352C0.055,-0.377 0.06,-0.399 0.069,-0.419C0.079,-0.439 0.092,-0.457 0.109,-0.471C0.126,-0.485 0.146,-0.496 0.17,-0.504C0.193,-0.511 0.219,-0.515 0.247,-0.515C0.269,-0.515 0.29,-0.513 0.309,-0.508C0.328,-0.503 0.345,-0.496 0.361,-0.487L0.498,-0.487Z" style="fill-rule:nonzero;"/>
            </g>
            <g transform="matrix(16,0,0,16,46.4392,165.226)">
                <path d="M0.345,-0.228C0.304,-0.227 0.269,-0.223 0.24,-0.218C0.211,-0.213 0.188,-0.206 0.17,-0.198C0.152,-0.19 0.138,-0.18 0.13,-0.169C0.122,-0.157 0.118,-0.145 0.118,-0.131C0.118,-0.117 0.12,-0.106 0.125,-0.096C0.129,-0.086 0.135,-0.078 0.142,-0.072C0.15,-0.066 0.159,-0.062 0.169,-0.059C0.179,-0.056 0.19,-0.055 0.202,-0.055C0.217,-0.055 0.232,-0.056 0.245,-0.059C0.258,-0.062 0.27,-0.067 0.281,-0.073C0.293,-0.079 0.304,-0.086 0.314,-0.095C0.325,-0.103 0.335,-0.112 0.345,-0.123L0.345,-0.228ZM0.058,-0.435C0.086,-0.462 0.116,-0.482 0.148,-0.496C0.18,-0.509 0.216,-0.516 0.256,-0.516C0.284,-0.516 0.309,-0.511 0.331,-0.502C0.353,-0.492 0.372,-0.479 0.387,-0.463C0.402,-0.446 0.413,-0.426 0.421,-0.402C0.428,-0.378 0.432,-0.352 0.432,-0.324L0.432,-0L0.393,-0C0.384,-0 0.377,-0.001 0.373,-0.004C0.368,-0.007 0.364,-0.013 0.362,-0.021L0.352,-0.069C0.338,-0.057 0.325,-0.046 0.313,-0.036C0.3,-0.027 0.286,-0.019 0.273,-0.012C0.259,-0.006 0.244,-0.001 0.228,0.003C0.212,0.006 0.194,0.008 0.175,0.008C0.155,0.008 0.137,0.005 0.12,-0C0.102,-0.006 0.087,-0.014 0.074,-0.025C0.061,-0.036 0.051,-0.05 0.044,-0.067C0.036,-0.084 0.033,-0.103 0.033,-0.127C0.033,-0.147 0.038,-0.166 0.049,-0.184C0.06,-0.203 0.078,-0.219 0.103,-0.234C0.127,-0.248 0.159,-0.26 0.199,-0.269C0.239,-0.278 0.287,-0.283 0.345,-0.285L0.345,-0.324C0.345,-0.363 0.337,-0.393 0.32,-0.413C0.303,-0.433 0.278,-0.444 0.245,-0.444C0.223,-0.444 0.205,-0.441 0.19,-0.435C0.175,-0.43 0.162,-0.424 0.151,-0.417C0.14,-0.41 0.131,-0.404 0.123,-0.398C0.115,-0.393 0.108,-0.39 0.1,-0.39C0.094,-0.39 0.089,-0.392 0.085,-0.395C0.08,-0.398 0.077,-0.402 0.074,-0.407L0.058,-0.435Z" style="fill-rule:nonzero;"/>
            </g>
            <g transform="matrix(16,0,0,16,54.3912,165.226)">
                <rect x="0.074" y="-0.737" width="0.089" height="0.737" style="fill-rule:nonzero;"/>
            </g>
        </g>
        <g transform="matrix(1,0,0,1,365.209,50.1047)">
            <g transform="matrix(16,0,0,16,6.35918,149.226)">
                <path d="M0.29,-0.37C0.318,-0.37 0.343,-0.373 0.364,-0.38C0.386,-0.387 0.404,-0.396 0.418,-0.409C0.433,-0.421 0.444,-0.436 0.451,-0.454C0.458,-0.471 0.462,-0.49 0.462,-0.511C0.462,-0.554 0.448,-0.586 0.42,-0.608C0.392,-0.629 0.35,-0.64 0.294,-0.64L0.188,-0.64L0.188,-0.37L0.29,-0.37ZM0.621,-0L0.535,-0C0.517,-0 0.504,-0.007 0.496,-0.021L0.31,-0.277C0.304,-0.284 0.298,-0.29 0.292,-0.294C0.285,-0.297 0.275,-0.299 0.262,-0.299L0.188,-0.299L0.188,-0L0.092,-0L0.092,-0.717L0.294,-0.717C0.339,-0.717 0.379,-0.712 0.412,-0.703C0.445,-0.694 0.472,-0.68 0.493,-0.663C0.515,-0.646 0.531,-0.625 0.541,-0.6C0.551,-0.576 0.557,-0.548 0.557,-0.518C0.557,-0.493 0.553,-0.469 0.545,-0.447C0.537,-0.425 0.525,-0.405 0.51,-0.388C0.495,-0.37 0.476,-0.355 0.454,-0.343C0.432,-0.331 0.408,-0.321 0.38,-0.315C0.392,-0.308 0.403,-0.298 0.412,-0.285L0.621,-0Z" style="fill-rule:nonzero;"/>
            </g>
            <g transform="matrix(16,0,0,16,16.3832,149.226)">
                <rect x="0.092" y="-0.717" width="0.097" height="0.717" style="fill-rule:nonzero;"/>
            </g>
            <g transform="matrix(16,0,0,16,20.8632,149.226)">
                <path d="M0.674,-0.345L0.674,-0.07C0.638,-0.044 0.599,-0.024 0.558,-0.011C0.517,0.002 0.473,0.008 0.424,0.008C0.366,0.008 0.314,-0.001 0.268,-0.019C0.222,-0.037 0.182,-0.062 0.149,-0.094C0.116,-0.126 0.091,-0.165 0.074,-0.21C0.056,-0.255 0.047,-0.304 0.047,-0.358C0.047,-0.413 0.056,-0.463 0.073,-0.508C0.09,-0.553 0.114,-0.591 0.146,-0.623C0.178,-0.655 0.216,-0.68 0.262,-0.698C0.307,-0.716 0.358,-0.725 0.414,-0.725C0.442,-0.725 0.468,-0.722 0.493,-0.718C0.517,-0.714 0.539,-0.708 0.56,-0.7C0.581,-0.692 0.6,-0.683 0.618,-0.672C0.635,-0.661 0.652,-0.648 0.667,-0.634L0.64,-0.59C0.635,-0.583 0.63,-0.579 0.623,-0.577C0.616,-0.575 0.608,-0.577 0.6,-0.582C0.592,-0.587 0.583,-0.592 0.573,-0.599C0.562,-0.606 0.55,-0.612 0.535,-0.618C0.52,-0.624 0.502,-0.63 0.482,-0.634C0.462,-0.638 0.438,-0.641 0.411,-0.641C0.37,-0.641 0.334,-0.634 0.301,-0.621C0.268,-0.608 0.241,-0.589 0.218,-0.564C0.195,-0.54 0.177,-0.51 0.165,-0.475C0.152,-0.44 0.146,-0.401 0.146,-0.358C0.146,-0.313 0.152,-0.273 0.165,-0.237C0.178,-0.202 0.196,-0.172 0.22,-0.147C0.244,-0.122 0.273,-0.103 0.307,-0.09C0.341,-0.077 0.379,-0.071 0.422,-0.071C0.455,-0.071 0.484,-0.074 0.51,-0.082C0.536,-0.089 0.561,-0.1 0.586,-0.113L0.586,-0.271L0.475,-0.271C0.468,-0.271 0.463,-0.272 0.459,-0.276C0.455,-0.28 0.454,-0.284 0.454,-0.29L0.454,-0.345L0.674,-0.345Z" style="fill-rule:nonzero;"/>
            </g>
            <g transform="matrix(16,0,0,16,32.5512,149.226)">
                <path d="M0.672,-0.717L0.672,-0L0.575,-0L0.575,-0.326L0.189,-0.326L0.189,-0L0.092,-0L0.092,-0.717L0.189,-0.717L0.189,-0.397L0.575,-0.397L0.575,-0.717L0.672,-0.717Z" style="fill-rule:nonzero;"/>
            </g>
            <g transform="matrix(16,0,0,16,44.7672,149.226)">
                <path d="M0.576,-0.635L0.344,-0.635L0.344,-0L0.248,-0L0.248,-0.635L0.015,-0.635L0.015,-0.717L0.576,-0.717L0.576,-0.635Z" style="fill-rule:nonzero;"/>
            </g>
            <g transform="matrix(16,0,0,16,2.40718,165.226)">
                <path d="M0.494,-0.085C0.503,-0.085 0.511,-0.082 0.517,-0.076C0.522,-0.07 0.525,-0.063 0.525,-0.054L0.525,-0L0.047,-0L0.047,-0.031C0.047,-0.037 0.048,-0.043 0.051,-0.05C0.054,-0.057 0.058,-0.063 0.064,-0.069L0.293,-0.299C0.312,-0.318 0.329,-0.337 0.345,-0.355C0.361,-0.373 0.374,-0.391 0.385,-0.409C0.396,-0.427 0.405,-0.445 0.411,-0.463C0.417,-0.482 0.42,-0.501 0.42,-0.523C0.42,-0.544 0.416,-0.562 0.41,-0.578C0.403,-0.594 0.394,-0.607 0.382,-0.617C0.371,-0.627 0.357,-0.635 0.342,-0.64C0.326,-0.645 0.309,-0.648 0.291,-0.648C0.273,-0.648 0.256,-0.645 0.241,-0.64C0.225,-0.635 0.212,-0.627 0.2,-0.618C0.188,-0.608 0.178,-0.597 0.17,-0.584C0.162,-0.571 0.156,-0.557 0.153,-0.541C0.149,-0.529 0.144,-0.522 0.137,-0.518C0.13,-0.514 0.12,-0.513 0.108,-0.515L0.062,-0.523C0.066,-0.555 0.075,-0.584 0.089,-0.609C0.102,-0.634 0.119,-0.656 0.14,-0.673C0.16,-0.69 0.184,-0.702 0.21,-0.711C0.236,-0.72 0.265,-0.725 0.296,-0.725C0.326,-0.725 0.354,-0.72 0.381,-0.711C0.407,-0.702 0.43,-0.689 0.449,-0.672C0.468,-0.655 0.484,-0.634 0.495,-0.609C0.505,-0.584 0.511,-0.556 0.511,-0.525C0.511,-0.498 0.507,-0.474 0.499,-0.451C0.491,-0.428 0.48,-0.406 0.467,-0.386C0.453,-0.365 0.437,-0.345 0.419,-0.325C0.401,-0.305 0.383,-0.286 0.363,-0.266L0.174,-0.073C0.187,-0.076 0.2,-0.079 0.214,-0.081C0.228,-0.083 0.241,-0.085 0.254,-0.085L0.494,-0.085Z" style="fill-rule:nonzero;"/>
            </g>
            <g transform="matrix(16,0,0,16,11.6872,165.226)">
                <path d="M0.289,-0.066C0.313,-0.066 0.335,-0.07 0.354,-0.078C0.374,-0.085 0.39,-0.096 0.404,-0.11C0.418,-0.123 0.429,-0.139 0.436,-0.158C0.444,-0.177 0.448,-0.197 0.448,-0.219C0.448,-0.242 0.444,-0.263 0.437,-0.282C0.429,-0.301 0.419,-0.317 0.405,-0.33C0.392,-0.343 0.376,-0.354 0.357,-0.361C0.338,-0.368 0.318,-0.371 0.296,-0.371C0.272,-0.371 0.25,-0.367 0.231,-0.359C0.211,-0.351 0.195,-0.34 0.181,-0.326C0.168,-0.312 0.157,-0.296 0.15,-0.278C0.143,-0.26 0.14,-0.241 0.14,-0.221C0.14,-0.198 0.143,-0.177 0.15,-0.158C0.156,-0.139 0.166,-0.123 0.179,-0.109C0.192,-0.095 0.207,-0.085 0.226,-0.077C0.244,-0.07 0.265,-0.066 0.289,-0.066ZM0.237,-0.448C0.231,-0.44 0.225,-0.432 0.219,-0.425C0.213,-0.417 0.207,-0.41 0.202,-0.403C0.219,-0.414 0.238,-0.423 0.258,-0.43C0.278,-0.436 0.301,-0.439 0.325,-0.439C0.354,-0.439 0.381,-0.434 0.407,-0.425C0.432,-0.415 0.455,-0.401 0.474,-0.383C0.493,-0.365 0.508,-0.343 0.52,-0.316C0.531,-0.29 0.537,-0.26 0.537,-0.226C0.537,-0.193 0.531,-0.162 0.519,-0.134C0.507,-0.105 0.49,-0.081 0.468,-0.06C0.447,-0.039 0.421,-0.022 0.391,-0.01C0.361,0.002 0.327,0.008 0.291,0.008C0.255,0.008 0.222,0.002 0.193,-0.009C0.164,-0.021 0.139,-0.037 0.118,-0.058C0.098,-0.079 0.082,-0.105 0.071,-0.135C0.06,-0.165 0.054,-0.199 0.054,-0.237C0.054,-0.268 0.061,-0.301 0.075,-0.337C0.089,-0.372 0.111,-0.41 0.141,-0.451L0.323,-0.695C0.328,-0.701 0.334,-0.706 0.342,-0.71C0.35,-0.714 0.36,-0.717 0.371,-0.717L0.45,-0.717L0.237,-0.448Z" style="fill-rule:nonzero;"/>
            </g>
            <g transform="matrix(16,0,0,16,20.9672,165.226)">
                <path d="M0.056,-0.055C0.056,-0.064 0.057,-0.072 0.06,-0.08C0.063,-0.087 0.068,-0.094 0.073,-0.1C0.079,-0.105 0.085,-0.11 0.093,-0.113C0.101,-0.116 0.109,-0.118 0.118,-0.118C0.126,-0.118 0.134,-0.116 0.142,-0.113C0.15,-0.11 0.156,-0.105 0.162,-0.1C0.168,-0.094 0.172,-0.087 0.176,-0.08C0.179,-0.072 0.181,-0.064 0.181,-0.055C0.181,-0.046 0.179,-0.038 0.176,-0.03C0.172,-0.023 0.168,-0.016 0.162,-0.011C0.156,-0.005 0.15,-0 0.142,0.003C0.134,0.006 0.126,0.008 0.118,0.008C0.109,0.008 0.101,0.006 0.093,0.003C0.085,-0 0.079,-0.005 0.073,-0.011C0.068,-0.016 0.063,-0.023 0.06,-0.03C0.057,-0.038 0.056,-0.046 0.056,-0.055Z" style="fill-rule:nonzero;"/>
            </g>
            <g transform="matrix(16,0,0,16,24.7432,165.226)">
                <path d="M0.181,-0.446C0.218,-0.454 0.253,-0.458 0.284,-0.458C0.321,-0.458 0.354,-0.452 0.383,-0.442C0.412,-0.431 0.436,-0.415 0.455,-0.396C0.474,-0.377 0.488,-0.354 0.498,-0.328C0.508,-0.301 0.513,-0.273 0.513,-0.242C0.513,-0.204 0.506,-0.169 0.493,-0.139C0.48,-0.108 0.462,-0.082 0.439,-0.06C0.416,-0.038 0.388,-0.021 0.357,-0.01C0.326,0.002 0.292,0.008 0.256,0.008C0.235,0.008 0.214,0.006 0.195,0.002C0.176,-0.002 0.158,-0.008 0.141,-0.015C0.124,-0.022 0.108,-0.03 0.094,-0.039C0.08,-0.048 0.067,-0.057 0.056,-0.068L0.084,-0.106C0.09,-0.114 0.097,-0.119 0.107,-0.119C0.114,-0.119 0.121,-0.116 0.13,-0.111C0.138,-0.106 0.148,-0.1 0.16,-0.094C0.172,-0.087 0.186,-0.081 0.202,-0.076C0.218,-0.071 0.238,-0.069 0.26,-0.069C0.285,-0.069 0.308,-0.073 0.328,-0.081C0.347,-0.089 0.365,-0.1 0.379,-0.115C0.393,-0.13 0.404,-0.147 0.412,-0.168C0.42,-0.189 0.424,-0.212 0.424,-0.238C0.424,-0.26 0.42,-0.28 0.414,-0.298C0.407,-0.316 0.397,-0.331 0.384,-0.344C0.371,-0.357 0.355,-0.367 0.335,-0.374C0.315,-0.381 0.292,-0.384 0.266,-0.384C0.248,-0.384 0.229,-0.383 0.21,-0.38C0.19,-0.377 0.17,-0.372 0.15,-0.365L0.094,-0.382L0.152,-0.717L0.491,-0.717L0.491,-0.678C0.491,-0.665 0.487,-0.654 0.479,-0.646C0.471,-0.638 0.458,-0.634 0.439,-0.634L0.214,-0.634L0.181,-0.446Z" style="fill-rule:nonzero;"/>
            </g>
            <g transform="matrix(16,0,0,16,38.1192,165.226)">
                <path d="M0.247,-0.248C0.265,-0.247 0.281,-0.25 0.295,-0.255C0.308,-0.26 0.32,-0.267 0.329,-0.276C0.338,-0.285 0.345,-0.296 0.35,-0.308C0.355,-0.321 0.357,-0.335 0.357,-0.35C0.357,-0.381 0.348,-0.405 0.329,-0.424C0.31,-0.442 0.283,-0.451 0.247,-0.451C0.211,-0.451 0.184,-0.442 0.165,-0.424C0.146,-0.405 0.137,-0.381 0.137,-0.35C0.137,-0.335 0.139,-0.321 0.144,-0.308C0.149,-0.296 0.156,-0.285 0.165,-0.276C0.174,-0.267 0.186,-0.26 0.2,-0.255C0.213,-0.25 0.229,-0.247 0.247,-0.248ZM0.408,0.028C0.408,0.015 0.404,0.005 0.397,-0.003C0.39,-0.01 0.381,-0.016 0.369,-0.021C0.357,-0.025 0.343,-0.028 0.328,-0.03C0.312,-0.032 0.295,-0.033 0.278,-0.034C0.26,-0.035 0.243,-0.036 0.225,-0.037C0.207,-0.038 0.189,-0.04 0.173,-0.042C0.154,-0.033 0.139,-0.022 0.127,-0.009C0.115,0.004 0.109,0.019 0.109,0.037C0.109,0.048 0.112,0.059 0.118,0.069C0.124,0.079 0.132,0.087 0.145,0.094C0.157,0.101 0.172,0.107 0.19,0.111C0.208,0.115 0.229,0.118 0.254,0.118C0.278,0.118 0.3,0.115 0.319,0.111C0.338,0.107 0.354,0.1 0.367,0.093C0.38,0.085 0.39,0.075 0.397,0.064C0.404,0.053 0.408,0.041 0.408,0.028ZM0.498,-0.487L0.498,-0.454C0.498,-0.443 0.491,-0.436 0.477,-0.433L0.42,-0.425C0.431,-0.403 0.436,-0.379 0.437,-0.352C0.436,-0.327 0.432,-0.305 0.422,-0.285C0.413,-0.265 0.4,-0.247 0.383,-0.233C0.366,-0.219 0.346,-0.208 0.323,-0.2C0.3,-0.192 0.274,-0.189 0.247,-0.189C0.223,-0.189 0.201,-0.191 0.18,-0.197C0.169,-0.19 0.161,-0.183 0.156,-0.176C0.15,-0.168 0.147,-0.161 0.147,-0.153C0.147,-0.141 0.152,-0.132 0.162,-0.126C0.172,-0.12 0.185,-0.115 0.201,-0.113C0.217,-0.11 0.235,-0.108 0.255,-0.108C0.276,-0.107 0.297,-0.106 0.318,-0.104C0.34,-0.103 0.361,-0.1 0.381,-0.097C0.402,-0.093 0.42,-0.087 0.436,-0.079C0.452,-0.07 0.465,-0.059 0.475,-0.044C0.485,-0.029 0.49,-0.01 0.49,0.013C0.49,0.035 0.484,0.056 0.473,0.076C0.462,0.096 0.447,0.114 0.427,0.13C0.406,0.146 0.381,0.159 0.352,0.168C0.322,0.178 0.289,0.183 0.252,0.183C0.215,0.183 0.183,0.179 0.155,0.172C0.127,0.164 0.104,0.154 0.086,0.142C0.068,0.13 0.054,0.115 0.045,0.099C0.036,0.083 0.031,0.066 0.031,0.049C0.031,0.024 0.039,0.002 0.055,-0.015C0.07,-0.032 0.092,-0.046 0.119,-0.057C0.104,-0.063 0.092,-0.072 0.083,-0.083C0.074,-0.094 0.07,-0.11 0.07,-0.129C0.07,-0.136 0.071,-0.143 0.074,-0.151C0.077,-0.159 0.081,-0.167 0.086,-0.175C0.092,-0.183 0.098,-0.19 0.107,-0.197C0.115,-0.204 0.124,-0.21 0.135,-0.216C0.11,-0.23 0.09,-0.248 0.076,-0.271C0.062,-0.294 0.055,-0.321 0.055,-0.352C0.055,-0.377 0.06,-0.399 0.069,-0.419C0.079,-0.439 0.092,-0.457 0.109,-0.471C0.126,-0.485 0.146,-0.496 0.17,-0.504C0.193,-0.511 0.219,-0.515 0.247,-0.515C0.269,-0.515 0.29,-0.513 0.309,-0.508C0.328,-0.503 0.345,-0.496 0.361,-0.487L0.498,-0.487Z" style="fill-rule:nonzero;"/>
            </g>
            <g transform="matrix(16,0,0,16,46.4392,165.226)">
                <path d="M0.345,-0.228C0.304,-0.227 0.269,-0.223 0.24,-0.218C0.211,-0.213 0.188,-0.206 0.17,-0.198C0.152,-0.19 0.138,-0.18 0.13,-0.169C0.122,-0.157 0.118,-0.145 0.118,-0.131C0.118,-0.117 0.12,-0.106 0.125,-0.096C0.129,-0.086 0.135,-0.078 0.142,-0.072C0.15,-0.066 0.159,-0.062 0.169,-0.059C0.179,-0.056 0.19,-0.055 0.202,-0.055C0.217,-0.055 0.232,-0.056 0.245,-0.059C0.258,-0.062 0.27,-0.067 0.281,-0.073C0.293,-0.079 0.304,-0.086 0.314,-0.095C0.325,-0.103 0.335,-0.112 0.345,-0.123L0.345,-0.228ZM0.058,-0.435C0.086,-0.462 0.116,-0.482 0.148,-0.496C0.18,-0.509 0.216,-0.516 0.256,-0.516C0.284,-0.516 0.309,-0.511 0.331,-0.502C0.353,-0.492 0.372,-0.479 0.387,-0.463C0.402,-0.446 0.413,-0.426 0.421,-0.402C0.428,-0.378 0.432,-0.352 0.432,-0.324L0.432,-0L0.393,-0C0.384,-0 0.377,-0.001 0.373,-0.004C0.368,-0.007 0.364,-0.013 0.362,-0.021L0.352,-0.069C0.338,-0.057 0.325,-0.046 0.313,-0.036C0.3,-0.027 0.286,-0.019 0.273,-0.012C0.259,-0.006 0.244,-0.001 0.228,0.003C0.212,0.006 0.194,0.008 0.175,0.008C0.155,0.008 0.137,0.005 0.12,-0C0.102,-0.006 0.087,-0.014 0.074,-0.025C0.061,-0.036 0.051,-0.05 0.044,-0.067C0.036,-0.084 0.033,-0.103 0.033,-0.127C0.033,-0.147 0.038,-0.166 0.049,-0.184C0.06,-0.203 0.078,-0.219 0.103,-0.234C0.127,-0.248 0.159,-0.26 0.199,-0.269C0.239,-0.278 0.287,-0.283 0.345,-0.285L0.345,-0.324C0.345,-0.363 0.337,-0.393 0.32,-0.413C0.303,-0.433 0.278,-0.444 0.245,-0.444C0.223,-0.444 0.205,-0.441 0.19,-0.435C0.175,-0.43 0.162,-0.424 0.151,-0.417C0.14,-0.41 0.131,-0.404 0.123,-0.398C0.115,-0.393 0.108,-0.39 0.1,-0.39C0.094,-0.39 0.089,-0.392 0.085,-0.395C0.08,-0.398 0.077,-0.402 0.074,-0.407L0.058,-0.435Z" style="fill-rule:nonzero;"/>
            </g>
            <g transform="matrix(16,0,0,16,54.3912,165.226)">
                <rect x="0.074" y="-0.737" width="0.089" height="0.737" style="fill-rule:nonzero;"/>
            </g>
            <g transform="matrix(16,0,0,16,7.41518,181.226)">
                <path d="M0.498,-0.082L0.498,-0L0.092,-0L0.092,-0.717L0.188,-0.717L0.188,-0.082L0.498,-0.082Z" style="fill-rule:nonzero;"/>
            </g>
            <g transform="matrix(16,0,0,16,15.6312,181.226)">
                <path d="M0.534,-0.079L0.533,-0L0.092,-0L0.092,-0.717L0.533,-0.717L0.533,-0.638L0.189,-0.638L0.189,-0.4L0.468,-0.4L0.468,-0.324L0.189,-0.324L0.189,-0.079L0.534,-0.079Z" style="fill-rule:nonzero;"/>
            </g>
            <g transform="matrix(16,0,0,16,24.8712,181.226)">
                <path d="M0.674,-0.717L0.382,-0L0.295,-0L0.003,-0.717L0.081,-0.717C0.089,-0.717 0.096,-0.714 0.102,-0.71C0.107,-0.706 0.111,-0.7 0.114,-0.694L0.316,-0.188C0.32,-0.177 0.324,-0.164 0.328,-0.151C0.332,-0.138 0.336,-0.124 0.34,-0.109C0.343,-0.124 0.346,-0.138 0.35,-0.151C0.354,-0.164 0.358,-0.177 0.362,-0.188L0.564,-0.694C0.566,-0.699 0.569,-0.704 0.575,-0.709C0.581,-0.714 0.588,-0.717 0.597,-0.717L0.674,-0.717Z" style="fill-rule:nonzero;"/>
            </g>
            <g transform="matrix(16,0,0,16,35.7032,181.226)">
                <path d="M0.534,-0.079L0.533,-0L0.092,-0L0.092,-0.717L0.533,-0.717L0.533,-0.638L0.189,-0.638L0.189,-0.4L0.468,-0.4L0.468,-0.324L0.189,-0.324L0.189,-0.079L0.534,-0.079Z" style="fill-rule:nonzero;"/>
            </g>
            <g transform="matrix(16,0,0,16,44.9432,181.226)">
                <path d="M0.498,-0.082L0.498,-0L0.092,-0L0.092,-0.717L0.188,-0.717L0.188,-0.082L0.498,-0.082Z" style="fill-rule:nonzero;"/>
            </g>
            <g transform="matrix(16,0,0,16,2.73918,197.226)">
                <path d="M0.189,-0.638L0.189,-0.387L0.483,-0.387L0.483,-0.308L0.189,-0.308L0.189,-0L0.092,-0L0.092,-0.717L0.533,-0.717L0.533,-0.638L0.189,-0.638Z" style="fill-rule:nonzero;"/>
            </g>
            <g transform="matrix(16,0,0,16,11.7872,197.226)">
                <path d="M0.498,-0.082L0.498,-0L0.092,-0L0.092,-0.717L0.188,-0.717L0.188,-0.082L0.498,-0.082Z" style="fill-rule:nonzero;"/>
            </g>
            <g transform="matrix(16,0,0,16,20.0032,197.226)">
                <rect x="0.092" y="-0.717" width="0.097" height="0.717" style="fill-rule:nonzero;"/>
            </g>
            <g transform="matrix(16,0,0,16,24.4832,197.226)">
                <path d="M0.674,-0.345L0.674,-0.07C0.638,-0.044 0.599,-0.024 0.558,-0.011C0.517,0.002 0.473,0.008 0.424,0.008C0.366,0.008 0.314,-0.001 0.268,-0.019C0.222,-0.037 0.182,-0.062 0.149,-0.094C0.116,-0.126 0.091,-0.165 0.074,-0.21C0.056,-0.255 0.047,-0.304 0.047,-0.358C0.047,-0.413 0.056,-0.463 0.073,-0.508C0.09,-0.553 0.114,-0.591 0.146,-0.623C0.178,-0.655 0.216,-0.68 0.262,-0.698C0.307,-0.716 0.358,-0.725 0.414,-0.725C0.442,-0.725 0.468,-0.722 0.493,-0.718C0.517,-0.714 0.539,-0.708 0.56,-0.7C0.581,-0.692 0.6,-0.683 0.618,-0.672C0.635,-0.661 0.652,-0.648 0.667,-0.634L0.64,-0.59C0.635,-0.583 0.63,-0.579 0.623,-0.577C0.616,-0.575 0.608,-0.577 0.6,-0.582C0.592,-0.587 0.583,-0.592 0.573,-0.599C0.562,-0.606 0.55,-0.612 0.535,-0.618C0.52,-0.624 0.502,-0.63 0.482,-0.634C0.462,-0.638 0.438,-0.641 0.411,-0.641C0.37,-0.641 0.334,-0.634 0.301,-0.621C0.268,-0.608 0.241,-0.589 0.218,-0.564C0.195,-0.54 0.177,-0.51 0.165,-0.475C0.152,-0.44 0.146,-0.401 0.146,-0.358C0.146,-0.313 0.152,-0.273 0.165,-0.237C0.178,-0.202 0.196,-0.172 0.22,-0.147C0.244,-0.122 0.273,-0.103 0.307,-0.09C0.341,-0.077 0.379,-0.071 0.422,-0.071C0.455,-0.071 0.484,-0.074 0.51,-0.082C0.536,-0.089 0.561,-0.1 0.586,-0.113L0.586,-0.271L0.475,-0.271C0.468,-0.271 0.463,-0.272 0.459,-0.276C0.455,-0.28 0.454,-0.284 0.454,-0.29L0.454,-0.345L0.674,-0.345Z" style="fill-rule:nonzero;"/>
            </g>
            <g transform="matrix(16,0,0,16,36.1712,197.226)">
                <path d="M0.672,-0.717L0.672,-0L0.575,-0L0.575,-0.326L0.189,-0.326L0.189,-0L0.092,-0L0.092,-0.717L0.189,-0.717L0.189,-0.397L0.575,-0.397L0.575,-0.717L0.672,-0.717Z" style="fill-rule:nonzero;"/>
            </g>
            <g transform="matrix(16,0,0,16,48.3872,197.226)">
                <path d="M0.576,-0.635L0.344,-0.635L0.344,-0L0.248,-0L0.248,-0.635L0.015,-0.635L0.015,-0.717L0.576,-0.717L0.576,-0.635Z" style="fill-rule:nonzero;"/>
            </g>
            <g transform="matrix(16,0,0,16,9.43118,213.226)">
                <path d="M0.754,-0.358C0.754,-0.304 0.745,-0.255 0.728,-0.21C0.711,-0.165 0.687,-0.127 0.656,-0.095C0.625,-0.062 0.588,-0.037 0.544,-0.019C0.501,-0.001 0.453,0.008 0.4,0.008C0.347,0.008 0.299,-0.001 0.256,-0.019C0.213,-0.037 0.175,-0.062 0.145,-0.095C0.114,-0.127 0.09,-0.165 0.073,-0.21C0.055,-0.255 0.047,-0.304 0.047,-0.358C0.047,-0.412 0.055,-0.461 0.073,-0.506C0.09,-0.551 0.114,-0.589 0.145,-0.622C0.175,-0.654 0.213,-0.68 0.256,-0.698C0.299,-0.716 0.347,-0.725 0.4,-0.725C0.453,-0.725 0.501,-0.716 0.544,-0.698C0.588,-0.68 0.625,-0.654 0.656,-0.622C0.687,-0.589 0.711,-0.551 0.728,-0.506C0.745,-0.461 0.754,-0.412 0.754,-0.358ZM0.654,-0.358C0.654,-0.402 0.648,-0.442 0.636,-0.477C0.624,-0.511 0.607,-0.541 0.585,-0.565C0.563,-0.589 0.536,-0.608 0.505,-0.621C0.474,-0.634 0.439,-0.641 0.4,-0.641C0.362,-0.641 0.327,-0.634 0.296,-0.621C0.264,-0.608 0.237,-0.589 0.215,-0.565C0.193,-0.541 0.176,-0.511 0.164,-0.477C0.152,-0.442 0.146,-0.402 0.146,-0.358C0.146,-0.314 0.152,-0.275 0.164,-0.24C0.176,-0.205 0.193,-0.175 0.215,-0.151C0.237,-0.127 0.264,-0.109 0.296,-0.096C0.327,-0.083 0.362,-0.077 0.4,-0.077C0.439,-0.077 0.474,-0.083 0.505,-0.096C0.536,-0.109 0.563,-0.127 0.585,-0.151C0.607,-0.175 0.624,-0.205 0.636,-0.24C0.648,-0.275 0.654,-0.314 0.654,-0.358Z" style="fill-rule:nonzero;"/>
            </g>
            <g transform="matrix(16,0,0,16,22.2392,213.226)">
                <path d="M0.672,-0.717L0.672,-0L0.624,-0C0.616,-0 0.609,-0.001 0.604,-0.004C0.599,-0.007 0.594,-0.011 0.589,-0.018L0.175,-0.558C0.175,-0.549 0.176,-0.541 0.176,-0.533C0.176,-0.525 0.177,-0.518 0.177,-0.511L0.177,-0L0.092,-0L0.092,-0.717L0.142,-0.717C0.146,-0.717 0.15,-0.716 0.153,-0.716C0.156,-0.715 0.158,-0.714 0.161,-0.713C0.163,-0.712 0.165,-0.71 0.168,-0.708C0.17,-0.706 0.172,-0.703 0.175,-0.7L0.59,-0.161C0.589,-0.169 0.588,-0.178 0.588,-0.186C0.587,-0.194 0.587,-0.202 0.587,-0.209L0.587,-0.717L0.672,-0.717Z" style="fill-rule:nonzero;"/>
            </g>
            <g transform="matrix(16,0,0,16,34.4552,213.226)">
                <path d="M0.498,-0.082L0.498,-0L0.092,-0L0.092,-0.717L0.188,-0.717L0.188,-0.082L0.498,-0.082Z" style="fill-rule:nonzero;"/>
            </g>
            <g transform="matrix(16,0,0,16,41.1592,213.226)">
                <path d="M0.361,-0.286L0.361,-0L0.264,-0L0.264,-0.286L0.001,-0.717L0.086,-0.717C0.095,-0.717 0.101,-0.714 0.107,-0.71C0.112,-0.706 0.116,-0.701 0.12,-0.694L0.284,-0.416C0.29,-0.404 0.295,-0.393 0.3,-0.383C0.305,-0.373 0.309,-0.362 0.313,-0.352C0.317,-0.362 0.321,-0.373 0.326,-0.383C0.33,-0.393 0.335,-0.404 0.341,-0.416L0.505,-0.694C0.507,-0.7 0.512,-0.705 0.517,-0.71C0.522,-0.714 0.529,-0.717 0.538,-0.717L0.623,-0.717L0.361,-0.286Z" style="fill-rule:nonzero;"/>
            </g>
        </g>
        <g transform="matrix(1,0,0,1,323.146,-48.5624)">
            <g transform="matrix(16,0,0,16,11.1512,149.226)">
                <path d="M0.189,-0.638L0.189,-0.387L0.483,-0.387L0.483,-0.308L0.189,-0.308L0.189,-0L0.092,-0L0.092,-0.717L0.533,-0.717L0.533,-0.638L0.189,-0.638Z" style="fill-rule:nonzero;"/>
            </g>
            <g transform="matrix(16,0,0,16,20.1992,149.226)">
                <path d="M0.368,-0.077C0.398,-0.077 0.424,-0.082 0.448,-0.092C0.471,-0.102 0.491,-0.116 0.507,-0.134C0.523,-0.152 0.535,-0.173 0.544,-0.199C0.552,-0.224 0.557,-0.251 0.557,-0.281L0.557,-0.717L0.653,-0.717L0.653,-0.281C0.653,-0.24 0.646,-0.201 0.633,-0.166C0.62,-0.131 0.601,-0.1 0.577,-0.074C0.552,-0.048 0.522,-0.028 0.487,-0.014C0.452,0.001 0.412,0.009 0.368,0.009C0.324,0.009 0.284,0.001 0.249,-0.014C0.214,-0.028 0.184,-0.048 0.159,-0.074C0.134,-0.1 0.115,-0.131 0.102,-0.166C0.089,-0.201 0.083,-0.24 0.083,-0.281L0.083,-0.717L0.179,-0.717L0.179,-0.282C0.179,-0.252 0.183,-0.224 0.192,-0.199C0.2,-0.174 0.213,-0.153 0.229,-0.135C0.245,-0.117 0.265,-0.102 0.288,-0.092C0.312,-0.082 0.338,-0.077 0.368,-0.077Z" style="fill-rule:nonzero;"/>
            </g>
            <g transform="matrix(16,0,0,16,31.9672,149.226)">
                <path d="M0.534,-0.079L0.533,-0L0.092,-0L0.092,-0.717L0.533,-0.717L0.533,-0.638L0.189,-0.638L0.189,-0.4L0.468,-0.4L0.468,-0.324L0.189,-0.324L0.189,-0.079L0.534,-0.079Z" style="fill-rule:nonzero;"/>
            </g>
            <g transform="matrix(16,0,0,16,41.2072,149.226)">
                <path d="M0.498,-0.082L0.498,-0L0.092,-0L0.092,-0.717L0.188,-0.717L0.188,-0.082L0.498,-0.082Z" style="fill-rule:nonzero;"/>
            </g>
            <g transform="matrix(16,0,0,16,-8.50482,165.226)">
                <path d="M0.458,-0.605C0.455,-0.6 0.452,-0.596 0.448,-0.593C0.445,-0.591 0.44,-0.59 0.436,-0.59C0.43,-0.59 0.423,-0.592 0.416,-0.598C0.408,-0.604 0.398,-0.61 0.387,-0.617C0.375,-0.624 0.361,-0.63 0.345,-0.636C0.329,-0.641 0.31,-0.644 0.287,-0.644C0.265,-0.644 0.246,-0.641 0.229,-0.635C0.213,-0.629 0.199,-0.622 0.188,-0.612C0.177,-0.602 0.168,-0.59 0.163,-0.576C0.157,-0.563 0.154,-0.548 0.154,-0.533C0.154,-0.513 0.159,-0.496 0.169,-0.483C0.179,-0.47 0.192,-0.458 0.208,-0.449C0.224,-0.44 0.242,-0.432 0.263,-0.425C0.283,-0.418 0.304,-0.411 0.326,-0.404C0.347,-0.396 0.368,-0.388 0.389,-0.379C0.409,-0.37 0.428,-0.358 0.444,-0.344C0.46,-0.33 0.473,-0.313 0.483,-0.293C0.493,-0.272 0.498,-0.247 0.498,-0.218C0.498,-0.186 0.492,-0.157 0.482,-0.129C0.471,-0.102 0.455,-0.078 0.435,-0.058C0.414,-0.037 0.389,-0.021 0.359,-0.01C0.329,0.002 0.296,0.008 0.258,0.008C0.211,0.008 0.169,-0 0.131,-0.017C0.092,-0.034 0.06,-0.057 0.033,-0.086L0.061,-0.132C0.064,-0.135 0.067,-0.138 0.071,-0.141C0.075,-0.143 0.079,-0.145 0.084,-0.145C0.088,-0.145 0.093,-0.143 0.098,-0.139C0.104,-0.136 0.11,-0.131 0.117,-0.126C0.124,-0.121 0.132,-0.115 0.141,-0.109C0.15,-0.102 0.16,-0.096 0.172,-0.091C0.183,-0.086 0.196,-0.081 0.211,-0.078C0.226,-0.074 0.242,-0.073 0.261,-0.073C0.284,-0.073 0.304,-0.076 0.322,-0.082C0.34,-0.088 0.355,-0.097 0.368,-0.109C0.38,-0.12 0.39,-0.134 0.397,-0.15C0.403,-0.166 0.407,-0.184 0.407,-0.204C0.407,-0.225 0.402,-0.243 0.392,-0.257C0.382,-0.271 0.369,-0.282 0.353,-0.292C0.337,-0.301 0.319,-0.309 0.298,-0.315C0.277,-0.322 0.256,-0.328 0.235,-0.335C0.214,-0.342 0.193,-0.35 0.172,-0.359C0.151,-0.368 0.133,-0.38 0.117,-0.394C0.101,-0.408 0.088,-0.426 0.078,-0.448C0.068,-0.469 0.064,-0.496 0.064,-0.528C0.064,-0.553 0.068,-0.577 0.078,-0.601C0.088,-0.625 0.102,-0.646 0.121,-0.664C0.14,-0.682 0.163,-0.697 0.191,-0.708C0.218,-0.719 0.25,-0.725 0.286,-0.725C0.326,-0.725 0.362,-0.718 0.395,-0.706C0.428,-0.693 0.456,-0.675 0.482,-0.651L0.458,-0.605Z" style="fill-rule:nonzero;"/>
            </g>
            <g transform="matrix(16,0,0,16,0.175176,165.226)">
                <path d="M0.534,-0.079L0.533,-0L0.092,-0L0.092,-0.717L0.533,-0.717L0.533,-0.638L0.189,-0.638L0.189,-0.4L0.468,-0.4L0.468,-0.324L0.189,-0.324L0.189,-0.079L0.534,-0.079Z" style="fill-rule:nonzero;"/>
            </g>
            <g transform="matrix(16,0,0,16,9.41518,165.226)">
                <path d="M0.498,-0.082L0.498,-0L0.092,-0L0.092,-0.717L0.188,-0.717L0.188,-0.082L0.498,-0.082Z" style="fill-rule:nonzero;"/>
            </g>
            <g transform="matrix(16,0,0,16,17.6312,165.226)">
                <path d="M0.534,-0.079L0.533,-0L0.092,-0L0.092,-0.717L0.533,-0.717L0.533,-0.638L0.189,-0.638L0.189,-0.4L0.468,-0.4L0.468,-0.324L0.189,-0.324L0.189,-0.079L0.534,-0.079Z" style="fill-rule:nonzero;"/>
            </g>
            <g transform="matrix(16,0,0,16,26.6232,165.226)">
                <path d="M0.595,-0.148C0.6,-0.148 0.605,-0.146 0.609,-0.142L0.647,-0.1C0.618,-0.066 0.582,-0.04 0.54,-0.021C0.498,-0.002 0.448,0.008 0.389,0.008C0.337,0.008 0.291,-0.001 0.249,-0.019C0.206,-0.037 0.171,-0.062 0.141,-0.094C0.111,-0.126 0.088,-0.165 0.072,-0.21C0.056,-0.255 0.048,-0.304 0.048,-0.358C0.048,-0.412 0.056,-0.462 0.073,-0.507C0.09,-0.552 0.114,-0.59 0.145,-0.623C0.176,-0.655 0.213,-0.68 0.256,-0.698C0.299,-0.716 0.346,-0.725 0.398,-0.725C0.449,-0.725 0.494,-0.716 0.533,-0.7C0.572,-0.684 0.606,-0.662 0.636,-0.634L0.604,-0.589C0.602,-0.586 0.599,-0.583 0.596,-0.581C0.593,-0.579 0.589,-0.578 0.584,-0.578C0.578,-0.578 0.57,-0.581 0.562,-0.587C0.553,-0.594 0.542,-0.601 0.528,-0.609C0.514,-0.617 0.496,-0.624 0.475,-0.631C0.454,-0.637 0.428,-0.641 0.398,-0.641C0.361,-0.641 0.327,-0.634 0.296,-0.621C0.265,-0.608 0.239,-0.59 0.217,-0.566C0.195,-0.541 0.177,-0.511 0.165,-0.477C0.153,-0.442 0.147,-0.402 0.147,-0.358C0.147,-0.313 0.153,-0.274 0.166,-0.239C0.179,-0.204 0.196,-0.174 0.218,-0.15C0.24,-0.126 0.267,-0.107 0.297,-0.095C0.327,-0.082 0.36,-0.076 0.395,-0.076C0.416,-0.076 0.435,-0.077 0.452,-0.079C0.469,-0.082 0.485,-0.086 0.5,-0.091C0.514,-0.096 0.528,-0.103 0.54,-0.111C0.553,-0.119 0.565,-0.129 0.578,-0.141C0.583,-0.146 0.589,-0.148 0.595,-0.148Z" style="fill-rule:nonzero;"/>
            </g>
            <g transform="matrix(16,0,0,16,37.3112,165.226)">
                <path d="M0.576,-0.635L0.344,-0.635L0.344,-0L0.248,-0L0.248,-0.635L0.015,-0.635L0.015,-0.717L0.576,-0.717L0.576,-0.635Z" style="fill-rule:nonzero;"/>
            </g>
            <g transform="matrix(16,0,0,16,46.2472,165.226)">
                <path d="M0.754,-0.358C0.754,-0.304 0.745,-0.255 0.728,-0.21C0.711,-0.165 0.687,-0.127 0.656,-0.095C0.625,-0.062 0.588,-0.037 0.544,-0.019C0.501,-0.001 0.453,0.008 0.4,0.008C0.347,0.008 0.299,-0.001 0.256,-0.019C0.213,-0.037 0.175,-0.062 0.145,-0.095C0.114,-0.127 0.09,-0.165 0.073,-0.21C0.055,-0.255 0.047,-0.304 0.047,-0.358C0.047,-0.412 0.055,-0.461 0.073,-0.506C0.09,-0.551 0.114,-0.589 0.145,-0.622C0.175,-0.654 0.213,-0.68 0.256,-0.698C0.299,-0.716 0.347,-0.725 0.4,-0.725C0.453,-0.725 0.501,-0.716 0.544,-0.698C0.588,-0.68 0.625,-0.654 0.656,-0.622C0.687,-0.589 0.711,-0.551 0.728,-0.506C0.745,-0.461 0.754,-0.412 0.754,-0.358ZM0.654,-0.358C0.654,-0.402 0.648,-0.442 0.636,-0.477C0.624,-0.511 0.607,-0.541 0.585,-0.565C0.563,-0.589 0.536,-0.608 0.505,-0.621C0.474,-0.634 0.439,-0.641 0.4,-0.641C0.362,-0.641 0.327,-0.634 0.296,-0.621C0.264,-0.608 0.237,-0.589 0.215,-0.565C0.193,-0.541 0.176,-0.511 0.164,-0.477C0.152,-0.442 0.146,-0.402 0.146,-0.358C0.146,-0.314 0.152,-0.275 0.164,-0.24C0.176,-0.205 0.193,-0.175 0.215,-0.151C0.237,-0.127 0.264,-0.109 0.296,-0.096C0.327,-0.083 0.362,-0.077 0.4,-0.077C0.439,-0.077 0.474,-0.083 0.505,-0.096C0.536,-0.109 0.563,-0.127 0.585,-0.151C0.607,-0.175 0.624,-0.205 0.636,-0.24C0.648,-0.275 0.654,-0.314 0.654,-0.358Z" style="fill-rule:nonzero;"/>
            </g>
            <g transform="matrix(16,0,0,16,59.0552,165.226)">
                <path d="M0.29,-0.37C0.318,-0.37 0.343,-0.373 0.364,-0.38C0.386,-0.387 0.404,-0.396 0.418,-0.409C0.433,-0.421 0.444,-0.436 0.451,-0.454C0.458,-0.471 0.462,-0.49 0.462,-0.511C0.462,-0.554 0.448,-0.586 0.42,-0.608C0.392,-0.629 0.35,-0.64 0.294,-0.64L0.188,-0.64L0.188,-0.37L0.29,-0.37ZM0.621,-0L0.535,-0C0.517,-0 0.504,-0.007 0.496,-0.021L0.31,-0.277C0.304,-0.284 0.298,-0.29 0.292,-0.294C0.285,-0.297 0.275,-0.299 0.262,-0.299L0.188,-0.299L0.188,-0L0.092,-0L0.092,-0.717L0.294,-0.717C0.339,-0.717 0.379,-0.712 0.412,-0.703C0.445,-0.694 0.472,-0.68 0.493,-0.663C0.515,-0.646 0.531,-0.625 0.541,-0.6C0.551,-0.576 0.557,-0.548 0.557,-0.518C0.557,-0.493 0.553,-0.469 0.545,-0.447C0.537,-0.425 0.525,-0.405 0.51,-0.388C0.495,-0.37 0.476,-0.355 0.454,-0.343C0.432,-0.331 0.408,-0.321 0.38,-0.315C0.392,-0.308 0.403,-0.298 0.412,-0.285L0.621,-0Z" style="fill-rule:nonzero;"/>
            </g>
        </g>
        <g transform="matrix(1,0,0,1,280.575,-110.188)">
            <g transform="matrix(16,0,0,16,-12.7008,149.226)">
                <path d="M0.472,-0.266L0.36,-0.558C0.356,-0.566 0.353,-0.576 0.349,-0.588C0.345,-0.599 0.342,-0.612 0.339,-0.625C0.332,-0.598 0.324,-0.575 0.317,-0.557L0.205,-0.266L0.472,-0.266ZM0.674,-0L0.599,-0C0.59,-0 0.583,-0.002 0.578,-0.007C0.573,-0.011 0.569,-0.016 0.566,-0.023L0.499,-0.196L0.178,-0.196L0.111,-0.023C0.109,-0.017 0.105,-0.012 0.099,-0.007C0.093,-0.002 0.086,-0 0.078,-0L0.003,-0L0.29,-0.717L0.388,-0.717L0.674,-0Z" style="fill-rule:nonzero;"/>
            </g>
            <g transform="matrix(16,0,0,16,-1.86882,149.226)">
                <path d="M0.498,-0.082L0.498,-0L0.092,-0L0.092,-0.717L0.188,-0.717L0.188,-0.082L0.498,-0.082Z" style="fill-rule:nonzero;"/>
            </g>
            <g transform="matrix(16,0,0,16,6.34718,149.226)">
                <path d="M0.498,-0.082L0.498,-0L0.092,-0L0.092,-0.717L0.188,-0.717L0.188,-0.082L0.498,-0.082Z" style="fill-rule:nonzero;"/>
            </g>
            <g transform="matrix(16,0,0,16,18.1792,149.226)">
                <path d="M0.189,-0.638L0.189,-0.387L0.483,-0.387L0.483,-0.308L0.189,-0.308L0.189,-0L0.092,-0L0.092,-0.717L0.533,-0.717L0.533,-0.638L0.189,-0.638Z" style="fill-rule:nonzero;"/>
            </g>
            <g transform="matrix(16,0,0,16,27.2272,149.226)">
                <path d="M0.498,-0.082L0.498,-0L0.092,-0L0.092,-0.717L0.188,-0.717L0.188,-0.082L0.498,-0.082Z" style="fill-rule:nonzero;"/>
            </g>
            <g transform="matrix(16,0,0,16,35.4432,149.226)">
                <rect x="0.092" y="-0.717" width="0.097" height="0.717" style="fill-rule:nonzero;"/>
            </g>
            <g transform="matrix(16,0,0,16,39.9232,149.226)">
                <path d="M0.674,-0.345L0.674,-0.07C0.638,-0.044 0.599,-0.024 0.558,-0.011C0.517,0.002 0.473,0.008 0.424,0.008C0.366,0.008 0.314,-0.001 0.268,-0.019C0.222,-0.037 0.182,-0.062 0.149,-0.094C0.116,-0.126 0.091,-0.165 0.074,-0.21C0.056,-0.255 0.047,-0.304 0.047,-0.358C0.047,-0.413 0.056,-0.463 0.073,-0.508C0.09,-0.553 0.114,-0.591 0.146,-0.623C0.178,-0.655 0.216,-0.68 0.262,-0.698C0.307,-0.716 0.358,-0.725 0.414,-0.725C0.442,-0.725 0.468,-0.722 0.493,-0.718C0.517,-0.714 0.539,-0.708 0.56,-0.7C0.581,-0.692 0.6,-0.683 0.618,-0.672C0.635,-0.661 0.652,-0.648 0.667,-0.634L0.64,-0.59C0.635,-0.583 0.63,-0.579 0.623,-0.577C0.616,-0.575 0.608,-0.577 0.6,-0.582C0.592,-0.587 0.583,-0.592 0.573,-0.599C0.562,-0.606 0.55,-0.612 0.535,-0.618C0.52,-0.624 0.502,-0.63 0.482,-0.634C0.462,-0.638 0.438,-0.641 0.411,-0.641C0.37,-0.641 0.334,-0.634 0.301,-0.621C0.268,-0.608 0.241,-0.589 0.218,-0.564C0.195,-0.54 0.177,-0.51 0.165,-0.475C0.152,-0.44 0.146,-0.401 0.146,-0.358C0.146,-0.313 0.152,-0.273 0.165,-0.237C0.178,-0.202 0.196,-0.172 0.22,-0.147C0.244,-0.122 0.273,-0.103 0.307,-0.09C0.341,-0.077 0.379,-0.071 0.422,-0.071C0.455,-0.071 0.484,-0.074 0.51,-0.082C0.536,-0.089 0.561,-0.1 0.586,-0.113L0.586,-0.271L0.475,-0.271C0.468,-0.271 0.463,-0.272 0.459,-0.276C0.455,-0.28 0.454,-0.284 0.454,-0.29L0.454,-0.345L0.674,-0.345Z" style="fill-rule:nonzero;"/>
            </g>
            <g transform="matrix(16,0,0,16,51.6112,149.226)">
                <path d="M0.672,-0.717L0.672,-0L0.575,-0L0.575,-0.326L0.189,-0.326L0.189,-0L0.092,-0L0.092,-0.717L0.189,-0.717L0.189,-0.397L0.575,-0.397L0.575,-0.717L0.672,-0.717Z" style="fill-rule:nonzero;"/>
            </g>
            <g transform="matrix(16,0,0,16,63.8272,149.226)">
                <path d="M0.576,-0.635L0.344,-0.635L0.344,-0L0.248,-0L0.248,-0.635L0.015,-0.635L0.015,-0.717L0.576,-0.717L0.576,-0.635Z" style="fill-rule:nonzero;"/>
            </g>
            <g transform="matrix(16,0,0,16,-11.9048,165.226)">
                <path d="M0.472,-0.266L0.36,-0.558C0.356,-0.566 0.353,-0.576 0.349,-0.588C0.345,-0.599 0.342,-0.612 0.339,-0.625C0.332,-0.598 0.324,-0.575 0.317,-0.557L0.205,-0.266L0.472,-0.266ZM0.674,-0L0.599,-0C0.59,-0 0.583,-0.002 0.578,-0.007C0.573,-0.011 0.569,-0.016 0.566,-0.023L0.499,-0.196L0.178,-0.196L0.111,-0.023C0.109,-0.017 0.105,-0.012 0.099,-0.007C0.093,-0.002 0.086,-0 0.078,-0L0.003,-0L0.29,-0.717L0.388,-0.717L0.674,-0Z" style="fill-rule:nonzero;"/>
            </g>
            <g transform="matrix(16,0,0,16,-2.20082,165.226)">
                <path d="M0.576,-0.635L0.344,-0.635L0.344,-0L0.248,-0L0.248,-0.635L0.015,-0.635L0.015,-0.717L0.576,-0.717L0.576,-0.635Z" style="fill-rule:nonzero;"/>
            </g>
            <g transform="matrix(16,0,0,16,7.24718,165.226)">
                <path d="M0.576,-0.635L0.344,-0.635L0.344,-0L0.248,-0L0.248,-0.635L0.015,-0.635L0.015,-0.717L0.576,-0.717L0.576,-0.635Z" style="fill-rule:nonzero;"/>
            </g>
            <g transform="matrix(16,0,0,16,16.6952,165.226)">
                <rect x="0.092" y="-0.717" width="0.097" height="0.717" style="fill-rule:nonzero;"/>
            </g>
            <g transform="matrix(16,0,0,16,21.1752,165.226)">
                <path d="M0.576,-0.635L0.344,-0.635L0.344,-0L0.248,-0L0.248,-0.635L0.015,-0.635L0.015,-0.717L0.576,-0.717L0.576,-0.635Z" style="fill-rule:nonzero;"/>
            </g>
            <g transform="matrix(16,0,0,16,30.6232,165.226)">
                <path d="M0.368,-0.077C0.398,-0.077 0.424,-0.082 0.448,-0.092C0.471,-0.102 0.491,-0.116 0.507,-0.134C0.523,-0.152 0.535,-0.173 0.544,-0.199C0.552,-0.224 0.557,-0.251 0.557,-0.281L0.557,-0.717L0.653,-0.717L0.653,-0.281C0.653,-0.24 0.646,-0.201 0.633,-0.166C0.62,-0.131 0.601,-0.1 0.577,-0.074C0.552,-0.048 0.522,-0.028 0.487,-0.014C0.452,0.001 0.412,0.009 0.368,0.009C0.324,0.009 0.284,0.001 0.249,-0.014C0.214,-0.028 0.184,-0.048 0.159,-0.074C0.134,-0.1 0.115,-0.131 0.102,-0.166C0.089,-0.201 0.083,-0.24 0.083,-0.281L0.083,-0.717L0.179,-0.717L0.179,-0.282C0.179,-0.252 0.183,-0.224 0.192,-0.199C0.2,-0.174 0.213,-0.153 0.229,-0.135C0.245,-0.117 0.265,-0.102 0.288,-0.092C0.312,-0.082 0.338,-0.077 0.368,-0.077Z" style="fill-rule:nonzero;"/>
            </g>
            <g transform="matrix(16,0,0,16,42.3912,165.226)">
                <path d="M0.713,-0.358C0.713,-0.304 0.704,-0.256 0.687,-0.212C0.67,-0.167 0.646,-0.13 0.615,-0.099C0.584,-0.067 0.547,-0.043 0.503,-0.026C0.46,-0.009 0.412,-0 0.359,-0L0.092,-0L0.092,-0.717L0.359,-0.717C0.412,-0.717 0.46,-0.708 0.503,-0.691C0.547,-0.674 0.584,-0.649 0.615,-0.618C0.646,-0.586 0.67,-0.549 0.687,-0.505C0.704,-0.46 0.713,-0.412 0.713,-0.358ZM0.613,-0.358C0.613,-0.402 0.607,-0.441 0.595,-0.476C0.583,-0.511 0.566,-0.54 0.544,-0.564C0.522,-0.588 0.495,-0.606 0.464,-0.619C0.433,-0.632 0.398,-0.638 0.359,-0.638L0.189,-0.638L0.189,-0.079L0.359,-0.079C0.398,-0.079 0.433,-0.085 0.464,-0.098C0.495,-0.11 0.522,-0.128 0.544,-0.152C0.566,-0.176 0.583,-0.205 0.595,-0.24C0.607,-0.275 0.613,-0.314 0.613,-0.358Z" style="fill-rule:nonzero;"/>
            </g>
            <g transform="matrix(16,0,0,16,54.5592,165.226)">
                <path d="M0.534,-0.079L0.533,-0L0.092,-0L0.092,-0.717L0.533,-0.717L0.533,-0.638L0.189,-0.638L0.189,-0.4L0.468,-0.4L0.468,-0.324L0.189,-0.324L0.189,-0.079L0.534,-0.079Z" style="fill-rule:nonzero;"/>
            </g>
            <g transform="matrix(16,0,0,16,63.7992,165.226)">
                <path d="M0.458,-0.605C0.455,-0.6 0.452,-0.596 0.448,-0.593C0.445,-0.591 0.44,-0.59 0.436,-0.59C0.43,-0.59 0.423,-0.592 0.416,-0.598C0.408,-0.604 0.398,-0.61 0.387,-0.617C0.375,-0.624 0.361,-0.63 0.345,-0.636C0.329,-0.641 0.31,-0.644 0.287,-0.644C0.265,-0.644 0.246,-0.641 0.229,-0.635C0.213,-0.629 0.199,-0.622 0.188,-0.612C0.177,-0.602 0.168,-0.59 0.163,-0.576C0.157,-0.563 0.154,-0.548 0.154,-0.533C0.154,-0.513 0.159,-0.496 0.169,-0.483C0.179,-0.47 0.192,-0.458 0.208,-0.449C0.224,-0.44 0.242,-0.432 0.263,-0.425C0.283,-0.418 0.304,-0.411 0.326,-0.404C0.347,-0.396 0.368,-0.388 0.389,-0.379C0.409,-0.37 0.428,-0.358 0.444,-0.344C0.46,-0.33 0.473,-0.313 0.483,-0.293C0.493,-0.272 0.498,-0.247 0.498,-0.218C0.498,-0.186 0.492,-0.157 0.482,-0.129C0.471,-0.102 0.455,-0.078 0.435,-0.058C0.414,-0.037 0.389,-0.021 0.359,-0.01C0.329,0.002 0.296,0.008 0.258,0.008C0.211,0.008 0.169,-0 0.131,-0.017C0.092,-0.034 0.06,-0.057 0.033,-0.086L0.061,-0.132C0.064,-0.135 0.067,-0.138 0.071,-0.141C0.075,-0.143 0.079,-0.145 0.084,-0.145C0.088,-0.145 0.093,-0.143 0.098,-0.139C0.104,-0.136 0.11,-0.131 0.117,-0.126C0.124,-0.121 0.132,-0.115 0.141,-0.109C0.15,-0.102 0.16,-0.096 0.172,-0.091C0.183,-0.086 0.196,-0.081 0.211,-0.078C0.226,-0.074 0.242,-0.073 0.261,-0.073C0.284,-0.073 0.304,-0.076 0.322,-0.082C0.34,-0.088 0.355,-0.097 0.368,-0.109C0.38,-0.12 0.39,-0.134 0.397,-0.15C0.403,-0.166 0.407,-0.184 0.407,-0.204C0.407,-0.225 0.402,-0.243 0.392,-0.257C0.382,-0.271 0.369,-0.282 0.353,-0.292C0.337,-0.301 0.319,-0.309 0.298,-0.315C0.277,-0.322 0.256,-0.328 0.235,-0.335C0.214,-0.342 0.193,-0.35 0.172,-0.359C0.151,-0.368 0.133,-0.38 0.117,-0.394C0.101,-0.408 0.088,-0.426 0.078,-0.448C0.068,-0.469 0.064,-0.496 0.064,-0.528C0.064,-0.553 0.068,-0.577 0.078,-0.601C0.088,-0.625 0.102,-0.646 0.121,-0.664C0.14,-0.682 0.163,-0.697 0.191,-0.708C0.218,-0.719 0.25,-0.725 0.286,-0.725C0.326,-0.725 0.362,-0.718 0.395,-0.706C0.428,-0.693 0.456,-0.675 0.482,-0.651L0.458,-0.605Z" style="fill-rule:nonzero;"/>
            </g>
        </g>
        <g transform="matrix(1,0,0,1,92.6525,-110.185)">
            <g transform="matrix(16,0,0,16,-4.54082,149.226)">
                <path d="M0.576,-0.635L0.344,-0.635L0.344,-0L0.248,-0L0.248,-0.635L0.015,-0.635L0.015,-0.717L0.576,-0.717L0.576,-0.635Z" style="fill-rule:nonzero;"/>
            </g>
            <g transform="matrix(16,0,0,16,3.78718,149.226)">
                <path d="M0.472,-0.266L0.36,-0.558C0.356,-0.566 0.353,-0.576 0.349,-0.588C0.345,-0.599 0.342,-0.612 0.339,-0.625C0.332,-0.598 0.324,-0.575 0.317,-0.557L0.205,-0.266L0.472,-0.266ZM0.674,-0L0.599,-0C0.59,-0 0.583,-0.002 0.578,-0.007C0.573,-0.011 0.569,-0.016 0.566,-0.023L0.499,-0.196L0.178,-0.196L0.111,-0.023C0.109,-0.017 0.105,-0.012 0.099,-0.007C0.093,-0.002 0.086,-0 0.078,-0L0.003,-0L0.29,-0.717L0.388,-0.717L0.674,-0Z" style="fill-rule:nonzero;"/>
            </g>
            <g transform="matrix(16,0,0,16,14.6192,149.226)">
                <path d="M0.188,-0.403L0.225,-0.403C0.237,-0.403 0.247,-0.404 0.255,-0.407C0.263,-0.41 0.27,-0.416 0.276,-0.424L0.515,-0.694C0.521,-0.702 0.528,-0.708 0.536,-0.712C0.543,-0.715 0.552,-0.717 0.563,-0.717L0.645,-0.717L0.372,-0.408C0.365,-0.4 0.358,-0.393 0.352,-0.388C0.346,-0.383 0.339,-0.379 0.333,-0.376C0.342,-0.373 0.35,-0.368 0.357,-0.362C0.364,-0.356 0.372,-0.349 0.379,-0.34L0.664,-0L0.58,-0C0.573,-0 0.568,-0 0.563,-0.001C0.559,-0.002 0.555,-0.003 0.552,-0.005C0.548,-0.007 0.545,-0.009 0.543,-0.012C0.54,-0.014 0.538,-0.017 0.536,-0.021L0.289,-0.305C0.282,-0.313 0.275,-0.319 0.267,-0.323C0.259,-0.326 0.248,-0.328 0.232,-0.328L0.188,-0.328L0.188,-0L0.092,-0L0.092,-0.717L0.188,-0.717L0.188,-0.403Z" style="fill-rule:nonzero;"/>
            </g>
            <g transform="matrix(16,0,0,16,25.2192,149.226)">
                <path d="M0.534,-0.079L0.533,-0L0.092,-0L0.092,-0.717L0.533,-0.717L0.533,-0.638L0.189,-0.638L0.189,-0.4L0.468,-0.4L0.468,-0.324L0.189,-0.324L0.189,-0.079L0.534,-0.079Z" style="fill-rule:nonzero;"/>
            </g>
            <g transform="matrix(16,0,0,16,34.2112,149.226)">
                <path d="M0.754,-0.358C0.754,-0.304 0.745,-0.255 0.728,-0.21C0.711,-0.165 0.687,-0.127 0.656,-0.095C0.625,-0.062 0.588,-0.037 0.544,-0.019C0.501,-0.001 0.453,0.008 0.4,0.008C0.347,0.008 0.299,-0.001 0.256,-0.019C0.213,-0.037 0.175,-0.062 0.145,-0.095C0.114,-0.127 0.09,-0.165 0.073,-0.21C0.055,-0.255 0.047,-0.304 0.047,-0.358C0.047,-0.412 0.055,-0.461 0.073,-0.506C0.09,-0.551 0.114,-0.589 0.145,-0.622C0.175,-0.654 0.213,-0.68 0.256,-0.698C0.299,-0.716 0.347,-0.725 0.4,-0.725C0.453,-0.725 0.501,-0.716 0.544,-0.698C0.588,-0.68 0.625,-0.654 0.656,-0.622C0.687,-0.589 0.711,-0.551 0.728,-0.506C0.745,-0.461 0.754,-0.412 0.754,-0.358ZM0.654,-0.358C0.654,-0.402 0.648,-0.442 0.636,-0.477C0.624,-0.511 0.607,-0.541 0.585,-0.565C0.563,-0.589 0.536,-0.608 0.505,-0.621C0.474,-0.634 0.439,-0.641 0.4,-0.641C0.362,-0.641 0.327,-0.634 0.296,-0.621C0.264,-0.608 0.237,-0.589 0.215,-0.565C0.193,-0.541 0.176,-0.511 0.164,-0.477C0.152,-0.442 0.146,-0.402 0.146,-0.358C0.146,-0.314 0.152,-0.275 0.164,-0.24C0.176,-0.205 0.193,-0.175 0.215,-0.151C0.237,-0.127 0.264,-0.109 0.296,-0.096C0.327,-0.083 0.362,-0.077 0.4,-0.077C0.439,-0.077 0.474,-0.083 0.505,-0.096C0.536,-0.109 0.563,-0.127 0.585,-0.151C0.607,-0.175 0.624,-0.205 0.636,-0.24C0.648,-0.275 0.654,-0.314 0.654,-0.358Z" style="fill-rule:nonzero;"/>
            </g>
            <g transform="matrix(16,0,0,16,47.0192,149.226)">
                <path d="M0.189,-0.638L0.189,-0.387L0.483,-0.387L0.483,-0.308L0.189,-0.308L0.189,-0L0.092,-0L0.092,-0.717L0.533,-0.717L0.533,-0.638L0.189,-0.638Z" style="fill-rule:nonzero;"/>
            </g>
            <g transform="matrix(16,0,0,16,56.0672,149.226)">
                <path d="M0.189,-0.638L0.189,-0.387L0.483,-0.387L0.483,-0.308L0.189,-0.308L0.189,-0L0.092,-0L0.092,-0.717L0.533,-0.717L0.533,-0.638L0.189,-0.638Z" style="fill-rule:nonzero;"/>
            </g>
            <g transform="matrix(16,0,0,16,-5.62082,165.226)">
                <path d="M0.498,-0.082L0.498,-0L0.092,-0L0.092,-0.717L0.188,-0.717L0.188,-0.082L0.498,-0.082Z" style="fill-rule:nonzero;"/>
            </g>
            <g transform="matrix(16,0,0,16,2.59518,165.226)">
                <path d="M0.472,-0.266L0.36,-0.558C0.356,-0.566 0.353,-0.576 0.349,-0.588C0.345,-0.599 0.342,-0.612 0.339,-0.625C0.332,-0.598 0.324,-0.575 0.317,-0.557L0.205,-0.266L0.472,-0.266ZM0.674,-0L0.599,-0C0.59,-0 0.583,-0.002 0.578,-0.007C0.573,-0.011 0.569,-0.016 0.566,-0.023L0.499,-0.196L0.178,-0.196L0.111,-0.023C0.109,-0.017 0.105,-0.012 0.099,-0.007C0.093,-0.002 0.086,-0 0.078,-0L0.003,-0L0.29,-0.717L0.388,-0.717L0.674,-0Z" style="fill-rule:nonzero;"/>
            </g>
            <g transform="matrix(16,0,0,16,13.4272,165.226)">
                <path d="M0.672,-0.717L0.672,-0L0.624,-0C0.616,-0 0.609,-0.001 0.604,-0.004C0.599,-0.007 0.594,-0.011 0.589,-0.018L0.175,-0.558C0.175,-0.549 0.176,-0.541 0.176,-0.533C0.176,-0.525 0.177,-0.518 0.177,-0.511L0.177,-0L0.092,-0L0.092,-0.717L0.142,-0.717C0.146,-0.717 0.15,-0.716 0.153,-0.716C0.156,-0.715 0.158,-0.714 0.161,-0.713C0.163,-0.712 0.165,-0.71 0.168,-0.708C0.17,-0.706 0.172,-0.703 0.175,-0.7L0.59,-0.161C0.589,-0.169 0.588,-0.178 0.588,-0.186C0.587,-0.194 0.587,-0.202 0.587,-0.209L0.587,-0.717L0.672,-0.717Z" style="fill-rule:nonzero;"/>
            </g>
            <g transform="matrix(16,0,0,16,25.6432,165.226)">
                <path d="M0.713,-0.358C0.713,-0.304 0.704,-0.256 0.687,-0.212C0.67,-0.167 0.646,-0.13 0.615,-0.099C0.584,-0.067 0.547,-0.043 0.503,-0.026C0.46,-0.009 0.412,-0 0.359,-0L0.092,-0L0.092,-0.717L0.359,-0.717C0.412,-0.717 0.46,-0.708 0.503,-0.691C0.547,-0.674 0.584,-0.649 0.615,-0.618C0.646,-0.586 0.67,-0.549 0.687,-0.505C0.704,-0.46 0.713,-0.412 0.713,-0.358ZM0.613,-0.358C0.613,-0.402 0.607,-0.441 0.595,-0.476C0.583,-0.511 0.566,-0.54 0.544,-0.564C0.522,-0.588 0.495,-0.606 0.464,-0.619C0.433,-0.632 0.398,-0.638 0.359,-0.638L0.189,-0.638L0.189,-0.079L0.359,-0.079C0.398,-0.079 0.433,-0.085 0.464,-0.098C0.495,-0.11 0.522,-0.128 0.544,-0.152C0.566,-0.176 0.583,-0.205 0.595,-0.24C0.607,-0.275 0.613,-0.314 0.613,-0.358Z" style="fill-rule:nonzero;"/>
            </g>
            <g transform="matrix(16,0,0,16,37.8112,165.226)">
                <rect x="0.092" y="-0.717" width="0.097" height="0.717" style="fill-rule:nonzero;"/>
            </g>
            <g transform="matrix(16,0,0,16,42.2912,165.226)">
                <path d="M0.672,-0.717L0.672,-0L0.624,-0C0.616,-0 0.609,-0.001 0.604,-0.004C0.599,-0.007 0.594,-0.011 0.589,-0.018L0.175,-0.558C0.175,-0.549 0.176,-0.541 0.176,-0.533C0.176,-0.525 0.177,-0.518 0.177,-0.511L0.177,-0L0.092,-0L0.092,-0.717L0.142,-0.717C0.146,-0.717 0.15,-0.716 0.153,-0.716C0.156,-0.715 0.158,-0.714 0.161,-0.713C0.163,-0.712 0.165,-0.71 0.168,-0.708C0.17,-0.706 0.172,-0.703 0.175,-0.7L0.59,-0.161C0.589,-0.169 0.588,-0.178 0.588,-0.186C0.587,-0.194 0.587,-0.202 0.587,-0.209L0.587,-0.717L0.672,-0.717Z" style="fill-rule:nonzero;"/>
            </g>
            <g transform="matrix(16,0,0,16,54.5072,165.226)">
                <path d="M0.674,-0.345L0.674,-0.07C0.638,-0.044 0.599,-0.024 0.558,-0.011C0.517,0.002 0.473,0.008 0.424,0.008C0.366,0.008 0.314,-0.001 0.268,-0.019C0.222,-0.037 0.182,-0.062 0.149,-0.094C0.116,-0.126 0.091,-0.165 0.074,-0.21C0.056,-0.255 0.047,-0.304 0.047,-0.358C0.047,-0.413 0.056,-0.463 0.073,-0.508C0.09,-0.553 0.114,-0.591 0.146,-0.623C0.178,-0.655 0.216,-0.68 0.262,-0.698C0.307,-0.716 0.358,-0.725 0.414,-0.725C0.442,-0.725 0.468,-0.722 0.493,-0.718C0.517,-0.714 0.539,-0.708 0.56,-0.7C0.581,-0.692 0.6,-0.683 0.618,-0.672C0.635,-0.661 0.652,-0.648 0.667,-0.634L0.64,-0.59C0.635,-0.583 0.63,-0.579 0.623,-0.577C0.616,-0.575 0.608,-0.577 0.6,-0.582C0.592,-0.587 0.583,-0.592 0.573,-0.599C0.562,-0.606 0.55,-0.612 0.535,-0.618C0.52,-0.624 0.502,-0.63 0.482,-0.634C0.462,-0.638 0.438,-0.641 0.411,-0.641C0.37,-0.641 0.334,-0.634 0.301,-0.621C0.268,-0.608 0.241,-0.589 0.218,-0.564C0.195,-0.54 0.177,-0.51 0.165,-0.475C0.152,-0.44 0.146,-0.401 0.146,-0.358C0.146,-0.313 0.152,-0.273 0.165,-0.237C0.178,-0.202 0.196,-0.172 0.22,-0.147C0.244,-0.122 0.273,-0.103 0.307,-0.09C0.341,-0.077 0.379,-0.071 0.422,-0.071C0.455,-0.071 0.484,-0.074 0.51,-0.082C0.536,-0.089 0.561,-0.1 0.586,-0.113L0.586,-0.271L0.475,-0.271C0.468,-0.271 0.463,-0.272 0.459,-0.276C0.455,-0.28 0.454,-0.284 0.454,-0.29L0.454,-0.345L0.674,-0.345Z" style="fill-rule:nonzero;"/>
            </g>
        </g>
        <path d="M2.835,362.835L2.835,2.835L434.835,2.835L434.835,362.835L2.835,362.835M208.817,217.361L208.709,218.835L208.817,220.309L209.14,221.751L209.667,223.132L210.39,224.422L211.294,225.592L212.357,226.619L213.559,227.477L214.875,228.152L216.275,228.631L217.726,228.898L218.835,228.938L219.203,228.951L220.674,228.79L222.103,228.419L223.464,227.84L224.725,227.069L225.862,226.123L226.848,225.023L227.665,223.79L228.291,222.452L228.716,221.037L228.932,219.574L228.932,218.095L228.716,216.632L228.291,215.218L227.665,213.88L226.848,212.647L225.862,211.547L224.725,210.6L223.464,209.829L222.103,209.251L220.674,208.879L219.203,208.718L218.835,208.731L217.726,208.772L216.275,209.038L214.875,209.517L213.559,210.192L212.357,211.051L211.294,212.077L210.39,213.248L209.667,214.537L209.14,215.918L208.817,217.361M412.092,340.855L411.471,341.739L411.015,342.717L410.737,343.76L410.644,344.835L410.692,345.385L410.737,345.909L411.015,346.952L411.471,347.93L412.092,348.814L412.855,349.577L413.739,350.198L414.717,350.654L415.76,350.932L416.835,351.026L417.909,350.932L418.952,350.654L419.93,350.198L420.814,349.577L421.577,348.814L422.198,347.93L422.654,346.952L422.932,345.909L422.978,345.385L423.025,344.835L422.932,343.76L422.654,342.717L422.198,341.739L421.577,340.855L420.814,340.092L419.93,339.471L418.952,339.015L417.909,338.737L416.835,338.644L415.76,338.737L414.717,339.015L413.739,339.471L412.855,340.092L412.092,340.855M21.909,338.737L20.835,338.644L19.76,338.737L18.717,339.015L17.739,339.471L16.855,340.092L16.092,340.855L15.471,341.739L15.015,342.717L14.737,343.76L14.644,344.835L14.692,345.385L14.737,345.909L15.015,346.952L15.471,347.93L16.092,348.814L16.855,349.577L17.739,350.198L18.717,350.654L19.76,350.932L20.835,351.026L21.909,350.932L22.952,350.654L23.93,350.198L24.814,349.577L25.577,348.814L26.198,347.93L26.654,346.952L26.932,345.909L26.978,345.385L27.026,344.835L26.932,343.76L26.654,342.717L26.198,341.739L25.577,340.855L24.814,340.092L23.93,339.471L22.952,339.015L21.909,338.737Z" style="fill:none;fill-rule:nonzero;stroke:rgb(13,40,242);stroke-width:1px;stroke-linecap:butt;stroke-linejoin:miter;stroke-miterlimit:4;"/>
    </g>
</svg>
