<?xml version="1.0" standalone="no"?>
<!DOCTYPE svg PUBLIC "-//W3C//DTD SVG 1.1//EN"
  "http://www.w3.org/Graphics/SVG/1.1/DTD/svg11.dtd">
<svg width="154.39999389648438mm" height="129mm" viewBox="-77.19999694824219 -64.5 154.39999389648438 129" xmlns="http://www.w3.org/2000/svg" version="1.1">
	<title>svgOutput</title>
	<desc>made with tinkercad</desc>
<path d="M -76.19999694824219 63.5 L -76.19999694824219 57.34400177001953 L -76.19999694824219 49.152000427246094 L -76.19999694824219 32.768001556396484 L -76.19999694824219 1.1102230246251565e-16 L -76.19999694824219 -63.5 L 0 -63.5 L 76.19999694824219 -63.5 L 76.19999694824219 1.1102230246251565e-16 L 76.19999694824219 32.768001556396484 L 76.19999694824219 49.152000427246094 L 76.19999694824219 57.34400177001953 L 76.19999694824219 63.5 L 73.72799682617188 63.5 L 69.63200378417969 63.5 L 69.28910064697266 63.5 L 65.53600311279297 63.5 L 32.768001556396484 63.5 L 0 63.5 L -32.768001556396484 63.5 L -65.53600311279297 63.5 L -69.63200378417969 63.5 L -70.41089630126953 63.5 L -71.48109436035156 63.5 L -73.72799682617188 63.5 L -76.19999694824219 63.5 M -3.5339999198913574 12.180000305175781 L -3.5418922901153564 12.288000106811523 L -3.572000026702881 12.699999809265137 L -3.5339999198913574 13.220000267028809 L -3.4200000762939453 13.729000091552734 L -3.2339999675750732 14.215999603271484 L -2.9790000915527344 14.670999526977539 L -2.6600000858306885 15.083999633789062 L -2.2850000858306885 15.446000099182129 L -1.8609999418258667 15.74899959564209 L -1.3969999551773071 15.987000465393066 L -0.902999997138977 16.1560001373291 L -0.39100000262260437 16.25 L 0 16.264259338378906 L 0.12999999523162842 16.268999099731445 L 0.6489999890327454 16.211999893188477 L 1.152999997138977 16.08099937438965 L 1.6330000162124634 15.876999855041504 L 2.078000068664551 15.604999542236328 L 2.4790000915527344 15.270999908447266 L 2.8269999027252197 14.883000373840332 L 3.115000009536743 14.447999954223633 L 3.3359999656677246 13.97599983215332 L 3.4860000610351562 13.47700023651123 L 3.562000036239624 12.961000442504883 L 3.562000036239624 12.439000129699707 L 3.539759635925293 12.288000106811523 L 3.4860000610351562 11.92300033569336 L 3.3359999656677246 11.423999786376953 L 3.115000009536743 10.95199966430664 L 2.8269999027252197 10.517000198364258 L 2.4790000915527344 10.128999710083008 L 2.078000068664551 9.795000076293945 L 1.6330000162124634 9.52299976348877 L 1.152999997138977 9.319000244140625 L 0.6489999890327454 9.187999725341797 L 0.12999999523162842 9.130999565124512 L 0 9.135741233825684 L -0.39100000262260437 9.149999618530273 L -0.902999997138977 9.244000434875488 L -1.3969999551773071 9.413000106811523 L -1.8609999418258667 9.651000022888184 L -2.2850000858306885 9.954000473022461 L -2.6600000858306885 10.315999984741211 L -2.9790000915527344 10.729000091552734 L -3.2339999675750732 11.184000015258789 L -3.4200000762939453 11.670999526977539 L -3.5339999198913574 12.180000305175781 M 68.177001953125 55.74599838256836 L 67.95800018310547 56.05799865722656 L 67.7969970703125 56.40299987792969 L 67.6989974975586 56.770999908447266 L 67.66600036621094 57.150001525878906 L 67.68289184570312 57.34400177001953 L 67.6989974975586 57.52899932861328 L 67.7969970703125 57.89699935913086 L 67.95800018310547 58.242000579833984 L 68.177001953125 58.55400085449219 L 68.44599914550781 58.823001861572266 L 68.75800323486328 59.04199981689453 L 69.10299682617188 59.202999114990234 L 69.47100067138672 59.30099868774414 L 69.63200378417969 59.31501770019531 L 69.8499984741211 59.33399963378906 L 70.22899627685547 59.30099868774414 L 70.59700012207031 59.202999114990234 L 70.94200134277344 59.04199981689453 L 71.25399780273438 58.823001861572266 L 71.52300262451172 58.55400085449219 L 71.74199676513672 58.242000579833984 L 71.90299987792969 57.89699935913086 L 72.0009994506836 57.52899932861328 L 72.01710510253906 57.34400177001953 L 72.03399658203125 57.150001525878906 L 72.0009994506836 56.770999908447266 L 71.90299987792969 56.40299987792969 L 71.74199676513672 56.05799865722656 L 71.52300262451172 55.74599838256836 L 71.25399780273438 55.47700119018555 L 70.94200134277344 55.257999420166016 L 70.59700012207031 55.09700012207031 L 70.22899627685547 54.999000549316406 L 69.8499984741211 54.965999603271484 L 69.63200378417969 54.984981536865234 L 69.47100067138672 54.999000549316406 L 69.10299682617188 55.09700012207031 L 68.75800323486328 55.257999420166016 L 68.44599914550781 55.47700119018555 L 68.177001953125 55.74599838256836 M -69.47100067138672 54.999000549316406 L -69.63200378417969 54.984981536865234 L -69.8499984741211 54.965999603271484 L -70.22899627685547 54.999000549316406 L -70.59700012207031 55.09700012207031 L -70.94200134277344 55.257999420166016 L -71.25399780273438 55.47700119018555 L -71.52300262451172 55.74599838256836 L -71.74199676513672 56.05799865722656 L -71.90299987792969 56.40299987792969 L -72.0009994506836 56.770999908447266 L -72.03399658203125 57.150001525878906 L -72.01710510253906 57.34400177001953 L -72.0009994506836 57.52899932861328 L -71.90299987792969 57.89699935913086 L -71.74199676513672 58.242000579833984 L -71.52300262451172 58.55400085449219 L -71.25399780273438 58.823001861572266 L -70.94200134277344 59.04199981689453 L -70.59700012207031 59.202999114990234 L -70.22899627685547 59.30099868774414 L -69.8499984741211 59.33399963378906 L -69.63200378417969 59.31501770019531 L -69.47100067138672 59.30099868774414 L -69.10299682617188 59.202999114990234 L -68.75800323486328 59.04199981689453 L -68.44599914550781 58.823001861572266 L -68.177001953125 58.55400085449219 L -67.95800018310547 58.242000579833984 L -67.7969970703125 57.89699935913086 L -67.6989974975586 57.52899932861328 L -67.68289184570312 57.34400177001953 L -67.66600036621094 57.150001525878906 L -67.6989974975586 56.770999908447266 L -67.7969970703125 56.40299987792969 L -67.95800018310547 56.05799865722656 L -68.177001953125 55.74599838256836 L -68.44599914550781 55.47700119018555 L -68.75800323486328 55.257999420166016 L -69.10299682617188 55.09700012207031 L -69.47100067138672 54.999000549316406 z" fill="none" stroke="rgb(255,0,0)" stroke-width="0.001mm" />
</svg>