<?xml version="1.0" encoding="UTF-8" standalone="no"?>
<!DOCTYPE svg PUBLIC "-//W3C//DTD SVG 1.1//EN" "http://www.w3.org/Graphics/SVG/1.1/DTD/svg11.dtd">
<svg width="1568px" height="1016px" version="1.1" xmlns="http://www.w3.org/2000/svg" xmlns:xlink="http://www.w3.org/1999/xlink" xml:space="preserve" xmlns:serif="http://www.serif.com/" style="fill-rule:evenodd;clip-rule:evenodd;">
    <g transform="matrix(1.33333,0,0,1.33333,0,0)">
        <path d="M912.376,591.117L912.934,591.375L919.624,594.465L927.085,597.302L934.727,599.613L942.511,601.384L950.397,602.609L958.354,603.281L959.377,603.296L966.334,603.4L974.305,602.96L982.227,601.968L990.06,600.429L997.764,598.346L1005.31,595.732L1005.82,595.513L1012.65,592.6L1018.07,589.827L1019.75,588.963L1026.59,584.841L1029.04,583.12L1033.12,580.252L1035.63,578.217L1039.32,575.22L1045.15,569.769L1048.1,566.606L1050.59,563.924L1055.61,557.717L1060.18,551.174L1064.29,544.329L1067.91,537.214L1071.03,529.863L1073.62,522.315L1075.69,514.604L1077.21,506.769L1078.19,498.847L1078.61,490.873L1078.47,482.893L1077.78,474.939L1077.59,473.72L1076.53,467.053L1074.75,459.275L1072.42,451.638L1069.57,444.183L1066.2,436.944L1062.34,429.956L1060.61,427.277L1058,423.255L1053.21,416.872L1052.26,415.782L1047.98,410.839L1042.35,405.184L1041.06,404.056L1040.65,403.705L1036.33,399.935L1029.97,395.116L1029.04,394.511L1023.28,390.753L1016.31,386.867L1009.09,383.474L1005.82,382.211L1002.26,380.835L1001.64,380.594L994.014,378.238L986.241,376.418L978.361,375.146L970.41,374.426L962.427,374.258L959.377,374.407L954.456,374.647L946.528,375.591L938.687,377.084L930.969,379.123L925.93,380.835L923.411,381.691L916.05,384.778L912.934,386.348L908.921,388.372L902.061,392.451L895.501,397.001L889.713,401.643L889.274,401.995L887.043,404.056L883.409,407.412L877.935,413.223L872.881,419.4L868.266,425.914L867.437,427.277L866.492,428.832L864.119,432.734L860.454,439.826L857.293,447.157L854.651,454.691L852.54,462.39L850.969,470.217L850.518,473.72L849.949,478.134L849.478,486.102L849.566,494.084L850.209,502.041L851.406,509.933L853.149,517.723L853.876,520.163L855.428,525.373L858.237,532.845L861.557,540.105L860.223,541.469L840.957,561.175L839.764,562.632L838.843,564.273L838.219,566.048L838.127,566.606L837.913,567.904L837.933,569.789L838.281,571.637L838.945,573.401L839.906,575.019L841.13,576.448L866.492,601.241L877.17,611.68L878.624,612.876L878.932,613.049L880.265,613.797L882.043,614.421L883.899,614.727L885.781,614.707L887.632,614.358L889.393,613.695L890.483,613.049L891.014,612.734L892.443,611.51L901.324,602.424L902.288,601.438L912.376,591.117M390.348,3.231L413.816,2.835L1172.84,2.835L1172.84,758.835L2.835,758.835L2.835,34.515L7.299,33.702L12.688,32.72L13.898,32.513L23.029,30.952L30.521,29.745L33.851,29.208L45.159,27.49L56.934,25.804L69.16,24.148L81.797,22.527L83.986,22.268L120.432,18.058L121.555,17.935L148.725,15.177L150.405,15.022L162.776,13.861L166.885,13.504L180.997,12.281L182.643,12.141L184.236,12.02L201.999,10.606L211.65,9.938L216.292,9.617L220.979,9.292L224.813,9.026L226.363,8.921L250.557,7.523L274.711,6.395L276.78,6.317L305.436,5.275L307.609,5.209L331.866,4.508L334.774,4.437L360.522,3.824L390.348,3.231M1048.63,371.835L1048.63,391.635L1066.63,391.635L1066.63,316.035L1048.63,316.035L1048.63,335.835L1027.08,335.835L1027.08,371.835L1048.63,371.835M861.557,270.105L860.223,271.469L858.791,272.933L844.111,287.949L840.957,291.175L839.764,292.632L838.843,294.273L838.219,296.048L837.913,297.904L837.933,299.789L838.281,301.637L838.945,303.401L839.906,305.019L841.13,306.448L866.492,331.241L869.715,334.392L877.17,341.68L878.624,342.876L880.265,343.797L882.043,344.421L883.899,344.727L885.781,344.707L887.632,344.358L889.393,343.695L891.014,342.734L892.443,341.51L899.4,334.392L912.376,321.117L919.624,324.465L927.085,327.302L934.727,329.613L942.511,331.384L950.397,332.609L958.354,333.281L959.377,333.296L966.334,333.4L974.305,332.96L982.227,331.968L990.06,330.429L997.764,328.346L1005.31,325.732L1005.82,325.513L1012.65,322.6L1019.75,318.963L1024.61,316.035L1026.59,314.841L1031.82,311.17L1033.12,310.252L1039.32,305.22L1045.15,299.769L1050.59,293.924L1052.26,291.855L1055.42,287.949L1055.61,287.717L1060.18,281.174L1064.29,274.329L1067.91,267.214L1071.03,259.863L1073.62,252.315L1075.69,244.604L1077.21,236.769L1078.19,228.847L1078.61,220.873L1078.47,212.893L1077.78,204.939L1076.53,197.053L1076.08,195.063L1074.75,189.275L1072.42,181.638L1069.57,174.183L1066.2,166.944L1062.34,159.956L1058,153.255L1054.52,148.62L1053.21,146.872L1052.26,145.782L1047.98,140.839L1042.35,135.184L1036.33,129.935L1030.34,125.399L1029.97,125.116L1023.28,120.753L1016.31,116.867L1009.09,113.474L1005.82,112.211L1001.64,110.594L994.014,108.238L986.241,106.418L978.361,105.146L970.41,104.426L962.427,104.258L959.377,104.407L954.456,104.647L946.528,105.591L938.687,107.084L930.969,109.123L923.411,111.691L916.05,114.778L912.934,116.348L908.921,118.372L902.061,122.451L897.81,125.399L895.501,127.001L889.713,131.643L889.274,131.995L883.845,137.01L883.409,137.412L877.935,143.223L873.519,148.62L872.881,149.4L868.266,155.914L866.492,158.832L864.119,162.734L860.454,169.826L857.293,177.157L854.651,184.691L852.54,192.39L852.003,195.063L850.969,200.217L849.949,208.134L849.478,216.102L849.566,224.084L850.209,232.041L851.406,239.933L851.758,241.506L853.149,247.723L855.428,255.373L858.237,262.845L861.557,270.105M371.957,540.105L371.539,540.532L370.653,541.439L351.357,561.175L350.164,562.632L349.243,564.273L348.619,566.048L348.527,566.606L348.313,567.904L348.333,569.789L348.681,571.637L349.345,573.401L350.306,575.019L351.53,576.448L355.62,580.447L387.57,611.68L389.024,612.876L389.332,613.049L390.665,613.797L392.443,614.421L394.299,614.727L396.181,614.707L398.032,614.358L399.793,613.695L400.883,613.049L401.414,612.734L402.063,612.178L402.843,611.51L422.776,591.117L429.721,594.337L436.864,597.087L444.175,599.355L451.621,601.129L459.167,602.402L466.784,603.167L474.435,603.422L482.085,603.167L489.699,602.402L494.949,601.517L497.248,601.129L504.694,599.355L512.005,597.087L519.148,594.337L523.59,592.278L526.093,591.117L546.026,611.51L547.455,612.734L549.077,613.695L550.837,614.358L552.688,614.707L554.57,614.727L556.427,614.421L558.204,613.797L559.845,612.876L561.3,611.68L587.835,585.739L597.339,576.448L598.564,575.019L599.525,573.401L600.188,571.637L600.537,569.789L600.557,567.904L600.342,566.606L600.25,566.048L599.627,564.273L598.706,562.632L597.512,561.175L587.835,551.276L576.913,540.105L580.201,532.922L582.99,525.526L585.261,517.958L587.004,510.25L587.835,504.881L588.212,502.444L588.878,494.569L589.003,486.669L588.58,478.777L587.959,473.72L587.616,470.934L586.114,463.175L584.079,455.542L581.525,448.064L578.46,440.782L574.9,433.726L571.069,427.277L570.864,426.932L566.368,420.435L561.436,414.261L556.089,408.441L551.462,404.056L550.355,403.007L544.258,397.979L541.392,395.928L537.831,393.381L531.102,389.239L524.103,385.571L516.869,382.394L512.531,380.835L509.431,379.721L501.829,377.569L494.949,376.124L494.096,375.945L486.269,374.859L478.386,374.315L470.483,374.315L462.6,374.859L454.774,375.945L447.041,377.569L439.438,379.721L436.338,380.835L432,382.394L424.766,385.571L417.767,389.239L411.038,393.381L404.612,397.979L402.063,400.08L398.514,403.007L397.408,404.056L392.78,408.441L387.434,414.261L382.501,420.435L378.006,426.932L377.8,427.277L373.969,433.726L370.409,440.782L367.345,448.064L364.791,455.542L362.755,463.175L361.253,470.934L360.911,473.72L360.289,478.777L359.867,486.669L359.992,494.569L360.658,502.444L361.865,510.25L363.609,517.958L364.27,520.163L365.879,525.526L368.668,532.922L371.957,540.105M616.757,270.105L616.33,270.541L615.423,271.469L613.991,272.933L599.311,287.949L596.157,291.175L594.964,292.632L594.043,294.273L593.419,296.048L593.113,297.904L593.133,299.789L593.481,301.637L594.145,303.401L595.106,305.019L596.33,306.448L624.915,334.392L632.37,341.68L633.824,342.876L635.465,343.797L637.243,344.421L639.099,344.727L640.981,344.707L642.832,344.358L644.593,343.695L646.214,342.734L647.643,341.51L654.6,334.392L667.576,321.117L674.824,324.465L680.72,326.707L682.285,327.302L689.927,329.613L697.711,331.384L705.597,332.609L713.554,333.281L721.534,333.4L729.505,332.96L737.427,331.968L745.26,330.429L752.964,328.346L760.507,325.732L767.849,322.6L773.606,319.653L774.955,318.963L781.792,314.841L788.323,310.252L794.52,305.22L796.827,303.064L800.354,299.769L800.549,299.56L805.791,293.924L810.62,287.949L810.808,287.717L815.383,281.174L819.488,274.329L823.11,267.214L826.226,259.863L828.822,252.315L830.889,244.604L831.49,241.506L832.411,236.769L833.386,228.847L833.805,220.873L833.669,212.893L832.978,204.939L831.733,197.053L831.276,195.063L829.945,189.275L827.617,181.638L824.766,174.183L821.401,166.944L817.54,159.956L813.2,153.255L809.72,148.62L808.407,146.872L803.183,140.839L799.367,137.01L797.547,135.184L796.827,134.556L791.532,129.935L785.168,125.116L778.745,120.923L778.484,120.753L773.606,118.034L771.511,116.867L764.286,113.474L756.839,110.594L749.214,108.238L741.441,106.418L733.561,105.146L725.61,104.426L717.627,104.258L709.656,104.647L701.728,105.591L693.887,107.084L686.169,109.123L680.72,110.974L678.611,111.691L671.25,114.778L664.121,118.372L657.261,122.451L650.701,127.001L644.474,131.995L638.609,137.412L634.277,142.011L633.135,143.223L628.719,148.62L628.081,149.4L623.466,155.914L619.319,162.734L615.654,169.826L612.493,177.157L609.851,184.691L607.74,192.39L607.203,195.063L606.169,200.217L605.149,208.134L604.678,216.102L604.766,224.084L605.409,232.041L606.606,239.933L608.349,247.723L610.628,255.373L613.437,262.845L616.757,270.105M1046.77,645.66L1046.81,645.588L1046.83,645.513L1046.84,645.435L1046.84,613.035L1046.83,612.957L1046.7,612.422L1046.7,612.389L1046.64,612.242L1046.38,611.875L1046.38,611.86L1046.27,611.74L1045.89,611.472L1045.76,611.393L1045.44,611.321L1045.19,611.262L1045.11,611.242L1045.04,611.235L904.635,611.235L904.071,611.333L904.057,611.332L904.02,611.342L903.949,611.376L903.884,611.421L903.312,611.823L903.257,611.878L902.965,612.38L902.942,612.42L902.835,613.035L902.835,645.435L902.842,645.513L902.895,645.66L903.076,646.336L903.295,646.61L903.34,646.674L903.395,646.729L903.778,646.997L903.913,647.076L904.481,647.208L904.557,647.228L904.635,647.235L1045.04,647.235L1045.11,647.228L1045.68,647.096L1045.83,647.043L1046.13,646.858L1046.19,646.812L1046.42,646.551L1046.53,646.432L1046.77,645.66M127.157,270.105L125.823,271.469L124.391,272.933L122.328,275.044L119.519,277.917L115.8,281.72L110.908,286.725L109.711,287.949L106.557,291.175L105.364,292.632L104.443,294.273L103.819,296.048L103.513,297.904L103.533,299.789L103.881,301.637L104.545,303.401L105.506,305.019L106.73,306.448L123.406,322.75L135.315,334.392L142.77,341.68L144.224,342.876L145.865,343.797L147.643,344.421L149.499,344.727L151.381,344.707L153.232,344.358L154.993,343.695L156.614,342.734L158.043,341.51L165,334.392L177.976,321.117L185.224,324.465L192.685,327.302L200.327,329.613L208.111,331.384L215.997,332.609L216.292,332.634L223.954,333.281L231.934,333.4L239.905,332.96L247.827,331.968L255.66,330.429L263.364,328.346L270.907,325.732L278.249,322.6L285.355,318.963L292.192,314.841L298.723,310.252L304.92,305.22L309.178,301.242L309.68,300.772L310.754,299.769L310.949,299.56L316.191,293.924L321.02,287.949L321.208,287.717L325.783,281.174L329.888,274.329L333.51,267.214L336.626,259.863L339.222,252.315L341.289,244.604L341.89,241.506L342.811,236.769L343.786,228.847L344.205,220.873L344.069,212.893L343.378,204.939L342.133,197.053L341.676,195.063L340.345,189.275L338.017,181.638L335.166,174.183L331.801,166.944L327.94,159.956L323.6,153.255L320.12,148.62L318.807,146.872L313.583,140.839L309.767,137.01L309.178,136.419L307.947,135.184L301.932,129.935L295.568,125.116L288.884,120.753L281.911,116.867L274.686,113.474L267.239,110.594L259.614,108.238L251.841,106.418L243.961,105.146L236.01,104.426L228.027,104.258L220.056,104.647L216.292,105.095L212.128,105.591L204.287,107.084L196.569,109.123L189.011,111.691L181.65,114.778L174.521,118.372L169.849,121.15L167.661,122.451L163.41,125.399L161.101,127.001L154.874,131.995L149.009,137.412L146.628,139.94L143.535,143.223L139.119,148.62L138.481,149.4L133.866,155.914L129.719,162.734L126.054,169.826L123.406,175.967L122.893,177.157L120.251,184.691L118.14,192.39L117.603,195.063L116.569,200.217L115.549,208.134L115.078,216.102L115.166,224.084L115.809,232.041L117.006,239.933L118.749,247.723L121.028,255.373L123.837,262.845L127.157,270.105M631.148,583.288L631.933,582.922L632.645,582.426L633.257,581.814L633.753,581.102L634.119,580.317L634.277,579.724L634.343,579.481L634.419,578.619L634.343,577.758L634.277,577.514L634.119,576.921L633.753,576.136L633.257,575.425L632.645,574.812L631.933,574.316L631.148,573.951L630.312,573.727L629.45,573.65L628.588,573.727L628.472,573.758L627.752,573.951L626.967,574.316L626.255,574.812L625.643,575.425L625.147,576.136L624.781,576.921L624.557,577.758L624.481,578.619L624.557,579.481L624.781,580.317L625.147,581.102L625.643,581.814L626.255,582.426L626.967,582.922L627.752,583.288L628.472,583.481L628.588,583.512L629.45,583.588L630.312,583.512L631.148,583.288M669.002,591.826L676.31,595.08L680.72,596.686L683.824,597.815L691.515,600.018L699.335,601.682L707.258,602.796L715.235,603.352L723.234,603.352L731.211,602.796L739.134,601.682L746.955,600.018L754.645,597.815L762.16,595.08L769.467,591.826L776.529,588.07L783.312,583.832L789.783,579.132L795.909,573.99L796.827,573.103L801.663,568.434L803.309,566.606L807.015,562.49L811.939,556.189L816.412,549.558L820.409,542.631L823.915,535.442L826.912,528.026L829.383,520.418L829.447,520.163L831.319,512.66L832.708,504.782L833.545,496.828L833.822,488.835L833.545,480.841L832.796,473.72L832.708,472.887L831.319,465.009L829.383,457.251L826.912,449.643L823.915,442.227L820.409,435.039L816.412,428.111L815.85,427.277L811.939,421.481L807.015,415.179L801.663,409.235L796.299,404.056L795.909,403.679L789.783,398.537L783.312,393.837L776.529,389.599L773.606,388.045L769.467,385.843L762.16,382.589L757.339,380.835L754.645,379.854L746.955,377.651L739.134,375.987L731.211,374.873L723.234,374.318L715.235,374.318L707.258,374.873L699.335,375.987L691.515,377.651L683.824,379.854L680.72,380.984L676.31,382.589L669.002,385.843L661.941,389.599L655.157,393.837L648.686,398.537L642.56,403.679L636.806,409.235L634.277,412.043L631.454,415.179L626.53,421.481L622.62,427.277L622.057,428.111L618.06,435.039L614.554,442.227L611.558,449.643L609.086,457.251L607.15,465.009L605.761,472.887L605.673,473.72L604.925,480.841L604.647,488.835L604.925,496.828L605.761,504.782L607.15,512.66L609.086,520.418L611.558,528.026L614.554,535.442L618.06,542.631L622.057,549.558L626.53,556.189L631.454,562.49L635.16,566.606L636.806,568.434L642.56,573.99L648.686,579.132L655.157,583.832L661.941,588.07L669.002,591.826M388.457,125.425L387.845,124.812L387.133,124.316L386.348,123.951L385.512,123.727L384.65,123.65L383.788,123.727L382.952,123.951L382.167,124.316L381.455,124.812L380.843,125.425L380.347,126.136L379.981,126.921L379.757,127.758L379.681,128.619L379.757,129.481L379.981,130.317L380.347,131.102L380.418,131.204L380.843,131.814L381.455,132.426L382.167,132.922L382.952,133.288L383.788,133.512L384.65,133.588L385.512,133.512L386.348,133.288L387.133,132.922L387.845,132.426L388.457,131.814L388.882,131.204L388.953,131.102L389.319,130.317L389.543,129.481L389.619,128.619L389.543,127.758L389.319,126.921L388.953,126.136L388.457,125.425M403.886,128.537L402.063,130.067L397.76,133.679L394.311,137.01L392.006,139.235L386.654,145.179L383.965,148.62L381.73,151.481L377.257,158.111L373.26,165.039L369.754,172.227L366.758,179.643L364.286,187.251L362.35,195.009L362.34,195.063L360.961,202.887L360.125,210.841L359.847,218.835L360.125,226.828L360.961,234.782L362.147,241.506L362.35,242.66L364.286,250.418L366.758,258.026L369.754,265.442L373.26,272.631L377.257,279.558L381.73,286.189L383.106,287.949L386.654,292.49L392.006,298.434L393.172,299.56L397.76,303.99L402.063,307.602L403.886,309.132L410.357,313.832L417.141,318.07L424.202,321.826L431.51,325.08L439.024,327.815L446.715,330.018L454.535,331.682L462.458,332.796L470.435,333.352L478.434,333.352L486.411,332.796L494.334,331.682L494.949,331.551L502.155,330.018L509.845,327.815L517.36,325.08L524.667,321.826L531.729,318.07L538.512,313.832L541.392,311.741L542.177,311.17L544.983,309.132L551.109,303.99L555.698,299.56L556.863,298.434L562.215,292.49L564.627,289.403L565.763,287.949L567.139,286.189L571.612,279.558L575.609,272.631L579.115,265.442L582.111,258.026L584.583,250.418L586.519,242.66L587.908,234.782L588.745,226.828L589.022,218.835L588.745,210.841L587.908,202.887L586.529,195.063L586.519,195.009L584.583,187.251L582.111,179.643L579.115,172.227L575.609,165.039L571.612,158.111L567.139,151.481L564.904,148.62L564.613,148.248L562.215,145.179L556.863,139.235L554.559,137.01L553.003,135.507L551.109,133.679L544.983,128.537L541.392,125.929L538.512,123.837L531.729,119.599L524.667,115.843L517.36,112.589L509.845,109.854L502.155,107.651L494.949,106.118L494.334,105.987L486.411,104.873L478.434,104.318L470.435,104.318L462.458,104.873L454.535,105.987L446.715,107.651L439.024,109.854L431.51,112.589L424.202,115.843L417.141,119.599L410.357,123.837L403.886,128.537M141.548,573.951L140.712,573.727L139.85,573.65L138.988,573.727L138.152,573.951L137.367,574.316L136.655,574.812L136.043,575.425L135.547,576.136L135.181,576.921L135.017,577.535L134.957,577.758L134.917,578.217L134.881,578.619L134.957,579.481L135.017,579.703L135.181,580.317L135.547,581.102L136.043,581.814L136.655,582.426L137.367,582.922L138.152,583.288L138.988,583.512L139.85,583.588L140.712,583.512L141.548,583.288L142.333,582.922L143.045,582.426L143.657,581.814L144.153,581.102L144.519,580.317L144.743,579.481L144.819,578.619L144.783,578.217L144.743,577.758L144.519,576.921L144.153,576.136L143.657,575.425L143.045,574.812L142.333,574.316L141.548,573.951M323.657,125.425L323.045,124.812L322.333,124.316L321.548,123.951L320.712,123.727L319.85,123.65L318.988,123.727L318.152,123.951L317.367,124.316L316.655,124.812L316.043,125.425L315.547,126.136L315.181,126.921L314.957,127.758L314.881,128.619L314.957,129.481L315.181,130.317L315.547,131.102L315.618,131.204L316.043,131.814L316.655,132.426L317.367,132.922L318.152,133.288L318.988,133.512L319.85,133.588L320.712,133.512L320.788,133.491L321.548,133.288L322.333,132.922L323.045,132.426L323.657,131.814L324.153,131.102L324.519,130.317L324.743,129.481L324.819,128.619L324.743,127.758L324.519,126.921L324.153,126.136L323.657,125.425M814.383,578.217L814.343,577.758L814.119,576.921L813.753,576.136L813.257,575.425L812.645,574.812L811.933,574.316L811.148,573.951L810.312,573.727L809.45,573.65L808.588,573.727L808.438,573.767L807.752,573.951L806.967,574.316L806.255,574.812L805.643,575.425L805.147,576.136L804.781,576.921L804.557,577.758L804.481,578.619L804.557,579.481L804.781,580.317L805.147,581.102L805.643,581.814L806.255,582.426L806.967,582.922L807.752,583.288L808.438,583.472L808.588,583.512L809.45,583.588L810.312,583.512L811.148,583.288L811.933,582.922L812.645,582.426L813.257,581.814L813.753,581.102L814.119,580.317L814.343,579.481L814.419,578.619L814.383,578.217M624.481,398.619L624.557,399.481L624.781,400.317L625.147,401.102L625.643,401.814L626.255,402.426L626.967,402.922L627.752,403.288L628.588,403.512L629.45,403.588L630.312,403.512L631.148,403.288L631.933,402.922L632.645,402.426L633.257,401.814L633.753,401.102L634.119,400.317L634.277,399.724L634.343,399.481L634.419,398.619L634.343,397.757L634.277,397.514L634.119,396.921L633.753,396.136L633.257,395.425L632.645,394.812L631.933,394.316L631.148,393.951L630.312,393.727L629.45,393.65L628.588,393.727L627.752,393.951L626.967,394.316L626.255,394.812L625.643,395.425L625.147,396.136L624.781,396.921L624.557,397.757L624.481,398.619M559.681,128.619L559.757,129.481L559.981,130.317L560.347,131.102L560.843,131.814L561.455,132.426L562.167,132.922L562.952,133.288L563.788,133.512L564.613,133.585L564.65,133.588L565.512,133.512L566.348,133.288L567.133,132.922L567.845,132.426L568.457,131.814L568.953,131.102L569.319,130.317L569.543,129.481L569.619,128.619L569.543,127.758L569.319,126.921L568.953,126.136L568.457,125.425L568.431,125.399L567.845,124.812L567.133,124.316L566.348,123.951L565.512,123.727L564.65,123.65L563.788,123.727L562.952,123.951L562.167,124.316L561.455,124.812L560.869,125.399L560.843,125.425L560.347,126.136L559.981,126.921L559.757,127.758L559.681,128.619M141.854,562.49L145.56,566.606L146.628,567.792L147.206,568.434L152.96,573.99L159.086,579.132L165.557,583.832L169.849,586.513L172.341,588.07L179.402,591.826L186.71,595.08L194.224,597.815L201.915,600.018L209.735,601.682L216.292,602.604L217.658,602.796L225.635,603.352L233.634,603.352L241.611,602.796L249.534,601.682L257.355,600.018L265.045,597.815L272.56,595.08L279.867,591.826L286.929,588.07L293.712,583.832L300.183,579.132L306.309,573.99L309.178,571.221L312.063,568.434L313.709,566.606L317.415,562.49L322.339,556.189L326.812,549.558L330.809,542.631L334.315,535.442L337.312,528.026L339.783,520.418L339.847,520.163L341.719,512.66L343.108,504.782L343.945,496.828L344.222,488.835L343.945,480.841L343.196,473.72L343.108,472.887L341.719,465.009L339.783,457.251L337.312,449.643L334.315,442.227L330.809,435.039L326.812,428.111L326.25,427.277L322.339,421.481L317.415,415.179L312.063,409.235L309.178,406.449L306.309,403.679L300.183,398.537L293.712,393.837L286.929,389.599L279.867,385.843L272.56,382.589L267.739,380.835L265.045,379.854L257.355,377.651L249.534,375.987L241.611,374.873L233.634,374.318L225.635,374.318L217.658,374.873L216.292,375.066L209.735,375.987L201.915,377.651L194.224,379.854L191.53,380.835L186.71,382.589L179.402,385.843L172.341,389.599L169.849,391.156L165.557,393.837L159.086,398.537L152.96,403.679L152.57,404.056L147.206,409.235L141.854,415.179L136.93,421.481L133.02,427.277L132.457,428.111L128.46,435.039L124.954,442.227L123.406,446.058L121.958,449.643L119.486,457.251L117.55,465.009L116.161,472.887L116.073,473.72L115.325,480.841L115.047,488.835L115.325,496.828L116.161,504.782L117.55,512.66L119.486,520.418L121.958,528.026L124.954,535.442L128.46,542.631L132.457,549.558L136.93,556.189L141.854,562.49M813.753,401.102L814.119,400.317L814.343,399.481L814.419,398.619L814.386,398.251L814.343,397.757L814.119,396.921L813.753,396.136L813.257,395.425L812.645,394.812L811.933,394.316L811.148,393.951L810.312,393.727L809.45,393.65L808.588,393.727L807.752,393.951L806.967,394.316L806.255,394.812L805.643,395.425L805.147,396.136L804.781,396.921L804.557,397.757L804.481,398.619L804.557,399.481L804.781,400.317L805.147,401.102L805.643,401.814L806.255,402.426L806.967,402.922L807.752,403.288L808.588,403.512L809.45,403.588L810.312,403.512L811.148,403.288L811.933,402.922L812.645,402.426L813.257,401.814L813.753,401.102M875.948,393.951L875.112,393.727L874.25,393.65L873.388,393.727L872.552,393.951L871.767,394.316L871.055,394.812L870.443,395.425L869.947,396.136L869.581,396.921L869.357,397.757L869.314,398.251L869.281,398.619L869.357,399.481L869.581,400.317L869.947,401.102L870.443,401.814L871.055,402.426L871.767,402.922L872.297,403.169L872.552,403.288L873.388,403.512L874.25,403.588L875.112,403.512L875.948,403.288L876.733,402.922L877.445,402.426L878.057,401.814L878.553,401.102L878.919,400.317L879.143,399.481L879.219,398.619L879.143,397.757L878.919,396.921L878.553,396.136L878.057,395.425L877.445,394.812L876.733,394.316L875.948,393.951M1051.06,582.426L1051.77,582.922L1052.26,583.153L1052.55,583.288L1053.39,583.512L1054.25,583.588L1055.11,583.512L1055.95,583.288L1056.73,582.922L1057.44,582.426L1058.06,581.814L1058.55,581.102L1058.92,580.317L1059.14,579.481L1059.22,578.619L1059.18,578.217L1059.14,577.758L1058.92,576.921L1058.55,576.136L1058.06,575.425L1057.44,574.812L1056.73,574.316L1055.95,573.951L1055.11,573.727L1054.25,573.65L1053.39,573.727L1052.55,573.951L1052.26,574.085L1051.77,574.316L1051.06,574.812L1050.44,575.425L1049.95,576.136L1049.58,576.921L1049.36,577.758L1049.32,578.217L1049.28,578.619L1049.36,579.481L1049.58,580.317L1049.95,581.102L1050.44,581.814L1051.06,582.426M560.347,311.102L560.843,311.814L561.455,312.426L562.167,312.922L562.952,313.288L563.788,313.512L564.65,313.588L565.512,313.512L566.348,313.288L567.133,312.922L567.845,312.426L568.457,311.814L568.953,311.102L569.319,310.317L569.543,309.481L569.619,308.619L569.543,307.757L569.319,306.921L568.953,306.136L568.457,305.425L567.845,304.812L567.133,304.316L566.348,303.951L565.512,303.727L564.65,303.65L563.788,303.727L562.952,303.951L562.167,304.316L561.455,304.812L560.843,305.425L560.347,306.136L559.981,306.921L559.757,307.757L559.681,308.619L559.757,309.481L559.981,310.317L560.347,311.102M381.455,304.812L380.903,305.365L380.843,305.425L380.347,306.136L379.981,306.921L379.757,307.757L379.681,308.619L379.757,309.481L379.981,310.317L380.347,311.102L380.395,311.17L380.843,311.814L381.455,312.426L382.167,312.922L382.952,313.288L383.788,313.512L384.65,313.588L385.512,313.512L386.348,313.288L387.133,312.922L387.845,312.426L388.457,311.814L388.906,311.17L388.953,311.102L389.319,310.317L389.543,309.481L389.619,308.619L389.543,307.757L389.319,306.921L388.953,306.136L388.457,305.425L388.397,305.365L387.845,304.812L387.133,304.316L386.348,303.951L385.512,303.727L384.65,303.65L383.788,303.727L382.952,303.951L382.167,304.316L381.455,304.812M323.657,311.814L324.106,311.17L324.153,311.102L324.519,310.317L324.743,309.481L324.819,308.619L324.743,307.757L324.519,306.921L324.153,306.136L323.657,305.425L323.045,304.812L322.333,304.316L321.548,303.951L320.712,303.727L319.85,303.65L318.988,303.727L318.152,303.951L317.367,304.316L316.655,304.812L316.103,305.365L316.043,305.425L315.547,306.136L315.181,306.921L314.957,307.757L314.881,308.619L314.957,309.481L315.181,310.317L315.547,311.102L315.595,311.17L316.043,311.814L316.655,312.426L317.367,312.922L318.152,313.288L318.988,313.512L319.85,313.588L320.712,313.512L321.548,313.288L322.333,312.922L323.045,312.426L323.657,311.814M1148.73,739.76L1148.64,740.835L1148.73,741.909L1149.02,742.952L1149.47,743.93L1150.09,744.815L1150.86,745.58L1151.74,746.198L1152.72,746.654L1153.76,746.935L1154.84,747.028L1155.91,746.935L1156.95,746.654L1157.93,746.198L1158.81,745.58L1159.58,744.815L1160.2,743.93L1160.65,742.952L1160.93,741.909L1161.03,740.835L1160.93,739.76L1160.65,738.717L1160.2,737.739L1159.58,736.855L1158.81,736.089L1157.93,735.472L1156.95,735.015L1155.91,734.735L1154.84,734.641L1153.76,734.735L1152.72,735.015L1151.74,735.472L1150.86,736.089L1150.09,736.855L1149.47,737.739L1149.02,738.717L1148.73,739.76M144.743,127.758L144.519,126.921L144.153,126.136L143.657,125.425L143.045,124.812L142.333,124.316L141.548,123.951L140.712,123.727L139.85,123.65L138.988,123.727L138.152,123.951L137.367,124.316L136.655,124.812L136.043,125.425L135.547,126.136L135.181,126.921L135.017,127.535L134.957,127.758L134.881,128.619L134.957,129.481L135.017,129.703L135.181,130.317L135.547,131.102L135.618,131.204L136.043,131.814L136.655,132.426L137.367,132.922L138.152,133.288L138.988,133.512L139.85,133.588L140.712,133.512L141.548,133.288L142.333,132.922L143.045,132.426L143.657,131.814L144.082,131.204L144.153,131.102L144.519,130.317L144.743,129.481L144.819,128.619L144.743,127.758M1052.55,393.951L1051.77,394.316L1051.06,394.812L1050.44,395.425L1049.95,396.136L1049.58,396.921L1049.36,397.757L1049.28,398.619L1049.36,399.481L1049.58,400.317L1049.95,401.102L1050.44,401.814L1051.06,402.426L1051.77,402.922L1052.55,403.288L1053.39,403.512L1054.25,403.588L1055.11,403.512L1055.95,403.288L1056.73,402.922L1057.44,402.426L1058.06,401.814L1058.55,401.102L1058.92,400.317L1059.14,399.481L1059.22,398.619L1059.19,398.251L1059.14,397.757L1058.92,396.921L1058.55,396.136L1058.06,395.425L1057.44,394.812L1056.73,394.316L1055.95,393.951L1055.11,393.727L1054.25,393.65L1053.39,393.727L1052.55,393.951M17.739,44.082L17.678,44.124L16.855,44.7L16.089,45.465L15.471,46.349L15.015,47.327L14.734,48.37L14.641,49.445L14.734,50.522L15.015,51.562L15.471,52.543L16.089,53.425L16.855,54.19L17.739,54.808L18.717,55.264L18.91,55.316L19.76,55.545L20.835,55.638L21.909,55.545L22.952,55.264L23.93,54.808L24.814,54.19L25.58,53.425L26.198,52.543L26.654,51.562L26.935,50.522L26.986,49.929L27.028,49.445L26.935,48.37L26.654,47.327L26.198,46.349L25.58,45.465L24.814,44.7L23.991,44.124L23.93,44.082L22.952,43.625L21.909,43.347L20.835,43.251L19.76,43.347L18.717,43.625L17.739,44.082M633.753,126.136L633.257,125.425L633.231,125.399L632.645,124.812L631.933,124.316L631.148,123.951L630.312,123.727L629.45,123.65L628.588,123.727L627.752,123.951L626.967,124.316L626.255,124.812L625.669,125.399L625.643,125.425L625.147,126.136L624.781,126.921L624.557,127.758L624.481,128.619L624.557,129.481L624.781,130.317L625.147,131.102L625.218,131.204L625.643,131.814L626.255,132.426L626.967,132.922L627.752,133.288L628.588,133.512L629.45,133.588L630.312,133.512L631.148,133.288L631.933,132.922L632.645,132.426L633.257,131.814L633.682,131.204L633.753,131.102L634.119,130.317L634.277,129.724L634.343,129.481L634.419,128.619L634.343,127.758L634.277,127.514L634.119,126.921L633.753,126.136M805.147,311.102L805.195,311.17L805.643,311.814L806.255,312.426L806.967,312.922L807.752,313.288L808.588,313.512L809.45,313.588L810.312,313.512L811.148,313.288L811.933,312.922L812.645,312.426L813.257,311.814L813.706,311.17L813.753,311.102L814.119,310.317L814.343,309.481L814.419,308.619L814.343,307.757L814.119,306.921L813.753,306.136L813.257,305.425L812.645,304.812L811.933,304.316L811.148,303.951L810.312,303.727L809.45,303.65L808.588,303.727L808.438,303.767L807.752,303.951L806.967,304.316L806.255,304.812L805.643,305.425L805.147,306.136L804.781,306.921L804.557,307.757L804.481,308.619L804.557,309.481L804.781,310.317L805.147,311.102M806.967,132.922L807.752,133.288L808.438,133.472L808.588,133.512L809.45,133.588L810.312,133.512L811.148,133.288L811.933,132.922L812.645,132.426L813.257,131.814L813.753,131.102L814.119,130.317L814.343,129.481L814.419,128.619L814.343,127.758L814.119,126.921L813.753,126.136L813.257,125.425L812.645,124.812L811.933,124.316L811.148,123.951L810.312,123.727L809.45,123.65L808.588,123.727L807.752,123.951L806.967,124.316L806.255,124.812L805.643,125.425L805.147,126.136L804.781,126.921L804.557,127.758L804.481,128.619L804.557,129.481L804.781,130.317L805.147,131.102L805.643,131.814L806.255,132.426L806.967,132.922M567.845,402.426L568.457,401.814L568.953,401.102L569.319,400.317L569.543,399.481L569.619,398.619L569.543,397.757L569.319,396.921L568.953,396.136L568.457,395.425L567.845,394.812L567.133,394.316L566.348,393.951L565.512,393.727L564.65,393.65L563.788,393.727L562.952,393.951L562.167,394.316L561.455,394.812L560.843,395.425L560.347,396.136L559.981,396.921L559.757,397.757L559.681,398.619L559.757,399.481L559.981,400.317L560.347,401.102L560.843,401.814L561.455,402.426L562.167,402.922L562.952,403.288L563.788,403.512L564.65,403.588L565.512,403.512L566.348,403.288L567.133,402.922L567.845,402.426M1156.95,15.015L1155.91,14.735L1154.84,14.641L1153.76,14.735L1152.72,15.015L1151.74,15.472L1150.86,16.089L1150.09,16.855L1149.47,17.739L1149.02,18.717L1148.73,19.76L1148.64,20.835L1148.73,21.909L1149.02,22.952L1149.47,23.93L1150.09,24.815L1150.86,25.58L1151.74,26.198L1152.72,26.654L1153.76,26.935L1154.84,27.028L1155.91,26.935L1156.95,26.654L1157.93,26.198L1158.81,25.58L1159.58,24.815L1160.2,23.93L1160.65,22.952L1160.93,21.909L1161.03,20.835L1160.93,19.76L1160.65,18.717L1160.2,17.739L1159.58,16.855L1158.81,16.089L1157.93,15.472L1156.95,15.015M382.952,403.288L383.788,403.512L384.647,403.588L384.65,403.588L385.512,403.512L386.348,403.288L387.133,402.922L387.845,402.426L388.457,401.814L388.953,401.102L389.319,400.317L389.543,399.481L389.619,398.619L389.586,398.251L389.543,397.757L389.319,396.921L388.953,396.136L388.457,395.425L387.845,394.812L387.133,394.316L386.348,393.951L385.512,393.727L384.65,393.65L383.788,393.727L382.952,393.951L382.167,394.316L381.455,394.812L380.843,395.425L380.347,396.136L379.981,396.921L379.757,397.757L379.714,398.251L379.681,398.619L379.757,399.481L379.981,400.317L380.347,401.102L380.843,401.814L381.455,402.426L382.167,402.922L382.952,403.288M142.333,402.922L143.045,402.426L143.657,401.814L144.153,401.102L144.519,400.317L144.743,399.481L144.819,398.619L144.786,398.251L144.743,397.757L144.519,396.921L144.153,396.136L143.657,395.425L143.045,394.812L142.333,394.316L141.548,393.951L140.712,393.727L139.85,393.65L138.988,393.727L138.152,393.951L137.367,394.316L136.655,394.812L136.043,395.425L135.547,396.136L135.181,396.921L135.017,397.535L134.957,397.757L134.881,398.619L134.957,399.481L135.017,399.703L135.181,400.317L135.547,401.102L136.043,401.814L136.655,402.426L137.367,402.922L138.152,403.288L138.988,403.512L139.85,403.588L140.712,403.512L141.548,403.288L142.333,402.922M878.057,131.814L878.102,131.749L878.553,131.102L878.919,130.317L879.143,129.481L879.219,128.619L879.143,127.758L878.919,126.921L878.553,126.136L878.102,125.49L878.057,125.425L877.445,124.812L876.733,124.316L875.948,123.951L875.112,123.727L874.25,123.65L873.388,123.727L872.552,123.951L871.767,124.316L871.055,124.812L870.443,125.425L869.947,126.136L869.581,126.921L869.357,127.758L869.281,128.619L869.357,129.481L869.581,130.317L869.947,131.102L870.018,131.204L870.443,131.814L871.055,132.426L871.767,132.922L872.552,133.288L873.388,133.512L874.25,133.588L875.112,133.512L875.948,133.288L876.733,132.922L877.445,132.426L878.057,131.814M320.788,403.491L321.548,403.288L322.333,402.922L323.045,402.426L323.657,401.814L324.153,401.102L324.519,400.317L324.743,399.481L324.819,398.619L324.743,397.757L324.519,396.921L324.153,396.136L323.657,395.425L323.045,394.812L322.333,394.316L321.548,393.951L320.712,393.727L319.85,393.65L318.988,393.727L318.152,393.951L317.367,394.316L316.655,394.812L316.043,395.425L315.547,396.136L315.181,396.921L314.957,397.757L314.914,398.251L314.881,398.619L314.957,399.481L315.181,400.317L315.547,401.102L316.043,401.814L316.655,402.426L317.367,402.922L318.152,403.288L318.988,403.512L319.85,403.588L320.712,403.512L320.788,403.491M1051.77,312.922L1052.26,313.153L1052.55,313.288L1053.39,313.512L1054.25,313.588L1055.11,313.512L1055.95,313.288L1056.73,312.922L1057.44,312.426L1058.06,311.814L1058.51,311.17L1058.55,311.102L1058.92,310.317L1059.14,309.481L1059.22,308.619L1059.14,307.757L1058.92,306.921L1058.55,306.136L1058.06,305.425L1057.44,304.812L1056.73,304.316L1055.95,303.951L1055.11,303.727L1054.25,303.65L1053.39,303.727L1052.55,303.951L1052.26,304.085L1051.77,304.316L1051.06,304.812L1050.44,305.425L1049.95,306.136L1049.58,306.921L1049.36,307.757L1049.28,308.619L1049.36,309.481L1049.58,310.317L1049.95,311.102L1050,311.17L1050.44,311.814L1051.06,312.426L1051.77,312.922M14.734,739.76L14.641,740.835L14.734,741.909L15.015,742.952L15.471,743.93L16.089,744.815L16.855,745.58L17.739,746.198L18.717,746.654L19.76,746.935L20.835,747.028L21.909,746.935L22.952,746.654L23.93,746.198L24.814,745.58L25.58,744.815L26.198,743.93L26.654,742.952L26.935,741.909L27.028,740.835L26.935,739.76L26.654,738.717L26.198,737.739L25.58,736.855L24.814,736.089L23.93,735.472L22.952,735.015L21.909,734.735L20.835,734.641L19.76,734.735L18.717,735.015L17.739,735.472L16.855,736.089L16.089,736.855L15.471,737.739L15.015,738.717L14.734,739.76M1051.77,132.922L1052.26,133.153L1052.55,133.288L1053.39,133.512L1054.25,133.588L1055.11,133.512L1055.95,133.288L1056.73,132.922L1057.44,132.426L1058.06,131.814L1058.48,131.204L1058.55,131.102L1058.92,130.317L1059.14,129.481L1059.22,128.619L1059.14,127.758L1058.92,126.921L1058.55,126.136L1058.06,125.425L1057.44,124.812L1056.73,124.316L1055.95,123.951L1055.11,123.727L1054.25,123.65L1053.39,123.727L1052.55,123.951L1052.26,124.085L1051.77,124.316L1051.06,124.812L1050.44,125.425L1049.95,126.136L1049.58,126.921L1049.36,127.758L1049.28,128.619L1049.36,129.481L1049.58,130.317L1049.95,131.102L1050.44,131.814L1051.06,132.426L1051.77,132.922M320.712,583.512L320.788,583.491L321.548,583.288L322.333,582.922L323.045,582.426L323.657,581.814L324.153,581.102L324.519,580.317L324.743,579.481L324.819,578.619L324.743,577.758L324.519,576.921L324.153,576.136L323.657,575.425L323.045,574.812L322.333,574.316L321.548,573.951L320.788,573.747L320.712,573.727L319.85,573.65L318.988,573.727L318.152,573.951L317.367,574.316L316.655,574.812L316.043,575.425L315.547,576.136L315.181,576.921L314.957,577.758L314.881,578.619L314.957,579.481L315.181,580.317L315.547,581.102L316.043,581.814L316.655,582.426L317.367,582.922L318.152,583.288L318.988,583.512L319.85,583.588L320.712,583.512Z" style="fill:none;fill-rule:nonzero;stroke:black;stroke-width:2px;"/>
    </g>
</svg>
