<?xml version="1.0" encoding="UTF-8" standalone="no"?>
<!DOCTYPE svg PUBLIC "-//W3C//DTD SVG 1.1//EN" "http://www.w3.org/Graphics/SVG/1.1/DTD/svg11.dtd">
<svg width="1920px" height="1152px" version="1.1" xmlns="http://www.w3.org/2000/svg" xmlns:xlink="http://www.w3.org/1999/xlink" xml:space="preserve" xmlns:serif="http://www.serif.com/" style="fill-rule:evenodd;clip-rule:evenodd;stroke-linecap:round;stroke-linejoin:round;stroke-miterlimit:1.5;">
    <rect id="Artboard1" x="0" y="0" width="1920" height="1152" style="fill:none;"/>
    <g id="Artboard11" serif:id="Artboard1">
        <g id="Cut-Layer" serif:id="Cut Layer">
        </g>
        <g id="Engrave-Layer" serif:id="Engrave Layer">
        </g>
        <g id="Score-Layer" serif:id="Score Layer">
            <g transform="matrix(0.350131,0,0,0.852065,97.2644,4.73956)">
                <rect x="122.207" y="111.579" width="438.693" height="279.451" style="fill:none;stroke:rgb(26,230,49);stroke-width:4.09px;"/>
            </g>
            <g transform="matrix(0.966213,0,0,0.942633,28.3126,-1.59473)">
                <rect x="105.336" y="95.511" width="179.938" height="276.658" style="fill:none;stroke:rgb(242,13,162);stroke-width:2.79px;"/>
            </g>
            <g transform="matrix(1.07767,0,0,1.07767,25.9347,-8.86074)">
                <circle cx="96.578" cy="90.312" r="5.568" style="fill:none;stroke:rgb(13,40,242);stroke-width:2.47px;"/>
            </g>
            <g transform="matrix(1.07767,0,0,1.07767,199.149,-8.68387)">
                <circle cx="96.578" cy="90.312" r="5.568" style="fill:none;stroke:rgb(13,40,242);stroke-width:2.47px;"/>
            </g>
            <g transform="matrix(1.07767,0,0,1.07767,25.8522,251.502)">
                <circle cx="96.578" cy="90.312" r="5.568" style="fill:none;stroke:rgb(13,40,242);stroke-width:2.47px;"/>
            </g>
            <g transform="matrix(1.07767,0,0,1.07767,199.066,251.679)">
                <circle cx="96.578" cy="90.312" r="5.568" style="fill:none;stroke:rgb(13,40,242);stroke-width:2.47px;"/>
            </g>
            <g transform="matrix(1.02995,0,0,0.549471,-1.54517,-4.64137)">
                <path d="M1409.7,80.76C1409.7,73.519 1406.56,67.641 1402.7,67.641L65.173,67.641C61.31,67.641 58.174,73.519 58.174,80.76L58.174,753.375C58.174,760.616 61.31,766.494 65.173,766.494L1402.7,766.494C1406.56,766.494 1409.7,760.616 1409.7,753.375L1409.7,80.76Z" style="fill:none;stroke:rgb(13,40,242);stroke-width:3.23px;"/>
            </g>
            <g transform="matrix(1,0,0,1,-2.27336,-35.1899)">
                <g transform="matrix(0.662875,0,0,0.662875,1406.6,71.726)">
                    <circle cx="28.784" cy="34.375" r="11.586" style="fill:none;stroke:rgb(1,0,255);stroke-width:2.01px;"/>
                </g>
                <g transform="matrix(0.502904,0,0,0.585768,854.731,13.3808)">
                    <ellipse cx="1135.3" cy="138.504" rx="40.087" ry="34.416" style="fill:none;stroke:rgb(242,13,162);stroke-width:4.88px;"/>
                </g>
            </g>
            <g transform="matrix(1,0,0,1,-1.25733,295.322)">
                <g transform="matrix(0.662875,0,0,0.662875,1406.6,71.726)">
                    <circle cx="28.784" cy="34.375" r="11.586" style="fill:none;stroke:rgb(1,0,255);stroke-width:2.01px;"/>
                </g>
                <g transform="matrix(0.502904,0,0,0.585768,854.731,13.3808)">
                    <ellipse cx="1135.3" cy="138.504" rx="40.087" ry="34.416" style="fill:none;stroke:rgb(242,13,162);stroke-width:4.88px;"/>
                </g>
            </g>
            <g transform="matrix(1,0,0,1,-1342.58,-35.1899)">
                <g transform="matrix(0.662875,0,0,0.662875,1406.6,71.726)">
                    <circle cx="28.784" cy="34.375" r="11.586" style="fill:none;stroke:rgb(1,0,255);stroke-width:2.01px;"/>
                </g>
                <g transform="matrix(0.502904,0,0,0.585768,854.731,13.3808)">
                    <ellipse cx="1135.3" cy="138.504" rx="40.087" ry="34.416" style="fill:none;stroke:rgb(242,13,162);stroke-width:4.88px;"/>
                </g>
            </g>
            <g transform="matrix(1,0,0,1,-669.946,-35.1899)">
                <g transform="matrix(0.662875,0,0,0.662875,1406.6,71.726)">
                    <circle cx="28.784" cy="34.375" r="11.586" style="fill:none;stroke:rgb(1,0,255);stroke-width:2.01px;"/>
                </g>
                <g transform="matrix(0.502904,0,0,0.585768,854.731,13.3808)">
                    <ellipse cx="1135.3" cy="138.504" rx="40.087" ry="34.416" style="fill:none;stroke:rgb(242,13,162);stroke-width:4.88px;"/>
                </g>
            </g>
            <g transform="matrix(1,0,0,1,-1341.56,295.322)">
                <g transform="matrix(0.662875,0,0,0.662875,1406.6,71.726)">
                    <circle cx="28.784" cy="34.375" r="11.586" style="fill:none;stroke:rgb(1,0,255);stroke-width:2.01px;"/>
                </g>
                <g transform="matrix(0.502904,0,0,0.585768,854.731,13.3808)">
                    <ellipse cx="1135.3" cy="138.504" rx="40.087" ry="34.416" style="fill:none;stroke:rgb(242,13,162);stroke-width:4.88px;"/>
                </g>
            </g>
            <g transform="matrix(1,0,0,1,-668.93,295.322)">
                <g transform="matrix(0.662875,0,0,0.662875,1406.6,71.726)">
                    <circle cx="28.784" cy="34.375" r="11.586" style="fill:none;stroke:rgb(1,0,255);stroke-width:2.01px;"/>
                </g>
                <g transform="matrix(0.502904,0,0,0.585768,854.731,13.3808)">
                    <ellipse cx="1135.3" cy="138.504" rx="40.087" ry="34.416" style="fill:none;stroke:rgb(242,13,162);stroke-width:4.88px;"/>
                </g>
            </g>
        </g>
    </g>
</svg>
