<?xml version="1.0" encoding="UTF-8" standalone="no"?>
<!DOCTYPE svg PUBLIC "-//W3C//DTD SVG 1.1//EN" "http://www.w3.org/Graphics/SVG/1.1/DTD/svg11.dtd">
<svg width="1920px" height="1152px" version="1.1" xmlns="http://www.w3.org/2000/svg" xmlns:xlink="http://www.w3.org/1999/xlink" xml:space="preserve" xmlns:serif="http://www.serif.com/" style="fill-rule:evenodd;clip-rule:evenodd;stroke-linecap:round;stroke-linejoin:round;stroke-miterlimit:1.5;">
    <rect id="Artboard1" x="0" y="0" width="1920" height="1152" style="fill:none;"/>
    <g id="Artboard11" serif:id="Artboard1">
        <g id="Cut">
            <g transform="matrix(1.12931,0,0,0.939101,-6.27015,1.50457)">
                <path d="M727.711,60.509C727.711,40.749 714.371,24.706 697.939,24.706L78.261,24.706C61.83,24.706 48.489,40.749 48.489,60.509L48.489,346.692C48.489,366.452 61.83,382.495 78.261,382.495L697.939,382.495C714.371,382.495 727.711,366.452 727.711,346.692L727.711,60.509Z" style="fill:rgb(235,235,235);stroke:rgb(13,40,242);stroke-width:2.57px;"/>
            </g>
            <g transform="matrix(0.564412,0,0,0.564412,70.5648,121.922)">
                <circle cx="128.852" cy="193.176" r="21.261" style="fill:rgb(235,235,235);stroke:rgb(13,40,242);stroke-width:4.72px;"/>
            </g>
            <g transform="matrix(0.564412,0,0,0.564412,311.713,121.922)">
                <circle cx="128.852" cy="193.176" r="21.261" style="fill:rgb(235,235,235);stroke:rgb(13,40,242);stroke-width:4.72px;"/>
            </g>
            <g transform="matrix(0.564412,0,0,0.564412,167.916,121.922)">
                <circle cx="128.852" cy="193.176" r="21.261" style="fill:rgb(235,235,235);stroke:rgb(13,40,242);stroke-width:4.72px;"/>
            </g>
            <g transform="matrix(0.564412,0,0,0.564412,409.064,121.922)">
                <circle cx="128.852" cy="193.176" r="21.261" style="fill:rgb(235,235,235);stroke:rgb(13,40,242);stroke-width:4.72px;"/>
            </g>
            <g transform="matrix(0.564412,0,0,0.564412,506.215,121.922)">
                <circle cx="128.852" cy="193.176" r="21.261" style="fill:rgb(235,235,235);stroke:rgb(13,40,242);stroke-width:4.72px;"/>
            </g>
            <g transform="matrix(0.6344,0,0,0.6344,61.5755,-42.4458)">
                <circle cx="128.852" cy="193.176" r="21.261" style="fill:rgb(235,235,235);stroke:rgb(13,40,242);stroke-width:4.2px;"/>
            </g>
            <g transform="matrix(0.6344,0,0,0.6344,159.445,-43.721)">
                <circle cx="128.852" cy="193.176" r="21.261" style="fill:rgb(235,235,235);stroke:rgb(13,40,242);stroke-width:4.2px;"/>
            </g>
            <g transform="matrix(0.6344,0,0,0.6344,302.83,-43.096)">
                <circle cx="128.852" cy="193.176" r="21.261" style="fill:rgb(235,235,235);stroke:rgb(13,40,242);stroke-width:4.2px;"/>
            </g>
            <g transform="matrix(1.15065,0,0,1.15065,54.7789,-28.1362)">
                <circle cx="633.922" cy="73.228" r="17.521" style="fill:rgb(235,235,235);stroke:rgb(242,94,13);stroke-width:2.32px;"/>
            </g>
            <g transform="matrix(0.428206,0,0,0.428206,512.752,24.7667)">
                <circle cx="633.922" cy="73.228" r="17.521" style="fill:rgb(235,235,235);stroke:rgb(13,40,242);stroke-width:6.23px;"/>
            </g>
            <g transform="matrix(1,0,0,1,-557.543,1.3089)">
                <g transform="matrix(1.15065,0,0,1.15065,-92.6644,-29.4451)">
                    <circle cx="633.922" cy="73.228" r="17.521" style="fill:rgb(235,235,235);stroke:rgb(242,94,13);stroke-width:2.32px;"/>
                </g>
                <g transform="matrix(0.428206,0,0,0.428206,365.309,23.4578)">
                    <circle cx="633.922" cy="73.228" r="17.521" style="fill:rgb(235,235,235);stroke:rgb(13,40,242);stroke-width:6.23px;"/>
                </g>
            </g>
            <g transform="matrix(1,0,0,1,143.681,2.37573)">
                <g transform="matrix(1.15065,0,0,1.15065,-87.7778,244.584)">
                    <circle cx="633.922" cy="73.228" r="17.521" style="fill:rgb(235,235,235);stroke:rgb(242,94,13);stroke-width:2.32px;"/>
                </g>
                <g transform="matrix(0.428206,0,0,0.428206,370.195,297.487)">
                    <circle cx="633.922" cy="73.228" r="17.521" style="fill:rgb(235,235,235);stroke:rgb(13,40,242);stroke-width:6.23px;"/>
                </g>
            </g>
            <g transform="matrix(1,0,0,1,-562.429,2.37573)">
                <g transform="matrix(1.15065,0,0,1.15065,-87.7778,244.584)">
                    <circle cx="633.922" cy="73.228" r="17.521" style="fill:rgb(235,235,235);stroke:rgb(242,94,13);stroke-width:2.32px;"/>
                </g>
                <g transform="matrix(0.428206,0,0,0.428206,370.195,297.487)">
                    <circle cx="633.922" cy="73.228" r="17.521" style="fill:rgb(235,235,235);stroke:rgb(13,40,242);stroke-width:6.23px;"/>
                </g>
            </g>
            <g transform="matrix(0.6344,0,0,0.6344,399.094,-42.6307)">
                <circle cx="128.852" cy="193.176" r="21.261" style="fill:rgb(235,235,235);stroke:rgb(13,40,242);stroke-width:4.2px;"/>
            </g>
            <g transform="matrix(0.282206,0,0,0.282206,106.866,63.8497)">
                <circle cx="128.852" cy="193.176" r="21.261" style="fill:rgb(235,235,235);stroke:rgb(13,40,242);stroke-width:9.45px;"/>
            </g>
            <g transform="matrix(0.282206,0,0,0.282206,347.998,63.7316)">
                <circle cx="128.852" cy="193.176" r="21.261" style="fill:rgb(235,235,235);stroke:rgb(13,40,242);stroke-width:9.45px;"/>
            </g>
            <g transform="matrix(0.282206,0,0,0.282206,204.496,64.3222)">
                <circle cx="128.852" cy="193.176" r="21.261" style="fill:rgb(235,235,235);stroke:rgb(13,40,242);stroke-width:9.45px;"/>
            </g>
            <g transform="matrix(0.282206,0,0,0.282206,444.839,63.9678)">
                <circle cx="128.852" cy="193.176" r="21.261" style="fill:rgb(235,235,235);stroke:rgb(13,40,242);stroke-width:9.45px;"/>
            </g>
        </g>
        <g id="Engrave">
            <g transform="matrix(0.343018,0,0,0.343018,79.7827,50.6321)">
                <g transform="matrix(54.4189,0,0,54.4189,101.322,308.014)">
                    <path d="M0.595,-0.148C0.6,-0.148 0.605,-0.146 0.609,-0.142L0.647,-0.1C0.618,-0.066 0.582,-0.04 0.54,-0.021C0.498,-0.002 0.448,0.008 0.389,0.008C0.337,0.008 0.291,-0.001 0.249,-0.019C0.206,-0.037 0.171,-0.062 0.141,-0.094C0.111,-0.126 0.088,-0.165 0.072,-0.21C0.056,-0.255 0.048,-0.304 0.048,-0.358C0.048,-0.412 0.056,-0.462 0.073,-0.507C0.09,-0.552 0.114,-0.59 0.145,-0.623C0.176,-0.655 0.213,-0.68 0.256,-0.698C0.299,-0.716 0.346,-0.725 0.398,-0.725C0.449,-0.725 0.494,-0.716 0.533,-0.7C0.572,-0.684 0.606,-0.662 0.636,-0.634L0.604,-0.589C0.602,-0.586 0.599,-0.583 0.596,-0.581C0.593,-0.579 0.589,-0.578 0.584,-0.578C0.578,-0.578 0.57,-0.581 0.562,-0.587C0.553,-0.594 0.542,-0.601 0.528,-0.609C0.514,-0.617 0.496,-0.624 0.475,-0.631C0.454,-0.637 0.428,-0.641 0.398,-0.641C0.361,-0.641 0.327,-0.634 0.296,-0.621C0.265,-0.608 0.239,-0.59 0.217,-0.566C0.195,-0.541 0.177,-0.511 0.165,-0.477C0.153,-0.442 0.147,-0.402 0.147,-0.358C0.147,-0.313 0.153,-0.274 0.166,-0.239C0.179,-0.204 0.196,-0.174 0.218,-0.15C0.24,-0.126 0.267,-0.107 0.297,-0.095C0.327,-0.082 0.36,-0.076 0.395,-0.076C0.416,-0.076 0.435,-0.077 0.452,-0.079C0.469,-0.082 0.485,-0.086 0.5,-0.091C0.514,-0.096 0.528,-0.103 0.54,-0.111C0.553,-0.119 0.565,-0.129 0.578,-0.141C0.583,-0.146 0.589,-0.148 0.595,-0.148Z" style="fill-rule:nonzero;"/>
                </g>
                <g transform="matrix(54.4189,0,0,54.4189,136.911,308.014)">
                    <path d="M0.754,-0.358C0.754,-0.304 0.745,-0.255 0.728,-0.21C0.711,-0.165 0.687,-0.127 0.656,-0.095C0.625,-0.062 0.588,-0.037 0.544,-0.019C0.501,-0.001 0.453,0.008 0.4,0.008C0.347,0.008 0.299,-0.001 0.256,-0.019C0.213,-0.037 0.175,-0.062 0.145,-0.095C0.114,-0.127 0.09,-0.165 0.073,-0.21C0.055,-0.255 0.047,-0.304 0.047,-0.358C0.047,-0.412 0.055,-0.461 0.073,-0.506C0.09,-0.551 0.114,-0.589 0.145,-0.622C0.175,-0.654 0.213,-0.68 0.256,-0.698C0.299,-0.716 0.347,-0.725 0.4,-0.725C0.453,-0.725 0.501,-0.716 0.544,-0.698C0.588,-0.68 0.625,-0.654 0.656,-0.622C0.687,-0.589 0.711,-0.551 0.728,-0.506C0.745,-0.461 0.754,-0.412 0.754,-0.358ZM0.654,-0.358C0.654,-0.402 0.648,-0.442 0.636,-0.477C0.624,-0.511 0.607,-0.541 0.585,-0.565C0.563,-0.589 0.536,-0.608 0.505,-0.621C0.474,-0.634 0.439,-0.641 0.4,-0.641C0.362,-0.641 0.327,-0.634 0.296,-0.621C0.264,-0.608 0.237,-0.589 0.215,-0.565C0.193,-0.541 0.176,-0.511 0.164,-0.477C0.152,-0.442 0.146,-0.402 0.146,-0.358C0.146,-0.314 0.152,-0.275 0.164,-0.24C0.176,-0.205 0.193,-0.175 0.215,-0.151C0.237,-0.127 0.264,-0.109 0.296,-0.096C0.327,-0.083 0.362,-0.077 0.4,-0.077C0.439,-0.077 0.474,-0.083 0.505,-0.096C0.536,-0.109 0.563,-0.127 0.585,-0.151C0.607,-0.175 0.624,-0.205 0.636,-0.24C0.648,-0.275 0.654,-0.314 0.654,-0.358Z" style="fill-rule:nonzero;"/>
                </g>
                <g transform="matrix(54.4189,0,0,54.4189,180.474,308.014)">
                    <path d="M0.837,-0.717L0.837,-0L0.752,-0L0.752,-0.527C0.752,-0.534 0.752,-0.541 0.753,-0.549C0.753,-0.557 0.754,-0.565 0.755,-0.574L0.509,-0.126C0.501,-0.111 0.489,-0.103 0.474,-0.103L0.46,-0.103C0.444,-0.103 0.432,-0.111 0.425,-0.126L0.174,-0.576C0.175,-0.558 0.177,-0.542 0.177,-0.527L0.177,-0L0.092,-0L0.092,-0.717L0.163,-0.717C0.172,-0.717 0.178,-0.716 0.183,-0.714C0.188,-0.712 0.192,-0.708 0.197,-0.7L0.444,-0.259C0.448,-0.251 0.452,-0.243 0.456,-0.234C0.46,-0.225 0.463,-0.217 0.467,-0.208C0.47,-0.217 0.473,-0.225 0.477,-0.234C0.481,-0.243 0.485,-0.252 0.489,-0.26L0.732,-0.7C0.736,-0.708 0.74,-0.712 0.745,-0.714C0.75,-0.716 0.757,-0.717 0.766,-0.717L0.837,-0.717Z" style="fill-rule:nonzero;"/>
                </g>
                <g transform="matrix(54.4189,0,0,54.4189,244.933,308.014)">
                    <path d="M0.509,-0.068L0.509,-0L0.125,-0L0.125,-0.068L0.279,-0.068L0.279,-0.557C0.279,-0.571 0.279,-0.586 0.28,-0.601L0.153,-0.492C0.148,-0.488 0.144,-0.486 0.14,-0.485C0.135,-0.484 0.131,-0.484 0.128,-0.485C0.124,-0.485 0.12,-0.487 0.117,-0.489C0.114,-0.491 0.112,-0.493 0.11,-0.495L0.082,-0.534L0.296,-0.718L0.368,-0.718L0.368,-0.068L0.509,-0.068Z" style="fill-rule:nonzero;"/>
                </g>
            </g>
            <g transform="matrix(0.343018,0,0,0.343018,320.678,50.6321)">
                <g transform="matrix(54.4189,0,0,54.4189,101.322,308.014)">
                    <path d="M0.595,-0.148C0.6,-0.148 0.605,-0.146 0.609,-0.142L0.647,-0.1C0.618,-0.066 0.582,-0.04 0.54,-0.021C0.498,-0.002 0.448,0.008 0.389,0.008C0.337,0.008 0.291,-0.001 0.249,-0.019C0.206,-0.037 0.171,-0.062 0.141,-0.094C0.111,-0.126 0.088,-0.165 0.072,-0.21C0.056,-0.255 0.048,-0.304 0.048,-0.358C0.048,-0.412 0.056,-0.462 0.073,-0.507C0.09,-0.552 0.114,-0.59 0.145,-0.623C0.176,-0.655 0.213,-0.68 0.256,-0.698C0.299,-0.716 0.346,-0.725 0.398,-0.725C0.449,-0.725 0.494,-0.716 0.533,-0.7C0.572,-0.684 0.606,-0.662 0.636,-0.634L0.604,-0.589C0.602,-0.586 0.599,-0.583 0.596,-0.581C0.593,-0.579 0.589,-0.578 0.584,-0.578C0.578,-0.578 0.57,-0.581 0.562,-0.587C0.553,-0.594 0.542,-0.601 0.528,-0.609C0.514,-0.617 0.496,-0.624 0.475,-0.631C0.454,-0.637 0.428,-0.641 0.398,-0.641C0.361,-0.641 0.327,-0.634 0.296,-0.621C0.265,-0.608 0.239,-0.59 0.217,-0.566C0.195,-0.541 0.177,-0.511 0.165,-0.477C0.153,-0.442 0.147,-0.402 0.147,-0.358C0.147,-0.313 0.153,-0.274 0.166,-0.239C0.179,-0.204 0.196,-0.174 0.218,-0.15C0.24,-0.126 0.267,-0.107 0.297,-0.095C0.327,-0.082 0.36,-0.076 0.395,-0.076C0.416,-0.076 0.435,-0.077 0.452,-0.079C0.469,-0.082 0.485,-0.086 0.5,-0.091C0.514,-0.096 0.528,-0.103 0.54,-0.111C0.553,-0.119 0.565,-0.129 0.578,-0.141C0.583,-0.146 0.589,-0.148 0.595,-0.148Z" style="fill-rule:nonzero;"/>
                </g>
                <g transform="matrix(54.4189,0,0,54.4189,136.911,308.014)">
                    <path d="M0.754,-0.358C0.754,-0.304 0.745,-0.255 0.728,-0.21C0.711,-0.165 0.687,-0.127 0.656,-0.095C0.625,-0.062 0.588,-0.037 0.544,-0.019C0.501,-0.001 0.453,0.008 0.4,0.008C0.347,0.008 0.299,-0.001 0.256,-0.019C0.213,-0.037 0.175,-0.062 0.145,-0.095C0.114,-0.127 0.09,-0.165 0.073,-0.21C0.055,-0.255 0.047,-0.304 0.047,-0.358C0.047,-0.412 0.055,-0.461 0.073,-0.506C0.09,-0.551 0.114,-0.589 0.145,-0.622C0.175,-0.654 0.213,-0.68 0.256,-0.698C0.299,-0.716 0.347,-0.725 0.4,-0.725C0.453,-0.725 0.501,-0.716 0.544,-0.698C0.588,-0.68 0.625,-0.654 0.656,-0.622C0.687,-0.589 0.711,-0.551 0.728,-0.506C0.745,-0.461 0.754,-0.412 0.754,-0.358ZM0.654,-0.358C0.654,-0.402 0.648,-0.442 0.636,-0.477C0.624,-0.511 0.607,-0.541 0.585,-0.565C0.563,-0.589 0.536,-0.608 0.505,-0.621C0.474,-0.634 0.439,-0.641 0.4,-0.641C0.362,-0.641 0.327,-0.634 0.296,-0.621C0.264,-0.608 0.237,-0.589 0.215,-0.565C0.193,-0.541 0.176,-0.511 0.164,-0.477C0.152,-0.442 0.146,-0.402 0.146,-0.358C0.146,-0.314 0.152,-0.275 0.164,-0.24C0.176,-0.205 0.193,-0.175 0.215,-0.151C0.237,-0.127 0.264,-0.109 0.296,-0.096C0.327,-0.083 0.362,-0.077 0.4,-0.077C0.439,-0.077 0.474,-0.083 0.505,-0.096C0.536,-0.109 0.563,-0.127 0.585,-0.151C0.607,-0.175 0.624,-0.205 0.636,-0.24C0.648,-0.275 0.654,-0.314 0.654,-0.358Z" style="fill-rule:nonzero;"/>
                </g>
                <g transform="matrix(54.4189,0,0,54.4189,180.474,308.014)">
                    <path d="M0.837,-0.717L0.837,-0L0.752,-0L0.752,-0.527C0.752,-0.534 0.752,-0.541 0.753,-0.549C0.753,-0.557 0.754,-0.565 0.755,-0.574L0.509,-0.126C0.501,-0.111 0.489,-0.103 0.474,-0.103L0.46,-0.103C0.444,-0.103 0.432,-0.111 0.425,-0.126L0.174,-0.576C0.175,-0.558 0.177,-0.542 0.177,-0.527L0.177,-0L0.092,-0L0.092,-0.717L0.163,-0.717C0.172,-0.717 0.178,-0.716 0.183,-0.714C0.188,-0.712 0.192,-0.708 0.197,-0.7L0.444,-0.259C0.448,-0.251 0.452,-0.243 0.456,-0.234C0.46,-0.225 0.463,-0.217 0.467,-0.208C0.47,-0.217 0.473,-0.225 0.477,-0.234C0.481,-0.243 0.485,-0.252 0.489,-0.26L0.732,-0.7C0.736,-0.708 0.74,-0.712 0.745,-0.714C0.75,-0.716 0.757,-0.717 0.766,-0.717L0.837,-0.717Z" style="fill-rule:nonzero;"/>
                </g>
                <g transform="matrix(54.4189,0,0,54.4189,244.933,308.014)">
                    <path d="M0.509,-0.068L0.509,-0L0.125,-0L0.125,-0.068L0.279,-0.068L0.279,-0.557C0.279,-0.571 0.279,-0.586 0.28,-0.601L0.153,-0.492C0.148,-0.488 0.144,-0.486 0.14,-0.485C0.135,-0.484 0.131,-0.484 0.128,-0.485C0.124,-0.485 0.12,-0.487 0.117,-0.489C0.114,-0.491 0.112,-0.493 0.11,-0.495L0.082,-0.534L0.296,-0.718L0.368,-0.718L0.368,-0.068L0.509,-0.068Z" style="fill-rule:nonzero;"/>
                </g>
                <g transform="matrix(54.4189,0,0,54.4189,137.85,362.432)">
                    <path d="M0.837,-0.717L0.837,-0L0.752,-0L0.752,-0.527C0.752,-0.534 0.752,-0.541 0.753,-0.549C0.753,-0.557 0.754,-0.565 0.755,-0.574L0.509,-0.126C0.501,-0.111 0.489,-0.103 0.474,-0.103L0.46,-0.103C0.444,-0.103 0.432,-0.111 0.425,-0.126L0.174,-0.576C0.175,-0.558 0.177,-0.542 0.177,-0.527L0.177,-0L0.092,-0L0.092,-0.717L0.163,-0.717C0.172,-0.717 0.178,-0.716 0.183,-0.714C0.188,-0.712 0.192,-0.708 0.197,-0.7L0.444,-0.259C0.448,-0.251 0.452,-0.243 0.456,-0.234C0.46,-0.225 0.463,-0.217 0.467,-0.208C0.47,-0.217 0.473,-0.225 0.477,-0.234C0.481,-0.243 0.485,-0.252 0.489,-0.26L0.732,-0.7C0.736,-0.708 0.74,-0.712 0.745,-0.714C0.75,-0.716 0.757,-0.717 0.766,-0.717L0.837,-0.717Z" style="fill-rule:nonzero;"/>
                </g>
                <g transform="matrix(54.4189,0,0,54.4189,188.378,362.432)">
                    <rect x="0.092" y="-0.717" width="0.097" height="0.717" style="fill-rule:nonzero;"/>
                </g>
                <g transform="matrix(54.4189,0,0,54.4189,203.615,362.432)">
                    <path d="M0.595,-0.148C0.6,-0.148 0.605,-0.146 0.609,-0.142L0.647,-0.1C0.618,-0.066 0.582,-0.04 0.54,-0.021C0.498,-0.002 0.448,0.008 0.389,0.008C0.337,0.008 0.291,-0.001 0.249,-0.019C0.206,-0.037 0.171,-0.062 0.141,-0.094C0.111,-0.126 0.088,-0.165 0.072,-0.21C0.056,-0.255 0.048,-0.304 0.048,-0.358C0.048,-0.412 0.056,-0.462 0.073,-0.507C0.09,-0.552 0.114,-0.59 0.145,-0.623C0.176,-0.655 0.213,-0.68 0.256,-0.698C0.299,-0.716 0.346,-0.725 0.398,-0.725C0.449,-0.725 0.494,-0.716 0.533,-0.7C0.572,-0.684 0.606,-0.662 0.636,-0.634L0.604,-0.589C0.602,-0.586 0.599,-0.583 0.596,-0.581C0.593,-0.579 0.589,-0.578 0.584,-0.578C0.578,-0.578 0.57,-0.581 0.562,-0.587C0.553,-0.594 0.542,-0.601 0.528,-0.609C0.514,-0.617 0.496,-0.624 0.475,-0.631C0.454,-0.637 0.428,-0.641 0.398,-0.641C0.361,-0.641 0.327,-0.634 0.296,-0.621C0.265,-0.608 0.239,-0.59 0.217,-0.566C0.195,-0.541 0.177,-0.511 0.165,-0.477C0.153,-0.442 0.147,-0.402 0.147,-0.358C0.147,-0.313 0.153,-0.274 0.166,-0.239C0.179,-0.204 0.196,-0.174 0.218,-0.15C0.24,-0.126 0.267,-0.107 0.297,-0.095C0.327,-0.082 0.36,-0.076 0.395,-0.076C0.416,-0.076 0.435,-0.077 0.452,-0.079C0.469,-0.082 0.485,-0.086 0.5,-0.091C0.514,-0.096 0.528,-0.103 0.54,-0.111C0.553,-0.119 0.565,-0.129 0.578,-0.141C0.583,-0.146 0.589,-0.148 0.595,-0.148Z" style="fill-rule:nonzero;"/>
                </g>
            </g>
            <g transform="matrix(0.343018,0,0,0.343018,177.214,50.6321)">
                <g transform="matrix(54.4189,0,0,54.4189,101.322,308.014)">
                    <path d="M0.595,-0.148C0.6,-0.148 0.605,-0.146 0.609,-0.142L0.647,-0.1C0.618,-0.066 0.582,-0.04 0.54,-0.021C0.498,-0.002 0.448,0.008 0.389,0.008C0.337,0.008 0.291,-0.001 0.249,-0.019C0.206,-0.037 0.171,-0.062 0.141,-0.094C0.111,-0.126 0.088,-0.165 0.072,-0.21C0.056,-0.255 0.048,-0.304 0.048,-0.358C0.048,-0.412 0.056,-0.462 0.073,-0.507C0.09,-0.552 0.114,-0.59 0.145,-0.623C0.176,-0.655 0.213,-0.68 0.256,-0.698C0.299,-0.716 0.346,-0.725 0.398,-0.725C0.449,-0.725 0.494,-0.716 0.533,-0.7C0.572,-0.684 0.606,-0.662 0.636,-0.634L0.604,-0.589C0.602,-0.586 0.599,-0.583 0.596,-0.581C0.593,-0.579 0.589,-0.578 0.584,-0.578C0.578,-0.578 0.57,-0.581 0.562,-0.587C0.553,-0.594 0.542,-0.601 0.528,-0.609C0.514,-0.617 0.496,-0.624 0.475,-0.631C0.454,-0.637 0.428,-0.641 0.398,-0.641C0.361,-0.641 0.327,-0.634 0.296,-0.621C0.265,-0.608 0.239,-0.59 0.217,-0.566C0.195,-0.541 0.177,-0.511 0.165,-0.477C0.153,-0.442 0.147,-0.402 0.147,-0.358C0.147,-0.313 0.153,-0.274 0.166,-0.239C0.179,-0.204 0.196,-0.174 0.218,-0.15C0.24,-0.126 0.267,-0.107 0.297,-0.095C0.327,-0.082 0.36,-0.076 0.395,-0.076C0.416,-0.076 0.435,-0.077 0.452,-0.079C0.469,-0.082 0.485,-0.086 0.5,-0.091C0.514,-0.096 0.528,-0.103 0.54,-0.111C0.553,-0.119 0.565,-0.129 0.578,-0.141C0.583,-0.146 0.589,-0.148 0.595,-0.148Z" style="fill-rule:nonzero;"/>
                </g>
                <g transform="matrix(54.4189,0,0,54.4189,136.911,308.014)">
                    <path d="M0.754,-0.358C0.754,-0.304 0.745,-0.255 0.728,-0.21C0.711,-0.165 0.687,-0.127 0.656,-0.095C0.625,-0.062 0.588,-0.037 0.544,-0.019C0.501,-0.001 0.453,0.008 0.4,0.008C0.347,0.008 0.299,-0.001 0.256,-0.019C0.213,-0.037 0.175,-0.062 0.145,-0.095C0.114,-0.127 0.09,-0.165 0.073,-0.21C0.055,-0.255 0.047,-0.304 0.047,-0.358C0.047,-0.412 0.055,-0.461 0.073,-0.506C0.09,-0.551 0.114,-0.589 0.145,-0.622C0.175,-0.654 0.213,-0.68 0.256,-0.698C0.299,-0.716 0.347,-0.725 0.4,-0.725C0.453,-0.725 0.501,-0.716 0.544,-0.698C0.588,-0.68 0.625,-0.654 0.656,-0.622C0.687,-0.589 0.711,-0.551 0.728,-0.506C0.745,-0.461 0.754,-0.412 0.754,-0.358ZM0.654,-0.358C0.654,-0.402 0.648,-0.442 0.636,-0.477C0.624,-0.511 0.607,-0.541 0.585,-0.565C0.563,-0.589 0.536,-0.608 0.505,-0.621C0.474,-0.634 0.439,-0.641 0.4,-0.641C0.362,-0.641 0.327,-0.634 0.296,-0.621C0.264,-0.608 0.237,-0.589 0.215,-0.565C0.193,-0.541 0.176,-0.511 0.164,-0.477C0.152,-0.442 0.146,-0.402 0.146,-0.358C0.146,-0.314 0.152,-0.275 0.164,-0.24C0.176,-0.205 0.193,-0.175 0.215,-0.151C0.237,-0.127 0.264,-0.109 0.296,-0.096C0.327,-0.083 0.362,-0.077 0.4,-0.077C0.439,-0.077 0.474,-0.083 0.505,-0.096C0.536,-0.109 0.563,-0.127 0.585,-0.151C0.607,-0.175 0.624,-0.205 0.636,-0.24C0.648,-0.275 0.654,-0.314 0.654,-0.358Z" style="fill-rule:nonzero;"/>
                </g>
                <g transform="matrix(54.4189,0,0,54.4189,180.474,308.014)">
                    <path d="M0.837,-0.717L0.837,-0L0.752,-0L0.752,-0.527C0.752,-0.534 0.752,-0.541 0.753,-0.549C0.753,-0.557 0.754,-0.565 0.755,-0.574L0.509,-0.126C0.501,-0.111 0.489,-0.103 0.474,-0.103L0.46,-0.103C0.444,-0.103 0.432,-0.111 0.425,-0.126L0.174,-0.576C0.175,-0.558 0.177,-0.542 0.177,-0.527L0.177,-0L0.092,-0L0.092,-0.717L0.163,-0.717C0.172,-0.717 0.178,-0.716 0.183,-0.714C0.188,-0.712 0.192,-0.708 0.197,-0.7L0.444,-0.259C0.448,-0.251 0.452,-0.243 0.456,-0.234C0.46,-0.225 0.463,-0.217 0.467,-0.208C0.47,-0.217 0.473,-0.225 0.477,-0.234C0.481,-0.243 0.485,-0.252 0.489,-0.26L0.732,-0.7C0.736,-0.708 0.74,-0.712 0.745,-0.714C0.75,-0.716 0.757,-0.717 0.766,-0.717L0.837,-0.717Z" style="fill-rule:nonzero;"/>
                </g>
                <g transform="matrix(54.4189,0,0,54.4189,244.933,308.014)">
                    <path d="M0.494,-0.085C0.503,-0.085 0.511,-0.082 0.517,-0.076C0.522,-0.07 0.525,-0.063 0.525,-0.054L0.525,-0L0.047,-0L0.047,-0.031C0.047,-0.037 0.048,-0.043 0.051,-0.05C0.054,-0.057 0.058,-0.063 0.064,-0.069L0.293,-0.299C0.312,-0.318 0.329,-0.337 0.345,-0.355C0.361,-0.373 0.374,-0.391 0.385,-0.409C0.396,-0.427 0.405,-0.445 0.411,-0.463C0.417,-0.482 0.42,-0.501 0.42,-0.523C0.42,-0.544 0.416,-0.562 0.41,-0.578C0.403,-0.594 0.394,-0.607 0.382,-0.617C0.371,-0.627 0.357,-0.635 0.342,-0.64C0.326,-0.645 0.309,-0.648 0.291,-0.648C0.273,-0.648 0.256,-0.645 0.241,-0.64C0.225,-0.635 0.212,-0.627 0.2,-0.618C0.188,-0.608 0.178,-0.597 0.17,-0.584C0.162,-0.571 0.156,-0.557 0.153,-0.541C0.149,-0.529 0.144,-0.522 0.137,-0.518C0.13,-0.514 0.12,-0.513 0.108,-0.515L0.062,-0.523C0.066,-0.555 0.075,-0.584 0.089,-0.609C0.102,-0.634 0.119,-0.656 0.14,-0.673C0.16,-0.69 0.184,-0.702 0.21,-0.711C0.236,-0.72 0.265,-0.725 0.296,-0.725C0.326,-0.725 0.354,-0.72 0.381,-0.711C0.407,-0.702 0.43,-0.689 0.449,-0.672C0.468,-0.655 0.484,-0.634 0.495,-0.609C0.505,-0.584 0.511,-0.556 0.511,-0.525C0.511,-0.498 0.507,-0.474 0.499,-0.451C0.491,-0.428 0.48,-0.406 0.467,-0.386C0.453,-0.365 0.437,-0.345 0.419,-0.325C0.401,-0.305 0.383,-0.286 0.363,-0.266L0.174,-0.073C0.187,-0.076 0.2,-0.079 0.214,-0.081C0.228,-0.083 0.241,-0.085 0.254,-0.085L0.494,-0.085Z" style="fill-rule:nonzero;"/>
                </g>
            </g>
            <g transform="matrix(0.343018,0,0,0.343018,418.11,50.6321)">
                <g transform="matrix(54.4189,0,0,54.4189,101.322,308.014)">
                    <path d="M0.595,-0.148C0.6,-0.148 0.605,-0.146 0.609,-0.142L0.647,-0.1C0.618,-0.066 0.582,-0.04 0.54,-0.021C0.498,-0.002 0.448,0.008 0.389,0.008C0.337,0.008 0.291,-0.001 0.249,-0.019C0.206,-0.037 0.171,-0.062 0.141,-0.094C0.111,-0.126 0.088,-0.165 0.072,-0.21C0.056,-0.255 0.048,-0.304 0.048,-0.358C0.048,-0.412 0.056,-0.462 0.073,-0.507C0.09,-0.552 0.114,-0.59 0.145,-0.623C0.176,-0.655 0.213,-0.68 0.256,-0.698C0.299,-0.716 0.346,-0.725 0.398,-0.725C0.449,-0.725 0.494,-0.716 0.533,-0.7C0.572,-0.684 0.606,-0.662 0.636,-0.634L0.604,-0.589C0.602,-0.586 0.599,-0.583 0.596,-0.581C0.593,-0.579 0.589,-0.578 0.584,-0.578C0.578,-0.578 0.57,-0.581 0.562,-0.587C0.553,-0.594 0.542,-0.601 0.528,-0.609C0.514,-0.617 0.496,-0.624 0.475,-0.631C0.454,-0.637 0.428,-0.641 0.398,-0.641C0.361,-0.641 0.327,-0.634 0.296,-0.621C0.265,-0.608 0.239,-0.59 0.217,-0.566C0.195,-0.541 0.177,-0.511 0.165,-0.477C0.153,-0.442 0.147,-0.402 0.147,-0.358C0.147,-0.313 0.153,-0.274 0.166,-0.239C0.179,-0.204 0.196,-0.174 0.218,-0.15C0.24,-0.126 0.267,-0.107 0.297,-0.095C0.327,-0.082 0.36,-0.076 0.395,-0.076C0.416,-0.076 0.435,-0.077 0.452,-0.079C0.469,-0.082 0.485,-0.086 0.5,-0.091C0.514,-0.096 0.528,-0.103 0.54,-0.111C0.553,-0.119 0.565,-0.129 0.578,-0.141C0.583,-0.146 0.589,-0.148 0.595,-0.148Z" style="fill-rule:nonzero;"/>
                </g>
                <g transform="matrix(54.4189,0,0,54.4189,136.911,308.014)">
                    <path d="M0.754,-0.358C0.754,-0.304 0.745,-0.255 0.728,-0.21C0.711,-0.165 0.687,-0.127 0.656,-0.095C0.625,-0.062 0.588,-0.037 0.544,-0.019C0.501,-0.001 0.453,0.008 0.4,0.008C0.347,0.008 0.299,-0.001 0.256,-0.019C0.213,-0.037 0.175,-0.062 0.145,-0.095C0.114,-0.127 0.09,-0.165 0.073,-0.21C0.055,-0.255 0.047,-0.304 0.047,-0.358C0.047,-0.412 0.055,-0.461 0.073,-0.506C0.09,-0.551 0.114,-0.589 0.145,-0.622C0.175,-0.654 0.213,-0.68 0.256,-0.698C0.299,-0.716 0.347,-0.725 0.4,-0.725C0.453,-0.725 0.501,-0.716 0.544,-0.698C0.588,-0.68 0.625,-0.654 0.656,-0.622C0.687,-0.589 0.711,-0.551 0.728,-0.506C0.745,-0.461 0.754,-0.412 0.754,-0.358ZM0.654,-0.358C0.654,-0.402 0.648,-0.442 0.636,-0.477C0.624,-0.511 0.607,-0.541 0.585,-0.565C0.563,-0.589 0.536,-0.608 0.505,-0.621C0.474,-0.634 0.439,-0.641 0.4,-0.641C0.362,-0.641 0.327,-0.634 0.296,-0.621C0.264,-0.608 0.237,-0.589 0.215,-0.565C0.193,-0.541 0.176,-0.511 0.164,-0.477C0.152,-0.442 0.146,-0.402 0.146,-0.358C0.146,-0.314 0.152,-0.275 0.164,-0.24C0.176,-0.205 0.193,-0.175 0.215,-0.151C0.237,-0.127 0.264,-0.109 0.296,-0.096C0.327,-0.083 0.362,-0.077 0.4,-0.077C0.439,-0.077 0.474,-0.083 0.505,-0.096C0.536,-0.109 0.563,-0.127 0.585,-0.151C0.607,-0.175 0.624,-0.205 0.636,-0.24C0.648,-0.275 0.654,-0.314 0.654,-0.358Z" style="fill-rule:nonzero;"/>
                </g>
                <g transform="matrix(54.4189,0,0,54.4189,180.474,308.014)">
                    <path d="M0.837,-0.717L0.837,-0L0.752,-0L0.752,-0.527C0.752,-0.534 0.752,-0.541 0.753,-0.549C0.753,-0.557 0.754,-0.565 0.755,-0.574L0.509,-0.126C0.501,-0.111 0.489,-0.103 0.474,-0.103L0.46,-0.103C0.444,-0.103 0.432,-0.111 0.425,-0.126L0.174,-0.576C0.175,-0.558 0.177,-0.542 0.177,-0.527L0.177,-0L0.092,-0L0.092,-0.717L0.163,-0.717C0.172,-0.717 0.178,-0.716 0.183,-0.714C0.188,-0.712 0.192,-0.708 0.197,-0.7L0.444,-0.259C0.448,-0.251 0.452,-0.243 0.456,-0.234C0.46,-0.225 0.463,-0.217 0.467,-0.208C0.47,-0.217 0.473,-0.225 0.477,-0.234C0.481,-0.243 0.485,-0.252 0.489,-0.26L0.732,-0.7C0.736,-0.708 0.74,-0.712 0.745,-0.714C0.75,-0.716 0.757,-0.717 0.766,-0.717L0.837,-0.717Z" style="fill-rule:nonzero;"/>
                </g>
                <g transform="matrix(54.4189,0,0,54.4189,244.933,308.014)">
                    <path d="M0.494,-0.085C0.503,-0.085 0.511,-0.082 0.517,-0.076C0.522,-0.07 0.525,-0.063 0.525,-0.054L0.525,-0L0.047,-0L0.047,-0.031C0.047,-0.037 0.048,-0.043 0.051,-0.05C0.054,-0.057 0.058,-0.063 0.064,-0.069L0.293,-0.299C0.312,-0.318 0.329,-0.337 0.345,-0.355C0.361,-0.373 0.374,-0.391 0.385,-0.409C0.396,-0.427 0.405,-0.445 0.411,-0.463C0.417,-0.482 0.42,-0.501 0.42,-0.523C0.42,-0.544 0.416,-0.562 0.41,-0.578C0.403,-0.594 0.394,-0.607 0.382,-0.617C0.371,-0.627 0.357,-0.635 0.342,-0.64C0.326,-0.645 0.309,-0.648 0.291,-0.648C0.273,-0.648 0.256,-0.645 0.241,-0.64C0.225,-0.635 0.212,-0.627 0.2,-0.618C0.188,-0.608 0.178,-0.597 0.17,-0.584C0.162,-0.571 0.156,-0.557 0.153,-0.541C0.149,-0.529 0.144,-0.522 0.137,-0.518C0.13,-0.514 0.12,-0.513 0.108,-0.515L0.062,-0.523C0.066,-0.555 0.075,-0.584 0.089,-0.609C0.102,-0.634 0.119,-0.656 0.14,-0.673C0.16,-0.69 0.184,-0.702 0.21,-0.711C0.236,-0.72 0.265,-0.725 0.296,-0.725C0.326,-0.725 0.354,-0.72 0.381,-0.711C0.407,-0.702 0.43,-0.689 0.449,-0.672C0.468,-0.655 0.484,-0.634 0.495,-0.609C0.505,-0.584 0.511,-0.556 0.511,-0.525C0.511,-0.498 0.507,-0.474 0.499,-0.451C0.491,-0.428 0.48,-0.406 0.467,-0.386C0.453,-0.365 0.437,-0.345 0.419,-0.325C0.401,-0.305 0.383,-0.286 0.363,-0.266L0.174,-0.073C0.187,-0.076 0.2,-0.079 0.214,-0.081C0.228,-0.083 0.241,-0.085 0.254,-0.085L0.494,-0.085Z" style="fill-rule:nonzero;"/>
                </g>
                <g transform="matrix(54.4189,0,0,54.4189,137.85,362.432)">
                    <path d="M0.837,-0.717L0.837,-0L0.752,-0L0.752,-0.527C0.752,-0.534 0.752,-0.541 0.753,-0.549C0.753,-0.557 0.754,-0.565 0.755,-0.574L0.509,-0.126C0.501,-0.111 0.489,-0.103 0.474,-0.103L0.46,-0.103C0.444,-0.103 0.432,-0.111 0.425,-0.126L0.174,-0.576C0.175,-0.558 0.177,-0.542 0.177,-0.527L0.177,-0L0.092,-0L0.092,-0.717L0.163,-0.717C0.172,-0.717 0.178,-0.716 0.183,-0.714C0.188,-0.712 0.192,-0.708 0.197,-0.7L0.444,-0.259C0.448,-0.251 0.452,-0.243 0.456,-0.234C0.46,-0.225 0.463,-0.217 0.467,-0.208C0.47,-0.217 0.473,-0.225 0.477,-0.234C0.481,-0.243 0.485,-0.252 0.489,-0.26L0.732,-0.7C0.736,-0.708 0.74,-0.712 0.745,-0.714C0.75,-0.716 0.757,-0.717 0.766,-0.717L0.837,-0.717Z" style="fill-rule:nonzero;"/>
                </g>
                <g transform="matrix(54.4189,0,0,54.4189,188.378,362.432)">
                    <rect x="0.092" y="-0.717" width="0.097" height="0.717" style="fill-rule:nonzero;"/>
                </g>
                <g transform="matrix(54.4189,0,0,54.4189,203.615,362.432)">
                    <path d="M0.595,-0.148C0.6,-0.148 0.605,-0.146 0.609,-0.142L0.647,-0.1C0.618,-0.066 0.582,-0.04 0.54,-0.021C0.498,-0.002 0.448,0.008 0.389,0.008C0.337,0.008 0.291,-0.001 0.249,-0.019C0.206,-0.037 0.171,-0.062 0.141,-0.094C0.111,-0.126 0.088,-0.165 0.072,-0.21C0.056,-0.255 0.048,-0.304 0.048,-0.358C0.048,-0.412 0.056,-0.462 0.073,-0.507C0.09,-0.552 0.114,-0.59 0.145,-0.623C0.176,-0.655 0.213,-0.68 0.256,-0.698C0.299,-0.716 0.346,-0.725 0.398,-0.725C0.449,-0.725 0.494,-0.716 0.533,-0.7C0.572,-0.684 0.606,-0.662 0.636,-0.634L0.604,-0.589C0.602,-0.586 0.599,-0.583 0.596,-0.581C0.593,-0.579 0.589,-0.578 0.584,-0.578C0.578,-0.578 0.57,-0.581 0.562,-0.587C0.553,-0.594 0.542,-0.601 0.528,-0.609C0.514,-0.617 0.496,-0.624 0.475,-0.631C0.454,-0.637 0.428,-0.641 0.398,-0.641C0.361,-0.641 0.327,-0.634 0.296,-0.621C0.265,-0.608 0.239,-0.59 0.217,-0.566C0.195,-0.541 0.177,-0.511 0.165,-0.477C0.153,-0.442 0.147,-0.402 0.147,-0.358C0.147,-0.313 0.153,-0.274 0.166,-0.239C0.179,-0.204 0.196,-0.174 0.218,-0.15C0.24,-0.126 0.267,-0.107 0.297,-0.095C0.327,-0.082 0.36,-0.076 0.395,-0.076C0.416,-0.076 0.435,-0.077 0.452,-0.079C0.469,-0.082 0.485,-0.086 0.5,-0.091C0.514,-0.096 0.528,-0.103 0.54,-0.111C0.553,-0.119 0.565,-0.129 0.578,-0.141C0.583,-0.146 0.589,-0.148 0.595,-0.148Z" style="fill-rule:nonzero;"/>
                </g>
            </g>
            <g transform="matrix(0.343018,0,0,0.343018,185.247,186.627)">
                <g transform="matrix(54.4189,0,0,54.4189,101.322,308.014)">
                    <path d="M0.672,-0.717L0.672,-0L0.575,-0L0.575,-0.326L0.189,-0.326L0.189,-0L0.092,-0L0.092,-0.717L0.189,-0.717L0.189,-0.397L0.575,-0.397L0.575,-0.717L0.672,-0.717Z" style="fill-rule:nonzero;"/>
                </g>
                <g transform="matrix(54.4189,0,0,54.4189,142.87,308.014)">
                    <path d="M0.713,-0.358C0.713,-0.304 0.704,-0.256 0.687,-0.212C0.67,-0.167 0.646,-0.13 0.615,-0.099C0.584,-0.067 0.547,-0.043 0.503,-0.026C0.46,-0.009 0.412,-0 0.359,-0L0.092,-0L0.092,-0.717L0.359,-0.717C0.412,-0.717 0.46,-0.708 0.503,-0.691C0.547,-0.674 0.584,-0.649 0.615,-0.618C0.646,-0.586 0.67,-0.549 0.687,-0.505C0.704,-0.46 0.713,-0.412 0.713,-0.358ZM0.613,-0.358C0.613,-0.402 0.607,-0.441 0.595,-0.476C0.583,-0.511 0.566,-0.54 0.544,-0.564C0.522,-0.588 0.495,-0.606 0.464,-0.619C0.433,-0.632 0.398,-0.638 0.359,-0.638L0.189,-0.638L0.189,-0.079L0.359,-0.079C0.398,-0.079 0.433,-0.085 0.464,-0.098C0.495,-0.11 0.522,-0.128 0.544,-0.152C0.566,-0.176 0.583,-0.205 0.595,-0.24C0.607,-0.275 0.613,-0.314 0.613,-0.358Z" style="fill-rule:nonzero;"/>
                </g>
                <g transform="matrix(54.4189,0,0,54.4189,184.256,308.014)">
                    <path d="M0.674,-0.345L0.674,-0.07C0.638,-0.044 0.599,-0.024 0.558,-0.011C0.517,0.002 0.473,0.008 0.424,0.008C0.366,0.008 0.314,-0.001 0.268,-0.019C0.222,-0.037 0.182,-0.062 0.149,-0.094C0.116,-0.126 0.091,-0.165 0.074,-0.21C0.056,-0.255 0.047,-0.304 0.047,-0.358C0.047,-0.413 0.056,-0.463 0.073,-0.508C0.09,-0.553 0.114,-0.591 0.146,-0.623C0.178,-0.655 0.216,-0.68 0.262,-0.698C0.307,-0.716 0.358,-0.725 0.414,-0.725C0.442,-0.725 0.468,-0.722 0.493,-0.718C0.517,-0.714 0.539,-0.708 0.56,-0.7C0.581,-0.692 0.6,-0.683 0.618,-0.672C0.635,-0.661 0.652,-0.648 0.667,-0.634L0.64,-0.59C0.635,-0.583 0.63,-0.579 0.623,-0.577C0.616,-0.575 0.608,-0.577 0.6,-0.582C0.592,-0.587 0.583,-0.592 0.573,-0.599C0.562,-0.606 0.55,-0.612 0.535,-0.618C0.52,-0.624 0.502,-0.63 0.482,-0.634C0.462,-0.638 0.438,-0.641 0.411,-0.641C0.37,-0.641 0.334,-0.634 0.301,-0.621C0.268,-0.608 0.241,-0.589 0.218,-0.564C0.195,-0.54 0.177,-0.51 0.165,-0.475C0.152,-0.44 0.146,-0.401 0.146,-0.358C0.146,-0.313 0.152,-0.273 0.165,-0.237C0.178,-0.202 0.196,-0.172 0.22,-0.147C0.244,-0.122 0.273,-0.103 0.307,-0.09C0.341,-0.077 0.379,-0.071 0.422,-0.071C0.455,-0.071 0.484,-0.074 0.51,-0.082C0.536,-0.089 0.561,-0.1 0.586,-0.113L0.586,-0.271L0.475,-0.271C0.468,-0.271 0.463,-0.272 0.459,-0.276C0.455,-0.28 0.454,-0.284 0.454,-0.29L0.454,-0.345L0.674,-0.345Z" style="fill-rule:nonzero;"/>
                </g>
            </g>
            <g transform="matrix(0.343018,0,0,0.343018,419.605,186.627)">
                <g transform="matrix(54.4189,0,0,54.4189,101.322,308.014)">
                    <path d="M0.754,-0.358C0.754,-0.304 0.745,-0.255 0.728,-0.21C0.711,-0.165 0.687,-0.127 0.656,-0.095C0.625,-0.062 0.588,-0.037 0.544,-0.019C0.501,-0.001 0.453,0.008 0.4,0.008C0.347,0.008 0.299,-0.001 0.256,-0.019C0.213,-0.037 0.175,-0.062 0.145,-0.095C0.114,-0.127 0.09,-0.165 0.073,-0.21C0.055,-0.255 0.047,-0.304 0.047,-0.358C0.047,-0.412 0.055,-0.461 0.073,-0.506C0.09,-0.551 0.114,-0.589 0.145,-0.622C0.175,-0.654 0.213,-0.68 0.256,-0.698C0.299,-0.716 0.347,-0.725 0.4,-0.725C0.453,-0.725 0.501,-0.716 0.544,-0.698C0.588,-0.68 0.625,-0.654 0.656,-0.622C0.687,-0.589 0.711,-0.551 0.728,-0.506C0.745,-0.461 0.754,-0.412 0.754,-0.358ZM0.654,-0.358C0.654,-0.402 0.648,-0.442 0.636,-0.477C0.624,-0.511 0.607,-0.541 0.585,-0.565C0.563,-0.589 0.536,-0.608 0.505,-0.621C0.474,-0.634 0.439,-0.641 0.4,-0.641C0.362,-0.641 0.327,-0.634 0.296,-0.621C0.264,-0.608 0.237,-0.589 0.215,-0.565C0.193,-0.541 0.176,-0.511 0.164,-0.477C0.152,-0.442 0.146,-0.402 0.146,-0.358C0.146,-0.314 0.152,-0.275 0.164,-0.24C0.176,-0.205 0.193,-0.175 0.215,-0.151C0.237,-0.127 0.264,-0.109 0.296,-0.096C0.327,-0.083 0.362,-0.077 0.4,-0.077C0.439,-0.077 0.474,-0.083 0.505,-0.096C0.536,-0.109 0.563,-0.127 0.585,-0.151C0.607,-0.175 0.624,-0.205 0.636,-0.24C0.648,-0.275 0.654,-0.314 0.654,-0.358Z" style="fill-rule:nonzero;"/>
                </g>
                <g transform="matrix(54.4189,0,0,54.4189,144.884,308.014)">
                    <path d="M0.343,-0.077C0.371,-0.077 0.395,-0.08 0.415,-0.087C0.435,-0.093 0.451,-0.102 0.464,-0.113C0.477,-0.125 0.486,-0.138 0.492,-0.154C0.498,-0.17 0.501,-0.188 0.501,-0.207C0.501,-0.244 0.488,-0.273 0.462,-0.294C0.435,-0.316 0.396,-0.327 0.343,-0.327L0.188,-0.327L0.188,-0.077L0.343,-0.077ZM0.188,-0.64L0.188,-0.396L0.316,-0.396C0.343,-0.396 0.367,-0.399 0.387,-0.405C0.407,-0.411 0.424,-0.419 0.437,-0.43C0.45,-0.44 0.46,-0.453 0.467,-0.468C0.473,-0.483 0.476,-0.5 0.476,-0.518C0.476,-0.56 0.463,-0.591 0.438,-0.611C0.413,-0.63 0.373,-0.64 0.32,-0.64L0.188,-0.64ZM0.32,-0.717C0.364,-0.717 0.402,-0.712 0.434,-0.704C0.466,-0.695 0.492,-0.683 0.512,-0.667C0.533,-0.651 0.548,-0.631 0.558,-0.608C0.567,-0.585 0.572,-0.559 0.572,-0.53C0.572,-0.512 0.569,-0.495 0.564,-0.479C0.558,-0.463 0.55,-0.448 0.539,-0.434C0.528,-0.42 0.514,-0.407 0.497,-0.396C0.48,-0.385 0.461,-0.376 0.438,-0.369C0.491,-0.359 0.53,-0.34 0.557,-0.312C0.583,-0.285 0.597,-0.249 0.597,-0.204C0.597,-0.174 0.591,-0.146 0.58,-0.121C0.569,-0.096 0.552,-0.075 0.531,-0.057C0.509,-0.039 0.483,-0.025 0.452,-0.015C0.42,-0.005 0.385,-0 0.345,-0L0.092,-0L0.092,-0.717L0.32,-0.717Z" style="fill-rule:nonzero;"/>
                </g>
                <g transform="matrix(54.4189,0,0,54.4189,180.066,308.014)">
                    <path d="M0.458,-0.605C0.455,-0.6 0.452,-0.596 0.448,-0.593C0.445,-0.591 0.44,-0.59 0.436,-0.59C0.43,-0.59 0.423,-0.592 0.416,-0.598C0.408,-0.604 0.398,-0.61 0.387,-0.617C0.375,-0.624 0.361,-0.63 0.345,-0.636C0.329,-0.641 0.31,-0.644 0.287,-0.644C0.265,-0.644 0.246,-0.641 0.229,-0.635C0.213,-0.629 0.199,-0.622 0.188,-0.612C0.177,-0.602 0.168,-0.59 0.163,-0.576C0.157,-0.563 0.154,-0.548 0.154,-0.533C0.154,-0.513 0.159,-0.496 0.169,-0.483C0.179,-0.47 0.192,-0.458 0.208,-0.449C0.224,-0.44 0.242,-0.432 0.263,-0.425C0.283,-0.418 0.304,-0.411 0.326,-0.404C0.347,-0.396 0.368,-0.388 0.389,-0.379C0.409,-0.37 0.428,-0.358 0.444,-0.344C0.46,-0.33 0.473,-0.313 0.483,-0.293C0.493,-0.272 0.498,-0.247 0.498,-0.218C0.498,-0.186 0.492,-0.157 0.482,-0.129C0.471,-0.102 0.455,-0.078 0.435,-0.058C0.414,-0.037 0.389,-0.021 0.359,-0.01C0.329,0.002 0.296,0.008 0.258,0.008C0.211,0.008 0.169,-0 0.131,-0.017C0.092,-0.034 0.06,-0.057 0.033,-0.086L0.061,-0.132C0.064,-0.135 0.067,-0.138 0.071,-0.141C0.075,-0.143 0.079,-0.145 0.084,-0.145C0.088,-0.145 0.093,-0.143 0.098,-0.139C0.104,-0.136 0.11,-0.131 0.117,-0.126C0.124,-0.121 0.132,-0.115 0.141,-0.109C0.15,-0.102 0.16,-0.096 0.172,-0.091C0.183,-0.086 0.196,-0.081 0.211,-0.078C0.226,-0.074 0.242,-0.073 0.261,-0.073C0.284,-0.073 0.304,-0.076 0.322,-0.082C0.34,-0.088 0.355,-0.097 0.368,-0.109C0.38,-0.12 0.39,-0.134 0.397,-0.15C0.403,-0.166 0.407,-0.184 0.407,-0.204C0.407,-0.225 0.402,-0.243 0.392,-0.257C0.382,-0.271 0.369,-0.282 0.353,-0.292C0.337,-0.301 0.319,-0.309 0.298,-0.315C0.277,-0.322 0.256,-0.328 0.235,-0.335C0.214,-0.342 0.193,-0.35 0.172,-0.359C0.151,-0.368 0.133,-0.38 0.117,-0.394C0.101,-0.408 0.088,-0.426 0.078,-0.448C0.068,-0.469 0.064,-0.496 0.064,-0.528C0.064,-0.553 0.068,-0.577 0.078,-0.601C0.088,-0.625 0.102,-0.646 0.121,-0.664C0.14,-0.682 0.163,-0.697 0.191,-0.708C0.218,-0.719 0.25,-0.725 0.286,-0.725C0.326,-0.725 0.362,-0.718 0.395,-0.706C0.428,-0.693 0.456,-0.675 0.482,-0.651L0.458,-0.605Z" style="fill-rule:nonzero;"/>
                </g>
                <g transform="matrix(54.4189,0,0,54.4189,223.519,308.014)">
                    <path d="M0.509,-0.068L0.509,-0L0.125,-0L0.125,-0.068L0.279,-0.068L0.279,-0.557C0.279,-0.571 0.279,-0.586 0.28,-0.601L0.153,-0.492C0.148,-0.488 0.144,-0.486 0.14,-0.485C0.135,-0.484 0.131,-0.484 0.128,-0.485C0.124,-0.485 0.12,-0.487 0.117,-0.489C0.114,-0.491 0.112,-0.493 0.11,-0.495L0.082,-0.534L0.296,-0.718L0.368,-0.718L0.368,-0.068L0.509,-0.068Z" style="fill-rule:nonzero;"/>
                </g>
            </g>
            <g transform="matrix(0.343018,0,0,0.343018,516.756,186.627)">
                <g transform="matrix(54.4189,0,0,54.4189,101.322,308.014)">
                    <path d="M0.754,-0.358C0.754,-0.304 0.745,-0.255 0.728,-0.21C0.711,-0.165 0.687,-0.127 0.656,-0.095C0.625,-0.062 0.588,-0.037 0.544,-0.019C0.501,-0.001 0.453,0.008 0.4,0.008C0.347,0.008 0.299,-0.001 0.256,-0.019C0.213,-0.037 0.175,-0.062 0.145,-0.095C0.114,-0.127 0.09,-0.165 0.073,-0.21C0.055,-0.255 0.047,-0.304 0.047,-0.358C0.047,-0.412 0.055,-0.461 0.073,-0.506C0.09,-0.551 0.114,-0.589 0.145,-0.622C0.175,-0.654 0.213,-0.68 0.256,-0.698C0.299,-0.716 0.347,-0.725 0.4,-0.725C0.453,-0.725 0.501,-0.716 0.544,-0.698C0.588,-0.68 0.625,-0.654 0.656,-0.622C0.687,-0.589 0.711,-0.551 0.728,-0.506C0.745,-0.461 0.754,-0.412 0.754,-0.358ZM0.654,-0.358C0.654,-0.402 0.648,-0.442 0.636,-0.477C0.624,-0.511 0.607,-0.541 0.585,-0.565C0.563,-0.589 0.536,-0.608 0.505,-0.621C0.474,-0.634 0.439,-0.641 0.4,-0.641C0.362,-0.641 0.327,-0.634 0.296,-0.621C0.264,-0.608 0.237,-0.589 0.215,-0.565C0.193,-0.541 0.176,-0.511 0.164,-0.477C0.152,-0.442 0.146,-0.402 0.146,-0.358C0.146,-0.314 0.152,-0.275 0.164,-0.24C0.176,-0.205 0.193,-0.175 0.215,-0.151C0.237,-0.127 0.264,-0.109 0.296,-0.096C0.327,-0.083 0.362,-0.077 0.4,-0.077C0.439,-0.077 0.474,-0.083 0.505,-0.096C0.536,-0.109 0.563,-0.127 0.585,-0.151C0.607,-0.175 0.624,-0.205 0.636,-0.24C0.648,-0.275 0.654,-0.314 0.654,-0.358Z" style="fill-rule:nonzero;"/>
                </g>
                <g transform="matrix(54.4189,0,0,54.4189,144.884,308.014)">
                    <path d="M0.343,-0.077C0.371,-0.077 0.395,-0.08 0.415,-0.087C0.435,-0.093 0.451,-0.102 0.464,-0.113C0.477,-0.125 0.486,-0.138 0.492,-0.154C0.498,-0.17 0.501,-0.188 0.501,-0.207C0.501,-0.244 0.488,-0.273 0.462,-0.294C0.435,-0.316 0.396,-0.327 0.343,-0.327L0.188,-0.327L0.188,-0.077L0.343,-0.077ZM0.188,-0.64L0.188,-0.396L0.316,-0.396C0.343,-0.396 0.367,-0.399 0.387,-0.405C0.407,-0.411 0.424,-0.419 0.437,-0.43C0.45,-0.44 0.46,-0.453 0.467,-0.468C0.473,-0.483 0.476,-0.5 0.476,-0.518C0.476,-0.56 0.463,-0.591 0.438,-0.611C0.413,-0.63 0.373,-0.64 0.32,-0.64L0.188,-0.64ZM0.32,-0.717C0.364,-0.717 0.402,-0.712 0.434,-0.704C0.466,-0.695 0.492,-0.683 0.512,-0.667C0.533,-0.651 0.548,-0.631 0.558,-0.608C0.567,-0.585 0.572,-0.559 0.572,-0.53C0.572,-0.512 0.569,-0.495 0.564,-0.479C0.558,-0.463 0.55,-0.448 0.539,-0.434C0.528,-0.42 0.514,-0.407 0.497,-0.396C0.48,-0.385 0.461,-0.376 0.438,-0.369C0.491,-0.359 0.53,-0.34 0.557,-0.312C0.583,-0.285 0.597,-0.249 0.597,-0.204C0.597,-0.174 0.591,-0.146 0.58,-0.121C0.569,-0.096 0.552,-0.075 0.531,-0.057C0.509,-0.039 0.483,-0.025 0.452,-0.015C0.42,-0.005 0.385,-0 0.345,-0L0.092,-0L0.092,-0.717L0.32,-0.717Z" style="fill-rule:nonzero;"/>
                </g>
                <g transform="matrix(54.4189,0,0,54.4189,180.066,308.014)">
                    <path d="M0.458,-0.605C0.455,-0.6 0.452,-0.596 0.448,-0.593C0.445,-0.591 0.44,-0.59 0.436,-0.59C0.43,-0.59 0.423,-0.592 0.416,-0.598C0.408,-0.604 0.398,-0.61 0.387,-0.617C0.375,-0.624 0.361,-0.63 0.345,-0.636C0.329,-0.641 0.31,-0.644 0.287,-0.644C0.265,-0.644 0.246,-0.641 0.229,-0.635C0.213,-0.629 0.199,-0.622 0.188,-0.612C0.177,-0.602 0.168,-0.59 0.163,-0.576C0.157,-0.563 0.154,-0.548 0.154,-0.533C0.154,-0.513 0.159,-0.496 0.169,-0.483C0.179,-0.47 0.192,-0.458 0.208,-0.449C0.224,-0.44 0.242,-0.432 0.263,-0.425C0.283,-0.418 0.304,-0.411 0.326,-0.404C0.347,-0.396 0.368,-0.388 0.389,-0.379C0.409,-0.37 0.428,-0.358 0.444,-0.344C0.46,-0.33 0.473,-0.313 0.483,-0.293C0.493,-0.272 0.498,-0.247 0.498,-0.218C0.498,-0.186 0.492,-0.157 0.482,-0.129C0.471,-0.102 0.455,-0.078 0.435,-0.058C0.414,-0.037 0.389,-0.021 0.359,-0.01C0.329,0.002 0.296,0.008 0.258,0.008C0.211,0.008 0.169,-0 0.131,-0.017C0.092,-0.034 0.06,-0.057 0.033,-0.086L0.061,-0.132C0.064,-0.135 0.067,-0.138 0.071,-0.141C0.075,-0.143 0.079,-0.145 0.084,-0.145C0.088,-0.145 0.093,-0.143 0.098,-0.139C0.104,-0.136 0.11,-0.131 0.117,-0.126C0.124,-0.121 0.132,-0.115 0.141,-0.109C0.15,-0.102 0.16,-0.096 0.172,-0.091C0.183,-0.086 0.196,-0.081 0.211,-0.078C0.226,-0.074 0.242,-0.073 0.261,-0.073C0.284,-0.073 0.304,-0.076 0.322,-0.082C0.34,-0.088 0.355,-0.097 0.368,-0.109C0.38,-0.12 0.39,-0.134 0.397,-0.15C0.403,-0.166 0.407,-0.184 0.407,-0.204C0.407,-0.225 0.402,-0.243 0.392,-0.257C0.382,-0.271 0.369,-0.282 0.353,-0.292C0.337,-0.301 0.319,-0.309 0.298,-0.315C0.277,-0.322 0.256,-0.328 0.235,-0.335C0.214,-0.342 0.193,-0.35 0.172,-0.359C0.151,-0.368 0.133,-0.38 0.117,-0.394C0.101,-0.408 0.088,-0.426 0.078,-0.448C0.068,-0.469 0.064,-0.496 0.064,-0.528C0.064,-0.553 0.068,-0.577 0.078,-0.601C0.088,-0.625 0.102,-0.646 0.121,-0.664C0.14,-0.682 0.163,-0.697 0.191,-0.708C0.218,-0.719 0.25,-0.725 0.286,-0.725C0.326,-0.725 0.362,-0.718 0.395,-0.706C0.428,-0.693 0.456,-0.675 0.482,-0.651L0.458,-0.605Z" style="fill-rule:nonzero;"/>
                </g>
                <g transform="matrix(54.4189,0,0,54.4189,223.519,308.014)">
                    <path d="M0.494,-0.085C0.503,-0.085 0.511,-0.082 0.517,-0.076C0.522,-0.07 0.525,-0.063 0.525,-0.054L0.525,-0L0.047,-0L0.047,-0.031C0.047,-0.037 0.048,-0.043 0.051,-0.05C0.054,-0.057 0.058,-0.063 0.064,-0.069L0.293,-0.299C0.312,-0.318 0.329,-0.337 0.345,-0.355C0.361,-0.373 0.374,-0.391 0.385,-0.409C0.396,-0.427 0.405,-0.445 0.411,-0.463C0.417,-0.482 0.42,-0.501 0.42,-0.523C0.42,-0.544 0.416,-0.562 0.41,-0.578C0.403,-0.594 0.394,-0.607 0.382,-0.617C0.371,-0.627 0.357,-0.635 0.342,-0.64C0.326,-0.645 0.309,-0.648 0.291,-0.648C0.273,-0.648 0.256,-0.645 0.241,-0.64C0.225,-0.635 0.212,-0.627 0.2,-0.618C0.188,-0.608 0.178,-0.597 0.17,-0.584C0.162,-0.571 0.156,-0.557 0.153,-0.541C0.149,-0.529 0.144,-0.522 0.137,-0.518C0.13,-0.514 0.12,-0.513 0.108,-0.515L0.062,-0.523C0.066,-0.555 0.075,-0.584 0.089,-0.609C0.102,-0.634 0.119,-0.656 0.14,-0.673C0.16,-0.69 0.184,-0.702 0.21,-0.711C0.236,-0.72 0.265,-0.725 0.296,-0.725C0.326,-0.725 0.354,-0.72 0.381,-0.711C0.407,-0.702 0.43,-0.689 0.449,-0.672C0.468,-0.655 0.484,-0.634 0.495,-0.609C0.505,-0.584 0.511,-0.556 0.511,-0.525C0.511,-0.498 0.507,-0.474 0.499,-0.451C0.491,-0.428 0.48,-0.406 0.467,-0.386C0.453,-0.365 0.437,-0.345 0.419,-0.325C0.401,-0.305 0.383,-0.286 0.363,-0.266L0.174,-0.073C0.187,-0.076 0.2,-0.079 0.214,-0.081C0.228,-0.083 0.241,-0.085 0.254,-0.085L0.494,-0.085Z" style="fill-rule:nonzero;"/>
                </g>
            </g>
            <g transform="matrix(0.343018,0,0,0.343018,82.6403,186.627)">
                <g transform="matrix(54.4189,0,0,54.4189,101.322,308.014)">
                    <path d="M0.674,-0.345L0.674,-0.07C0.638,-0.044 0.599,-0.024 0.558,-0.011C0.517,0.002 0.473,0.008 0.424,0.008C0.366,0.008 0.314,-0.001 0.268,-0.019C0.222,-0.037 0.182,-0.062 0.149,-0.094C0.116,-0.126 0.091,-0.165 0.074,-0.21C0.056,-0.255 0.047,-0.304 0.047,-0.358C0.047,-0.413 0.056,-0.463 0.073,-0.508C0.09,-0.553 0.114,-0.591 0.146,-0.623C0.178,-0.655 0.216,-0.68 0.262,-0.698C0.307,-0.716 0.358,-0.725 0.414,-0.725C0.442,-0.725 0.468,-0.722 0.493,-0.718C0.517,-0.714 0.539,-0.708 0.56,-0.7C0.581,-0.692 0.6,-0.683 0.618,-0.672C0.635,-0.661 0.652,-0.648 0.667,-0.634L0.64,-0.59C0.635,-0.583 0.63,-0.579 0.623,-0.577C0.616,-0.575 0.608,-0.577 0.6,-0.582C0.592,-0.587 0.583,-0.592 0.573,-0.599C0.562,-0.606 0.55,-0.612 0.535,-0.618C0.52,-0.624 0.502,-0.63 0.482,-0.634C0.462,-0.638 0.438,-0.641 0.411,-0.641C0.37,-0.641 0.334,-0.634 0.301,-0.621C0.268,-0.608 0.241,-0.589 0.218,-0.564C0.195,-0.54 0.177,-0.51 0.165,-0.475C0.152,-0.44 0.146,-0.401 0.146,-0.358C0.146,-0.313 0.152,-0.273 0.165,-0.237C0.178,-0.202 0.196,-0.172 0.22,-0.147C0.244,-0.122 0.273,-0.103 0.307,-0.09C0.341,-0.077 0.379,-0.071 0.422,-0.071C0.455,-0.071 0.484,-0.074 0.51,-0.082C0.536,-0.089 0.561,-0.1 0.586,-0.113L0.586,-0.271L0.475,-0.271C0.468,-0.271 0.463,-0.272 0.459,-0.276C0.455,-0.28 0.454,-0.284 0.454,-0.29L0.454,-0.345L0.674,-0.345Z" style="fill-rule:nonzero;"/>
                </g>
                <g transform="matrix(54.4189,0,0,54.4189,140.177,308.014)">
                    <path d="M0.361,-0.286L0.361,-0L0.264,-0L0.264,-0.286L0.001,-0.717L0.086,-0.717C0.095,-0.717 0.101,-0.714 0.107,-0.71C0.112,-0.706 0.116,-0.701 0.12,-0.694L0.284,-0.416C0.29,-0.404 0.295,-0.393 0.3,-0.383C0.305,-0.373 0.309,-0.362 0.313,-0.352C0.317,-0.362 0.321,-0.373 0.326,-0.383C0.33,-0.393 0.335,-0.404 0.341,-0.416L0.505,-0.694C0.507,-0.7 0.512,-0.705 0.517,-0.71C0.522,-0.714 0.529,-0.717 0.538,-0.717L0.623,-0.717L0.361,-0.286Z" style="fill-rule:nonzero;"/>
                </g>
                <g transform="matrix(54.4189,0,0,54.4189,174.134,308.014)">
                    <path d="M0.29,-0.37C0.318,-0.37 0.343,-0.373 0.364,-0.38C0.386,-0.387 0.404,-0.396 0.418,-0.409C0.433,-0.421 0.444,-0.436 0.451,-0.454C0.458,-0.471 0.462,-0.49 0.462,-0.511C0.462,-0.554 0.448,-0.586 0.42,-0.608C0.392,-0.629 0.35,-0.64 0.294,-0.64L0.188,-0.64L0.188,-0.37L0.29,-0.37ZM0.621,-0L0.535,-0C0.517,-0 0.504,-0.007 0.496,-0.021L0.31,-0.277C0.304,-0.284 0.298,-0.29 0.292,-0.294C0.285,-0.297 0.275,-0.299 0.262,-0.299L0.188,-0.299L0.188,-0L0.092,-0L0.092,-0.717L0.294,-0.717C0.339,-0.717 0.379,-0.712 0.412,-0.703C0.445,-0.694 0.472,-0.68 0.493,-0.663C0.515,-0.646 0.531,-0.625 0.541,-0.6C0.551,-0.576 0.557,-0.548 0.557,-0.518C0.557,-0.493 0.553,-0.469 0.545,-0.447C0.537,-0.425 0.525,-0.405 0.51,-0.388C0.495,-0.37 0.476,-0.355 0.454,-0.343C0.432,-0.331 0.408,-0.321 0.38,-0.315C0.392,-0.308 0.403,-0.298 0.412,-0.285L0.621,-0Z" style="fill-rule:nonzero;"/>
                </g>
                <g transform="matrix(54.4189,0,0,54.4189,207.846,308.014)">
                    <path d="M0.754,-0.358C0.754,-0.304 0.745,-0.255 0.728,-0.21C0.711,-0.165 0.687,-0.127 0.656,-0.095C0.625,-0.062 0.588,-0.037 0.544,-0.019C0.501,-0.001 0.453,0.008 0.4,0.008C0.347,0.008 0.299,-0.001 0.256,-0.019C0.213,-0.037 0.175,-0.062 0.145,-0.095C0.114,-0.127 0.09,-0.165 0.073,-0.21C0.055,-0.255 0.047,-0.304 0.047,-0.358C0.047,-0.412 0.055,-0.461 0.073,-0.506C0.09,-0.551 0.114,-0.589 0.145,-0.622C0.175,-0.654 0.213,-0.68 0.256,-0.698C0.299,-0.716 0.347,-0.725 0.4,-0.725C0.453,-0.725 0.501,-0.716 0.544,-0.698C0.588,-0.68 0.625,-0.654 0.656,-0.622C0.687,-0.589 0.711,-0.551 0.728,-0.506C0.745,-0.461 0.754,-0.412 0.754,-0.358ZM0.654,-0.358C0.654,-0.402 0.648,-0.442 0.636,-0.477C0.624,-0.511 0.607,-0.541 0.585,-0.565C0.563,-0.589 0.536,-0.608 0.505,-0.621C0.474,-0.634 0.439,-0.641 0.4,-0.641C0.362,-0.641 0.327,-0.634 0.296,-0.621C0.264,-0.608 0.237,-0.589 0.215,-0.565C0.193,-0.541 0.176,-0.511 0.164,-0.477C0.152,-0.442 0.146,-0.402 0.146,-0.358C0.146,-0.314 0.152,-0.275 0.164,-0.24C0.176,-0.205 0.193,-0.175 0.215,-0.151C0.237,-0.127 0.264,-0.109 0.296,-0.096C0.327,-0.083 0.362,-0.077 0.4,-0.077C0.439,-0.077 0.474,-0.083 0.505,-0.096C0.536,-0.109 0.563,-0.127 0.585,-0.151C0.607,-0.175 0.624,-0.205 0.636,-0.24C0.648,-0.275 0.654,-0.314 0.654,-0.358Z" style="fill-rule:nonzero;"/>
                </g>
            </g>
            <g transform="matrix(0.343018,0,0,0.343018,323.788,186.632)">
                <g transform="matrix(54.4189,0,0,54.4189,101.322,308.014)">
                    <path d="M0.343,-0.077C0.371,-0.077 0.395,-0.08 0.415,-0.087C0.435,-0.093 0.451,-0.102 0.464,-0.113C0.477,-0.125 0.486,-0.138 0.492,-0.154C0.498,-0.17 0.501,-0.188 0.501,-0.207C0.501,-0.244 0.488,-0.273 0.462,-0.294C0.435,-0.316 0.396,-0.327 0.343,-0.327L0.188,-0.327L0.188,-0.077L0.343,-0.077ZM0.188,-0.64L0.188,-0.396L0.316,-0.396C0.343,-0.396 0.367,-0.399 0.387,-0.405C0.407,-0.411 0.424,-0.419 0.437,-0.43C0.45,-0.44 0.46,-0.453 0.467,-0.468C0.473,-0.483 0.476,-0.5 0.476,-0.518C0.476,-0.56 0.463,-0.591 0.438,-0.611C0.413,-0.63 0.373,-0.64 0.32,-0.64L0.188,-0.64ZM0.32,-0.717C0.364,-0.717 0.402,-0.712 0.434,-0.704C0.466,-0.695 0.492,-0.683 0.512,-0.667C0.533,-0.651 0.548,-0.631 0.558,-0.608C0.567,-0.585 0.572,-0.559 0.572,-0.53C0.572,-0.512 0.569,-0.495 0.564,-0.479C0.558,-0.463 0.55,-0.448 0.539,-0.434C0.528,-0.42 0.514,-0.407 0.497,-0.396C0.48,-0.385 0.461,-0.376 0.438,-0.369C0.491,-0.359 0.53,-0.34 0.557,-0.312C0.583,-0.285 0.597,-0.249 0.597,-0.204C0.597,-0.174 0.591,-0.146 0.58,-0.121C0.569,-0.096 0.552,-0.075 0.531,-0.057C0.509,-0.039 0.483,-0.025 0.452,-0.015C0.42,-0.005 0.385,-0 0.345,-0L0.092,-0L0.092,-0.717L0.32,-0.717Z" style="fill-rule:nonzero;"/>
                </g>
                <g transform="matrix(54.4189,0,0,54.4189,135.959,308.014)">
                    <path d="M0.472,-0.266L0.36,-0.558C0.356,-0.566 0.353,-0.576 0.349,-0.588C0.345,-0.599 0.342,-0.612 0.339,-0.625C0.332,-0.598 0.324,-0.575 0.317,-0.557L0.205,-0.266L0.472,-0.266ZM0.674,-0L0.599,-0C0.59,-0 0.583,-0.002 0.578,-0.007C0.573,-0.011 0.569,-0.016 0.566,-0.023L0.499,-0.196L0.178,-0.196L0.111,-0.023C0.109,-0.017 0.105,-0.012 0.099,-0.007C0.093,-0.002 0.086,-0 0.078,-0L0.003,-0L0.29,-0.717L0.388,-0.717L0.674,-0Z" style="fill-rule:nonzero;"/>
                </g>
                <g transform="matrix(54.4189,0,0,54.4189,172.801,308.014)">
                    <path d="M0.29,-0.37C0.318,-0.37 0.343,-0.373 0.364,-0.38C0.386,-0.387 0.404,-0.396 0.418,-0.409C0.433,-0.421 0.444,-0.436 0.451,-0.454C0.458,-0.471 0.462,-0.49 0.462,-0.511C0.462,-0.554 0.448,-0.586 0.42,-0.608C0.392,-0.629 0.35,-0.64 0.294,-0.64L0.188,-0.64L0.188,-0.37L0.29,-0.37ZM0.621,-0L0.535,-0C0.517,-0 0.504,-0.007 0.496,-0.021L0.31,-0.277C0.304,-0.284 0.298,-0.29 0.292,-0.294C0.285,-0.297 0.275,-0.299 0.262,-0.299L0.188,-0.299L0.188,-0L0.092,-0L0.092,-0.717L0.294,-0.717C0.339,-0.717 0.379,-0.712 0.412,-0.703C0.445,-0.694 0.472,-0.68 0.493,-0.663C0.515,-0.646 0.531,-0.625 0.541,-0.6C0.551,-0.576 0.557,-0.548 0.557,-0.518C0.557,-0.493 0.553,-0.469 0.545,-0.447C0.537,-0.425 0.525,-0.405 0.51,-0.388C0.495,-0.37 0.476,-0.355 0.454,-0.343C0.432,-0.331 0.408,-0.321 0.38,-0.315C0.392,-0.308 0.403,-0.298 0.412,-0.285L0.621,-0Z" style="fill-rule:nonzero;"/>
                </g>
                <g transform="matrix(54.4189,0,0,54.4189,206.513,308.014)">
                    <path d="M0.754,-0.358C0.754,-0.304 0.745,-0.255 0.728,-0.21C0.711,-0.165 0.687,-0.127 0.656,-0.095C0.625,-0.062 0.588,-0.037 0.544,-0.019C0.501,-0.001 0.453,0.008 0.4,0.008C0.347,0.008 0.299,-0.001 0.256,-0.019C0.213,-0.037 0.175,-0.062 0.145,-0.095C0.114,-0.127 0.09,-0.165 0.073,-0.21C0.055,-0.255 0.047,-0.304 0.047,-0.358C0.047,-0.412 0.055,-0.461 0.073,-0.506C0.09,-0.551 0.114,-0.589 0.145,-0.622C0.175,-0.654 0.213,-0.68 0.256,-0.698C0.299,-0.716 0.347,-0.725 0.4,-0.725C0.453,-0.725 0.501,-0.716 0.544,-0.698C0.588,-0.68 0.625,-0.654 0.656,-0.622C0.687,-0.589 0.711,-0.551 0.728,-0.506C0.745,-0.461 0.754,-0.412 0.754,-0.358ZM0.654,-0.358C0.654,-0.402 0.648,-0.442 0.636,-0.477C0.624,-0.511 0.607,-0.541 0.585,-0.565C0.563,-0.589 0.536,-0.608 0.505,-0.621C0.474,-0.634 0.439,-0.641 0.4,-0.641C0.362,-0.641 0.327,-0.634 0.296,-0.621C0.264,-0.608 0.237,-0.589 0.215,-0.565C0.193,-0.541 0.176,-0.511 0.164,-0.477C0.152,-0.442 0.146,-0.402 0.146,-0.358C0.146,-0.314 0.152,-0.275 0.164,-0.24C0.176,-0.205 0.193,-0.175 0.215,-0.151C0.237,-0.127 0.264,-0.109 0.296,-0.096C0.327,-0.083 0.362,-0.077 0.4,-0.077C0.439,-0.077 0.474,-0.083 0.505,-0.096C0.536,-0.109 0.563,-0.127 0.585,-0.151C0.607,-0.175 0.624,-0.205 0.636,-0.24C0.648,-0.275 0.654,-0.314 0.654,-0.358Z" style="fill-rule:nonzero;"/>
                </g>
            </g>
        </g>
    </g>
</svg>
