<?xml version="1.0" encoding="UTF-8" standalone="no"?>
<!DOCTYPE svg PUBLIC "-//W3C//DTD SVG 1.1//EN" "http://www.w3.org/Graphics/SVG/1.1/DTD/svg11.dtd">
<svg width="1676px" height="536px" version="1.1" xmlns="http://www.w3.org/2000/svg" xmlns:xlink="http://www.w3.org/1999/xlink" xml:space="preserve" xmlns:serif="http://www.serif.com/" style="fill-rule:evenodd;clip-rule:evenodd;">
    <g transform="matrix(1.33333,0,0,1.33333,0,0)">
        <g id="Layer1">
            <path d="M2.835,2.835L1253.85,2.835L1253.85,290.835L1079.76,290.835L1075.73,291.061L1071.75,291.736L1067.87,292.856L1064.14,294.401L1060.61,296.354L1057.31,298.689L1054.3,301.38L999.884,355.796L967.391,388.29L964.38,390.98L961.087,393.316L957.555,395.269L953.824,396.814L949.944,397.933L945.964,398.608L941.933,398.835L521.753,398.835L517.723,398.608L513.743,397.933L509.862,396.814L506.132,395.269L502.6,393.316L499.306,390.98L496.295,388.29L442.57,334.566L409.382,301.38L406.372,298.689L403.081,296.354L399.546,294.401L395.819,292.856L391.938,291.736L387.958,291.061L383.927,290.835L2.835,290.835L2.835,2.835M699.432,94.402L698.006,94.341L696.478,94.275L693.544,94.652L690.715,95.519L688.076,96.849L685.698,98.609L683.651,100.743L681.996,103.192L680.777,105.888L680.24,107.949L680.031,108.751L679.779,111.699L680.031,114.644L680.777,117.507L681.996,120.203L683.651,122.652L685.698,124.787L688.076,126.547L690.715,127.877L693.544,128.744L696.478,129.121L699.432,128.993L702.323,128.37L705.07,127.267L707.587,125.717L709.807,123.763L711.666,121.462L713.109,118.879L714.093,116.093L714.594,113.176L714.594,110.22L714.204,107.949L714.093,107.303L713.109,104.516L711.666,101.934L709.807,99.632L707.587,97.679L705.07,96.129L702.323,95.026L699.432,94.402M976.076,125.311L976.663,125.607L978.718,126.643L981.547,127.508L984.481,127.885L987.435,127.76L990.326,127.137L993.07,126.034L995.59,124.483L997.809,122.528L999.666,120.229L999.884,119.838L1001.11,117.646L1002.1,114.857L1002.59,111.943L1002.59,108.984L1002.1,106.07L1001.11,103.28L999.884,101.089L999.666,100.698L997.809,98.396L995.59,96.443L993.07,94.893L990.326,93.79L987.435,93.166L984.481,93.042L981.547,93.416L978.718,94.283L976.076,95.615L973.701,97.373L971.654,99.507L969.996,101.959L968.777,104.655L968.034,107.515L967.997,107.949L967.782,110.463L968.034,113.411L968.777,116.271L969.996,118.967L971.654,121.416L973.701,123.554L976.076,125.311M769.218,202.822L766.29,203.08L763.447,203.839L760.782,205.084L758.373,206.77L756.292,208.851L754.605,211.26L753.361,213.925L752.601,216.768L752.343,219.699L752.601,222.627L752.983,224.056L753.361,225.471L754.605,228.135L756.292,230.545L758.373,232.625L760.782,234.312L763.447,235.556L766.29,236.316L769.218,236.574L772.149,236.316L774.989,235.556L777.657,234.312L780.066,232.625L782.147,230.545L783.833,228.135L785.078,225.471L785.456,224.056L785.837,222.627L786.095,219.699L785.837,216.768L785.078,213.925L783.833,211.26L782.147,208.851L780.066,206.77L777.657,205.084L774.989,203.839L772.149,203.08L769.218,202.822M829.698,97.991L827.651,100.125L825.996,102.577L824.777,105.27L824.079,107.949L824.031,108.133L823.782,111.081L824.031,114.026L824.777,116.889L825.996,119.585L827.651,122.034L829.698,124.172L832.076,125.929L834.715,127.261L837.334,128.062L837.544,128.126L840.478,128.503L843.435,128.375L846.323,127.755L849.07,126.652L851.587,125.101L853.807,123.146L855.666,120.844L857.109,118.264L858.093,115.475L858.594,112.558L858.594,109.602L858.31,107.949L858.093,106.688L857.109,103.898L855.666,101.316L853.807,99.014L851.587,97.061L849.07,95.511L846.323,94.408L843.435,93.784L840.478,93.66L837.544,94.034L837.334,94.098L834.715,94.901L832.076,96.231L829.698,97.991M448.934,66.526L448.934,264.526L585.734,264.526L585.734,66.526L448.934,66.526Z" style="fill:none;fill-rule:nonzero;stroke:rgb(255,0,0);stroke-width:0.01px;"/>
            <g transform="matrix(1,0,0,1,-309.392,-9.39584)">
                <g transform="matrix(16,0,0,16,921.202,109.383)">
                    <path d="M0.576,-0.635L0.344,-0.635L0.344,-0L0.248,-0L0.248,-0.635L0.015,-0.635L0.015,-0.717L0.576,-0.717L0.576,-0.635Z" style="fill-rule:nonzero;"/>
                </g>
                <g transform="matrix(16,0,0,16,930.65,109.383)">
                    <path d="M0.672,-0.717L0.672,-0L0.575,-0L0.575,-0.326L0.189,-0.326L0.189,-0L0.092,-0L0.092,-0.717L0.189,-0.717L0.189,-0.397L0.575,-0.397L0.575,-0.717L0.672,-0.717Z" style="fill-rule:nonzero;"/>
                </g>
                <g transform="matrix(16,0,0,16,942.866,109.383)">
                    <path d="M0.29,-0.37C0.318,-0.37 0.343,-0.373 0.364,-0.38C0.386,-0.387 0.404,-0.396 0.418,-0.409C0.433,-0.421 0.444,-0.436 0.451,-0.454C0.458,-0.471 0.462,-0.49 0.462,-0.511C0.462,-0.554 0.448,-0.586 0.42,-0.608C0.392,-0.629 0.35,-0.64 0.294,-0.64L0.188,-0.64L0.188,-0.37L0.29,-0.37ZM0.621,-0L0.535,-0C0.517,-0 0.504,-0.007 0.496,-0.021L0.31,-0.277C0.304,-0.284 0.298,-0.29 0.292,-0.294C0.285,-0.297 0.275,-0.299 0.262,-0.299L0.188,-0.299L0.188,-0L0.092,-0L0.092,-0.717L0.294,-0.717C0.339,-0.717 0.379,-0.712 0.412,-0.703C0.445,-0.694 0.472,-0.68 0.493,-0.663C0.515,-0.646 0.531,-0.625 0.541,-0.6C0.551,-0.576 0.557,-0.548 0.557,-0.518C0.557,-0.493 0.553,-0.469 0.545,-0.447C0.537,-0.425 0.525,-0.405 0.51,-0.388C0.495,-0.37 0.476,-0.355 0.454,-0.343C0.432,-0.331 0.408,-0.321 0.38,-0.315C0.392,-0.308 0.403,-0.298 0.412,-0.285L0.621,-0Z" style="fill-rule:nonzero;"/>
                </g>
                <g transform="matrix(16,0,0,16,952.778,109.383)">
                    <path d="M0.754,-0.358C0.754,-0.304 0.745,-0.255 0.728,-0.21C0.711,-0.165 0.687,-0.127 0.656,-0.095C0.625,-0.062 0.588,-0.037 0.544,-0.019C0.501,-0.001 0.453,0.008 0.4,0.008C0.347,0.008 0.299,-0.001 0.256,-0.019C0.213,-0.037 0.175,-0.062 0.145,-0.095C0.114,-0.127 0.09,-0.165 0.073,-0.21C0.055,-0.255 0.047,-0.304 0.047,-0.358C0.047,-0.412 0.055,-0.461 0.073,-0.506C0.09,-0.551 0.114,-0.589 0.145,-0.622C0.175,-0.654 0.213,-0.68 0.256,-0.698C0.299,-0.716 0.347,-0.725 0.4,-0.725C0.453,-0.725 0.501,-0.716 0.544,-0.698C0.588,-0.68 0.625,-0.654 0.656,-0.622C0.687,-0.589 0.711,-0.551 0.728,-0.506C0.745,-0.461 0.754,-0.412 0.754,-0.358ZM0.654,-0.358C0.654,-0.402 0.648,-0.442 0.636,-0.477C0.624,-0.511 0.607,-0.541 0.585,-0.565C0.563,-0.589 0.536,-0.608 0.505,-0.621C0.474,-0.634 0.439,-0.641 0.4,-0.641C0.362,-0.641 0.327,-0.634 0.296,-0.621C0.264,-0.608 0.237,-0.589 0.215,-0.565C0.193,-0.541 0.176,-0.511 0.164,-0.477C0.152,-0.442 0.146,-0.402 0.146,-0.358C0.146,-0.314 0.152,-0.275 0.164,-0.24C0.176,-0.205 0.193,-0.175 0.215,-0.151C0.237,-0.127 0.264,-0.109 0.296,-0.096C0.327,-0.083 0.362,-0.077 0.4,-0.077C0.439,-0.077 0.474,-0.083 0.505,-0.096C0.536,-0.109 0.563,-0.127 0.585,-0.151C0.607,-0.175 0.624,-0.205 0.636,-0.24C0.648,-0.275 0.654,-0.314 0.654,-0.358Z" style="fill-rule:nonzero;"/>
                </g>
                <g transform="matrix(16,0,0,16,965.074,109.383)">
                    <path d="M0.576,-0.635L0.344,-0.635L0.344,-0L0.248,-0L0.248,-0.635L0.015,-0.635L0.015,-0.717L0.576,-0.717L0.576,-0.635Z" style="fill-rule:nonzero;"/>
                </g>
                <g transform="matrix(16,0,0,16,921.202,125.383)">
                    <path d="M0.303,-0.345C0.331,-0.345 0.355,-0.349 0.376,-0.356C0.397,-0.363 0.415,-0.374 0.43,-0.387C0.444,-0.4 0.455,-0.416 0.463,-0.434C0.47,-0.452 0.474,-0.472 0.474,-0.495C0.474,-0.54 0.459,-0.576 0.431,-0.602C0.403,-0.627 0.36,-0.64 0.303,-0.64L0.188,-0.64L0.188,-0.345L0.303,-0.345ZM0.303,-0.717C0.348,-0.717 0.388,-0.711 0.421,-0.701C0.455,-0.69 0.483,-0.675 0.505,-0.656C0.527,-0.637 0.543,-0.613 0.554,-0.586C0.565,-0.559 0.57,-0.528 0.57,-0.495C0.57,-0.461 0.564,-0.431 0.553,-0.403C0.541,-0.375 0.524,-0.352 0.501,-0.332C0.479,-0.312 0.451,-0.296 0.418,-0.285C0.385,-0.274 0.346,-0.268 0.303,-0.268L0.188,-0.268L0.188,-0L0.092,-0L0.092,-0.717L0.303,-0.717Z" style="fill-rule:nonzero;"/>
                </g>
                <g transform="matrix(16,0,0,16,930.81,125.383)">
                    <path d="M0.368,-0.077C0.398,-0.077 0.424,-0.082 0.448,-0.092C0.471,-0.102 0.491,-0.116 0.507,-0.134C0.523,-0.152 0.535,-0.173 0.544,-0.199C0.552,-0.224 0.557,-0.251 0.557,-0.281L0.557,-0.717L0.653,-0.717L0.653,-0.281C0.653,-0.24 0.646,-0.201 0.633,-0.166C0.62,-0.131 0.601,-0.1 0.577,-0.074C0.552,-0.048 0.522,-0.028 0.487,-0.014C0.452,0.001 0.412,0.009 0.368,0.009C0.324,0.009 0.284,0.001 0.249,-0.014C0.214,-0.028 0.184,-0.048 0.159,-0.074C0.134,-0.1 0.115,-0.131 0.102,-0.166C0.089,-0.201 0.083,-0.24 0.083,-0.281L0.083,-0.717L0.179,-0.717L0.179,-0.282C0.179,-0.252 0.183,-0.224 0.192,-0.199C0.2,-0.174 0.213,-0.153 0.229,-0.135C0.245,-0.117 0.265,-0.102 0.288,-0.092C0.312,-0.082 0.338,-0.077 0.368,-0.077Z" style="fill-rule:nonzero;"/>
                </g>
                <g transform="matrix(16,0,0,16,942.578,125.383)">
                    <path d="M0.458,-0.605C0.455,-0.6 0.452,-0.596 0.448,-0.593C0.445,-0.591 0.44,-0.59 0.436,-0.59C0.43,-0.59 0.423,-0.592 0.416,-0.598C0.408,-0.604 0.398,-0.61 0.387,-0.617C0.375,-0.624 0.361,-0.63 0.345,-0.636C0.329,-0.641 0.31,-0.644 0.287,-0.644C0.265,-0.644 0.246,-0.641 0.229,-0.635C0.213,-0.629 0.199,-0.622 0.188,-0.612C0.177,-0.602 0.168,-0.59 0.163,-0.576C0.157,-0.563 0.154,-0.548 0.154,-0.533C0.154,-0.513 0.159,-0.496 0.169,-0.483C0.179,-0.47 0.192,-0.458 0.208,-0.449C0.224,-0.44 0.242,-0.432 0.263,-0.425C0.283,-0.418 0.304,-0.411 0.326,-0.404C0.347,-0.396 0.368,-0.388 0.389,-0.379C0.409,-0.37 0.428,-0.358 0.444,-0.344C0.46,-0.33 0.473,-0.313 0.483,-0.293C0.493,-0.272 0.498,-0.247 0.498,-0.218C0.498,-0.186 0.492,-0.157 0.482,-0.129C0.471,-0.102 0.455,-0.078 0.435,-0.058C0.414,-0.037 0.389,-0.021 0.359,-0.01C0.329,0.002 0.296,0.008 0.258,0.008C0.211,0.008 0.169,-0 0.131,-0.017C0.092,-0.034 0.06,-0.057 0.033,-0.086L0.061,-0.132C0.064,-0.135 0.067,-0.138 0.071,-0.141C0.075,-0.143 0.079,-0.145 0.084,-0.145C0.088,-0.145 0.093,-0.143 0.098,-0.139C0.104,-0.136 0.11,-0.131 0.117,-0.126C0.124,-0.121 0.132,-0.115 0.141,-0.109C0.15,-0.102 0.16,-0.096 0.172,-0.091C0.183,-0.086 0.196,-0.081 0.211,-0.078C0.226,-0.074 0.242,-0.073 0.261,-0.073C0.284,-0.073 0.304,-0.076 0.322,-0.082C0.34,-0.088 0.355,-0.097 0.368,-0.109C0.38,-0.12 0.39,-0.134 0.397,-0.15C0.403,-0.166 0.407,-0.184 0.407,-0.204C0.407,-0.225 0.402,-0.243 0.392,-0.257C0.382,-0.271 0.369,-0.282 0.353,-0.292C0.337,-0.301 0.319,-0.309 0.298,-0.315C0.277,-0.322 0.256,-0.328 0.235,-0.335C0.214,-0.342 0.193,-0.35 0.172,-0.359C0.151,-0.368 0.133,-0.38 0.117,-0.394C0.101,-0.408 0.088,-0.426 0.078,-0.448C0.068,-0.469 0.064,-0.496 0.064,-0.528C0.064,-0.553 0.068,-0.577 0.078,-0.601C0.088,-0.625 0.102,-0.646 0.121,-0.664C0.14,-0.682 0.163,-0.697 0.191,-0.708C0.218,-0.719 0.25,-0.725 0.286,-0.725C0.326,-0.725 0.362,-0.718 0.395,-0.706C0.428,-0.693 0.456,-0.675 0.482,-0.651L0.458,-0.605Z" style="fill-rule:nonzero;"/>
                </g>
                <g transform="matrix(16,0,0,16,951.258,125.383)">
                    <path d="M0.672,-0.717L0.672,-0L0.575,-0L0.575,-0.326L0.189,-0.326L0.189,-0L0.092,-0L0.092,-0.717L0.189,-0.717L0.189,-0.397L0.575,-0.397L0.575,-0.717L0.672,-0.717Z" style="fill-rule:nonzero;"/>
                </g>
                <g transform="matrix(16,0,0,16,921.202,141.383)">
                    <path d="M0.754,-0.358C0.754,-0.304 0.745,-0.255 0.728,-0.21C0.711,-0.165 0.687,-0.127 0.656,-0.095C0.625,-0.062 0.588,-0.037 0.544,-0.019C0.501,-0.001 0.453,0.008 0.4,0.008C0.347,0.008 0.299,-0.001 0.256,-0.019C0.213,-0.037 0.175,-0.062 0.145,-0.095C0.114,-0.127 0.09,-0.165 0.073,-0.21C0.055,-0.255 0.047,-0.304 0.047,-0.358C0.047,-0.412 0.055,-0.461 0.073,-0.506C0.09,-0.551 0.114,-0.589 0.145,-0.622C0.175,-0.654 0.213,-0.68 0.256,-0.698C0.299,-0.716 0.347,-0.725 0.4,-0.725C0.453,-0.725 0.501,-0.716 0.544,-0.698C0.588,-0.68 0.625,-0.654 0.656,-0.622C0.687,-0.589 0.711,-0.551 0.728,-0.506C0.745,-0.461 0.754,-0.412 0.754,-0.358ZM0.654,-0.358C0.654,-0.402 0.648,-0.442 0.636,-0.477C0.624,-0.511 0.607,-0.541 0.585,-0.565C0.563,-0.589 0.536,-0.608 0.505,-0.621C0.474,-0.634 0.439,-0.641 0.4,-0.641C0.362,-0.641 0.327,-0.634 0.296,-0.621C0.264,-0.608 0.237,-0.589 0.215,-0.565C0.193,-0.541 0.176,-0.511 0.164,-0.477C0.152,-0.442 0.146,-0.402 0.146,-0.358C0.146,-0.314 0.152,-0.275 0.164,-0.24C0.176,-0.205 0.193,-0.175 0.215,-0.151C0.237,-0.127 0.264,-0.109 0.296,-0.096C0.327,-0.083 0.362,-0.077 0.4,-0.077C0.439,-0.077 0.474,-0.083 0.505,-0.096C0.536,-0.109 0.563,-0.127 0.585,-0.151C0.607,-0.175 0.624,-0.205 0.636,-0.24C0.648,-0.275 0.654,-0.314 0.654,-0.358Z" style="fill-rule:nonzero;"/>
                </g>
                <g transform="matrix(16,0,0,16,934.01,141.383)">
                    <path d="M0.303,-0.345C0.331,-0.345 0.355,-0.349 0.376,-0.356C0.397,-0.363 0.415,-0.374 0.43,-0.387C0.444,-0.4 0.455,-0.416 0.463,-0.434C0.47,-0.452 0.474,-0.472 0.474,-0.495C0.474,-0.54 0.459,-0.576 0.431,-0.602C0.403,-0.627 0.36,-0.64 0.303,-0.64L0.188,-0.64L0.188,-0.345L0.303,-0.345ZM0.303,-0.717C0.348,-0.717 0.388,-0.711 0.421,-0.701C0.455,-0.69 0.483,-0.675 0.505,-0.656C0.527,-0.637 0.543,-0.613 0.554,-0.586C0.565,-0.559 0.57,-0.528 0.57,-0.495C0.57,-0.461 0.564,-0.431 0.553,-0.403C0.541,-0.375 0.524,-0.352 0.501,-0.332C0.479,-0.312 0.451,-0.296 0.418,-0.285C0.385,-0.274 0.346,-0.268 0.303,-0.268L0.188,-0.268L0.188,-0L0.092,-0L0.092,-0.717L0.303,-0.717Z" style="fill-rule:nonzero;"/>
                </g>
                <g transform="matrix(16,0,0,16,943.618,141.383)">
                    <path d="M0.534,-0.079L0.533,-0L0.092,-0L0.092,-0.717L0.533,-0.717L0.533,-0.638L0.189,-0.638L0.189,-0.4L0.468,-0.4L0.468,-0.324L0.189,-0.324L0.189,-0.079L0.534,-0.079Z" style="fill-rule:nonzero;"/>
                </g>
                <g transform="matrix(16,0,0,16,952.858,141.383)">
                    <path d="M0.672,-0.717L0.672,-0L0.624,-0C0.616,-0 0.609,-0.001 0.604,-0.004C0.599,-0.007 0.594,-0.011 0.589,-0.018L0.175,-0.558C0.175,-0.549 0.176,-0.541 0.176,-0.533C0.176,-0.525 0.177,-0.518 0.177,-0.511L0.177,-0L0.092,-0L0.092,-0.717L0.142,-0.717C0.146,-0.717 0.15,-0.716 0.153,-0.716C0.156,-0.715 0.158,-0.714 0.161,-0.713C0.163,-0.712 0.165,-0.71 0.168,-0.708C0.17,-0.706 0.172,-0.703 0.175,-0.7L0.59,-0.161C0.589,-0.169 0.588,-0.178 0.588,-0.186C0.587,-0.194 0.587,-0.202 0.587,-0.209L0.587,-0.717L0.672,-0.717Z" style="fill-rule:nonzero;"/>
                </g>
            </g>
            <g transform="matrix(1,0,0,1,-167.696,-17.3358)">
                <g transform="matrix(16,0,0,16,921.202,109.383)">
                    <path d="M0.303,-0.345C0.331,-0.345 0.355,-0.349 0.376,-0.356C0.397,-0.363 0.415,-0.374 0.43,-0.387C0.444,-0.4 0.455,-0.416 0.463,-0.434C0.47,-0.452 0.474,-0.472 0.474,-0.495C0.474,-0.54 0.459,-0.576 0.431,-0.602C0.403,-0.627 0.36,-0.64 0.303,-0.64L0.188,-0.64L0.188,-0.345L0.303,-0.345ZM0.303,-0.717C0.348,-0.717 0.388,-0.711 0.421,-0.701C0.455,-0.69 0.483,-0.675 0.505,-0.656C0.527,-0.637 0.543,-0.613 0.554,-0.586C0.565,-0.559 0.57,-0.528 0.57,-0.495C0.57,-0.461 0.564,-0.431 0.553,-0.403C0.541,-0.375 0.524,-0.352 0.501,-0.332C0.479,-0.312 0.451,-0.296 0.418,-0.285C0.385,-0.274 0.346,-0.268 0.303,-0.268L0.188,-0.268L0.188,-0L0.092,-0L0.092,-0.717L0.303,-0.717Z" style="fill-rule:nonzero;"/>
                </g>
                <g transform="matrix(16,0,0,16,930.81,109.383)">
                    <path d="M0.29,-0.37C0.318,-0.37 0.343,-0.373 0.364,-0.38C0.386,-0.387 0.404,-0.396 0.418,-0.409C0.433,-0.421 0.444,-0.436 0.451,-0.454C0.458,-0.471 0.462,-0.49 0.462,-0.511C0.462,-0.554 0.448,-0.586 0.42,-0.608C0.392,-0.629 0.35,-0.64 0.294,-0.64L0.188,-0.64L0.188,-0.37L0.29,-0.37ZM0.621,-0L0.535,-0C0.517,-0 0.504,-0.007 0.496,-0.021L0.31,-0.277C0.304,-0.284 0.298,-0.29 0.292,-0.294C0.285,-0.297 0.275,-0.299 0.262,-0.299L0.188,-0.299L0.188,-0L0.092,-0L0.092,-0.717L0.294,-0.717C0.339,-0.717 0.379,-0.712 0.412,-0.703C0.445,-0.694 0.472,-0.68 0.493,-0.663C0.515,-0.646 0.531,-0.625 0.541,-0.6C0.551,-0.576 0.557,-0.548 0.557,-0.518C0.557,-0.493 0.553,-0.469 0.545,-0.447C0.537,-0.425 0.525,-0.405 0.51,-0.388C0.495,-0.37 0.476,-0.355 0.454,-0.343C0.432,-0.331 0.408,-0.321 0.38,-0.315C0.392,-0.308 0.403,-0.298 0.412,-0.285L0.621,-0Z" style="fill-rule:nonzero;"/>
                </g>
                <g transform="matrix(16,0,0,16,940.722,109.383)">
                    <path d="M0.754,-0.358C0.754,-0.304 0.745,-0.255 0.728,-0.21C0.711,-0.165 0.687,-0.127 0.656,-0.095C0.625,-0.062 0.588,-0.037 0.544,-0.019C0.501,-0.001 0.453,0.008 0.4,0.008C0.347,0.008 0.299,-0.001 0.256,-0.019C0.213,-0.037 0.175,-0.062 0.145,-0.095C0.114,-0.127 0.09,-0.165 0.073,-0.21C0.055,-0.255 0.047,-0.304 0.047,-0.358C0.047,-0.412 0.055,-0.461 0.073,-0.506C0.09,-0.551 0.114,-0.589 0.145,-0.622C0.175,-0.654 0.213,-0.68 0.256,-0.698C0.299,-0.716 0.347,-0.725 0.4,-0.725C0.453,-0.725 0.501,-0.716 0.544,-0.698C0.588,-0.68 0.625,-0.654 0.656,-0.622C0.687,-0.589 0.711,-0.551 0.728,-0.506C0.745,-0.461 0.754,-0.412 0.754,-0.358ZM0.654,-0.358C0.654,-0.402 0.648,-0.442 0.636,-0.477C0.624,-0.511 0.607,-0.541 0.585,-0.565C0.563,-0.589 0.536,-0.608 0.505,-0.621C0.474,-0.634 0.439,-0.641 0.4,-0.641C0.362,-0.641 0.327,-0.634 0.296,-0.621C0.264,-0.608 0.237,-0.589 0.215,-0.565C0.193,-0.541 0.176,-0.511 0.164,-0.477C0.152,-0.442 0.146,-0.402 0.146,-0.358C0.146,-0.314 0.152,-0.275 0.164,-0.24C0.176,-0.205 0.193,-0.175 0.215,-0.151C0.237,-0.127 0.264,-0.109 0.296,-0.096C0.327,-0.083 0.362,-0.077 0.4,-0.077C0.439,-0.077 0.474,-0.083 0.505,-0.096C0.536,-0.109 0.563,-0.127 0.585,-0.151C0.607,-0.175 0.624,-0.205 0.636,-0.24C0.648,-0.275 0.654,-0.314 0.654,-0.358Z" style="fill-rule:nonzero;"/>
                </g>
                <g transform="matrix(16,0,0,16,953.53,109.383)">
                    <path d="M0.303,-0.345C0.331,-0.345 0.355,-0.349 0.376,-0.356C0.397,-0.363 0.415,-0.374 0.43,-0.387C0.444,-0.4 0.455,-0.416 0.463,-0.434C0.47,-0.452 0.474,-0.472 0.474,-0.495C0.474,-0.54 0.459,-0.576 0.431,-0.602C0.403,-0.627 0.36,-0.64 0.303,-0.64L0.188,-0.64L0.188,-0.345L0.303,-0.345ZM0.303,-0.717C0.348,-0.717 0.388,-0.711 0.421,-0.701C0.455,-0.69 0.483,-0.675 0.505,-0.656C0.527,-0.637 0.543,-0.613 0.554,-0.586C0.565,-0.559 0.57,-0.528 0.57,-0.495C0.57,-0.461 0.564,-0.431 0.553,-0.403C0.541,-0.375 0.524,-0.352 0.501,-0.332C0.479,-0.312 0.451,-0.296 0.418,-0.285C0.385,-0.274 0.346,-0.268 0.303,-0.268L0.188,-0.268L0.188,-0L0.092,-0L0.092,-0.717L0.303,-0.717Z" style="fill-rule:nonzero;"/>
                </g>
                <g transform="matrix(16,0,0,16,921.202,125.383)">
                    <path d="M0.303,-0.345C0.331,-0.345 0.355,-0.349 0.376,-0.356C0.397,-0.363 0.415,-0.374 0.43,-0.387C0.444,-0.4 0.455,-0.416 0.463,-0.434C0.47,-0.452 0.474,-0.472 0.474,-0.495C0.474,-0.54 0.459,-0.576 0.431,-0.602C0.403,-0.627 0.36,-0.64 0.303,-0.64L0.188,-0.64L0.188,-0.345L0.303,-0.345ZM0.303,-0.717C0.348,-0.717 0.388,-0.711 0.421,-0.701C0.455,-0.69 0.483,-0.675 0.505,-0.656C0.527,-0.637 0.543,-0.613 0.554,-0.586C0.565,-0.559 0.57,-0.528 0.57,-0.495C0.57,-0.461 0.564,-0.431 0.553,-0.403C0.541,-0.375 0.524,-0.352 0.501,-0.332C0.479,-0.312 0.451,-0.296 0.418,-0.285C0.385,-0.274 0.346,-0.268 0.303,-0.268L0.188,-0.268L0.188,-0L0.092,-0L0.092,-0.717L0.303,-0.717Z" style="fill-rule:nonzero;"/>
                </g>
                <g transform="matrix(16,0,0,16,930.81,125.383)">
                    <path d="M0.368,-0.077C0.398,-0.077 0.424,-0.082 0.448,-0.092C0.471,-0.102 0.491,-0.116 0.507,-0.134C0.523,-0.152 0.535,-0.173 0.544,-0.199C0.552,-0.224 0.557,-0.251 0.557,-0.281L0.557,-0.717L0.653,-0.717L0.653,-0.281C0.653,-0.24 0.646,-0.201 0.633,-0.166C0.62,-0.131 0.601,-0.1 0.577,-0.074C0.552,-0.048 0.522,-0.028 0.487,-0.014C0.452,0.001 0.412,0.009 0.368,0.009C0.324,0.009 0.284,0.001 0.249,-0.014C0.214,-0.028 0.184,-0.048 0.159,-0.074C0.134,-0.1 0.115,-0.131 0.102,-0.166C0.089,-0.201 0.083,-0.24 0.083,-0.281L0.083,-0.717L0.179,-0.717L0.179,-0.282C0.179,-0.252 0.183,-0.224 0.192,-0.199C0.2,-0.174 0.213,-0.153 0.229,-0.135C0.245,-0.117 0.265,-0.102 0.288,-0.092C0.312,-0.082 0.338,-0.077 0.368,-0.077Z" style="fill-rule:nonzero;"/>
                </g>
                <g transform="matrix(16,0,0,16,942.578,125.383)">
                    <path d="M0.458,-0.605C0.455,-0.6 0.452,-0.596 0.448,-0.593C0.445,-0.591 0.44,-0.59 0.436,-0.59C0.43,-0.59 0.423,-0.592 0.416,-0.598C0.408,-0.604 0.398,-0.61 0.387,-0.617C0.375,-0.624 0.361,-0.63 0.345,-0.636C0.329,-0.641 0.31,-0.644 0.287,-0.644C0.265,-0.644 0.246,-0.641 0.229,-0.635C0.213,-0.629 0.199,-0.622 0.188,-0.612C0.177,-0.602 0.168,-0.59 0.163,-0.576C0.157,-0.563 0.154,-0.548 0.154,-0.533C0.154,-0.513 0.159,-0.496 0.169,-0.483C0.179,-0.47 0.192,-0.458 0.208,-0.449C0.224,-0.44 0.242,-0.432 0.263,-0.425C0.283,-0.418 0.304,-0.411 0.326,-0.404C0.347,-0.396 0.368,-0.388 0.389,-0.379C0.409,-0.37 0.428,-0.358 0.444,-0.344C0.46,-0.33 0.473,-0.313 0.483,-0.293C0.493,-0.272 0.498,-0.247 0.498,-0.218C0.498,-0.186 0.492,-0.157 0.482,-0.129C0.471,-0.102 0.455,-0.078 0.435,-0.058C0.414,-0.037 0.389,-0.021 0.359,-0.01C0.329,0.002 0.296,0.008 0.258,0.008C0.211,0.008 0.169,-0 0.131,-0.017C0.092,-0.034 0.06,-0.057 0.033,-0.086L0.061,-0.132C0.064,-0.135 0.067,-0.138 0.071,-0.141C0.075,-0.143 0.079,-0.145 0.084,-0.145C0.088,-0.145 0.093,-0.143 0.098,-0.139C0.104,-0.136 0.11,-0.131 0.117,-0.126C0.124,-0.121 0.132,-0.115 0.141,-0.109C0.15,-0.102 0.16,-0.096 0.172,-0.091C0.183,-0.086 0.196,-0.081 0.211,-0.078C0.226,-0.074 0.242,-0.073 0.261,-0.073C0.284,-0.073 0.304,-0.076 0.322,-0.082C0.34,-0.088 0.355,-0.097 0.368,-0.109C0.38,-0.12 0.39,-0.134 0.397,-0.15C0.403,-0.166 0.407,-0.184 0.407,-0.204C0.407,-0.225 0.402,-0.243 0.392,-0.257C0.382,-0.271 0.369,-0.282 0.353,-0.292C0.337,-0.301 0.319,-0.309 0.298,-0.315C0.277,-0.322 0.256,-0.328 0.235,-0.335C0.214,-0.342 0.193,-0.35 0.172,-0.359C0.151,-0.368 0.133,-0.38 0.117,-0.394C0.101,-0.408 0.088,-0.426 0.078,-0.448C0.068,-0.469 0.064,-0.496 0.064,-0.528C0.064,-0.553 0.068,-0.577 0.078,-0.601C0.088,-0.625 0.102,-0.646 0.121,-0.664C0.14,-0.682 0.163,-0.697 0.191,-0.708C0.218,-0.719 0.25,-0.725 0.286,-0.725C0.326,-0.725 0.362,-0.718 0.395,-0.706C0.428,-0.693 0.456,-0.675 0.482,-0.651L0.458,-0.605Z" style="fill-rule:nonzero;"/>
                </g>
                <g transform="matrix(16,0,0,16,951.258,125.383)">
                    <path d="M0.672,-0.717L0.672,-0L0.575,-0L0.575,-0.326L0.189,-0.326L0.189,-0L0.092,-0L0.092,-0.717L0.189,-0.717L0.189,-0.397L0.575,-0.397L0.575,-0.717L0.672,-0.717Z" style="fill-rule:nonzero;"/>
                </g>
                <g transform="matrix(16,0,0,16,921.202,141.383)">
                    <rect x="0.092" y="-0.717" width="0.097" height="0.717" style="fill-rule:nonzero;"/>
                </g>
                <g transform="matrix(16,0,0,16,925.682,141.383)">
                    <path d="M0.672,-0.717L0.672,-0L0.624,-0C0.616,-0 0.609,-0.001 0.604,-0.004C0.599,-0.007 0.594,-0.011 0.589,-0.018L0.175,-0.558C0.175,-0.549 0.176,-0.541 0.176,-0.533C0.176,-0.525 0.177,-0.518 0.177,-0.511L0.177,-0L0.092,-0L0.092,-0.717L0.142,-0.717C0.146,-0.717 0.15,-0.716 0.153,-0.716C0.156,-0.715 0.158,-0.714 0.161,-0.713C0.163,-0.712 0.165,-0.71 0.168,-0.708C0.17,-0.706 0.172,-0.703 0.175,-0.7L0.59,-0.161C0.589,-0.169 0.588,-0.178 0.588,-0.186C0.587,-0.194 0.587,-0.202 0.587,-0.209L0.587,-0.717L0.672,-0.717Z" style="fill-rule:nonzero;"/>
                </g>
                <g transform="matrix(16,0,0,16,937.898,141.383)">
                    <path d="M0.595,-0.148C0.6,-0.148 0.605,-0.146 0.609,-0.142L0.647,-0.1C0.618,-0.066 0.582,-0.04 0.54,-0.021C0.498,-0.002 0.448,0.008 0.389,0.008C0.337,0.008 0.291,-0.001 0.249,-0.019C0.206,-0.037 0.171,-0.062 0.141,-0.094C0.111,-0.126 0.088,-0.165 0.072,-0.21C0.056,-0.255 0.048,-0.304 0.048,-0.358C0.048,-0.412 0.056,-0.462 0.073,-0.507C0.09,-0.552 0.114,-0.59 0.145,-0.623C0.176,-0.655 0.213,-0.68 0.256,-0.698C0.299,-0.716 0.346,-0.725 0.398,-0.725C0.449,-0.725 0.494,-0.716 0.533,-0.7C0.572,-0.684 0.606,-0.662 0.636,-0.634L0.604,-0.589C0.602,-0.586 0.599,-0.583 0.596,-0.581C0.593,-0.579 0.589,-0.578 0.584,-0.578C0.578,-0.578 0.57,-0.581 0.562,-0.587C0.553,-0.594 0.542,-0.601 0.528,-0.609C0.514,-0.617 0.496,-0.624 0.475,-0.631C0.454,-0.637 0.428,-0.641 0.398,-0.641C0.361,-0.641 0.327,-0.634 0.296,-0.621C0.265,-0.608 0.239,-0.59 0.217,-0.566C0.195,-0.541 0.177,-0.511 0.165,-0.477C0.153,-0.442 0.147,-0.402 0.147,-0.358C0.147,-0.313 0.153,-0.274 0.166,-0.239C0.179,-0.204 0.196,-0.174 0.218,-0.15C0.24,-0.126 0.267,-0.107 0.297,-0.095C0.327,-0.082 0.36,-0.076 0.395,-0.076C0.416,-0.076 0.435,-0.077 0.452,-0.079C0.469,-0.082 0.485,-0.086 0.5,-0.091C0.514,-0.096 0.528,-0.103 0.54,-0.111C0.553,-0.119 0.565,-0.129 0.578,-0.141C0.583,-0.146 0.589,-0.148 0.595,-0.148Z" style="fill-rule:nonzero;"/>
                </g>
                <g transform="matrix(16,0,0,16,921.202,157.383)">
                    <path d="M0.29,-0.37C0.318,-0.37 0.343,-0.373 0.364,-0.38C0.386,-0.387 0.404,-0.396 0.418,-0.409C0.433,-0.421 0.444,-0.436 0.451,-0.454C0.458,-0.471 0.462,-0.49 0.462,-0.511C0.462,-0.554 0.448,-0.586 0.42,-0.608C0.392,-0.629 0.35,-0.64 0.294,-0.64L0.188,-0.64L0.188,-0.37L0.29,-0.37ZM0.621,-0L0.535,-0C0.517,-0 0.504,-0.007 0.496,-0.021L0.31,-0.277C0.304,-0.284 0.298,-0.29 0.292,-0.294C0.285,-0.297 0.275,-0.299 0.262,-0.299L0.188,-0.299L0.188,-0L0.092,-0L0.092,-0.717L0.294,-0.717C0.339,-0.717 0.379,-0.712 0.412,-0.703C0.445,-0.694 0.472,-0.68 0.493,-0.663C0.515,-0.646 0.531,-0.625 0.541,-0.6C0.551,-0.576 0.557,-0.548 0.557,-0.518C0.557,-0.493 0.553,-0.469 0.545,-0.447C0.537,-0.425 0.525,-0.405 0.51,-0.388C0.495,-0.37 0.476,-0.355 0.454,-0.343C0.432,-0.331 0.408,-0.321 0.38,-0.315C0.392,-0.308 0.403,-0.298 0.412,-0.285L0.621,-0Z" style="fill-rule:nonzero;"/>
                </g>
                <g transform="matrix(16,0,0,16,931.226,157.383)">
                    <path d="M0.303,-0.345C0.331,-0.345 0.355,-0.349 0.376,-0.356C0.397,-0.363 0.415,-0.374 0.43,-0.387C0.444,-0.4 0.455,-0.416 0.463,-0.434C0.47,-0.452 0.474,-0.472 0.474,-0.495C0.474,-0.54 0.459,-0.576 0.431,-0.602C0.403,-0.627 0.36,-0.64 0.303,-0.64L0.188,-0.64L0.188,-0.345L0.303,-0.345ZM0.303,-0.717C0.348,-0.717 0.388,-0.711 0.421,-0.701C0.455,-0.69 0.483,-0.675 0.505,-0.656C0.527,-0.637 0.543,-0.613 0.554,-0.586C0.565,-0.559 0.57,-0.528 0.57,-0.495C0.57,-0.461 0.564,-0.431 0.553,-0.403C0.541,-0.375 0.524,-0.352 0.501,-0.332C0.479,-0.312 0.451,-0.296 0.418,-0.285C0.385,-0.274 0.346,-0.268 0.303,-0.268L0.188,-0.268L0.188,-0L0.092,-0L0.092,-0.717L0.303,-0.717Z" style="fill-rule:nonzero;"/>
                </g>
                <g transform="matrix(16,0,0,16,940.834,157.383)">
                    <path d="M0.837,-0.717L0.837,-0L0.752,-0L0.752,-0.527C0.752,-0.534 0.752,-0.541 0.753,-0.549C0.753,-0.557 0.754,-0.565 0.755,-0.574L0.509,-0.126C0.501,-0.111 0.489,-0.103 0.474,-0.103L0.46,-0.103C0.444,-0.103 0.432,-0.111 0.425,-0.126L0.174,-0.576C0.175,-0.558 0.177,-0.542 0.177,-0.527L0.177,-0L0.092,-0L0.092,-0.717L0.163,-0.717C0.172,-0.717 0.178,-0.716 0.183,-0.714C0.188,-0.712 0.192,-0.708 0.197,-0.7L0.444,-0.259C0.448,-0.251 0.452,-0.243 0.456,-0.234C0.46,-0.225 0.463,-0.217 0.467,-0.208C0.47,-0.217 0.473,-0.225 0.477,-0.234C0.481,-0.243 0.485,-0.252 0.489,-0.26L0.732,-0.7C0.736,-0.708 0.74,-0.712 0.745,-0.714C0.75,-0.716 0.757,-0.717 0.766,-0.717L0.837,-0.717Z" style="fill-rule:nonzero;"/>
                </g>
            </g>
            <g transform="matrix(1,0,0,1,-276.968,103.972)">
                <g transform="matrix(16,0,0,16,921.202,109.383)">
                    <path d="M0.472,-0.266L0.36,-0.558C0.356,-0.566 0.353,-0.576 0.349,-0.588C0.345,-0.599 0.342,-0.612 0.339,-0.625C0.332,-0.598 0.324,-0.575 0.317,-0.557L0.205,-0.266L0.472,-0.266ZM0.674,-0L0.599,-0C0.59,-0 0.583,-0.002 0.578,-0.007C0.573,-0.011 0.569,-0.016 0.566,-0.023L0.499,-0.196L0.178,-0.196L0.111,-0.023C0.109,-0.017 0.105,-0.012 0.099,-0.007C0.093,-0.002 0.086,-0 0.078,-0L0.003,-0L0.29,-0.717L0.388,-0.717L0.674,-0Z" style="fill-rule:nonzero;"/>
                </g>
                <g transform="matrix(16,0,0,16,932.034,109.383)">
                    <path d="M0.498,-0.082L0.498,-0L0.092,-0L0.092,-0.717L0.188,-0.717L0.188,-0.082L0.498,-0.082Z" style="fill-rule:nonzero;"/>
                </g>
                <g transform="matrix(16,0,0,16,938.746,109.383)">
                    <path d="M0.576,-0.635L0.344,-0.635L0.344,-0L0.248,-0L0.248,-0.635L0.015,-0.635L0.015,-0.717L0.576,-0.717L0.576,-0.635Z" style="fill-rule:nonzero;"/>
                </g>
                <g transform="matrix(16,0,0,16,951.81,109.383)">
                    <path d="M0.458,-0.605C0.455,-0.6 0.452,-0.596 0.448,-0.593C0.445,-0.591 0.44,-0.59 0.436,-0.59C0.43,-0.59 0.423,-0.592 0.416,-0.598C0.408,-0.604 0.398,-0.61 0.387,-0.617C0.375,-0.624 0.361,-0.63 0.345,-0.636C0.329,-0.641 0.31,-0.644 0.287,-0.644C0.265,-0.644 0.246,-0.641 0.229,-0.635C0.213,-0.629 0.199,-0.622 0.188,-0.612C0.177,-0.602 0.168,-0.59 0.163,-0.576C0.157,-0.563 0.154,-0.548 0.154,-0.533C0.154,-0.513 0.159,-0.496 0.169,-0.483C0.179,-0.47 0.192,-0.458 0.208,-0.449C0.224,-0.44 0.242,-0.432 0.263,-0.425C0.283,-0.418 0.304,-0.411 0.326,-0.404C0.347,-0.396 0.368,-0.388 0.389,-0.379C0.409,-0.37 0.428,-0.358 0.444,-0.344C0.46,-0.33 0.473,-0.313 0.483,-0.293C0.493,-0.272 0.498,-0.247 0.498,-0.218C0.498,-0.186 0.492,-0.157 0.482,-0.129C0.471,-0.102 0.455,-0.078 0.435,-0.058C0.414,-0.037 0.389,-0.021 0.359,-0.01C0.329,0.002 0.296,0.008 0.258,0.008C0.211,0.008 0.169,-0 0.131,-0.017C0.092,-0.034 0.06,-0.057 0.033,-0.086L0.061,-0.132C0.064,-0.135 0.067,-0.138 0.071,-0.141C0.075,-0.143 0.079,-0.145 0.084,-0.145C0.088,-0.145 0.093,-0.143 0.098,-0.139C0.104,-0.136 0.11,-0.131 0.117,-0.126C0.124,-0.121 0.132,-0.115 0.141,-0.109C0.15,-0.102 0.16,-0.096 0.172,-0.091C0.183,-0.086 0.196,-0.081 0.211,-0.078C0.226,-0.074 0.242,-0.073 0.261,-0.073C0.284,-0.073 0.304,-0.076 0.322,-0.082C0.34,-0.088 0.355,-0.097 0.368,-0.109C0.38,-0.12 0.39,-0.134 0.397,-0.15C0.403,-0.166 0.407,-0.184 0.407,-0.204C0.407,-0.225 0.402,-0.243 0.392,-0.257C0.382,-0.271 0.369,-0.282 0.353,-0.292C0.337,-0.301 0.319,-0.309 0.298,-0.315C0.277,-0.322 0.256,-0.328 0.235,-0.335C0.214,-0.342 0.193,-0.35 0.172,-0.359C0.151,-0.368 0.133,-0.38 0.117,-0.394C0.101,-0.408 0.088,-0.426 0.078,-0.448C0.068,-0.469 0.064,-0.496 0.064,-0.528C0.064,-0.553 0.068,-0.577 0.078,-0.601C0.088,-0.625 0.102,-0.646 0.121,-0.664C0.14,-0.682 0.163,-0.697 0.191,-0.708C0.218,-0.719 0.25,-0.725 0.286,-0.725C0.326,-0.725 0.362,-0.718 0.395,-0.706C0.428,-0.693 0.456,-0.675 0.482,-0.651L0.458,-0.605Z" style="fill-rule:nonzero;"/>
                </g>
                <g transform="matrix(16,0,0,16,960.49,109.383)">
                    <path d="M0.576,-0.635L0.344,-0.635L0.344,-0L0.248,-0L0.248,-0.635L0.015,-0.635L0.015,-0.717L0.576,-0.717L0.576,-0.635Z" style="fill-rule:nonzero;"/>
                </g>
                <g transform="matrix(16,0,0,16,968.818,109.383)">
                    <path d="M0.472,-0.266L0.36,-0.558C0.356,-0.566 0.353,-0.576 0.349,-0.588C0.345,-0.599 0.342,-0.612 0.339,-0.625C0.332,-0.598 0.324,-0.575 0.317,-0.557L0.205,-0.266L0.472,-0.266ZM0.674,-0L0.599,-0C0.59,-0 0.583,-0.002 0.578,-0.007C0.573,-0.011 0.569,-0.016 0.566,-0.023L0.499,-0.196L0.178,-0.196L0.111,-0.023C0.109,-0.017 0.105,-0.012 0.099,-0.007C0.093,-0.002 0.086,-0 0.078,-0L0.003,-0L0.29,-0.717L0.388,-0.717L0.674,-0Z" style="fill-rule:nonzero;"/>
                </g>
                <g transform="matrix(16,0,0,16,978.522,109.383)">
                    <path d="M0.576,-0.635L0.344,-0.635L0.344,-0L0.248,-0L0.248,-0.635L0.015,-0.635L0.015,-0.717L0.576,-0.717L0.576,-0.635Z" style="fill-rule:nonzero;"/>
                </g>
                <g transform="matrix(16,0,0,16,987.97,109.383)">
                    <rect x="0.092" y="-0.717" width="0.097" height="0.717" style="fill-rule:nonzero;"/>
                </g>
                <g transform="matrix(16,0,0,16,992.45,109.383)">
                    <path d="M0.595,-0.148C0.6,-0.148 0.605,-0.146 0.609,-0.142L0.647,-0.1C0.618,-0.066 0.582,-0.04 0.54,-0.021C0.498,-0.002 0.448,0.008 0.389,0.008C0.337,0.008 0.291,-0.001 0.249,-0.019C0.206,-0.037 0.171,-0.062 0.141,-0.094C0.111,-0.126 0.088,-0.165 0.072,-0.21C0.056,-0.255 0.048,-0.304 0.048,-0.358C0.048,-0.412 0.056,-0.462 0.073,-0.507C0.09,-0.552 0.114,-0.59 0.145,-0.623C0.176,-0.655 0.213,-0.68 0.256,-0.698C0.299,-0.716 0.346,-0.725 0.398,-0.725C0.449,-0.725 0.494,-0.716 0.533,-0.7C0.572,-0.684 0.606,-0.662 0.636,-0.634L0.604,-0.589C0.602,-0.586 0.599,-0.583 0.596,-0.581C0.593,-0.579 0.589,-0.578 0.584,-0.578C0.578,-0.578 0.57,-0.581 0.562,-0.587C0.553,-0.594 0.542,-0.601 0.528,-0.609C0.514,-0.617 0.496,-0.624 0.475,-0.631C0.454,-0.637 0.428,-0.641 0.398,-0.641C0.361,-0.641 0.327,-0.634 0.296,-0.621C0.265,-0.608 0.239,-0.59 0.217,-0.566C0.195,-0.541 0.177,-0.511 0.165,-0.477C0.153,-0.442 0.147,-0.402 0.147,-0.358C0.147,-0.313 0.153,-0.274 0.166,-0.239C0.179,-0.204 0.196,-0.174 0.218,-0.15C0.24,-0.126 0.267,-0.107 0.297,-0.095C0.327,-0.082 0.36,-0.076 0.395,-0.076C0.416,-0.076 0.435,-0.077 0.452,-0.079C0.469,-0.082 0.485,-0.086 0.5,-0.091C0.514,-0.096 0.528,-0.103 0.54,-0.111C0.553,-0.119 0.565,-0.129 0.578,-0.141C0.583,-0.146 0.589,-0.148 0.595,-0.148Z" style="fill-rule:nonzero;"/>
                </g>
                <g transform="matrix(16,0,0,16,921.202,125.383)">
                    <path d="M0.472,-0.266L0.36,-0.558C0.356,-0.566 0.353,-0.576 0.349,-0.588C0.345,-0.599 0.342,-0.612 0.339,-0.625C0.332,-0.598 0.324,-0.575 0.317,-0.557L0.205,-0.266L0.472,-0.266ZM0.674,-0L0.599,-0C0.59,-0 0.583,-0.002 0.578,-0.007C0.573,-0.011 0.569,-0.016 0.566,-0.023L0.499,-0.196L0.178,-0.196L0.111,-0.023C0.109,-0.017 0.105,-0.012 0.099,-0.007C0.093,-0.002 0.086,-0 0.078,-0L0.003,-0L0.29,-0.717L0.388,-0.717L0.674,-0Z" style="fill-rule:nonzero;"/>
                </g>
                <g transform="matrix(16,0,0,16,932.034,125.383)">
                    <rect x="0.092" y="-0.717" width="0.097" height="0.717" style="fill-rule:nonzero;"/>
                </g>
                <g transform="matrix(16,0,0,16,936.514,125.383)">
                    <path d="M0.29,-0.37C0.318,-0.37 0.343,-0.373 0.364,-0.38C0.386,-0.387 0.404,-0.396 0.418,-0.409C0.433,-0.421 0.444,-0.436 0.451,-0.454C0.458,-0.471 0.462,-0.49 0.462,-0.511C0.462,-0.554 0.448,-0.586 0.42,-0.608C0.392,-0.629 0.35,-0.64 0.294,-0.64L0.188,-0.64L0.188,-0.37L0.29,-0.37ZM0.621,-0L0.535,-0C0.517,-0 0.504,-0.007 0.496,-0.021L0.31,-0.277C0.304,-0.284 0.298,-0.29 0.292,-0.294C0.285,-0.297 0.275,-0.299 0.262,-0.299L0.188,-0.299L0.188,-0L0.092,-0L0.092,-0.717L0.294,-0.717C0.339,-0.717 0.379,-0.712 0.412,-0.703C0.445,-0.694 0.472,-0.68 0.493,-0.663C0.515,-0.646 0.531,-0.625 0.541,-0.6C0.551,-0.576 0.557,-0.548 0.557,-0.518C0.557,-0.493 0.553,-0.469 0.545,-0.447C0.537,-0.425 0.525,-0.405 0.51,-0.388C0.495,-0.37 0.476,-0.355 0.454,-0.343C0.432,-0.331 0.408,-0.321 0.38,-0.315C0.392,-0.308 0.403,-0.298 0.412,-0.285L0.621,-0Z" style="fill-rule:nonzero;"/>
                </g>
                <g transform="matrix(16,0,0,16,950.634,125.383)">
                    <path d="M0.303,-0.345C0.331,-0.345 0.355,-0.349 0.376,-0.356C0.397,-0.363 0.415,-0.374 0.43,-0.387C0.444,-0.4 0.455,-0.416 0.463,-0.434C0.47,-0.452 0.474,-0.472 0.474,-0.495C0.474,-0.54 0.459,-0.576 0.431,-0.602C0.403,-0.627 0.36,-0.64 0.303,-0.64L0.188,-0.64L0.188,-0.345L0.303,-0.345ZM0.303,-0.717C0.348,-0.717 0.388,-0.711 0.421,-0.701C0.455,-0.69 0.483,-0.675 0.505,-0.656C0.527,-0.637 0.543,-0.613 0.554,-0.586C0.565,-0.559 0.57,-0.528 0.57,-0.495C0.57,-0.461 0.564,-0.431 0.553,-0.403C0.541,-0.375 0.524,-0.352 0.501,-0.332C0.479,-0.312 0.451,-0.296 0.418,-0.285C0.385,-0.274 0.346,-0.268 0.303,-0.268L0.188,-0.268L0.188,-0L0.092,-0L0.092,-0.717L0.303,-0.717Z" style="fill-rule:nonzero;"/>
                </g>
                <g transform="matrix(16,0,0,16,960.242,125.383)">
                    <path d="M0.368,-0.077C0.398,-0.077 0.424,-0.082 0.448,-0.092C0.471,-0.102 0.491,-0.116 0.507,-0.134C0.523,-0.152 0.535,-0.173 0.544,-0.199C0.552,-0.224 0.557,-0.251 0.557,-0.281L0.557,-0.717L0.653,-0.717L0.653,-0.281C0.653,-0.24 0.646,-0.201 0.633,-0.166C0.62,-0.131 0.601,-0.1 0.577,-0.074C0.552,-0.048 0.522,-0.028 0.487,-0.014C0.452,0.001 0.412,0.009 0.368,0.009C0.324,0.009 0.284,0.001 0.249,-0.014C0.214,-0.028 0.184,-0.048 0.159,-0.074C0.134,-0.1 0.115,-0.131 0.102,-0.166C0.089,-0.201 0.083,-0.24 0.083,-0.281L0.083,-0.717L0.179,-0.717L0.179,-0.282C0.179,-0.252 0.183,-0.224 0.192,-0.199C0.2,-0.174 0.213,-0.153 0.229,-0.135C0.245,-0.117 0.265,-0.102 0.288,-0.092C0.312,-0.082 0.338,-0.077 0.368,-0.077Z" style="fill-rule:nonzero;"/>
                </g>
                <g transform="matrix(16,0,0,16,972.01,125.383)">
                    <path d="M0.498,-0.082L0.498,-0L0.092,-0L0.092,-0.717L0.188,-0.717L0.188,-0.082L0.498,-0.082Z" style="fill-rule:nonzero;"/>
                </g>
                <g transform="matrix(16,0,0,16,980.226,125.383)">
                    <path d="M0.498,-0.082L0.498,-0L0.092,-0L0.092,-0.717L0.188,-0.717L0.188,-0.082L0.498,-0.082Z" style="fill-rule:nonzero;"/>
                </g>
                <g transform="matrix(16,0,0,16,992.058,125.383)">
                    <path d="M0.754,-0.358C0.754,-0.304 0.745,-0.255 0.728,-0.21C0.711,-0.165 0.687,-0.127 0.656,-0.095C0.625,-0.062 0.588,-0.037 0.544,-0.019C0.501,-0.001 0.453,0.008 0.4,0.008C0.347,0.008 0.299,-0.001 0.256,-0.019C0.213,-0.037 0.175,-0.062 0.145,-0.095C0.114,-0.127 0.09,-0.165 0.073,-0.21C0.055,-0.255 0.047,-0.304 0.047,-0.358C0.047,-0.412 0.055,-0.461 0.073,-0.506C0.09,-0.551 0.114,-0.589 0.145,-0.622C0.175,-0.654 0.213,-0.68 0.256,-0.698C0.299,-0.716 0.347,-0.725 0.4,-0.725C0.453,-0.725 0.501,-0.716 0.544,-0.698C0.588,-0.68 0.625,-0.654 0.656,-0.622C0.687,-0.589 0.711,-0.551 0.728,-0.506C0.745,-0.461 0.754,-0.412 0.754,-0.358ZM0.654,-0.358C0.654,-0.402 0.648,-0.442 0.636,-0.477C0.624,-0.511 0.607,-0.541 0.585,-0.565C0.563,-0.589 0.536,-0.608 0.505,-0.621C0.474,-0.634 0.439,-0.641 0.4,-0.641C0.362,-0.641 0.327,-0.634 0.296,-0.621C0.264,-0.608 0.237,-0.589 0.215,-0.565C0.193,-0.541 0.176,-0.511 0.164,-0.477C0.152,-0.442 0.146,-0.402 0.146,-0.358C0.146,-0.314 0.152,-0.275 0.164,-0.24C0.176,-0.205 0.193,-0.175 0.215,-0.151C0.237,-0.127 0.264,-0.109 0.296,-0.096C0.327,-0.083 0.362,-0.077 0.4,-0.077C0.439,-0.077 0.474,-0.083 0.505,-0.096C0.536,-0.109 0.563,-0.127 0.585,-0.151C0.607,-0.175 0.624,-0.205 0.636,-0.24C0.648,-0.275 0.654,-0.314 0.654,-0.358Z" style="fill-rule:nonzero;"/>
                </g>
                <g transform="matrix(16,0,0,16,1004.87,125.383)">
                    <path d="M0.672,-0.717L0.672,-0L0.624,-0C0.616,-0 0.609,-0.001 0.604,-0.004C0.599,-0.007 0.594,-0.011 0.589,-0.018L0.175,-0.558C0.175,-0.549 0.176,-0.541 0.176,-0.533C0.176,-0.525 0.177,-0.518 0.177,-0.511L0.177,-0L0.092,-0L0.092,-0.717L0.142,-0.717C0.146,-0.717 0.15,-0.716 0.153,-0.716C0.156,-0.715 0.158,-0.714 0.161,-0.713C0.163,-0.712 0.165,-0.71 0.168,-0.708C0.17,-0.706 0.172,-0.703 0.175,-0.7L0.59,-0.161C0.589,-0.169 0.588,-0.178 0.588,-0.186C0.587,-0.194 0.587,-0.202 0.587,-0.209L0.587,-0.717L0.672,-0.717Z" style="fill-rule:nonzero;"/>
                </g>
            </g>
            <g transform="matrix(1,0,0,1,-24.4488,-9.39984)">
                <g transform="matrix(16,0,0,16,921.202,109.383)">
                    <path d="M0.837,-0.717L0.837,-0L0.752,-0L0.752,-0.527C0.752,-0.534 0.752,-0.541 0.753,-0.549C0.753,-0.557 0.754,-0.565 0.755,-0.574L0.509,-0.126C0.501,-0.111 0.489,-0.103 0.474,-0.103L0.46,-0.103C0.444,-0.103 0.432,-0.111 0.425,-0.126L0.174,-0.576C0.175,-0.558 0.177,-0.542 0.177,-0.527L0.177,-0L0.092,-0L0.092,-0.717L0.163,-0.717C0.172,-0.717 0.178,-0.716 0.183,-0.714C0.188,-0.712 0.192,-0.708 0.197,-0.7L0.444,-0.259C0.448,-0.251 0.452,-0.243 0.456,-0.234C0.46,-0.225 0.463,-0.217 0.467,-0.208C0.47,-0.217 0.473,-0.225 0.477,-0.234C0.481,-0.243 0.485,-0.252 0.489,-0.26L0.732,-0.7C0.736,-0.708 0.74,-0.712 0.745,-0.714C0.75,-0.716 0.757,-0.717 0.766,-0.717L0.837,-0.717Z" style="fill-rule:nonzero;"/>
                </g>
                <g transform="matrix(16,0,0,16,936.058,109.383)">
                    <rect x="0.092" y="-0.717" width="0.097" height="0.717" style="fill-rule:nonzero;"/>
                </g>
                <g transform="matrix(16,0,0,16,940.538,109.383)">
                    <path d="M0.638,-0L0.542,-0C0.535,-0 0.529,-0.002 0.525,-0.006C0.521,-0.01 0.517,-0.014 0.515,-0.019L0.323,-0.32C0.32,-0.312 0.317,-0.305 0.314,-0.299L0.127,-0.019C0.123,-0.014 0.12,-0.01 0.116,-0.006C0.112,-0.002 0.107,-0 0.1,-0L0.01,-0L0.257,-0.368L0.02,-0.717L0.117,-0.717C0.124,-0.717 0.129,-0.715 0.132,-0.713C0.135,-0.711 0.138,-0.707 0.141,-0.703L0.328,-0.416C0.33,-0.423 0.334,-0.431 0.339,-0.439L0.515,-0.701C0.518,-0.706 0.521,-0.709 0.525,-0.712C0.528,-0.715 0.533,-0.717 0.538,-0.717L0.63,-0.717L0.393,-0.373L0.638,-0Z" style="fill-rule:nonzero;"/>
                </g>
                <g transform="matrix(16,0,0,16,921.202,125.383)">
                    <path d="M0.303,-0.345C0.331,-0.345 0.355,-0.349 0.376,-0.356C0.397,-0.363 0.415,-0.374 0.43,-0.387C0.444,-0.4 0.455,-0.416 0.463,-0.434C0.47,-0.452 0.474,-0.472 0.474,-0.495C0.474,-0.54 0.459,-0.576 0.431,-0.602C0.403,-0.627 0.36,-0.64 0.303,-0.64L0.188,-0.64L0.188,-0.345L0.303,-0.345ZM0.303,-0.717C0.348,-0.717 0.388,-0.711 0.421,-0.701C0.455,-0.69 0.483,-0.675 0.505,-0.656C0.527,-0.637 0.543,-0.613 0.554,-0.586C0.565,-0.559 0.57,-0.528 0.57,-0.495C0.57,-0.461 0.564,-0.431 0.553,-0.403C0.541,-0.375 0.524,-0.352 0.501,-0.332C0.479,-0.312 0.451,-0.296 0.418,-0.285C0.385,-0.274 0.346,-0.268 0.303,-0.268L0.188,-0.268L0.188,-0L0.092,-0L0.092,-0.717L0.303,-0.717Z" style="fill-rule:nonzero;"/>
                </g>
                <g transform="matrix(16,0,0,16,930.81,125.383)">
                    <path d="M0.368,-0.077C0.398,-0.077 0.424,-0.082 0.448,-0.092C0.471,-0.102 0.491,-0.116 0.507,-0.134C0.523,-0.152 0.535,-0.173 0.544,-0.199C0.552,-0.224 0.557,-0.251 0.557,-0.281L0.557,-0.717L0.653,-0.717L0.653,-0.281C0.653,-0.24 0.646,-0.201 0.633,-0.166C0.62,-0.131 0.601,-0.1 0.577,-0.074C0.552,-0.048 0.522,-0.028 0.487,-0.014C0.452,0.001 0.412,0.009 0.368,0.009C0.324,0.009 0.284,0.001 0.249,-0.014C0.214,-0.028 0.184,-0.048 0.159,-0.074C0.134,-0.1 0.115,-0.131 0.102,-0.166C0.089,-0.201 0.083,-0.24 0.083,-0.281L0.083,-0.717L0.179,-0.717L0.179,-0.282C0.179,-0.252 0.183,-0.224 0.192,-0.199C0.2,-0.174 0.213,-0.153 0.229,-0.135C0.245,-0.117 0.265,-0.102 0.288,-0.092C0.312,-0.082 0.338,-0.077 0.368,-0.077Z" style="fill-rule:nonzero;"/>
                </g>
                <g transform="matrix(16,0,0,16,942.578,125.383)">
                    <path d="M0.498,-0.082L0.498,-0L0.092,-0L0.092,-0.717L0.188,-0.717L0.188,-0.082L0.498,-0.082Z" style="fill-rule:nonzero;"/>
                </g>
                <g transform="matrix(16,0,0,16,950.794,125.383)">
                    <path d="M0.498,-0.082L0.498,-0L0.092,-0L0.092,-0.717L0.188,-0.717L0.188,-0.082L0.498,-0.082Z" style="fill-rule:nonzero;"/>
                </g>
                <g transform="matrix(16,0,0,16,921.202,141.383)">
                    <path d="M0.498,-0.082L0.498,-0L0.092,-0L0.092,-0.717L0.188,-0.717L0.188,-0.082L0.498,-0.082Z" style="fill-rule:nonzero;"/>
                </g>
                <g transform="matrix(16,0,0,16,929.418,141.383)">
                    <path d="M0.534,-0.079L0.533,-0L0.092,-0L0.092,-0.717L0.533,-0.717L0.533,-0.638L0.189,-0.638L0.189,-0.4L0.468,-0.4L0.468,-0.324L0.189,-0.324L0.189,-0.079L0.534,-0.079Z" style="fill-rule:nonzero;"/>
                </g>
                <g transform="matrix(16,0,0,16,938.658,141.383)">
                    <path d="M0.472,-0.266L0.36,-0.558C0.356,-0.566 0.353,-0.576 0.349,-0.588C0.345,-0.599 0.342,-0.612 0.339,-0.625C0.332,-0.598 0.324,-0.575 0.317,-0.557L0.205,-0.266L0.472,-0.266ZM0.674,-0L0.599,-0C0.59,-0 0.583,-0.002 0.578,-0.007C0.573,-0.011 0.569,-0.016 0.566,-0.023L0.499,-0.196L0.178,-0.196L0.111,-0.023C0.109,-0.017 0.105,-0.012 0.099,-0.007C0.093,-0.002 0.086,-0 0.078,-0L0.003,-0L0.29,-0.717L0.388,-0.717L0.674,-0Z" style="fill-rule:nonzero;"/>
                </g>
                <g transform="matrix(16,0,0,16,949.49,141.383)">
                    <path d="M0.672,-0.717L0.672,-0L0.624,-0C0.616,-0 0.609,-0.001 0.604,-0.004C0.599,-0.007 0.594,-0.011 0.589,-0.018L0.175,-0.558C0.175,-0.549 0.176,-0.541 0.176,-0.533C0.176,-0.525 0.177,-0.518 0.177,-0.511L0.177,-0L0.092,-0L0.092,-0.717L0.142,-0.717C0.146,-0.717 0.15,-0.716 0.153,-0.716C0.156,-0.715 0.158,-0.714 0.161,-0.713C0.163,-0.712 0.165,-0.71 0.168,-0.708C0.17,-0.706 0.172,-0.703 0.175,-0.7L0.59,-0.161C0.589,-0.169 0.588,-0.178 0.588,-0.186C0.587,-0.194 0.587,-0.202 0.587,-0.209L0.587,-0.717L0.672,-0.717Z" style="fill-rule:nonzero;"/>
                </g>
            </g>
        </g>
    </g>
</svg>
