<?xml version="1.0" standalone="no"?>
<!DOCTYPE svg PUBLIC "-//W3C//DTD SVG 1.1//EN"
  "http://www.w3.org/Graphics/SVG/1.1/DTD/svg11.dtd">
<svg width="443.3299865722656mm" height="141.6999969482422mm" viewBox="-221.6649932861328 -70.8499984741211 443.3299865722656 141.6999969482422" xmlns="http://www.w3.org/2000/svg" version="1.1">
	<title>svgOutput</title>
	<desc>made with tinkercad</desc>
<path d="M 220.6649932861328 31.75 L 219.0525665283203 31.75 L 212.99200439453125 31.75 L 196.60800170898438 31.75 L 159.25 31.75 L 157.8280029296875 31.829999923706055 L 156.4239959716797 32.06800079345703 L 155.05499267578125 32.4630012512207 L 153.73899841308594 33.007999420166016 L 152.4929962158203 33.696998596191406 L 151.33099365234375 34.520999908447266 L 150.2689971923828 35.470001220703125 L 131.07200622558594 54.66699981689453 L 119.60900115966797 66.12999725341797 L 118.5469970703125 67.0790023803711 L 117.38500213623047 67.90299987792969 L 116.13899993896484 68.59200286865234 L 114.822998046875 69.13700103759766 L 113.4540023803711 69.53199768066406 L 112.05000305175781 69.7699966430664 L 110.62799835205078 69.8499984741211 L 65.53600311279297 69.8499984741211 L 0 69.8499984741211 L -37.60200119018555 69.8499984741211 L -39.02399826049805 69.7699966430664 L -40.428001403808594 69.53199768066406 L -41.797000885009766 69.13700103759766 L -43.112998962402344 68.59200286865234 L -44.35900115966797 67.90299987792969 L -45.520999908447266 67.0790023803711 L -46.58300018310547 66.12999725341797 L -47.17702102661133 65.53600311279297 L -65.53600311279297 47.17761993408203 L -77.24400329589844 35.470001220703125 L -78.30599975585938 34.520999908447266 L -79.46700286865234 33.696998596191406 L -80.71399688720703 33.007999420166016 L -81.29308319091797 32.768001556396484 L -81.91999816894531 32.508174896240234 L -82.02899932861328 32.4630012512207 L -83.39800262451172 32.06800079345703 L -84.802001953125 31.829999923706055 L -86.2239990234375 31.75 L -98.30400085449219 31.75 L -131.07200622558594 31.75 L -163.83999633789062 31.75 L -180.2239990234375 31.75 L -188.41600036621094 31.75 L -196.60800170898438 31.75 L -220.6649932861328 31.75 L -220.6649932861328 1.1102230246251565e-16 L -220.6649932861328 -69.8499984741211 L -196.60800170898438 -69.8499984741211 L -131.07200622558594 -69.8499984741211 L -65.53600311279297 -69.8499984741211 L 0 -69.8499984741211 L 2.2723031044006348 -69.8499984741211 L 8.996856689453125 -69.8499984741211 L 65.53600311279297 -69.8499984741211 L 131.07200622558594 -69.8499984741211 L 196.60800170898438 -69.8499984741211 L 198.44688415527344 -69.8499984741211 L 205.24156188964844 -69.8499984741211 L 220.6649932861328 -69.8499984741211 L 220.6649932861328 -65.53600311279297 L 220.6649932861328 -61.439998626708984 L 220.6649932861328 -60.70880889892578 L 220.6649932861328 -59.36892318725586 L 220.6649932861328 -57.34400177001953 L 220.6649932861328 -49.152000427246094 L 220.6649932861328 -32.768001556396484 L 220.6649932861328 1.1102230246251565e-16 L 220.6649932861328 16.384000778198242 L 220.6649932861328 24.576000213623047 L 220.6649932861328 31.75 M 29.395000457763672 -28.000999450683594 L 29.90399932861328 -28.91200065612793 L 30.250999450683594 -29.895000457763672 L 30.42799949645996 -30.923999786376953 L 30.42799949645996 -31.966999053955078 L 30.290218353271484 -32.768001556396484 L 30.250999450683594 -32.99599838256836 L 29.90399932861328 -33.979000091552734 L 29.395000457763672 -34.88999938964844 L 28.73900032043457 -35.70199966430664 L 27.95599937438965 -36.39099884033203 L 27.06800079345703 -36.9379997253418 L 26.099000930786133 -37.32699966430664 L 25.07900047302246 -37.547000885009766 L 24.576000213623047 -37.568721771240234 L 24.03700065612793 -37.59199905395508 L 23.00200080871582 -37.45899963378906 L 22.003999710083008 -37.15299987792969 L 21.072999954223633 -36.683998107910156 L 20.233999252319336 -36.0629997253418 L 19.511999130249023 -35.310001373291016 L 18.92799949645996 -34.44599914550781 L 18.49799919128418 -33.494998931884766 L 18.308692932128906 -32.768001556396484 L 18.235000610351562 -32.48500061035156 L 18.145999908447266 -31.44499969482422 L 18.235000610351562 -30.4060001373291 L 18.49799919128418 -29.395999908447266 L 18.92799949645996 -28.44499969482422 L 19.511999130249023 -27.58099937438965 L 20.233999252319336 -26.827999114990234 L 21.072999954223633 -26.207000732421875 L 22.003999710083008 -25.738000869750977 L 23.00200080871582 -25.43199920654297 L 24.03700065612793 -25.298999786376953 L 24.576000213623047 -25.322277069091797 L 25.07900047302246 -25.3439998626709 L 26.099000930786133 -25.56399917602539 L 27.06800079345703 -25.952999114990234 L 27.95599937438965 -26.5 L 28.73900032043457 -27.18899917602539 L 29.395000457763672 -28.000999450683594 M 16.059999465942383 -61.827999114990234 L 16.371000289916992 -61.61000061035156 L 16.384000778198242 -61.60393142700195 L 16.715999603271484 -61.44900131225586 L 16.749454498291016 -61.439998626708984 L 17.083999633789062 -61.349998474121094 L 17.46299934387207 -61.31700134277344 L 17.841999053955078 -61.349998474121094 L 18.175636291503906 -61.439998626708984 L 18.208999633789062 -61.44900131225586 L 18.554000854492188 -61.61000061035156 L 18.865999221801758 -61.827999114990234 L 19.135000228881836 -62.09700012207031 L 19.35300064086914 -62.409000396728516 L 19.513999938964844 -62.75299835205078 L 19.61199951171875 -63.12099838256836 L 19.64492416381836 -63.487998962402344 L 19.645999908447266 -63.5 L 19.61199951171875 -63.87900161743164 L 19.513999938964844 -64.24700164794922 L 19.35300064086914 -64.59100341796875 L 19.135000228881836 -64.90299987792969 L 18.865999221801758 -65.1719970703125 L 18.554000854492188 -65.38999938964844 L 18.24114227294922 -65.53600311279297 L 18.208999633789062 -65.5510025024414 L 17.841999053955078 -65.6500015258789 L 17.46299934387207 -65.68299865722656 L 17.083999633789062 -65.6500015258789 L 16.715999603271484 -65.5510025024414 L 16.683856964111328 -65.53600311279297 L 16.384000778198242 -65.39606475830078 L 16.371000289916992 -65.38999938964844 L 16.059999465942383 -65.1719970703125 L 15.791000366210938 -64.90299987792969 L 15.571999549865723 -64.59100341796875 L 15.41100025177002 -64.24700164794922 L 15.312999725341797 -63.87900161743164 L 15.279999732971191 -63.5 L 15.312999725341797 -63.12099838256836 L 15.41100025177002 -62.75299835205078 L 15.571999549865723 -62.409000396728516 L 15.791000366210938 -62.09700012207031 L 16.059999465942383 -61.827999114990234 M -63.29100036621094 -47.38100051879883 L -63.29100036621094 -32.768001556396484 L -63.29100036621094 1.1102230246251565e-16 L -63.29100036621094 5.941481590270996 L -63.29100036621094 22.4689998626709 L -32.768001556396484 22.4689998626709 L -16.384000778198242 22.4689998626709 L -15.031000137329102 22.4689998626709 L -15.031000137329102 16.384000778198242 L -15.031000137329102 1.1102230246251565e-16 L -15.031000137329102 -32.768001556396484 L -15.031000137329102 -47.38100051879883 L -32.768001556396484 -47.38100051879883 L -63.29100036621094 -47.38100051879883 M 58.46799850463867 8.690999984741211 L 58.60133361816406 8.192000389099121 L 58.736000061035156 7.688000202178955 L 58.82699966430664 6.65500020980835 L 58.736000061035156 5.620999813079834 L 58.46799850463867 4.618000030517578 L 58.02899932861328 3.677999973297119 L 57.433998107910156 2.828000068664551 L 56.70000076293945 2.0940001010894775 L 55.849998474121094 1.4989999532699585 L 54.909000396728516 1.059999942779541 L 53.90700149536133 0.7919999957084657 L 52.87300109863281 0.7009999752044679 L 51.84000015258789 0.7919999957084657 L 50.83700180053711 1.059999942779541 L 49.89699935913086 1.4989999532699585 L 49.152000427246094 2.0204999446868896 L 49.047000885009766 2.0940001010894775 L 48.3129997253418 2.828000068664551 L 47.71799850463867 3.677999973297119 L 47.27899932861328 4.618000030517578 L 47.01100158691406 5.620999813079834 L 46.91999816894531 6.65500020980835 L 47.01100158691406 7.688000202178955 L 47.27899932861328 8.690999984741211 L 47.71799850463867 9.630999565124512 L 48.3129997253418 10.480999946594238 L 49.047000885009766 11.21500015258789 L 49.152000427246094 11.28849983215332 L 49.89699935913086 11.8100004196167 L 50.83700180053711 12.24899959564209 L 51.84000015258789 12.517000198364258 L 52.87300109863281 12.607999801635742 L 53.90700149536133 12.517000198364258 L 54.909000396728516 12.24899959564209 L 55.849998474121094 11.8100004196167 L 56.70000076293945 11.21500015258789 L 57.433998107910156 10.480999946594238 L 58.02899932861328 9.630999565124512 L 58.46799850463867 8.690999984741211 M 80.1520004272461 -25.60700035095215 L 81.18699645996094 -25.474000930786133 L 81.91999816894531 -25.50492286682129 L 82.2300033569336 -25.51799964904785 L 83.25 -25.738000869750977 L 84.21800231933594 -26.12700080871582 L 85.10600280761719 -26.673999786376953 L 85.88999938964844 -27.36400032043457 L 86.54499816894531 -28.174999237060547 L 87.05400085449219 -29.086000442504883 L 87.4020004272461 -30.06999969482422 L 87.5780029296875 -31.097999572753906 L 87.5780029296875 -32.141998291015625 L 87.4708251953125 -32.768001556396484 L 87.4020004272461 -33.16999816894531 L 87.05400085449219 -34.15399932861328 L 86.54499816894531 -35.064998626708984 L 85.88999938964844 -35.87699890136719 L 85.10600280761719 -36.566001892089844 L 84.21800231933594 -37.112998962402344 L 83.25 -37.50199890136719 L 82.2300033569336 -37.72200012207031 L 81.91999816894531 -37.735076904296875 L 81.18699645996094 -37.76599884033203 L 80.1520004272461 -37.63399887084961 L 79.15499877929688 -37.327999114990234 L 78.2229995727539 -36.858001708984375 L 77.38400268554688 -36.237998962402344 L 76.66200256347656 -35.48500061035156 L 76.0780029296875 -34.619998931884766 L 75.64800262451172 -33.66899871826172 L 75.41314697265625 -32.768001556396484 L 75.38500213623047 -32.65999984741211 L 75.2969970703125 -31.6200008392334 L 75.38500213623047 -30.579999923706055 L 75.64800262451172 -29.570999145507812 L 76.0780029296875 -28.6200008392334 L 76.66200256347656 -27.756000518798828 L 77.38400268554688 -27.00200080871582 L 78.2229995727539 -26.381999969482422 L 79.15499877929688 -25.91200065612793 L 80.1520004272461 -25.60700035095215 M -65.20700073242188 -53.34000015258789 L -65.23400115966797 -53.650001525878906 L -65.31500244140625 -53.95100021362305 L -65.4469985961914 -54.233001708984375 L -65.53600311279297 -54.36050033569336 L -65.625 -54.487998962402344 L -65.84500122070312 -54.70800018310547 L -66.0999984741211 -54.887001037597656 L -66.38200378417969 -55.018001556396484 L -66.68299865722656 -55.0989990234375 L -66.99299621582031 -55.125999450683594 L -67.3030014038086 -55.0989990234375 L -67.60399627685547 -55.018001556396484 L -67.88600158691406 -54.887001037597656 L -68.14099884033203 -54.70800018310547 L -68.36100006103516 -54.487998962402344 L -68.54000091552734 -54.233001708984375 L -68.6719970703125 -53.95100021362305 L -68.75199890136719 -53.650001525878906 L -68.77899932861328 -53.34000015258789 L -68.77098846435547 -53.24800109863281 L -68.75199890136719 -53.029998779296875 L -68.6719970703125 -52.729000091552734 L -68.54000091552734 -52.446998596191406 L -68.36100006103516 -52.19200134277344 L -68.14099884033203 -51.97200012207031 L -67.88600158691406 -51.792999267578125 L -67.60399627685547 -51.6619987487793 L -67.3030014038086 -51.58100128173828 L -66.99299621582031 -51.55400085449219 L -66.68299865722656 -51.58100128173828 L -66.38200378417969 -51.6619987487793 L -66.0999984741211 -51.792999267578125 L -65.84500122070312 -51.97200012207031 L -65.625 -52.19200134277344 L -65.53600311279297 -52.31949996948242 L -65.4469985961914 -52.446998596191406 L -65.31500244140625 -52.729000091552734 L -65.23400115966797 -53.029998779296875 L -65.20700073242188 -53.34000015258789 M -181.8179931640625 27.451000213623047 L -181.47300720214844 27.290000915527344 L -181.16099548339844 27.07200050354004 L -180.89199829101562 26.80299949645996 L -180.7669219970703 26.624000549316406 L -180.6739959716797 26.490999221801758 L -180.51300048828125 26.14699935913086 L -180.4149932861328 25.77899932861328 L -180.3820037841797 25.399999618530273 L -180.4149932861328 25.020999908447266 L -180.51300048828125 24.652999877929688 L -180.54904174804688 24.576000213623047 L -180.6739959716797 24.30900001525879 L -180.89199829101562 23.996999740600586 L -181.16099548339844 23.72800064086914 L -181.47300720214844 23.510000228881836 L -181.8179931640625 23.349000930786133 L -182.18600463867188 23.25 L -182.56500244140625 23.216999053955078 L -182.94400024414062 23.25 L -183.31100463867188 23.349000930786133 L -183.656005859375 23.510000228881836 L -183.96800231933594 23.72800064086914 L -184.23699951171875 23.996999740600586 L -184.4550018310547 24.30900001525879 L -184.5799560546875 24.576000213623047 L -184.61599731445312 24.652999877929688 L -184.71400451660156 25.020999908447266 L -184.7469940185547 25.399999618530273 L -184.71400451660156 25.77899932861328 L -184.61599731445312 26.14699935913086 L -184.4550018310547 26.490999221801758 L -184.32000732421875 26.68421173095703 L -184.23699951171875 26.80299949645996 L -183.96800231933594 27.07200050354004 L -183.656005859375 27.290000915527344 L -183.31100463867188 27.451000213623047 L -182.94400024414062 27.549999237060547 L -182.56500244140625 27.58300018310547 L -182.18600463867188 27.549999237060547 L -181.8179931640625 27.451000213623047 M 19.513999938964844 24.652999877929688 L 19.477962493896484 24.576000213623047 L 19.35300064086914 24.30900001525879 L 19.135000228881836 23.996999740600586 L 18.865999221801758 23.72800064086914 L 18.554000854492188 23.510000228881836 L 18.208999633789062 23.349000930786133 L 17.841999053955078 23.25 L 17.46299934387207 23.216999053955078 L 17.083999633789062 23.25 L 16.715999603271484 23.349000930786133 L 16.384000778198242 23.50393295288086 L 16.371000289916992 23.510000228881836 L 16.059999465942383 23.72800064086914 L 15.791000366210938 23.996999740600586 L 15.571999549865723 24.30900001525879 L 15.41100025177002 24.652999877929688 L 15.312999725341797 25.020999908447266 L 15.279999732971191 25.399999618530273 L 15.312999725341797 25.77899932861328 L 15.41100025177002 26.14699935913086 L 15.571999549865723 26.490999221801758 L 15.791000366210938 26.80299949645996 L 16.059999465942383 27.07200050354004 L 16.371000289916992 27.290000915527344 L 16.384000778198242 27.296066284179688 L 16.715999603271484 27.451000213623047 L 17.083999633789062 27.549999237060547 L 17.46299934387207 27.58300018310547 L 17.841999053955078 27.549999237060547 L 18.208999633789062 27.451000213623047 L 18.554000854492188 27.290000915527344 L 18.865999221801758 27.07200050354004 L 19.135000228881836 26.80299949645996 L 19.35300064086914 26.490999221801758 L 19.513999938964844 26.14699935913086 L 19.61199951171875 25.77899932861328 L 19.645999908447266 25.399999618530273 L 19.61199951171875 25.020999908447266 L 19.513999938964844 24.652999877929688 M -183.31100463867188 -61.44900131225586 L -183.2776336669922 -61.439998626708984 L -182.94400024414062 -61.349998474121094 L -182.56500244140625 -61.31700134277344 L -182.18600463867188 -61.349998474121094 L -181.85145568847656 -61.439998626708984 L -181.8179931640625 -61.44900131225586 L -181.47300720214844 -61.61000061035156 L -181.16099548339844 -61.827999114990234 L -180.89199829101562 -62.09700012207031 L -180.6739959716797 -62.409000396728516 L -180.51300048828125 -62.75299835205078 L -180.4149932861328 -63.12099838256836 L -180.38304138183594 -63.487998962402344 L -180.3820037841797 -63.5 L -180.4149932861328 -63.87900161743164 L -180.51300048828125 -64.24700164794922 L -180.6739959716797 -64.59100341796875 L -180.89199829101562 -64.90299987792969 L -181.16099548339844 -65.1719970703125 L -181.47300720214844 -65.38999938964844 L -181.78585815429688 -65.53600311279297 L -181.8179931640625 -65.5510025024414 L -182.18600463867188 -65.6500015258789 L -182.56500244140625 -65.68299865722656 L -182.94400024414062 -65.6500015258789 L -183.31100463867188 -65.5510025024414 L -183.3431396484375 -65.53600311279297 L -183.656005859375 -65.38999938964844 L -183.96800231933594 -65.1719970703125 L -184.23699951171875 -64.90299987792969 L -184.32000732421875 -64.78421020507812 L -184.4550018310547 -64.59100341796875 L -184.61599731445312 -64.24700164794922 L -184.71400451660156 -63.87900161743164 L -184.7469940185547 -63.5 L -184.71400451660156 -63.12099838256836 L -184.61599731445312 -62.75299835205078 L -184.4550018310547 -62.409000396728516 L -184.32000732421875 -62.215789794921875 L -184.23699951171875 -62.09700012207031 L -183.96800231933594 -61.827999114990234 L -183.656005859375 -61.61000061035156 L -183.31100463867188 -61.44900131225586 M 215.8300018310547 25.020999908447266 L 215.7310028076172 24.652999877929688 L 215.69496154785156 24.576000213623047 L 215.57000732421875 24.30900001525879 L 215.3520050048828 23.996999740600586 L 215.08299255371094 23.72800064086914 L 214.77099609375 23.510000228881836 L 214.427001953125 23.349000930786133 L 214.0590057373047 23.25 L 213.67999267578125 23.216999053955078 L 213.30099487304688 23.25 L 212.99200439453125 23.333127975463867 L 212.93299865722656 23.349000930786133 L 212.58900451660156 23.510000228881836 L 212.27699279785156 23.72800064086914 L 212.00799560546875 23.996999740600586 L 211.7899932861328 24.30900001525879 L 211.6650390625 24.576000213623047 L 211.62899780273438 24.652999877929688 L 211.52999877929688 25.020999908447266 L 211.4969940185547 25.399999618530273 L 211.52999877929688 25.77899932861328 L 211.62899780273438 26.14699935913086 L 211.7899932861328 26.490999221801758 L 212.00799560546875 26.80299949645996 L 212.27699279785156 27.07200050354004 L 212.58900451660156 27.290000915527344 L 212.93299865722656 27.451000213623047 L 212.99200439453125 27.466873168945312 L 213.30099487304688 27.549999237060547 L 213.67999267578125 27.58300018310547 L 214.0590057373047 27.549999237060547 L 214.427001953125 27.451000213623047 L 214.77099609375 27.290000915527344 L 215.08299255371094 27.07200050354004 L 215.3520050048828 26.80299949645996 L 215.57000732421875 26.490999221801758 L 215.7310028076172 26.14699935913086 L 215.8300018310547 25.77899932861328 L 215.86300659179688 25.399999618530273 L 215.8300018310547 25.020999908447266 M 138.33799743652344 -25.64900016784668 L 139.26400756835938 -25.688100814819336 L 139.3800048828125 -25.69300079345703 L 140.39999389648438 -25.913000106811523 L 141.36900329589844 -26.302000045776367 L 142.2570037841797 -26.849000930786133 L 143.0399932861328 -27.538000106811523 L 143.6959991455078 -28.350000381469727 L 144.2050018310547 -29.26099967956543 L 144.552001953125 -30.2450008392334 L 144.72900390625 -31.273000717163086 L 144.72900390625 -32.316001892089844 L 144.6512451171875 -32.768001556396484 L 144.552001953125 -33.345001220703125 L 144.2050018310547 -34.32899856567383 L 143.6959991455078 -35.23899841308594 L 143.0399932861328 -36.05099868774414 L 142.2570037841797 -36.74100112915039 L 141.36900329589844 -37.28799819946289 L 140.39999389648438 -37.676998138427734 L 139.3800048828125 -37.895999908447266 L 139.26400756835938 -37.90100860595703 L 138.33799743652344 -37.941001892089844 L 137.30299377441406 -37.80799865722656 L 136.30499267578125 -37.50299835205078 L 135.37399291992188 -37.03300094604492 L 134.53500366210938 -36.41299819946289 L 133.81300354003906 -35.659000396728516 L 133.22900390625 -34.79499816894531 L 132.7989959716797 -33.84400177001953 L 132.53599548339844 -32.83399963378906 L 132.5303497314453 -32.768001556396484 L 132.44700622558594 -31.795000076293945 L 132.53599548339844 -30.7549991607666 L 132.7989959716797 -29.7450008392334 L 133.22900390625 -28.795000076293945 L 133.81300354003906 -27.93000030517578 L 134.53500366210938 -27.177000045776367 L 135.37399291992188 -26.555999755859375 L 136.30499267578125 -26.086999893188477 L 137.30299377441406 -25.7810001373291 L 138.33799743652344 -25.64900016784668 M -11.11299991607666 26.15399932861328 L -11.42300033569336 26.180999755859375 L -11.722999572753906 26.261999130249023 L -12.005999565124512 26.39299964904785 L -12.26099967956543 26.57200050354004 L -12.288000106811523 26.599000930786133 L -12.480999946594238 26.79199981689453 L -12.659000396728516 27.047000885009766 L -12.791000366210938 27.32900047302246 L -12.871000289916992 27.6299991607666 L -12.89900016784668 27.940000534057617 L -12.871000289916992 28.25 L -12.791000366210938 28.551000595092773 L -12.73436164855957 28.672000885009766 L -12.659000396728516 28.83300018310547 L -12.480999946594238 29.08799934387207 L -12.26099967956543 29.308000564575195 L -12.005999565124512 29.48699951171875 L -11.722999572753906 29.618000030517578 L -11.42300033569336 29.698999404907227 L -11.11299991607666 29.72599983215332 L -10.803000450134277 29.698999404907227 L -10.501999855041504 29.618000030517578 L -10.220000267028809 29.48699951171875 L -9.96500015258789 29.308000564575195 L -9.744999885559082 29.08799934387207 L -9.565999984741211 28.83300018310547 L -9.490638732910156 28.672000885009766 L -9.434000015258789 28.551000595092773 L -9.354000091552734 28.25 L -9.32699966430664 27.940000534057617 L -9.354000091552734 27.6299991607666 L -9.434000015258789 27.32900047302246 L -9.565999984741211 27.047000885009766 L -9.744999885559082 26.79199981689453 L -9.913000106811523 26.624000549316406 L -9.96500015258789 26.57200050354004 L -10.220000267028809 26.39299964904785 L -10.501999855041504 26.261999130249023 L -10.803000450134277 26.180999755859375 L -11.11299991607666 26.15399932861328 M 212.58900451660156 -61.61000061035156 L 212.93299865722656 -61.44900131225586 L 212.99200439453125 -61.433128356933594 L 213.30099487304688 -61.349998474121094 L 213.67999267578125 -61.31700134277344 L 214.0590057373047 -61.349998474121094 L 214.39353942871094 -61.439998626708984 L 214.427001953125 -61.44900131225586 L 214.77099609375 -61.61000061035156 L 215.08299255371094 -61.827999114990234 L 215.3520050048828 -62.09700012207031 L 215.57000732421875 -62.409000396728516 L 215.7310028076172 -62.75299835205078 L 215.8300018310547 -63.12099838256836 L 215.86300659179688 -63.5 L 215.8300018310547 -63.87900161743164 L 215.7310028076172 -64.24700164794922 L 215.57000732421875 -64.59100341796875 L 215.3520050048828 -64.90299987792969 L 215.08299255371094 -65.1719970703125 L 214.77099609375 -65.38999938964844 L 214.45904541015625 -65.53600311279297 L 214.427001953125 -65.5510025024414 L 214.0590057373047 -65.6500015258789 L 213.67999267578125 -65.68299865722656 L 213.30099487304688 -65.6500015258789 L 212.93299865722656 -65.5510025024414 L 212.9009552001953 -65.53600311279297 L 212.58900451660156 -65.38999938964844 L 212.27699279785156 -65.1719970703125 L 212.00799560546875 -64.90299987792969 L 211.7899932861328 -64.59100341796875 L 211.62899780273438 -64.24700164794922 L 211.52999877929688 -63.87900161743164 L 211.4969940185547 -63.5 L 211.52999877929688 -63.12099838256836 L 211.62899780273438 -62.75299835205078 L 211.7899932861328 -62.409000396728516 L 212.00799560546875 -62.09700012207031 L 212.27699279785156 -61.827999114990234 L 212.58900451660156 -61.61000061035156 M -65.23400115966797 27.6299991607666 L -65.31500244140625 27.32900047302246 L -65.4469985961914 27.047000885009766 L -65.53600311279297 26.91950035095215 L -65.625 26.79199981689453 L -65.79299926757812 26.624000549316406 L -65.84500122070312 26.57200050354004 L -66.0999984741211 26.39299964904785 L -66.38200378417969 26.261999130249023 L -66.68299865722656 26.180999755859375 L -66.99299621582031 26.15399932861328 L -67.3030014038086 26.180999755859375 L -67.60399627685547 26.261999130249023 L -67.88600158691406 26.39299964904785 L -68.14099884033203 26.57200050354004 L -68.19300079345703 26.624000549316406 L -68.36100006103516 26.79199981689453 L -68.54000091552734 27.047000885009766 L -68.6719970703125 27.32900047302246 L -68.75199890136719 27.6299991607666 L -68.77899932861328 27.940000534057617 L -68.75199890136719 28.25 L -68.6719970703125 28.551000595092773 L -68.61536407470703 28.672000885009766 L -68.54000091552734 28.83300018310547 L -68.36100006103516 29.08799934387207 L -68.14099884033203 29.308000564575195 L -67.88600158691406 29.48699951171875 L -67.60399627685547 29.618000030517578 L -67.3030014038086 29.698999404907227 L -66.99299621582031 29.72599983215332 L -66.68299865722656 29.698999404907227 L -66.38200378417969 29.618000030517578 L -66.0999984741211 29.48699951171875 L -65.84500122070312 29.308000564575195 L -65.625 29.08799934387207 L -65.53600311279297 28.960500717163086 L -65.4469985961914 28.83300018310547 L -65.31500244140625 28.551000595092773 L -65.23400115966797 28.25 L -65.20700073242188 27.940000534057617 L -65.23400115966797 27.6299991607666 M -12.26099967956543 -51.97200012207031 L -12.005999565124512 -51.792999267578125 L -11.722999572753906 -51.6619987487793 L -11.42300033569336 -51.58100128173828 L -11.11299991607666 -51.55400085449219 L -10.803000450134277 -51.58100128173828 L -10.501999855041504 -51.6619987487793 L -10.220000267028809 -51.792999267578125 L -9.96500015258789 -51.97200012207031 L -9.744999885559082 -52.19200134277344 L -9.565999984741211 -52.446998596191406 L -9.434000015258789 -52.729000091552734 L -9.354000091552734 -53.029998779296875 L -9.335012435913086 -53.24800109863281 L -9.32699966430664 -53.34000015258789 L -9.354000091552734 -53.650001525878906 L -9.434000015258789 -53.95100021362305 L -9.565999984741211 -54.233001708984375 L -9.744999885559082 -54.487998962402344 L -9.96500015258789 -54.70800018310547 L -10.220000267028809 -54.887001037597656 L -10.501999855041504 -55.018001556396484 L -10.803000450134277 -55.0989990234375 L -11.11299991607666 -55.125999450683594 L -11.42300033569336 -55.0989990234375 L -11.722999572753906 -55.018001556396484 L -12.005999565124512 -54.887001037597656 L -12.26099967956543 -54.70800018310547 L -12.288000106811523 -54.680999755859375 L -12.480999946594238 -54.487998962402344 L -12.659000396728516 -54.233001708984375 L -12.791000366210938 -53.95100021362305 L -12.871000289916992 -53.650001525878906 L -12.89900016784668 -53.34000015258789 L -12.890689849853516 -53.24800109863281 L -12.871000289916992 -53.029998779296875 L -12.791000366210938 -52.729000091552734 L -12.659000396728516 -52.446998596191406 L -12.480999946594238 -52.19200134277344 L -12.288000106811523 -51.999000549316406 L -12.26099967956543 -51.97200012207031 M -188.41600036621094 -61.439998626708984 L -188.41600036621094 -65.53600311279297 L -196.60800170898438 -57.34400177001953 L -188.41600036621094 -57.34400177001953 L -188.41600036621094 -61.439998626708984 z" fill="none" stroke="rgb(255,0,0)" stroke-width="0.001mm" />
</svg>