<?xml version="1.0" standalone="no"?>
<!DOCTYPE svg PUBLIC "-//W3C//DTD SVG 1.1//EN"
  "http://www.w3.org/Graphics/SVG/1.1/DTD/svg11.dtd">
<svg width="443.3299865722656mm" height="141.6999969482422mm" viewBox="-221.6649932861328 -70.8499984741211 443.3299865722656 141.6999969482422" xmlns="http://www.w3.org/2000/svg" version="1.1">
	<title>svgOutput</title>
	<desc>made with tinkercad</desc>
<path d="M -220.6649932861328 -69.8499984741211 L -131.07200622558594 -69.8499984741211 L 0 -69.8499984741211 L 65.53600311279297 -69.8499984741211 L 131.07200622558594 -69.8499984741211 L 132.0279998779297 -69.8499984741211 L 138.61790466308594 -69.8499984741211 L 145.82823181152344 -69.8499984741211 L 154.1341094970703 -69.8499984741211 L 220.6649932861328 -69.8499984741211 L 220.6649932861328 -34.92599868774414 L 220.6649932861328 5.291685581207275 L 220.6649932861328 28.29486656188965 L 220.6649932861328 31.75 L 159.25 31.75 L 157.8280029296875 31.829999923706055 L 156.4239959716797 32.06800079345703 L 155.05499267578125 32.4630012512207 L 153.73899841308594 33.007999420166016 L 152.4929962158203 33.696998596191406 L 151.33099365234375 34.520999908447266 L 150.2689971923828 35.470001220703125 L 131.07200622558594 54.66699981689453 L 119.60900115966797 66.12999725341797 L 118.5469970703125 67.0790023803711 L 117.38500213623047 67.90299987792969 L 116.13899993896484 68.59200286865234 L 114.822998046875 69.13700103759766 L 113.4540023803711 69.53199768066406 L 112.05000305175781 69.7699966430664 L 110.62799835205078 69.8499984741211 L 65.53600311279297 69.8499984741211 L 0 69.8499984741211 L -15.031000137329102 69.8499984741211 L -37.60200119018555 69.8499984741211 L -39.02399826049805 69.7699966430664 L -40.428001403808594 69.53199768066406 L -41.797000885009766 69.13700103759766 L -43.112998962402344 68.59200286865234 L -44.35900115966797 67.90299987792969 L -45.520999908447266 67.0790023803711 L -46.58300018310547 66.12999725341797 L -65.53600311279297 47.17761993408203 L -77.24400329589844 35.470001220703125 L -78.30599975585938 34.520999908447266 L -79.46700286865234 33.696998596191406 L -80.71399688720703 33.007999420166016 L -82.02899932861328 32.4630012512207 L -83.39800262451172 32.06800079345703 L -84.802001953125 31.829999923706055 L -86.2239990234375 31.75 L -131.07200622558594 31.75 L -220.6649932861328 31.75 L -220.6649932861328 -69.8499984741211 M 25.07900047302246 -37.547000885009766 L 24.576000213623047 -37.568721771240234 L 24.03700065612793 -37.59199905395508 L 23.00200080871582 -37.45899963378906 L 22.003999710083008 -37.15299987792969 L 21.072999954223633 -36.683998107910156 L 20.233999252319336 -36.0629997253418 L 19.511999130249023 -35.310001373291016 L 18.92799949645996 -34.44599914550781 L 18.49799919128418 -33.494998931884766 L 18.308692932128906 -32.768001556396484 L 18.235000610351562 -32.48500061035156 L 18.145999908447266 -31.44499969482422 L 18.235000610351562 -30.4060001373291 L 18.49799919128418 -29.395999908447266 L 18.92799949645996 -28.44499969482422 L 19.511999130249023 -27.58099937438965 L 20.233999252319336 -26.827999114990234 L 21.072999954223633 -26.207000732421875 L 22.003999710083008 -25.738000869750977 L 23.00200080871582 -25.43199920654297 L 24.03700065612793 -25.298999786376953 L 24.576000213623047 -25.322277069091797 L 25.07900047302246 -25.3439998626709 L 26.099000930786133 -25.56399917602539 L 27.06800079345703 -25.952999114990234 L 27.95599937438965 -26.5 L 28.73900032043457 -27.18899917602539 L 29.395000457763672 -28.000999450683594 L 29.90399932861328 -28.91200065612793 L 30.250999450683594 -29.895000457763672 L 30.42799949645996 -30.923999786376953 L 30.42799949645996 -31.966999053955078 L 30.290218353271484 -32.768001556396484 L 30.250999450683594 -32.99599838256836 L 29.90399932861328 -33.979000091552734 L 29.395000457763672 -34.88999938964844 L 28.73900032043457 -35.70199966430664 L 27.95599937438965 -36.39099884033203 L 27.06800079345703 -36.9379997253418 L 26.099000930786133 -37.32699966430664 L 25.07900047302246 -37.547000885009766 M 122.6729965209961 -26.64299964904785 L 122.87999725341797 -26.538612365722656 L 123.6050033569336 -26.17300033569336 L 124.60299682617188 -25.868000030517578 L 125.63800048828125 -25.735000610351562 L 126.68000030517578 -25.77899932861328 L 127.69999694824219 -25.999000549316406 L 128.66799926757812 -26.38800048828125 L 129.5570068359375 -26.934999465942383 L 130.33999633789062 -27.625 L 130.9949951171875 -28.43600082397461 L 131.07200622558594 -28.57381248474121 L 131.50399780273438 -29.347000122070312 L 131.8520050048828 -30.33099937438965 L 132.0279998779297 -31.358999252319336 L 132.0279998779297 -32.40299987792969 L 131.8520050048828 -33.430999755859375 L 131.50399780273438 -34.415000915527344 L 131.07200622558594 -35.18818664550781 L 130.9949951171875 -35.32600021362305 L 130.33999633789062 -36.13800048828125 L 129.5570068359375 -36.82699966430664 L 128.66799926757812 -37.374000549316406 L 127.69999694824219 -37.76300048828125 L 126.68000030517578 -37.983001708984375 L 125.63800048828125 -38.027000427246094 L 124.60299682617188 -37.89500045776367 L 123.6050033569336 -37.5890007019043 L 122.6729965209961 -37.11899948120117 L 121.83499908447266 -36.499000549316406 L 121.11299896240234 -35.74599838256836 L 120.52799987792969 -34.88100051879883 L 120.0979995727539 -33.93000030517578 L 119.83599853515625 -32.92100143432617 L 119.82290649414062 -32.768001556396484 L 119.74700164794922 -31.881000518798828 L 119.83599853515625 -30.840999603271484 L 120.0979995727539 -29.832000732421875 L 120.52799987792969 -28.881000518798828 L 121.11299896240234 -28.017000198364258 L 121.83499908447266 -27.26300048828125 L 122.6729965209961 -26.64299964904785 M 49.698001861572266 0.7009999752044679 L 49.152000427246094 0.7490987181663514 L 48.665000915527344 0.7919999957084657 L 47.6619987487793 1.059999942779541 L 46.72200012207031 1.4989999532699585 L 45.87200164794922 2.0940001010894775 L 45.13800048828125 2.828000068664551 L 44.542999267578125 3.677999973297119 L 44.104000091552734 4.618000030517578 L 43.83599853515625 5.620999813079834 L 43.744998931884766 6.65500020980835 L 43.83599853515625 7.688000202178955 L 43.97066879272461 8.192000389099121 L 44.104000091552734 8.690999984741211 L 44.542999267578125 9.630999565124512 L 45.13800048828125 10.480999946594238 L 45.87200164794922 11.21500015258789 L 46.72200012207031 11.8100004196167 L 47.6619987487793 12.24899959564209 L 48.665000915527344 12.517000198364258 L 49.152000427246094 12.559901237487793 L 49.698001861572266 12.607999801635742 L 50.731998443603516 12.517000198364258 L 51.73400115966797 12.24899959564209 L 52.67499923706055 11.8100004196167 L 53.525001525878906 11.21500015258789 L 54.25899887084961 10.480999946594238 L 54.854000091552734 9.630999565124512 L 55.292999267578125 8.690999984741211 L 55.42633056640625 8.192000389099121 L 55.56100082397461 7.688000202178955 L 55.652000427246094 6.65500020980835 L 55.56100082397461 5.620999813079834 L 55.292999267578125 4.618000030517578 L 54.854000091552734 3.677999973297119 L 54.25899887084961 2.828000068664551 L 53.525001525878906 2.0940001010894775 L 52.67499923706055 1.4989999532699585 L 51.73400115966797 1.059999942779541 L 50.731998443603516 0.7919999957084657 L 49.698001861572266 0.7009999752044679 M 71.03399658203125 -36.28099822998047 L 70.31199645996094 -35.52799987792969 L 69.72799682617188 -34.66299819946289 L 69.2979965209961 -33.7130012512207 L 69.05192565917969 -32.768001556396484 L 69.03500366210938 -32.702999114990234 L 68.9469985961914 -31.663000106811523 L 69.03500366210938 -30.624000549316406 L 69.2979965209961 -29.61400032043457 L 69.72799682617188 -28.663000106811523 L 70.31199645996094 -27.798999786376953 L 71.03399658203125 -27.045000076293945 L 71.87300109863281 -26.424999237060547 L 72.80400085449219 -25.954999923706055 L 73.72799682617188 -25.67261505126953 L 73.802001953125 -25.649999618530273 L 74.83699798583984 -25.517000198364258 L 75.87999725341797 -25.562000274658203 L 76.89900207519531 -25.7810001373291 L 77.86799621582031 -26.170000076293945 L 78.75599670410156 -26.716999053955078 L 79.53900146484375 -27.406999588012695 L 80.19499969482422 -28.2189998626709 L 80.7040023803711 -29.128999710083008 L 81.0510025024414 -30.113000869750977 L 81.22799682617188 -31.142000198364258 L 81.22799682617188 -32.185001373291016 L 81.12761688232422 -32.768001556396484 L 81.0510025024414 -33.2130012512207 L 80.7040023803711 -34.196998596191406 L 80.19499969482422 -35.108001708984375 L 79.53900146484375 -35.91999816894531 L 78.75599670410156 -36.60900115966797 L 77.86799621582031 -37.15599822998047 L 76.89900207519531 -37.54499816894531 L 75.87999725341797 -37.76499938964844 L 74.83699798583984 -37.808998107910156 L 73.802001953125 -37.676998138427734 L 73.72799682617188 -37.65431213378906 L 72.80400085449219 -37.37099838256836 L 71.87300109863281 -36.902000427246094 L 71.03399658203125 -36.28099822998047 M -63.29100036621094 -47.38100051879883 L -63.29100036621094 1.1102230246251565e-16 L -63.29100036621094 22.4689998626709 L -15.031000137329102 22.4689998626709 L -15.031000137329102 1.1102230246251565e-16 L -15.031000137329102 -47.38100051879883 L -63.29100036621094 -47.38100051879883 z" fill="none" stroke="rgb(255,0,0)" stroke-width="0.001mm" />
</svg>