<?xml version="1.0" encoding="UTF-8" standalone="no"?>
<!DOCTYPE svg PUBLIC "-//W3C//DTD SVG 1.1//EN" "http://www.w3.org/Graphics/SVG/1.1/DTD/svg11.dtd">
<svg width="1676px" height="536px" version="1.1" xmlns="http://www.w3.org/2000/svg" xmlns:xlink="http://www.w3.org/1999/xlink" xml:space="preserve" xmlns:serif="http://www.serif.com/" style="fill-rule:evenodd;clip-rule:evenodd;">
    <g transform="matrix(1.33333,0,0,1.33333,0,0)">
        <path d="M1253.85,290.835L1079.76,290.835L1075.73,291.061L1071.75,291.736L1067.87,292.856L1064.14,294.401L1060.61,296.354L1057.31,298.689L1054.3,301.38L999.884,355.796L967.391,388.29L964.38,390.98L961.087,393.316L957.555,395.269L953.824,396.814L949.944,397.933L945.964,398.608L941.933,398.835L521.753,398.835L517.723,398.608L513.743,397.933L509.862,396.814L506.132,395.269L502.6,393.316L499.306,390.98L496.295,388.29L494.612,386.606L442.57,334.566L409.382,301.38L406.372,298.689L403.081,296.354L399.546,294.401L397.905,293.72L396.128,292.984L395.819,292.856L391.938,291.736L387.958,291.061L383.927,290.835L2.835,290.835L2.835,2.835L1253.85,2.835L1253.85,290.835" style="fill:none;fill-rule:nonzero;stroke:rgb(13,40,242);stroke-width:1px;"/>
        <path d="M711.666,121.462L713.109,118.879L714.093,116.093L714.594,113.176L714.594,110.22L714.204,107.949L714.093,107.303L713.109,104.516L711.666,101.934L709.807,99.632L707.587,97.679L705.07,96.129L702.323,95.026L699.432,94.402L698.006,94.341L696.478,94.275L693.544,94.652L690.715,95.519L688.076,96.849L685.698,98.609L683.651,100.743L681.996,103.192L680.777,105.888L680.24,107.949L680.031,108.751L679.779,111.699L680.031,114.644L680.777,117.507L681.996,120.203L683.651,122.652L685.698,124.787L688.076,126.547L690.715,127.877L693.544,128.744L696.478,129.121L699.432,128.993L702.323,128.37L705.07,127.267L707.587,125.717L709.807,123.763L711.666,121.462" style="fill:none;fill-rule:nonzero;stroke:rgb(13,40,242);stroke-width:1px;"/>
        <path d="M673.866,25.574L674.748,26.192L674.785,26.209L675.726,26.648L675.82,26.674L676.769,26.929L677.843,27.023L678.917,26.929L679.863,26.674L679.958,26.648L680.936,26.192L681.82,25.574L682.583,24.812L683.201,23.927L683.657,22.952L683.935,21.909L684.028,20.869L684.031,20.835L683.935,19.76L683.657,18.717L683.201,17.742L682.583,16.858L681.82,16.095L680.936,15.477L680.049,15.063L679.958,15.021L678.917,14.74L677.843,14.647L676.769,14.74L675.726,15.021L675.635,15.063L674.785,15.46L674.748,15.477L673.866,16.095L673.104,16.858L672.483,17.742L672.026,18.717L671.749,19.76L671.655,20.835L671.749,21.909L672.026,22.952L672.483,23.927L673.104,24.812L673.866,25.574" style="fill:none;fill-rule:nonzero;stroke:rgb(13,40,242);stroke-width:1px;"/>
        <path d="M448.934,66.526L448.934,264.526L585.734,264.526L585.734,66.526L448.934,66.526" style="fill:none;fill-rule:nonzero;stroke:rgb(13,40,242);stroke-width:1px;"/>
        <path d="M794.078,225.471L794.456,224.056L794.837,222.627L795.095,219.699L794.837,216.768L794.078,213.925L792.833,211.26L791.147,208.851L789.066,206.77L786.657,205.084L783.989,203.839L781.149,203.08L778.218,202.822L775.29,203.08L772.447,203.839L769.782,205.084L767.67,206.562L767.373,206.77L765.292,208.851L763.605,211.26L762.361,213.925L761.601,216.768L761.343,219.699L761.601,222.627L762.361,225.471L763.605,228.135L765.292,230.545L767.373,232.625L769.782,234.312L772.447,235.556L775.29,236.316L778.218,236.574L781.149,236.316L783.989,235.556L786.657,234.312L789.066,232.625L791.147,230.545L792.833,228.135L794.078,225.471" style="fill:none;fill-rule:nonzero;stroke:rgb(13,40,242);stroke-width:1px;"/>
        <path d="M855.544,128.248L858.478,128.625L860.556,128.537L861.435,128.5L864.326,127.877L867.07,126.774L869.587,125.223L871.809,123.267L873.666,120.969L875.109,118.386L876.095,115.597L876.594,112.683L876.594,109.723L876.291,107.949L876.095,106.809L875.109,104.02L873.666,101.438L871.809,99.136L869.587,97.183L867.07,95.632L864.326,94.53L861.435,93.906L860.556,93.869L858.478,93.781L855.544,94.156L852.718,95.023L850.076,96.355L847.698,98.113L845.651,100.247L843.996,102.699L842.777,105.395L842.111,107.949L842.031,108.255L841.782,111.203L842.031,114.151L842.777,117.011L843.996,119.707L845.651,122.156L847.698,124.294L850.076,126.051L852.718,127.383L855.544,128.248" style="fill:none;fill-rule:nonzero;stroke:rgb(13,40,242);stroke-width:1px;"/>
        <path d="M443.503,49.635L443.426,48.756L443.197,47.903L442.823,47.103L442.57,46.742L442.318,46.38L441.694,45.757L440.972,45.249L440.172,44.878L439.319,44.649L438.44,44.572L437.562,44.649L436.708,44.878L435.909,45.249L435.186,45.757L434.563,46.38L434.055,47.103L433.681,47.903L433.454,48.756L433.378,49.635L433.4,49.895L433.454,50.513L433.681,51.367L434.055,52.166L434.563,52.889L435.186,53.512L435.909,54.02L436.708,54.391L437.562,54.621L438.44,54.697L439.319,54.621L440.172,54.391L440.972,54.02L441.694,53.512L442.318,52.889L442.57,52.527L442.823,52.166L443.197,51.367L443.426,50.513L443.503,49.635" style="fill:none;fill-rule:nonzero;stroke:rgb(13,40,242);stroke-width:1px;"/>
        <path d="M112.952,278.649L113.93,278.192L114.814,277.574L115.577,276.812L115.932,276.304L116.195,275.927L116.651,274.952L116.929,273.909L117.023,272.835L116.929,271.76L116.651,270.717L116.549,270.499L116.195,269.742L115.577,268.858L114.814,268.095L113.93,267.477L112.952,267.021L111.909,266.74L110.835,266.647L109.76,266.74L108.72,267.021L107.742,267.477L106.858,268.095L106.095,268.858L105.477,269.742L105.123,270.499L105.021,270.717L104.743,271.76L104.649,272.835L104.743,273.909L105.021,274.952L105.477,275.927L105.86,276.475L106.095,276.812L106.858,277.574L107.742,278.192L108.72,278.649L109.76,278.929L110.835,279.023L111.909,278.929L112.952,278.649" style="fill:none;fill-rule:nonzero;stroke:rgb(13,40,242);stroke-width:1px;"/>
        <path d="M683.657,270.717L683.201,269.742L682.583,268.858L681.82,268.095L680.936,267.477L679.958,267.021L678.917,266.74L677.843,266.647L676.769,266.74L675.726,267.021L674.748,267.477L673.866,268.095L673.104,268.858L672.483,269.742L672.026,270.717L671.749,271.76L671.655,272.835L671.749,273.909L672.026,274.952L672.483,275.927L673.104,276.812L673.866,277.574L674.748,278.192L674.785,278.209L675.726,278.649L676.769,278.929L677.843,279.023L678.917,278.929L679.958,278.649L680.936,278.192L681.82,277.574L682.583,276.812L683.201,275.927L683.657,274.952L683.935,273.909L684.031,272.835L683.935,271.76L683.657,270.717" style="fill:none;fill-rule:nonzero;stroke:rgb(13,40,242);stroke-width:1px;"/>
        <path d="M108.72,26.648L109.76,26.929L110.835,27.023L111.909,26.929L112.952,26.648L113.93,26.192L114.814,25.574L115.577,24.812L116.195,23.927L116.651,22.952L116.929,21.909L117.02,20.869L117.023,20.835L116.929,19.76L116.651,18.717L116.195,17.742L115.577,16.858L114.814,16.095L113.93,15.477L113.043,15.063L112.952,15.021L111.909,14.74L110.835,14.647L109.76,14.74L108.72,15.021L108.629,15.063L107.742,15.477L106.858,16.095L106.095,16.858L105.86,17.194L105.477,17.742L105.021,18.717L104.743,19.76L104.649,20.835L104.743,21.909L105.021,22.952L105.477,23.927L105.86,24.475L106.095,24.812L106.858,25.574L107.742,26.192L108.72,26.648" style="fill:none;fill-rule:nonzero;stroke:rgb(13,40,242);stroke-width:1px;"/>
        <path d="M1240.14,271.76L1239.86,270.717L1239.76,270.499L1239.41,269.742L1238.79,268.858L1238.03,268.095L1237.14,267.477L1236.17,267.021L1235.12,266.74L1234.05,266.647L1232.97,266.74L1232.1,266.976L1231.93,267.021L1230.96,267.477L1230.07,268.095L1229.31,268.858L1228.69,269.742L1228.34,270.499L1228.24,270.717L1227.95,271.76L1227.86,272.835L1227.95,273.909L1228.24,274.952L1228.69,275.927L1229.31,276.812L1230.07,277.574L1230.96,278.192L1231.93,278.649L1232.1,278.693L1232.97,278.929L1234.05,279.023L1235.12,278.929L1236.17,278.649L1237.14,278.192L1238.03,277.574L1238.79,276.812L1239.41,275.927L1239.86,274.952L1240.14,273.909L1240.24,272.835L1240.14,271.76" style="fill:none;fill-rule:nonzero;stroke:rgb(13,40,242);stroke-width:1px;"/>
        <path d="M1020.48,128.129L1023.11,128.018L1023.44,128.004L1026.33,127.38L1029.07,126.278L1031.59,124.727L1033.81,122.774L1035.67,120.472L1037.11,117.89L1038.1,115.101L1038.6,112.187L1038.6,109.23L1038.38,107.949L1038.1,106.313L1037.11,103.524L1035.67,100.945L1033.81,98.643L1031.59,96.687L1029.07,95.136L1026.33,94.034L1023.44,93.413L1023.11,93.399L1020.48,93.285L1017.55,93.662L1014.72,94.527L1012.08,95.859L1009.7,97.617L1007.65,99.754L1006,102.203L1004.78,104.899L1004.03,107.762L1004.02,107.949L1003.78,110.707L1004.03,113.655L1004.78,116.518L1006,119.211L1007.65,121.663L1009.7,123.797L1012.08,125.558L1014.72,126.887L1017.55,127.755L1020.48,128.129" style="fill:none;fill-rule:nonzero;stroke:rgb(13,40,242);stroke-width:1px;"/>
        <path d="M596.84,274.972L595.962,275.048L595.111,275.278L594.309,275.649L593.586,276.157L592.963,276.78L592.458,277.503L592.084,278.303L591.857,279.156L591.778,280.035L591.857,280.913L592.084,281.767L592.458,282.566L592.963,283.289L593.586,283.912L594.309,284.42L595.111,284.791L595.962,285.021L596.84,285.097L597.719,285.021L598.572,284.791L599.372,284.42L600.094,283.912L600.718,283.289L601.225,282.566L601.6,281.767L601.826,280.913L601.903,280.035L601.826,279.156L601.6,278.303L601.225,277.503L600.718,276.78L600.094,276.157L599.372,275.649L598.572,275.278L597.719,275.048L596.84,274.972" style="fill:none;fill-rule:nonzero;stroke:rgb(13,40,242);stroke-width:1px;"/>
        <path d="M1230.96,26.192L1231.93,26.648L1232.1,26.693L1232.97,26.929L1234.05,27.023L1235.12,26.929L1236.17,26.648L1237.14,26.192L1238.03,25.574L1238.79,24.812L1239.41,23.927L1239.86,22.952L1240.14,21.909L1240.24,20.835L1240.14,19.76L1239.86,18.717L1239.41,17.742L1238.79,16.858L1238.03,16.095L1237.14,15.477L1236.26,15.063L1236.17,15.021L1235.12,14.74L1234.05,14.647L1232.97,14.74L1231.93,15.021L1231.84,15.063L1230.96,15.477L1230.07,16.095L1229.31,16.858L1228.69,17.742L1228.24,18.717L1227.95,19.76L1227.86,20.835L1227.95,21.909L1228.24,22.952L1228.69,23.927L1229.31,24.812L1230.07,25.574L1230.96,26.192" style="fill:none;fill-rule:nonzero;stroke:rgb(13,40,242);stroke-width:1px;"/>
        <path d="M443.426,279.156L443.197,278.303L442.823,277.503L442.57,277.142L442.318,276.78L441.842,276.304L441.694,276.157L440.972,275.649L440.172,275.278L439.319,275.048L438.44,274.972L437.562,275.048L436.708,275.278L435.909,275.649L435.186,276.157L435.039,276.304L434.563,276.78L434.055,277.503L433.681,278.303L433.454,279.156L433.378,280.035L433.454,280.913L433.681,281.767L433.841,282.11L434.055,282.566L434.563,283.289L435.186,283.912L435.909,284.42L436.708,284.791L437.562,285.021L438.44,285.097L439.319,285.021L440.172,284.791L440.972,284.42L441.694,283.912L442.318,283.289L442.57,282.927L442.823,282.566L443.197,281.767L443.426,280.913L443.503,280.035L443.426,279.156" style="fill:none;fill-rule:nonzero;stroke:rgb(13,40,242);stroke-width:1px;"/>
        <path d="M593.586,53.512L594.309,54.02L595.111,54.391L595.962,54.621L596.84,54.697L597.719,54.621L598.572,54.391L599.372,54.02L600.094,53.512L600.718,52.889L601.225,52.166L601.6,51.367L601.826,50.513L601.903,49.635L601.826,48.756L601.6,47.903L601.225,47.103L600.718,46.38L600.094,45.757L599.372,45.249L598.572,44.878L597.719,44.649L596.84,44.572L595.962,44.649L595.111,44.878L594.309,45.249L593.586,45.757L592.963,46.38L592.458,47.103L592.084,47.903L591.857,48.756L591.778,49.635L591.857,50.513L592.084,51.367L592.458,52.166L592.963,52.889L593.586,53.512" style="fill:none;fill-rule:nonzero;stroke:rgb(13,40,242);stroke-width:1px;"/>
        <g transform="matrix(1,0,0,1,-315.635,-7.69502)">
            <g transform="matrix(16,0,0,16,921.202,109.383)">
                <path d="M0.576,-0.635L0.344,-0.635L0.344,-0L0.248,-0L0.248,-0.635L0.015,-0.635L0.015,-0.717L0.576,-0.717L0.576,-0.635Z" style="fill-rule:nonzero;"/>
            </g>
            <g transform="matrix(16,0,0,16,930.65,109.383)">
                <path d="M0.672,-0.717L0.672,-0L0.575,-0L0.575,-0.326L0.189,-0.326L0.189,-0L0.092,-0L0.092,-0.717L0.189,-0.717L0.189,-0.397L0.575,-0.397L0.575,-0.717L0.672,-0.717Z" style="fill-rule:nonzero;"/>
            </g>
            <g transform="matrix(16,0,0,16,942.866,109.383)">
                <path d="M0.29,-0.37C0.318,-0.37 0.343,-0.373 0.364,-0.38C0.386,-0.387 0.404,-0.396 0.418,-0.409C0.433,-0.421 0.444,-0.436 0.451,-0.454C0.458,-0.471 0.462,-0.49 0.462,-0.511C0.462,-0.554 0.448,-0.586 0.42,-0.608C0.392,-0.629 0.35,-0.64 0.294,-0.64L0.188,-0.64L0.188,-0.37L0.29,-0.37ZM0.621,-0L0.535,-0C0.517,-0 0.504,-0.007 0.496,-0.021L0.31,-0.277C0.304,-0.284 0.298,-0.29 0.292,-0.294C0.285,-0.297 0.275,-0.299 0.262,-0.299L0.188,-0.299L0.188,-0L0.092,-0L0.092,-0.717L0.294,-0.717C0.339,-0.717 0.379,-0.712 0.412,-0.703C0.445,-0.694 0.472,-0.68 0.493,-0.663C0.515,-0.646 0.531,-0.625 0.541,-0.6C0.551,-0.576 0.557,-0.548 0.557,-0.518C0.557,-0.493 0.553,-0.469 0.545,-0.447C0.537,-0.425 0.525,-0.405 0.51,-0.388C0.495,-0.37 0.476,-0.355 0.454,-0.343C0.432,-0.331 0.408,-0.321 0.38,-0.315C0.392,-0.308 0.403,-0.298 0.412,-0.285L0.621,-0Z" style="fill-rule:nonzero;"/>
            </g>
            <g transform="matrix(16,0,0,16,952.778,109.383)">
                <path d="M0.754,-0.358C0.754,-0.304 0.745,-0.255 0.728,-0.21C0.711,-0.165 0.687,-0.127 0.656,-0.095C0.625,-0.062 0.588,-0.037 0.544,-0.019C0.501,-0.001 0.453,0.008 0.4,0.008C0.347,0.008 0.299,-0.001 0.256,-0.019C0.213,-0.037 0.175,-0.062 0.145,-0.095C0.114,-0.127 0.09,-0.165 0.073,-0.21C0.055,-0.255 0.047,-0.304 0.047,-0.358C0.047,-0.412 0.055,-0.461 0.073,-0.506C0.09,-0.551 0.114,-0.589 0.145,-0.622C0.175,-0.654 0.213,-0.68 0.256,-0.698C0.299,-0.716 0.347,-0.725 0.4,-0.725C0.453,-0.725 0.501,-0.716 0.544,-0.698C0.588,-0.68 0.625,-0.654 0.656,-0.622C0.687,-0.589 0.711,-0.551 0.728,-0.506C0.745,-0.461 0.754,-0.412 0.754,-0.358ZM0.654,-0.358C0.654,-0.402 0.648,-0.442 0.636,-0.477C0.624,-0.511 0.607,-0.541 0.585,-0.565C0.563,-0.589 0.536,-0.608 0.505,-0.621C0.474,-0.634 0.439,-0.641 0.4,-0.641C0.362,-0.641 0.327,-0.634 0.296,-0.621C0.264,-0.608 0.237,-0.589 0.215,-0.565C0.193,-0.541 0.176,-0.511 0.164,-0.477C0.152,-0.442 0.146,-0.402 0.146,-0.358C0.146,-0.314 0.152,-0.275 0.164,-0.24C0.176,-0.205 0.193,-0.175 0.215,-0.151C0.237,-0.127 0.264,-0.109 0.296,-0.096C0.327,-0.083 0.362,-0.077 0.4,-0.077C0.439,-0.077 0.474,-0.083 0.505,-0.096C0.536,-0.109 0.563,-0.127 0.585,-0.151C0.607,-0.175 0.624,-0.205 0.636,-0.24C0.648,-0.275 0.654,-0.314 0.654,-0.358Z" style="fill-rule:nonzero;"/>
            </g>
            <g transform="matrix(16,0,0,16,965.074,109.383)">
                <path d="M0.576,-0.635L0.344,-0.635L0.344,-0L0.248,-0L0.248,-0.635L0.015,-0.635L0.015,-0.717L0.576,-0.717L0.576,-0.635Z" style="fill-rule:nonzero;"/>
            </g>
            <g transform="matrix(16,0,0,16,932.25,125.383)">
                <path d="M0.303,-0.345C0.331,-0.345 0.355,-0.349 0.376,-0.356C0.397,-0.363 0.415,-0.374 0.43,-0.387C0.444,-0.4 0.455,-0.416 0.463,-0.434C0.47,-0.452 0.474,-0.472 0.474,-0.495C0.474,-0.54 0.459,-0.576 0.431,-0.602C0.403,-0.627 0.36,-0.64 0.303,-0.64L0.188,-0.64L0.188,-0.345L0.303,-0.345ZM0.303,-0.717C0.348,-0.717 0.388,-0.711 0.421,-0.701C0.455,-0.69 0.483,-0.675 0.505,-0.656C0.527,-0.637 0.543,-0.613 0.554,-0.586C0.565,-0.559 0.57,-0.528 0.57,-0.495C0.57,-0.461 0.564,-0.431 0.553,-0.403C0.541,-0.375 0.524,-0.352 0.501,-0.332C0.479,-0.312 0.451,-0.296 0.418,-0.285C0.385,-0.274 0.346,-0.268 0.303,-0.268L0.188,-0.268L0.188,-0L0.092,-0L0.092,-0.717L0.303,-0.717Z" style="fill-rule:nonzero;"/>
            </g>
            <g transform="matrix(16,0,0,16,941.858,125.383)">
                <path d="M0.368,-0.077C0.398,-0.077 0.424,-0.082 0.448,-0.092C0.471,-0.102 0.491,-0.116 0.507,-0.134C0.523,-0.152 0.535,-0.173 0.544,-0.199C0.552,-0.224 0.557,-0.251 0.557,-0.281L0.557,-0.717L0.653,-0.717L0.653,-0.281C0.653,-0.24 0.646,-0.201 0.633,-0.166C0.62,-0.131 0.601,-0.1 0.577,-0.074C0.552,-0.048 0.522,-0.028 0.487,-0.014C0.452,0.001 0.412,0.009 0.368,0.009C0.324,0.009 0.284,0.001 0.249,-0.014C0.214,-0.028 0.184,-0.048 0.159,-0.074C0.134,-0.1 0.115,-0.131 0.102,-0.166C0.089,-0.201 0.083,-0.24 0.083,-0.281L0.083,-0.717L0.179,-0.717L0.179,-0.282C0.179,-0.252 0.183,-0.224 0.192,-0.199C0.2,-0.174 0.213,-0.153 0.229,-0.135C0.245,-0.117 0.265,-0.102 0.288,-0.092C0.312,-0.082 0.338,-0.077 0.368,-0.077Z" style="fill-rule:nonzero;"/>
            </g>
            <g transform="matrix(16,0,0,16,953.626,125.383)">
                <path d="M0.458,-0.605C0.455,-0.6 0.452,-0.596 0.448,-0.593C0.445,-0.591 0.44,-0.59 0.436,-0.59C0.43,-0.59 0.423,-0.592 0.416,-0.598C0.408,-0.604 0.398,-0.61 0.387,-0.617C0.375,-0.624 0.361,-0.63 0.345,-0.636C0.329,-0.641 0.31,-0.644 0.287,-0.644C0.265,-0.644 0.246,-0.641 0.229,-0.635C0.213,-0.629 0.199,-0.622 0.188,-0.612C0.177,-0.602 0.168,-0.59 0.163,-0.576C0.157,-0.563 0.154,-0.548 0.154,-0.533C0.154,-0.513 0.159,-0.496 0.169,-0.483C0.179,-0.47 0.192,-0.458 0.208,-0.449C0.224,-0.44 0.242,-0.432 0.263,-0.425C0.283,-0.418 0.304,-0.411 0.326,-0.404C0.347,-0.396 0.368,-0.388 0.389,-0.379C0.409,-0.37 0.428,-0.358 0.444,-0.344C0.46,-0.33 0.473,-0.313 0.483,-0.293C0.493,-0.272 0.498,-0.247 0.498,-0.218C0.498,-0.186 0.492,-0.157 0.482,-0.129C0.471,-0.102 0.455,-0.078 0.435,-0.058C0.414,-0.037 0.389,-0.021 0.359,-0.01C0.329,0.002 0.296,0.008 0.258,0.008C0.211,0.008 0.169,-0 0.131,-0.017C0.092,-0.034 0.06,-0.057 0.033,-0.086L0.061,-0.132C0.064,-0.135 0.067,-0.138 0.071,-0.141C0.075,-0.143 0.079,-0.145 0.084,-0.145C0.088,-0.145 0.093,-0.143 0.098,-0.139C0.104,-0.136 0.11,-0.131 0.117,-0.126C0.124,-0.121 0.132,-0.115 0.141,-0.109C0.15,-0.102 0.16,-0.096 0.172,-0.091C0.183,-0.086 0.196,-0.081 0.211,-0.078C0.226,-0.074 0.242,-0.073 0.261,-0.073C0.284,-0.073 0.304,-0.076 0.322,-0.082C0.34,-0.088 0.355,-0.097 0.368,-0.109C0.38,-0.12 0.39,-0.134 0.397,-0.15C0.403,-0.166 0.407,-0.184 0.407,-0.204C0.407,-0.225 0.402,-0.243 0.392,-0.257C0.382,-0.271 0.369,-0.282 0.353,-0.292C0.337,-0.301 0.319,-0.309 0.298,-0.315C0.277,-0.322 0.256,-0.328 0.235,-0.335C0.214,-0.342 0.193,-0.35 0.172,-0.359C0.151,-0.368 0.133,-0.38 0.117,-0.394C0.101,-0.408 0.088,-0.426 0.078,-0.448C0.068,-0.469 0.064,-0.496 0.064,-0.528C0.064,-0.553 0.068,-0.577 0.078,-0.601C0.088,-0.625 0.102,-0.646 0.121,-0.664C0.14,-0.682 0.163,-0.697 0.191,-0.708C0.218,-0.719 0.25,-0.725 0.286,-0.725C0.326,-0.725 0.362,-0.718 0.395,-0.706C0.428,-0.693 0.456,-0.675 0.482,-0.651L0.458,-0.605Z" style="fill-rule:nonzero;"/>
            </g>
            <g transform="matrix(16,0,0,16,962.306,125.383)">
                <path d="M0.672,-0.717L0.672,-0L0.575,-0L0.575,-0.326L0.189,-0.326L0.189,-0L0.092,-0L0.092,-0.717L0.189,-0.717L0.189,-0.397L0.575,-0.397L0.575,-0.717L0.672,-0.717Z" style="fill-rule:nonzero;"/>
            </g>
            <g transform="matrix(16,0,0,16,930.65,141.383)">
                <path d="M0.754,-0.358C0.754,-0.304 0.745,-0.255 0.728,-0.21C0.711,-0.165 0.687,-0.127 0.656,-0.095C0.625,-0.062 0.588,-0.037 0.544,-0.019C0.501,-0.001 0.453,0.008 0.4,0.008C0.347,0.008 0.299,-0.001 0.256,-0.019C0.213,-0.037 0.175,-0.062 0.145,-0.095C0.114,-0.127 0.09,-0.165 0.073,-0.21C0.055,-0.255 0.047,-0.304 0.047,-0.358C0.047,-0.412 0.055,-0.461 0.073,-0.506C0.09,-0.551 0.114,-0.589 0.145,-0.622C0.175,-0.654 0.213,-0.68 0.256,-0.698C0.299,-0.716 0.347,-0.725 0.4,-0.725C0.453,-0.725 0.501,-0.716 0.544,-0.698C0.588,-0.68 0.625,-0.654 0.656,-0.622C0.687,-0.589 0.711,-0.551 0.728,-0.506C0.745,-0.461 0.754,-0.412 0.754,-0.358ZM0.654,-0.358C0.654,-0.402 0.648,-0.442 0.636,-0.477C0.624,-0.511 0.607,-0.541 0.585,-0.565C0.563,-0.589 0.536,-0.608 0.505,-0.621C0.474,-0.634 0.439,-0.641 0.4,-0.641C0.362,-0.641 0.327,-0.634 0.296,-0.621C0.264,-0.608 0.237,-0.589 0.215,-0.565C0.193,-0.541 0.176,-0.511 0.164,-0.477C0.152,-0.442 0.146,-0.402 0.146,-0.358C0.146,-0.314 0.152,-0.275 0.164,-0.24C0.176,-0.205 0.193,-0.175 0.215,-0.151C0.237,-0.127 0.264,-0.109 0.296,-0.096C0.327,-0.083 0.362,-0.077 0.4,-0.077C0.439,-0.077 0.474,-0.083 0.505,-0.096C0.536,-0.109 0.563,-0.127 0.585,-0.151C0.607,-0.175 0.624,-0.205 0.636,-0.24C0.648,-0.275 0.654,-0.314 0.654,-0.358Z" style="fill-rule:nonzero;"/>
            </g>
            <g transform="matrix(16,0,0,16,943.458,141.383)">
                <path d="M0.303,-0.345C0.331,-0.345 0.355,-0.349 0.376,-0.356C0.397,-0.363 0.415,-0.374 0.43,-0.387C0.444,-0.4 0.455,-0.416 0.463,-0.434C0.47,-0.452 0.474,-0.472 0.474,-0.495C0.474,-0.54 0.459,-0.576 0.431,-0.602C0.403,-0.627 0.36,-0.64 0.303,-0.64L0.188,-0.64L0.188,-0.345L0.303,-0.345ZM0.303,-0.717C0.348,-0.717 0.388,-0.711 0.421,-0.701C0.455,-0.69 0.483,-0.675 0.505,-0.656C0.527,-0.637 0.543,-0.613 0.554,-0.586C0.565,-0.559 0.57,-0.528 0.57,-0.495C0.57,-0.461 0.564,-0.431 0.553,-0.403C0.541,-0.375 0.524,-0.352 0.501,-0.332C0.479,-0.312 0.451,-0.296 0.418,-0.285C0.385,-0.274 0.346,-0.268 0.303,-0.268L0.188,-0.268L0.188,-0L0.092,-0L0.092,-0.717L0.303,-0.717Z" style="fill-rule:nonzero;"/>
            </g>
            <g transform="matrix(16,0,0,16,953.066,141.383)">
                <path d="M0.534,-0.079L0.533,-0L0.092,-0L0.092,-0.717L0.533,-0.717L0.533,-0.638L0.189,-0.638L0.189,-0.4L0.468,-0.4L0.468,-0.324L0.189,-0.324L0.189,-0.079L0.534,-0.079Z" style="fill-rule:nonzero;"/>
            </g>
            <g transform="matrix(16,0,0,16,962.306,141.383)">
                <path d="M0.672,-0.717L0.672,-0L0.624,-0C0.616,-0 0.609,-0.001 0.604,-0.004C0.599,-0.007 0.594,-0.011 0.589,-0.018L0.175,-0.558C0.175,-0.549 0.176,-0.541 0.176,-0.533C0.176,-0.525 0.177,-0.518 0.177,-0.511L0.177,-0L0.092,-0L0.092,-0.717L0.142,-0.717C0.146,-0.717 0.15,-0.716 0.153,-0.716C0.156,-0.715 0.158,-0.714 0.161,-0.713C0.163,-0.712 0.165,-0.71 0.168,-0.708C0.17,-0.706 0.172,-0.703 0.175,-0.7L0.59,-0.161C0.589,-0.169 0.588,-0.178 0.588,-0.186C0.587,-0.194 0.587,-0.202 0.587,-0.209L0.587,-0.717L0.672,-0.717Z" style="fill-rule:nonzero;"/>
            </g>
        </g>
        <g transform="matrix(1,0,0,1,-144.788,-15.635)">
            <g transform="matrix(16,0,0,16,921.538,109.383)">
                <path d="M0.303,-0.345C0.331,-0.345 0.355,-0.349 0.376,-0.356C0.397,-0.363 0.415,-0.374 0.43,-0.387C0.444,-0.4 0.455,-0.416 0.463,-0.434C0.47,-0.452 0.474,-0.472 0.474,-0.495C0.474,-0.54 0.459,-0.576 0.431,-0.602C0.403,-0.627 0.36,-0.64 0.303,-0.64L0.188,-0.64L0.188,-0.345L0.303,-0.345ZM0.303,-0.717C0.348,-0.717 0.388,-0.711 0.421,-0.701C0.455,-0.69 0.483,-0.675 0.505,-0.656C0.527,-0.637 0.543,-0.613 0.554,-0.586C0.565,-0.559 0.57,-0.528 0.57,-0.495C0.57,-0.461 0.564,-0.431 0.553,-0.403C0.541,-0.375 0.524,-0.352 0.501,-0.332C0.479,-0.312 0.451,-0.296 0.418,-0.285C0.385,-0.274 0.346,-0.268 0.303,-0.268L0.188,-0.268L0.188,-0L0.092,-0L0.092,-0.717L0.303,-0.717Z" style="fill-rule:nonzero;"/>
            </g>
            <g transform="matrix(16,0,0,16,931.146,109.383)">
                <path d="M0.29,-0.37C0.318,-0.37 0.343,-0.373 0.364,-0.38C0.386,-0.387 0.404,-0.396 0.418,-0.409C0.433,-0.421 0.444,-0.436 0.451,-0.454C0.458,-0.471 0.462,-0.49 0.462,-0.511C0.462,-0.554 0.448,-0.586 0.42,-0.608C0.392,-0.629 0.35,-0.64 0.294,-0.64L0.188,-0.64L0.188,-0.37L0.29,-0.37ZM0.621,-0L0.535,-0C0.517,-0 0.504,-0.007 0.496,-0.021L0.31,-0.277C0.304,-0.284 0.298,-0.29 0.292,-0.294C0.285,-0.297 0.275,-0.299 0.262,-0.299L0.188,-0.299L0.188,-0L0.092,-0L0.092,-0.717L0.294,-0.717C0.339,-0.717 0.379,-0.712 0.412,-0.703C0.445,-0.694 0.472,-0.68 0.493,-0.663C0.515,-0.646 0.531,-0.625 0.541,-0.6C0.551,-0.576 0.557,-0.548 0.557,-0.518C0.557,-0.493 0.553,-0.469 0.545,-0.447C0.537,-0.425 0.525,-0.405 0.51,-0.388C0.495,-0.37 0.476,-0.355 0.454,-0.343C0.432,-0.331 0.408,-0.321 0.38,-0.315C0.392,-0.308 0.403,-0.298 0.412,-0.285L0.621,-0Z" style="fill-rule:nonzero;"/>
            </g>
            <g transform="matrix(16,0,0,16,941.058,109.383)">
                <path d="M0.754,-0.358C0.754,-0.304 0.745,-0.255 0.728,-0.21C0.711,-0.165 0.687,-0.127 0.656,-0.095C0.625,-0.062 0.588,-0.037 0.544,-0.019C0.501,-0.001 0.453,0.008 0.4,0.008C0.347,0.008 0.299,-0.001 0.256,-0.019C0.213,-0.037 0.175,-0.062 0.145,-0.095C0.114,-0.127 0.09,-0.165 0.073,-0.21C0.055,-0.255 0.047,-0.304 0.047,-0.358C0.047,-0.412 0.055,-0.461 0.073,-0.506C0.09,-0.551 0.114,-0.589 0.145,-0.622C0.175,-0.654 0.213,-0.68 0.256,-0.698C0.299,-0.716 0.347,-0.725 0.4,-0.725C0.453,-0.725 0.501,-0.716 0.544,-0.698C0.588,-0.68 0.625,-0.654 0.656,-0.622C0.687,-0.589 0.711,-0.551 0.728,-0.506C0.745,-0.461 0.754,-0.412 0.754,-0.358ZM0.654,-0.358C0.654,-0.402 0.648,-0.442 0.636,-0.477C0.624,-0.511 0.607,-0.541 0.585,-0.565C0.563,-0.589 0.536,-0.608 0.505,-0.621C0.474,-0.634 0.439,-0.641 0.4,-0.641C0.362,-0.641 0.327,-0.634 0.296,-0.621C0.264,-0.608 0.237,-0.589 0.215,-0.565C0.193,-0.541 0.176,-0.511 0.164,-0.477C0.152,-0.442 0.146,-0.402 0.146,-0.358C0.146,-0.314 0.152,-0.275 0.164,-0.24C0.176,-0.205 0.193,-0.175 0.215,-0.151C0.237,-0.127 0.264,-0.109 0.296,-0.096C0.327,-0.083 0.362,-0.077 0.4,-0.077C0.439,-0.077 0.474,-0.083 0.505,-0.096C0.536,-0.109 0.563,-0.127 0.585,-0.151C0.607,-0.175 0.624,-0.205 0.636,-0.24C0.648,-0.275 0.654,-0.314 0.654,-0.358Z" style="fill-rule:nonzero;"/>
            </g>
            <g transform="matrix(16,0,0,16,953.866,109.383)">
                <path d="M0.303,-0.345C0.331,-0.345 0.355,-0.349 0.376,-0.356C0.397,-0.363 0.415,-0.374 0.43,-0.387C0.444,-0.4 0.455,-0.416 0.463,-0.434C0.47,-0.452 0.474,-0.472 0.474,-0.495C0.474,-0.54 0.459,-0.576 0.431,-0.602C0.403,-0.627 0.36,-0.64 0.303,-0.64L0.188,-0.64L0.188,-0.345L0.303,-0.345ZM0.303,-0.717C0.348,-0.717 0.388,-0.711 0.421,-0.701C0.455,-0.69 0.483,-0.675 0.505,-0.656C0.527,-0.637 0.543,-0.613 0.554,-0.586C0.565,-0.559 0.57,-0.528 0.57,-0.495C0.57,-0.461 0.564,-0.431 0.553,-0.403C0.541,-0.375 0.524,-0.352 0.501,-0.332C0.479,-0.312 0.451,-0.296 0.418,-0.285C0.385,-0.274 0.346,-0.268 0.303,-0.268L0.188,-0.268L0.188,-0L0.092,-0L0.092,-0.717L0.303,-0.717Z" style="fill-rule:nonzero;"/>
            </g>
            <g transform="matrix(16,0,0,16,921.202,125.383)">
                <path d="M0.303,-0.345C0.331,-0.345 0.355,-0.349 0.376,-0.356C0.397,-0.363 0.415,-0.374 0.43,-0.387C0.444,-0.4 0.455,-0.416 0.463,-0.434C0.47,-0.452 0.474,-0.472 0.474,-0.495C0.474,-0.54 0.459,-0.576 0.431,-0.602C0.403,-0.627 0.36,-0.64 0.303,-0.64L0.188,-0.64L0.188,-0.345L0.303,-0.345ZM0.303,-0.717C0.348,-0.717 0.388,-0.711 0.421,-0.701C0.455,-0.69 0.483,-0.675 0.505,-0.656C0.527,-0.637 0.543,-0.613 0.554,-0.586C0.565,-0.559 0.57,-0.528 0.57,-0.495C0.57,-0.461 0.564,-0.431 0.553,-0.403C0.541,-0.375 0.524,-0.352 0.501,-0.332C0.479,-0.312 0.451,-0.296 0.418,-0.285C0.385,-0.274 0.346,-0.268 0.303,-0.268L0.188,-0.268L0.188,-0L0.092,-0L0.092,-0.717L0.303,-0.717Z" style="fill-rule:nonzero;"/>
            </g>
            <g transform="matrix(16,0,0,16,930.81,125.383)">
                <path d="M0.368,-0.077C0.398,-0.077 0.424,-0.082 0.448,-0.092C0.471,-0.102 0.491,-0.116 0.507,-0.134C0.523,-0.152 0.535,-0.173 0.544,-0.199C0.552,-0.224 0.557,-0.251 0.557,-0.281L0.557,-0.717L0.653,-0.717L0.653,-0.281C0.653,-0.24 0.646,-0.201 0.633,-0.166C0.62,-0.131 0.601,-0.1 0.577,-0.074C0.552,-0.048 0.522,-0.028 0.487,-0.014C0.452,0.001 0.412,0.009 0.368,0.009C0.324,0.009 0.284,0.001 0.249,-0.014C0.214,-0.028 0.184,-0.048 0.159,-0.074C0.134,-0.1 0.115,-0.131 0.102,-0.166C0.089,-0.201 0.083,-0.24 0.083,-0.281L0.083,-0.717L0.179,-0.717L0.179,-0.282C0.179,-0.252 0.183,-0.224 0.192,-0.199C0.2,-0.174 0.213,-0.153 0.229,-0.135C0.245,-0.117 0.265,-0.102 0.288,-0.092C0.312,-0.082 0.338,-0.077 0.368,-0.077Z" style="fill-rule:nonzero;"/>
            </g>
            <g transform="matrix(16,0,0,16,942.578,125.383)">
                <path d="M0.458,-0.605C0.455,-0.6 0.452,-0.596 0.448,-0.593C0.445,-0.591 0.44,-0.59 0.436,-0.59C0.43,-0.59 0.423,-0.592 0.416,-0.598C0.408,-0.604 0.398,-0.61 0.387,-0.617C0.375,-0.624 0.361,-0.63 0.345,-0.636C0.329,-0.641 0.31,-0.644 0.287,-0.644C0.265,-0.644 0.246,-0.641 0.229,-0.635C0.213,-0.629 0.199,-0.622 0.188,-0.612C0.177,-0.602 0.168,-0.59 0.163,-0.576C0.157,-0.563 0.154,-0.548 0.154,-0.533C0.154,-0.513 0.159,-0.496 0.169,-0.483C0.179,-0.47 0.192,-0.458 0.208,-0.449C0.224,-0.44 0.242,-0.432 0.263,-0.425C0.283,-0.418 0.304,-0.411 0.326,-0.404C0.347,-0.396 0.368,-0.388 0.389,-0.379C0.409,-0.37 0.428,-0.358 0.444,-0.344C0.46,-0.33 0.473,-0.313 0.483,-0.293C0.493,-0.272 0.498,-0.247 0.498,-0.218C0.498,-0.186 0.492,-0.157 0.482,-0.129C0.471,-0.102 0.455,-0.078 0.435,-0.058C0.414,-0.037 0.389,-0.021 0.359,-0.01C0.329,0.002 0.296,0.008 0.258,0.008C0.211,0.008 0.169,-0 0.131,-0.017C0.092,-0.034 0.06,-0.057 0.033,-0.086L0.061,-0.132C0.064,-0.135 0.067,-0.138 0.071,-0.141C0.075,-0.143 0.079,-0.145 0.084,-0.145C0.088,-0.145 0.093,-0.143 0.098,-0.139C0.104,-0.136 0.11,-0.131 0.117,-0.126C0.124,-0.121 0.132,-0.115 0.141,-0.109C0.15,-0.102 0.16,-0.096 0.172,-0.091C0.183,-0.086 0.196,-0.081 0.211,-0.078C0.226,-0.074 0.242,-0.073 0.261,-0.073C0.284,-0.073 0.304,-0.076 0.322,-0.082C0.34,-0.088 0.355,-0.097 0.368,-0.109C0.38,-0.12 0.39,-0.134 0.397,-0.15C0.403,-0.166 0.407,-0.184 0.407,-0.204C0.407,-0.225 0.402,-0.243 0.392,-0.257C0.382,-0.271 0.369,-0.282 0.353,-0.292C0.337,-0.301 0.319,-0.309 0.298,-0.315C0.277,-0.322 0.256,-0.328 0.235,-0.335C0.214,-0.342 0.193,-0.35 0.172,-0.359C0.151,-0.368 0.133,-0.38 0.117,-0.394C0.101,-0.408 0.088,-0.426 0.078,-0.448C0.068,-0.469 0.064,-0.496 0.064,-0.528C0.064,-0.553 0.068,-0.577 0.078,-0.601C0.088,-0.625 0.102,-0.646 0.121,-0.664C0.14,-0.682 0.163,-0.697 0.191,-0.708C0.218,-0.719 0.25,-0.725 0.286,-0.725C0.326,-0.725 0.362,-0.718 0.395,-0.706C0.428,-0.693 0.456,-0.675 0.482,-0.651L0.458,-0.605Z" style="fill-rule:nonzero;"/>
            </g>
            <g transform="matrix(16,0,0,16,951.258,125.383)">
                <path d="M0.672,-0.717L0.672,-0L0.575,-0L0.575,-0.326L0.189,-0.326L0.189,-0L0.092,-0L0.092,-0.717L0.189,-0.717L0.189,-0.397L0.575,-0.397L0.575,-0.717L0.672,-0.717Z" style="fill-rule:nonzero;"/>
            </g>
            <g transform="matrix(16,0,0,16,936.09,141.383)">
                <rect x="0.092" y="-0.717" width="0.097" height="0.717" style="fill-rule:nonzero;"/>
            </g>
            <g transform="matrix(16,0,0,16,940.57,141.383)">
                <path d="M0.672,-0.717L0.672,-0L0.624,-0C0.616,-0 0.609,-0.001 0.604,-0.004C0.599,-0.007 0.594,-0.011 0.589,-0.018L0.175,-0.558C0.175,-0.549 0.176,-0.541 0.176,-0.533C0.176,-0.525 0.177,-0.518 0.177,-0.511L0.177,-0L0.092,-0L0.092,-0.717L0.142,-0.717C0.146,-0.717 0.15,-0.716 0.153,-0.716C0.156,-0.715 0.158,-0.714 0.161,-0.713C0.163,-0.712 0.165,-0.71 0.168,-0.708C0.17,-0.706 0.172,-0.703 0.175,-0.7L0.59,-0.161C0.589,-0.169 0.588,-0.178 0.588,-0.186C0.587,-0.194 0.587,-0.202 0.587,-0.209L0.587,-0.717L0.672,-0.717Z" style="fill-rule:nonzero;"/>
            </g>
            <g transform="matrix(16,0,0,16,952.786,141.383)">
                <path d="M0.595,-0.148C0.6,-0.148 0.605,-0.146 0.609,-0.142L0.647,-0.1C0.618,-0.066 0.582,-0.04 0.54,-0.021C0.498,-0.002 0.448,0.008 0.389,0.008C0.337,0.008 0.291,-0.001 0.249,-0.019C0.206,-0.037 0.171,-0.062 0.141,-0.094C0.111,-0.126 0.088,-0.165 0.072,-0.21C0.056,-0.255 0.048,-0.304 0.048,-0.358C0.048,-0.412 0.056,-0.462 0.073,-0.507C0.09,-0.552 0.114,-0.59 0.145,-0.623C0.176,-0.655 0.213,-0.68 0.256,-0.698C0.299,-0.716 0.346,-0.725 0.398,-0.725C0.449,-0.725 0.494,-0.716 0.533,-0.7C0.572,-0.684 0.606,-0.662 0.636,-0.634L0.604,-0.589C0.602,-0.586 0.599,-0.583 0.596,-0.581C0.593,-0.579 0.589,-0.578 0.584,-0.578C0.578,-0.578 0.57,-0.581 0.562,-0.587C0.553,-0.594 0.542,-0.601 0.528,-0.609C0.514,-0.617 0.496,-0.624 0.475,-0.631C0.454,-0.637 0.428,-0.641 0.398,-0.641C0.361,-0.641 0.327,-0.634 0.296,-0.621C0.265,-0.608 0.239,-0.59 0.217,-0.566C0.195,-0.541 0.177,-0.511 0.165,-0.477C0.153,-0.442 0.147,-0.402 0.147,-0.358C0.147,-0.313 0.153,-0.274 0.166,-0.239C0.179,-0.204 0.196,-0.174 0.218,-0.15C0.24,-0.126 0.267,-0.107 0.297,-0.095C0.327,-0.082 0.36,-0.076 0.395,-0.076C0.416,-0.076 0.435,-0.077 0.452,-0.079C0.469,-0.082 0.485,-0.086 0.5,-0.091C0.514,-0.096 0.528,-0.103 0.54,-0.111C0.553,-0.119 0.565,-0.129 0.578,-0.141C0.583,-0.146 0.589,-0.148 0.595,-0.148Z" style="fill-rule:nonzero;"/>
            </g>
            <g transform="matrix(16,0,0,16,928.986,157.383)">
                <path d="M0.29,-0.37C0.318,-0.37 0.343,-0.373 0.364,-0.38C0.386,-0.387 0.404,-0.396 0.418,-0.409C0.433,-0.421 0.444,-0.436 0.451,-0.454C0.458,-0.471 0.462,-0.49 0.462,-0.511C0.462,-0.554 0.448,-0.586 0.42,-0.608C0.392,-0.629 0.35,-0.64 0.294,-0.64L0.188,-0.64L0.188,-0.37L0.29,-0.37ZM0.621,-0L0.535,-0C0.517,-0 0.504,-0.007 0.496,-0.021L0.31,-0.277C0.304,-0.284 0.298,-0.29 0.292,-0.294C0.285,-0.297 0.275,-0.299 0.262,-0.299L0.188,-0.299L0.188,-0L0.092,-0L0.092,-0.717L0.294,-0.717C0.339,-0.717 0.379,-0.712 0.412,-0.703C0.445,-0.694 0.472,-0.68 0.493,-0.663C0.515,-0.646 0.531,-0.625 0.541,-0.6C0.551,-0.576 0.557,-0.548 0.557,-0.518C0.557,-0.493 0.553,-0.469 0.545,-0.447C0.537,-0.425 0.525,-0.405 0.51,-0.388C0.495,-0.37 0.476,-0.355 0.454,-0.343C0.432,-0.331 0.408,-0.321 0.38,-0.315C0.392,-0.308 0.403,-0.298 0.412,-0.285L0.621,-0Z" style="fill-rule:nonzero;"/>
            </g>
            <g transform="matrix(16,0,0,16,939.01,157.383)">
                <path d="M0.303,-0.345C0.331,-0.345 0.355,-0.349 0.376,-0.356C0.397,-0.363 0.415,-0.374 0.43,-0.387C0.444,-0.4 0.455,-0.416 0.463,-0.434C0.47,-0.452 0.474,-0.472 0.474,-0.495C0.474,-0.54 0.459,-0.576 0.431,-0.602C0.403,-0.627 0.36,-0.64 0.303,-0.64L0.188,-0.64L0.188,-0.345L0.303,-0.345ZM0.303,-0.717C0.348,-0.717 0.388,-0.711 0.421,-0.701C0.455,-0.69 0.483,-0.675 0.505,-0.656C0.527,-0.637 0.543,-0.613 0.554,-0.586C0.565,-0.559 0.57,-0.528 0.57,-0.495C0.57,-0.461 0.564,-0.431 0.553,-0.403C0.541,-0.375 0.524,-0.352 0.501,-0.332C0.479,-0.312 0.451,-0.296 0.418,-0.285C0.385,-0.274 0.346,-0.268 0.303,-0.268L0.188,-0.268L0.188,-0L0.092,-0L0.092,-0.717L0.303,-0.717Z" style="fill-rule:nonzero;"/>
            </g>
            <g transform="matrix(16,0,0,16,948.618,157.383)">
                <path d="M0.837,-0.717L0.837,-0L0.752,-0L0.752,-0.527C0.752,-0.534 0.752,-0.541 0.753,-0.549C0.753,-0.557 0.754,-0.565 0.755,-0.574L0.509,-0.126C0.501,-0.111 0.489,-0.103 0.474,-0.103L0.46,-0.103C0.444,-0.103 0.432,-0.111 0.425,-0.126L0.174,-0.576C0.175,-0.558 0.177,-0.542 0.177,-0.527L0.177,-0L0.092,-0L0.092,-0.717L0.163,-0.717C0.172,-0.717 0.178,-0.716 0.183,-0.714C0.188,-0.712 0.192,-0.708 0.197,-0.7L0.444,-0.259C0.448,-0.251 0.452,-0.243 0.456,-0.234C0.46,-0.225 0.463,-0.217 0.467,-0.208C0.47,-0.217 0.473,-0.225 0.477,-0.234C0.481,-0.243 0.485,-0.252 0.489,-0.26L0.732,-0.7C0.736,-0.708 0.74,-0.712 0.745,-0.714C0.75,-0.716 0.757,-0.717 0.766,-0.717L0.837,-0.717Z" style="fill-rule:nonzero;"/>
            </g>
        </g>
        <g transform="matrix(1,0,0,1,-277.821,106.834)">
            <g transform="matrix(16,0,0,16,935.146,109.383)">
                <path d="M0.472,-0.266L0.36,-0.558C0.356,-0.566 0.353,-0.576 0.349,-0.588C0.345,-0.599 0.342,-0.612 0.339,-0.625C0.332,-0.598 0.324,-0.575 0.317,-0.557L0.205,-0.266L0.472,-0.266ZM0.674,-0L0.599,-0C0.59,-0 0.583,-0.002 0.578,-0.007C0.573,-0.011 0.569,-0.016 0.566,-0.023L0.499,-0.196L0.178,-0.196L0.111,-0.023C0.109,-0.017 0.105,-0.012 0.099,-0.007C0.093,-0.002 0.086,-0 0.078,-0L0.003,-0L0.29,-0.717L0.388,-0.717L0.674,-0Z" style="fill-rule:nonzero;"/>
            </g>
            <g transform="matrix(16,0,0,16,945.978,109.383)">
                <path d="M0.498,-0.082L0.498,-0L0.092,-0L0.092,-0.717L0.188,-0.717L0.188,-0.082L0.498,-0.082Z" style="fill-rule:nonzero;"/>
            </g>
            <g transform="matrix(16,0,0,16,952.69,109.383)">
                <path d="M0.576,-0.635L0.344,-0.635L0.344,-0L0.248,-0L0.248,-0.635L0.015,-0.635L0.015,-0.717L0.576,-0.717L0.576,-0.635Z" style="fill-rule:nonzero;"/>
            </g>
            <g transform="matrix(16,0,0,16,965.754,109.383)">
                <path d="M0.458,-0.605C0.455,-0.6 0.452,-0.596 0.448,-0.593C0.445,-0.591 0.44,-0.59 0.436,-0.59C0.43,-0.59 0.423,-0.592 0.416,-0.598C0.408,-0.604 0.398,-0.61 0.387,-0.617C0.375,-0.624 0.361,-0.63 0.345,-0.636C0.329,-0.641 0.31,-0.644 0.287,-0.644C0.265,-0.644 0.246,-0.641 0.229,-0.635C0.213,-0.629 0.199,-0.622 0.188,-0.612C0.177,-0.602 0.168,-0.59 0.163,-0.576C0.157,-0.563 0.154,-0.548 0.154,-0.533C0.154,-0.513 0.159,-0.496 0.169,-0.483C0.179,-0.47 0.192,-0.458 0.208,-0.449C0.224,-0.44 0.242,-0.432 0.263,-0.425C0.283,-0.418 0.304,-0.411 0.326,-0.404C0.347,-0.396 0.368,-0.388 0.389,-0.379C0.409,-0.37 0.428,-0.358 0.444,-0.344C0.46,-0.33 0.473,-0.313 0.483,-0.293C0.493,-0.272 0.498,-0.247 0.498,-0.218C0.498,-0.186 0.492,-0.157 0.482,-0.129C0.471,-0.102 0.455,-0.078 0.435,-0.058C0.414,-0.037 0.389,-0.021 0.359,-0.01C0.329,0.002 0.296,0.008 0.258,0.008C0.211,0.008 0.169,-0 0.131,-0.017C0.092,-0.034 0.06,-0.057 0.033,-0.086L0.061,-0.132C0.064,-0.135 0.067,-0.138 0.071,-0.141C0.075,-0.143 0.079,-0.145 0.084,-0.145C0.088,-0.145 0.093,-0.143 0.098,-0.139C0.104,-0.136 0.11,-0.131 0.117,-0.126C0.124,-0.121 0.132,-0.115 0.141,-0.109C0.15,-0.102 0.16,-0.096 0.172,-0.091C0.183,-0.086 0.196,-0.081 0.211,-0.078C0.226,-0.074 0.242,-0.073 0.261,-0.073C0.284,-0.073 0.304,-0.076 0.322,-0.082C0.34,-0.088 0.355,-0.097 0.368,-0.109C0.38,-0.12 0.39,-0.134 0.397,-0.15C0.403,-0.166 0.407,-0.184 0.407,-0.204C0.407,-0.225 0.402,-0.243 0.392,-0.257C0.382,-0.271 0.369,-0.282 0.353,-0.292C0.337,-0.301 0.319,-0.309 0.298,-0.315C0.277,-0.322 0.256,-0.328 0.235,-0.335C0.214,-0.342 0.193,-0.35 0.172,-0.359C0.151,-0.368 0.133,-0.38 0.117,-0.394C0.101,-0.408 0.088,-0.426 0.078,-0.448C0.068,-0.469 0.064,-0.496 0.064,-0.528C0.064,-0.553 0.068,-0.577 0.078,-0.601C0.088,-0.625 0.102,-0.646 0.121,-0.664C0.14,-0.682 0.163,-0.697 0.191,-0.708C0.218,-0.719 0.25,-0.725 0.286,-0.725C0.326,-0.725 0.362,-0.718 0.395,-0.706C0.428,-0.693 0.456,-0.675 0.482,-0.651L0.458,-0.605Z" style="fill-rule:nonzero;"/>
            </g>
            <g transform="matrix(16,0,0,16,974.434,109.383)">
                <path d="M0.576,-0.635L0.344,-0.635L0.344,-0L0.248,-0L0.248,-0.635L0.015,-0.635L0.015,-0.717L0.576,-0.717L0.576,-0.635Z" style="fill-rule:nonzero;"/>
            </g>
            <g transform="matrix(16,0,0,16,982.762,109.383)">
                <path d="M0.472,-0.266L0.36,-0.558C0.356,-0.566 0.353,-0.576 0.349,-0.588C0.345,-0.599 0.342,-0.612 0.339,-0.625C0.332,-0.598 0.324,-0.575 0.317,-0.557L0.205,-0.266L0.472,-0.266ZM0.674,-0L0.599,-0C0.59,-0 0.583,-0.002 0.578,-0.007C0.573,-0.011 0.569,-0.016 0.566,-0.023L0.499,-0.196L0.178,-0.196L0.111,-0.023C0.109,-0.017 0.105,-0.012 0.099,-0.007C0.093,-0.002 0.086,-0 0.078,-0L0.003,-0L0.29,-0.717L0.388,-0.717L0.674,-0Z" style="fill-rule:nonzero;"/>
            </g>
            <g transform="matrix(16,0,0,16,992.466,109.383)">
                <path d="M0.576,-0.635L0.344,-0.635L0.344,-0L0.248,-0L0.248,-0.635L0.015,-0.635L0.015,-0.717L0.576,-0.717L0.576,-0.635Z" style="fill-rule:nonzero;"/>
            </g>
            <g transform="matrix(16,0,0,16,1001.91,109.383)">
                <rect x="0.092" y="-0.717" width="0.097" height="0.717" style="fill-rule:nonzero;"/>
            </g>
            <g transform="matrix(16,0,0,16,1006.39,109.383)">
                <path d="M0.595,-0.148C0.6,-0.148 0.605,-0.146 0.609,-0.142L0.647,-0.1C0.618,-0.066 0.582,-0.04 0.54,-0.021C0.498,-0.002 0.448,0.008 0.389,0.008C0.337,0.008 0.291,-0.001 0.249,-0.019C0.206,-0.037 0.171,-0.062 0.141,-0.094C0.111,-0.126 0.088,-0.165 0.072,-0.21C0.056,-0.255 0.048,-0.304 0.048,-0.358C0.048,-0.412 0.056,-0.462 0.073,-0.507C0.09,-0.552 0.114,-0.59 0.145,-0.623C0.176,-0.655 0.213,-0.68 0.256,-0.698C0.299,-0.716 0.346,-0.725 0.398,-0.725C0.449,-0.725 0.494,-0.716 0.533,-0.7C0.572,-0.684 0.606,-0.662 0.636,-0.634L0.604,-0.589C0.602,-0.586 0.599,-0.583 0.596,-0.581C0.593,-0.579 0.589,-0.578 0.584,-0.578C0.578,-0.578 0.57,-0.581 0.562,-0.587C0.553,-0.594 0.542,-0.601 0.528,-0.609C0.514,-0.617 0.496,-0.624 0.475,-0.631C0.454,-0.637 0.428,-0.641 0.398,-0.641C0.361,-0.641 0.327,-0.634 0.296,-0.621C0.265,-0.608 0.239,-0.59 0.217,-0.566C0.195,-0.541 0.177,-0.511 0.165,-0.477C0.153,-0.442 0.147,-0.402 0.147,-0.358C0.147,-0.313 0.153,-0.274 0.166,-0.239C0.179,-0.204 0.196,-0.174 0.218,-0.15C0.24,-0.126 0.267,-0.107 0.297,-0.095C0.327,-0.082 0.36,-0.076 0.395,-0.076C0.416,-0.076 0.435,-0.077 0.452,-0.079C0.469,-0.082 0.485,-0.086 0.5,-0.091C0.514,-0.096 0.528,-0.103 0.54,-0.111C0.553,-0.119 0.565,-0.129 0.578,-0.141C0.583,-0.146 0.589,-0.148 0.595,-0.148Z" style="fill-rule:nonzero;"/>
            </g>
            <g transform="matrix(16,0,0,16,921.202,125.383)">
                <path d="M0.472,-0.266L0.36,-0.558C0.356,-0.566 0.353,-0.576 0.349,-0.588C0.345,-0.599 0.342,-0.612 0.339,-0.625C0.332,-0.598 0.324,-0.575 0.317,-0.557L0.205,-0.266L0.472,-0.266ZM0.674,-0L0.599,-0C0.59,-0 0.583,-0.002 0.578,-0.007C0.573,-0.011 0.569,-0.016 0.566,-0.023L0.499,-0.196L0.178,-0.196L0.111,-0.023C0.109,-0.017 0.105,-0.012 0.099,-0.007C0.093,-0.002 0.086,-0 0.078,-0L0.003,-0L0.29,-0.717L0.388,-0.717L0.674,-0Z" style="fill-rule:nonzero;"/>
            </g>
            <g transform="matrix(16,0,0,16,932.034,125.383)">
                <rect x="0.092" y="-0.717" width="0.097" height="0.717" style="fill-rule:nonzero;"/>
            </g>
            <g transform="matrix(16,0,0,16,936.514,125.383)">
                <path d="M0.29,-0.37C0.318,-0.37 0.343,-0.373 0.364,-0.38C0.386,-0.387 0.404,-0.396 0.418,-0.409C0.433,-0.421 0.444,-0.436 0.451,-0.454C0.458,-0.471 0.462,-0.49 0.462,-0.511C0.462,-0.554 0.448,-0.586 0.42,-0.608C0.392,-0.629 0.35,-0.64 0.294,-0.64L0.188,-0.64L0.188,-0.37L0.29,-0.37ZM0.621,-0L0.535,-0C0.517,-0 0.504,-0.007 0.496,-0.021L0.31,-0.277C0.304,-0.284 0.298,-0.29 0.292,-0.294C0.285,-0.297 0.275,-0.299 0.262,-0.299L0.188,-0.299L0.188,-0L0.092,-0L0.092,-0.717L0.294,-0.717C0.339,-0.717 0.379,-0.712 0.412,-0.703C0.445,-0.694 0.472,-0.68 0.493,-0.663C0.515,-0.646 0.531,-0.625 0.541,-0.6C0.551,-0.576 0.557,-0.548 0.557,-0.518C0.557,-0.493 0.553,-0.469 0.545,-0.447C0.537,-0.425 0.525,-0.405 0.51,-0.388C0.495,-0.37 0.476,-0.355 0.454,-0.343C0.432,-0.331 0.408,-0.321 0.38,-0.315C0.392,-0.308 0.403,-0.298 0.412,-0.285L0.621,-0Z" style="fill-rule:nonzero;"/>
            </g>
            <g transform="matrix(16,0,0,16,950.634,125.383)">
                <path d="M0.303,-0.345C0.331,-0.345 0.355,-0.349 0.376,-0.356C0.397,-0.363 0.415,-0.374 0.43,-0.387C0.444,-0.4 0.455,-0.416 0.463,-0.434C0.47,-0.452 0.474,-0.472 0.474,-0.495C0.474,-0.54 0.459,-0.576 0.431,-0.602C0.403,-0.627 0.36,-0.64 0.303,-0.64L0.188,-0.64L0.188,-0.345L0.303,-0.345ZM0.303,-0.717C0.348,-0.717 0.388,-0.711 0.421,-0.701C0.455,-0.69 0.483,-0.675 0.505,-0.656C0.527,-0.637 0.543,-0.613 0.554,-0.586C0.565,-0.559 0.57,-0.528 0.57,-0.495C0.57,-0.461 0.564,-0.431 0.553,-0.403C0.541,-0.375 0.524,-0.352 0.501,-0.332C0.479,-0.312 0.451,-0.296 0.418,-0.285C0.385,-0.274 0.346,-0.268 0.303,-0.268L0.188,-0.268L0.188,-0L0.092,-0L0.092,-0.717L0.303,-0.717Z" style="fill-rule:nonzero;"/>
            </g>
            <g transform="matrix(16,0,0,16,960.242,125.383)">
                <path d="M0.368,-0.077C0.398,-0.077 0.424,-0.082 0.448,-0.092C0.471,-0.102 0.491,-0.116 0.507,-0.134C0.523,-0.152 0.535,-0.173 0.544,-0.199C0.552,-0.224 0.557,-0.251 0.557,-0.281L0.557,-0.717L0.653,-0.717L0.653,-0.281C0.653,-0.24 0.646,-0.201 0.633,-0.166C0.62,-0.131 0.601,-0.1 0.577,-0.074C0.552,-0.048 0.522,-0.028 0.487,-0.014C0.452,0.001 0.412,0.009 0.368,0.009C0.324,0.009 0.284,0.001 0.249,-0.014C0.214,-0.028 0.184,-0.048 0.159,-0.074C0.134,-0.1 0.115,-0.131 0.102,-0.166C0.089,-0.201 0.083,-0.24 0.083,-0.281L0.083,-0.717L0.179,-0.717L0.179,-0.282C0.179,-0.252 0.183,-0.224 0.192,-0.199C0.2,-0.174 0.213,-0.153 0.229,-0.135C0.245,-0.117 0.265,-0.102 0.288,-0.092C0.312,-0.082 0.338,-0.077 0.368,-0.077Z" style="fill-rule:nonzero;"/>
            </g>
            <g transform="matrix(16,0,0,16,972.01,125.383)">
                <path d="M0.498,-0.082L0.498,-0L0.092,-0L0.092,-0.717L0.188,-0.717L0.188,-0.082L0.498,-0.082Z" style="fill-rule:nonzero;"/>
            </g>
            <g transform="matrix(16,0,0,16,980.226,125.383)">
                <path d="M0.498,-0.082L0.498,-0L0.092,-0L0.092,-0.717L0.188,-0.717L0.188,-0.082L0.498,-0.082Z" style="fill-rule:nonzero;"/>
            </g>
            <g transform="matrix(16,0,0,16,992.058,125.383)">
                <path d="M0.754,-0.358C0.754,-0.304 0.745,-0.255 0.728,-0.21C0.711,-0.165 0.687,-0.127 0.656,-0.095C0.625,-0.062 0.588,-0.037 0.544,-0.019C0.501,-0.001 0.453,0.008 0.4,0.008C0.347,0.008 0.299,-0.001 0.256,-0.019C0.213,-0.037 0.175,-0.062 0.145,-0.095C0.114,-0.127 0.09,-0.165 0.073,-0.21C0.055,-0.255 0.047,-0.304 0.047,-0.358C0.047,-0.412 0.055,-0.461 0.073,-0.506C0.09,-0.551 0.114,-0.589 0.145,-0.622C0.175,-0.654 0.213,-0.68 0.256,-0.698C0.299,-0.716 0.347,-0.725 0.4,-0.725C0.453,-0.725 0.501,-0.716 0.544,-0.698C0.588,-0.68 0.625,-0.654 0.656,-0.622C0.687,-0.589 0.711,-0.551 0.728,-0.506C0.745,-0.461 0.754,-0.412 0.754,-0.358ZM0.654,-0.358C0.654,-0.402 0.648,-0.442 0.636,-0.477C0.624,-0.511 0.607,-0.541 0.585,-0.565C0.563,-0.589 0.536,-0.608 0.505,-0.621C0.474,-0.634 0.439,-0.641 0.4,-0.641C0.362,-0.641 0.327,-0.634 0.296,-0.621C0.264,-0.608 0.237,-0.589 0.215,-0.565C0.193,-0.541 0.176,-0.511 0.164,-0.477C0.152,-0.442 0.146,-0.402 0.146,-0.358C0.146,-0.314 0.152,-0.275 0.164,-0.24C0.176,-0.205 0.193,-0.175 0.215,-0.151C0.237,-0.127 0.264,-0.109 0.296,-0.096C0.327,-0.083 0.362,-0.077 0.4,-0.077C0.439,-0.077 0.474,-0.083 0.505,-0.096C0.536,-0.109 0.563,-0.127 0.585,-0.151C0.607,-0.175 0.624,-0.205 0.636,-0.24C0.648,-0.275 0.654,-0.314 0.654,-0.358Z" style="fill-rule:nonzero;"/>
            </g>
            <g transform="matrix(16,0,0,16,1004.87,125.383)">
                <path d="M0.672,-0.717L0.672,-0L0.624,-0C0.616,-0 0.609,-0.001 0.604,-0.004C0.599,-0.007 0.594,-0.011 0.589,-0.018L0.175,-0.558C0.175,-0.549 0.176,-0.541 0.176,-0.533C0.176,-0.525 0.177,-0.518 0.177,-0.511L0.177,-0L0.092,-0L0.092,-0.717L0.142,-0.717C0.146,-0.717 0.15,-0.716 0.153,-0.716C0.156,-0.715 0.158,-0.714 0.161,-0.713C0.163,-0.712 0.165,-0.71 0.168,-0.708C0.17,-0.706 0.172,-0.703 0.175,-0.7L0.59,-0.161C0.589,-0.169 0.588,-0.178 0.588,-0.186C0.587,-0.194 0.587,-0.202 0.587,-0.209L0.587,-0.717L0.672,-0.717Z" style="fill-rule:nonzero;"/>
            </g>
        </g>
        <g transform="matrix(1,0,0,1,20.2625,-7.69902)">
            <g transform="matrix(16,0,0,16,931.986,109.383)">
                <path d="M0.837,-0.717L0.837,-0L0.752,-0L0.752,-0.527C0.752,-0.534 0.752,-0.541 0.753,-0.549C0.753,-0.557 0.754,-0.565 0.755,-0.574L0.509,-0.126C0.501,-0.111 0.489,-0.103 0.474,-0.103L0.46,-0.103C0.444,-0.103 0.432,-0.111 0.425,-0.126L0.174,-0.576C0.175,-0.558 0.177,-0.542 0.177,-0.527L0.177,-0L0.092,-0L0.092,-0.717L0.163,-0.717C0.172,-0.717 0.178,-0.716 0.183,-0.714C0.188,-0.712 0.192,-0.708 0.197,-0.7L0.444,-0.259C0.448,-0.251 0.452,-0.243 0.456,-0.234C0.46,-0.225 0.463,-0.217 0.467,-0.208C0.47,-0.217 0.473,-0.225 0.477,-0.234C0.481,-0.243 0.485,-0.252 0.489,-0.26L0.732,-0.7C0.736,-0.708 0.74,-0.712 0.745,-0.714C0.75,-0.716 0.757,-0.717 0.766,-0.717L0.837,-0.717Z" style="fill-rule:nonzero;"/>
            </g>
            <g transform="matrix(16,0,0,16,946.842,109.383)">
                <rect x="0.092" y="-0.717" width="0.097" height="0.717" style="fill-rule:nonzero;"/>
            </g>
            <g transform="matrix(16,0,0,16,951.322,109.383)">
                <path d="M0.638,-0L0.542,-0C0.535,-0 0.529,-0.002 0.525,-0.006C0.521,-0.01 0.517,-0.014 0.515,-0.019L0.323,-0.32C0.32,-0.312 0.317,-0.305 0.314,-0.299L0.127,-0.019C0.123,-0.014 0.12,-0.01 0.116,-0.006C0.112,-0.002 0.107,-0 0.1,-0L0.01,-0L0.257,-0.368L0.02,-0.717L0.117,-0.717C0.124,-0.717 0.129,-0.715 0.132,-0.713C0.135,-0.711 0.138,-0.707 0.141,-0.703L0.328,-0.416C0.33,-0.423 0.334,-0.431 0.339,-0.439L0.515,-0.701C0.518,-0.706 0.521,-0.709 0.525,-0.712C0.528,-0.715 0.533,-0.717 0.538,-0.717L0.63,-0.717L0.393,-0.373L0.638,-0Z" style="fill-rule:nonzero;"/>
            </g>
            <g transform="matrix(16,0,0,16,923.898,125.383)">
                <path d="M0.303,-0.345C0.331,-0.345 0.355,-0.349 0.376,-0.356C0.397,-0.363 0.415,-0.374 0.43,-0.387C0.444,-0.4 0.455,-0.416 0.463,-0.434C0.47,-0.452 0.474,-0.472 0.474,-0.495C0.474,-0.54 0.459,-0.576 0.431,-0.602C0.403,-0.627 0.36,-0.64 0.303,-0.64L0.188,-0.64L0.188,-0.345L0.303,-0.345ZM0.303,-0.717C0.348,-0.717 0.388,-0.711 0.421,-0.701C0.455,-0.69 0.483,-0.675 0.505,-0.656C0.527,-0.637 0.543,-0.613 0.554,-0.586C0.565,-0.559 0.57,-0.528 0.57,-0.495C0.57,-0.461 0.564,-0.431 0.553,-0.403C0.541,-0.375 0.524,-0.352 0.501,-0.332C0.479,-0.312 0.451,-0.296 0.418,-0.285C0.385,-0.274 0.346,-0.268 0.303,-0.268L0.188,-0.268L0.188,-0L0.092,-0L0.092,-0.717L0.303,-0.717Z" style="fill-rule:nonzero;"/>
            </g>
            <g transform="matrix(16,0,0,16,933.506,125.383)">
                <path d="M0.368,-0.077C0.398,-0.077 0.424,-0.082 0.448,-0.092C0.471,-0.102 0.491,-0.116 0.507,-0.134C0.523,-0.152 0.535,-0.173 0.544,-0.199C0.552,-0.224 0.557,-0.251 0.557,-0.281L0.557,-0.717L0.653,-0.717L0.653,-0.281C0.653,-0.24 0.646,-0.201 0.633,-0.166C0.62,-0.131 0.601,-0.1 0.577,-0.074C0.552,-0.048 0.522,-0.028 0.487,-0.014C0.452,0.001 0.412,0.009 0.368,0.009C0.324,0.009 0.284,0.001 0.249,-0.014C0.214,-0.028 0.184,-0.048 0.159,-0.074C0.134,-0.1 0.115,-0.131 0.102,-0.166C0.089,-0.201 0.083,-0.24 0.083,-0.281L0.083,-0.717L0.179,-0.717L0.179,-0.282C0.179,-0.252 0.183,-0.224 0.192,-0.199C0.2,-0.174 0.213,-0.153 0.229,-0.135C0.245,-0.117 0.265,-0.102 0.288,-0.092C0.312,-0.082 0.338,-0.077 0.368,-0.077Z" style="fill-rule:nonzero;"/>
            </g>
            <g transform="matrix(16,0,0,16,945.274,125.383)">
                <path d="M0.498,-0.082L0.498,-0L0.092,-0L0.092,-0.717L0.188,-0.717L0.188,-0.082L0.498,-0.082Z" style="fill-rule:nonzero;"/>
            </g>
            <g transform="matrix(16,0,0,16,953.49,125.383)">
                <path d="M0.498,-0.082L0.498,-0L0.092,-0L0.092,-0.717L0.188,-0.717L0.188,-0.082L0.498,-0.082Z" style="fill-rule:nonzero;"/>
            </g>
            <g transform="matrix(16,0,0,16,921.202,141.383)">
                <path d="M0.498,-0.082L0.498,-0L0.092,-0L0.092,-0.717L0.188,-0.717L0.188,-0.082L0.498,-0.082Z" style="fill-rule:nonzero;"/>
            </g>
            <g transform="matrix(16,0,0,16,929.418,141.383)">
                <path d="M0.534,-0.079L0.533,-0L0.092,-0L0.092,-0.717L0.533,-0.717L0.533,-0.638L0.189,-0.638L0.189,-0.4L0.468,-0.4L0.468,-0.324L0.189,-0.324L0.189,-0.079L0.534,-0.079Z" style="fill-rule:nonzero;"/>
            </g>
            <g transform="matrix(16,0,0,16,938.658,141.383)">
                <path d="M0.472,-0.266L0.36,-0.558C0.356,-0.566 0.353,-0.576 0.349,-0.588C0.345,-0.599 0.342,-0.612 0.339,-0.625C0.332,-0.598 0.324,-0.575 0.317,-0.557L0.205,-0.266L0.472,-0.266ZM0.674,-0L0.599,-0C0.59,-0 0.583,-0.002 0.578,-0.007C0.573,-0.011 0.569,-0.016 0.566,-0.023L0.499,-0.196L0.178,-0.196L0.111,-0.023C0.109,-0.017 0.105,-0.012 0.099,-0.007C0.093,-0.002 0.086,-0 0.078,-0L0.003,-0L0.29,-0.717L0.388,-0.717L0.674,-0Z" style="fill-rule:nonzero;"/>
            </g>
            <g transform="matrix(16,0,0,16,949.49,141.383)">
                <path d="M0.672,-0.717L0.672,-0L0.624,-0C0.616,-0 0.609,-0.001 0.604,-0.004C0.599,-0.007 0.594,-0.011 0.589,-0.018L0.175,-0.558C0.175,-0.549 0.176,-0.541 0.176,-0.533C0.176,-0.525 0.177,-0.518 0.177,-0.511L0.177,-0L0.092,-0L0.092,-0.717L0.142,-0.717C0.146,-0.717 0.15,-0.716 0.153,-0.716C0.156,-0.715 0.158,-0.714 0.161,-0.713C0.163,-0.712 0.165,-0.71 0.168,-0.708C0.17,-0.706 0.172,-0.703 0.175,-0.7L0.59,-0.161C0.589,-0.169 0.588,-0.178 0.588,-0.186C0.587,-0.194 0.587,-0.202 0.587,-0.209L0.587,-0.717L0.672,-0.717Z" style="fill-rule:nonzero;"/>
            </g>
        </g>
    </g>
</svg>
