<?xml version="1.0" standalone="no"?>
<!DOCTYPE svg PUBLIC "-//W3C//DTD SVG 1.1//EN"
  "http://www.w3.org/Graphics/SVG/1.1/DTD/svg11.dtd">
<svg width="154.39999389648438mm" height="259.17401123046875mm" viewBox="-77.19999694824219 -129.58700561523438 154.39999389648438 259.17401123046875" xmlns="http://www.w3.org/2000/svg" version="1.1">
	<title>svgOutput</title>
	<desc>made with tinkercad</desc>
<path d="M -76.19999694824219 128.58700561523438 L -76.19999694824219 122.87999725341797 L -76.19999694824219 114.68800354003906 L -76.19999694824219 98.30400085449219 L -76.19999694824219 65.53600311279297 L -76.19999694824219 1.1102230246251565e-16 L -76.19999694824219 -65.53600311279297 L -76.19999694824219 -98.30400085449219 L -76.19999694824219 -114.68800354003906 L -76.19999694824219 -122.87999725341797 L -76.19999694824219 -123.86909484863281 L -76.19999694824219 -124.97489929199219 L -76.19999694824219 -126.19924926757812 L -76.19999694824219 -127.60193634033203 L -76.19999694824219 -128.58700561523438 L -75.13825988769531 -128.58700561523438 L -73.12200164794922 -128.58700561523438 L -71.64801025390625 -128.58700561523438 L -70.41127014160156 -128.58700561523438 L -65.53600311279297 -128.58700561523438 L -52.32400131225586 -128.58700561523438 L 0 -128.58700561523438 L 2.3397278785705566 -128.58700561523438 L 65.53600311279297 -128.58700561523438 L 66.5780029296875 -128.58700561523438 L 68.05198669433594 -128.58700561523438 L 69.28873443603516 -128.58700561523438 L 70.41116333007812 -128.58700561523438 L 76.19999694824219 -128.58700561523438 L 76.19999694824219 -122.87999725341797 L 76.19999694824219 -114.68800354003906 L 76.19999694824219 -98.30400085449219 L 76.19999694824219 -65.53600311279297 L 76.19999694824219 1.1102230246251565e-16 L 76.19999694824219 65.53600311279297 L 76.19999694824219 98.30400085449219 L 76.19999694824219 114.68800354003906 L 76.19999694824219 122.87999725341797 L 76.19999694824219 128.58700561523438 L 65.53600311279297 128.58700561523438 L 32.768001556396484 128.58700561523438 L 0 128.58700561523438 L -65.53600311279297 128.58700561523438 L -69.28883361816406 128.58700561523438 L -70.41116333007812 128.58700561523438 L -76.19999694824219 128.58700561523438 M 67.6989974975586 122.61699676513672 L 67.76903533935547 122.87999725341797 L 67.7969970703125 122.98500061035156 L 67.95800018310547 123.33000183105469 L 68.177001953125 123.64199829101562 L 68.44599914550781 123.91100311279297 L 68.75800323486328 124.12899780273438 L 69.10299682617188 124.29000091552734 L 69.47100067138672 124.38899993896484 L 69.8499984741211 124.4219970703125 L 70.22899627685547 124.38899993896484 L 70.59700012207031 124.29000091552734 L 70.94200134277344 124.12899780273438 L 71.25399780273438 123.91100311279297 L 71.52300262451172 123.64199829101562 L 71.74199676513672 123.33000183105469 L 71.90299987792969 122.98500061035156 L 71.93096160888672 122.87999725341797 L 72.0009994506836 122.61699676513672 L 72.03399658203125 122.23699951171875 L 72.0009994506836 121.85800170898438 L 71.90299987792969 121.48999786376953 L 71.74199676513672 121.1449966430664 L 71.52300262451172 120.83300018310547 L 71.25399780273438 120.56400299072266 L 70.94200134277344 120.34600067138672 L 70.59700012207031 120.18499755859375 L 70.22899627685547 120.08599853515625 L 69.8499984741211 120.0530014038086 L 69.63200378417969 120.07198333740234 L 69.47100067138672 120.08599853515625 L 69.10299682617188 120.18499755859375 L 68.75800323486328 120.34600067138672 L 68.44599914550781 120.56400299072266 L 68.177001953125 120.83300018310547 L 67.95800018310547 121.1449966430664 L 67.7969970703125 121.48999786376953 L 67.6989974975586 121.85800170898438 L 67.66600036621094 122.23699951171875 L 67.6989974975586 122.61699676513672 M -67.95800018310547 123.33000183105469 L -67.7969970703125 122.98500061035156 L -67.76903533935547 122.87999725341797 L -67.6989974975586 122.61699676513672 L -67.66600036621094 122.23699951171875 L -67.6989974975586 121.85800170898438 L -67.7969970703125 121.48999786376953 L -67.95800018310547 121.1449966430664 L -68.177001953125 120.83300018310547 L -68.44599914550781 120.56400299072266 L -68.75800323486328 120.34600067138672 L -69.10299682617188 120.18499755859375 L -69.47100067138672 120.08599853515625 L -69.63200378417969 120.07198333740234 L -69.8499984741211 120.0530014038086 L -70.22899627685547 120.08599853515625 L -70.59700012207031 120.18499755859375 L -70.94200134277344 120.34600067138672 L -71.25399780273438 120.56400299072266 L -71.52300262451172 120.83300018310547 L -71.74199676513672 121.1449966430664 L -71.90299987792969 121.48999786376953 L -72.0009994506836 121.85800170898438 L -72.03399658203125 122.23699951171875 L -72.0009994506836 122.61699676513672 L -71.93096160888672 122.87999725341797 L -71.90299987792969 122.98500061035156 L -71.74199676513672 123.33000183105469 L -71.52300262451172 123.64199829101562 L -71.25399780273438 123.91100311279297 L -70.94200134277344 124.12899780273438 L -70.59700012207031 124.29000091552734 L -70.22899627685547 124.38899993896484 L -69.8499984741211 124.4219970703125 L -69.47100067138672 124.38899993896484 L -69.10299682617188 124.29000091552734 L -68.75800323486328 124.12899780273438 L -68.44599914550781 123.91100311279297 L -68.177001953125 123.64199829101562 L -67.95800018310547 123.33000183105469 M -72.03399658203125 -122.23799896240234 L -72.0009994506836 -121.85800170898438 L -71.90299987792969 -121.48999786376953 L -71.74199676513672 -121.1449966430664 L -71.52300262451172 -120.83300018310547 L -71.25399780273438 -120.56400299072266 L -70.94200134277344 -120.34600067138672 L -70.59700012207031 -120.18499755859375 L -70.22899627685547 -120.08599853515625 L -69.8499984741211 -120.0530014038086 L -69.63200378417969 -120.07198333740234 L -69.47100067138672 -120.08599853515625 L -69.10299682617188 -120.18499755859375 L -68.75800323486328 -120.34600067138672 L -68.44599914550781 -120.56400299072266 L -68.177001953125 -120.83300018310547 L -67.95800018310547 -121.1449966430664 L -67.7969970703125 -121.48999786376953 L -67.6989974975586 -121.85800170898438 L -67.66600036621094 -122.23799896240234 L -67.6989974975586 -122.61699676513672 L -67.76903533935547 -122.87999725341797 L -67.7969970703125 -122.98500061035156 L -67.95800018310547 -123.33000183105469 L -68.177001953125 -123.64199829101562 L -68.44599914550781 -123.91100311279297 L -68.75800323486328 -124.12899780273438 L -69.10299682617188 -124.29000091552734 L -69.47100067138672 -124.38899993896484 L -69.8499984741211 -124.4219970703125 L -70.22899627685547 -124.38899993896484 L -70.59700012207031 -124.29000091552734 L -70.94200134277344 -124.12899780273438 L -71.25399780273438 -123.91100311279297 L -71.52300262451172 -123.64199829101562 L -71.74199676513672 -123.33000183105469 L -71.90299987792969 -122.98500061035156 L -71.93096160888672 -122.87999725341797 L -72.0009994506836 -122.61699676513672 L -72.03399658203125 -122.23799896240234 M 49.26900100708008 74.28600311279297 L 49.152000427246094 74.14665222167969 L 48.80049133300781 73.72799682617188 L 48.73500061035156 73.6500015258789 L 48.117000579833984 73.09400177001953 L 47.428001403808594 72.62899780273438 L 46.680999755859375 72.26499938964844 L 45.89099884033203 72.00800323486328 L 45.073001861572266 71.86399841308594 L 44.242000579833984 71.83499908447266 L 43.41600036621094 71.9219970703125 L 42.60900115966797 72.12300109863281 L 41.8390007019043 72.43399810791016 L 41.11899948120117 72.8499984741211 L 40.4640007019043 73.36100006103516 L 40.109886169433594 73.72799682617188 L 39.887001037597656 73.95899963378906 L 39.39899826049805 74.63099670410156 L 39.00899887084961 75.36499786376953 L 38.7239990234375 76.14600372314453 L 38.551998138427734 76.95899963378906 L 38.49399948120117 77.78700256347656 L 38.551998138427734 78.61599731445312 L 38.7239990234375 79.42900085449219 L 39.00899887084961 80.20999908447266 L 39.39899826049805 80.94400024414062 L 39.887001037597656 81.61599731445312 L 40.18032455444336 81.91999816894531 L 40.4640007019043 82.21399688720703 L 41.11899948120117 82.7249984741211 L 41.8390007019043 83.14099884033203 L 42.60900115966797 83.4520034790039 L 43.41600036621094 83.65299987792969 L 44.242000579833984 83.73999786376953 L 45.073001861572266 83.71099853515625 L 45.89099884033203 83.56700134277344 L 46.680999755859375 83.30999755859375 L 47.428001403808594 82.94599914550781 L 48.117000579833984 82.48100280761719 L 48.73500061035156 81.92500305175781 L 48.73919677734375 81.91999816894531 L 49.152000427246094 81.4283447265625 L 49.26900100708008 81.28900146484375 L 49.70899963378906 80.58399963378906 L 50.047000885009766 79.82499694824219 L 50.2760009765625 79.0260009765625 L 50.391998291015625 78.2030029296875 L 50.391998291015625 77.37200164794922 L 50.2760009765625 76.54900360107422 L 50.047000885009766 75.75 L 49.70899963378906 74.99099731445312 L 49.26900100708008 74.28600311279297 M 4.7870001792907715 26.968000411987305 L 4.826000213623047 26.527000427246094 L 4.826000213623047 1.1102230246251565e-16 L 4.826000213623047 -65.53600311279297 L 4.826000213623047 -100.4729995727539 L 4.7870001792907715 -100.91400146484375 L 4.672999858856201 -101.34100341796875 L 4.486000061035156 -101.74299621582031 L 4.23199987411499 -102.1050033569336 L 3.9189999103546143 -102.41799926757812 L 3.555999994277954 -102.6719970703125 L 3.1549999713897705 -102.85900115966797 L 2.7269999980926514 -102.9739990234375 L 2.2860000133514404 -103.01300048828125 L 0 -103.01300048828125 L -49.784000396728516 -103.01300048828125 L -50.224998474121094 -102.9739990234375 L -50.65299987792969 -102.85900115966797 L -51.05400085449219 -102.6719970703125 L -51.41699981689453 -102.41799926757812 L -51.72999954223633 -102.1050033569336 L -51.98400115966797 -101.74299621582031 L -52.17100143432617 -101.34100341796875 L -52.28499984741211 -100.91400146484375 L -52.32400131225586 -100.4729995727539 L -52.32400131225586 -65.53600311279297 L -52.32400131225586 1.1102230246251565e-16 L -52.32400131225586 26.527000427246094 L -52.28499984741211 26.968000411987305 L -52.17100143432617 27.395999908447266 L -51.98400115966797 27.797000885009766 L -51.72999954223633 28.15999984741211 L -51.41699981689453 28.472999572753906 L -51.05400085449219 28.726999282836914 L -50.65299987792969 28.913999557495117 L -50.224998474121094 29.02899932861328 L -49.784000396728516 29.066999435424805 L 0 29.066999435424805 L 2.2860000133514404 29.066999435424805 L 2.7269999980926514 29.02899932861328 L 3.1549999713897705 28.913999557495117 L 3.555999994277954 28.726999282836914 L 3.9189999103546143 28.472999572753906 L 4.23199987411499 28.15999984741211 L 4.486000061035156 27.797000885009766 L 4.672999858856201 27.395999908447266 L 4.7870001792907715 26.968000411987305 M 67.7969970703125 -122.98500061035156 L 67.76903533935547 -122.87999725341797 L 67.6989974975586 -122.61699676513672 L 67.66600036621094 -122.23799896240234 L 67.6989974975586 -121.85800170898438 L 67.7969970703125 -121.48999786376953 L 67.95800018310547 -121.1449966430664 L 68.177001953125 -120.83300018310547 L 68.44599914550781 -120.56400299072266 L 68.75800323486328 -120.34600067138672 L 69.10299682617188 -120.18499755859375 L 69.47100067138672 -120.08599853515625 L 69.63200378417969 -120.07198333740234 L 69.8499984741211 -120.0530014038086 L 70.22899627685547 -120.08599853515625 L 70.59700012207031 -120.18499755859375 L 70.94200134277344 -120.34600067138672 L 71.25399780273438 -120.56400299072266 L 71.52300262451172 -120.83300018310547 L 71.74199676513672 -121.1449966430664 L 71.90299987792969 -121.48999786376953 L 72.0009994506836 -121.85800170898438 L 72.03399658203125 -122.23799896240234 L 72.0009994506836 -122.61699676513672 L 71.93096160888672 -122.87999725341797 L 71.90299987792969 -122.98500061035156 L 71.74199676513672 -123.33000183105469 L 71.52300262451172 -123.64199829101562 L 71.25399780273438 -123.91100311279297 L 70.94200134277344 -124.12899780273438 L 70.59700012207031 -124.29000091552734 L 70.22899627685547 -124.38899993896484 L 69.8499984741211 -124.4219970703125 L 69.47100067138672 -124.38899993896484 L 69.10299682617188 -124.29000091552734 L 68.75800323486328 -124.12899780273438 L 68.44599914550781 -123.91100311279297 L 68.177001953125 -123.64199829101562 L 67.95800018310547 -123.33000183105469 L 67.7969970703125 -122.98500061035156 z" fill="none" stroke="rgb(255,0,0)" stroke-width="0.001mm" />
</svg>