<?xml version="1.0" encoding="UTF-8" standalone="no"?>
<!DOCTYPE svg PUBLIC "-//W3C//DTD SVG 1.1//EN" "http://www.w3.org/Graphics/SVG/1.1/DTD/svg11.dtd">
<svg width="584px" height="1028px" version="1.1" xmlns="http://www.w3.org/2000/svg" xmlns:xlink="http://www.w3.org/1999/xlink" xml:space="preserve" xmlns:serif="http://www.serif.com/" style="fill-rule:evenodd;clip-rule:evenodd;">
    <g transform="matrix(1.33333,0,0,1.33333,0,0)">
        <g transform="matrix(1,0,0,1,-17.6179,-39.7054)">
            <g transform="matrix(16,0,0,16,305.115,665.161)">
                <path d="M0.189,-0.638L0.189,-0.387L0.483,-0.387L0.483,-0.308L0.189,-0.308L0.189,-0L0.092,-0L0.092,-0.717L0.533,-0.717L0.533,-0.638L0.189,-0.638Z" style="fill-rule:nonzero;"/>
            </g>
            <g transform="matrix(16,0,0,16,314.163,665.161)">
                <path d="M0.368,-0.077C0.398,-0.077 0.424,-0.082 0.448,-0.092C0.471,-0.102 0.491,-0.116 0.507,-0.134C0.523,-0.152 0.535,-0.173 0.544,-0.199C0.552,-0.224 0.557,-0.251 0.557,-0.281L0.557,-0.717L0.653,-0.717L0.653,-0.281C0.653,-0.24 0.646,-0.201 0.633,-0.166C0.62,-0.131 0.601,-0.1 0.577,-0.074C0.552,-0.048 0.522,-0.028 0.487,-0.014C0.452,0.001 0.412,0.009 0.368,0.009C0.324,0.009 0.284,0.001 0.249,-0.014C0.214,-0.028 0.184,-0.048 0.159,-0.074C0.134,-0.1 0.115,-0.131 0.102,-0.166C0.089,-0.201 0.083,-0.24 0.083,-0.281L0.083,-0.717L0.179,-0.717L0.179,-0.282C0.179,-0.252 0.183,-0.224 0.192,-0.199C0.2,-0.174 0.213,-0.153 0.229,-0.135C0.245,-0.117 0.265,-0.102 0.288,-0.092C0.312,-0.082 0.338,-0.077 0.368,-0.077Z" style="fill-rule:nonzero;"/>
            </g>
            <g transform="matrix(16,0,0,16,325.931,665.161)">
                <path d="M0.534,-0.079L0.533,-0L0.092,-0L0.092,-0.717L0.533,-0.717L0.533,-0.638L0.189,-0.638L0.189,-0.4L0.468,-0.4L0.468,-0.324L0.189,-0.324L0.189,-0.079L0.534,-0.079Z" style="fill-rule:nonzero;"/>
            </g>
            <g transform="matrix(16,0,0,16,335.171,665.161)">
                <path d="M0.498,-0.082L0.498,-0L0.092,-0L0.092,-0.717L0.188,-0.717L0.188,-0.082L0.498,-0.082Z" style="fill-rule:nonzero;"/>
            </g>
            <g transform="matrix(16,0,0,16,347.003,665.161)">
                <path d="M0.458,-0.605C0.455,-0.6 0.452,-0.596 0.448,-0.593C0.445,-0.591 0.44,-0.59 0.436,-0.59C0.43,-0.59 0.423,-0.592 0.416,-0.598C0.408,-0.604 0.398,-0.61 0.387,-0.617C0.375,-0.624 0.361,-0.63 0.345,-0.636C0.329,-0.641 0.31,-0.644 0.287,-0.644C0.265,-0.644 0.246,-0.641 0.229,-0.635C0.213,-0.629 0.199,-0.622 0.188,-0.612C0.177,-0.602 0.168,-0.59 0.163,-0.576C0.157,-0.563 0.154,-0.548 0.154,-0.533C0.154,-0.513 0.159,-0.496 0.169,-0.483C0.179,-0.47 0.192,-0.458 0.208,-0.449C0.224,-0.44 0.242,-0.432 0.263,-0.425C0.283,-0.418 0.304,-0.411 0.326,-0.404C0.347,-0.396 0.368,-0.388 0.389,-0.379C0.409,-0.37 0.428,-0.358 0.444,-0.344C0.46,-0.33 0.473,-0.313 0.483,-0.293C0.493,-0.272 0.498,-0.247 0.498,-0.218C0.498,-0.186 0.492,-0.157 0.482,-0.129C0.471,-0.102 0.455,-0.078 0.435,-0.058C0.414,-0.037 0.389,-0.021 0.359,-0.01C0.329,0.002 0.296,0.008 0.258,0.008C0.211,0.008 0.169,-0 0.131,-0.017C0.092,-0.034 0.06,-0.057 0.033,-0.086L0.061,-0.132C0.064,-0.135 0.067,-0.138 0.071,-0.141C0.075,-0.143 0.079,-0.145 0.084,-0.145C0.088,-0.145 0.093,-0.143 0.098,-0.139C0.104,-0.136 0.11,-0.131 0.117,-0.126C0.124,-0.121 0.132,-0.115 0.141,-0.109C0.15,-0.102 0.16,-0.096 0.172,-0.091C0.183,-0.086 0.196,-0.081 0.211,-0.078C0.226,-0.074 0.242,-0.073 0.261,-0.073C0.284,-0.073 0.304,-0.076 0.322,-0.082C0.34,-0.088 0.355,-0.097 0.368,-0.109C0.38,-0.12 0.39,-0.134 0.397,-0.15C0.403,-0.166 0.407,-0.184 0.407,-0.204C0.407,-0.225 0.402,-0.243 0.392,-0.257C0.382,-0.271 0.369,-0.282 0.353,-0.292C0.337,-0.301 0.319,-0.309 0.298,-0.315C0.277,-0.322 0.256,-0.328 0.235,-0.335C0.214,-0.342 0.193,-0.35 0.172,-0.359C0.151,-0.368 0.133,-0.38 0.117,-0.394C0.101,-0.408 0.088,-0.426 0.078,-0.448C0.068,-0.469 0.064,-0.496 0.064,-0.528C0.064,-0.553 0.068,-0.577 0.078,-0.601C0.088,-0.625 0.102,-0.646 0.121,-0.664C0.14,-0.682 0.163,-0.697 0.191,-0.708C0.218,-0.719 0.25,-0.725 0.286,-0.725C0.326,-0.725 0.362,-0.718 0.395,-0.706C0.428,-0.693 0.456,-0.675 0.482,-0.651L0.458,-0.605Z" style="fill-rule:nonzero;"/>
            </g>
            <g transform="matrix(16,0,0,16,355.683,665.161)">
                <path d="M0.672,-0.717L0.672,-0L0.575,-0L0.575,-0.326L0.189,-0.326L0.189,-0L0.092,-0L0.092,-0.717L0.189,-0.717L0.189,-0.397L0.575,-0.397L0.575,-0.717L0.672,-0.717Z" style="fill-rule:nonzero;"/>
            </g>
            <g transform="matrix(16,0,0,16,367.899,665.161)">
                <path d="M0.368,-0.077C0.398,-0.077 0.424,-0.082 0.448,-0.092C0.471,-0.102 0.491,-0.116 0.507,-0.134C0.523,-0.152 0.535,-0.173 0.544,-0.199C0.552,-0.224 0.557,-0.251 0.557,-0.281L0.557,-0.717L0.653,-0.717L0.653,-0.281C0.653,-0.24 0.646,-0.201 0.633,-0.166C0.62,-0.131 0.601,-0.1 0.577,-0.074C0.552,-0.048 0.522,-0.028 0.487,-0.014C0.452,0.001 0.412,0.009 0.368,0.009C0.324,0.009 0.284,0.001 0.249,-0.014C0.214,-0.028 0.184,-0.048 0.159,-0.074C0.134,-0.1 0.115,-0.131 0.102,-0.166C0.089,-0.201 0.083,-0.24 0.083,-0.281L0.083,-0.717L0.179,-0.717L0.179,-0.282C0.179,-0.252 0.183,-0.224 0.192,-0.199C0.2,-0.174 0.213,-0.153 0.229,-0.135C0.245,-0.117 0.265,-0.102 0.288,-0.092C0.312,-0.082 0.338,-0.077 0.368,-0.077Z" style="fill-rule:nonzero;"/>
            </g>
            <g transform="matrix(16,0,0,16,379.667,665.161)">
                <path d="M0.576,-0.635L0.344,-0.635L0.344,-0L0.248,-0L0.248,-0.635L0.015,-0.635L0.015,-0.717L0.576,-0.717L0.576,-0.635Z" style="fill-rule:nonzero;"/>
            </g>
            <g transform="matrix(16,0,0,16,388.603,665.161)">
                <path d="M0.754,-0.358C0.754,-0.304 0.745,-0.255 0.728,-0.21C0.711,-0.165 0.687,-0.127 0.656,-0.095C0.625,-0.062 0.588,-0.037 0.544,-0.019C0.501,-0.001 0.453,0.008 0.4,0.008C0.347,0.008 0.299,-0.001 0.256,-0.019C0.213,-0.037 0.175,-0.062 0.145,-0.095C0.114,-0.127 0.09,-0.165 0.073,-0.21C0.055,-0.255 0.047,-0.304 0.047,-0.358C0.047,-0.412 0.055,-0.461 0.073,-0.506C0.09,-0.551 0.114,-0.589 0.145,-0.622C0.175,-0.654 0.213,-0.68 0.256,-0.698C0.299,-0.716 0.347,-0.725 0.4,-0.725C0.453,-0.725 0.501,-0.716 0.544,-0.698C0.588,-0.68 0.625,-0.654 0.656,-0.622C0.687,-0.589 0.711,-0.551 0.728,-0.506C0.745,-0.461 0.754,-0.412 0.754,-0.358ZM0.654,-0.358C0.654,-0.402 0.648,-0.442 0.636,-0.477C0.624,-0.511 0.607,-0.541 0.585,-0.565C0.563,-0.589 0.536,-0.608 0.505,-0.621C0.474,-0.634 0.439,-0.641 0.4,-0.641C0.362,-0.641 0.327,-0.634 0.296,-0.621C0.264,-0.608 0.237,-0.589 0.215,-0.565C0.193,-0.541 0.176,-0.511 0.164,-0.477C0.152,-0.442 0.146,-0.402 0.146,-0.358C0.146,-0.314 0.152,-0.275 0.164,-0.24C0.176,-0.205 0.193,-0.175 0.215,-0.151C0.237,-0.127 0.264,-0.109 0.296,-0.096C0.327,-0.083 0.362,-0.077 0.4,-0.077C0.439,-0.077 0.474,-0.083 0.505,-0.096C0.536,-0.109 0.563,-0.127 0.585,-0.151C0.607,-0.175 0.624,-0.205 0.636,-0.24C0.648,-0.275 0.654,-0.314 0.654,-0.358Z" style="fill-rule:nonzero;"/>
            </g>
            <g transform="matrix(16,0,0,16,401.411,665.161)">
                <path d="M0.189,-0.638L0.189,-0.387L0.483,-0.387L0.483,-0.308L0.189,-0.308L0.189,-0L0.092,-0L0.092,-0.717L0.533,-0.717L0.533,-0.638L0.189,-0.638Z" style="fill-rule:nonzero;"/>
            </g>
            <g transform="matrix(16,0,0,16,410.459,665.161)">
                <path d="M0.189,-0.638L0.189,-0.387L0.483,-0.387L0.483,-0.308L0.189,-0.308L0.189,-0L0.092,-0L0.092,-0.717L0.533,-0.717L0.533,-0.638L0.189,-0.638Z" style="fill-rule:nonzero;"/>
            </g>
            <g transform="matrix(16,0,0,16,319.663,681.161)">
                <path d="M0.303,-0.345C0.331,-0.345 0.355,-0.349 0.376,-0.356C0.397,-0.363 0.415,-0.374 0.43,-0.387C0.444,-0.4 0.455,-0.416 0.463,-0.434C0.47,-0.452 0.474,-0.472 0.474,-0.495C0.474,-0.54 0.459,-0.576 0.431,-0.602C0.403,-0.627 0.36,-0.64 0.303,-0.64L0.188,-0.64L0.188,-0.345L0.303,-0.345ZM0.303,-0.717C0.348,-0.717 0.388,-0.711 0.421,-0.701C0.455,-0.69 0.483,-0.675 0.505,-0.656C0.527,-0.637 0.543,-0.613 0.554,-0.586C0.565,-0.559 0.57,-0.528 0.57,-0.495C0.57,-0.461 0.564,-0.431 0.553,-0.403C0.541,-0.375 0.524,-0.352 0.501,-0.332C0.479,-0.312 0.451,-0.296 0.418,-0.285C0.385,-0.274 0.346,-0.268 0.303,-0.268L0.188,-0.268L0.188,-0L0.092,-0L0.092,-0.717L0.303,-0.717Z" style="fill-rule:nonzero;"/>
            </g>
            <g transform="matrix(16,0,0,16,329.271,681.161)">
                <path d="M0.368,-0.077C0.398,-0.077 0.424,-0.082 0.448,-0.092C0.471,-0.102 0.491,-0.116 0.507,-0.134C0.523,-0.152 0.535,-0.173 0.544,-0.199C0.552,-0.224 0.557,-0.251 0.557,-0.281L0.557,-0.717L0.653,-0.717L0.653,-0.281C0.653,-0.24 0.646,-0.201 0.633,-0.166C0.62,-0.131 0.601,-0.1 0.577,-0.074C0.552,-0.048 0.522,-0.028 0.487,-0.014C0.452,0.001 0.412,0.009 0.368,0.009C0.324,0.009 0.284,0.001 0.249,-0.014C0.214,-0.028 0.184,-0.048 0.159,-0.074C0.134,-0.1 0.115,-0.131 0.102,-0.166C0.089,-0.201 0.083,-0.24 0.083,-0.281L0.083,-0.717L0.179,-0.717L0.179,-0.282C0.179,-0.252 0.183,-0.224 0.192,-0.199C0.2,-0.174 0.213,-0.153 0.229,-0.135C0.245,-0.117 0.265,-0.102 0.288,-0.092C0.312,-0.082 0.338,-0.077 0.368,-0.077Z" style="fill-rule:nonzero;"/>
            </g>
            <g transform="matrix(16,0,0,16,341.039,681.161)">
                <path d="M0.498,-0.082L0.498,-0L0.092,-0L0.092,-0.717L0.188,-0.717L0.188,-0.082L0.498,-0.082Z" style="fill-rule:nonzero;"/>
            </g>
            <g transform="matrix(16,0,0,16,349.255,681.161)">
                <path d="M0.498,-0.082L0.498,-0L0.092,-0L0.092,-0.717L0.188,-0.717L0.188,-0.082L0.498,-0.082Z" style="fill-rule:nonzero;"/>
            </g>
            <g transform="matrix(16,0,0,16,361.087,681.161)">
                <path d="M0.754,-0.358C0.754,-0.304 0.745,-0.255 0.728,-0.21C0.711,-0.165 0.687,-0.127 0.656,-0.095C0.625,-0.062 0.588,-0.037 0.544,-0.019C0.501,-0.001 0.453,0.008 0.4,0.008C0.347,0.008 0.299,-0.001 0.256,-0.019C0.213,-0.037 0.175,-0.062 0.145,-0.095C0.114,-0.127 0.09,-0.165 0.073,-0.21C0.055,-0.255 0.047,-0.304 0.047,-0.358C0.047,-0.412 0.055,-0.461 0.073,-0.506C0.09,-0.551 0.114,-0.589 0.145,-0.622C0.175,-0.654 0.213,-0.68 0.256,-0.698C0.299,-0.716 0.347,-0.725 0.4,-0.725C0.453,-0.725 0.501,-0.716 0.544,-0.698C0.588,-0.68 0.625,-0.654 0.656,-0.622C0.687,-0.589 0.711,-0.551 0.728,-0.506C0.745,-0.461 0.754,-0.412 0.754,-0.358ZM0.654,-0.358C0.654,-0.402 0.648,-0.442 0.636,-0.477C0.624,-0.511 0.607,-0.541 0.585,-0.565C0.563,-0.589 0.536,-0.608 0.505,-0.621C0.474,-0.634 0.439,-0.641 0.4,-0.641C0.362,-0.641 0.327,-0.634 0.296,-0.621C0.264,-0.608 0.237,-0.589 0.215,-0.565C0.193,-0.541 0.176,-0.511 0.164,-0.477C0.152,-0.442 0.146,-0.402 0.146,-0.358C0.146,-0.314 0.152,-0.275 0.164,-0.24C0.176,-0.205 0.193,-0.175 0.215,-0.151C0.237,-0.127 0.264,-0.109 0.296,-0.096C0.327,-0.083 0.362,-0.077 0.4,-0.077C0.439,-0.077 0.474,-0.083 0.505,-0.096C0.536,-0.109 0.563,-0.127 0.585,-0.151C0.607,-0.175 0.624,-0.205 0.636,-0.24C0.648,-0.275 0.654,-0.314 0.654,-0.358Z" style="fill-rule:nonzero;"/>
            </g>
            <g transform="matrix(16,0,0,16,373.895,681.161)">
                <path d="M0.303,-0.345C0.331,-0.345 0.355,-0.349 0.376,-0.356C0.397,-0.363 0.415,-0.374 0.43,-0.387C0.444,-0.4 0.455,-0.416 0.463,-0.434C0.47,-0.452 0.474,-0.472 0.474,-0.495C0.474,-0.54 0.459,-0.576 0.431,-0.602C0.403,-0.627 0.36,-0.64 0.303,-0.64L0.188,-0.64L0.188,-0.345L0.303,-0.345ZM0.303,-0.717C0.348,-0.717 0.388,-0.711 0.421,-0.701C0.455,-0.69 0.483,-0.675 0.505,-0.656C0.527,-0.637 0.543,-0.613 0.554,-0.586C0.565,-0.559 0.57,-0.528 0.57,-0.495C0.57,-0.461 0.564,-0.431 0.553,-0.403C0.541,-0.375 0.524,-0.352 0.501,-0.332C0.479,-0.312 0.451,-0.296 0.418,-0.285C0.385,-0.274 0.346,-0.268 0.303,-0.268L0.188,-0.268L0.188,-0L0.092,-0L0.092,-0.717L0.303,-0.717Z" style="fill-rule:nonzero;"/>
            </g>
            <g transform="matrix(16,0,0,16,383.503,681.161)">
                <path d="M0.534,-0.079L0.533,-0L0.092,-0L0.092,-0.717L0.533,-0.717L0.533,-0.638L0.189,-0.638L0.189,-0.4L0.468,-0.4L0.468,-0.324L0.189,-0.324L0.189,-0.079L0.534,-0.079Z" style="fill-rule:nonzero;"/>
            </g>
            <g transform="matrix(16,0,0,16,392.743,681.161)">
                <path d="M0.672,-0.717L0.672,-0L0.624,-0C0.616,-0 0.609,-0.001 0.604,-0.004C0.599,-0.007 0.594,-0.011 0.589,-0.018L0.175,-0.558C0.175,-0.549 0.176,-0.541 0.176,-0.533C0.176,-0.525 0.177,-0.518 0.177,-0.511L0.177,-0L0.092,-0L0.092,-0.717L0.142,-0.717C0.146,-0.717 0.15,-0.716 0.153,-0.716C0.156,-0.715 0.158,-0.714 0.161,-0.713C0.163,-0.712 0.165,-0.71 0.168,-0.708C0.17,-0.706 0.172,-0.703 0.175,-0.7L0.59,-0.161C0.589,-0.169 0.588,-0.178 0.588,-0.186C0.587,-0.194 0.587,-0.202 0.587,-0.209L0.587,-0.717L0.672,-0.717Z" style="fill-rule:nonzero;"/>
            </g>
        </g>
        <path d="M2.835,731.832L2.835,2.835L434.835,2.835L434.835,731.832L2.835,731.832M410.737,714.909L410.936,715.654L411.015,715.952L411.471,716.93L412.092,717.814L412.855,718.577L413.739,719.195L414.717,719.651L415.76,719.932L416.835,720.026L417.909,719.932L418.952,719.651L419.93,719.195L420.814,718.577L421.577,717.814L422.198,716.93L422.654,715.952L422.733,715.654L422.932,714.909L423.025,713.832L422.932,712.758L422.654,711.714L422.198,710.736L421.577,709.852L420.814,709.089L419.93,708.472L418.952,708.015L417.909,707.734L416.835,707.641L416.217,707.695L415.76,707.734L414.717,708.015L413.739,708.472L412.855,709.089L412.092,709.852L411.471,710.736L411.015,711.714L410.737,712.758L410.644,713.832L410.737,714.909M26.198,716.93L26.654,715.952L26.733,715.654L26.932,714.909L27.026,713.832L26.932,712.758L26.654,711.714L26.198,710.736L25.577,709.852L24.814,709.089L23.93,708.472L22.952,708.015L21.909,707.734L21.453,707.695L20.835,707.641L19.76,707.734L18.717,708.015L17.739,708.472L16.855,709.089L16.092,709.852L15.471,710.736L15.015,711.714L14.737,712.758L14.644,713.832L14.737,714.909L14.936,715.654L15.015,715.952L15.471,716.93L16.092,717.814L16.855,718.577L17.739,719.195L18.717,719.651L19.76,719.932L20.835,720.026L21.909,719.932L22.952,719.651L23.93,719.195L24.814,718.577L25.577,717.814L26.198,716.93M14.644,20.832L14.737,21.909L15.015,22.952L15.471,23.93L16.092,24.815L16.855,25.577L17.739,26.195L18.717,26.651L19.76,26.932L20.835,27.026L21.453,26.972L21.909,26.932L22.952,26.651L23.93,26.195L24.814,25.577L25.577,24.815L26.198,23.93L26.654,22.952L26.932,21.909L27.026,20.832L26.932,19.758L26.733,19.012L26.654,18.714L26.198,17.736L25.577,16.852L24.814,16.089L23.93,15.472L22.952,15.015L21.909,14.735L20.835,14.641L19.76,14.735L18.717,15.015L17.739,15.472L16.855,16.089L16.092,16.852L15.471,17.736L15.015,18.714L14.936,19.012L14.737,19.758L14.644,20.832M358.495,577.908L357.167,576.326L356.981,576.105L355.229,574.529L353.276,573.211L351.159,572.179L348.919,571.45L346.601,571.042L344.245,570.96L341.904,571.207L339.616,571.776L337.433,572.658L335.392,573.837L333.536,575.286L332.532,576.326L331.9,576.981L330.517,578.886L329.411,580.966L328.603,583.18L328.116,585.485L327.951,587.832L328.116,590.182L328.603,592.486L329.411,594.7L330.517,596.781L331.9,598.686L332.732,599.547L333.536,600.381L335.392,601.829L337.433,603.009L339.616,603.89L341.904,604.46L344.245,604.706L346.601,604.624L348.919,604.216L351.159,603.488L353.276,602.456L355.229,601.138L356.981,599.562L356.993,599.547L358.163,598.154L358.495,597.759L359.742,595.76L360.7,593.609L361.349,591.344L361.678,589.011L361.678,586.655L361.349,584.323L360.7,582.058L359.742,579.906L358.495,577.908M232.404,443.778L232.515,442.528L232.515,82.528L232.404,81.278L232.081,80.067L231.551,78.928L230.831,77.902L229.944,77.015L228.915,76.295L227.778,75.764L226.565,75.438L225.315,75.328L77.715,75.328L76.465,75.438L75.251,75.764L74.115,76.295L73.086,77.015L72.198,77.902L71.478,78.928L70.948,80.067L70.625,81.278L70.515,82.528L70.515,442.528L70.625,443.778L70.948,444.991L71.478,446.128L72.198,447.157L73.086,448.044L74.115,448.764L75.251,449.294L76.465,449.62L77.715,449.728L225.315,449.728L226.565,449.62L227.778,449.294L228.915,448.764L229.944,448.044L230.831,447.157L231.551,446.128L232.081,444.991L232.404,443.778M411.015,18.714L410.936,19.012L410.737,19.758L410.644,20.832L410.737,21.909L411.015,22.952L411.471,23.93L412.092,24.815L412.855,25.577L413.739,26.195L414.717,26.651L415.76,26.932L416.217,26.972L416.835,27.026L417.909,26.932L418.952,26.651L419.93,26.195L420.814,25.577L421.577,24.815L422.198,23.93L422.654,22.952L422.932,21.909L423.025,20.832L422.932,19.758L422.733,19.012L422.654,18.714L422.198,17.736L421.577,16.852L420.814,16.089L419.93,15.472L418.952,15.015L417.909,14.735L416.835,14.641L415.76,14.735L414.717,15.015L413.739,15.472L412.855,16.089L412.092,16.852L411.471,17.736L411.015,18.714Z" style="fill:none;fill-rule:nonzero;stroke:rgb(13,40,242);stroke-width:1px;"/>
    </g>
</svg>
