<?xml version="1.0" standalone="no"?>
<!DOCTYPE svg PUBLIC "-//W3C//DTD SVG 1.1//EN"
  "http://www.w3.org/Graphics/SVG/1.1/DTD/svg11.dtd">
<svg width="151.22999572753906mm" height="84.55000305175781mm" viewBox="-75.61499786376953 -42.275001525878906 151.22999572753906 84.55000305175781" xmlns="http://www.w3.org/2000/svg" version="1.1">
	<title>svgOutput</title>
	<desc>made with tinkercad</desc>
<path d="M -74.61499786376953 41.275001525878906 L -74.61499786376953 32.768001556396484 L -74.61499786376953 1.1102230246251565e-16 L -74.61499786376953 -32.768001556396484 L -74.61499786376953 -41.275001525878906 L -73.72799682617188 -41.275001525878906 L -65.53600311279297 -41.275001525878906 L 0 -41.275001525878906 L 65.53600311279297 -41.275001525878906 L 73.72799682617188 -41.275001525878906 L 74.61499786376953 -41.275001525878906 L 74.61499786376953 -32.768001556396484 L 74.61499786376953 -31.750579833984375 L 74.61499786376953 -30.576501846313477 L 74.61499786376953 -29.600162506103516 L 74.61499786376953 -28.8530216217041 L 74.61499786376953 -28.23491096496582 L 74.61499786376953 -27.752552032470703 L 74.61499786376953 -27.375690460205078 L 74.61499786376953 -27.082294464111328 L 74.61499786376953 -26.872360229492188 L 74.61499786376953 -26.737594604492188 L 74.61499786376953 -26.670000076293945 L 73.76799774169922 -26.636999130249023 L 72.9260025024414 -26.53700065612793 L 72.09500122070312 -26.371999740600586 L 71.27899932861328 -26.142000198364258 L 70.48400115966797 -25.847999572753906 L 69.71399688720703 -25.493000030517578 L 68.9739990234375 -25.07900047302246 L 68.2699966430664 -24.607999801635742 L 67.60399627685547 -24.083999633789062 L 66.98200225830078 -23.507999420166016 L 66.40599822998047 -22.88599967956543 L 65.88099670410156 -22.219999313354492 L 65.53600311279297 -21.703598022460938 L 65.41000366210938 -21.514999389648438 L 64.99600219726562 -20.775999069213867 L 64.64099884033203 -20.006000518798828 L 64.3479995727539 -19.211000442504883 L 64.11799621582031 -18.395000457763672 L 63.952999114990234 -17.56399917602539 L 63.85300064086914 -16.722000122070312 L 63.81999969482422 -15.875 L 63.85300064086914 -15.027999877929688 L 63.952999114990234 -14.185999870300293 L 64.11799621582031 -13.354999542236328 L 64.3479995727539 -12.538999557495117 L 64.64099884033203 -11.744000434875488 L 64.99600219726562 -10.973999977111816 L 65.41000366210938 -10.234999656677246 L 65.53600311279297 -10.046401023864746 L 65.88099670410156 -9.529999732971191 L 66.40599822998047 -8.86400032043457 L 66.98200225830078 -8.241999626159668 L 67.60399627685547 -7.665999889373779 L 68.2699966430664 -7.142000198364258 L 68.9739990234375 -6.671000003814697 L 69.71399688720703 -6.256999969482422 L 70.48400115966797 -5.9019999504089355 L 71.27899932861328 -5.607999801635742 L 72.09500122070312 -5.377999782562256 L 72.9260025024414 -5.2129998207092285 L 73.76799774169922 -5.11299991607666 L 74.61499786376953 -5.079999923706055 L 74.61499786376953 1.1102230246251565e-16 L 74.61499786376953 32.768001556396484 L 74.61499786376953 41.275001525878906 L 73.72799682617188 41.275001525878906 L 65.53600311279297 41.275001525878906 L 0 41.275001525878906 L -65.53600311279297 41.275001525878906 L -73.72799682617188 41.275001525878906 L -74.61499786376953 41.275001525878906 M 66.88099670410156 36.525001525878906 L 67.0989990234375 36.83700180053711 L 67.1260986328125 36.86399841308594 L 67.36900329589844 37.10599899291992 L 67.68099975585938 37.32500076293945 L 68.0260009765625 37.486000061035156 L 68.39299774169922 37.58399963378906 L 68.77300262451172 37.617000579833984 L 69.1520004272461 37.58399963378906 L 69.5199966430664 37.486000061035156 L 69.86499786376953 37.32500076293945 L 70.177001953125 37.10599899291992 L 70.41899871826172 36.86399841308594 L 70.44599914550781 36.83700180053711 L 70.66500091552734 36.525001525878906 L 70.82599639892578 36.18000030517578 L 70.92400360107422 35.8120002746582 L 70.95700073242188 35.43299865722656 L 70.92400360107422 35.05400085449219 L 70.82599639892578 34.68600082397461 L 70.66500091552734 34.340999603271484 L 70.44599914550781 34.02899932861328 L 70.177001953125 33.7599983215332 L 69.86499786376953 33.54100036621094 L 69.63200378417969 33.43226623535156 L 69.5199966430664 33.380001068115234 L 69.1520004272461 33.28200149536133 L 68.77300262451172 33.249000549316406 L 68.39299774169922 33.28200149536133 L 68.0260009765625 33.380001068115234 L 67.68099975585938 33.54100036621094 L 67.36900329589844 33.7599983215332 L 67.0989990234375 34.02899932861328 L 66.88099670410156 34.340999603271484 L 66.72000122070312 34.68600082397461 L 66.68537902832031 34.816001892089844 L 66.62200164794922 35.05400085449219 L 66.58799743652344 35.43299865722656 L 66.62200164794922 35.8120002746582 L 66.72000122070312 36.18000030517578 L 66.88099670410156 36.525001525878906 M 67.36900329589844 -37.10599899291992 L 67.1260986328125 -36.86399841308594 L 67.0989990234375 -36.83700180053711 L 66.88099670410156 -36.525001525878906 L 66.72000122070312 -36.18000030517578 L 66.62200164794922 -35.8120002746582 L 66.58799743652344 -35.43299865722656 L 66.62200164794922 -35.05400085449219 L 66.68537902832031 -34.816001892089844 L 66.72000122070312 -34.68600082397461 L 66.88099670410156 -34.340999603271484 L 67.0989990234375 -34.02899932861328 L 67.36900329589844 -33.7599983215332 L 67.68099975585938 -33.54100036621094 L 68.0260009765625 -33.380001068115234 L 68.39299774169922 -33.28200149536133 L 68.77300262451172 -33.249000549316406 L 69.1520004272461 -33.28200149536133 L 69.5199966430664 -33.380001068115234 L 69.63200378417969 -33.43226623535156 L 69.86499786376953 -33.54100036621094 L 70.177001953125 -33.7599983215332 L 70.44599914550781 -34.02899932861328 L 70.66500091552734 -34.340999603271484 L 70.82599639892578 -34.68600082397461 L 70.92400360107422 -35.05400085449219 L 70.95700073242188 -35.43299865722656 L 70.92400360107422 -35.8120002746582 L 70.82599639892578 -36.18000030517578 L 70.66500091552734 -36.525001525878906 L 70.44599914550781 -36.83700180053711 L 70.41899871826172 -36.86399841308594 L 70.177001953125 -37.10599899291992 L 69.86499786376953 -37.32500076293945 L 69.5199966430664 -37.486000061035156 L 69.1520004272461 -37.58399963378906 L 68.77300262451172 -37.617000579833984 L 68.39299774169922 -37.58399963378906 L 68.0260009765625 -37.486000061035156 L 67.68099975585938 -37.32500076293945 L 67.36900329589844 -37.10599899291992 M -69.5199966430664 33.380001068115234 L -69.63200378417969 33.43226623535156 L -69.86499786376953 33.54100036621094 L -70.177001953125 33.7599983215332 L -70.44599914550781 34.02899932861328 L -70.66500091552734 34.340999603271484 L -70.82599639892578 34.68600082397461 L -70.92400360107422 35.05400085449219 L -70.95700073242188 35.43299865722656 L -70.92400360107422 35.8120002746582 L -70.82599639892578 36.18000030517578 L -70.66500091552734 36.525001525878906 L -70.44599914550781 36.83700180053711 L -70.41899871826172 36.86399841308594 L -70.177001953125 37.10599899291992 L -69.86499786376953 37.32500076293945 L -69.5199966430664 37.486000061035156 L -69.1520004272461 37.58399963378906 L -68.77300262451172 37.617000579833984 L -68.39299774169922 37.58399963378906 L -68.0260009765625 37.486000061035156 L -67.68099975585938 37.32500076293945 L -67.36900329589844 37.10599899291992 L -67.1260986328125 36.86399841308594 L -67.0989990234375 36.83700180053711 L -66.88099670410156 36.525001525878906 L -66.72000122070312 36.18000030517578 L -66.62200164794922 35.8120002746582 L -66.58799743652344 35.43299865722656 L -66.62200164794922 35.05400085449219 L -66.68537902832031 34.816001892089844 L -66.72000122070312 34.68600082397461 L -66.88099670410156 34.340999603271484 L -67.0989990234375 34.02899932861328 L -67.36900329589844 33.7599983215332 L -67.68099975585938 33.54100036621094 L -68.0260009765625 33.380001068115234 L -68.39299774169922 33.28200149536133 L -68.77300262451172 33.249000549316406 L -69.1520004272461 33.28200149536133 L -69.5199966430664 33.380001068115234 M -70.177001953125 -37.10599899291992 L -70.41899871826172 -36.86399841308594 L -70.44599914550781 -36.83700180053711 L -70.66500091552734 -36.525001525878906 L -70.82599639892578 -36.18000030517578 L -70.92400360107422 -35.8120002746582 L -70.95700073242188 -35.43299865722656 L -70.92400360107422 -35.05400085449219 L -70.82599639892578 -34.68600082397461 L -70.66500091552734 -34.340999603271484 L -70.44599914550781 -34.02899932861328 L -70.177001953125 -33.7599983215332 L -69.86499786376953 -33.54100036621094 L -69.63200378417969 -33.43226623535156 L -69.5199966430664 -33.380001068115234 L -69.1520004272461 -33.28200149536133 L -68.77300262451172 -33.249000549316406 L -68.39299774169922 -33.28200149536133 L -68.0260009765625 -33.380001068115234 L -67.68099975585938 -33.54100036621094 L -67.36900329589844 -33.7599983215332 L -67.0989990234375 -34.02899932861328 L -66.88099670410156 -34.340999603271484 L -66.72000122070312 -34.68600082397461 L -66.68537902832031 -34.816001892089844 L -66.62200164794922 -35.05400085449219 L -66.58799743652344 -35.43299865722656 L -66.62200164794922 -35.8120002746582 L -66.72000122070312 -36.18000030517578 L -66.88099670410156 -36.525001525878906 L -67.0989990234375 -36.83700180053711 L -67.1260986328125 -36.86399841308594 L -67.36900329589844 -37.10599899291992 L -67.68099975585938 -37.32500076293945 L -68.0260009765625 -37.486000061035156 L -68.39299774169922 -37.58399963378906 L -68.77300262451172 -37.617000579833984 L -69.1520004272461 -37.58399963378906 L -69.5199966430664 -37.486000061035156 L -69.86499786376953 -37.32500076293945 L -70.177001953125 -37.10599899291992 z" fill="none" stroke="rgb(255,0,0)" stroke-width="0.001mm" />
</svg>