<?xml version="1.0" standalone="no"?>
<!DOCTYPE svg PUBLIC "-//W3C//DTD SVG 1.1//EN"
  "http://www.w3.org/Graphics/SVG/1.1/DTD/svg11.dtd">
<svg width="265.5299987792969mm" height="84.55000305175781mm" viewBox="-132.76499938964844 -42.275001525878906 265.5299987792969 84.55000305175781" xmlns="http://www.w3.org/2000/svg" version="1.1">
	<title>svgOutput</title>
	<desc>made with tinkercad</desc>
<path d="M -131.76499938964844 41.275001525878906 L -131.76499938964844 -5.079999923706055 L -131.07200622558594 -5.114060401916504 L -130.70700073242188 -5.131999969482422 L -129.65899658203125 -5.2870001792907715 L -128.63099670410156 -5.545000076293945 L -127.63400268554688 -5.9019999504089355 L -126.6760025024414 -6.355000019073486 L -125.76799774169922 -6.89900016784668 L -124.91699981689453 -7.53000020980835 L -124.18712615966797 -8.192000389099121 L -124.13200378417969 -8.241999626159668 L -123.41999816894531 -9.027000427246094 L -122.78900146484375 -9.878000259399414 L -122.24400329589844 -10.78600025177002 L -121.79199981689453 -11.744000434875488 L -121.43499755859375 -12.741000175476074 L -121.177001953125 -13.769000053405762 L -121.02200317382812 -14.817000389099121 L -120.97000122070312 -15.875 L -120.9950180053711 -16.384000778198242 L -121.02200317382812 -16.933000564575195 L -121.177001953125 -17.981000900268555 L -121.43499755859375 -19.009000778198242 L -121.79199981689453 -20.006000518798828 L -122.24400329589844 -20.964000701904297 L -122.78900146484375 -21.871999740600586 L -123.41999816894531 -22.722999572753906 L -124.13200378417969 -23.507999420166016 L -124.91699981689453 -24.219999313354492 L -125.76799774169922 -24.85099983215332 L -126.6760025024414 -25.395000457763672 L -127.63400268554688 -25.847999572753906 L -128.63099670410156 -26.204999923706055 L -129.65899658203125 -26.46299934387207 L -130.70700073242188 -26.618000030517578 L -131.07200622558594 -26.63593864440918 L -131.76499938964844 -26.670000076293945 L -131.76499938964844 -41.275001525878906 L -131.07200622558594 -41.275001525878906 L -122.87999725341797 -41.275001525878906 L -114.68800354003906 -41.275001525878906 L -98.30400085449219 -41.275001525878906 L -65.53600311279297 -41.275001525878906 L 0 -41.275001525878906 L 65.53600311279297 -41.275001525878906 L 98.30400085449219 -41.275001525878906 L 114.68800354003906 -41.275001525878906 L 122.87999725341797 -41.275001525878906 L 131.07200622558594 -41.275001525878906 L 131.76499938964844 -41.275001525878906 L 131.76499938964844 41.275001525878906 L 131.07200622558594 41.275001525878906 L 122.87999725341797 41.275001525878906 L 114.68800354003906 41.275001525878906 L 98.30400085449219 41.275001525878906 L 65.53600311279297 41.275001525878906 L 0 41.275001525878906 L -65.53600311279297 41.275001525878906 L -98.30400085449219 41.275001525878906 L -114.68800354003906 41.275001525878906 L -122.87999725341797 41.275001525878906 L -131.07200622558594 41.275001525878906 L -131.76499938964844 41.275001525878906 M 123.87000274658203 36.18000030517578 L 124.03099822998047 36.525001525878906 L 124.25 36.83700180053711 L 124.2770004272461 36.86399841308594 L 124.51899719238281 37.10599899291992 L 124.83100128173828 37.32500076293945 L 125.1760025024414 37.486000061035156 L 125.54399871826172 37.58399963378906 L 125.9229965209961 37.617000579833984 L 126.302001953125 37.58399963378906 L 126.66999816894531 37.486000061035156 L 127.01499938964844 37.32500076293945 L 127.3270034790039 37.10599899291992 L 127.56900024414062 36.86399841308594 L 127.59600067138672 36.83700180053711 L 127.81500244140625 36.525001525878906 L 127.97599792480469 36.18000030517578 L 128.07400512695312 35.8120002746582 L 128.10699462890625 35.43299865722656 L 128.07400512695312 35.05400085449219 L 127.97599792480469 34.68600082397461 L 127.81500244140625 34.340999603271484 L 127.59600067138672 34.02899932861328 L 127.3270034790039 33.7599983215332 L 127.01499938964844 33.54100036621094 L 126.97599792480469 33.52280044555664 L 126.66999816894531 33.380001068115234 L 126.302001953125 33.28200149536133 L 125.9229965209961 33.249000549316406 L 125.54399871826172 33.28200149536133 L 125.1760025024414 33.380001068115234 L 124.83100128173828 33.54100036621094 L 124.51899719238281 33.7599983215332 L 124.25 34.02899932861328 L 124.03099822998047 34.340999603271484 L 123.87000274658203 34.68600082397461 L 123.83538055419922 34.816001892089844 L 123.77200317382812 35.05400085449219 L 123.73799896240234 35.43299865722656 L 123.77200317382812 35.8120002746582 L 123.87000274658203 36.18000030517578 M -124.83100128173828 37.32500076293945 L -124.51899719238281 37.10599899291992 L -124.2770004272461 36.86399841308594 L -124.25 36.83700180053711 L -124.03099822998047 36.525001525878906 L -123.87000274658203 36.18000030517578 L -123.77200317382812 35.8120002746582 L -123.73799896240234 35.43299865722656 L -123.77200317382812 35.05400085449219 L -123.83538055419922 34.816001892089844 L -123.87000274658203 34.68600082397461 L -124.03099822998047 34.340999603271484 L -124.25 34.02899932861328 L -124.51899719238281 33.7599983215332 L -124.83100128173828 33.54100036621094 L -125.1760025024414 33.380001068115234 L -125.54399871826172 33.28200149536133 L -125.9229965209961 33.249000549316406 L -126.302001953125 33.28200149536133 L -126.66999816894531 33.380001068115234 L -126.97599792480469 33.52280044555664 L -127.01499938964844 33.54100036621094 L -127.3270034790039 33.7599983215332 L -127.59600067138672 34.02899932861328 L -127.81500244140625 34.340999603271484 L -127.97599792480469 34.68600082397461 L -128.07400512695312 35.05400085449219 L -128.10699462890625 35.43299865722656 L -128.07400512695312 35.8120002746582 L -127.97599792480469 36.18000030517578 L -127.81500244140625 36.525001525878906 L -127.59600067138672 36.83700180053711 L -127.56900024414062 36.86399841308594 L -127.3270034790039 37.10599899291992 L -127.01499938964844 37.32500076293945 L -126.66999816894531 37.486000061035156 L -126.302001953125 37.58399963378906 L -125.9229965209961 37.617000579833984 L -125.54399871826172 37.58399963378906 L -125.1760025024414 37.486000061035156 L -124.83100128173828 37.32500076293945 M 126.66999816894531 -33.380001068115234 L 126.97599792480469 -33.52280044555664 L 127.01499938964844 -33.54100036621094 L 127.3270034790039 -33.7599983215332 L 127.59600067138672 -34.02899932861328 L 127.81500244140625 -34.340999603271484 L 127.97599792480469 -34.68600082397461 L 128.07400512695312 -35.05400085449219 L 128.10699462890625 -35.43299865722656 L 128.07400512695312 -35.8120002746582 L 127.97599792480469 -36.18000030517578 L 127.81500244140625 -36.525001525878906 L 127.59600067138672 -36.83700180053711 L 127.56900024414062 -36.86399841308594 L 127.3270034790039 -37.10599899291992 L 127.01499938964844 -37.32500076293945 L 126.66999816894531 -37.486000061035156 L 126.302001953125 -37.58399963378906 L 125.9229965209961 -37.617000579833984 L 125.54399871826172 -37.58399963378906 L 125.1760025024414 -37.486000061035156 L 124.83100128173828 -37.32500076293945 L 124.51899719238281 -37.10599899291992 L 124.2770004272461 -36.86399841308594 L 124.25 -36.83700180053711 L 124.03099822998047 -36.525001525878906 L 123.87000274658203 -36.18000030517578 L 123.77200317382812 -35.8120002746582 L 123.73799896240234 -35.43299865722656 L 123.77200317382812 -35.05400085449219 L 123.83538055419922 -34.816001892089844 L 123.87000274658203 -34.68600082397461 L 124.03099822998047 -34.340999603271484 L 124.25 -34.02899932861328 L 124.51899719238281 -33.7599983215332 L 124.83100128173828 -33.54100036621094 L 125.1760025024414 -33.380001068115234 L 125.54399871826172 -33.28200149536133 L 125.9229965209961 -33.249000549316406 L 126.302001953125 -33.28200149536133 L 126.66999816894531 -33.380001068115234 M -124.25 -36.83700180053711 L -124.2770004272461 -36.86399841308594 L -124.51899719238281 -37.10599899291992 L -124.83100128173828 -37.32500076293945 L -125.1760025024414 -37.486000061035156 L -125.54399871826172 -37.58399963378906 L -125.9229965209961 -37.617000579833984 L -126.302001953125 -37.58399963378906 L -126.66999816894531 -37.486000061035156 L -127.01499938964844 -37.32500076293945 L -127.3270034790039 -37.10599899291992 L -127.56900024414062 -36.86399841308594 L -127.59600067138672 -36.83700180053711 L -127.81500244140625 -36.525001525878906 L -127.97599792480469 -36.18000030517578 L -128.07400512695312 -35.8120002746582 L -128.10699462890625 -35.43299865722656 L -128.07400512695312 -35.05400085449219 L -127.97599792480469 -34.68600082397461 L -127.81500244140625 -34.340999603271484 L -127.59600067138672 -34.02899932861328 L -127.3270034790039 -33.7599983215332 L -127.01499938964844 -33.54100036621094 L -126.97599792480469 -33.52280044555664 L -126.66999816894531 -33.380001068115234 L -126.302001953125 -33.28200149536133 L -125.9229965209961 -33.249000549316406 L -125.54399871826172 -33.28200149536133 L -125.1760025024414 -33.380001068115234 L -124.83100128173828 -33.54100036621094 L -124.51899719238281 -33.7599983215332 L -124.25 -34.02899932861328 L -124.03099822998047 -34.340999603271484 L -123.87000274658203 -34.68600082397461 L -123.83538055419922 -34.816001892089844 L -123.77200317382812 -35.05400085449219 L -123.73799896240234 -35.43299865722656 L -123.77200317382812 -35.8120002746582 L -123.87000274658203 -36.18000030517578 L -124.03099822998047 -36.525001525878906 L -124.25 -36.83700180053711 z" fill="none" stroke="rgb(255,0,0)" stroke-width="0.001mm" />
</svg>