<?xml version="1.0" standalone="no"?>
<!DOCTYPE svg PUBLIC "-//W3C//DTD SVG 1.1//EN"
  "http://www.w3.org/Graphics/SVG/1.1/DTD/svg11.dtd">
<svg width="325.45001220703125mm" height="141.3300018310547mm" viewBox="-162.72500610351562 -70.66500091552734 325.45001220703125 141.3300018310547" xmlns="http://www.w3.org/2000/svg" version="1.1">
	<title>svgOutput</title>
	<desc>made with tinkercad</desc>
<path d="M 155.375 69.66500091552734 L 131.07200622558594 69.66500091552734 L 0 69.66500091552734 L -131.07200622558594 69.66500091552734 L -155.375 69.66500091552734 L -156.2790069580078 69.60099792480469 L -157.16400146484375 69.40799713134766 L -158.01300048828125 69.09100341796875 L -158.80799865722656 68.65699768066406 L -159.5330047607422 68.11399841308594 L -160.1739959716797 67.4739990234375 L -160.7169952392578 66.74800109863281 L -161.1510009765625 65.9530029296875 L -161.30670166015625 65.53600311279297 L -161.46800231933594 65.10399627685547 L -161.66000366210938 64.21900177001953 L -161.72500610351562 63.314998626708984 L -161.72500610351562 1.1102230246251565e-16 L -161.72500610351562 -5.7179999351501465 L -161.72500610351562 -13.96146297454834 L -161.72500610351562 -20.453449249267578 L -161.72500610351562 -26.03032875061035 L -161.72500610351562 -31.258724212646484 L -161.72500610351562 -33.76499938964844 L -161.72500610351562 -63.314998626708984 L -161.66000366210938 -64.21900177001953 L -161.46800231933594 -65.10399627685547 L -161.30670166015625 -65.53600311279297 L -161.1510009765625 -65.9530029296875 L -160.7169952392578 -66.74800109863281 L -160.1739959716797 -67.4739990234375 L -159.5330047607422 -68.11399841308594 L -158.80799865722656 -68.65699768066406 L -158.01300048828125 -69.09100341796875 L -157.16400146484375 -69.40799713134766 L -156.2790069580078 -69.60099792480469 L -155.375 -69.66500091552734 L -131.07200622558594 -69.66500091552734 L 0 -69.66500091552734 L 131.07200622558594 -69.66500091552734 L 155.375 -69.66500091552734 L 156.2790069580078 -69.60099792480469 L 157.16400146484375 -69.40799713134766 L 158.01300048828125 -69.09100341796875 L 158.80799865722656 -68.65699768066406 L 159.5330047607422 -68.11399841308594 L 160.1739959716797 -67.4739990234375 L 160.7169952392578 -66.74800109863281 L 161.1510009765625 -65.9530029296875 L 161.30670166015625 -65.53600311279297 L 161.46800231933594 -65.10399627685547 L 161.66000366210938 -64.21900177001953 L 161.72500610351562 -63.314998626708984 L 161.72500610351562 -13.12324333190918 L 161.72500610351562 1.1102230246251565e-16 L 161.72500610351562 3.7923622131347656 L 161.72500610351562 15.807999610900879 L 161.72500610351562 24.332242965698242 L 161.72500610351562 31.102676391601562 L 161.72500610351562 36.989906311035156 L 161.72500610351562 42.303897857666016 L 161.72500610351562 44.974998474121094 L 161.72500610351562 63.314998626708984 L 161.66000366210938 64.21900177001953 L 161.46800231933594 65.10399627685547 L 161.30670166015625 65.53600311279297 L 161.1510009765625 65.9530029296875 L 160.7169952392578 66.74800109863281 L 160.1739959716797 67.4739990234375 L 159.5330047607422 68.11399841308594 L 158.80799865722656 68.65699768066406 L 158.01300048828125 69.09100341796875 L 157.16400146484375 69.40799713134766 L 156.2790069580078 69.60099792480469 L 155.375 69.66500091552734 M 131.07200622558594 -33.76499938964844 L 0 -33.76499938964844 L -131.07200622558594 -33.76499938964844 L -132.63900756835938 -33.76499938964844 L -133.0800018310547 -33.72700119018555 L -133.50799560546875 -33.61199951171875 L -133.90899658203125 -33.42499923706055 L -134.27200317382812 -33.17100143432617 L -134.5850067138672 -32.858001708984375 L -134.83900451660156 -32.494998931884766 L -135.0260009765625 -32.09400177001953 L -135.14100646972656 -31.666000366210938 L -135.1790008544922 -31.225000381469727 L -135.1790008544922 1.1102230246251565e-16 L -135.1790008544922 42.435001373291016 L -135.14100646972656 42.875999450683594 L -135.0260009765625 43.303001403808594 L -134.83900451660156 43.70500183105469 L -134.5850067138672 44.06700134277344 L -134.27200317382812 44.380001068115234 L -133.90899658203125 44.63399887084961 L -133.50799560546875 44.821998596191406 L -133.0800018310547 44.93600082397461 L -132.63900756835938 44.974998474121094 L -131.07200622558594 44.974998474121094 L 0 44.974998474121094 L 131.07200622558594 44.974998474121094 L 131.52099609375 44.974998474121094 L 131.96200561523438 44.93600082397461 L 132.38900756835938 44.821998596191406 L 132.79100036621094 44.63399887084961 L 133.1529998779297 44.380001068115234 L 133.46600341796875 44.06700134277344 L 133.72000122070312 43.70500183105469 L 133.9080047607422 43.303001403808594 L 134.02200317382812 42.875999450683594 L 134.06100463867188 42.435001373291016 L 134.06100463867188 1.1102230246251565e-16 L 134.06100463867188 -31.225000381469727 L 134.02200317382812 -31.666000366210938 L 133.9080047607422 -32.09400177001953 L 133.72000122070312 -32.494998931884766 L 133.46600341796875 -32.858001708984375 L 133.1529998779297 -33.17100143432617 L 132.79100036621094 -33.42499923706055 L 132.38900756835938 -33.61199951171875 L 131.96200561523438 -33.72700119018555 L 131.52099609375 -33.76499938964844 L 131.07200622558594 -33.76499938964844 z" fill="none" stroke="rgb(255,0,0)" stroke-width="0.001mm" />
</svg>