0
SECTION
2
HEADER
9
$INSUNITS
70
4
9
$ACADVER
1
AC1014
9
$HANDSEED
5
FFFF
0
ENDSEC
0
SECTION
2
TABLES
0
TABLE
2
VPORT
5
8
100
AcDbSymbolTable
0
ENDTAB
0
TABLE
2
LTYPE
5
5
100
AcDbSymbolTable
0
LTYPE
5
14
100
AcDbSymbolTableRecord
100
AcDbLinetypeTableRecord
2
BYBLOCK
70
0
0
LTYPE
5
15
100
AcDbSymbolTableRecord
100
AcDbLinetypeTableRecord
2
BYLAYER
70
0
0
ENDTAB
0
TABLE
2
LAYER
5
2
100
AcDbSymbolTable
70
2
0
LAYER
5
50
100
AcDbSymbolTableRecord
100
AcDbLayerTableRecord
2
0
70
0
6
CONTINUOUS
0
ENDTAB
0
TABLE
2
STYLE
5
3
100
AcDbSymbolTable
70
1
0
STYLE
5
11
100
AcDbSymbolTableRecord
100
AcDbTextStyleTableRecord
2
STANDARD
70
0
0
ENDTAB
0
TABLE
2
VIEW
5
6
100
AcDbSymbolTable
70
0
0
ENDTAB
0
TABLE
2
UCS
5
7
100
AcDbSymbolTable
70
0
0
ENDTAB
0
TABLE
2
APPID
5
9
100
AcDbSymbolTable
70
2
0
APPID
5
12
100
AcDbSymbolTableRecord
100
AcDbRegAppTableRecord
2
ACAD
70
0
0
ENDTAB
0
TABLE
2
DIMSTYLE
5
A
100
AcDbSymbolTable
70
1
0
ENDTAB
0
TABLE
2
BLOCK_RECORD
5
1
100
AcDbSymbolTable
70
1
0
BLOCK_RECORD
5
1F
100
AcDbSymbolTableRecord
100
AcDbBlockTableRecord
2
*MODEL_SPACE
0
BLOCK_RECORD
5
1B
100
AcDbSymbolTableRecord
100
AcDbBlockTableRecord
2
*PAPER_SPACE
0
ENDTAB
0
ENDSEC
0
SECTION
2
BLOCKS
0
BLOCK
5
20
100
AcDbEntity
100
AcDbBlockBegin
2
*MODEL_SPACE
0
ENDBLK
5
21
100
AcDbEntity
100
AcDbBlockEnd
0
BLOCK
5
1C
100
AcDbEntity
100
AcDbBlockBegin
2
*PAPER_SPACE
0
ENDBLK
5
1D
100
AcDbEntity
100
AcDbBlockEnd
0
ENDSEC
0
SECTION
2
ENTITIES
0
LINE
5
100
100
AcDbEntity
8
0
100
AcDbLine
10
13.599999999999973
20
17.014332018108259
30
0
11
46.499999999999986
21
17.014332018108227
31
0
0
LINE
5
101
100
AcDbEntity
8
0
100
AcDbLine
10
12.599999999999969
20
120.15771199229006
30
0
11
12.599999999999971
21
17.97559371404656
31
0
0
LINE
5
102
100
AcDbEntity
8
0
100
AcDbLine
10
10.999999999999996
20
19.667641307842018
30
4.4408920985006262e-15
11
10.99999999999998
21
123.96453531714984
31
0
0
ELLIPSE
5
103
100
AcDbEntity
8
0
100
AcDbEllipse
10
46.499999999999986
20
18.936855409984897
30
0
11
2.0000000000000004
21
-3.3160257077066591e-14
31
0.0
40
0.96126169593832078
41
4.7123889803847074
42
6.283185307179588
0
ELLIPSE
5
104
100
AcDbEntity
8
0
100
AcDbEllipse
10
13.599999999999984
20
17.975593714046582
30
0
11
-1.0000000000000013
21
-2.3738595215448076e-14
31
0.0
40
0.96126169593832078
41
0
42
1.570796326794861
0
LINE
5
105
100
AcDbEntity
8
0
100
AcDbLine
10
48.499999999999986
20
18.936855409984869
30
0
11
48.499999999999986
21
19.898117105923195
31
0
0
ELLIPSE
5
106
100
AcDbEntity
8
0
100
AcDbEllipse
10
50.5
20
19.898117105923209
30
0
11
-2.0000000000000004
21
-9.0086013637971301e-15
31
0.0
40
0.96126169593832078
41
4.7123889803846932
42
6.283185307179588
0
LINE
5
107
100
AcDbEntity
8
0
100
AcDbLine
10
133.49999999999997
20
17.014332018108256
30
0
11
166.40000000000001
21
17.014332018108245
31
0
0
LINE
5
108
100
AcDbEntity
8
0
100
AcDbLine
10
166.40000000000001
20
121.11897368822839
30
0
11
13.599999999999977
21
121.11897368822839
31
0
0
LINE
5
109
100
AcDbEntity
8
0
100
AcDbLine
10
15.499999999999972
20
128.29021294887227
30
2.2204460492503131e-15
11
164.49999999999994
21
128.29021294887229
31
2.2204460492503131e-15
0
LINE
5
110
100
AcDbEntity
8
0
100
AcDbLine
10
50.499999999999986
20
21.820640497799833
30
0
11
129.5
21
21.820640497799833
31
0
0
LINE
5
111
100
AcDbEntity
8
0
100
AcDbLine
10
164.5
20
15.341963676119583
30
4.4408920985006262e-15
11
15.500000000000007
21
15.341963676119565
31
4.4408920985006262e-15
0
LINE
5
112
100
AcDbEntity
8
0
100
AcDbLine
10
168.99999999999994
20
123.96453531714985
30
1.3866695599588112e-32
11
169.00000000000003
21
19.667641307842043
31
0
0
LINE
5
113
100
AcDbEntity
8
0
100
AcDbLine
10
167.39999999999998
20
17.975593714046557
30
0
11
167.39999999999998
21
120.15771199229007
31
0
0
ELLIPSE
5
114
100
AcDbEntity
8
0
100
AcDbEllipse
10
164.5
20
19.667641307842032
30
2.2204460492503131e-15
11
4.5000000000000036
21
5.2974272658321988e-16
31
0.0
40
0.96126169593832067
41
4.7123889803846897
42
6.283185307179588
0
ELLIPSE
5
115
100
AcDbEntity
8
0
100
AcDbEllipse
10
133.49999999999997
20
18.936855409984897
30
0
11
-2.0000000000000004
21
-2.3544121181476422e-16
31
0.0
40
0.96126169593832078
41
7.1054273576011028e-15
42
1.5707963267948966
0
ELLIPSE
5
116
100
AcDbEntity
8
0
100
AcDbEllipse
10
129.5
20
19.898117105923209
30
0
11
2.0000000000000004
21
-2.8891397606982793e-14
31
0.0
40
0.96126169593832078
41
0
42
1.5707963267949108
0
ELLIPSE
5
117
100
AcDbEntity
8
0
100
AcDbEllipse
10
166.40000000000001
20
17.975593714046582
30
0
11
0.99999999999998757
21
0
31
0.0
40
0.96126169593832089
41
4.7123889803846897
42
6.2831853071795649
0
ELLIPSE
5
118
100
AcDbEntity
8
0
100
AcDbEllipse
10
166.40000000000001
20
120.15771199229007
30
0
11
0.99999999999999556
21
-6.8423394793528985e-17
31
0.0
40
0.96126169593832078
41
6.283185307179572
42
7.8539816339744828
0
LINE
5
119
100
AcDbEntity
8
0
100
AcDbLine
10
131.5
20
19.898117105923181
30
0
11
131.5
21
18.936855409984883
31
0
0
ELLIPSE
5
120
100
AcDbEntity
8
0
100
AcDbEllipse
10
164.49999999999994
20
123.96453531714985
30
0
11
4.5000000000000036
21
2.6487136329160994e-16
31
0.0
40
0.96126169593832067
41
6.2831853071795791
42
7.8539816339744828
0
ELLIPSE
5
121
100
AcDbEntity
8
0
100
AcDbEllipse
10
15.499999999999972
20
123.96453531714984
30
0
11
-4.4999999999999902
21
0
31
0.0
40
0.96126169593832056
41
4.7123889803846897
42
6.2831853071795862
0
ELLIPSE
5
122
100
AcDbEntity
8
0
100
AcDbEllipse
10
13.599999999999969
20
120.15771199229007
30
0
11
-1.0000000000000016
21
2.2521503409492861e-15
31
0.0
40
0.96126169593832078
41
4.7123889803846879
42
6.2831853071795862
0
ELLIPSE
5
123
100
AcDbEntity
8
0
100
AcDbEllipse
10
15.499999999999998
20
19.667641307842018
30
4.4408920985006262e-15
11
-4.5000000000000009
21
-7.9461408987482904e-16
31
0.0
40
0.96126169593832078
41
0
42
1.5707963267948983
0
CIRCLE
5
124
100
AcDbEntity
8
0
100
AcDbCircle
10
52.499999999999993
20
123.85856952165263
30
0
40
1.7499999999999982
210
0
220
0
230
1
0
CIRCLE
5
125
100
AcDbEntity
8
0
100
AcDbCircle
10
127.49999999999999
20
123.85856952165263
30
0
40
1.7500000000000049
210
0
220
0
230
1
0
CIRCLE
5
126
100
AcDbEntity
8
0
100
AcDbCircle
10
127.49999999999999
20
18.119782968437335
30
0
40
1.7500000000000009
210
0
220
0
230
1
0
CIRCLE
5
127
100
AcDbEntity
8
0
100
AcDbCircle
10
52.499999999999964
20
18.119782968437349
30
0
40
1.7500000000000004
210
0
220
0
230
1
0
LINE
5
128
100
AcDbEntity
8
0
100
AcDbLine
10
89.999999999999972
20
128.29021294887229
30
2.2204460492503131e-15
11
90
21
15.341963676119574
31
4.4408920985006262e-15
0
LINE
5
129
100
AcDbEntity
8
0
100
AcDbLine
10
10.999999999999988
20
71.816088312495935
30
2.2204460492503131e-15
11
169
21
71.81608831249595
31
6.9333477997940559e-33
0
LINE
5
130
100
AcDbEntity
8
0
100
AcDbLine
10
52.499999999999993
20
123.85856952165263
30
0
11
127.49999999999999
21
123.85856952165263
31
0
0
LINE
5
131
100
AcDbEntity
8
0
100
AcDbLine
10
52.499999999999964
20
18.119782968437349
30
0
11
127.49999999999999
21
18.119782968437335
31
0
0
LWPOLYLINE
5
132
100
AcDbEntity
8
0
100
AcDbPolyline
90
4
70
1
43
0.0
10
106.14969447389581
20
59.647178290927343
10
72.731725723895806
20
59.647178290927343
10
72.731725723895806
20
69.647178290927343
10
106.14969447389581
20
69.647178290927343
0
ENDSEC
0
SECTION
2
OBJECTS
0
DICTIONARY
5
C
100
AcDbDictionary
3
ACAD_GROUP
350
D
3
ACAD_MLINESTYLE
350
17
0
DICTIONARY
5
D
100
AcDbDictionary
0
DICTIONARY
5
1A
330
C
100
AcDbDictionary
0
DICTIONARY
5
17
100
AcDbDictionary
0
ENDSEC
0
EOF
