0
SECTION
2
HEADER
9
$INSUNITS
70
4
9
$ACADVER
1
AC1014
9
$HANDSEED
5
FFFF
0
ENDSEC
0
SECTION
2
TABLES
0
TABLE
2
VPORT
5
8
100
AcDbSymbolTable
0
ENDTAB
0
TABLE
2
LTYPE
5
5
100
AcDbSymbolTable
0
LTYPE
5
14
100
AcDbSymbolTableRecord
100
AcDbLinetypeTableRecord
2
BYBLOCK
70
0
0
LTYPE
5
15
100
AcDbSymbolTableRecord
100
AcDbLinetypeTableRecord
2
BYLAYER
70
0
0
ENDTAB
0
TABLE
2
LAYER
5
2
100
AcDbSymbolTable
70
2
0
LAYER
5
50
100
AcDbSymbolTableRecord
100
AcDbLayerTableRecord
2
0
70
0
6
CONTINUOUS
0
ENDTAB
0
TABLE
2
STYLE
5
3
100
AcDbSymbolTable
70
1
0
STYLE
5
11
100
AcDbSymbolTableRecord
100
AcDbTextStyleTableRecord
2
STANDARD
70
0
0
ENDTAB
0
TABLE
2
VIEW
5
6
100
AcDbSymbolTable
70
0
0
ENDTAB
0
TABLE
2
UCS
5
7
100
AcDbSymbolTable
70
0
0
ENDTAB
0
TABLE
2
APPID
5
9
100
AcDbSymbolTable
70
2
0
APPID
5
12
100
AcDbSymbolTableRecord
100
AcDbRegAppTableRecord
2
ACAD
70
0
0
ENDTAB
0
TABLE
2
DIMSTYLE
5
A
100
AcDbSymbolTable
70
1
0
ENDTAB
0
TABLE
2
BLOCK_RECORD
5
1
100
AcDbSymbolTable
70
1
0
BLOCK_RECORD
5
1F
100
AcDbSymbolTableRecord
100
AcDbBlockTableRecord
2
*MODEL_SPACE
0
BLOCK_RECORD
5
1B
100
AcDbSymbolTableRecord
100
AcDbBlockTableRecord
2
*PAPER_SPACE
0
ENDTAB
0
ENDSEC
0
SECTION
2
BLOCKS
0
BLOCK
5
20
100
AcDbEntity
100
AcDbBlockBegin
2
*MODEL_SPACE
0
ENDBLK
5
21
100
AcDbEntity
100
AcDbBlockEnd
0
BLOCK
5
1C
100
AcDbEntity
100
AcDbBlockBegin
2
*PAPER_SPACE
0
ENDBLK
5
1D
100
AcDbEntity
100
AcDbBlockEnd
0
ENDSEC
0
SECTION
2
ENTITIES
0
LWPOLYLINE
5
100
100
AcDbEntity
8
0
100
AcDbPolyline
90
20
70
1
43
0.0
10
-183.00000000000009
20
131.74051622833642
10
-180.00000000000006
20
131.74051622833642
10
-180.00000000000011
20
151.74051622833639
10
-183.00000000000011
20
151.74051622833642
10
-183.00000000000009
20
171.74051622833662
10
3.2421229784822221
20
171.74051622833676
10
3.2421229784822381
20
151.74051622833673
10
-8.6695082538422547e-14
20
151.74051622833676
10
-7.049916206369744e-14
20
131.74051622833676
10
3.2421229784822541
20
131.74051622833676
10
3.2421229784823224
20
91.644511228336825
10
-2.5997806644731629e-15
20
91.644511228336881
10
4.8849813083506888e-14
20
71.644511228336881
10
3.2421229784823753
20
71.644511228336796
10
3.2421229784823069
20
51.644511228336711
10
-183.00000000000006
20
51.644511228336555
10
-183.00000000000006
20
71.644511228336512
10
-180.00000000000003
20
71.644511228336626
10
-180.00000000000003
20
91.644511228336611
10
-183.00000000000006
20
91.64451122833654
0
CIRCLE
5
101
100
AcDbEntity
8
0
100
AcDbCircle
10
-127.80931770616002
20
164.36044777637852
30
2.2204460492503131e-15
40
1.7500000000000071
210
-3.4512664603419266e-31
220
-2.7892316502814132e-46
230
1
0
CIRCLE
5
102
100
AcDbEntity
8
0
100
AcDbCircle
10
-127.80931770615993
20
58.621661223163883
30
-2.2204460492503131e-15
40
1.7500000000000071
210
-3.4512664603419266e-31
220
-2.7892316502814132e-46
230
1
0
CIRCLE
5
103
100
AcDbEntity
8
0
100
AcDbCircle
10
-52.809317706160471
20
164.36044777637869
30
-6.6613381477509392e-15
40
1.7500000000000071
210
-3.4512664603419266e-31
220
-2.7892316502814132e-46
230
1
0
CIRCLE
5
104
100
AcDbEntity
8
0
100
AcDbCircle
10
-52.809317706160343
20
58.621661223163969
30
2.2204460492503131e-15
40
1.7499999999999984
210
-2.9582283945787951e-31
220
-2.3907699859554966e-46
230
1
0
LINE
5
105
100
AcDbEntity
8
0
100
AcDbLine
10
-50.809317706160343
20
62.322518752526449
30
6.6613381477509392e-15
11
-129.80931770615993
21
62.322518752526378
31
6.6613381477509314e-15
0
ELLIPSE
5
106
100
AcDbEntity
8
0
100
AcDbEllipse
10
-129.8093177061599
20
60.399995360649726
30
0
11
-2.0000000000000009
21
-1.1513132320939457e-14
31
0.0
40
0.961261695938321
41
4.7123889803847181
42
6.2831853071795862
0
LINE
5
107
100
AcDbEntity
8
0
100
AcDbLine
10
-131.80931770615987
20
60.399995360649719
30
-1.5777218104420243e-30
11
-131.8093177061599
21
59.438733664711386
31
-2.2551405187698492e-15
0
ELLIPSE
5
108
100
AcDbEntity
8
0
100
AcDbEllipse
10
-133.8093177061599
20
59.438733664711414
30
2.2204460492503131e-15
11
2.0000000000000009
21
-3.065572611992428e-14
31
0.0
40
0.961261695938321
41
4.7123889803846897
42
6.2831853071795933
0
LINE
5
109
100
AcDbEntity
8
0
100
AcDbLine
10
-133.8093177061599
20
57.516210272834769
30
2.2204460492503131e-15
11
-166.70931770615971
21
57.516210272834769
31
2.2204460492503032e-15
0
ELLIPSE
5
110
100
AcDbEntity
8
0
100
AcDbEllipse
10
-166.70931770615968
20
58.477471968773074
30
-2.2204460492503131e-15
11
-1.0000000000000011
21
-2.4990860694019244e-14
31
0.0
40
0.96126169593832134
41
6.2831853071795791
42
7.8539816339744544
0
LINE
5
111
100
AcDbEntity
8
0
100
AcDbLine
10
-167.70931770615971
20
58.477471968773038
30
-2.2204460492503131e-15
11
-167.70931770615985
21
160.65959024701598
31
-2.2204460492503131e-15
0
ELLIPSE
5
112
100
AcDbEntity
8
0
100
AcDbEllipse
10
-166.70931770615988
20
160.65959024701598
30
-2.2204460492503131e-15
11
-1.0000000000000016
21
9.9988486237812208e-16
31
0.0
40
0.96126169593832089
41
4.7123889267949597
42
6.2831853071795578
0
LINE
5
113
100
AcDbEntity
8
0
100
AcDbLine
10
-166.70931765257009
20
161.62085194295429
30
-2.2738067926263605e-15
11
-13.909317706160671
21
161.62085194295452
31
-2.2204460492503289e-15
0
ELLIPSE
5
114
100
AcDbEntity
8
0
100
AcDbEllipse
10
-13.909317706160657
20
160.65959024701615
30
2.2204460492503131e-15
11
0.99999999999999556
21
1.1838420837776268e-15
31
0.0
40
0.96126169593832134
41
0
42
1.570796326794909
0
LINE
5
115
100
AcDbEntity
8
0
100
AcDbLine
10
-12.90931770616066
20
160.65959024701615
30
2.2204460492503135e-15
11
-12.909317706160559
21
58.477471968773251
31
-2.2204460492503131e-15
0
ELLIPSE
5
116
100
AcDbEntity
8
0
100
AcDbEllipse
10
-13.909317706160547
20
58.477471968773258
30
0
11
0.99999999999998757
21
1.2522654785711457e-15
31
0.0
40
0.96126169593832134
41
4.7123889267948851
42
6.283185307179572
0
LINE
5
117
100
AcDbEntity
8
0
100
AcDbLine
10
-13.909317759750355
20
57.516210272834954
30
-4.227490611137684e-38
11
-46.809317706160407
21
57.516210272834904
31
2.2204460492503032e-15
0
ELLIPSE
5
118
100
AcDbEntity
8
0
100
AcDbEllipse
10
-46.809317706160407
20
59.438733664711521
30
-2.2204460492503131e-15
11
-2.0000000000000009
21
-2.7399721689570879e-15
31
0.0
40
0.961261695938321
41
3.5527136788004883e-15
42
1.570796326794893
0
LINE
5
119
100
AcDbEntity
8
0
100
AcDbLine
10
-48.809317706160407
20
59.438733664711513
30
-2.2204460492503131e-15
11
-48.809317706160371
21
60.399995360649797
31
-2.2204460492503131e-15
0
ELLIPSE
5
120
100
AcDbEntity
8
0
100
AcDbEllipse
10
-50.809317706160336
20
60.399995360649832
30
2.2204460492503131e-15
11
2.0000000000000009
21
-2.6386866649840482e-14
31
0.0
40
0.961261695938321
41
6.2831853071795827
42
7.8539816339745041
0
ENDSEC
0
SECTION
2
OBJECTS
0
DICTIONARY
5
C
100
AcDbDictionary
3
ACAD_GROUP
350
D
3
ACAD_MLINESTYLE
350
17
0
DICTIONARY
5
D
100
AcDbDictionary
0
DICTIONARY
5
1A
330
C
100
AcDbDictionary
0
DICTIONARY
5
17
100
AcDbDictionary
0
ENDSEC
0
EOF
