<svg xmlns="http://www.w3.org/2000/svg" xmlns:svg="http://www.w3.org/2000/svg" xmlns:xlink="http://www.w3.org/1999/xlink" xmlns:sodipodi="http://sodipodi.sourceforge.net/DTD/sodipodi-0.dtd" xmlns:inkscape="http://www.inkscape.org/namespaces/inkscape" viewBox="0 0 793.7007874015749 1122.5196850393702" width="793.7007874015749" height="1122.5196850393702">
    <defs><marker id="DistanceX" orient="auto" refX="0.0" refY="0.0" style="overflow:visible"><path d="M 3,-3 L -3,3 M 0,-5 L  0,5" style="stroke:#000000; stroke-width:0.5"/></marker><pattern id="Hatch" patternUnits="userSpaceOnUse" width="8" height="8" x="0" y="0"><path d="M8 4 l-4,4" stroke="#000000" stroke-width="0.25" linecap="square"/><path d="M6 2 l-4,4" stroke="#000000" stroke-width="0.25" linecap="square"/><path d="M4 0 l-4,4" stroke="#000000" stroke-width="0.25" linecap="square"/></pattern><symbol id="*MODEL_SPACE"/><symbol id="*PAPER_SPACE"/></defs><g inkscape:groupmode="layer" inkscape:label="0"><path d="M 313.756764,1066.851344 L 302.418182,1066.851344 L 302.418182,1123.544258 L 17.063851,1123.544258 L 17.063851,1062.984482 L 5.725268,1062.984482 L 5.725268,995.540792 L 17.063851,995.540792 L 17.063851,922.055379 L 5.725268,922.055379 L 5.725268,916.884680 L 19.931645,922.055379 L 45.785136,851.023496 L 35.130354,847.145472 L 60.983845,776.113589 L 71.638627,779.991612 L 123.469713,637.586875 L 112.814930,633.708852 L 138.668421,562.676969 L 149.323204,566.554992 L 175.176695,495.523109 L 165.458722,491.986056 L 376.118969,491.986056 A 7.559055,7.559055 0.0 0 1 383.678024,499.545111 L 383.678024,1123.544258 L 313.756764,1123.544258 L 313.756764,1066.851344 z" style="fill:none;stroke:#000000"/></g><desc>leg.dxf - scale = 1.000000, origin = (0.000000, 0.000000), method = manual</desc></svg>