<?xml version='1.0' encoding='us-ascii'?>
<svg height="307.42mm" viewBox="0.0 0.0 545.78 307.42" width="545.78mm" xmlns="http://www.w3.org/2000/svg" xmlns:cc="http://creativecommons.org/ns#" xmlns:dc="http://purl.org/dc/elements/1.1/" xmlns:inkscape="http://www.inkscape.org/namespaces/inkscape" xmlns:rdf="http://www.w3.org/1999/02/22-rdf-syntax-ns#" xmlns:svg="http://www.w3.org/2000/svg" xmlns:xlink="http://www.w3.org/1999/xlink">
<!--
ClosedBox - Fully closed box

Created with Boxes.py (https://festi.info/boxes.py)
Creation date: 2021-01-17 02:25:39
Command line (remove spaces between dashes): boxes ClosedBox - -FingerJoint_angle=90.0 - -FingerJoint_style=rectangular - -FingerJoint_surroundingspaces=2.0 - -FingerJoint_edge_width=1.0 - -FingerJoint_finger=2.0 - -FingerJoint_play=0.0 - -FingerJoint_space=2.0 - -FingerJoint_width=1.0 - -x=256 - -y=176 - -h=45 - -outside=0 - -thickness=3.0 - -format=svg - -tabs=0.0 - -debug=0 - -reference=0 - -burn=0.07
Url: http://www.festi.info/ClosedBox?FingerJoint_angle=90.0&FingerJoint_style=rectangular&FingerJoint_surroundingspaces=2.0&FingerJoint_edge_width=1.0&FingerJoint_finger=2.0&FingerJoint_play=0.0&FingerJoint_space=2.0&FingerJoint_width=1.0&x=256&y=176&h=45&outside=0&thickness=3.0&format=svg&tabs=0.0&debug=0&reference=0&burn=0.07&render=1
SettingsUrl: http://www.festi.info/ClosedBox?FingerJoint_angle=90.0&FingerJoint_style=rectangular&FingerJoint_surroundingspaces=2.0&FingerJoint_edge_width=1.0&FingerJoint_finger=2.0&FingerJoint_play=0.0&FingerJoint_space=2.0&FingerJoint_width=1.0&x=256&y=176&h=45&outside=0&thickness=3.0&format=svg&tabs=0.0&debug=0&reference=0&burn=0.07
-->
<title>ClosedBox</title>
<metadata>
<rdf:RDF><cc:Work>
<dc:title>Box - ClosedBox</dc:title>
<dc:date>2021-01-17 02:25:39</dc:date>
<dc:source>http://www.festi.info/ClosedBox?FingerJoint_angle=90.0&amp;FingerJoint_style=rectangular&amp;FingerJoint_surroundingspaces=2.0&amp;FingerJoint_edge_width=1.0&amp;FingerJoint_finger=2.0&amp;FingerJoint_play=0.0&amp;FingerJoint_space=2.0&amp;FingerJoint_width=1.0&amp;x=256&amp;y=176&amp;h=45&amp;outside=0&amp;thickness=3.0&amp;format=svg&amp;tabs=0.0&amp;debug=0&amp;reference=0&amp;burn=0.07&amp;render=1</dc:source>
<dc:description>Fully closed box

Created with Boxes.py (https://festi.info/boxes.py)
Command line: boxes ClosedBox --FingerJoint_angle=90.0 --FingerJoint_style=rectangular --FingerJoint_surroundingspaces=2.0 --FingerJoint_edge_width=1.0 --FingerJoint_finger=2.0 --FingerJoint_play=0.0 --FingerJoint_space=2.0 --FingerJoint_width=1.0 --x=256 --y=176 --h=45 --outside=0 --thickness=3.0 --format=svg --tabs=0.0 --debug=0 --reference=0 --burn=0.07
Url: http://www.festi.info/ClosedBox?FingerJoint_angle=90.0&amp;FingerJoint_style=rectangular&amp;FingerJoint_surroundingspaces=2.0&amp;FingerJoint_edge_width=1.0&amp;FingerJoint_finger=2.0&amp;FingerJoint_play=0.0&amp;FingerJoint_space=2.0&amp;FingerJoint_width=1.0&amp;x=256&amp;y=176&amp;h=45&amp;outside=0&amp;thickness=3.0&amp;format=svg&amp;tabs=0.0&amp;debug=0&amp;reference=0&amp;burn=0.07&amp;render=1
SettingsUrl: http://www.festi.info/ClosedBox?FingerJoint_angle=90.0&amp;FingerJoint_style=rectangular&amp;FingerJoint_surroundingspaces=2.0&amp;FingerJoint_edge_width=1.0&amp;FingerJoint_finger=2.0&amp;FingerJoint_play=0.0&amp;FingerJoint_space=2.0&amp;FingerJoint_width=1.0&amp;x=256&amp;y=176&amp;h=45&amp;outside=0&amp;thickness=3.0&amp;format=svg&amp;tabs=0.0&amp;debug=0&amp;reference=0&amp;burn=0.07
</dc:description>
</cc:Work></rdf:RDF></metadata>
<g id="p-0" style="fill:none;stroke-linecap:round;stroke-linejoin:round;">
  <path d="M 13.070 297.420 H 24.070 C 24.109 297.420 24.140 297.389 24.140 297.350 V 294.420 C 24.140 294.350 24.070 294.420 24.140 294.420 H 30.000 C 30.070 294.420 30.000 294.350 30.000 294.420 V 297.350 C 30.000 297.389 30.031 297.420 30.070 297.420 H 36.070 C 36.109 297.420 36.140 297.389 36.140 297.350 V 294.420 C 36.140 294.350 36.070 294.420 36.140 294.420 H 42.000 C 42.070 294.420 42.000 294.350 42.000 294.420 V 297.350 C 42.000 297.389 42.031 297.420 42.070 297.420 H 48.070 C 48.109 297.420 48.140 297.389 48.140 297.350 V 294.420 C 48.140 294.350 48.070 294.420 48.140 294.420 H 54.000 C 54.070 294.420 54.000 294.350 54.000 294.420 V 297.350 C 54.000 297.389 54.031 297.420 54.070 297.420 H 60.070 C 60.109 297.420 60.140 297.389 60.140 297.350 V 294.420 C 60.140 294.350 60.070 294.420 60.140 294.420 H 66.000 C 66.070 294.420 66.000 294.350 66.000 294.420 V 297.350 C 66.000 297.389 66.031 297.420 66.070 297.420 H 72.070 C 72.109 297.420 72.140 297.389 72.140 297.350 V 294.420 C 72.140 294.350 72.070 294.420 72.140 294.420 H 78.000 C 78.070 294.420 78.000 294.350 78.000 294.420 V 297.350 C 78.000 297.389 78.031 297.420 78.070 297.420 H 84.070 C 84.109 297.420 84.140 297.389 84.140 297.350 V 294.420 C 84.140 294.350 84.070 294.420 84.140 294.420 H 90.000 C 90.070 294.420 90.000 294.350 90.000 294.420 V 297.350 C 90.000 297.389 90.031 297.420 90.070 297.420 H 96.070 C 96.109 297.420 96.140 297.389 96.140 297.350 V 294.420 C 96.140 294.350 96.070 294.420 96.140 294.420 H 102.000 C 102.070 294.420 102.000 294.350 102.000 294.420 V 297.350 C 102.000 297.389 102.031 297.420 102.070 297.420 H 108.070 C 108.109 297.420 108.140 297.389 108.140 297.350 V 294.420 C 108.140 294.350 108.070 294.420 108.140 294.420 H 114.000 C 114.070 294.420 114.000 294.350 114.000 294.420 V 297.350 C 114.000 297.389 114.031 297.420 114.070 297.420 H 120.070 C 120.109 297.420 120.140 297.389 120.140 297.350 V 294.420 C 120.140 294.350 120.070 294.420 120.140 294.420 H 126.000 C 126.070 294.420 126.000 294.350 126.000 294.420 V 297.350 C 126.000 297.389 126.031 297.420 126.070 297.420 H 132.070 C 132.109 297.420 132.140 297.389 132.140 297.350 V 294.420 C 132.140 294.350 132.070 294.420 132.140 294.420 H 138.000 C 138.070 294.420 138.000 294.350 138.000 294.420 V 297.350 C 138.000 297.389 138.031 297.420 138.070 297.420 H 144.070 C 144.109 297.420 144.140 297.389 144.140 297.350 V 294.420 C 144.140 294.350 144.070 294.420 144.140 294.420 H 150.000 C 150.070 294.420 150.000 294.350 150.000 294.420 V 297.350 C 150.000 297.389 150.031 297.420 150.070 297.420 H 156.070 C 156.109 297.420 156.140 297.389 156.140 297.350 V 294.420 C 156.140 294.350 156.070 294.420 156.140 294.420 H 162.000 C 162.070 294.420 162.000 294.350 162.000 294.420 V 297.350 C 162.000 297.389 162.031 297.420 162.070 297.420 H 168.070 C 168.109 297.420 168.140 297.389 168.140 297.350 V 294.420 C 168.140 294.350 168.070 294.420 168.140 294.420 H 174.000 C 174.070 294.420 174.000 294.350 174.000 294.420 V 297.350 C 174.000 297.389 174.031 297.420 174.070 297.420 H 180.070 C 180.109 297.420 180.140 297.389 180.140 297.350 V 294.420 C 180.140 294.350 180.070 294.420 180.140 294.420 H 186.000 C 186.070 294.420 186.000 294.350 186.000 294.420 V 297.350 C 186.000 297.389 186.031 297.420 186.070 297.420 H 192.070 C 192.109 297.420 192.140 297.389 192.140 297.350 V 294.420 C 192.140 294.350 192.070 294.420 192.140 294.420 H 198.000 C 198.070 294.420 198.000 294.350 198.000 294.420 V 297.350 C 198.000 297.389 198.031 297.420 198.070 297.420 H 204.070 C 204.109 297.420 204.140 297.389 204.140 297.350 V 294.420 C 204.140 294.350 204.070 294.420 204.140 294.420 H 210.000 C 210.070 294.420 210.000 294.350 210.000 294.420 V 297.350 C 210.000 297.389 210.031 297.420 210.070 297.420 H 216.070 C 216.109 297.420 216.140 297.389 216.140 297.350 V 294.420 C 216.140 294.350 216.070 294.420 216.140 294.420 H 222.000 C 222.070 294.420 222.000 294.350 222.000 294.420 V 297.350 C 222.000 297.389 222.031 297.420 222.070 297.420 H 228.070 C 228.109 297.420 228.140 297.389 228.140 297.350 V 294.420 C 228.140 294.350 228.070 294.420 228.140 294.420 H 234.000 C 234.070 294.420 234.000 294.350 234.000 294.420 V 297.350 C 234.000 297.389 234.031 297.420 234.070 297.420 H 240.070 C 240.109 297.420 240.140 297.389 240.140 297.350 V 294.420 C 240.140 294.350 240.070 294.420 240.140 294.420 H 246.000 C 246.070 294.420 246.000 294.350 246.000 294.420 V 297.350 C 246.000 297.389 246.031 297.420 246.070 297.420 H 252.070 C 252.109 297.420 252.140 297.389 252.140 297.350 V 294.420 C 252.140 294.350 252.070 294.420 252.140 294.420 H 258.000 C 258.070 294.420 258.000 294.350 258.000 294.420 V 297.350 C 258.000 297.389 258.031 297.420 258.070 297.420 H 269.070 H 272.070 C 272.109 297.420 272.140 297.389 272.140 297.350 V 294.350 V 286.850 C 272.140 286.811 272.109 286.780 272.070 286.780 H 269.140 C 269.070 286.780 269.140 286.850 269.140 286.780 V 280.920 C 269.140 280.850 269.070 280.920 269.140 280.920 H 272.070 C 272.109 280.920 272.140 280.889 272.140 280.850 V 274.850 C 272.140 274.811 272.109 274.780 272.070 274.780 H 269.140 C 269.070 274.780 269.140 274.850 269.140 274.780 V 268.920 C 269.140 268.850 269.070 268.920 269.140 268.920 H 272.070 C 272.109 268.920 272.140 268.889 272.140 268.850 V 262.850 C 272.140 262.811 272.109 262.780 272.070 262.780 H 269.140 C 269.070 262.780 269.140 262.850 269.140 262.780 V 256.920 C 269.140 256.850 269.070 256.920 269.140 256.920 H 272.070 C 272.109 256.920 272.140 256.889 272.140 256.850 V 249.350 V 246.350 C 272.140 246.311 272.109 246.280 272.070 246.280 H 269.070 H 258.070 C 258.031 246.280 258.000 246.311 258.000 246.350 V 249.280 C 258.000 249.350 258.070 249.280 258.000 249.280 H 252.140 C 252.070 249.280 252.140 249.350 252.140 249.280 V 246.350 C 252.140 246.311 252.109 246.280 252.070 246.280 H 246.070 C 246.031 246.280 246.000 246.311 246.000 246.350 V 249.280 C 246.000 249.350 246.070 249.280 246.000 249.280 H 240.140 C 240.070 249.280 240.140 249.350 240.140 249.280 V 246.350 C 240.140 246.311 240.109 246.280 240.070 246.280 H 234.070 C 234.031 246.280 234.000 246.311 234.000 246.350 V 249.280 C 234.000 249.350 234.070 249.280 234.000 249.280 H 228.140 C 228.070 249.280 228.140 249.350 228.140 249.280 V 246.350 C 228.140 246.311 228.109 246.280 228.070 246.280 H 222.070 C 222.031 246.280 222.000 246.311 222.000 246.350 V 249.280 C 222.000 249.350 222.070 249.280 222.000 249.280 H 216.140 C 216.070 249.280 216.140 249.350 216.140 249.280 V 246.350 C 216.140 246.311 216.109 246.280 216.070 246.280 H 210.070 C 210.031 246.280 210.000 246.311 210.000 246.350 V 249.280 C 210.000 249.350 210.070 249.280 210.000 249.280 H 204.140 C 204.070 249.280 204.140 249.350 204.140 249.280 V 246.350 C 204.140 246.311 204.109 246.280 204.070 246.280 H 198.070 C 198.031 246.280 198.000 246.311 198.000 246.350 V 249.280 C 198.000 249.350 198.070 249.280 198.000 249.280 H 192.140 C 192.070 249.280 192.140 249.350 192.140 249.280 V 246.350 C 192.140 246.311 192.109 246.280 192.070 246.280 H 186.070 C 186.031 246.280 186.000 246.311 186.000 246.350 V 249.280 C 186.000 249.350 186.070 249.280 186.000 249.280 H 180.140 C 180.070 249.280 180.140 249.350 180.140 249.280 V 246.350 C 180.140 246.311 180.109 246.280 180.070 246.280 H 174.070 C 174.031 246.280 174.000 246.311 174.000 246.350 V 249.280 C 174.000 249.350 174.070 249.280 174.000 249.280 H 168.140 C 168.070 249.280 168.140 249.350 168.140 249.280 V 246.350 C 168.140 246.311 168.109 246.280 168.070 246.280 H 162.070 C 162.031 246.280 162.000 246.311 162.000 246.350 V 249.280 C 162.000 249.350 162.070 249.280 162.000 249.280 H 156.140 C 156.070 249.280 156.140 249.350 156.140 249.280 V 246.350 C 156.140 246.311 156.109 246.280 156.070 246.280 H 150.070 C 150.031 246.280 150.000 246.311 150.000 246.350 V 249.280 C 150.000 249.350 150.070 249.280 150.000 249.280 H 144.140 C 144.070 249.280 144.140 249.350 144.140 249.280 V 246.350 C 144.140 246.311 144.109 246.280 144.070 246.280 H 138.070 C 138.031 246.280 138.000 246.311 138.000 246.350 V 249.280 C 138.000 249.350 138.070 249.280 138.000 249.280 H 132.140 C 132.070 249.280 132.140 249.350 132.140 249.280 V 246.350 C 132.140 246.311 132.109 246.280 132.070 246.280 H 126.070 C 126.031 246.280 126.000 246.311 126.000 246.350 V 249.280 C 126.000 249.350 126.070 249.280 126.000 249.280 H 120.140 C 120.070 249.280 120.140 249.350 120.140 249.280 V 246.350 C 120.140 246.311 120.109 246.280 120.070 246.280 H 114.070 C 114.031 246.280 114.000 246.311 114.000 246.350 V 249.280 C 114.000 249.350 114.070 249.280 114.000 249.280 H 108.140 C 108.070 249.280 108.140 249.350 108.140 249.280 V 246.350 C 108.140 246.311 108.109 246.280 108.070 246.280 H 102.070 C 102.031 246.280 102.000 246.311 102.000 246.350 V 249.280 C 102.000 249.350 102.070 249.280 102.000 249.280 H 96.140 C 96.070 249.280 96.140 249.350 96.140 249.280 V 246.350 C 96.140 246.311 96.109 246.280 96.070 246.280 H 90.070 C 90.031 246.280 90.000 246.311 90.000 246.350 V 249.280 C 90.000 249.350 90.070 249.280 90.000 249.280 H 84.140 C 84.070 249.280 84.140 249.350 84.140 249.280 V 246.350 C 84.140 246.311 84.109 246.280 84.070 246.280 H 78.070 C 78.031 246.280 78.000 246.311 78.000 246.350 V 249.280 C 78.000 249.350 78.070 249.280 78.000 249.280 H 72.140 C 72.070 249.280 72.140 249.350 72.140 249.280 V 246.350 C 72.140 246.311 72.109 246.280 72.070 246.280 H 66.070 C 66.031 246.280 66.000 246.311 66.000 246.350 V 249.280 C 66.000 249.350 66.070 249.280 66.000 249.280 H 60.140 C 60.070 249.280 60.140 249.350 60.140 249.280 V 246.350 C 60.140 246.311 60.109 246.280 60.070 246.280 H 54.070 C 54.031 246.280 54.000 246.311 54.000 246.350 V 249.280 C 54.000 249.350 54.070 249.280 54.000 249.280 H 48.140 C 48.070 249.280 48.140 249.350 48.140 249.280 V 246.350 C 48.140 246.311 48.109 246.280 48.070 246.280 H 42.070 C 42.031 246.280 42.000 246.311 42.000 246.350 V 249.280 C 42.000 249.350 42.070 249.280 42.000 249.280 H 36.140 C 36.070 249.280 36.140 249.350 36.140 249.280 V 246.350 C 36.140 246.311 36.109 246.280 36.070 246.280 H 30.070 C 30.031 246.280 30.000 246.311 30.000 246.350 V 249.280 C 30.000 249.350 30.070 249.280 30.000 249.280 H 24.140 C 24.070 249.280 24.140 249.350 24.140 249.280 V 246.350 C 24.140 246.311 24.109 246.280 24.070 246.280 H 13.070 H 10.070 C 10.031 246.280 10.000 246.311 10.000 246.350 V 249.350 V 256.850 C 10.000 256.889 10.031 256.920 10.070 256.920 H 13.000 C 13.070 256.920 13.000 256.850 13.000 256.920 V 262.780 C 13.000 262.850 13.070 262.780 13.000 262.780 H 10.070 C 10.031 262.780 10.000 262.811 10.000 262.850 V 268.850 C 10.000 268.889 10.031 268.920 10.070 268.920 H 13.000 C 13.070 268.920 13.000 268.850 13.000 268.920 V 274.780 C 13.000 274.850 13.070 274.780 13.000 274.780 H 10.070 C 10.031 274.780 10.000 274.811 10.000 274.850 V 280.850 C 10.000 280.889 10.031 280.920 10.070 280.920 H 13.000 C 13.070 280.920 13.000 280.850 13.000 280.920 V 286.780 C 13.000 286.850 13.070 286.780 13.000 286.780 H 10.070 C 10.031 286.780 10.000 286.811 10.000 286.850 V 294.350 V 297.350 C 10.000 297.389 10.031 297.420 10.070 297.420 H 13.070 Z" stroke="rgb(0,0,0)" stroke-width="0.14" />
</g>
<g id="p-1" style="fill:none;stroke-linecap:round;stroke-linejoin:round;">
  <path d="M 276.710 297.420 H 283.710 C 283.749 297.420 283.780 297.389 283.780 297.350 V 294.420 C 283.780 294.350 283.710 294.420 283.780 294.420 H 289.640 C 289.710 294.420 289.640 294.350 289.640 294.420 V 297.350 C 289.640 297.389 289.671 297.420 289.710 297.420 H 295.710 C 295.749 297.420 295.780 297.389 295.780 297.350 V 294.420 C 295.780 294.350 295.710 294.420 295.780 294.420 H 301.640 C 301.710 294.420 301.640 294.350 301.640 294.420 V 297.350 C 301.640 297.389 301.671 297.420 301.710 297.420 H 307.710 C 307.749 297.420 307.780 297.389 307.780 297.350 V 294.420 C 307.780 294.350 307.710 294.420 307.780 294.420 H 313.640 C 313.710 294.420 313.640 294.350 313.640 294.420 V 297.350 C 313.640 297.389 313.671 297.420 313.710 297.420 H 319.710 C 319.749 297.420 319.780 297.389 319.780 297.350 V 294.420 C 319.780 294.350 319.710 294.420 319.780 294.420 H 325.640 C 325.710 294.420 325.640 294.350 325.640 294.420 V 297.350 C 325.640 297.389 325.671 297.420 325.710 297.420 H 331.710 C 331.749 297.420 331.780 297.389 331.780 297.350 V 294.420 C 331.780 294.350 331.710 294.420 331.780 294.420 H 337.640 C 337.710 294.420 337.640 294.350 337.640 294.420 V 297.350 C 337.640 297.389 337.671 297.420 337.710 297.420 H 343.710 C 343.749 297.420 343.780 297.389 343.780 297.350 V 294.420 C 343.780 294.350 343.710 294.420 343.780 294.420 H 349.640 C 349.710 294.420 349.640 294.350 349.640 294.420 V 297.350 C 349.640 297.389 349.671 297.420 349.710 297.420 H 355.710 C 355.749 297.420 355.780 297.389 355.780 297.350 V 294.420 C 355.780 294.350 355.710 294.420 355.780 294.420 H 361.640 C 361.710 294.420 361.640 294.350 361.640 294.420 V 297.350 C 361.640 297.389 361.671 297.420 361.710 297.420 H 367.710 C 367.749 297.420 367.780 297.389 367.780 297.350 V 294.420 C 367.780 294.350 367.710 294.420 367.780 294.420 H 373.640 C 373.710 294.420 373.640 294.350 373.640 294.420 V 297.350 C 373.640 297.389 373.671 297.420 373.710 297.420 H 379.710 C 379.749 297.420 379.780 297.389 379.780 297.350 V 294.420 C 379.780 294.350 379.710 294.420 379.780 294.420 H 385.640 C 385.710 294.420 385.640 294.350 385.640 294.420 V 297.350 C 385.640 297.389 385.671 297.420 385.710 297.420 H 391.710 C 391.749 297.420 391.780 297.389 391.780 297.350 V 294.420 C 391.780 294.350 391.710 294.420 391.780 294.420 H 397.640 C 397.710 294.420 397.640 294.350 397.640 294.420 V 297.350 C 397.640 297.389 397.671 297.420 397.710 297.420 H 403.710 C 403.749 297.420 403.780 297.389 403.780 297.350 V 294.420 C 403.780 294.350 403.710 294.420 403.780 294.420 H 409.640 C 409.710 294.420 409.640 294.350 409.640 294.420 V 297.350 C 409.640 297.389 409.671 297.420 409.710 297.420 H 415.710 C 415.749 297.420 415.780 297.389 415.780 297.350 V 294.420 C 415.780 294.350 415.710 294.420 415.780 294.420 H 421.640 C 421.710 294.420 421.640 294.350 421.640 294.420 V 297.350 C 421.640 297.389 421.671 297.420 421.710 297.420 H 427.710 C 427.749 297.420 427.780 297.389 427.780 297.350 V 294.420 C 427.780 294.350 427.710 294.420 427.780 294.420 H 433.640 C 433.710 294.420 433.640 294.350 433.640 294.420 V 297.350 C 433.640 297.389 433.671 297.420 433.710 297.420 H 439.710 C 439.749 297.420 439.780 297.389 439.780 297.350 V 294.420 C 439.780 294.350 439.710 294.420 439.780 294.420 H 445.640 C 445.710 294.420 445.640 294.350 445.640 294.420 V 297.350 C 445.640 297.389 445.671 297.420 445.710 297.420 H 452.710 C 452.749 297.420 452.780 297.389 452.780 297.350 V 294.350 V 286.920 C 452.780 286.850 452.710 286.920 452.780 286.920 H 455.710 C 455.749 286.920 455.780 286.889 455.780 286.850 V 280.850 C 455.780 280.811 455.749 280.780 455.710 280.780 H 452.780 C 452.710 280.780 452.780 280.850 452.780 280.780 V 274.920 C 452.780 274.850 452.710 274.920 452.780 274.920 H 455.710 C 455.749 274.920 455.780 274.889 455.780 274.850 V 268.850 C 455.780 268.811 455.749 268.780 455.710 268.780 H 452.780 C 452.710 268.780 452.780 268.850 452.780 268.780 V 262.920 C 452.780 262.850 452.710 262.920 452.780 262.920 H 455.710 C 455.749 262.920 455.780 262.889 455.780 262.850 V 256.850 C 455.780 256.811 455.749 256.780 455.710 256.780 H 452.780 C 452.710 256.780 452.780 256.850 452.780 256.780 V 249.350 V 246.350 C 452.780 246.311 452.749 246.280 452.710 246.280 H 445.710 C 445.671 246.280 445.640 246.311 445.640 246.350 V 249.280 C 445.640 249.350 445.710 249.280 445.640 249.280 H 439.780 C 439.710 249.280 439.780 249.350 439.780 249.280 V 246.350 C 439.780 246.311 439.749 246.280 439.710 246.280 H 433.710 C 433.671 246.280 433.640 246.311 433.640 246.350 V 249.280 C 433.640 249.350 433.710 249.280 433.640 249.280 H 427.780 C 427.710 249.280 427.780 249.350 427.780 249.280 V 246.350 C 427.780 246.311 427.749 246.280 427.710 246.280 H 421.710 C 421.671 246.280 421.640 246.311 421.640 246.350 V 249.280 C 421.640 249.350 421.710 249.280 421.640 249.280 H 415.780 C 415.710 249.280 415.780 249.350 415.780 249.280 V 246.350 C 415.780 246.311 415.749 246.280 415.710 246.280 H 409.710 C 409.671 246.280 409.640 246.311 409.640 246.350 V 249.280 C 409.640 249.350 409.710 249.280 409.640 249.280 H 403.780 C 403.710 249.280 403.780 249.350 403.780 249.280 V 246.350 C 403.780 246.311 403.749 246.280 403.710 246.280 H 397.710 C 397.671 246.280 397.640 246.311 397.640 246.350 V 249.280 C 397.640 249.350 397.710 249.280 397.640 249.280 H 391.780 C 391.710 249.280 391.780 249.350 391.780 249.280 V 246.350 C 391.780 246.311 391.749 246.280 391.710 246.280 H 385.710 C 385.671 246.280 385.640 246.311 385.640 246.350 V 249.280 C 385.640 249.350 385.710 249.280 385.640 249.280 H 379.780 C 379.710 249.280 379.780 249.350 379.780 249.280 V 246.350 C 379.780 246.311 379.749 246.280 379.710 246.280 H 373.710 C 373.671 246.280 373.640 246.311 373.640 246.350 V 249.280 C 373.640 249.350 373.710 249.280 373.640 249.280 H 367.780 C 367.710 249.280 367.780 249.350 367.780 249.280 V 246.350 C 367.780 246.311 367.749 246.280 367.710 246.280 H 361.710 C 361.671 246.280 361.640 246.311 361.640 246.350 V 249.280 C 361.640 249.350 361.710 249.280 361.640 249.280 H 355.780 C 355.710 249.280 355.780 249.350 355.780 249.280 V 246.350 C 355.780 246.311 355.749 246.280 355.710 246.280 H 349.710 C 349.671 246.280 349.640 246.311 349.640 246.350 V 249.280 C 349.640 249.350 349.710 249.280 349.640 249.280 H 343.780 C 343.710 249.280 343.780 249.350 343.780 249.280 V 246.350 C 343.780 246.311 343.749 246.280 343.710 246.280 H 337.710 C 337.671 246.280 337.640 246.311 337.640 246.350 V 249.280 C 337.640 249.350 337.710 249.280 337.640 249.280 H 331.780 C 331.710 249.280 331.780 249.350 331.780 249.280 V 246.350 C 331.780 246.311 331.749 246.280 331.710 246.280 H 325.710 C 325.671 246.280 325.640 246.311 325.640 246.350 V 249.280 C 325.640 249.350 325.710 249.280 325.640 249.280 H 319.780 C 319.710 249.280 319.780 249.350 319.780 249.280 V 246.350 C 319.780 246.311 319.749 246.280 319.710 246.280 H 313.710 C 313.671 246.280 313.640 246.311 313.640 246.350 V 249.280 C 313.640 249.350 313.710 249.280 313.640 249.280 H 307.780 C 307.710 249.280 307.780 249.350 307.780 249.280 V 246.350 C 307.780 246.311 307.749 246.280 307.710 246.280 H 301.710 C 301.671 246.280 301.640 246.311 301.640 246.350 V 249.280 C 301.640 249.350 301.710 249.280 301.640 249.280 H 295.780 C 295.710 249.280 295.780 249.350 295.780 249.280 V 246.350 C 295.780 246.311 295.749 246.280 295.710 246.280 H 289.710 C 289.671 246.280 289.640 246.311 289.640 246.350 V 249.280 C 289.640 249.350 289.710 249.280 289.640 249.280 H 283.780 C 283.710 249.280 283.780 249.350 283.780 249.280 V 246.350 C 283.780 246.311 283.749 246.280 283.710 246.280 H 276.710 C 276.671 246.280 276.640 246.311 276.640 246.350 V 249.350 V 256.780 C 276.640 256.850 276.710 256.780 276.640 256.780 H 273.710 C 273.671 256.780 273.640 256.811 273.640 256.850 V 262.850 C 273.640 262.889 273.671 262.920 273.710 262.920 H 276.640 C 276.710 262.920 276.640 262.850 276.640 262.920 V 268.780 C 276.640 268.850 276.710 268.780 276.640 268.780 H 273.710 C 273.671 268.780 273.640 268.811 273.640 268.850 V 274.850 C 273.640 274.889 273.671 274.920 273.710 274.920 H 276.640 C 276.710 274.920 276.640 274.850 276.640 274.920 V 280.780 C 276.640 280.850 276.710 280.780 276.640 280.780 H 273.710 C 273.671 280.780 273.640 280.811 273.640 280.850 V 286.850 C 273.640 286.889 273.671 286.920 273.710 286.920 H 276.640 C 276.710 286.920 276.640 286.850 276.640 286.920 V 294.350 V 297.350 C 276.640 297.389 276.671 297.420 276.710 297.420 Z" stroke="rgb(0,0,0)" stroke-width="0.14" />
</g>
<g id="p-2" style="fill:none;stroke-linecap:round;stroke-linejoin:round;">
  <path d="M 276.710 244.780 H 283.710 C 283.749 244.780 283.780 244.749 283.780 244.710 V 241.780 C 283.780 241.710 283.710 241.780 283.780 241.780 H 289.640 C 289.710 241.780 289.640 241.710 289.640 241.780 V 244.710 C 289.640 244.749 289.671 244.780 289.710 244.780 H 295.710 C 295.749 244.780 295.780 244.749 295.780 244.710 V 241.780 C 295.780 241.710 295.710 241.780 295.780 241.780 H 301.640 C 301.710 241.780 301.640 241.710 301.640 241.780 V 244.710 C 301.640 244.749 301.671 244.780 301.710 244.780 H 307.710 C 307.749 244.780 307.780 244.749 307.780 244.710 V 241.780 C 307.780 241.710 307.710 241.780 307.780 241.780 H 313.640 C 313.710 241.780 313.640 241.710 313.640 241.780 V 244.710 C 313.640 244.749 313.671 244.780 313.710 244.780 H 319.710 C 319.749 244.780 319.780 244.749 319.780 244.710 V 241.780 C 319.780 241.710 319.710 241.780 319.780 241.780 H 325.640 C 325.710 241.780 325.640 241.710 325.640 241.780 V 244.710 C 325.640 244.749 325.671 244.780 325.710 244.780 H 331.710 C 331.749 244.780 331.780 244.749 331.780 244.710 V 241.780 C 331.780 241.710 331.710 241.780 331.780 241.780 H 337.640 C 337.710 241.780 337.640 241.710 337.640 241.780 V 244.710 C 337.640 244.749 337.671 244.780 337.710 244.780 H 343.710 C 343.749 244.780 343.780 244.749 343.780 244.710 V 241.780 C 343.780 241.710 343.710 241.780 343.780 241.780 H 349.640 C 349.710 241.780 349.640 241.710 349.640 241.780 V 244.710 C 349.640 244.749 349.671 244.780 349.710 244.780 H 355.710 C 355.749 244.780 355.780 244.749 355.780 244.710 V 241.780 C 355.780 241.710 355.710 241.780 355.780 241.780 H 361.640 C 361.710 241.780 361.640 241.710 361.640 241.780 V 244.710 C 361.640 244.749 361.671 244.780 361.710 244.780 H 367.710 C 367.749 244.780 367.780 244.749 367.780 244.710 V 241.780 C 367.780 241.710 367.710 241.780 367.780 241.780 H 373.640 C 373.710 241.780 373.640 241.710 373.640 241.780 V 244.710 C 373.640 244.749 373.671 244.780 373.710 244.780 H 379.710 C 379.749 244.780 379.780 244.749 379.780 244.710 V 241.780 C 379.780 241.710 379.710 241.780 379.780 241.780 H 385.640 C 385.710 241.780 385.640 241.710 385.640 241.780 V 244.710 C 385.640 244.749 385.671 244.780 385.710 244.780 H 391.710 C 391.749 244.780 391.780 244.749 391.780 244.710 V 241.780 C 391.780 241.710 391.710 241.780 391.780 241.780 H 397.640 C 397.710 241.780 397.640 241.710 397.640 241.780 V 244.710 C 397.640 244.749 397.671 244.780 397.710 244.780 H 403.710 C 403.749 244.780 403.780 244.749 403.780 244.710 V 241.780 C 403.780 241.710 403.710 241.780 403.780 241.780 H 409.640 C 409.710 241.780 409.640 241.710 409.640 241.780 V 244.710 C 409.640 244.749 409.671 244.780 409.710 244.780 H 415.710 C 415.749 244.780 415.780 244.749 415.780 244.710 V 241.780 C 415.780 241.710 415.710 241.780 415.780 241.780 H 421.640 C 421.710 241.780 421.640 241.710 421.640 241.780 V 244.710 C 421.640 244.749 421.671 244.780 421.710 244.780 H 427.710 C 427.749 244.780 427.780 244.749 427.780 244.710 V 241.780 C 427.780 241.710 427.710 241.780 427.780 241.780 H 433.640 C 433.710 241.780 433.640 241.710 433.640 241.780 V 244.710 C 433.640 244.749 433.671 244.780 433.710 244.780 H 439.710 C 439.749 244.780 439.780 244.749 439.780 244.710 V 241.780 C 439.780 241.710 439.710 241.780 439.780 241.780 H 445.640 C 445.710 241.780 445.640 241.710 445.640 241.780 V 244.710 C 445.640 244.749 445.671 244.780 445.710 244.780 H 452.710 C 452.749 244.780 452.780 244.749 452.780 244.710 V 241.710 V 234.280 C 452.780 234.210 452.710 234.280 452.780 234.280 H 455.710 C 455.749 234.280 455.780 234.249 455.780 234.210 V 228.210 C 455.780 228.171 455.749 228.140 455.710 228.140 H 452.780 C 452.710 228.140 452.780 228.210 452.780 228.140 V 222.280 C 452.780 222.210 452.710 222.280 452.780 222.280 H 455.710 C 455.749 222.280 455.780 222.249 455.780 222.210 V 216.210 C 455.780 216.171 455.749 216.140 455.710 216.140 H 452.780 C 452.710 216.140 452.780 216.210 452.780 216.140 V 210.280 C 452.780 210.210 452.710 210.280 452.780 210.280 H 455.710 C 455.749 210.280 455.780 210.249 455.780 210.210 V 204.210 C 455.780 204.171 455.749 204.140 455.710 204.140 H 452.780 C 452.710 204.140 452.780 204.210 452.780 204.140 V 196.710 V 193.710 C 452.780 193.671 452.749 193.640 452.710 193.640 H 445.710 C 445.671 193.640 445.640 193.671 445.640 193.710 V 196.640 C 445.640 196.710 445.710 196.640 445.640 196.640 H 439.780 C 439.710 196.640 439.780 196.710 439.780 196.640 V 193.710 C 439.780 193.671 439.749 193.640 439.710 193.640 H 433.710 C 433.671 193.640 433.640 193.671 433.640 193.710 V 196.640 C 433.640 196.710 433.710 196.640 433.640 196.640 H 427.780 C 427.710 196.640 427.780 196.710 427.780 196.640 V 193.710 C 427.780 193.671 427.749 193.640 427.710 193.640 H 421.710 C 421.671 193.640 421.640 193.671 421.640 193.710 V 196.640 C 421.640 196.710 421.710 196.640 421.640 196.640 H 415.780 C 415.710 196.640 415.780 196.710 415.780 196.640 V 193.710 C 415.780 193.671 415.749 193.640 415.710 193.640 H 409.710 C 409.671 193.640 409.640 193.671 409.640 193.710 V 196.640 C 409.640 196.710 409.710 196.640 409.640 196.640 H 403.780 C 403.710 196.640 403.780 196.710 403.780 196.640 V 193.710 C 403.780 193.671 403.749 193.640 403.710 193.640 H 397.710 C 397.671 193.640 397.640 193.671 397.640 193.710 V 196.640 C 397.640 196.710 397.710 196.640 397.640 196.640 H 391.780 C 391.710 196.640 391.780 196.710 391.780 196.640 V 193.710 C 391.780 193.671 391.749 193.640 391.710 193.640 H 385.710 C 385.671 193.640 385.640 193.671 385.640 193.710 V 196.640 C 385.640 196.710 385.710 196.640 385.640 196.640 H 379.780 C 379.710 196.640 379.780 196.710 379.780 196.640 V 193.710 C 379.780 193.671 379.749 193.640 379.710 193.640 H 373.710 C 373.671 193.640 373.640 193.671 373.640 193.710 V 196.640 C 373.640 196.710 373.710 196.640 373.640 196.640 H 367.780 C 367.710 196.640 367.780 196.710 367.780 196.640 V 193.710 C 367.780 193.671 367.749 193.640 367.710 193.640 H 361.710 C 361.671 193.640 361.640 193.671 361.640 193.710 V 196.640 C 361.640 196.710 361.710 196.640 361.640 196.640 H 355.780 C 355.710 196.640 355.780 196.710 355.780 196.640 V 193.710 C 355.780 193.671 355.749 193.640 355.710 193.640 H 349.710 C 349.671 193.640 349.640 193.671 349.640 193.710 V 196.640 C 349.640 196.710 349.710 196.640 349.640 196.640 H 343.780 C 343.710 196.640 343.780 196.710 343.780 196.640 V 193.710 C 343.780 193.671 343.749 193.640 343.710 193.640 H 337.710 C 337.671 193.640 337.640 193.671 337.640 193.710 V 196.640 C 337.640 196.710 337.710 196.640 337.640 196.640 H 331.780 C 331.710 196.640 331.780 196.710 331.780 196.640 V 193.710 C 331.780 193.671 331.749 193.640 331.710 193.640 H 325.710 C 325.671 193.640 325.640 193.671 325.640 193.710 V 196.640 C 325.640 196.710 325.710 196.640 325.640 196.640 H 319.780 C 319.710 196.640 319.780 196.710 319.780 196.640 V 193.710 C 319.780 193.671 319.749 193.640 319.710 193.640 H 313.710 C 313.671 193.640 313.640 193.671 313.640 193.710 V 196.640 C 313.640 196.710 313.710 196.640 313.640 196.640 H 307.780 C 307.710 196.640 307.780 196.710 307.780 196.640 V 193.710 C 307.780 193.671 307.749 193.640 307.710 193.640 H 301.710 C 301.671 193.640 301.640 193.671 301.640 193.710 V 196.640 C 301.640 196.710 301.710 196.640 301.640 196.640 H 295.780 C 295.710 196.640 295.780 196.710 295.780 196.640 V 193.710 C 295.780 193.671 295.749 193.640 295.710 193.640 H 289.710 C 289.671 193.640 289.640 193.671 289.640 193.710 V 196.640 C 289.640 196.710 289.710 196.640 289.640 196.640 H 283.780 C 283.710 196.640 283.780 196.710 283.780 196.640 V 193.710 C 283.780 193.671 283.749 193.640 283.710 193.640 H 276.710 C 276.671 193.640 276.640 193.671 276.640 193.710 V 196.710 V 204.140 C 276.640 204.210 276.710 204.140 276.640 204.140 H 273.710 C 273.671 204.140 273.640 204.171 273.640 204.210 V 210.210 C 273.640 210.249 273.671 210.280 273.710 210.280 H 276.640 C 276.710 210.280 276.640 210.210 276.640 210.280 V 216.140 C 276.640 216.210 276.710 216.140 276.640 216.140 H 273.710 C 273.671 216.140 273.640 216.171 273.640 216.210 V 222.210 C 273.640 222.249 273.671 222.280 273.710 222.280 H 276.640 C 276.710 222.280 276.640 222.210 276.640 222.280 V 228.140 C 276.640 228.210 276.710 228.140 276.640 228.140 H 273.710 C 273.671 228.140 273.640 228.171 273.640 228.210 V 234.210 C 273.640 234.249 273.671 234.280 273.710 234.280 H 276.640 C 276.710 234.280 276.640 234.210 276.640 234.280 V 241.710 V 244.710 C 276.640 244.749 276.671 244.780 276.710 244.780 Z" stroke="rgb(0,0,0)" stroke-width="0.14" />
</g>
<g id="p-3" style="fill:none;stroke-linecap:round;stroke-linejoin:round;">
  <path d="M 13.070 244.780 H 24.070 C 24.109 244.780 24.140 244.749 24.140 244.710 V 241.780 C 24.140 241.710 24.070 241.780 24.140 241.780 H 30.000 C 30.070 241.780 30.000 241.710 30.000 241.780 V 244.710 C 30.000 244.749 30.031 244.780 30.070 244.780 H 36.070 C 36.109 244.780 36.140 244.749 36.140 244.710 V 241.780 C 36.140 241.710 36.070 241.780 36.140 241.780 H 42.000 C 42.070 241.780 42.000 241.710 42.000 241.780 V 244.710 C 42.000 244.749 42.031 244.780 42.070 244.780 H 48.070 C 48.109 244.780 48.140 244.749 48.140 244.710 V 241.780 C 48.140 241.710 48.070 241.780 48.140 241.780 H 54.000 C 54.070 241.780 54.000 241.710 54.000 241.780 V 244.710 C 54.000 244.749 54.031 244.780 54.070 244.780 H 60.070 C 60.109 244.780 60.140 244.749 60.140 244.710 V 241.780 C 60.140 241.710 60.070 241.780 60.140 241.780 H 66.000 C 66.070 241.780 66.000 241.710 66.000 241.780 V 244.710 C 66.000 244.749 66.031 244.780 66.070 244.780 H 72.070 C 72.109 244.780 72.140 244.749 72.140 244.710 V 241.780 C 72.140 241.710 72.070 241.780 72.140 241.780 H 78.000 C 78.070 241.780 78.000 241.710 78.000 241.780 V 244.710 C 78.000 244.749 78.031 244.780 78.070 244.780 H 84.070 C 84.109 244.780 84.140 244.749 84.140 244.710 V 241.780 C 84.140 241.710 84.070 241.780 84.140 241.780 H 90.000 C 90.070 241.780 90.000 241.710 90.000 241.780 V 244.710 C 90.000 244.749 90.031 244.780 90.070 244.780 H 96.070 C 96.109 244.780 96.140 244.749 96.140 244.710 V 241.780 C 96.140 241.710 96.070 241.780 96.140 241.780 H 102.000 C 102.070 241.780 102.000 241.710 102.000 241.780 V 244.710 C 102.000 244.749 102.031 244.780 102.070 244.780 H 108.070 C 108.109 244.780 108.140 244.749 108.140 244.710 V 241.780 C 108.140 241.710 108.070 241.780 108.140 241.780 H 114.000 C 114.070 241.780 114.000 241.710 114.000 241.780 V 244.710 C 114.000 244.749 114.031 244.780 114.070 244.780 H 120.070 C 120.109 244.780 120.140 244.749 120.140 244.710 V 241.780 C 120.140 241.710 120.070 241.780 120.140 241.780 H 126.000 C 126.070 241.780 126.000 241.710 126.000 241.780 V 244.710 C 126.000 244.749 126.031 244.780 126.070 244.780 H 132.070 C 132.109 244.780 132.140 244.749 132.140 244.710 V 241.780 C 132.140 241.710 132.070 241.780 132.140 241.780 H 138.000 C 138.070 241.780 138.000 241.710 138.000 241.780 V 244.710 C 138.000 244.749 138.031 244.780 138.070 244.780 H 144.070 C 144.109 244.780 144.140 244.749 144.140 244.710 V 241.780 C 144.140 241.710 144.070 241.780 144.140 241.780 H 150.000 C 150.070 241.780 150.000 241.710 150.000 241.780 V 244.710 C 150.000 244.749 150.031 244.780 150.070 244.780 H 156.070 C 156.109 244.780 156.140 244.749 156.140 244.710 V 241.780 C 156.140 241.710 156.070 241.780 156.140 241.780 H 162.000 C 162.070 241.780 162.000 241.710 162.000 241.780 V 244.710 C 162.000 244.749 162.031 244.780 162.070 244.780 H 168.070 C 168.109 244.780 168.140 244.749 168.140 244.710 V 241.780 C 168.140 241.710 168.070 241.780 168.140 241.780 H 174.000 C 174.070 241.780 174.000 241.710 174.000 241.780 V 244.710 C 174.000 244.749 174.031 244.780 174.070 244.780 H 180.070 C 180.109 244.780 180.140 244.749 180.140 244.710 V 241.780 C 180.140 241.710 180.070 241.780 180.140 241.780 H 186.000 C 186.070 241.780 186.000 241.710 186.000 241.780 V 244.710 C 186.000 244.749 186.031 244.780 186.070 244.780 H 192.070 C 192.109 244.780 192.140 244.749 192.140 244.710 V 241.780 C 192.140 241.710 192.070 241.780 192.140 241.780 H 198.000 C 198.070 241.780 198.000 241.710 198.000 241.780 V 244.710 C 198.000 244.749 198.031 244.780 198.070 244.780 H 204.070 C 204.109 244.780 204.140 244.749 204.140 244.710 V 241.780 C 204.140 241.710 204.070 241.780 204.140 241.780 H 210.000 C 210.070 241.780 210.000 241.710 210.000 241.780 V 244.710 C 210.000 244.749 210.031 244.780 210.070 244.780 H 216.070 C 216.109 244.780 216.140 244.749 216.140 244.710 V 241.780 C 216.140 241.710 216.070 241.780 216.140 241.780 H 222.000 C 222.070 241.780 222.000 241.710 222.000 241.780 V 244.710 C 222.000 244.749 222.031 244.780 222.070 244.780 H 228.070 C 228.109 244.780 228.140 244.749 228.140 244.710 V 241.780 C 228.140 241.710 228.070 241.780 228.140 241.780 H 234.000 C 234.070 241.780 234.000 241.710 234.000 241.780 V 244.710 C 234.000 244.749 234.031 244.780 234.070 244.780 H 240.070 C 240.109 244.780 240.140 244.749 240.140 244.710 V 241.780 C 240.140 241.710 240.070 241.780 240.140 241.780 H 246.000 C 246.070 241.780 246.000 241.710 246.000 241.780 V 244.710 C 246.000 244.749 246.031 244.780 246.070 244.780 H 252.070 C 252.109 244.780 252.140 244.749 252.140 244.710 V 241.780 C 252.140 241.710 252.070 241.780 252.140 241.780 H 258.000 C 258.070 241.780 258.000 241.710 258.000 241.780 V 244.710 C 258.000 244.749 258.031 244.780 258.070 244.780 H 269.070 H 272.070 C 272.109 244.780 272.140 244.749 272.140 244.710 V 241.710 V 234.210 C 272.140 234.171 272.109 234.140 272.070 234.140 H 269.140 C 269.070 234.140 269.140 234.210 269.140 234.140 V 228.280 C 269.140 228.210 269.070 228.280 269.140 228.280 H 272.070 C 272.109 228.280 272.140 228.249 272.140 228.210 V 222.210 C 272.140 222.171 272.109 222.140 272.070 222.140 H 269.140 C 269.070 222.140 269.140 222.210 269.140 222.140 V 216.280 C 269.140 216.210 269.070 216.280 269.140 216.280 H 272.070 C 272.109 216.280 272.140 216.249 272.140 216.210 V 210.210 C 272.140 210.171 272.109 210.140 272.070 210.140 H 269.140 C 269.070 210.140 269.140 210.210 269.140 210.140 V 204.280 C 269.140 204.210 269.070 204.280 269.140 204.280 H 272.070 C 272.109 204.280 272.140 204.249 272.140 204.210 V 196.710 V 193.710 C 272.140 193.671 272.109 193.640 272.070 193.640 H 269.070 H 258.070 C 258.031 193.640 258.000 193.671 258.000 193.710 V 196.640 C 258.000 196.710 258.070 196.640 258.000 196.640 H 252.140 C 252.070 196.640 252.140 196.710 252.140 196.640 V 193.710 C 252.140 193.671 252.109 193.640 252.070 193.640 H 246.070 C 246.031 193.640 246.000 193.671 246.000 193.710 V 196.640 C 246.000 196.710 246.070 196.640 246.000 196.640 H 240.140 C 240.070 196.640 240.140 196.710 240.140 196.640 V 193.710 C 240.140 193.671 240.109 193.640 240.070 193.640 H 234.070 C 234.031 193.640 234.000 193.671 234.000 193.710 V 196.640 C 234.000 196.710 234.070 196.640 234.000 196.640 H 228.140 C 228.070 196.640 228.140 196.710 228.140 196.640 V 193.710 C 228.140 193.671 228.109 193.640 228.070 193.640 H 222.070 C 222.031 193.640 222.000 193.671 222.000 193.710 V 196.640 C 222.000 196.710 222.070 196.640 222.000 196.640 H 216.140 C 216.070 196.640 216.140 196.710 216.140 196.640 V 193.710 C 216.140 193.671 216.109 193.640 216.070 193.640 H 210.070 C 210.031 193.640 210.000 193.671 210.000 193.710 V 196.640 C 210.000 196.710 210.070 196.640 210.000 196.640 H 204.140 C 204.070 196.640 204.140 196.710 204.140 196.640 V 193.710 C 204.140 193.671 204.109 193.640 204.070 193.640 H 198.070 C 198.031 193.640 198.000 193.671 198.000 193.710 V 196.640 C 198.000 196.710 198.070 196.640 198.000 196.640 H 192.140 C 192.070 196.640 192.140 196.710 192.140 196.640 V 193.710 C 192.140 193.671 192.109 193.640 192.070 193.640 H 186.070 C 186.031 193.640 186.000 193.671 186.000 193.710 V 196.640 C 186.000 196.710 186.070 196.640 186.000 196.640 H 180.140 C 180.070 196.640 180.140 196.710 180.140 196.640 V 193.710 C 180.140 193.671 180.109 193.640 180.070 193.640 H 174.070 C 174.031 193.640 174.000 193.671 174.000 193.710 V 196.640 C 174.000 196.710 174.070 196.640 174.000 196.640 H 168.140 C 168.070 196.640 168.140 196.710 168.140 196.640 V 193.710 C 168.140 193.671 168.109 193.640 168.070 193.640 H 162.070 C 162.031 193.640 162.000 193.671 162.000 193.710 V 196.640 C 162.000 196.710 162.070 196.640 162.000 196.640 H 156.140 C 156.070 196.640 156.140 196.710 156.140 196.640 V 193.710 C 156.140 193.671 156.109 193.640 156.070 193.640 H 150.070 C 150.031 193.640 150.000 193.671 150.000 193.710 V 196.640 C 150.000 196.710 150.070 196.640 150.000 196.640 H 144.140 C 144.070 196.640 144.140 196.710 144.140 196.640 V 193.710 C 144.140 193.671 144.109 193.640 144.070 193.640 H 138.070 C 138.031 193.640 138.000 193.671 138.000 193.710 V 196.640 C 138.000 196.710 138.070 196.640 138.000 196.640 H 132.140 C 132.070 196.640 132.140 196.710 132.140 196.640 V 193.710 C 132.140 193.671 132.109 193.640 132.070 193.640 H 126.070 C 126.031 193.640 126.000 193.671 126.000 193.710 V 196.640 C 126.000 196.710 126.070 196.640 126.000 196.640 H 120.140 C 120.070 196.640 120.140 196.710 120.140 196.640 V 193.710 C 120.140 193.671 120.109 193.640 120.070 193.640 H 114.070 C 114.031 193.640 114.000 193.671 114.000 193.710 V 196.640 C 114.000 196.710 114.070 196.640 114.000 196.640 H 108.140 C 108.070 196.640 108.140 196.710 108.140 196.640 V 193.710 C 108.140 193.671 108.109 193.640 108.070 193.640 H 102.070 C 102.031 193.640 102.000 193.671 102.000 193.710 V 196.640 C 102.000 196.710 102.070 196.640 102.000 196.640 H 96.140 C 96.070 196.640 96.140 196.710 96.140 196.640 V 193.710 C 96.140 193.671 96.109 193.640 96.070 193.640 H 90.070 C 90.031 193.640 90.000 193.671 90.000 193.710 V 196.640 C 90.000 196.710 90.070 196.640 90.000 196.640 H 84.140 C 84.070 196.640 84.140 196.710 84.140 196.640 V 193.710 C 84.140 193.671 84.109 193.640 84.070 193.640 H 78.070 C 78.031 193.640 78.000 193.671 78.000 193.710 V 196.640 C 78.000 196.710 78.070 196.640 78.000 196.640 H 72.140 C 72.070 196.640 72.140 196.710 72.140 196.640 V 193.710 C 72.140 193.671 72.109 193.640 72.070 193.640 H 66.070 C 66.031 193.640 66.000 193.671 66.000 193.710 V 196.640 C 66.000 196.710 66.070 196.640 66.000 196.640 H 60.140 C 60.070 196.640 60.140 196.710 60.140 196.640 V 193.710 C 60.140 193.671 60.109 193.640 60.070 193.640 H 54.070 C 54.031 193.640 54.000 193.671 54.000 193.710 V 196.640 C 54.000 196.710 54.070 196.640 54.000 196.640 H 48.140 C 48.070 196.640 48.140 196.710 48.140 196.640 V 193.710 C 48.140 193.671 48.109 193.640 48.070 193.640 H 42.070 C 42.031 193.640 42.000 193.671 42.000 193.710 V 196.640 C 42.000 196.710 42.070 196.640 42.000 196.640 H 36.140 C 36.070 196.640 36.140 196.710 36.140 196.640 V 193.710 C 36.140 193.671 36.109 193.640 36.070 193.640 H 30.070 C 30.031 193.640 30.000 193.671 30.000 193.710 V 196.640 C 30.000 196.710 30.070 196.640 30.000 196.640 H 24.140 C 24.070 196.640 24.140 196.710 24.140 196.640 V 193.710 C 24.140 193.671 24.109 193.640 24.070 193.640 H 13.070 H 10.070 C 10.031 193.640 10.000 193.671 10.000 193.710 V 196.710 V 204.210 C 10.000 204.249 10.031 204.280 10.070 204.280 H 13.000 C 13.070 204.280 13.000 204.210 13.000 204.280 V 210.140 C 13.000 210.210 13.070 210.140 13.000 210.140 H 10.070 C 10.031 210.140 10.000 210.171 10.000 210.210 V 216.210 C 10.000 216.249 10.031 216.280 10.070 216.280 H 13.000 C 13.070 216.280 13.000 216.210 13.000 216.280 V 222.140 C 13.000 222.210 13.070 222.140 13.000 222.140 H 10.070 C 10.031 222.140 10.000 222.171 10.000 222.210 V 228.210 C 10.000 228.249 10.031 228.280 10.070 228.280 H 13.000 C 13.070 228.280 13.000 228.210 13.000 228.280 V 234.140 C 13.000 234.210 13.070 234.140 13.000 234.140 H 10.070 C 10.031 234.140 10.000 234.171 10.000 234.210 V 241.710 V 244.710 C 10.000 244.749 10.031 244.780 10.070 244.780 H 13.070 Z" stroke="rgb(0,0,0)" stroke-width="0.14" />
</g>
<g id="p-4" style="fill:none;stroke-linecap:round;stroke-linejoin:round;">
  <path d="M 13.070 189.140 H 24.000 C 24.070 189.140 24.000 189.070 24.000 189.140 V 192.070 C 24.000 192.109 24.031 192.140 24.070 192.140 H 30.070 C 30.109 192.140 30.140 192.109 30.140 192.070 V 189.140 C 30.140 189.070 30.070 189.140 30.140 189.140 H 36.000 C 36.070 189.140 36.000 189.070 36.000 189.140 V 192.070 C 36.000 192.109 36.031 192.140 36.070 192.140 H 42.070 C 42.109 192.140 42.140 192.109 42.140 192.070 V 189.140 C 42.140 189.070 42.070 189.140 42.140 189.140 H 48.000 C 48.070 189.140 48.000 189.070 48.000 189.140 V 192.070 C 48.000 192.109 48.031 192.140 48.070 192.140 H 54.070 C 54.109 192.140 54.140 192.109 54.140 192.070 V 189.140 C 54.140 189.070 54.070 189.140 54.140 189.140 H 60.000 C 60.070 189.140 60.000 189.070 60.000 189.140 V 192.070 C 60.000 192.109 60.031 192.140 60.070 192.140 H 66.070 C 66.109 192.140 66.140 192.109 66.140 192.070 V 189.140 C 66.140 189.070 66.070 189.140 66.140 189.140 H 72.000 C 72.070 189.140 72.000 189.070 72.000 189.140 V 192.070 C 72.000 192.109 72.031 192.140 72.070 192.140 H 78.070 C 78.109 192.140 78.140 192.109 78.140 192.070 V 189.140 C 78.140 189.070 78.070 189.140 78.140 189.140 H 84.000 C 84.070 189.140 84.000 189.070 84.000 189.140 V 192.070 C 84.000 192.109 84.031 192.140 84.070 192.140 H 90.070 C 90.109 192.140 90.140 192.109 90.140 192.070 V 189.140 C 90.140 189.070 90.070 189.140 90.140 189.140 H 96.000 C 96.070 189.140 96.000 189.070 96.000 189.140 V 192.070 C 96.000 192.109 96.031 192.140 96.070 192.140 H 102.070 C 102.109 192.140 102.140 192.109 102.140 192.070 V 189.140 C 102.140 189.070 102.070 189.140 102.140 189.140 H 108.000 C 108.070 189.140 108.000 189.070 108.000 189.140 V 192.070 C 108.000 192.109 108.031 192.140 108.070 192.140 H 114.070 C 114.109 192.140 114.140 192.109 114.140 192.070 V 189.140 C 114.140 189.070 114.070 189.140 114.140 189.140 H 120.000 C 120.070 189.140 120.000 189.070 120.000 189.140 V 192.070 C 120.000 192.109 120.031 192.140 120.070 192.140 H 126.070 C 126.109 192.140 126.140 192.109 126.140 192.070 V 189.140 C 126.140 189.070 126.070 189.140 126.140 189.140 H 132.000 C 132.070 189.140 132.000 189.070 132.000 189.140 V 192.070 C 132.000 192.109 132.031 192.140 132.070 192.140 H 138.070 C 138.109 192.140 138.140 192.109 138.140 192.070 V 189.140 C 138.140 189.070 138.070 189.140 138.140 189.140 H 144.000 C 144.070 189.140 144.000 189.070 144.000 189.140 V 192.070 C 144.000 192.109 144.031 192.140 144.070 192.140 H 150.070 C 150.109 192.140 150.140 192.109 150.140 192.070 V 189.140 C 150.140 189.070 150.070 189.140 150.140 189.140 H 156.000 C 156.070 189.140 156.000 189.070 156.000 189.140 V 192.070 C 156.000 192.109 156.031 192.140 156.070 192.140 H 162.070 C 162.109 192.140 162.140 192.109 162.140 192.070 V 189.140 C 162.140 189.070 162.070 189.140 162.140 189.140 H 168.000 C 168.070 189.140 168.000 189.070 168.000 189.140 V 192.070 C 168.000 192.109 168.031 192.140 168.070 192.140 H 174.070 C 174.109 192.140 174.140 192.109 174.140 192.070 V 189.140 C 174.140 189.070 174.070 189.140 174.140 189.140 H 180.000 C 180.070 189.140 180.000 189.070 180.000 189.140 V 192.070 C 180.000 192.109 180.031 192.140 180.070 192.140 H 186.070 C 186.109 192.140 186.140 192.109 186.140 192.070 V 189.140 C 186.140 189.070 186.070 189.140 186.140 189.140 H 192.000 C 192.070 189.140 192.000 189.070 192.000 189.140 V 192.070 C 192.000 192.109 192.031 192.140 192.070 192.140 H 198.070 C 198.109 192.140 198.140 192.109 198.140 192.070 V 189.140 C 198.140 189.070 198.070 189.140 198.140 189.140 H 204.000 C 204.070 189.140 204.000 189.070 204.000 189.140 V 192.070 C 204.000 192.109 204.031 192.140 204.070 192.140 H 210.070 C 210.109 192.140 210.140 192.109 210.140 192.070 V 189.140 C 210.140 189.070 210.070 189.140 210.140 189.140 H 216.000 C 216.070 189.140 216.000 189.070 216.000 189.140 V 192.070 C 216.000 192.109 216.031 192.140 216.070 192.140 H 222.070 C 222.109 192.140 222.140 192.109 222.140 192.070 V 189.140 C 222.140 189.070 222.070 189.140 222.140 189.140 H 228.000 C 228.070 189.140 228.000 189.070 228.000 189.140 V 192.070 C 228.000 192.109 228.031 192.140 228.070 192.140 H 234.070 C 234.109 192.140 234.140 192.109 234.140 192.070 V 189.140 C 234.140 189.070 234.070 189.140 234.140 189.140 H 240.000 C 240.070 189.140 240.000 189.070 240.000 189.140 V 192.070 C 240.000 192.109 240.031 192.140 240.070 192.140 H 246.070 C 246.109 192.140 246.140 192.109 246.140 192.070 V 189.140 C 246.140 189.070 246.070 189.140 246.140 189.140 H 252.000 C 252.070 189.140 252.000 189.070 252.000 189.140 V 192.070 C 252.000 192.109 252.031 192.140 252.070 192.140 H 258.070 C 258.109 192.140 258.140 192.109 258.140 192.070 V 189.140 C 258.140 189.070 258.070 189.140 258.140 189.140 H 269.070 C 269.109 189.140 269.140 189.109 269.140 189.070 V 182.140 C 269.140 182.070 269.070 182.140 269.140 182.140 H 272.070 C 272.109 182.140 272.140 182.109 272.140 182.070 V 176.070 C 272.140 176.031 272.109 176.000 272.070 176.000 H 269.140 C 269.070 176.000 269.140 176.070 269.140 176.000 V 170.140 C 269.140 170.070 269.070 170.140 269.140 170.140 H 272.070 C 272.109 170.140 272.140 170.109 272.140 170.070 V 164.070 C 272.140 164.031 272.109 164.000 272.070 164.000 H 269.140 C 269.070 164.000 269.140 164.070 269.140 164.000 V 158.140 C 269.140 158.070 269.070 158.140 269.140 158.140 H 272.070 C 272.109 158.140 272.140 158.109 272.140 158.070 V 152.070 C 272.140 152.031 272.109 152.000 272.070 152.000 H 269.140 C 269.070 152.000 269.140 152.070 269.140 152.000 V 146.140 C 269.140 146.070 269.070 146.140 269.140 146.140 H 272.070 C 272.109 146.140 272.140 146.109 272.140 146.070 V 140.070 C 272.140 140.031 272.109 140.000 272.070 140.000 H 269.140 C 269.070 140.000 269.140 140.070 269.140 140.000 V 134.140 C 269.140 134.070 269.070 134.140 269.140 134.140 H 272.070 C 272.109 134.140 272.140 134.109 272.140 134.070 V 128.070 C 272.140 128.031 272.109 128.000 272.070 128.000 H 269.140 C 269.070 128.000 269.140 128.070 269.140 128.000 V 122.140 C 269.140 122.070 269.070 122.140 269.140 122.140 H 272.070 C 272.109 122.140 272.140 122.109 272.140 122.070 V 116.070 C 272.140 116.031 272.109 116.000 272.070 116.000 H 269.140 C 269.070 116.000 269.140 116.070 269.140 116.000 V 110.140 C 269.140 110.070 269.070 110.140 269.140 110.140 H 272.070 C 272.109 110.140 272.140 110.109 272.140 110.070 V 104.070 C 272.140 104.031 272.109 104.000 272.070 104.000 H 269.140 C 269.070 104.000 269.140 104.070 269.140 104.000 V 98.140 C 269.140 98.070 269.070 98.140 269.140 98.140 H 272.070 C 272.109 98.140 272.140 98.109 272.140 98.070 V 92.070 C 272.140 92.031 272.109 92.000 272.070 92.000 H 269.140 C 269.070 92.000 269.140 92.070 269.140 92.000 V 86.140 C 269.140 86.070 269.070 86.140 269.140 86.140 H 272.070 C 272.109 86.140 272.140 86.109 272.140 86.070 V 80.070 C 272.140 80.031 272.109 80.000 272.070 80.000 H 269.140 C 269.070 80.000 269.140 80.070 269.140 80.000 V 74.140 C 269.140 74.070 269.070 74.140 269.140 74.140 H 272.070 C 272.109 74.140 272.140 74.109 272.140 74.070 V 68.070 C 272.140 68.031 272.109 68.000 272.070 68.000 H 269.140 C 269.070 68.000 269.140 68.070 269.140 68.000 V 62.140 C 269.140 62.070 269.070 62.140 269.140 62.140 H 272.070 C 272.109 62.140 272.140 62.109 272.140 62.070 V 56.070 C 272.140 56.031 272.109 56.000 272.070 56.000 H 269.140 C 269.070 56.000 269.140 56.070 269.140 56.000 V 50.140 C 269.140 50.070 269.070 50.140 269.140 50.140 H 272.070 C 272.109 50.140 272.140 50.109 272.140 50.070 V 44.070 C 272.140 44.031 272.109 44.000 272.070 44.000 H 269.140 C 269.070 44.000 269.140 44.070 269.140 44.000 V 38.140 C 269.140 38.070 269.070 38.140 269.140 38.140 H 272.070 C 272.109 38.140 272.140 38.109 272.140 38.070 V 32.070 C 272.140 32.031 272.109 32.000 272.070 32.000 H 269.140 C 269.070 32.000 269.140 32.070 269.140 32.000 V 26.140 C 269.140 26.070 269.070 26.140 269.140 26.140 H 272.070 C 272.109 26.140 272.140 26.109 272.140 26.070 V 20.070 C 272.140 20.031 272.109 20.000 272.070 20.000 H 269.140 C 269.070 20.000 269.140 20.070 269.140 20.000 V 13.070 C 269.140 13.031 269.109 13.000 269.070 13.000 H 258.140 C 258.070 13.000 258.140 13.070 258.140 13.000 V 10.070 C 258.140 10.031 258.109 10.000 258.070 10.000 H 252.070 C 252.031 10.000 252.000 10.031 252.000 10.070 V 13.000 C 252.000 13.070 252.070 13.000 252.000 13.000 H 246.140 C 246.070 13.000 246.140 13.070 246.140 13.000 V 10.070 C 246.140 10.031 246.109 10.000 246.070 10.000 H 240.070 C 240.031 10.000 240.000 10.031 240.000 10.070 V 13.000 C 240.000 13.070 240.070 13.000 240.000 13.000 H 234.140 C 234.070 13.000 234.140 13.070 234.140 13.000 V 10.070 C 234.140 10.031 234.109 10.000 234.070 10.000 H 228.070 C 228.031 10.000 228.000 10.031 228.000 10.070 V 13.000 C 228.000 13.070 228.070 13.000 228.000 13.000 H 222.140 C 222.070 13.000 222.140 13.070 222.140 13.000 V 10.070 C 222.140 10.031 222.109 10.000 222.070 10.000 H 216.070 C 216.031 10.000 216.000 10.031 216.000 10.070 V 13.000 C 216.000 13.070 216.070 13.000 216.000 13.000 H 210.140 C 210.070 13.000 210.140 13.070 210.140 13.000 V 10.070 C 210.140 10.031 210.109 10.000 210.070 10.000 H 204.070 C 204.031 10.000 204.000 10.031 204.000 10.070 V 13.000 C 204.000 13.070 204.070 13.000 204.000 13.000 H 198.140 C 198.070 13.000 198.140 13.070 198.140 13.000 V 10.070 C 198.140 10.031 198.109 10.000 198.070 10.000 H 192.070 C 192.031 10.000 192.000 10.031 192.000 10.070 V 13.000 C 192.000 13.070 192.070 13.000 192.000 13.000 H 186.140 C 186.070 13.000 186.140 13.070 186.140 13.000 V 10.070 C 186.140 10.031 186.109 10.000 186.070 10.000 H 180.070 C 180.031 10.000 180.000 10.031 180.000 10.070 V 13.000 C 180.000 13.070 180.070 13.000 180.000 13.000 H 174.140 C 174.070 13.000 174.140 13.070 174.140 13.000 V 10.070 C 174.140 10.031 174.109 10.000 174.070 10.000 H 168.070 C 168.031 10.000 168.000 10.031 168.000 10.070 V 13.000 C 168.000 13.070 168.070 13.000 168.000 13.000 H 162.140 C 162.070 13.000 162.140 13.070 162.140 13.000 V 10.070 C 162.140 10.031 162.109 10.000 162.070 10.000 H 156.070 C 156.031 10.000 156.000 10.031 156.000 10.070 V 13.000 C 156.000 13.070 156.070 13.000 156.000 13.000 H 150.140 C 150.070 13.000 150.140 13.070 150.140 13.000 V 10.070 C 150.140 10.031 150.109 10.000 150.070 10.000 H 144.070 C 144.031 10.000 144.000 10.031 144.000 10.070 V 13.000 C 144.000 13.070 144.070 13.000 144.000 13.000 H 138.140 C 138.070 13.000 138.140 13.070 138.140 13.000 V 10.070 C 138.140 10.031 138.109 10.000 138.070 10.000 H 132.070 C 132.031 10.000 132.000 10.031 132.000 10.070 V 13.000 C 132.000 13.070 132.070 13.000 132.000 13.000 H 126.140 C 126.070 13.000 126.140 13.070 126.140 13.000 V 10.070 C 126.140 10.031 126.109 10.000 126.070 10.000 H 120.070 C 120.031 10.000 120.000 10.031 120.000 10.070 V 13.000 C 120.000 13.070 120.070 13.000 120.000 13.000 H 114.140 C 114.070 13.000 114.140 13.070 114.140 13.000 V 10.070 C 114.140 10.031 114.109 10.000 114.070 10.000 H 108.070 C 108.031 10.000 108.000 10.031 108.000 10.070 V 13.000 C 108.000 13.070 108.070 13.000 108.000 13.000 H 102.140 C 102.070 13.000 102.140 13.070 102.140 13.000 V 10.070 C 102.140 10.031 102.109 10.000 102.070 10.000 H 96.070 C 96.031 10.000 96.000 10.031 96.000 10.070 V 13.000 C 96.000 13.070 96.070 13.000 96.000 13.000 H 90.140 C 90.070 13.000 90.140 13.070 90.140 13.000 V 10.070 C 90.140 10.031 90.109 10.000 90.070 10.000 H 84.070 C 84.031 10.000 84.000 10.031 84.000 10.070 V 13.000 C 84.000 13.070 84.070 13.000 84.000 13.000 H 78.140 C 78.070 13.000 78.140 13.070 78.140 13.000 V 10.070 C 78.140 10.031 78.109 10.000 78.070 10.000 H 72.070 C 72.031 10.000 72.000 10.031 72.000 10.070 V 13.000 C 72.000 13.070 72.070 13.000 72.000 13.000 H 66.140 C 66.070 13.000 66.140 13.070 66.140 13.000 V 10.070 C 66.140 10.031 66.109 10.000 66.070 10.000 H 60.070 C 60.031 10.000 60.000 10.031 60.000 10.070 V 13.000 C 60.000 13.070 60.070 13.000 60.000 13.000 H 54.140 C 54.070 13.000 54.140 13.070 54.140 13.000 V 10.070 C 54.140 10.031 54.109 10.000 54.070 10.000 H 48.070 C 48.031 10.000 48.000 10.031 48.000 10.070 V 13.000 C 48.000 13.070 48.070 13.000 48.000 13.000 H 42.140 C 42.070 13.000 42.140 13.070 42.140 13.000 V 10.070 C 42.140 10.031 42.109 10.000 42.070 10.000 H 36.070 C 36.031 10.000 36.000 10.031 36.000 10.070 V 13.000 C 36.000 13.070 36.070 13.000 36.000 13.000 H 30.140 C 30.070 13.000 30.140 13.070 30.140 13.000 V 10.070 C 30.140 10.031 30.109 10.000 30.070 10.000 H 24.070 C 24.031 10.000 24.000 10.031 24.000 10.070 V 13.000 C 24.000 13.070 24.070 13.000 24.000 13.000 H 13.070 C 13.031 13.000 13.000 13.031 13.000 13.070 V 20.000 C 13.000 20.070 13.070 20.000 13.000 20.000 H 10.070 C 10.031 20.000 10.000 20.031 10.000 20.070 V 26.070 C 10.000 26.109 10.031 26.140 10.070 26.140 H 13.000 C 13.070 26.140 13.000 26.070 13.000 26.140 V 32.000 C 13.000 32.070 13.070 32.000 13.000 32.000 H 10.070 C 10.031 32.000 10.000 32.031 10.000 32.070 V 38.070 C 10.000 38.109 10.031 38.140 10.070 38.140 H 13.000 C 13.070 38.140 13.000 38.070 13.000 38.140 V 44.000 C 13.000 44.070 13.070 44.000 13.000 44.000 H 10.070 C 10.031 44.000 10.000 44.031 10.000 44.070 V 50.070 C 10.000 50.109 10.031 50.140 10.070 50.140 H 13.000 C 13.070 50.140 13.000 50.070 13.000 50.140 V 56.000 C 13.000 56.070 13.070 56.000 13.000 56.000 H 10.070 C 10.031 56.000 10.000 56.031 10.000 56.070 V 62.070 C 10.000 62.109 10.031 62.140 10.070 62.140 H 13.000 C 13.070 62.140 13.000 62.070 13.000 62.140 V 68.000 C 13.000 68.070 13.070 68.000 13.000 68.000 H 10.070 C 10.031 68.000 10.000 68.031 10.000 68.070 V 74.070 C 10.000 74.109 10.031 74.140 10.070 74.140 H 13.000 C 13.070 74.140 13.000 74.070 13.000 74.140 V 80.000 C 13.000 80.070 13.070 80.000 13.000 80.000 H 10.070 C 10.031 80.000 10.000 80.031 10.000 80.070 V 86.070 C 10.000 86.109 10.031 86.140 10.070 86.140 H 13.000 C 13.070 86.140 13.000 86.070 13.000 86.140 V 92.000 C 13.000 92.070 13.070 92.000 13.000 92.000 H 10.070 C 10.031 92.000 10.000 92.031 10.000 92.070 V 98.070 C 10.000 98.109 10.031 98.140 10.070 98.140 H 13.000 C 13.070 98.140 13.000 98.070 13.000 98.140 V 104.000 C 13.000 104.070 13.070 104.000 13.000 104.000 H 10.070 C 10.031 104.000 10.000 104.031 10.000 104.070 V 110.070 C 10.000 110.109 10.031 110.140 10.070 110.140 H 13.000 C 13.070 110.140 13.000 110.070 13.000 110.140 V 116.000 C 13.000 116.070 13.070 116.000 13.000 116.000 H 10.070 C 10.031 116.000 10.000 116.031 10.000 116.070 V 122.070 C 10.000 122.109 10.031 122.140 10.070 122.140 H 13.000 C 13.070 122.140 13.000 122.070 13.000 122.140 V 128.000 C 13.000 128.070 13.070 128.000 13.000 128.000 H 10.070 C 10.031 128.000 10.000 128.031 10.000 128.070 V 134.070 C 10.000 134.109 10.031 134.140 10.070 134.140 H 13.000 C 13.070 134.140 13.000 134.070 13.000 134.140 V 140.000 C 13.000 140.070 13.070 140.000 13.000 140.000 H 10.070 C 10.031 140.000 10.000 140.031 10.000 140.070 V 146.070 C 10.000 146.109 10.031 146.140 10.070 146.140 H 13.000 C 13.070 146.140 13.000 146.070 13.000 146.140 V 152.000 C 13.000 152.070 13.070 152.000 13.000 152.000 H 10.070 C 10.031 152.000 10.000 152.031 10.000 152.070 V 158.070 C 10.000 158.109 10.031 158.140 10.070 158.140 H 13.000 C 13.070 158.140 13.000 158.070 13.000 158.140 V 164.000 C 13.000 164.070 13.070 164.000 13.000 164.000 H 10.070 C 10.031 164.000 10.000 164.031 10.000 164.070 V 170.070 C 10.000 170.109 10.031 170.140 10.070 170.140 H 13.000 C 13.070 170.140 13.000 170.070 13.000 170.140 V 176.000 C 13.000 176.070 13.070 176.000 13.000 176.000 H 10.070 C 10.031 176.000 10.000 176.031 10.000 176.070 V 182.070 C 10.000 182.109 10.031 182.140 10.070 182.140 H 13.000 C 13.070 182.140 13.000 182.070 13.000 182.140 V 189.070 C 13.000 189.109 13.031 189.140 13.070 189.140 Z" stroke="rgb(0,0,0)" stroke-width="0.14" />
</g>
<g id="p-5" style="fill:none;stroke-linecap:round;stroke-linejoin:round;">
  <path d="M 276.710 189.140 H 287.640 C 287.710 189.140 287.640 189.070 287.640 189.140 V 192.070 C 287.640 192.109 287.671 192.140 287.710 192.140 H 293.710 C 293.749 192.140 293.780 192.109 293.780 192.070 V 189.140 C 293.780 189.070 293.710 189.140 293.780 189.140 H 299.640 C 299.710 189.140 299.640 189.070 299.640 189.140 V 192.070 C 299.640 192.109 299.671 192.140 299.710 192.140 H 305.710 C 305.749 192.140 305.780 192.109 305.780 192.070 V 189.140 C 305.780 189.070 305.710 189.140 305.780 189.140 H 311.640 C 311.710 189.140 311.640 189.070 311.640 189.140 V 192.070 C 311.640 192.109 311.671 192.140 311.710 192.140 H 317.710 C 317.749 192.140 317.780 192.109 317.780 192.070 V 189.140 C 317.780 189.070 317.710 189.140 317.780 189.140 H 323.640 C 323.710 189.140 323.640 189.070 323.640 189.140 V 192.070 C 323.640 192.109 323.671 192.140 323.710 192.140 H 329.710 C 329.749 192.140 329.780 192.109 329.780 192.070 V 189.140 C 329.780 189.070 329.710 189.140 329.780 189.140 H 335.640 C 335.710 189.140 335.640 189.070 335.640 189.140 V 192.070 C 335.640 192.109 335.671 192.140 335.710 192.140 H 341.710 C 341.749 192.140 341.780 192.109 341.780 192.070 V 189.140 C 341.780 189.070 341.710 189.140 341.780 189.140 H 347.640 C 347.710 189.140 347.640 189.070 347.640 189.140 V 192.070 C 347.640 192.109 347.671 192.140 347.710 192.140 H 353.710 C 353.749 192.140 353.780 192.109 353.780 192.070 V 189.140 C 353.780 189.070 353.710 189.140 353.780 189.140 H 359.640 C 359.710 189.140 359.640 189.070 359.640 189.140 V 192.070 C 359.640 192.109 359.671 192.140 359.710 192.140 H 365.710 C 365.749 192.140 365.780 192.109 365.780 192.070 V 189.140 C 365.780 189.070 365.710 189.140 365.780 189.140 H 371.640 C 371.710 189.140 371.640 189.070 371.640 189.140 V 192.070 C 371.640 192.109 371.671 192.140 371.710 192.140 H 377.710 C 377.749 192.140 377.780 192.109 377.780 192.070 V 189.140 C 377.780 189.070 377.710 189.140 377.780 189.140 H 383.640 C 383.710 189.140 383.640 189.070 383.640 189.140 V 192.070 C 383.640 192.109 383.671 192.140 383.710 192.140 H 389.710 C 389.749 192.140 389.780 192.109 389.780 192.070 V 189.140 C 389.780 189.070 389.710 189.140 389.780 189.140 H 395.640 C 395.710 189.140 395.640 189.070 395.640 189.140 V 192.070 C 395.640 192.109 395.671 192.140 395.710 192.140 H 401.710 C 401.749 192.140 401.780 192.109 401.780 192.070 V 189.140 C 401.780 189.070 401.710 189.140 401.780 189.140 H 407.640 C 407.710 189.140 407.640 189.070 407.640 189.140 V 192.070 C 407.640 192.109 407.671 192.140 407.710 192.140 H 413.710 C 413.749 192.140 413.780 192.109 413.780 192.070 V 189.140 C 413.780 189.070 413.710 189.140 413.780 189.140 H 419.640 C 419.710 189.140 419.640 189.070 419.640 189.140 V 192.070 C 419.640 192.109 419.671 192.140 419.710 192.140 H 425.710 C 425.749 192.140 425.780 192.109 425.780 192.070 V 189.140 C 425.780 189.070 425.710 189.140 425.780 189.140 H 431.640 C 431.710 189.140 431.640 189.070 431.640 189.140 V 192.070 C 431.640 192.109 431.671 192.140 431.710 192.140 H 437.710 C 437.749 192.140 437.780 192.109 437.780 192.070 V 189.140 C 437.780 189.070 437.710 189.140 437.780 189.140 H 443.640 C 443.710 189.140 443.640 189.070 443.640 189.140 V 192.070 C 443.640 192.109 443.671 192.140 443.710 192.140 H 449.710 C 449.749 192.140 449.780 192.109 449.780 192.070 V 189.140 C 449.780 189.070 449.710 189.140 449.780 189.140 H 455.640 C 455.710 189.140 455.640 189.070 455.640 189.140 V 192.070 C 455.640 192.109 455.671 192.140 455.710 192.140 H 461.710 C 461.749 192.140 461.780 192.109 461.780 192.070 V 189.140 C 461.780 189.070 461.710 189.140 461.780 189.140 H 467.640 C 467.710 189.140 467.640 189.070 467.640 189.140 V 192.070 C 467.640 192.109 467.671 192.140 467.710 192.140 H 473.710 C 473.749 192.140 473.780 192.109 473.780 192.070 V 189.140 C 473.780 189.070 473.710 189.140 473.780 189.140 H 479.640 C 479.710 189.140 479.640 189.070 479.640 189.140 V 192.070 C 479.640 192.109 479.671 192.140 479.710 192.140 H 485.710 C 485.749 192.140 485.780 192.109 485.780 192.070 V 189.140 C 485.780 189.070 485.710 189.140 485.780 189.140 H 491.640 C 491.710 189.140 491.640 189.070 491.640 189.140 V 192.070 C 491.640 192.109 491.671 192.140 491.710 192.140 H 497.710 C 497.749 192.140 497.780 192.109 497.780 192.070 V 189.140 C 497.780 189.070 497.710 189.140 497.780 189.140 H 503.640 C 503.710 189.140 503.640 189.070 503.640 189.140 V 192.070 C 503.640 192.109 503.671 192.140 503.710 192.140 H 509.710 C 509.749 192.140 509.780 192.109 509.780 192.070 V 189.140 C 509.780 189.070 509.710 189.140 509.780 189.140 H 515.640 C 515.710 189.140 515.640 189.070 515.640 189.140 V 192.070 C 515.640 192.109 515.671 192.140 515.710 192.140 H 521.710 C 521.749 192.140 521.780 192.109 521.780 192.070 V 189.140 C 521.780 189.070 521.710 189.140 521.780 189.140 H 532.710 C 532.749 189.140 532.780 189.109 532.780 189.070 V 182.140 C 532.780 182.070 532.710 182.140 532.780 182.140 H 535.710 C 535.749 182.140 535.780 182.109 535.780 182.070 V 176.070 C 535.780 176.031 535.749 176.000 535.710 176.000 H 532.780 C 532.710 176.000 532.780 176.070 532.780 176.000 V 170.140 C 532.780 170.070 532.710 170.140 532.780 170.140 H 535.710 C 535.749 170.140 535.780 170.109 535.780 170.070 V 164.070 C 535.780 164.031 535.749 164.000 535.710 164.000 H 532.780 C 532.710 164.000 532.780 164.070 532.780 164.000 V 158.140 C 532.780 158.070 532.710 158.140 532.780 158.140 H 535.710 C 535.749 158.140 535.780 158.109 535.780 158.070 V 152.070 C 535.780 152.031 535.749 152.000 535.710 152.000 H 532.780 C 532.710 152.000 532.780 152.070 532.780 152.000 V 146.140 C 532.780 146.070 532.710 146.140 532.780 146.140 H 535.710 C 535.749 146.140 535.780 146.109 535.780 146.070 V 140.070 C 535.780 140.031 535.749 140.000 535.710 140.000 H 532.780 C 532.710 140.000 532.780 140.070 532.780 140.000 V 134.140 C 532.780 134.070 532.710 134.140 532.780 134.140 H 535.710 C 535.749 134.140 535.780 134.109 535.780 134.070 V 128.070 C 535.780 128.031 535.749 128.000 535.710 128.000 H 532.780 C 532.710 128.000 532.780 128.070 532.780 128.000 V 122.140 C 532.780 122.070 532.710 122.140 532.780 122.140 H 535.710 C 535.749 122.140 535.780 122.109 535.780 122.070 V 116.070 C 535.780 116.031 535.749 116.000 535.710 116.000 H 532.780 C 532.710 116.000 532.780 116.070 532.780 116.000 V 110.140 C 532.780 110.070 532.710 110.140 532.780 110.140 H 535.710 C 535.749 110.140 535.780 110.109 535.780 110.070 V 104.070 C 535.780 104.031 535.749 104.000 535.710 104.000 H 532.780 C 532.710 104.000 532.780 104.070 532.780 104.000 V 98.140 C 532.780 98.070 532.710 98.140 532.780 98.140 H 535.710 C 535.749 98.140 535.780 98.109 535.780 98.070 V 92.070 C 535.780 92.031 535.749 92.000 535.710 92.000 H 532.780 C 532.710 92.000 532.780 92.070 532.780 92.000 V 86.140 C 532.780 86.070 532.710 86.140 532.780 86.140 H 535.710 C 535.749 86.140 535.780 86.109 535.780 86.070 V 80.070 C 535.780 80.031 535.749 80.000 535.710 80.000 H 532.780 C 532.710 80.000 532.780 80.070 532.780 80.000 V 74.140 C 532.780 74.070 532.710 74.140 532.780 74.140 H 535.710 C 535.749 74.140 535.780 74.109 535.780 74.070 V 68.070 C 535.780 68.031 535.749 68.000 535.710 68.000 H 532.780 C 532.710 68.000 532.780 68.070 532.780 68.000 V 62.140 C 532.780 62.070 532.710 62.140 532.780 62.140 H 535.710 C 535.749 62.140 535.780 62.109 535.780 62.070 V 56.070 C 535.780 56.031 535.749 56.000 535.710 56.000 H 532.780 C 532.710 56.000 532.780 56.070 532.780 56.000 V 50.140 C 532.780 50.070 532.710 50.140 532.780 50.140 H 535.710 C 535.749 50.140 535.780 50.109 535.780 50.070 V 44.070 C 535.780 44.031 535.749 44.000 535.710 44.000 H 532.780 C 532.710 44.000 532.780 44.070 532.780 44.000 V 38.140 C 532.780 38.070 532.710 38.140 532.780 38.140 H 535.710 C 535.749 38.140 535.780 38.109 535.780 38.070 V 32.070 C 535.780 32.031 535.749 32.000 535.710 32.000 H 532.780 C 532.710 32.000 532.780 32.070 532.780 32.000 V 26.140 C 532.780 26.070 532.710 26.140 532.780 26.140 H 535.710 C 535.749 26.140 535.780 26.109 535.780 26.070 V 20.070 C 535.780 20.031 535.749 20.000 535.710 20.000 H 532.780 C 532.710 20.000 532.780 20.070 532.780 20.000 V 13.070 C 532.780 13.031 532.749 13.000 532.710 13.000 H 521.780 C 521.710 13.000 521.780 13.070 521.780 13.000 V 10.070 C 521.780 10.031 521.749 10.000 521.710 10.000 H 515.710 C 515.671 10.000 515.640 10.031 515.640 10.070 V 13.000 C 515.640 13.070 515.710 13.000 515.640 13.000 H 509.780 C 509.710 13.000 509.780 13.070 509.780 13.000 V 10.070 C 509.780 10.031 509.749 10.000 509.710 10.000 H 503.710 C 503.671 10.000 503.640 10.031 503.640 10.070 V 13.000 C 503.640 13.070 503.710 13.000 503.640 13.000 H 497.780 C 497.710 13.000 497.780 13.070 497.780 13.000 V 10.070 C 497.780 10.031 497.749 10.000 497.710 10.000 H 491.710 C 491.671 10.000 491.640 10.031 491.640 10.070 V 13.000 C 491.640 13.070 491.710 13.000 491.640 13.000 H 485.780 C 485.710 13.000 485.780 13.070 485.780 13.000 V 10.070 C 485.780 10.031 485.749 10.000 485.710 10.000 H 479.710 C 479.671 10.000 479.640 10.031 479.640 10.070 V 13.000 C 479.640 13.070 479.710 13.000 479.640 13.000 H 473.780 C 473.710 13.000 473.780 13.070 473.780 13.000 V 10.070 C 473.780 10.031 473.749 10.000 473.710 10.000 H 467.710 C 467.671 10.000 467.640 10.031 467.640 10.070 V 13.000 C 467.640 13.070 467.710 13.000 467.640 13.000 H 461.780 C 461.710 13.000 461.780 13.070 461.780 13.000 V 10.070 C 461.780 10.031 461.749 10.000 461.710 10.000 H 455.710 C 455.671 10.000 455.640 10.031 455.640 10.070 V 13.000 C 455.640 13.070 455.710 13.000 455.640 13.000 H 449.780 C 449.710 13.000 449.780 13.070 449.780 13.000 V 10.070 C 449.780 10.031 449.749 10.000 449.710 10.000 H 443.710 C 443.671 10.000 443.640 10.031 443.640 10.070 V 13.000 C 443.640 13.070 443.710 13.000 443.640 13.000 H 437.780 C 437.710 13.000 437.780 13.070 437.780 13.000 V 10.070 C 437.780 10.031 437.749 10.000 437.710 10.000 H 431.710 C 431.671 10.000 431.640 10.031 431.640 10.070 V 13.000 C 431.640 13.070 431.710 13.000 431.640 13.000 H 425.780 C 425.710 13.000 425.780 13.070 425.780 13.000 V 10.070 C 425.780 10.031 425.749 10.000 425.710 10.000 H 419.710 C 419.671 10.000 419.640 10.031 419.640 10.070 V 13.000 C 419.640 13.070 419.710 13.000 419.640 13.000 H 413.780 C 413.710 13.000 413.780 13.070 413.780 13.000 V 10.070 C 413.780 10.031 413.749 10.000 413.710 10.000 H 407.710 C 407.671 10.000 407.640 10.031 407.640 10.070 V 13.000 C 407.640 13.070 407.710 13.000 407.640 13.000 H 401.780 C 401.710 13.000 401.780 13.070 401.780 13.000 V 10.070 C 401.780 10.031 401.749 10.000 401.710 10.000 H 395.710 C 395.671 10.000 395.640 10.031 395.640 10.070 V 13.000 C 395.640 13.070 395.710 13.000 395.640 13.000 H 389.780 C 389.710 13.000 389.780 13.070 389.780 13.000 V 10.070 C 389.780 10.031 389.749 10.000 389.710 10.000 H 383.710 C 383.671 10.000 383.640 10.031 383.640 10.070 V 13.000 C 383.640 13.070 383.710 13.000 383.640 13.000 H 377.780 C 377.710 13.000 377.780 13.070 377.780 13.000 V 10.070 C 377.780 10.031 377.749 10.000 377.710 10.000 H 371.710 C 371.671 10.000 371.640 10.031 371.640 10.070 V 13.000 C 371.640 13.070 371.710 13.000 371.640 13.000 H 365.780 C 365.710 13.000 365.780 13.070 365.780 13.000 V 10.070 C 365.780 10.031 365.749 10.000 365.710 10.000 H 359.710 C 359.671 10.000 359.640 10.031 359.640 10.070 V 13.000 C 359.640 13.070 359.710 13.000 359.640 13.000 H 353.780 C 353.710 13.000 353.780 13.070 353.780 13.000 V 10.070 C 353.780 10.031 353.749 10.000 353.710 10.000 H 347.710 C 347.671 10.000 347.640 10.031 347.640 10.070 V 13.000 C 347.640 13.070 347.710 13.000 347.640 13.000 H 341.780 C 341.710 13.000 341.780 13.070 341.780 13.000 V 10.070 C 341.780 10.031 341.749 10.000 341.710 10.000 H 335.710 C 335.671 10.000 335.640 10.031 335.640 10.070 V 13.000 C 335.640 13.070 335.710 13.000 335.640 13.000 H 329.780 C 329.710 13.000 329.780 13.070 329.780 13.000 V 10.070 C 329.780 10.031 329.749 10.000 329.710 10.000 H 323.710 C 323.671 10.000 323.640 10.031 323.640 10.070 V 13.000 C 323.640 13.070 323.710 13.000 323.640 13.000 H 317.780 C 317.710 13.000 317.780 13.070 317.780 13.000 V 10.070 C 317.780 10.031 317.749 10.000 317.710 10.000 H 311.710 C 311.671 10.000 311.640 10.031 311.640 10.070 V 13.000 C 311.640 13.070 311.710 13.000 311.640 13.000 H 305.780 C 305.710 13.000 305.780 13.070 305.780 13.000 V 10.070 C 305.780 10.031 305.749 10.000 305.710 10.000 H 299.710 C 299.671 10.000 299.640 10.031 299.640 10.070 V 13.000 C 299.640 13.070 299.710 13.000 299.640 13.000 H 293.780 C 293.710 13.000 293.780 13.070 293.780 13.000 V 10.070 C 293.780 10.031 293.749 10.000 293.710 10.000 H 287.710 C 287.671 10.000 287.640 10.031 287.640 10.070 V 13.000 C 287.640 13.070 287.710 13.000 287.640 13.000 H 276.710 C 276.671 13.000 276.640 13.031 276.640 13.070 V 20.000 C 276.640 20.070 276.710 20.000 276.640 20.000 H 273.710 C 273.671 20.000 273.640 20.031 273.640 20.070 V 26.070 C 273.640 26.109 273.671 26.140 273.710 26.140 H 276.640 C 276.710 26.140 276.640 26.070 276.640 26.140 V 32.000 C 276.640 32.070 276.710 32.000 276.640 32.000 H 273.710 C 273.671 32.000 273.640 32.031 273.640 32.070 V 38.070 C 273.640 38.109 273.671 38.140 273.710 38.140 H 276.640 C 276.710 38.140 276.640 38.070 276.640 38.140 V 44.000 C 276.640 44.070 276.710 44.000 276.640 44.000 H 273.710 C 273.671 44.000 273.640 44.031 273.640 44.070 V 50.070 C 273.640 50.109 273.671 50.140 273.710 50.140 H 276.640 C 276.710 50.140 276.640 50.070 276.640 50.140 V 56.000 C 276.640 56.070 276.710 56.000 276.640 56.000 H 273.710 C 273.671 56.000 273.640 56.031 273.640 56.070 V 62.070 C 273.640 62.109 273.671 62.140 273.710 62.140 H 276.640 C 276.710 62.140 276.640 62.070 276.640 62.140 V 68.000 C 276.640 68.070 276.710 68.000 276.640 68.000 H 273.710 C 273.671 68.000 273.640 68.031 273.640 68.070 V 74.070 C 273.640 74.109 273.671 74.140 273.710 74.140 H 276.640 C 276.710 74.140 276.640 74.070 276.640 74.140 V 80.000 C 276.640 80.070 276.710 80.000 276.640 80.000 H 273.710 C 273.671 80.000 273.640 80.031 273.640 80.070 V 86.070 C 273.640 86.109 273.671 86.140 273.710 86.140 H 276.640 C 276.710 86.140 276.640 86.070 276.640 86.140 V 92.000 C 276.640 92.070 276.710 92.000 276.640 92.000 H 273.710 C 273.671 92.000 273.640 92.031 273.640 92.070 V 98.070 C 273.640 98.109 273.671 98.140 273.710 98.140 H 276.640 C 276.710 98.140 276.640 98.070 276.640 98.140 V 104.000 C 276.640 104.070 276.710 104.000 276.640 104.000 H 273.710 C 273.671 104.000 273.640 104.031 273.640 104.070 V 110.070 C 273.640 110.109 273.671 110.140 273.710 110.140 H 276.640 C 276.710 110.140 276.640 110.070 276.640 110.140 V 116.000 C 276.640 116.070 276.710 116.000 276.640 116.000 H 273.710 C 273.671 116.000 273.640 116.031 273.640 116.070 V 122.070 C 273.640 122.109 273.671 122.140 273.710 122.140 H 276.640 C 276.710 122.140 276.640 122.070 276.640 122.140 V 128.000 C 276.640 128.070 276.710 128.000 276.640 128.000 H 273.710 C 273.671 128.000 273.640 128.031 273.640 128.070 V 134.070 C 273.640 134.109 273.671 134.140 273.710 134.140 H 276.640 C 276.710 134.140 276.640 134.070 276.640 134.140 V 140.000 C 276.640 140.070 276.710 140.000 276.640 140.000 H 273.710 C 273.671 140.000 273.640 140.031 273.640 140.070 V 146.070 C 273.640 146.109 273.671 146.140 273.710 146.140 H 276.640 C 276.710 146.140 276.640 146.070 276.640 146.140 V 152.000 C 276.640 152.070 276.710 152.000 276.640 152.000 H 273.710 C 273.671 152.000 273.640 152.031 273.640 152.070 V 158.070 C 273.640 158.109 273.671 158.140 273.710 158.140 H 276.640 C 276.710 158.140 276.640 158.070 276.640 158.140 V 164.000 C 276.640 164.070 276.710 164.000 276.640 164.000 H 273.710 C 273.671 164.000 273.640 164.031 273.640 164.070 V 170.070 C 273.640 170.109 273.671 170.140 273.710 170.140 H 276.640 C 276.710 170.140 276.640 170.070 276.640 170.140 V 176.000 C 276.640 176.070 276.710 176.000 276.640 176.000 H 273.710 C 273.671 176.000 273.640 176.031 273.640 176.070 V 182.070 C 273.640 182.109 273.671 182.140 273.710 182.140 H 276.640 C 276.710 182.140 276.640 182.070 276.640 182.140 V 189.070 C 276.640 189.109 276.671 189.140 276.710 189.140 Z" stroke="rgb(0,0,0)" stroke-width="0.14" />
</g>
</svg>