<?xml version="1.0" encoding="UTF-8" standalone="no"?>
<!DOCTYPE svg PUBLIC "-//W3C//DTD SVG 1.1//EN" "http://www.w3.org/Graphics/SVG/1.1/DTD/svg11.dtd">
<svg width="2063px" height="1162px" version="1.1" xmlns="http://www.w3.org/2000/svg" xmlns:xlink="http://www.w3.org/1999/xlink" xml:space="preserve" xmlns:serif="http://www.serif.com/" style="fill-rule:evenodd;clip-rule:evenodd;stroke-linecap:round;stroke-linejoin:round;">
    <g transform="matrix(1.33333,0,0,1.33333,0,0)">
        <g id="p-0">
            <path d="M28.545,843.08L68.23,843.08C68.34,843.08 68.428,842.992 68.428,842.882L68.428,834.576C68.428,834.378 68.23,834.576 68.428,834.576L85.039,834.576C85.238,834.576 85.039,834.378 85.039,834.576L85.039,842.882C85.039,842.992 85.127,843.08 85.238,843.08L102.246,843.08C102.356,843.08 102.444,842.992 102.444,842.882L102.444,834.576C102.444,834.378 102.246,834.576 102.444,834.576L119.055,834.576C119.254,834.576 119.055,834.378 119.055,834.576L119.055,842.882C119.055,842.992 119.143,843.08 119.254,843.08L136.261,843.08C136.372,843.08 136.46,842.992 136.46,842.882L136.46,834.576C136.46,834.378 136.261,834.576 136.46,834.576L153.071,834.576C153.269,834.576 153.071,834.378 153.071,834.576L153.071,842.882C153.071,842.992 153.159,843.08 153.269,843.08L170.277,843.08C170.388,843.08 170.476,842.992 170.476,842.882L170.476,834.576C170.476,834.378 170.277,834.576 170.476,834.576L187.087,834.576C187.285,834.576 187.087,834.378 187.087,834.576L187.087,842.882C187.087,842.992 187.174,843.08 187.285,843.08L204.293,843.08C204.403,843.08 204.491,842.992 204.491,842.882L204.491,834.576C204.491,834.378 204.293,834.576 204.491,834.576L221.102,834.576C221.301,834.576 221.102,834.378 221.102,834.576L221.102,842.882C221.102,842.992 221.19,843.08 221.301,843.08L238.309,843.08C238.419,843.08 238.507,842.992 238.507,842.882L238.507,834.576C238.507,834.378 238.309,834.576 238.507,834.576L255.118,834.576C255.317,834.576 255.118,834.378 255.118,834.576L255.118,842.882C255.118,842.992 255.206,843.08 255.317,843.08L272.324,843.08C272.435,843.08 272.523,842.992 272.523,842.882L272.523,834.576C272.523,834.378 272.324,834.576 272.523,834.576L289.134,834.576C289.332,834.576 289.134,834.378 289.134,834.576L289.134,842.882C289.134,842.992 289.222,843.08 289.332,843.08L306.34,843.08C306.451,843.08 306.539,842.992 306.539,842.882L306.539,834.576C306.539,834.378 306.34,834.576 306.539,834.576L323.15,834.576C323.348,834.576 323.15,834.378 323.15,834.576L323.15,842.882C323.15,842.992 323.237,843.08 323.348,843.08L340.356,843.08C340.466,843.08 340.554,842.992 340.554,842.882L340.554,834.576C340.554,834.378 340.356,834.576 340.554,834.576L357.165,834.576C357.364,834.576 357.165,834.378 357.165,834.576L357.165,842.882C357.165,842.992 357.253,843.08 357.364,843.08L374.372,843.08C374.482,843.08 374.57,842.992 374.57,842.882L374.57,834.576C374.57,834.378 374.372,834.576 374.57,834.576L391.181,834.576C391.38,834.576 391.181,834.378 391.181,834.576L391.181,842.882C391.181,842.992 391.269,843.08 391.38,843.08L408.387,843.08C408.498,843.08 408.586,842.992 408.586,842.882L408.586,834.576C408.586,834.378 408.387,834.576 408.586,834.576L425.197,834.576C425.395,834.576 425.197,834.378 425.197,834.576L425.197,842.882C425.197,842.992 425.285,843.08 425.395,843.08L442.403,843.08C442.514,843.08 442.602,842.992 442.602,842.882L442.602,834.576C442.602,834.378 442.403,834.576 442.602,834.576L459.213,834.576C459.411,834.576 459.213,834.378 459.213,834.576L459.213,842.882C459.213,842.992 459.3,843.08 459.411,843.08L476.419,843.08C476.529,843.08 476.617,842.992 476.617,842.882L476.617,834.576C476.617,834.378 476.419,834.576 476.617,834.576L493.228,834.576C493.427,834.576 493.228,834.378 493.228,834.576L493.228,842.882C493.228,842.992 493.316,843.08 493.427,843.08L510.435,843.08C510.545,843.08 510.633,842.992 510.633,842.882L510.633,834.576C510.633,834.378 510.435,834.576 510.633,834.576L527.244,834.576C527.443,834.576 527.244,834.378 527.244,834.576L527.244,842.882C527.244,842.992 527.332,843.08 527.443,843.08L544.45,843.08C544.561,843.08 544.649,842.992 544.649,842.882L544.649,834.576C544.649,834.378 544.45,834.576 544.649,834.576L561.26,834.576C561.458,834.576 561.26,834.378 561.26,834.576L561.26,842.882C561.26,842.992 561.348,843.08 561.458,843.08L578.466,843.08C578.577,843.08 578.665,842.992 578.665,842.882L578.665,834.576C578.665,834.378 578.466,834.576 578.665,834.576L595.276,834.576C595.474,834.576 595.276,834.378 595.276,834.576L595.276,842.882C595.276,842.992 595.363,843.08 595.474,843.08L612.482,843.08C612.592,843.08 612.68,842.992 612.68,842.882L612.68,834.576C612.68,834.378 612.482,834.576 612.68,834.576L629.291,834.576C629.49,834.576 629.291,834.378 629.291,834.576L629.291,842.882C629.291,842.992 629.379,843.08 629.49,843.08L646.498,843.08C646.608,843.08 646.696,842.992 646.696,842.882L646.696,834.576C646.696,834.378 646.498,834.576 646.696,834.576L663.307,834.576C663.506,834.576 663.307,834.378 663.307,834.576L663.307,842.882C663.307,842.992 663.395,843.08 663.506,843.08L680.513,843.08C680.624,843.08 680.712,842.992 680.712,842.882L680.712,834.576C680.712,834.378 680.513,834.576 680.712,834.576L697.323,834.576C697.521,834.576 697.323,834.378 697.323,834.576L697.323,842.882C697.323,842.992 697.411,843.08 697.521,843.08L714.529,843.08C714.64,843.08 714.728,842.992 714.728,842.882L714.728,834.576C714.728,834.378 714.529,834.576 714.728,834.576L731.339,834.576C731.537,834.576 731.339,834.378 731.339,834.576L731.339,842.882C731.339,842.992 731.426,843.08 731.537,843.08L771.222,843.08C771.333,843.08 771.42,842.992 771.42,842.882L771.42,813.118C771.42,813.008 771.333,812.92 771.222,812.92L762.917,812.92C762.718,812.92 762.917,813.118 762.917,812.92L762.917,796.309C762.917,796.11 762.718,796.309 762.917,796.309L771.222,796.309C771.333,796.309 771.42,796.221 771.42,796.11L771.42,779.102C771.42,778.992 771.333,778.904 771.222,778.904L762.917,778.904C762.718,778.904 762.917,779.102 762.917,778.904L762.917,762.293C762.917,762.094 762.718,762.293 762.917,762.293L771.222,762.293C771.333,762.293 771.42,762.205 771.42,762.094L771.42,745.087C771.42,744.976 771.333,744.888 771.222,744.888L762.917,744.888C762.718,744.888 762.917,745.087 762.917,744.888L762.917,728.277C762.917,728.079 762.718,728.277 762.917,728.277L771.222,728.277C771.333,728.277 771.42,728.189 771.42,728.079L771.42,698.315C771.42,698.204 771.333,698.117 771.222,698.117L731.537,698.117C731.426,698.117 731.339,698.204 731.339,698.315L731.339,706.62C731.339,706.819 731.537,706.62 731.339,706.62L714.728,706.62C714.529,706.62 714.728,706.819 714.728,706.62L714.728,698.315C714.728,698.204 714.64,698.117 714.529,698.117L697.521,698.117C697.411,698.117 697.323,698.204 697.323,698.315L697.323,706.62C697.323,706.819 697.521,706.62 697.323,706.62L680.712,706.62C680.513,706.62 680.712,706.819 680.712,706.62L680.712,698.315C680.712,698.204 680.624,698.117 680.513,698.117L663.506,698.117C663.395,698.117 663.307,698.204 663.307,698.315L663.307,706.62C663.307,706.819 663.506,706.62 663.307,706.62L646.696,706.62C646.498,706.62 646.696,706.819 646.696,706.62L646.696,698.315C646.696,698.204 646.608,698.117 646.498,698.117L629.49,698.117C629.379,698.117 629.291,698.204 629.291,698.315L629.291,706.62C629.291,706.819 629.49,706.62 629.291,706.62L612.68,706.62C612.482,706.62 612.68,706.819 612.68,706.62L612.68,698.315C612.68,698.204 612.592,698.117 612.482,698.117L595.474,698.117C595.363,698.117 595.276,698.204 595.276,698.315L595.276,706.62C595.276,706.819 595.474,706.62 595.276,706.62L578.665,706.62C578.466,706.62 578.665,706.819 578.665,706.62L578.665,698.315C578.665,698.204 578.577,698.117 578.466,698.117L561.458,698.117C561.348,698.117 561.26,698.204 561.26,698.315L561.26,706.62C561.26,706.819 561.458,706.62 561.26,706.62L544.649,706.62C544.45,706.62 544.649,706.819 544.649,706.62L544.649,698.315C544.649,698.204 544.561,698.117 544.45,698.117L527.443,698.117C527.332,698.117 527.244,698.204 527.244,698.315L527.244,706.62C527.244,706.819 527.443,706.62 527.244,706.62L510.633,706.62C510.435,706.62 510.633,706.819 510.633,706.62L510.633,698.315C510.633,698.204 510.545,698.117 510.435,698.117L493.427,698.117C493.316,698.117 493.228,698.204 493.228,698.315L493.228,706.62C493.228,706.819 493.427,706.62 493.228,706.62L476.617,706.62C476.419,706.62 476.617,706.819 476.617,706.62L476.617,698.315C476.617,698.204 476.529,698.117 476.419,698.117L459.411,698.117C459.3,698.117 459.213,698.204 459.213,698.315L459.213,706.62C459.213,706.819 459.411,706.62 459.213,706.62L442.602,706.62C442.403,706.62 442.602,706.819 442.602,706.62L442.602,698.315C442.602,698.204 442.514,698.117 442.403,698.117L425.395,698.117C425.285,698.117 425.197,698.204 425.197,698.315L425.197,706.62C425.197,706.819 425.395,706.62 425.197,706.62L408.586,706.62C408.387,706.62 408.586,706.819 408.586,706.62L408.586,698.315C408.586,698.204 408.498,698.117 408.387,698.117L391.38,698.117C391.269,698.117 391.181,698.204 391.181,698.315L391.181,706.62C391.181,706.819 391.38,706.62 391.181,706.62L374.57,706.62C374.372,706.62 374.57,706.819 374.57,706.62L374.57,698.315C374.57,698.204 374.482,698.117 374.372,698.117L357.364,698.117C357.253,698.117 357.165,698.204 357.165,698.315L357.165,706.62C357.165,706.819 357.364,706.62 357.165,706.62L340.554,706.62C340.356,706.62 340.554,706.819 340.554,706.62L340.554,698.315C340.554,698.204 340.466,698.117 340.356,698.117L323.348,698.117C323.237,698.117 323.15,698.204 323.15,698.315L323.15,706.62C323.15,706.819 323.348,706.62 323.15,706.62L306.539,706.62C306.34,706.62 306.539,706.819 306.539,706.62L306.539,698.315C306.539,698.204 306.451,698.117 306.34,698.117L289.332,698.117C289.222,698.117 289.134,698.204 289.134,698.315L289.134,706.62C289.134,706.819 289.332,706.62 289.134,706.62L272.523,706.62C272.324,706.62 272.523,706.819 272.523,706.62L272.523,698.315C272.523,698.204 272.435,698.117 272.324,698.117L255.317,698.117C255.206,698.117 255.118,698.204 255.118,698.315L255.118,706.62C255.118,706.819 255.317,706.62 255.118,706.62L238.507,706.62C238.309,706.62 238.507,706.819 238.507,706.62L238.507,698.315C238.507,698.204 238.419,698.117 238.309,698.117L221.301,698.117C221.19,698.117 221.102,698.204 221.102,698.315L221.102,706.62C221.102,706.819 221.301,706.62 221.102,706.62L204.491,706.62C204.293,706.62 204.491,706.819 204.491,706.62L204.491,698.315C204.491,698.204 204.403,698.117 204.293,698.117L187.285,698.117C187.174,698.117 187.087,698.204 187.087,698.315L187.087,706.62C187.087,706.819 187.285,706.62 187.087,706.62L170.476,706.62C170.277,706.62 170.476,706.819 170.476,706.62L170.476,698.315C170.476,698.204 170.388,698.117 170.277,698.117L153.269,698.117C153.159,698.117 153.071,698.204 153.071,698.315L153.071,706.62C153.071,706.819 153.269,706.62 153.071,706.62L136.46,706.62C136.261,706.62 136.46,706.819 136.46,706.62L136.46,698.315C136.46,698.204 136.372,698.117 136.261,698.117L119.254,698.117C119.143,698.117 119.055,698.204 119.055,698.315L119.055,706.62C119.055,706.819 119.254,706.62 119.055,706.62L102.444,706.62C102.246,706.62 102.444,706.819 102.444,706.62L102.444,698.315C102.444,698.204 102.356,698.117 102.246,698.117L85.238,698.117C85.127,698.117 85.039,698.204 85.039,698.315L85.039,706.62C85.039,706.819 85.238,706.62 85.039,706.62L68.428,706.62C68.23,706.62 68.428,706.819 68.428,706.62L68.428,698.315C68.428,698.204 68.34,698.117 68.23,698.117L28.545,698.117C28.434,698.117 28.346,698.204 28.346,698.315L28.346,728.079C28.346,728.189 28.434,728.277 28.545,728.277L36.85,728.277C37.049,728.277 36.85,728.079 36.85,728.277L36.85,744.888C36.85,745.087 37.049,744.888 36.85,744.888L28.545,744.888C28.434,744.888 28.346,744.976 28.346,745.087L28.346,762.094C28.346,762.205 28.434,762.293 28.545,762.293L36.85,762.293C37.049,762.293 36.85,762.094 36.85,762.293L36.85,778.904C36.85,779.102 37.049,778.904 36.85,778.904L28.545,778.904C28.434,778.904 28.346,778.992 28.346,779.102L28.346,796.11C28.346,796.221 28.434,796.309 28.545,796.309L36.85,796.309C37.049,796.309 36.85,796.11 36.85,796.309L36.85,812.92C36.85,813.118 37.049,812.92 36.85,812.92L28.545,812.92C28.434,812.92 28.346,813.008 28.346,813.118L28.346,842.882C28.346,842.992 28.434,843.08 28.545,843.08Z" style="fill:none;fill-rule:nonzero;stroke:black;stroke-width:0.4px;"/>
        </g>
        <g id="p-1">
            <path d="M784.375,843.08L804.217,843.08C804.328,843.08 804.416,842.992 804.416,842.882L804.416,834.576C804.416,834.378 804.217,834.576 804.416,834.576L821.027,834.576C821.225,834.576 821.027,834.378 821.027,834.576L821.027,842.882C821.027,842.992 821.115,843.08 821.225,843.08L838.233,843.08C838.344,843.08 838.431,842.992 838.431,842.882L838.431,834.576C838.431,834.378 838.233,834.576 838.431,834.576L855.043,834.576C855.241,834.576 855.043,834.378 855.043,834.576L855.043,842.882C855.043,842.992 855.13,843.08 855.241,843.08L872.249,843.08C872.359,843.08 872.447,842.992 872.447,842.882L872.447,834.576C872.447,834.378 872.249,834.576 872.447,834.576L889.058,834.576C889.257,834.576 889.058,834.378 889.058,834.576L889.058,842.882C889.058,842.992 889.146,843.08 889.257,843.08L906.265,843.08C906.375,843.08 906.463,842.992 906.463,842.882L906.463,834.576C906.463,834.378 906.265,834.576 906.463,834.576L923.074,834.576C923.272,834.576 923.074,834.378 923.074,834.576L923.074,842.882C923.074,842.992 923.162,843.08 923.272,843.08L940.28,843.08C940.391,843.08 940.479,842.992 940.479,842.882L940.479,834.576C940.479,834.378 940.28,834.576 940.479,834.576L957.09,834.576C957.288,834.576 957.09,834.378 957.09,834.576L957.09,842.882C957.09,842.992 957.178,843.08 957.288,843.08L974.296,843.08C974.407,843.08 974.494,842.992 974.494,842.882L974.494,834.576C974.494,834.378 974.296,834.576 974.494,834.576L991.106,834.576C991.304,834.576 991.106,834.378 991.106,834.576L991.106,842.882C991.106,842.992 991.193,843.08 991.304,843.08L1008.31,843.08C1008.42,843.08 1008.51,842.992 1008.51,842.882L1008.51,834.576C1008.51,834.378 1008.31,834.576 1008.51,834.576L1025.12,834.576C1025.32,834.576 1025.12,834.378 1025.12,834.576L1025.12,842.882C1025.12,842.992 1025.21,843.08 1025.32,843.08L1042.33,843.08C1042.44,843.08 1042.53,842.992 1042.53,842.882L1042.53,834.576C1042.53,834.378 1042.33,834.576 1042.53,834.576L1059.14,834.576C1059.34,834.576 1059.14,834.378 1059.14,834.576L1059.14,842.882C1059.14,842.992 1059.22,843.08 1059.34,843.08L1076.34,843.08C1076.45,843.08 1076.54,842.992 1076.54,842.882L1076.54,834.576C1076.54,834.378 1076.34,834.576 1076.54,834.576L1093.15,834.576C1093.35,834.576 1093.15,834.378 1093.15,834.576L1093.15,842.882C1093.15,842.992 1093.24,843.08 1093.35,843.08L1110.36,843.08C1110.47,843.08 1110.56,842.992 1110.56,842.882L1110.56,834.576C1110.56,834.378 1110.36,834.576 1110.56,834.576L1127.17,834.576C1127.37,834.576 1127.17,834.378 1127.17,834.576L1127.17,842.882C1127.17,842.992 1127.26,843.08 1127.37,843.08L1144.38,843.08C1144.49,843.08 1144.57,842.992 1144.57,842.882L1144.57,834.576C1144.57,834.378 1144.38,834.576 1144.57,834.576L1161.18,834.576C1161.38,834.576 1161.18,834.378 1161.18,834.576L1161.18,842.882C1161.18,842.992 1161.27,843.08 1161.38,843.08L1178.39,843.08C1178.5,843.08 1178.59,842.992 1178.59,842.882L1178.59,834.576C1178.59,834.378 1178.39,834.576 1178.59,834.576L1195.2,834.576C1195.4,834.576 1195.2,834.378 1195.2,834.576L1195.2,842.882C1195.2,842.992 1195.29,843.08 1195.4,843.08L1212.41,843.08C1212.52,843.08 1212.61,842.992 1212.61,842.882L1212.61,834.576C1212.61,834.378 1212.41,834.576 1212.61,834.576L1229.22,834.576C1229.41,834.576 1229.22,834.378 1229.22,834.576L1229.22,842.882C1229.22,842.992 1229.3,843.08 1229.41,843.08L1246.42,843.08C1246.53,843.08 1246.62,842.992 1246.62,842.882L1246.62,834.576C1246.62,834.378 1246.42,834.576 1246.62,834.576L1263.23,834.576C1263.43,834.576 1263.23,834.378 1263.23,834.576L1263.23,842.882C1263.23,842.992 1263.32,843.08 1263.43,843.08L1283.27,843.08C1283.38,843.08 1283.47,842.992 1283.47,842.882L1283.47,813.317C1283.47,813.118 1283.27,813.317 1283.47,813.317L1291.78,813.317C1291.89,813.317 1291.98,813.229 1291.98,813.118L1291.98,796.11C1291.98,796 1291.89,795.912 1291.78,795.912L1283.47,795.912C1283.27,795.912 1283.47,796.11 1283.47,795.912L1283.47,779.301C1283.47,779.102 1283.27,779.301 1283.47,779.301L1291.78,779.301C1291.89,779.301 1291.98,779.213 1291.98,779.102L1291.98,762.094C1291.98,761.984 1291.89,761.896 1291.78,761.896L1283.47,761.896C1283.27,761.896 1283.47,762.094 1283.47,761.896L1283.47,745.285C1283.47,745.087 1283.27,745.285 1283.47,745.285L1291.78,745.285C1291.89,745.285 1291.98,745.197 1291.98,745.087L1291.98,728.079C1291.98,727.968 1291.89,727.88 1291.78,727.88L1283.47,727.88C1283.27,727.88 1283.47,728.079 1283.47,727.88L1283.47,698.315C1283.47,698.204 1283.38,698.117 1283.27,698.117L1263.43,698.117C1263.32,698.117 1263.23,698.204 1263.23,698.315L1263.23,706.62C1263.23,706.819 1263.43,706.62 1263.23,706.62L1246.62,706.62C1246.42,706.62 1246.62,706.819 1246.62,706.62L1246.62,698.315C1246.62,698.204 1246.53,698.117 1246.42,698.117L1229.41,698.117C1229.3,698.117 1229.22,698.204 1229.22,698.315L1229.22,706.62C1229.22,706.819 1229.41,706.62 1229.22,706.62L1212.61,706.62C1212.41,706.62 1212.61,706.819 1212.61,706.62L1212.61,698.315C1212.61,698.204 1212.52,698.117 1212.41,698.117L1195.4,698.117C1195.29,698.117 1195.2,698.204 1195.2,698.315L1195.2,706.62C1195.2,706.819 1195.4,706.62 1195.2,706.62L1178.59,706.62C1178.39,706.62 1178.59,706.819 1178.59,706.62L1178.59,698.315C1178.59,698.204 1178.5,698.117 1178.39,698.117L1161.38,698.117C1161.27,698.117 1161.18,698.204 1161.18,698.315L1161.18,706.62C1161.18,706.819 1161.38,706.62 1161.18,706.62L1144.57,706.62C1144.38,706.62 1144.57,706.819 1144.57,706.62L1144.57,698.315C1144.57,698.204 1144.49,698.117 1144.38,698.117L1127.37,698.117C1127.26,698.117 1127.17,698.204 1127.17,698.315L1127.17,706.62C1127.17,706.819 1127.37,706.62 1127.17,706.62L1110.56,706.62C1110.36,706.62 1110.56,706.819 1110.56,706.62L1110.56,698.315C1110.56,698.204 1110.47,698.117 1110.36,698.117L1093.35,698.117C1093.24,698.117 1093.15,698.204 1093.15,698.315L1093.15,706.62C1093.15,706.819 1093.35,706.62 1093.15,706.62L1076.54,706.62C1076.34,706.62 1076.54,706.819 1076.54,706.62L1076.54,698.315C1076.54,698.204 1076.45,698.117 1076.34,698.117L1059.34,698.117C1059.22,698.117 1059.14,698.204 1059.14,698.315L1059.14,706.62C1059.14,706.819 1059.34,706.62 1059.14,706.62L1042.53,706.62C1042.33,706.62 1042.53,706.819 1042.53,706.62L1042.53,698.315C1042.53,698.204 1042.44,698.117 1042.33,698.117L1025.32,698.117C1025.21,698.117 1025.12,698.204 1025.12,698.315L1025.12,706.62C1025.12,706.819 1025.32,706.62 1025.12,706.62L1008.51,706.62C1008.31,706.62 1008.51,706.819 1008.51,706.62L1008.51,698.315C1008.51,698.204 1008.42,698.117 1008.31,698.117L991.304,698.117C991.193,698.117 991.106,698.204 991.106,698.315L991.106,706.62C991.106,706.819 991.304,706.62 991.106,706.62L974.494,706.62C974.296,706.62 974.494,706.819 974.494,706.62L974.494,698.315C974.494,698.204 974.407,698.117 974.296,698.117L957.288,698.117C957.178,698.117 957.09,698.204 957.09,698.315L957.09,706.62C957.09,706.819 957.288,706.62 957.09,706.62L940.479,706.62C940.28,706.62 940.479,706.819 940.479,706.62L940.479,698.315C940.479,698.204 940.391,698.117 940.28,698.117L923.272,698.117C923.162,698.117 923.074,698.204 923.074,698.315L923.074,706.62C923.074,706.819 923.272,706.62 923.074,706.62L906.463,706.62C906.265,706.62 906.463,706.819 906.463,706.62L906.463,698.315C906.463,698.204 906.375,698.117 906.265,698.117L889.257,698.117C889.146,698.117 889.058,698.204 889.058,698.315L889.058,706.62C889.058,706.819 889.257,706.62 889.058,706.62L872.447,706.62C872.249,706.62 872.447,706.819 872.447,706.62L872.447,698.315C872.447,698.204 872.359,698.117 872.249,698.117L855.241,698.117C855.13,698.117 855.043,698.204 855.043,698.315L855.043,706.62C855.043,706.819 855.241,706.62 855.043,706.62L838.431,706.62C838.233,706.62 838.431,706.819 838.431,706.62L838.431,698.315C838.431,698.204 838.344,698.117 838.233,698.117L821.225,698.117C821.115,698.117 821.027,698.204 821.027,698.315L821.027,706.62C821.027,706.819 821.225,706.62 821.027,706.62L804.416,706.62C804.217,706.62 804.416,706.819 804.416,706.62L804.416,698.315C804.416,698.204 804.328,698.117 804.217,698.117L784.375,698.117C784.264,698.117 784.176,698.204 784.176,698.315L784.176,727.88C784.176,728.079 784.375,727.88 784.176,727.88L775.871,727.88C775.76,727.88 775.672,727.968 775.672,728.079L775.672,745.087C775.672,745.197 775.76,745.285 775.871,745.285L784.176,745.285C784.375,745.285 784.176,745.087 784.176,745.285L784.176,761.896C784.176,762.094 784.375,761.896 784.176,761.896L775.871,761.896C775.76,761.896 775.672,761.984 775.672,762.094L775.672,779.102C775.672,779.213 775.76,779.301 775.871,779.301L784.176,779.301C784.375,779.301 784.176,779.102 784.176,779.301L784.176,795.912C784.176,796.11 784.375,795.912 784.176,795.912L775.871,795.912C775.76,795.912 775.672,796 775.672,796.11L775.672,813.118C775.672,813.229 775.76,813.317 775.871,813.317L784.176,813.317C784.375,813.317 784.176,813.118 784.176,813.317L784.176,842.882C784.176,842.992 784.264,843.08 784.375,843.08Z" style="fill:none;fill-rule:nonzero;stroke:black;stroke-width:0.4px;"/>
        </g>
        <g id="p-2">
            <path d="M784.375,693.865L804.217,693.865C804.328,693.865 804.416,693.777 804.416,693.666L804.416,685.361C804.416,685.162 804.217,685.361 804.416,685.361L821.027,685.361C821.225,685.361 821.027,685.162 821.027,685.361L821.027,693.666C821.027,693.777 821.115,693.865 821.225,693.865L838.233,693.865C838.344,693.865 838.431,693.777 838.431,693.666L838.431,685.361C838.431,685.162 838.233,685.361 838.431,685.361L855.043,685.361C855.241,685.361 855.043,685.162 855.043,685.361L855.043,693.666C855.043,693.777 855.13,693.865 855.241,693.865L872.249,693.865C872.359,693.865 872.447,693.777 872.447,693.666L872.447,685.361C872.447,685.162 872.249,685.361 872.447,685.361L889.058,685.361C889.257,685.361 889.058,685.162 889.058,685.361L889.058,693.666C889.058,693.777 889.146,693.865 889.257,693.865L906.265,693.865C906.375,693.865 906.463,693.777 906.463,693.666L906.463,685.361C906.463,685.162 906.265,685.361 906.463,685.361L923.074,685.361C923.272,685.361 923.074,685.162 923.074,685.361L923.074,693.666C923.074,693.777 923.162,693.865 923.272,693.865L940.28,693.865C940.391,693.865 940.479,693.777 940.479,693.666L940.479,685.361C940.479,685.162 940.28,685.361 940.479,685.361L957.09,685.361C957.288,685.361 957.09,685.162 957.09,685.361L957.09,693.666C957.09,693.777 957.178,693.865 957.288,693.865L974.296,693.865C974.407,693.865 974.494,693.777 974.494,693.666L974.494,685.361C974.494,685.162 974.296,685.361 974.494,685.361L991.106,685.361C991.304,685.361 991.106,685.162 991.106,685.361L991.106,693.666C991.106,693.777 991.193,693.865 991.304,693.865L1008.31,693.865C1008.42,693.865 1008.51,693.777 1008.51,693.666L1008.51,685.361C1008.51,685.162 1008.31,685.361 1008.51,685.361L1025.12,685.361C1025.32,685.361 1025.12,685.162 1025.12,685.361L1025.12,693.666C1025.12,693.777 1025.21,693.865 1025.32,693.865L1042.33,693.865C1042.44,693.865 1042.53,693.777 1042.53,693.666L1042.53,685.361C1042.53,685.162 1042.33,685.361 1042.53,685.361L1059.14,685.361C1059.34,685.361 1059.14,685.162 1059.14,685.361L1059.14,693.666C1059.14,693.777 1059.22,693.865 1059.34,693.865L1076.34,693.865C1076.45,693.865 1076.54,693.777 1076.54,693.666L1076.54,685.361C1076.54,685.162 1076.34,685.361 1076.54,685.361L1093.15,685.361C1093.35,685.361 1093.15,685.162 1093.15,685.361L1093.15,693.666C1093.15,693.777 1093.24,693.865 1093.35,693.865L1110.36,693.865C1110.47,693.865 1110.56,693.777 1110.56,693.666L1110.56,685.361C1110.56,685.162 1110.36,685.361 1110.56,685.361L1127.17,685.361C1127.37,685.361 1127.17,685.162 1127.17,685.361L1127.17,693.666C1127.17,693.777 1127.26,693.865 1127.37,693.865L1144.38,693.865C1144.49,693.865 1144.57,693.777 1144.57,693.666L1144.57,685.361C1144.57,685.162 1144.38,685.361 1144.57,685.361L1161.18,685.361C1161.38,685.361 1161.18,685.162 1161.18,685.361L1161.18,693.666C1161.18,693.777 1161.27,693.865 1161.38,693.865L1178.39,693.865C1178.5,693.865 1178.59,693.777 1178.59,693.666L1178.59,685.361C1178.59,685.162 1178.39,685.361 1178.59,685.361L1195.2,685.361C1195.4,685.361 1195.2,685.162 1195.2,685.361L1195.2,693.666C1195.2,693.777 1195.29,693.865 1195.4,693.865L1212.41,693.865C1212.52,693.865 1212.61,693.777 1212.61,693.666L1212.61,685.361C1212.61,685.162 1212.41,685.361 1212.61,685.361L1229.22,685.361C1229.41,685.361 1229.22,685.162 1229.22,685.361L1229.22,693.666C1229.22,693.777 1229.3,693.865 1229.41,693.865L1246.42,693.865C1246.53,693.865 1246.62,693.777 1246.62,693.666L1246.62,685.361C1246.62,685.162 1246.42,685.361 1246.62,685.361L1263.23,685.361C1263.43,685.361 1263.23,685.162 1263.23,685.361L1263.23,693.666C1263.23,693.777 1263.32,693.865 1263.43,693.865L1283.27,693.865C1283.38,693.865 1283.47,693.777 1283.47,693.666L1283.47,664.101C1283.47,663.902 1283.27,664.101 1283.47,664.101L1291.78,664.101C1291.89,664.101 1291.98,664.013 1291.98,663.902L1291.98,646.894C1291.98,646.784 1291.89,646.696 1291.78,646.696L1283.47,646.696C1283.27,646.696 1283.47,646.894 1283.47,646.696L1283.47,630.085C1283.47,629.887 1283.27,630.085 1283.47,630.085L1291.78,630.085C1291.89,630.085 1291.98,629.997 1291.98,629.887L1291.98,612.879C1291.98,612.768 1291.89,612.68 1291.78,612.68L1283.47,612.68C1283.27,612.68 1283.47,612.879 1283.47,612.68L1283.47,596.069C1283.47,595.871 1283.27,596.069 1283.47,596.069L1291.78,596.069C1291.89,596.069 1291.98,595.981 1291.98,595.871L1291.98,578.863C1291.98,578.752 1291.89,578.665 1291.78,578.665L1283.47,578.665C1283.27,578.665 1283.47,578.863 1283.47,578.665L1283.47,549.099C1283.47,548.989 1283.38,548.901 1283.27,548.901L1263.43,548.901C1263.32,548.901 1263.23,548.989 1263.23,549.099L1263.23,557.405C1263.23,557.603 1263.43,557.405 1263.23,557.405L1246.62,557.405C1246.42,557.405 1246.62,557.603 1246.62,557.405L1246.62,549.099C1246.62,548.989 1246.53,548.901 1246.42,548.901L1229.41,548.901C1229.3,548.901 1229.22,548.989 1229.22,549.099L1229.22,557.405C1229.22,557.603 1229.41,557.405 1229.22,557.405L1212.61,557.405C1212.41,557.405 1212.61,557.603 1212.61,557.405L1212.61,549.099C1212.61,548.989 1212.52,548.901 1212.41,548.901L1195.4,548.901C1195.29,548.901 1195.2,548.989 1195.2,549.099L1195.2,557.405C1195.2,557.603 1195.4,557.405 1195.2,557.405L1178.59,557.405C1178.39,557.405 1178.59,557.603 1178.59,557.405L1178.59,549.099C1178.59,548.989 1178.5,548.901 1178.39,548.901L1161.38,548.901C1161.27,548.901 1161.18,548.989 1161.18,549.099L1161.18,557.405C1161.18,557.603 1161.38,557.405 1161.18,557.405L1144.57,557.405C1144.38,557.405 1144.57,557.603 1144.57,557.405L1144.57,549.099C1144.57,548.989 1144.49,548.901 1144.38,548.901L1127.37,548.901C1127.26,548.901 1127.17,548.989 1127.17,549.099L1127.17,557.405C1127.17,557.603 1127.37,557.405 1127.17,557.405L1110.56,557.405C1110.36,557.405 1110.56,557.603 1110.56,557.405L1110.56,549.099C1110.56,548.989 1110.47,548.901 1110.36,548.901L1093.35,548.901C1093.24,548.901 1093.15,548.989 1093.15,549.099L1093.15,557.405C1093.15,557.603 1093.35,557.405 1093.15,557.405L1076.54,557.405C1076.34,557.405 1076.54,557.603 1076.54,557.405L1076.54,549.099C1076.54,548.989 1076.45,548.901 1076.34,548.901L1059.34,548.901C1059.22,548.901 1059.14,548.989 1059.14,549.099L1059.14,557.405C1059.14,557.603 1059.34,557.405 1059.14,557.405L1042.53,557.405C1042.33,557.405 1042.53,557.603 1042.53,557.405L1042.53,549.099C1042.53,548.989 1042.44,548.901 1042.33,548.901L1025.32,548.901C1025.21,548.901 1025.12,548.989 1025.12,549.099L1025.12,557.405C1025.12,557.603 1025.32,557.405 1025.12,557.405L1008.51,557.405C1008.31,557.405 1008.51,557.603 1008.51,557.405L1008.51,549.099C1008.51,548.989 1008.42,548.901 1008.31,548.901L991.304,548.901C991.193,548.901 991.106,548.989 991.106,549.099L991.106,557.405C991.106,557.603 991.304,557.405 991.106,557.405L974.494,557.405C974.296,557.405 974.494,557.603 974.494,557.405L974.494,549.099C974.494,548.989 974.407,548.901 974.296,548.901L957.288,548.901C957.178,548.901 957.09,548.989 957.09,549.099L957.09,557.405C957.09,557.603 957.288,557.405 957.09,557.405L940.479,557.405C940.28,557.405 940.479,557.603 940.479,557.405L940.479,549.099C940.479,548.989 940.391,548.901 940.28,548.901L923.272,548.901C923.162,548.901 923.074,548.989 923.074,549.099L923.074,557.405C923.074,557.603 923.272,557.405 923.074,557.405L906.463,557.405C906.265,557.405 906.463,557.603 906.463,557.405L906.463,549.099C906.463,548.989 906.375,548.901 906.265,548.901L889.257,548.901C889.146,548.901 889.058,548.989 889.058,549.099L889.058,557.405C889.058,557.603 889.257,557.405 889.058,557.405L872.447,557.405C872.249,557.405 872.447,557.603 872.447,557.405L872.447,549.099C872.447,548.989 872.359,548.901 872.249,548.901L855.241,548.901C855.13,548.901 855.043,548.989 855.043,549.099L855.043,557.405C855.043,557.603 855.241,557.405 855.043,557.405L838.431,557.405C838.233,557.405 838.431,557.603 838.431,557.405L838.431,549.099C838.431,548.989 838.344,548.901 838.233,548.901L821.225,548.901C821.115,548.901 821.027,548.989 821.027,549.099L821.027,557.405C821.027,557.603 821.225,557.405 821.027,557.405L804.416,557.405C804.217,557.405 804.416,557.603 804.416,557.405L804.416,549.099C804.416,548.989 804.328,548.901 804.217,548.901L784.375,548.901C784.264,548.901 784.176,548.989 784.176,549.099L784.176,578.665C784.176,578.863 784.375,578.665 784.176,578.665L775.871,578.665C775.76,578.665 775.672,578.752 775.672,578.863L775.672,595.871C775.672,595.981 775.76,596.069 775.871,596.069L784.176,596.069C784.375,596.069 784.176,595.871 784.176,596.069L784.176,612.68C784.176,612.879 784.375,612.68 784.176,612.68L775.871,612.68C775.76,612.68 775.672,612.768 775.672,612.879L775.672,629.887C775.672,629.997 775.76,630.085 775.871,630.085L784.176,630.085C784.375,630.085 784.176,629.887 784.176,630.085L784.176,646.696C784.176,646.894 784.375,646.696 784.176,646.696L775.871,646.696C775.76,646.696 775.672,646.784 775.672,646.894L775.672,663.902C775.672,664.013 775.76,664.101 775.871,664.101L784.176,664.101C784.375,664.101 784.176,663.902 784.176,664.101L784.176,693.666C784.176,693.777 784.264,693.865 784.375,693.865Z" style="fill:none;fill-rule:nonzero;stroke:black;stroke-width:0.4px;"/>
        </g>
        <g id="p-3">
            <path d="M28.545,693.865L68.23,693.865C68.34,693.865 68.428,693.777 68.428,693.666L68.428,685.361C68.428,685.162 68.23,685.361 68.428,685.361L85.039,685.361C85.238,685.361 85.039,685.162 85.039,685.361L85.039,693.666C85.039,693.777 85.127,693.865 85.238,693.865L102.246,693.865C102.356,693.865 102.444,693.777 102.444,693.666L102.444,685.361C102.444,685.162 102.246,685.361 102.444,685.361L119.055,685.361C119.254,685.361 119.055,685.162 119.055,685.361L119.055,693.666C119.055,693.777 119.143,693.865 119.254,693.865L136.261,693.865C136.372,693.865 136.46,693.777 136.46,693.666L136.46,685.361C136.46,685.162 136.261,685.361 136.46,685.361L153.071,685.361C153.269,685.361 153.071,685.162 153.071,685.361L153.071,693.666C153.071,693.777 153.159,693.865 153.269,693.865L170.277,693.865C170.388,693.865 170.476,693.777 170.476,693.666L170.476,685.361C170.476,685.162 170.277,685.361 170.476,685.361L187.087,685.361C187.285,685.361 187.087,685.162 187.087,685.361L187.087,693.666C187.087,693.777 187.174,693.865 187.285,693.865L204.293,693.865C204.403,693.865 204.491,693.777 204.491,693.666L204.491,685.361C204.491,685.162 204.293,685.361 204.491,685.361L221.102,685.361C221.301,685.361 221.102,685.162 221.102,685.361L221.102,693.666C221.102,693.777 221.19,693.865 221.301,693.865L238.309,693.865C238.419,693.865 238.507,693.777 238.507,693.666L238.507,685.361C238.507,685.162 238.309,685.361 238.507,685.361L255.118,685.361C255.317,685.361 255.118,685.162 255.118,685.361L255.118,693.666C255.118,693.777 255.206,693.865 255.317,693.865L272.324,693.865C272.435,693.865 272.523,693.777 272.523,693.666L272.523,685.361C272.523,685.162 272.324,685.361 272.523,685.361L289.134,685.361C289.332,685.361 289.134,685.162 289.134,685.361L289.134,693.666C289.134,693.777 289.222,693.865 289.332,693.865L306.34,693.865C306.451,693.865 306.539,693.777 306.539,693.666L306.539,685.361C306.539,685.162 306.34,685.361 306.539,685.361L323.15,685.361C323.348,685.361 323.15,685.162 323.15,685.361L323.15,693.666C323.15,693.777 323.237,693.865 323.348,693.865L340.356,693.865C340.466,693.865 340.554,693.777 340.554,693.666L340.554,685.361C340.554,685.162 340.356,685.361 340.554,685.361L357.165,685.361C357.364,685.361 357.165,685.162 357.165,685.361L357.165,693.666C357.165,693.777 357.253,693.865 357.364,693.865L374.372,693.865C374.482,693.865 374.57,693.777 374.57,693.666L374.57,685.361C374.57,685.162 374.372,685.361 374.57,685.361L391.181,685.361C391.38,685.361 391.181,685.162 391.181,685.361L391.181,693.666C391.181,693.777 391.269,693.865 391.38,693.865L408.387,693.865C408.498,693.865 408.586,693.777 408.586,693.666L408.586,685.361C408.586,685.162 408.387,685.361 408.586,685.361L425.197,685.361C425.395,685.361 425.197,685.162 425.197,685.361L425.197,693.666C425.197,693.777 425.285,693.865 425.395,693.865L442.403,693.865C442.514,693.865 442.602,693.777 442.602,693.666L442.602,685.361C442.602,685.162 442.403,685.361 442.602,685.361L459.213,685.361C459.411,685.361 459.213,685.162 459.213,685.361L459.213,693.666C459.213,693.777 459.3,693.865 459.411,693.865L476.419,693.865C476.529,693.865 476.617,693.777 476.617,693.666L476.617,685.361C476.617,685.162 476.419,685.361 476.617,685.361L493.228,685.361C493.427,685.361 493.228,685.162 493.228,685.361L493.228,693.666C493.228,693.777 493.316,693.865 493.427,693.865L510.435,693.865C510.545,693.865 510.633,693.777 510.633,693.666L510.633,685.361C510.633,685.162 510.435,685.361 510.633,685.361L527.244,685.361C527.443,685.361 527.244,685.162 527.244,685.361L527.244,693.666C527.244,693.777 527.332,693.865 527.443,693.865L544.45,693.865C544.561,693.865 544.649,693.777 544.649,693.666L544.649,685.361C544.649,685.162 544.45,685.361 544.649,685.361L561.26,685.361C561.458,685.361 561.26,685.162 561.26,685.361L561.26,693.666C561.26,693.777 561.348,693.865 561.458,693.865L578.466,693.865C578.577,693.865 578.665,693.777 578.665,693.666L578.665,685.361C578.665,685.162 578.466,685.361 578.665,685.361L595.276,685.361C595.474,685.361 595.276,685.162 595.276,685.361L595.276,693.666C595.276,693.777 595.363,693.865 595.474,693.865L612.482,693.865C612.592,693.865 612.68,693.777 612.68,693.666L612.68,685.361C612.68,685.162 612.482,685.361 612.68,685.361L629.291,685.361C629.49,685.361 629.291,685.162 629.291,685.361L629.291,693.666C629.291,693.777 629.379,693.865 629.49,693.865L646.498,693.865C646.608,693.865 646.696,693.777 646.696,693.666L646.696,685.361C646.696,685.162 646.498,685.361 646.696,685.361L663.307,685.361C663.506,685.361 663.307,685.162 663.307,685.361L663.307,693.666C663.307,693.777 663.395,693.865 663.506,693.865L680.513,693.865C680.624,693.865 680.712,693.777 680.712,693.666L680.712,685.361C680.712,685.162 680.513,685.361 680.712,685.361L697.323,685.361C697.521,685.361 697.323,685.162 697.323,685.361L697.323,693.666C697.323,693.777 697.411,693.865 697.521,693.865L714.529,693.865C714.64,693.865 714.728,693.777 714.728,693.666L714.728,685.361C714.728,685.162 714.529,685.361 714.728,685.361L731.339,685.361C731.537,685.361 731.339,685.162 731.339,685.361L731.339,693.666C731.339,693.777 731.426,693.865 731.537,693.865L771.222,693.865C771.333,693.865 771.42,693.777 771.42,693.666L771.42,663.902C771.42,663.792 771.333,663.704 771.222,663.704L762.917,663.704C762.718,663.704 762.917,663.902 762.917,663.704L762.917,647.093C762.917,646.894 762.718,647.093 762.917,647.093L771.222,647.093C771.333,647.093 771.42,647.005 771.42,646.894L771.42,629.887C771.42,629.776 771.333,629.688 771.222,629.688L762.917,629.688C762.718,629.688 762.917,629.887 762.917,629.688L762.917,613.077C762.917,612.879 762.718,613.077 762.917,613.077L771.222,613.077C771.333,613.077 771.42,612.989 771.42,612.879L771.42,595.871C771.42,595.76 771.333,595.672 771.222,595.672L762.917,595.672C762.718,595.672 762.917,595.871 762.917,595.672L762.917,579.061C762.917,578.863 762.718,579.061 762.917,579.061L771.222,579.061C771.333,579.061 771.42,578.974 771.42,578.863L771.42,549.099C771.42,548.989 771.333,548.901 771.222,548.901L731.537,548.901C731.426,548.901 731.339,548.989 731.339,549.099L731.339,557.405C731.339,557.603 731.537,557.405 731.339,557.405L714.728,557.405C714.529,557.405 714.728,557.603 714.728,557.405L714.728,549.099C714.728,548.989 714.64,548.901 714.529,548.901L697.521,548.901C697.411,548.901 697.323,548.989 697.323,549.099L697.323,557.405C697.323,557.603 697.521,557.405 697.323,557.405L680.712,557.405C680.513,557.405 680.712,557.603 680.712,557.405L680.712,549.099C680.712,548.989 680.624,548.901 680.513,548.901L663.506,548.901C663.395,548.901 663.307,548.989 663.307,549.099L663.307,557.405C663.307,557.603 663.506,557.405 663.307,557.405L646.696,557.405C646.498,557.405 646.696,557.603 646.696,557.405L646.696,549.099C646.696,548.989 646.608,548.901 646.498,548.901L629.49,548.901C629.379,548.901 629.291,548.989 629.291,549.099L629.291,557.405C629.291,557.603 629.49,557.405 629.291,557.405L612.68,557.405C612.482,557.405 612.68,557.603 612.68,557.405L612.68,549.099C612.68,548.989 612.592,548.901 612.482,548.901L595.474,548.901C595.363,548.901 595.276,548.989 595.276,549.099L595.276,557.405C595.276,557.603 595.474,557.405 595.276,557.405L578.665,557.405C578.466,557.405 578.665,557.603 578.665,557.405L578.665,549.099C578.665,548.989 578.577,548.901 578.466,548.901L561.458,548.901C561.348,548.901 561.26,548.989 561.26,549.099L561.26,557.405C561.26,557.603 561.458,557.405 561.26,557.405L544.649,557.405C544.45,557.405 544.649,557.603 544.649,557.405L544.649,549.099C544.649,548.989 544.561,548.901 544.45,548.901L527.443,548.901C527.332,548.901 527.244,548.989 527.244,549.099L527.244,557.405C527.244,557.603 527.443,557.405 527.244,557.405L510.633,557.405C510.435,557.405 510.633,557.603 510.633,557.405L510.633,549.099C510.633,548.989 510.545,548.901 510.435,548.901L493.427,548.901C493.316,548.901 493.228,548.989 493.228,549.099L493.228,557.405C493.228,557.603 493.427,557.405 493.228,557.405L476.617,557.405C476.419,557.405 476.617,557.603 476.617,557.405L476.617,549.099C476.617,548.989 476.529,548.901 476.419,548.901L459.411,548.901C459.3,548.901 459.213,548.989 459.213,549.099L459.213,557.405C459.213,557.603 459.411,557.405 459.213,557.405L442.602,557.405C442.403,557.405 442.602,557.603 442.602,557.405L442.602,549.099C442.602,548.989 442.514,548.901 442.403,548.901L425.395,548.901C425.285,548.901 425.197,548.989 425.197,549.099L425.197,557.405C425.197,557.603 425.395,557.405 425.197,557.405L408.586,557.405C408.387,557.405 408.586,557.603 408.586,557.405L408.586,549.099C408.586,548.989 408.498,548.901 408.387,548.901L391.38,548.901C391.269,548.901 391.181,548.989 391.181,549.099L391.181,557.405C391.181,557.603 391.38,557.405 391.181,557.405L374.57,557.405C374.372,557.405 374.57,557.603 374.57,557.405L374.57,549.099C374.57,548.989 374.482,548.901 374.372,548.901L357.364,548.901C357.253,548.901 357.165,548.989 357.165,549.099L357.165,557.405C357.165,557.603 357.364,557.405 357.165,557.405L340.554,557.405C340.356,557.405 340.554,557.603 340.554,557.405L340.554,549.099C340.554,548.989 340.466,548.901 340.356,548.901L323.348,548.901C323.237,548.901 323.15,548.989 323.15,549.099L323.15,557.405C323.15,557.603 323.348,557.405 323.15,557.405L306.539,557.405C306.34,557.405 306.539,557.603 306.539,557.405L306.539,549.099C306.539,548.989 306.451,548.901 306.34,548.901L289.332,548.901C289.222,548.901 289.134,548.989 289.134,549.099L289.134,557.405C289.134,557.603 289.332,557.405 289.134,557.405L272.523,557.405C272.324,557.405 272.523,557.603 272.523,557.405L272.523,549.099C272.523,548.989 272.435,548.901 272.324,548.901L255.317,548.901C255.206,548.901 255.118,548.989 255.118,549.099L255.118,557.405C255.118,557.603 255.317,557.405 255.118,557.405L238.507,557.405C238.309,557.405 238.507,557.603 238.507,557.405L238.507,549.099C238.507,548.989 238.419,548.901 238.309,548.901L221.301,548.901C221.19,548.901 221.102,548.989 221.102,549.099L221.102,557.405C221.102,557.603 221.301,557.405 221.102,557.405L204.491,557.405C204.293,557.405 204.491,557.603 204.491,557.405L204.491,549.099C204.491,548.989 204.403,548.901 204.293,548.901L187.285,548.901C187.174,548.901 187.087,548.989 187.087,549.099L187.087,557.405C187.087,557.603 187.285,557.405 187.087,557.405L170.476,557.405C170.277,557.405 170.476,557.603 170.476,557.405L170.476,549.099C170.476,548.989 170.388,548.901 170.277,548.901L153.269,548.901C153.159,548.901 153.071,548.989 153.071,549.099L153.071,557.405C153.071,557.603 153.269,557.405 153.071,557.405L136.46,557.405C136.261,557.405 136.46,557.603 136.46,557.405L136.46,549.099C136.46,548.989 136.372,548.901 136.261,548.901L119.254,548.901C119.143,548.901 119.055,548.989 119.055,549.099L119.055,557.405C119.055,557.603 119.254,557.405 119.055,557.405L102.444,557.405C102.246,557.405 102.444,557.603 102.444,557.405L102.444,549.099C102.444,548.989 102.356,548.901 102.246,548.901L85.238,548.901C85.127,548.901 85.039,548.989 85.039,549.099L85.039,557.405C85.039,557.603 85.238,557.405 85.039,557.405L68.428,557.405C68.23,557.405 68.428,557.603 68.428,557.405L68.428,549.099C68.428,548.989 68.34,548.901 68.23,548.901L28.545,548.901C28.434,548.901 28.346,548.989 28.346,549.099L28.346,578.863C28.346,578.974 28.434,579.061 28.545,579.061L36.85,579.061C37.049,579.061 36.85,578.863 36.85,579.061L36.85,595.672C36.85,595.871 37.049,595.672 36.85,595.672L28.545,595.672C28.434,595.672 28.346,595.76 28.346,595.871L28.346,612.879C28.346,612.989 28.434,613.077 28.545,613.077L36.85,613.077C37.049,613.077 36.85,612.879 36.85,613.077L36.85,629.688C36.85,629.887 37.049,629.688 36.85,629.688L28.545,629.688C28.434,629.688 28.346,629.776 28.346,629.887L28.346,646.894C28.346,647.005 28.434,647.093 28.545,647.093L36.85,647.093C37.049,647.093 36.85,646.894 36.85,647.093L36.85,663.704C36.85,663.902 37.049,663.704 36.85,663.704L28.545,663.704C28.434,663.704 28.346,663.792 28.346,663.902L28.346,693.666C28.346,693.777 28.434,693.865 28.545,693.865Z" style="fill:none;fill-rule:nonzero;stroke:black;stroke-width:0.4px;"/>
        </g>
        <g id="p-4">
            <path d="M37.049,536.145L68.031,536.145C68.23,536.145 68.031,535.946 68.031,536.145L68.031,544.45C68.031,544.561 68.119,544.649 68.23,544.649L85.238,544.649C85.348,544.649 85.436,544.561 85.436,544.45L85.436,536.145C85.436,535.946 85.238,536.145 85.436,536.145L102.047,536.145C102.246,536.145 102.047,535.946 102.047,536.145L102.047,544.45C102.047,544.561 102.135,544.649 102.246,544.649L119.254,544.649C119.364,544.649 119.452,544.561 119.452,544.45L119.452,536.145C119.452,535.946 119.254,536.145 119.452,536.145L136.063,536.145C136.261,536.145 136.063,535.946 136.063,536.145L136.063,544.45C136.063,544.561 136.151,544.649 136.261,544.649L153.269,544.649C153.38,544.649 153.468,544.561 153.468,544.45L153.468,536.145C153.468,535.946 153.269,536.145 153.468,536.145L170.079,536.145C170.277,536.145 170.079,535.946 170.079,536.145L170.079,544.45C170.079,544.561 170.167,544.649 170.277,544.649L187.285,544.649C187.396,544.649 187.483,544.561 187.483,544.45L187.483,536.145C187.483,535.946 187.285,536.145 187.483,536.145L204.094,536.145C204.293,536.145 204.094,535.946 204.094,536.145L204.094,544.45C204.094,544.561 204.182,544.649 204.293,544.649L221.301,544.649C221.411,544.649 221.499,544.561 221.499,544.45L221.499,536.145C221.499,535.946 221.301,536.145 221.499,536.145L238.11,536.145C238.309,536.145 238.11,535.946 238.11,536.145L238.11,544.45C238.11,544.561 238.198,544.649 238.309,544.649L255.317,544.649C255.427,544.649 255.515,544.561 255.515,544.45L255.515,536.145C255.515,535.946 255.317,536.145 255.515,536.145L272.126,536.145C272.324,536.145 272.126,535.946 272.126,536.145L272.126,544.45C272.126,544.561 272.214,544.649 272.324,544.649L289.332,544.649C289.443,544.649 289.531,544.561 289.531,544.45L289.531,536.145C289.531,535.946 289.332,536.145 289.531,536.145L306.142,536.145C306.34,536.145 306.142,535.946 306.142,536.145L306.142,544.45C306.142,544.561 306.23,544.649 306.34,544.649L323.348,544.649C323.459,544.649 323.546,544.561 323.546,544.45L323.546,536.145C323.546,535.946 323.348,536.145 323.546,536.145L340.157,536.145C340.356,536.145 340.157,535.946 340.157,536.145L340.157,544.45C340.157,544.561 340.245,544.649 340.356,544.649L357.364,544.649C357.474,544.649 357.562,544.561 357.562,544.45L357.562,536.145C357.562,535.946 357.364,536.145 357.562,536.145L374.173,536.145C374.372,536.145 374.173,535.946 374.173,536.145L374.173,544.45C374.173,544.561 374.261,544.649 374.372,544.649L391.38,544.649C391.49,544.649 391.578,544.561 391.578,544.45L391.578,536.145C391.578,535.946 391.38,536.145 391.578,536.145L408.189,536.145C408.387,536.145 408.189,535.946 408.189,536.145L408.189,544.45C408.189,544.561 408.277,544.649 408.387,544.649L425.395,544.649C425.506,544.649 425.594,544.561 425.594,544.45L425.594,536.145C425.594,535.946 425.395,536.145 425.594,536.145L442.205,536.145C442.403,536.145 442.205,535.946 442.205,536.145L442.205,544.45C442.205,544.561 442.293,544.649 442.403,544.649L459.411,544.649C459.522,544.649 459.609,544.561 459.609,544.45L459.609,536.145C459.609,535.946 459.411,536.145 459.609,536.145L476.22,536.145C476.419,536.145 476.22,535.946 476.22,536.145L476.22,544.45C476.22,544.561 476.308,544.649 476.419,544.649L493.427,544.649C493.537,544.649 493.625,544.561 493.625,544.45L493.625,536.145C493.625,535.946 493.427,536.145 493.625,536.145L510.236,536.145C510.435,536.145 510.236,535.946 510.236,536.145L510.236,544.45C510.236,544.561 510.324,544.649 510.435,544.649L527.443,544.649C527.553,544.649 527.641,544.561 527.641,544.45L527.641,536.145C527.641,535.946 527.443,536.145 527.641,536.145L544.252,536.145C544.45,536.145 544.252,535.946 544.252,536.145L544.252,544.45C544.252,544.561 544.34,544.649 544.45,544.649L561.458,544.649C561.569,544.649 561.657,544.561 561.657,544.45L561.657,536.145C561.657,535.946 561.458,536.145 561.657,536.145L578.268,536.145C578.466,536.145 578.268,535.946 578.268,536.145L578.268,544.45C578.268,544.561 578.356,544.649 578.466,544.649L595.474,544.649C595.585,544.649 595.672,544.561 595.672,544.45L595.672,536.145C595.672,535.946 595.474,536.145 595.672,536.145L612.283,536.145C612.482,536.145 612.283,535.946 612.283,536.145L612.283,544.45C612.283,544.561 612.371,544.649 612.482,544.649L629.49,544.649C629.6,544.649 629.688,544.561 629.688,544.45L629.688,536.145C629.688,535.946 629.49,536.145 629.688,536.145L646.299,536.145C646.498,536.145 646.299,535.946 646.299,536.145L646.299,544.45C646.299,544.561 646.387,544.649 646.498,544.649L663.506,544.649C663.616,544.649 663.704,544.561 663.704,544.45L663.704,536.145C663.704,535.946 663.506,536.145 663.704,536.145L680.315,536.145C680.513,536.145 680.315,535.946 680.315,536.145L680.315,544.45C680.315,544.561 680.403,544.649 680.513,544.649L697.521,544.649C697.632,544.649 697.72,544.561 697.72,544.45L697.72,536.145C697.72,535.946 697.521,536.145 697.72,536.145L714.331,536.145C714.529,536.145 714.331,535.946 714.331,536.145L714.331,544.45C714.331,544.561 714.419,544.649 714.529,544.649L731.537,544.649C731.648,544.649 731.735,544.561 731.735,544.45L731.735,536.145C731.735,535.946 731.537,536.145 731.735,536.145L762.718,536.145C762.829,536.145 762.917,536.057 762.917,535.946L762.917,516.302C762.917,516.104 762.718,516.302 762.917,516.302L771.222,516.302C771.333,516.302 771.42,516.214 771.42,516.104L771.42,499.096C771.42,498.986 771.333,498.898 771.222,498.898L762.917,498.898C762.718,498.898 762.917,499.096 762.917,498.898L762.917,482.287C762.917,482.088 762.718,482.287 762.917,482.287L771.222,482.287C771.333,482.287 771.42,482.199 771.42,482.088L771.42,465.08C771.42,464.97 771.333,464.882 771.222,464.882L762.917,464.882C762.718,464.882 762.917,465.08 762.917,464.882L762.917,448.271C762.917,448.072 762.718,448.271 762.917,448.271L771.222,448.271C771.333,448.271 771.42,448.183 771.42,448.072L771.42,431.065C771.42,430.954 771.333,430.866 771.222,430.866L762.917,430.866C762.718,430.866 762.917,431.065 762.917,430.866L762.917,414.255C762.917,414.057 762.718,414.255 762.917,414.255L771.222,414.255C771.333,414.255 771.42,414.167 771.42,414.057L771.42,397.049C771.42,396.938 771.333,396.85 771.222,396.85L762.917,396.85C762.718,396.85 762.917,397.049 762.917,396.85L762.917,380.239C762.917,380.041 762.718,380.239 762.917,380.239L771.222,380.239C771.333,380.239 771.42,380.151 771.42,380.041L771.42,363.033C771.42,362.923 771.333,362.835 771.222,362.835L762.917,362.835C762.718,362.835 762.917,363.033 762.917,362.835L762.917,346.224C762.917,346.025 762.718,346.224 762.917,346.224L771.222,346.224C771.333,346.224 771.42,346.136 771.42,346.025L771.42,329.017C771.42,328.907 771.333,328.819 771.222,328.819L762.917,328.819C762.718,328.819 762.917,329.017 762.917,328.819L762.917,312.208C762.917,312.009 762.718,312.208 762.917,312.208L771.222,312.208C771.333,312.208 771.42,312.12 771.42,312.009L771.42,295.002C771.42,294.891 771.333,294.803 771.222,294.803L762.917,294.803C762.718,294.803 762.917,295.002 762.917,294.803L762.917,278.192C762.917,277.994 762.718,278.192 762.917,278.192L771.222,278.192C771.333,278.192 771.42,278.104 771.42,277.994L771.42,260.986C771.42,260.875 771.333,260.787 771.222,260.787L762.917,260.787C762.718,260.787 762.917,260.986 762.917,260.787L762.917,244.176C762.917,243.978 762.718,244.176 762.917,244.176L771.222,244.176C771.333,244.176 771.42,244.089 771.42,243.978L771.42,226.97C771.42,226.86 771.333,226.772 771.222,226.772L762.917,226.772C762.718,226.772 762.917,226.97 762.917,226.772L762.917,210.161C762.917,209.962 762.718,210.161 762.917,210.161L771.222,210.161C771.333,210.161 771.42,210.073 771.42,209.962L771.42,192.954C771.42,192.844 771.333,192.756 771.222,192.756L762.917,192.756C762.718,192.756 762.917,192.954 762.917,192.756L762.917,176.145C762.917,175.946 762.718,176.145 762.917,176.145L771.222,176.145C771.333,176.145 771.42,176.057 771.42,175.946L771.42,158.939C771.42,158.828 771.333,158.74 771.222,158.74L762.917,158.74C762.718,158.74 762.917,158.939 762.917,158.74L762.917,142.129C762.917,141.931 762.718,142.129 762.917,142.129L771.222,142.129C771.333,142.129 771.42,142.041 771.42,141.931L771.42,124.923C771.42,124.812 771.333,124.724 771.222,124.724L762.917,124.724C762.718,124.724 762.917,124.923 762.917,124.724L762.917,108.113C762.917,107.915 762.718,108.113 762.917,108.113L771.222,108.113C771.333,108.113 771.42,108.026 771.42,107.915L771.42,90.907C771.42,90.797 771.333,90.709 771.222,90.709L762.917,90.709C762.718,90.709 762.917,90.907 762.917,90.709L762.917,74.098C762.917,73.899 762.718,74.098 762.917,74.098L771.222,74.098C771.333,74.098 771.42,74.01 771.42,73.899L771.42,56.891C771.42,56.781 771.333,56.693 771.222,56.693L762.917,56.693C762.718,56.693 762.917,56.891 762.917,56.693L762.917,37.049C762.917,36.938 762.829,36.85 762.718,36.85L731.735,36.85C731.537,36.85 731.735,37.049 731.735,36.85L731.735,28.545C731.735,28.434 731.648,28.346 731.537,28.346L714.529,28.346C714.419,28.346 714.331,28.434 714.331,28.545L714.331,36.85C714.331,37.049 714.529,36.85 714.331,36.85L697.72,36.85C697.521,36.85 697.72,37.049 697.72,36.85L697.72,28.545C697.72,28.434 697.632,28.346 697.521,28.346L680.513,28.346C680.403,28.346 680.315,28.434 680.315,28.545L680.315,36.85C680.315,37.049 680.513,36.85 680.315,36.85L663.704,36.85C663.506,36.85 663.704,37.049 663.704,36.85L663.704,28.545C663.704,28.434 663.616,28.346 663.506,28.346L646.498,28.346C646.387,28.346 646.299,28.434 646.299,28.545L646.299,36.85C646.299,37.049 646.498,36.85 646.299,36.85L629.688,36.85C629.49,36.85 629.688,37.049 629.688,36.85L629.688,28.545C629.688,28.434 629.6,28.346 629.49,28.346L612.482,28.346C612.371,28.346 612.283,28.434 612.283,28.545L612.283,36.85C612.283,37.049 612.482,36.85 612.283,36.85L595.672,36.85C595.474,36.85 595.672,37.049 595.672,36.85L595.672,28.545C595.672,28.434 595.585,28.346 595.474,28.346L578.466,28.346C578.356,28.346 578.268,28.434 578.268,28.545L578.268,36.85C578.268,37.049 578.466,36.85 578.268,36.85L561.657,36.85C561.458,36.85 561.657,37.049 561.657,36.85L561.657,28.545C561.657,28.434 561.569,28.346 561.458,28.346L544.45,28.346C544.34,28.346 544.252,28.434 544.252,28.545L544.252,36.85C544.252,37.049 544.45,36.85 544.252,36.85L527.641,36.85C527.443,36.85 527.641,37.049 527.641,36.85L527.641,28.545C527.641,28.434 527.553,28.346 527.443,28.346L510.435,28.346C510.324,28.346 510.236,28.434 510.236,28.545L510.236,36.85C510.236,37.049 510.435,36.85 510.236,36.85L493.625,36.85C493.427,36.85 493.625,37.049 493.625,36.85L493.625,28.545C493.625,28.434 493.537,28.346 493.427,28.346L476.419,28.346C476.308,28.346 476.22,28.434 476.22,28.545L476.22,36.85C476.22,37.049 476.419,36.85 476.22,36.85L459.609,36.85C459.411,36.85 459.609,37.049 459.609,36.85L459.609,28.545C459.609,28.434 459.522,28.346 459.411,28.346L442.403,28.346C442.293,28.346 442.205,28.434 442.205,28.545L442.205,36.85C442.205,37.049 442.403,36.85 442.205,36.85L425.594,36.85C425.395,36.85 425.594,37.049 425.594,36.85L425.594,28.545C425.594,28.434 425.506,28.346 425.395,28.346L408.387,28.346C408.277,28.346 408.189,28.434 408.189,28.545L408.189,36.85C408.189,37.049 408.387,36.85 408.189,36.85L391.578,36.85C391.38,36.85 391.578,37.049 391.578,36.85L391.578,28.545C391.578,28.434 391.49,28.346 391.38,28.346L374.372,28.346C374.261,28.346 374.173,28.434 374.173,28.545L374.173,36.85C374.173,37.049 374.372,36.85 374.173,36.85L357.562,36.85C357.364,36.85 357.562,37.049 357.562,36.85L357.562,28.545C357.562,28.434 357.474,28.346 357.364,28.346L340.356,28.346C340.245,28.346 340.157,28.434 340.157,28.545L340.157,36.85C340.157,37.049 340.356,36.85 340.157,36.85L323.546,36.85C323.348,36.85 323.546,37.049 323.546,36.85L323.546,28.545C323.546,28.434 323.459,28.346 323.348,28.346L306.34,28.346C306.23,28.346 306.142,28.434 306.142,28.545L306.142,36.85C306.142,37.049 306.34,36.85 306.142,36.85L289.531,36.85C289.332,36.85 289.531,37.049 289.531,36.85L289.531,28.545C289.531,28.434 289.443,28.346 289.332,28.346L272.324,28.346C272.214,28.346 272.126,28.434 272.126,28.545L272.126,36.85C272.126,37.049 272.324,36.85 272.126,36.85L255.515,36.85C255.317,36.85 255.515,37.049 255.515,36.85L255.515,28.545C255.515,28.434 255.427,28.346 255.317,28.346L238.309,28.346C238.198,28.346 238.11,28.434 238.11,28.545L238.11,36.85C238.11,37.049 238.309,36.85 238.11,36.85L221.499,36.85C221.301,36.85 221.499,37.049 221.499,36.85L221.499,28.545C221.499,28.434 221.411,28.346 221.301,28.346L204.293,28.346C204.182,28.346 204.094,28.434 204.094,28.545L204.094,36.85C204.094,37.049 204.293,36.85 204.094,36.85L187.483,36.85C187.285,36.85 187.483,37.049 187.483,36.85L187.483,28.545C187.483,28.434 187.396,28.346 187.285,28.346L170.277,28.346C170.167,28.346 170.079,28.434 170.079,28.545L170.079,36.85C170.079,37.049 170.277,36.85 170.079,36.85L153.468,36.85C153.269,36.85 153.468,37.049 153.468,36.85L153.468,28.545C153.468,28.434 153.38,28.346 153.269,28.346L136.261,28.346C136.151,28.346 136.063,28.434 136.063,28.545L136.063,36.85C136.063,37.049 136.261,36.85 136.063,36.85L119.452,36.85C119.254,36.85 119.452,37.049 119.452,36.85L119.452,28.545C119.452,28.434 119.364,28.346 119.254,28.346L102.246,28.346C102.135,28.346 102.047,28.434 102.047,28.545L102.047,36.85C102.047,37.049 102.246,36.85 102.047,36.85L85.436,36.85C85.238,36.85 85.436,37.049 85.436,36.85L85.436,28.545C85.436,28.434 85.348,28.346 85.238,28.346L68.23,28.346C68.119,28.346 68.031,28.434 68.031,28.545L68.031,36.85C68.031,37.049 68.23,36.85 68.031,36.85L37.049,36.85C36.938,36.85 36.85,36.938 36.85,37.049L36.85,56.693C36.85,56.891 37.049,56.693 36.85,56.693L28.545,56.693C28.434,56.693 28.346,56.781 28.346,56.891L28.346,73.899C28.346,74.01 28.434,74.098 28.545,74.098L36.85,74.098C37.049,74.098 36.85,73.899 36.85,74.098L36.85,90.709C36.85,90.907 37.049,90.709 36.85,90.709L28.545,90.709C28.434,90.709 28.346,90.797 28.346,90.907L28.346,107.915C28.346,108.026 28.434,108.113 28.545,108.113L36.85,108.113C37.049,108.113 36.85,107.915 36.85,108.113L36.85,124.724C36.85,124.923 37.049,124.724 36.85,124.724L28.545,124.724C28.434,124.724 28.346,124.812 28.346,124.923L28.346,141.931C28.346,142.041 28.434,142.129 28.545,142.129L36.85,142.129C37.049,142.129 36.85,141.931 36.85,142.129L36.85,158.74C36.85,158.939 37.049,158.74 36.85,158.74L28.545,158.74C28.434,158.74 28.346,158.828 28.346,158.939L28.346,175.946C28.346,176.057 28.434,176.145 28.545,176.145L36.85,176.145C37.049,176.145 36.85,175.946 36.85,176.145L36.85,192.756C36.85,192.954 37.049,192.756 36.85,192.756L28.545,192.756C28.434,192.756 28.346,192.844 28.346,192.954L28.346,209.962C28.346,210.073 28.434,210.161 28.545,210.161L36.85,210.161C37.049,210.161 36.85,209.962 36.85,210.161L36.85,226.772C36.85,226.97 37.049,226.772 36.85,226.772L28.545,226.772C28.434,226.772 28.346,226.86 28.346,226.97L28.346,243.978C28.346,244.089 28.434,244.176 28.545,244.176L36.85,244.176C37.049,244.176 36.85,243.978 36.85,244.176L36.85,260.787C36.85,260.986 37.049,260.787 36.85,260.787L28.545,260.787C28.434,260.787 28.346,260.875 28.346,260.986L28.346,277.994C28.346,278.104 28.434,278.192 28.545,278.192L36.85,278.192C37.049,278.192 36.85,277.994 36.85,278.192L36.85,294.803C36.85,295.002 37.049,294.803 36.85,294.803L28.545,294.803C28.434,294.803 28.346,294.891 28.346,295.002L28.346,312.009C28.346,312.12 28.434,312.208 28.545,312.208L36.85,312.208C37.049,312.208 36.85,312.009 36.85,312.208L36.85,328.819C36.85,329.017 37.049,328.819 36.85,328.819L28.545,328.819C28.434,328.819 28.346,328.907 28.346,329.017L28.346,346.025C28.346,346.136 28.434,346.224 28.545,346.224L36.85,346.224C37.049,346.224 36.85,346.025 36.85,346.224L36.85,362.835C36.85,363.033 37.049,362.835 36.85,362.835L28.545,362.835C28.434,362.835 28.346,362.923 28.346,363.033L28.346,380.041C28.346,380.151 28.434,380.239 28.545,380.239L36.85,380.239C37.049,380.239 36.85,380.041 36.85,380.239L36.85,396.85C36.85,397.049 37.049,396.85 36.85,396.85L28.545,396.85C28.434,396.85 28.346,396.938 28.346,397.049L28.346,414.057C28.346,414.167 28.434,414.255 28.545,414.255L36.85,414.255C37.049,414.255 36.85,414.057 36.85,414.255L36.85,430.866C36.85,431.065 37.049,430.866 36.85,430.866L28.545,430.866C28.434,430.866 28.346,430.954 28.346,431.065L28.346,448.072C28.346,448.183 28.434,448.271 28.545,448.271L36.85,448.271C37.049,448.271 36.85,448.072 36.85,448.271L36.85,464.882C36.85,465.08 37.049,464.882 36.85,464.882L28.545,464.882C28.434,464.882 28.346,464.97 28.346,465.08L28.346,482.088C28.346,482.199 28.434,482.287 28.545,482.287L36.85,482.287C37.049,482.287 36.85,482.088 36.85,482.287L36.85,498.898C36.85,499.096 37.049,498.898 36.85,498.898L28.545,498.898C28.434,498.898 28.346,498.986 28.346,499.096L28.346,516.104C28.346,516.214 28.434,516.302 28.545,516.302L36.85,516.302C37.049,516.302 36.85,516.104 36.85,516.302L36.85,535.946C36.85,536.057 36.938,536.145 37.049,536.145Z" style="fill:none;fill-rule:nonzero;stroke:black;stroke-width:0.4px;"/>
        </g>
        <g id="p-5">
            <path d="M784.375,536.145L815.357,536.145C815.556,536.145 815.357,535.946 815.357,536.145L815.357,544.45C815.357,544.561 815.445,544.649 815.556,544.649L832.564,544.649C832.674,544.649 832.762,544.561 832.762,544.45L832.762,536.145C832.762,535.946 832.564,536.145 832.762,536.145L849.373,536.145C849.572,536.145 849.373,535.946 849.373,536.145L849.373,544.45C849.373,544.561 849.461,544.649 849.572,544.649L866.58,544.649C866.69,544.649 866.778,544.561 866.778,544.45L866.778,536.145C866.778,535.946 866.58,536.145 866.778,536.145L883.389,536.145C883.587,536.145 883.389,535.946 883.389,536.145L883.389,544.45C883.389,544.561 883.477,544.649 883.587,544.649L900.595,544.649C900.706,544.649 900.794,544.561 900.794,544.45L900.794,536.145C900.794,535.946 900.595,536.145 900.794,536.145L917.405,536.145C917.603,536.145 917.405,535.946 917.405,536.145L917.405,544.45C917.405,544.561 917.493,544.649 917.603,544.649L934.611,544.649C934.722,544.649 934.809,544.561 934.809,544.45L934.809,536.145C934.809,535.946 934.611,536.145 934.809,536.145L951.42,536.145C951.619,536.145 951.42,535.946 951.42,536.145L951.42,544.45C951.42,544.561 951.508,544.649 951.619,544.649L968.627,544.649C968.737,544.649 968.825,544.561 968.825,544.45L968.825,536.145C968.825,535.946 968.627,536.145 968.825,536.145L985.436,536.145C985.635,536.145 985.436,535.946 985.436,536.145L985.436,544.45C985.436,544.561 985.524,544.649 985.635,544.649L1002.64,544.649C1002.75,544.649 1002.84,544.561 1002.84,544.45L1002.84,536.145C1002.84,535.946 1002.64,536.145 1002.84,536.145L1019.45,536.145C1019.65,536.145 1019.45,535.946 1019.45,536.145L1019.45,544.45C1019.45,544.561 1019.54,544.649 1019.65,544.649L1036.66,544.649C1036.77,544.649 1036.86,544.561 1036.86,544.45L1036.86,536.145C1036.86,535.946 1036.66,536.145 1036.86,536.145L1053.47,536.145C1053.67,536.145 1053.47,535.946 1053.47,536.145L1053.47,544.45C1053.47,544.561 1053.56,544.649 1053.67,544.649L1070.67,544.649C1070.79,544.649 1070.87,544.561 1070.87,544.45L1070.87,536.145C1070.87,535.946 1070.67,536.145 1070.87,536.145L1087.48,536.145C1087.68,536.145 1087.48,535.946 1087.48,536.145L1087.48,544.45C1087.48,544.561 1087.57,544.649 1087.68,544.649L1104.69,544.649C1104.8,544.649 1104.89,544.561 1104.89,544.45L1104.89,536.145C1104.89,535.946 1104.69,536.145 1104.89,536.145L1121.5,536.145C1121.7,536.145 1121.5,535.946 1121.5,536.145L1121.5,544.45C1121.5,544.561 1121.59,544.649 1121.7,544.649L1138.71,544.649C1138.82,544.649 1138.9,544.561 1138.9,544.45L1138.9,536.145C1138.9,535.946 1138.71,536.145 1138.9,536.145L1155.52,536.145C1155.71,536.145 1155.52,535.946 1155.52,536.145L1155.52,544.45C1155.52,544.561 1155.6,544.649 1155.71,544.649L1172.72,544.649C1172.83,544.649 1172.92,544.561 1172.92,544.45L1172.92,536.145C1172.92,535.946 1172.72,536.145 1172.92,536.145L1189.53,536.145C1189.73,536.145 1189.53,535.946 1189.53,536.145L1189.53,544.45C1189.53,544.561 1189.62,544.649 1189.73,544.649L1206.74,544.649C1206.85,544.649 1206.93,544.561 1206.93,544.45L1206.93,536.145C1206.93,535.946 1206.74,536.145 1206.93,536.145L1223.55,536.145C1223.75,536.145 1223.55,535.946 1223.55,536.145L1223.55,544.45C1223.55,544.561 1223.63,544.649 1223.75,544.649L1240.75,544.649C1240.86,544.649 1240.95,544.561 1240.95,544.45L1240.95,536.145C1240.95,535.946 1240.75,536.145 1240.95,536.145L1257.56,536.145C1257.76,536.145 1257.56,535.946 1257.56,536.145L1257.56,544.45C1257.56,544.561 1257.65,544.649 1257.76,544.649L1274.77,544.649C1274.88,544.649 1274.97,544.561 1274.97,544.45L1274.97,536.145C1274.97,535.946 1274.77,536.145 1274.97,536.145L1291.58,536.145C1291.78,536.145 1291.58,535.946 1291.58,536.145L1291.58,544.45C1291.58,544.561 1291.67,544.649 1291.78,544.649L1308.78,544.649C1308.89,544.649 1308.98,544.561 1308.98,544.45L1308.98,536.145C1308.98,535.946 1308.78,536.145 1308.98,536.145L1325.59,536.145C1325.79,536.145 1325.59,535.946 1325.59,536.145L1325.59,544.45C1325.59,544.561 1325.68,544.649 1325.79,544.649L1342.8,544.649C1342.91,544.649 1343,544.561 1343,544.45L1343,536.145C1343,535.946 1342.8,536.145 1343,536.145L1359.61,536.145C1359.81,536.145 1359.61,535.946 1359.61,536.145L1359.61,544.45C1359.61,544.561 1359.7,544.649 1359.81,544.649L1376.82,544.649C1376.93,544.649 1377.01,544.561 1377.01,544.45L1377.01,536.145C1377.01,535.946 1376.82,536.145 1377.01,536.145L1393.62,536.145C1393.82,536.145 1393.62,535.946 1393.62,536.145L1393.62,544.45C1393.62,544.561 1393.71,544.649 1393.82,544.649L1410.83,544.649C1410.94,544.649 1411.03,544.561 1411.03,544.45L1411.03,536.145C1411.03,535.946 1410.83,536.145 1411.03,536.145L1427.64,536.145C1427.84,536.145 1427.64,535.946 1427.64,536.145L1427.64,544.45C1427.64,544.561 1427.73,544.649 1427.84,544.649L1444.85,544.649C1444.96,544.649 1445.05,544.561 1445.05,544.45L1445.05,536.145C1445.05,535.946 1444.85,536.145 1445.05,536.145L1461.66,536.145C1461.86,536.145 1461.66,535.946 1461.66,536.145L1461.66,544.45C1461.66,544.561 1461.75,544.649 1461.86,544.649L1478.86,544.649C1478.97,544.649 1479.06,544.561 1479.06,544.45L1479.06,536.145C1479.06,535.946 1478.86,536.145 1479.06,536.145L1510.04,536.145C1510.15,536.145 1510.24,536.057 1510.24,535.946L1510.24,516.302C1510.24,516.104 1510.04,516.302 1510.24,516.302L1518.55,516.302C1518.66,516.302 1518.75,516.214 1518.75,516.104L1518.75,499.096C1518.75,498.986 1518.66,498.898 1518.55,498.898L1510.24,498.898C1510.04,498.898 1510.24,499.096 1510.24,498.898L1510.24,482.287C1510.24,482.088 1510.04,482.287 1510.24,482.287L1518.55,482.287C1518.66,482.287 1518.75,482.199 1518.75,482.088L1518.75,465.08C1518.75,464.97 1518.66,464.882 1518.55,464.882L1510.24,464.882C1510.04,464.882 1510.24,465.08 1510.24,464.882L1510.24,448.271C1510.24,448.072 1510.04,448.271 1510.24,448.271L1518.55,448.271C1518.66,448.271 1518.75,448.183 1518.75,448.072L1518.75,431.065C1518.75,430.954 1518.66,430.866 1518.55,430.866L1510.24,430.866C1510.04,430.866 1510.24,431.065 1510.24,430.866L1510.24,414.255C1510.24,414.057 1510.04,414.255 1510.24,414.255L1518.55,414.255C1518.66,414.255 1518.75,414.167 1518.75,414.057L1518.75,397.049C1518.75,396.938 1518.66,396.85 1518.55,396.85L1510.24,396.85C1510.04,396.85 1510.24,397.049 1510.24,396.85L1510.24,380.239C1510.24,380.041 1510.04,380.239 1510.24,380.239L1518.55,380.239C1518.66,380.239 1518.75,380.151 1518.75,380.041L1518.75,363.033C1518.75,362.923 1518.66,362.835 1518.55,362.835L1510.24,362.835C1510.04,362.835 1510.24,363.033 1510.24,362.835L1510.24,346.224C1510.24,346.025 1510.04,346.224 1510.24,346.224L1518.55,346.224C1518.66,346.224 1518.75,346.136 1518.75,346.025L1518.75,329.017C1518.75,328.907 1518.66,328.819 1518.55,328.819L1510.24,328.819C1510.04,328.819 1510.24,329.017 1510.24,328.819L1510.24,312.208C1510.24,312.009 1510.04,312.208 1510.24,312.208L1518.55,312.208C1518.66,312.208 1518.75,312.12 1518.75,312.009L1518.75,295.002C1518.75,294.891 1518.66,294.803 1518.55,294.803L1510.24,294.803C1510.04,294.803 1510.24,295.002 1510.24,294.803L1510.24,278.192C1510.24,277.994 1510.04,278.192 1510.24,278.192L1518.55,278.192C1518.66,278.192 1518.75,278.104 1518.75,277.994L1518.75,260.986C1518.75,260.875 1518.66,260.787 1518.55,260.787L1510.24,260.787C1510.04,260.787 1510.24,260.986 1510.24,260.787L1510.24,244.176C1510.24,243.978 1510.04,244.176 1510.24,244.176L1518.55,244.176C1518.66,244.176 1518.75,244.089 1518.75,243.978L1518.75,226.97C1518.75,226.86 1518.66,226.772 1518.55,226.772L1510.24,226.772C1510.04,226.772 1510.24,226.97 1510.24,226.772L1510.24,210.161C1510.24,209.962 1510.04,210.161 1510.24,210.161L1518.55,210.161C1518.66,210.161 1518.75,210.073 1518.75,209.962L1518.75,192.954C1518.75,192.844 1518.66,192.756 1518.55,192.756L1510.24,192.756C1510.04,192.756 1510.24,192.954 1510.24,192.756L1510.24,176.145C1510.24,175.946 1510.04,176.145 1510.24,176.145L1518.55,176.145C1518.66,176.145 1518.75,176.057 1518.75,175.946L1518.75,158.939C1518.75,158.828 1518.66,158.74 1518.55,158.74L1510.24,158.74C1510.04,158.74 1510.24,158.939 1510.24,158.74L1510.24,142.129C1510.24,141.931 1510.04,142.129 1510.24,142.129L1518.55,142.129C1518.66,142.129 1518.75,142.041 1518.75,141.931L1518.75,124.923C1518.75,124.812 1518.66,124.724 1518.55,124.724L1510.24,124.724C1510.04,124.724 1510.24,124.923 1510.24,124.724L1510.24,108.113C1510.24,107.915 1510.04,108.113 1510.24,108.113L1518.55,108.113C1518.66,108.113 1518.75,108.026 1518.75,107.915L1518.75,90.907C1518.75,90.797 1518.66,90.709 1518.55,90.709L1510.24,90.709C1510.04,90.709 1510.24,90.907 1510.24,90.709L1510.24,74.098C1510.24,73.899 1510.04,74.098 1510.24,74.098L1518.55,74.098C1518.66,74.098 1518.75,74.01 1518.75,73.899L1518.75,56.891C1518.75,56.781 1518.66,56.693 1518.55,56.693L1510.24,56.693C1510.04,56.693 1510.24,56.891 1510.24,56.693L1510.24,37.049C1510.24,36.938 1510.15,36.85 1510.04,36.85L1479.06,36.85C1478.86,36.85 1479.06,37.049 1479.06,36.85L1479.06,28.545C1479.06,28.434 1478.97,28.346 1478.86,28.346L1461.86,28.346C1461.75,28.346 1461.66,28.434 1461.66,28.545L1461.66,36.85C1461.66,37.049 1461.86,36.85 1461.66,36.85L1445.05,36.85C1444.85,36.85 1445.05,37.049 1445.05,36.85L1445.05,28.545C1445.05,28.434 1444.96,28.346 1444.85,28.346L1427.84,28.346C1427.73,28.346 1427.64,28.434 1427.64,28.545L1427.64,36.85C1427.64,37.049 1427.84,36.85 1427.64,36.85L1411.03,36.85C1410.83,36.85 1411.03,37.049 1411.03,36.85L1411.03,28.545C1411.03,28.434 1410.94,28.346 1410.83,28.346L1393.82,28.346C1393.71,28.346 1393.62,28.434 1393.62,28.545L1393.62,36.85C1393.62,37.049 1393.82,36.85 1393.62,36.85L1377.01,36.85C1376.82,36.85 1377.01,37.049 1377.01,36.85L1377.01,28.545C1377.01,28.434 1376.93,28.346 1376.82,28.346L1359.81,28.346C1359.7,28.346 1359.61,28.434 1359.61,28.545L1359.61,36.85C1359.61,37.049 1359.81,36.85 1359.61,36.85L1343,36.85C1342.8,36.85 1343,37.049 1343,36.85L1343,28.545C1343,28.434 1342.91,28.346 1342.8,28.346L1325.79,28.346C1325.68,28.346 1325.59,28.434 1325.59,28.545L1325.59,36.85C1325.59,37.049 1325.79,36.85 1325.59,36.85L1308.98,36.85C1308.78,36.85 1308.98,37.049 1308.98,36.85L1308.98,28.545C1308.98,28.434 1308.89,28.346 1308.78,28.346L1291.78,28.346C1291.67,28.346 1291.58,28.434 1291.58,28.545L1291.58,36.85C1291.58,37.049 1291.78,36.85 1291.58,36.85L1274.97,36.85C1274.77,36.85 1274.97,37.049 1274.97,36.85L1274.97,28.545C1274.97,28.434 1274.88,28.346 1274.77,28.346L1257.76,28.346C1257.65,28.346 1257.56,28.434 1257.56,28.545L1257.56,36.85C1257.56,37.049 1257.76,36.85 1257.56,36.85L1240.95,36.85C1240.75,36.85 1240.95,37.049 1240.95,36.85L1240.95,28.545C1240.95,28.434 1240.86,28.346 1240.75,28.346L1223.75,28.346C1223.63,28.346 1223.55,28.434 1223.55,28.545L1223.55,36.85C1223.55,37.049 1223.75,36.85 1223.55,36.85L1206.93,36.85C1206.74,36.85 1206.93,37.049 1206.93,36.85L1206.93,28.545C1206.93,28.434 1206.85,28.346 1206.74,28.346L1189.73,28.346C1189.62,28.346 1189.53,28.434 1189.53,28.545L1189.53,36.85C1189.53,37.049 1189.73,36.85 1189.53,36.85L1172.92,36.85C1172.72,36.85 1172.92,37.049 1172.92,36.85L1172.92,28.545C1172.92,28.434 1172.83,28.346 1172.72,28.346L1155.71,28.346C1155.6,28.346 1155.52,28.434 1155.52,28.545L1155.52,36.85C1155.52,37.049 1155.71,36.85 1155.52,36.85L1138.9,36.85C1138.71,36.85 1138.9,37.049 1138.9,36.85L1138.9,28.545C1138.9,28.434 1138.82,28.346 1138.71,28.346L1121.7,28.346C1121.59,28.346 1121.5,28.434 1121.5,28.545L1121.5,36.85C1121.5,37.049 1121.7,36.85 1121.5,36.85L1104.89,36.85C1104.69,36.85 1104.89,37.049 1104.89,36.85L1104.89,28.545C1104.89,28.434 1104.8,28.346 1104.69,28.346L1087.68,28.346C1087.57,28.346 1087.48,28.434 1087.48,28.545L1087.48,36.85C1087.48,37.049 1087.68,36.85 1087.48,36.85L1070.87,36.85C1070.67,36.85 1070.87,37.049 1070.87,36.85L1070.87,28.545C1070.87,28.434 1070.79,28.346 1070.67,28.346L1053.67,28.346C1053.56,28.346 1053.47,28.434 1053.47,28.545L1053.47,36.85C1053.47,37.049 1053.67,36.85 1053.47,36.85L1036.86,36.85C1036.66,36.85 1036.86,37.049 1036.86,36.85L1036.86,28.545C1036.86,28.434 1036.77,28.346 1036.66,28.346L1019.65,28.346C1019.54,28.346 1019.45,28.434 1019.45,28.545L1019.45,36.85C1019.45,37.049 1019.65,36.85 1019.45,36.85L1002.84,36.85C1002.64,36.85 1002.84,37.049 1002.84,36.85L1002.84,28.545C1002.84,28.434 1002.75,28.346 1002.64,28.346L985.635,28.346C985.524,28.346 985.436,28.434 985.436,28.545L985.436,36.85C985.436,37.049 985.635,36.85 985.436,36.85L968.825,36.85C968.627,36.85 968.825,37.049 968.825,36.85L968.825,28.545C968.825,28.434 968.737,28.346 968.627,28.346L951.619,28.346C951.508,28.346 951.42,28.434 951.42,28.545L951.42,36.85C951.42,37.049 951.619,36.85 951.42,36.85L934.809,36.85C934.611,36.85 934.809,37.049 934.809,36.85L934.809,28.545C934.809,28.434 934.722,28.346 934.611,28.346L917.603,28.346C917.493,28.346 917.405,28.434 917.405,28.545L917.405,36.85C917.405,37.049 917.603,36.85 917.405,36.85L900.794,36.85C900.595,36.85 900.794,37.049 900.794,36.85L900.794,28.545C900.794,28.434 900.706,28.346 900.595,28.346L883.587,28.346C883.477,28.346 883.389,28.434 883.389,28.545L883.389,36.85C883.389,37.049 883.587,36.85 883.389,36.85L866.778,36.85C866.58,36.85 866.778,37.049 866.778,36.85L866.778,28.545C866.778,28.434 866.69,28.346 866.58,28.346L849.572,28.346C849.461,28.346 849.373,28.434 849.373,28.545L849.373,36.85C849.373,37.049 849.572,36.85 849.373,36.85L832.762,36.85C832.564,36.85 832.762,37.049 832.762,36.85L832.762,28.545C832.762,28.434 832.674,28.346 832.564,28.346L815.556,28.346C815.445,28.346 815.357,28.434 815.357,28.545L815.357,36.85C815.357,37.049 815.556,36.85 815.357,36.85L784.375,36.85C784.264,36.85 784.176,36.938 784.176,37.049L784.176,56.693C784.176,56.891 784.375,56.693 784.176,56.693L775.871,56.693C775.76,56.693 775.672,56.781 775.672,56.891L775.672,73.899C775.672,74.01 775.76,74.098 775.871,74.098L784.176,74.098C784.375,74.098 784.176,73.899 784.176,74.098L784.176,90.709C784.176,90.907 784.375,90.709 784.176,90.709L775.871,90.709C775.76,90.709 775.672,90.797 775.672,90.907L775.672,107.915C775.672,108.026 775.76,108.113 775.871,108.113L784.176,108.113C784.375,108.113 784.176,107.915 784.176,108.113L784.176,124.724C784.176,124.923 784.375,124.724 784.176,124.724L775.871,124.724C775.76,124.724 775.672,124.812 775.672,124.923L775.672,141.931C775.672,142.041 775.76,142.129 775.871,142.129L784.176,142.129C784.375,142.129 784.176,141.931 784.176,142.129L784.176,158.74C784.176,158.939 784.375,158.74 784.176,158.74L775.871,158.74C775.76,158.74 775.672,158.828 775.672,158.939L775.672,175.946C775.672,176.057 775.76,176.145 775.871,176.145L784.176,176.145C784.375,176.145 784.176,175.946 784.176,176.145L784.176,192.756C784.176,192.954 784.375,192.756 784.176,192.756L775.871,192.756C775.76,192.756 775.672,192.844 775.672,192.954L775.672,209.962C775.672,210.073 775.76,210.161 775.871,210.161L784.176,210.161C784.375,210.161 784.176,209.962 784.176,210.161L784.176,226.772C784.176,226.97 784.375,226.772 784.176,226.772L775.871,226.772C775.76,226.772 775.672,226.86 775.672,226.97L775.672,243.978C775.672,244.089 775.76,244.176 775.871,244.176L784.176,244.176C784.375,244.176 784.176,243.978 784.176,244.176L784.176,260.787C784.176,260.986 784.375,260.787 784.176,260.787L775.871,260.787C775.76,260.787 775.672,260.875 775.672,260.986L775.672,277.994C775.672,278.104 775.76,278.192 775.871,278.192L784.176,278.192C784.375,278.192 784.176,277.994 784.176,278.192L784.176,294.803C784.176,295.002 784.375,294.803 784.176,294.803L775.871,294.803C775.76,294.803 775.672,294.891 775.672,295.002L775.672,312.009C775.672,312.12 775.76,312.208 775.871,312.208L784.176,312.208C784.375,312.208 784.176,312.009 784.176,312.208L784.176,328.819C784.176,329.017 784.375,328.819 784.176,328.819L775.871,328.819C775.76,328.819 775.672,328.907 775.672,329.017L775.672,346.025C775.672,346.136 775.76,346.224 775.871,346.224L784.176,346.224C784.375,346.224 784.176,346.025 784.176,346.224L784.176,362.835C784.176,363.033 784.375,362.835 784.176,362.835L775.871,362.835C775.76,362.835 775.672,362.923 775.672,363.033L775.672,380.041C775.672,380.151 775.76,380.239 775.871,380.239L784.176,380.239C784.375,380.239 784.176,380.041 784.176,380.239L784.176,396.85C784.176,397.049 784.375,396.85 784.176,396.85L775.871,396.85C775.76,396.85 775.672,396.938 775.672,397.049L775.672,414.057C775.672,414.167 775.76,414.255 775.871,414.255L784.176,414.255C784.375,414.255 784.176,414.057 784.176,414.255L784.176,430.866C784.176,431.065 784.375,430.866 784.176,430.866L775.871,430.866C775.76,430.866 775.672,430.954 775.672,431.065L775.672,448.072C775.672,448.183 775.76,448.271 775.871,448.271L784.176,448.271C784.375,448.271 784.176,448.072 784.176,448.271L784.176,464.882C784.176,465.08 784.375,464.882 784.176,464.882L775.871,464.882C775.76,464.882 775.672,464.97 775.672,465.08L775.672,482.088C775.672,482.199 775.76,482.287 775.871,482.287L784.176,482.287C784.375,482.287 784.176,482.088 784.176,482.287L784.176,498.898C784.176,499.096 784.375,498.898 784.176,498.898L775.871,498.898C775.76,498.898 775.672,498.986 775.672,499.096L775.672,516.104C775.672,516.214 775.76,516.302 775.871,516.302L784.176,516.302C784.375,516.302 784.176,516.104 784.176,516.302L784.176,535.946C784.176,536.057 784.264,536.145 784.375,536.145Z" style="fill:none;fill-rule:nonzero;stroke:black;stroke-width:0.4px;"/>
        </g>
        <g transform="matrix(1.07098,0,0,1.12084,-1.92013,-16.1497)">
            <rect x="71.575" y="78.723" width="606.11" height="379.357" style="fill:none;stroke:black;stroke-width:0.91px;stroke-miterlimit:1.5;"/>
        </g>
        <g transform="matrix(1.03871,0,0,1.02463,-48.9493,-12.1035)">
            <path d="M1468.68,128.174C1468.68,106.198 1451.08,88.357 1429.4,88.357L876.196,88.357C854.518,88.357 836.918,106.198 836.918,128.174L836.918,451.548C836.918,473.524 854.518,491.365 876.196,491.365L1429.4,491.365C1451.08,491.365 1468.68,473.524 1468.68,451.548L1468.68,128.174Z" style="fill:none;stroke:black;stroke-width:0.97px;stroke-miterlimit:1.5;"/>
        </g>
    </g>
</svg>
