<?xml version="1.0" encoding="UTF-8" standalone="no"?>
<!DOCTYPE svg PUBLIC "-//W3C//DTD SVG 1.1//EN" "http://www.w3.org/Graphics/SVG/1.1/DTD/svg11.dtd">
<svg width="590px" height="171px" version="1.1" xmlns="http://www.w3.org/2000/svg" xmlns:xlink="http://www.w3.org/1999/xlink" xml:space="preserve" xmlns:serif="http://www.serif.com/" style="fill-rule:evenodd;clip-rule:evenodd;">
    <g transform="matrix(1.33333,0,0,1.33333,0,0)">
        <g id="Clone2D002" transform="matrix(1,0,0,-1,0,0)">
            <g id="Clone2D002_w0000" transform="matrix(1,0,0,1,-0.615637,68.0785)">
                <path d="M85.039,-68.031L442.205,-68.031L442.205,-195.591L0,-195.591L0,-102.047L85.039,-102.047L85.039,-68.031" style="fill:none;stroke:black;stroke-width:0.99px;"/>
            </g>
            <g id="circle3" transform="matrix(1,0,0,1,-0.615637,68.0785)">
                <circle cx="14.173" cy="-182.835" r="4.252" style="fill:none;stroke:black;stroke-width:0.99px;"/>
            </g>
            <g id="circle5" transform="matrix(1,0,0,1,-0.615637,68.0785)">
                <circle cx="14.173" cy="-114.803" r="4.252" style="fill:none;stroke:black;stroke-width:0.99px;"/>
            </g>
            <g id="circle7" transform="matrix(1,0,0,1,-0.615637,68.0785)">
                <circle cx="428.031" cy="-114.803" r="4.252" style="fill:none;stroke:black;stroke-width:0.99px;"/>
            </g>
            <g id="circle9" transform="matrix(1,0,0,1,-0.615637,68.0785)">
                <circle cx="428.031" cy="-182.835" r="4.252" style="fill:none;stroke:black;stroke-width:0.99px;"/>
            </g>
            <g id="circle11" transform="matrix(1,0,0,1,-0.615637,68.0785)">
                <circle cx="394.016" cy="-90.709" r="4.252" style="fill:none;stroke:black;stroke-width:0.99px;"/>
            </g>
            <g id="circle13" transform="matrix(1,0,0,1,-0.615637,68.0785)">
                <circle cx="394.016" cy="-113.386" r="4.252" style="fill:none;stroke:black;stroke-width:0.99px;"/>
            </g>
            <g id="circle15" transform="matrix(1,0,0,1,-0.615637,68.0785)">
                <circle cx="110.551" cy="-90.709" r="4.252" style="fill:none;stroke:black;stroke-width:0.99px;"/>
            </g>
            <g id="circle17" transform="matrix(1,0,0,1,-0.615637,68.0785)">
                <circle cx="110.551" cy="-113.386" r="4.252" style="fill:none;stroke:black;stroke-width:0.99px;"/>
            </g>
            <g id="circle19" transform="matrix(1,0,0,1,-0.615637,68.0785)">
                <circle cx="196.026" cy="-182.835" r="4.252" style="fill:none;stroke:black;stroke-width:0.99px;"/>
            </g>
            <g id="circle21" transform="matrix(1,0,0,1,-0.615637,68.0785)">
                <circle cx="299.491" cy="-182.835" r="4.252" style="fill:none;stroke:black;stroke-width:0.99px;"/>
            </g>
            <g id="circle23" transform="matrix(1,0,0,1,-0.615637,68.0785)">
                <circle cx="424.289" cy="-90.858" r="5.669" style="fill:none;stroke:black;stroke-width:0.99px;"/>
            </g>
            <g id="Clone2D002_w0012" transform="matrix(1,0,0,1,-0.615637,68.0785)">
                <path d="M188.231,-126.283C184.499,-126.283 181.428,-129.355 181.428,-133.087C181.428,-136.819 184.499,-139.89 188.231,-139.89L307.286,-139.89C311.018,-139.89 314.089,-136.819 314.089,-133.087C314.089,-129.355 311.018,-126.283 307.286,-126.283L188.231,-126.283" style="fill:none;stroke:black;stroke-width:0.99px;"/>
            </g>
        </g>
    </g>
</svg>
