<?xml version="1.0" encoding="UTF-8" standalone="no"?>
<!DOCTYPE svg PUBLIC "-//W3C//DTD SVG 1.1//EN" "http://www.w3.org/Graphics/SVG/1.1/DTD/svg11.dtd">
<svg width="624px" height="159px" version="1.1" xmlns="http://www.w3.org/2000/svg" xmlns:xlink="http://www.w3.org/1999/xlink" xml:space="preserve" xmlns:serif="http://www.serif.com/" style="fill-rule:evenodd;clip-rule:evenodd;">
    <g transform="matrix(1.33333,0,0,1.33333,0,0)">
        <g id="cut">
            <path id="Sketch048_w0000" d="M0,0L467.717,0L467.717,119.055L0,119.055L0,0" style="fill:none;stroke:rgb(255,0,0);stroke-width:0.28px;"/>
            <g id="circle3" transform="matrix(1,0,0,-1,0.0105565,119.224)">
                <circle cx="412.441" cy="73.701" r="15.423" style="fill:none;stroke:rgb(255,0,0);stroke-width:0.34px;"/>
            </g>
            <path id="Sketch048_w0002" d="M14.457,101.764L14.457,90.992C14.457,89.437 15.736,88.157 17.291,88.157L42.236,88.157C43.791,88.157 45.071,89.437 45.071,90.992L45.071,101.764C45.071,103.319 43.791,104.598 42.236,104.598L17.291,104.598C15.736,104.598 14.457,103.319 14.457,101.764" style="fill:none;stroke:rgb(255,0,0);stroke-width:0.28px;"/>
            <path id="Sketch048_w0003" d="M57.26,101.764L57.26,90.992C57.26,89.437 58.539,88.157 60.094,88.157L85.039,88.157C86.594,88.157 87.874,89.437 87.874,90.992L87.874,101.764C87.874,103.319 86.594,104.598 85.039,104.598L60.094,104.598C58.539,104.598 57.26,103.319 57.26,101.764" style="fill:none;stroke:rgb(255,0,0);stroke-width:0.28px;"/>
            <path id="Sketch048_w0004" d="M100.063,101.764L100.063,90.992C100.063,89.437 101.343,88.157 102.898,88.157L127.843,88.157C129.398,88.157 130.677,89.437 130.677,90.992L130.677,101.764C130.677,103.319 129.398,104.598 127.843,104.598L102.898,104.598C101.343,104.598 100.063,103.319 100.063,101.764" style="fill:none;stroke:rgb(255,0,0);stroke-width:0.28px;"/>
            <path id="Sketch048_w0005" d="M142.866,101.764L142.866,90.992C142.866,89.437 144.146,88.157 145.701,88.157L170.646,88.157C172.201,88.157 173.48,89.437 173.48,90.992L173.48,101.764C173.48,103.319 172.201,104.598 170.646,104.598L145.701,104.598C144.146,104.598 142.866,103.319 142.866,101.764" style="fill:none;stroke:rgb(255,0,0);stroke-width:0.28px;"/>
            <path id="Sketch048_w0006" d="M185.669,101.764L185.669,90.992C185.669,89.437 186.949,88.157 188.504,88.157L213.449,88.157C215.004,88.157 216.283,89.437 216.283,90.992L216.283,101.764C216.283,103.319 215.004,104.598 213.449,104.598L188.504,104.598C186.949,104.598 185.669,103.319 185.669,101.764" style="fill:none;stroke:rgb(255,0,0);stroke-width:0.28px;"/>
            <path id="Sketch048_w0007" d="M228.472,101.764L228.472,90.992C228.472,89.437 229.752,88.157 231.307,88.157L256.252,88.157C257.807,88.157 259.087,89.437 259.087,90.992L259.087,101.764C259.087,103.319 257.807,104.598 256.252,104.598L231.307,104.598C229.752,104.598 228.472,103.319 228.472,101.764" style="fill:none;stroke:rgb(255,0,0);stroke-width:0.28px;"/>
            <path id="Sketch048_w0008" d="M271.276,101.764L271.276,90.992C271.276,89.437 272.555,88.157 274.11,88.157L299.055,88.157C300.61,88.157 301.89,89.437 301.89,90.992L301.89,101.764C301.89,103.319 300.61,104.598 299.055,104.598L274.11,104.598C272.555,104.598 271.276,103.319 271.276,101.764" style="fill:none;stroke:rgb(255,0,0);stroke-width:0.28px;"/>
            <path id="Sketch048_w0009" d="M314.079,101.764L314.079,90.992C314.079,89.437 315.358,88.157 316.913,88.157L341.858,88.157C343.413,88.157 344.693,89.437 344.693,90.992L344.693,101.764C344.693,103.319 343.413,104.598 341.858,104.598L316.913,104.598C315.358,104.598 314.079,103.319 314.079,101.764" style="fill:none;stroke:rgb(255,0,0);stroke-width:0.28px;"/>
            <path id="Sketch048_w0010" d="M368.787,101.764L368.787,90.992C368.787,89.437 370.067,88.157 371.622,88.157L396.567,88.157C398.122,88.157 399.402,89.437 399.402,90.992L399.402,101.764C399.402,103.319 398.122,104.598 396.567,104.598L371.622,104.598C370.067,104.598 368.787,103.319 368.787,101.764" style="fill:none;stroke:rgb(255,0,0);stroke-width:0.28px;"/>
            <path id="Sketch048_w0011" d="M423.496,101.764L423.496,90.992C423.496,89.437 424.776,88.157 426.331,88.157L451.276,88.157C452.831,88.157 454.11,89.437 454.11,90.992L454.11,101.764C454.11,103.319 452.831,104.598 451.276,104.598L426.331,104.598C424.776,104.598 423.496,103.319 423.496,101.764" style="fill:none;stroke:rgb(255,0,0);stroke-width:0.28px;"/>
            <path id="Sketch048_w0012" d="M15.874,39.118L15.874,28.346C15.874,26.791 17.154,25.512 18.709,25.512L43.654,25.512C45.209,25.512 46.488,26.791 46.488,28.346L46.488,39.118C46.488,40.673 45.209,41.953 43.654,41.953L18.709,41.953C17.154,41.953 15.874,40.673 15.874,39.118" style="fill:none;stroke:rgb(255,0,0);stroke-width:0.28px;"/>
            <path id="Sketch048_w0013" d="M66.614,7.087L344.409,7.087L344.409,77.953L66.614,77.953L66.614,7.087" style="fill:none;stroke:rgb(255,0,0);stroke-width:0.28px;"/>
        </g>
    </g>
</svg>
