<?xml version="1.0" encoding="UTF-8" standalone="no"?>
<!DOCTYPE svg PUBLIC "-//W3C//DTD SVG 1.1//EN" "http://www.w3.org/Graphics/SVG/1.1/DTD/svg11.dtd">
<svg width="624px" height="159px" version="1.1" xmlns="http://www.w3.org/2000/svg" xmlns:xlink="http://www.w3.org/1999/xlink" xml:space="preserve" xmlns:serif="http://www.serif.com/" style="fill-rule:evenodd;clip-rule:evenodd;">
    <g transform="matrix(1.33333,0,0,1.33333,0,0)">
        <g id="cut">
            <path id="Sketch048_w0000" d="M0,0L467.717,0L467.717,119.055L0,119.055L0,0" style="fill:none;stroke:rgb(255,0,0);stroke-width:0.28px;"/>
            <g id="circle3" transform="matrix(1,0,0,-1,-0.000316604,118.935)">
                <circle cx="412.441" cy="73.701" r="15.423" style="fill:none;stroke:rgb(255,0,0);stroke-width:0.34px;"/>
            </g>
            <path id="Sketch048_w0002" d="M14.457,101.764L14.457,90.992C14.457,89.437 15.736,88.157 17.291,88.157L42.236,88.157C43.791,88.157 45.071,89.437 45.071,90.992L45.071,101.764C45.071,103.319 43.791,104.598 42.236,104.598L17.291,104.598C15.736,104.598 14.457,103.319 14.457,101.764" style="fill:none;stroke:rgb(255,0,0);stroke-width:0.28px;"/>
            <path id="Sketch048_w0003" d="M57.26,101.764L57.26,90.992C57.26,89.437 58.539,88.157 60.094,88.157L85.039,88.157C86.594,88.157 87.874,89.437 87.874,90.992L87.874,101.764C87.874,103.319 86.594,104.598 85.039,104.598L60.094,104.598C58.539,104.598 57.26,103.319 57.26,101.764" style="fill:none;stroke:rgb(255,0,0);stroke-width:0.28px;"/>
            <path id="Sketch048_w0004" d="M100.063,101.764L100.063,90.992C100.063,89.437 101.343,88.157 102.898,88.157L127.843,88.157C129.398,88.157 130.677,89.437 130.677,90.992L130.677,101.764C130.677,103.319 129.398,104.598 127.843,104.598L102.898,104.598C101.343,104.598 100.063,103.319 100.063,101.764" style="fill:none;stroke:rgb(255,0,0);stroke-width:0.28px;"/>
            <path id="Sketch048_w0005" d="M142.866,101.764L142.866,90.992C142.866,89.437 144.146,88.157 145.701,88.157L170.646,88.157C172.201,88.157 173.48,89.437 173.48,90.992L173.48,101.764C173.48,103.319 172.201,104.598 170.646,104.598L145.701,104.598C144.146,104.598 142.866,103.319 142.866,101.764" style="fill:none;stroke:rgb(255,0,0);stroke-width:0.28px;"/>
            <path id="Sketch048_w0006" d="M185.669,101.764L185.669,90.992C185.669,89.437 186.949,88.157 188.504,88.157L213.449,88.157C215.004,88.157 216.283,89.437 216.283,90.992L216.283,101.764C216.283,103.319 215.004,104.598 213.449,104.598L188.504,104.598C186.949,104.598 185.669,103.319 185.669,101.764" style="fill:none;stroke:rgb(255,0,0);stroke-width:0.28px;"/>
            <path id="Sketch048_w0007" d="M228.472,101.764L228.472,90.992C228.472,89.437 229.752,88.157 231.307,88.157L256.252,88.157C257.807,88.157 259.087,89.437 259.087,90.992L259.087,101.764C259.087,103.319 257.807,104.598 256.252,104.598L231.307,104.598C229.752,104.598 228.472,103.319 228.472,101.764" style="fill:none;stroke:rgb(255,0,0);stroke-width:0.28px;"/>
            <path id="Sketch048_w0008" d="M271.276,101.764L271.276,90.992C271.276,89.437 272.555,88.157 274.11,88.157L299.055,88.157C300.61,88.157 301.89,89.437 301.89,90.992L301.89,101.764C301.89,103.319 300.61,104.598 299.055,104.598L274.11,104.598C272.555,104.598 271.276,103.319 271.276,101.764" style="fill:none;stroke:rgb(255,0,0);stroke-width:0.28px;"/>
            <path id="Sketch048_w0009" d="M314.079,101.764L314.079,90.992C314.079,89.437 315.358,88.157 316.913,88.157L341.858,88.157C343.413,88.157 344.693,89.437 344.693,90.992L344.693,101.764C344.693,103.319 343.413,104.598 341.858,104.598L316.913,104.598C315.358,104.598 314.079,103.319 314.079,101.764" style="fill:none;stroke:rgb(255,0,0);stroke-width:0.28px;"/>
            <path id="Sketch048_w0010" d="M368.787,101.764L368.787,90.992C368.787,89.437 370.067,88.157 371.622,88.157L396.567,88.157C398.122,88.157 399.402,89.437 399.402,90.992L399.402,101.764C399.402,103.319 398.122,104.598 396.567,104.598L371.622,104.598C370.067,104.598 368.787,103.319 368.787,101.764" style="fill:none;stroke:rgb(255,0,0);stroke-width:0.28px;"/>
            <path id="Sketch048_w0011" d="M423.496,101.764L423.496,90.992C423.496,89.437 424.776,88.157 426.331,88.157L451.276,88.157C452.831,88.157 454.11,89.437 454.11,90.992L454.11,101.764C454.11,103.319 452.831,104.598 451.276,104.598L426.331,104.598C424.776,104.598 423.496,103.319 423.496,101.764" style="fill:none;stroke:rgb(255,0,0);stroke-width:0.28px;"/>
            <path id="Sketch048_w0012" d="M15.874,39.118L15.874,28.346C15.874,26.791 17.154,25.512 18.709,25.512L43.654,25.512C45.209,25.512 46.488,26.791 46.488,28.346L46.488,39.118C46.488,40.673 45.209,41.953 43.654,41.953L18.709,41.953C17.154,41.953 15.874,40.673 15.874,39.118" style="fill:none;stroke:rgb(255,0,0);stroke-width:0.28px;"/>
            <path id="Sketch048_w0013" d="M66.614,7.087L344.409,7.087L344.409,77.953L66.614,77.953L66.614,7.087" style="fill:none;stroke:rgb(255,0,0);stroke-width:0.28px;"/>
        </g>
        <g id="text--path-" serif:id="text (path)">
            <g id="text36-2-7-5-0-1-3-3">
                <path id="path935" d="M354.169,10.563L352.358,10.563L351.129,8.451L349.901,10.563L348.09,10.563L350.229,7.123L348.308,4.029L350.074,4.029L351.129,5.831L352.185,4.029L353.95,4.029L352.021,7.123L354.169,10.563Z" style="fill-rule:nonzero;"/>
                <path id="path937" d="M359.931,6.067C359.931,6.231 359.907,6.428 359.858,6.659C359.816,6.889 359.719,7.111 359.567,7.323C359.415,7.529 359.191,7.705 358.894,7.851C358.602,7.996 358.211,8.069 357.72,8.069L356.264,8.069L356.264,10.563L354.717,10.563L354.717,4.029L357.956,4.029C358.241,4.029 358.505,4.074 358.748,4.165C358.991,4.25 359.2,4.378 359.376,4.548C359.552,4.717 359.688,4.93 359.785,5.185C359.883,5.439 359.931,5.734 359.931,6.067L359.931,6.067ZM358.393,6.04C358.393,5.87 358.378,5.737 358.348,5.64C358.323,5.537 358.278,5.461 358.211,5.412C358.15,5.358 358.072,5.324 357.975,5.312C357.877,5.294 357.762,5.285 357.629,5.285L356.264,5.285L356.264,6.868L357.711,6.868C357.832,6.868 357.935,6.859 358.02,6.841C358.111,6.817 358.184,6.777 358.238,6.723C358.293,6.662 358.332,6.577 358.357,6.468C358.381,6.359 358.393,6.216 358.393,6.04L358.393,6.04Z" style="fill-rule:nonzero;"/>
                <path id="path939" d="M366.374,7.305C366.374,7.887 366.31,8.385 366.182,8.797C366.055,9.21 365.858,9.547 365.591,9.807C365.33,10.068 364.999,10.259 364.599,10.381C364.205,10.502 363.735,10.563 363.189,10.563L360.795,10.563L360.795,4.029L363.543,4.029C364.059,4.029 364.496,4.105 364.854,4.256C365.212,4.402 365.503,4.617 365.727,4.903C365.952,5.182 366.116,5.524 366.219,5.931C366.322,6.331 366.374,6.789 366.374,7.305L366.374,7.305ZM364.827,7.187C364.827,6.817 364.796,6.51 364.736,6.268C364.681,6.019 364.596,5.825 364.481,5.685C364.365,5.539 364.226,5.439 364.062,5.385C363.898,5.324 363.707,5.294 363.489,5.294L362.333,5.294L362.333,9.28L363.416,9.28C363.689,9.28 363.917,9.246 364.099,9.18C364.281,9.107 364.423,8.988 364.526,8.825C364.635,8.661 364.711,8.445 364.754,8.179C364.802,7.912 364.827,7.581 364.827,7.187L364.827,7.187Z" style="fill-rule:nonzero;"/>
                <path id="path941" d="M373.075,10.563L371.464,10.563C371.367,10.417 371.3,10.247 371.264,10.053C371.234,9.853 371.213,9.65 371.2,9.443C371.188,9.237 371.173,9.034 371.155,8.834C371.137,8.633 371.094,8.458 371.027,8.306C370.997,8.233 370.943,8.175 370.864,8.133C370.791,8.091 370.676,8.069 370.518,8.069L369.007,8.069L369.007,10.563L367.46,10.563L367.46,4.029L370.709,4.029C370.946,4.029 371.194,4.05 371.455,4.093C371.722,4.129 371.965,4.214 372.183,4.347C372.408,4.475 372.59,4.666 372.729,4.921C372.875,5.175 372.948,5.518 372.948,5.949C372.948,6.349 372.86,6.668 372.684,6.904C372.514,7.141 372.292,7.302 372.019,7.387C372.141,7.435 372.241,7.514 372.32,7.623C372.405,7.733 372.471,7.854 372.52,7.987C372.568,8.121 372.605,8.257 372.629,8.397C372.653,8.536 372.672,8.664 372.684,8.779C372.702,8.973 372.714,9.143 372.72,9.289C372.732,9.434 372.747,9.574 372.766,9.707C372.79,9.841 372.823,9.974 372.866,10.108C372.914,10.241 372.984,10.393 373.075,10.563L373.075,10.563ZM371.373,6.031C371.373,5.885 371.361,5.767 371.337,5.676C371.319,5.579 371.282,5.503 371.228,5.448C371.173,5.388 371.097,5.348 371,5.33C370.903,5.306 370.782,5.294 370.636,5.294L369.007,5.294L369.007,6.841L370.509,6.841C370.703,6.841 370.858,6.826 370.973,6.795C371.088,6.759 371.173,6.707 371.228,6.641C371.288,6.574 371.328,6.492 371.346,6.395C371.364,6.292 371.373,6.17 371.373,6.031L371.373,6.031Z" style="fill-rule:nonzero;"/>
            </g>
            <g id="text36-2-7-5-0-1-3-7-9">
                <path id="path944" d="M421.57,9.985L419.668,9.985L417.794,7.2L417.284,7.71L417.284,9.985L415.737,9.985L415.737,3.451L417.284,3.451L417.284,5.862L419.477,3.451L421.461,3.451L418.868,6.154L421.57,9.985Z" style="fill-rule:nonzero;"/>
                <path id="path946" d="M426.661,4.716L424.796,4.716L424.796,9.985L423.249,9.985L423.249,4.716L421.383,4.716L421.383,3.451L426.661,3.451L426.661,4.716Z" style="fill-rule:nonzero;"/>
                <path id="path948" d="M431.547,4.679C431.287,4.904 431.011,5.201 430.719,5.571C430.428,5.941 430.173,6.372 429.955,6.863C429.718,7.409 429.545,7.952 429.436,8.492C429.333,9.032 429.257,9.53 429.209,9.985L427.598,9.985C427.61,9.809 427.637,9.584 427.68,9.311C427.722,9.032 427.78,8.735 427.853,8.419C427.932,8.098 428.026,7.773 428.135,7.446C428.244,7.118 428.369,6.818 428.508,6.545C428.726,6.108 428.942,5.747 429.154,5.462C429.367,5.177 429.561,4.943 429.737,4.761L426.97,4.761L426.97,3.451L431.547,3.451L431.547,4.679Z" style="fill-rule:nonzero;"/>
                <path id="path950" d="M437.348,7.764C437.348,8.159 437.291,8.501 437.175,8.793C437.06,9.084 436.893,9.326 436.675,9.521C436.463,9.709 436.202,9.848 435.892,9.939C435.589,10.03 435.249,10.076 434.873,10.076C434.285,10.076 433.817,9.991 433.472,9.821C433.132,9.645 432.871,9.408 432.689,9.111C432.513,8.814 432.398,8.468 432.343,8.074C432.295,7.679 432.27,7.261 432.27,6.818C432.27,6.266 432.31,5.799 432.389,5.416C432.468,5.028 432.574,4.707 432.707,4.452C432.841,4.197 432.995,3.997 433.171,3.851C433.347,3.706 433.535,3.596 433.736,3.524C433.936,3.451 434.139,3.405 434.345,3.387C434.558,3.369 434.761,3.36 434.955,3.36C435.416,3.36 435.786,3.415 436.065,3.524C436.35,3.633 436.575,3.775 436.739,3.951C436.902,4.127 437.018,4.331 437.084,4.561C437.157,4.792 437.212,5.028 437.248,5.271L435.747,5.271C435.704,5.156 435.665,5.056 435.628,4.971C435.598,4.886 435.556,4.819 435.501,4.77C435.446,4.722 435.374,4.685 435.283,4.661C435.192,4.637 435.067,4.625 434.909,4.625C434.734,4.625 434.582,4.64 434.454,4.67C434.327,4.701 434.221,4.761 434.136,4.852C434.051,4.937 433.981,5.059 433.927,5.216C433.878,5.374 433.842,5.58 433.817,5.835C433.963,5.732 434.136,5.65 434.336,5.589C434.536,5.523 434.767,5.489 435.028,5.489C435.361,5.489 435.671,5.532 435.956,5.617C436.241,5.702 436.487,5.835 436.693,6.017C436.899,6.199 437.06,6.436 437.175,6.727C437.291,7.012 437.348,7.358 437.348,7.764L437.348,7.764ZM435.829,7.673C435.829,7.346 435.759,7.109 435.619,6.963C435.48,6.812 435.237,6.736 434.891,6.736C434.643,6.736 434.448,6.772 434.309,6.845C434.175,6.918 434.072,7.009 433.999,7.118C433.933,7.221 433.89,7.334 433.872,7.455C433.86,7.576 433.854,7.685 433.854,7.782C433.854,8.146 433.924,8.413 434.063,8.583C434.209,8.753 434.476,8.838 434.864,8.838C434.973,8.838 435.086,8.832 435.201,8.82C435.316,8.808 435.419,8.765 435.51,8.693C435.601,8.62 435.677,8.504 435.738,8.347C435.798,8.189 435.829,7.965 435.829,7.673L435.829,7.673Z" style="fill-rule:nonzero;"/>
                <path id="path952" d="M444.193,7.582C444.157,7.922 444.081,8.247 443.965,8.556C443.856,8.859 443.692,9.126 443.474,9.357C443.256,9.587 442.974,9.772 442.628,9.912C442.282,10.045 441.86,10.112 441.363,10.112C440.793,10.112 440.307,10.036 439.907,9.885C439.512,9.727 439.191,9.502 438.942,9.211C438.7,8.914 438.521,8.55 438.405,8.119C438.296,7.688 438.241,7.197 438.241,6.645C438.241,6.135 438.302,5.677 438.424,5.271C438.545,4.858 438.733,4.509 438.988,4.224C439.243,3.933 439.564,3.712 439.952,3.56C440.347,3.402 440.814,3.323 441.354,3.323C441.9,3.323 442.346,3.393 442.691,3.533C443.037,3.666 443.313,3.842 443.52,4.061C443.726,4.279 443.874,4.528 443.965,4.807C444.056,5.086 444.12,5.365 444.157,5.644L442.691,5.644C442.655,5.498 442.616,5.359 442.573,5.225C442.531,5.092 442.464,4.977 442.373,4.88C442.288,4.782 442.17,4.707 442.018,4.652C441.872,4.591 441.675,4.561 441.427,4.561C441.123,4.561 440.868,4.6 440.662,4.679C440.456,4.758 440.289,4.886 440.162,5.062C440.034,5.237 439.943,5.471 439.889,5.762C439.834,6.047 439.807,6.399 439.807,6.818C439.807,7.242 439.843,7.588 439.916,7.855C439.995,8.116 440.101,8.322 440.234,8.474C440.374,8.62 440.541,8.72 440.735,8.774C440.935,8.829 441.157,8.856 441.399,8.856C441.648,8.856 441.845,8.826 441.991,8.765C442.136,8.705 442.252,8.62 442.337,8.51C442.421,8.395 442.488,8.262 442.537,8.11C442.585,7.952 442.634,7.776 442.682,7.582L444.193,7.582Z" style="fill-rule:nonzero;"/>
                <path id="path954" d="M451.651,4.716L449.785,4.716L449.785,9.985L448.238,9.985L448.238,4.716L446.373,4.716L446.373,3.451L451.651,3.451L451.651,4.716Z" style="fill-rule:nonzero;"/>
                <path id="path956" d="M457.538,8.055C457.538,9.433 456.613,10.121 454.762,10.121C453.865,10.121 453.179,9.918 452.706,9.511C452.239,9.105 452.005,8.477 452.005,7.628L453.507,7.628C453.519,7.816 453.546,7.989 453.589,8.146C453.631,8.304 453.701,8.441 453.798,8.556C453.901,8.665 454.034,8.753 454.198,8.82C454.362,8.881 454.571,8.911 454.826,8.911C455.245,8.911 455.548,8.85 455.736,8.729C455.924,8.601 456.018,8.359 456.018,8.001C456.018,7.813 455.979,7.679 455.9,7.6C455.827,7.515 455.712,7.449 455.554,7.4C455.372,7.346 455.151,7.303 454.89,7.273C454.635,7.242 454.344,7.191 454.016,7.118C453.761,7.057 453.525,6.991 453.306,6.918C453.088,6.839 452.897,6.73 452.733,6.59C452.569,6.451 452.442,6.269 452.351,6.044C452.26,5.82 452.214,5.526 452.214,5.162C452.214,4.895 452.254,4.664 452.333,4.47C452.418,4.27 452.527,4.103 452.66,3.969C452.8,3.83 452.958,3.718 453.134,3.633C453.316,3.548 453.501,3.484 453.689,3.442C453.877,3.393 454.065,3.363 454.253,3.351C454.441,3.333 454.614,3.323 454.772,3.323C455.305,3.323 455.739,3.39 456.073,3.524C456.406,3.657 456.664,3.83 456.846,4.042C457.034,4.255 457.159,4.494 457.219,4.761C457.286,5.028 457.32,5.292 457.32,5.553L455.845,5.553C455.821,5.444 455.803,5.322 455.791,5.189C455.779,5.056 455.742,4.94 455.682,4.843C455.633,4.758 455.542,4.682 455.409,4.616C455.281,4.543 455.078,4.506 454.799,4.506C454.58,4.506 454.401,4.522 454.262,4.552C454.122,4.582 454.013,4.628 453.934,4.688C453.855,4.749 453.801,4.828 453.771,4.925C453.74,5.022 453.725,5.137 453.725,5.271C453.725,5.429 453.767,5.544 453.852,5.617C453.943,5.683 454.107,5.741 454.344,5.79C454.593,5.844 454.844,5.89 455.099,5.926C455.354,5.962 455.6,6.008 455.836,6.063C456.073,6.111 456.294,6.178 456.501,6.263C456.707,6.348 456.886,6.466 457.037,6.618C457.195,6.763 457.316,6.954 457.401,7.191C457.492,7.421 457.538,7.71 457.538,8.055L457.538,8.055Z" style="fill-rule:nonzero;"/>
                <path id="path958" d="M464.66,6.736C464.66,7.889 464.384,8.741 463.832,9.293C463.28,9.845 462.443,10.121 461.321,10.121C460.884,10.121 460.477,10.051 460.101,9.912C459.731,9.772 459.41,9.566 459.137,9.293C458.864,9.014 458.651,8.665 458.5,8.247C458.348,7.822 458.272,7.327 458.272,6.763C458.272,6.126 458.351,5.589 458.509,5.153C458.673,4.71 458.9,4.355 459.191,4.088C459.482,3.815 459.828,3.621 460.229,3.505C460.629,3.384 461.072,3.323 461.557,3.323C462.091,3.323 462.552,3.405 462.94,3.569C463.335,3.727 463.659,3.954 463.914,4.252C464.169,4.543 464.357,4.901 464.478,5.325C464.6,5.744 464.66,6.214 464.66,6.736L464.66,6.736ZM463.113,6.681C463.113,6.281 463.077,5.947 463.004,5.68C462.931,5.407 462.825,5.189 462.686,5.025C462.552,4.861 462.388,4.743 462.194,4.67C462,4.597 461.785,4.561 461.548,4.561C461.202,4.561 460.917,4.61 460.693,4.707C460.474,4.798 460.298,4.937 460.165,5.125C460.038,5.307 459.95,5.538 459.901,5.817C459.853,6.09 459.828,6.405 459.828,6.763C459.828,7.431 459.956,7.952 460.21,8.328C460.465,8.699 460.866,8.884 461.412,8.884C461.794,8.884 462.097,8.823 462.322,8.702C462.546,8.58 462.716,8.419 462.831,8.219C462.953,8.013 463.028,7.779 463.059,7.519C463.095,7.252 463.113,6.973 463.113,6.681L463.113,6.681Z" style="fill-rule:nonzero;"/>
            </g>
            <g id="text36-2-7-5-0-1-3-5-3">
                <path id="path961" d="M383.332,28.428C383.332,29.378 383.105,30.08 382.65,30.535C382.195,30.99 381.505,31.218 380.58,31.218C380.22,31.218 379.885,31.16 379.575,31.045C379.27,30.93 379.005,30.76 378.78,30.535C378.555,30.305 378.38,30.018 378.255,29.673C378.13,29.323 378.067,28.915 378.067,28.45C378.067,27.925 378.132,27.483 378.262,27.123C378.397,26.758 378.585,26.465 378.825,26.245C379.065,26.02 379.35,25.86 379.68,25.765C380.01,25.665 380.375,25.615 380.775,25.615C381.215,25.615 381.595,25.683 381.915,25.818C382.24,25.948 382.507,26.135 382.717,26.38C382.927,26.62 383.082,26.915 383.182,27.265C383.282,27.61 383.332,27.998 383.332,28.428L383.332,28.428ZM382.057,28.383C382.057,28.053 382.027,27.778 381.967,27.558C381.907,27.333 381.82,27.153 381.705,27.018C381.595,26.883 381.46,26.785 381.3,26.725C381.14,26.665 380.962,26.635 380.767,26.635C380.482,26.635 380.247,26.675 380.062,26.755C379.882,26.83 379.737,26.945 379.627,27.1C379.522,27.25 379.45,27.44 379.41,27.67C379.37,27.895 379.35,28.155 379.35,28.45C379.35,29 379.455,29.43 379.665,29.74C379.875,30.045 380.205,30.198 380.655,30.198C380.97,30.198 381.22,30.148 381.405,30.048C381.59,29.948 381.73,29.815 381.825,29.65C381.925,29.48 381.987,29.288 382.012,29.073C382.042,28.853 382.057,28.623 382.057,28.383L382.057,28.383Z" style="fill-rule:nonzero;"/>
                <path id="path963" d="M388.19,31.105L388.19,25.72L386.922,25.72L386.922,28.975L384.957,25.72L383.705,25.72L383.705,31.105L384.98,31.105L384.98,27.828L386.93,31.105L388.19,31.105Z" style="fill-rule:nonzero;"/>
            </g>
            <g id="text36-2-7-5-0-1-3-5-0-75">
                <path id="path966" d="M394.166,18.728L392.831,18.728L392.478,17.618L390.783,17.618L390.438,18.728L389.148,18.728L390.993,13.343L392.261,13.343L394.166,18.728ZM392.163,16.613L391.638,14.881L391.098,16.613L392.163,16.613Z" style="fill-rule:nonzero;"/>
                <path id="path968" d="M398.004,18.728L394.179,18.728L394.179,13.343L395.454,13.343L395.454,17.671L398.004,17.671L398.004,18.728Z" style="fill-rule:nonzero;"/>
                <path id="path970" d="M401.879,14.386L400.342,14.386L400.342,18.728L399.067,18.728L399.067,14.386L397.529,14.386L397.529,13.343L401.879,13.343L401.879,14.386Z" style="fill-rule:nonzero;"/>
            </g>
            <g id="text36-2-7-5-0-1-3-5-0-7-8">
                <path id="path973" d="M376.503,43.716L374.966,43.716L374.966,48.059L373.691,48.059L373.691,43.716L372.153,43.716L372.153,42.674L376.503,42.674L376.503,43.716Z" style="fill-rule:nonzero;"/>
                <path id="path975" d="M380.843,46.469C380.843,47.604 380.08,48.171 378.555,48.171C377.815,48.171 377.25,48.004 376.86,47.669C376.475,47.334 376.283,46.816 376.283,46.116L377.52,46.116C377.53,46.271 377.553,46.414 377.588,46.544C377.623,46.674 377.68,46.786 377.76,46.881C377.845,46.971 377.955,47.044 378.09,47.099C378.225,47.149 378.398,47.174 378.608,47.174C378.953,47.174 379.203,47.124 379.358,47.024C379.513,46.919 379.59,46.719 379.59,46.424C379.59,46.269 379.558,46.159 379.493,46.094C379.433,46.024 379.338,45.969 379.208,45.929C379.058,45.884 378.875,45.849 378.66,45.824C378.45,45.799 378.21,45.756 377.94,45.696C377.73,45.646 377.535,45.591 377.355,45.531C377.175,45.466 377.018,45.376 376.883,45.261C376.748,45.146 376.643,44.996 376.568,44.811C376.493,44.626 376.455,44.384 376.455,44.084C376.455,43.864 376.488,43.674 376.553,43.514C376.623,43.349 376.713,43.211 376.823,43.101C376.938,42.986 377.068,42.894 377.213,42.824C377.363,42.754 377.515,42.701 377.67,42.666C377.825,42.626 377.98,42.601 378.135,42.591C378.29,42.576 378.433,42.569 378.563,42.569C379.003,42.569 379.36,42.624 379.635,42.734C379.91,42.844 380.123,42.986 380.273,43.161C380.428,43.336 380.53,43.534 380.58,43.754C380.635,43.974 380.663,44.191 380.663,44.406L379.448,44.406C379.428,44.316 379.413,44.216 379.403,44.106C379.393,43.996 379.363,43.901 379.313,43.821C379.273,43.751 379.198,43.689 379.088,43.634C378.983,43.574 378.815,43.544 378.585,43.544C378.405,43.544 378.258,43.556 378.143,43.581C378.028,43.606 377.938,43.644 377.873,43.694C377.808,43.744 377.763,43.809 377.738,43.889C377.713,43.969 377.7,44.064 377.7,44.174C377.7,44.304 377.735,44.399 377.805,44.459C377.88,44.514 378.015,44.561 378.21,44.601C378.415,44.646 378.623,44.684 378.833,44.714C379.043,44.744 379.245,44.781 379.44,44.826C379.635,44.866 379.818,44.921 379.988,44.991C380.158,45.061 380.305,45.159 380.43,45.284C380.56,45.404 380.66,45.561 380.73,45.756C380.805,45.946 380.843,46.184 380.843,46.469L380.843,46.469Z" style="fill-rule:nonzero;"/>
                <path id="path977" d="M384.97,43.716L383.433,43.716L383.433,48.059L382.158,48.059L382.158,43.716L380.62,43.716L380.62,42.674L384.97,42.674L384.97,43.716Z" style="fill-rule:nonzero;"/>
            </g>
            <g id="text36-2-7-5-0-1-3-5-0-1-7">
                <path id="path980" d="M380.66,63.402C380.66,64.537 379.898,65.104 378.373,65.104C377.633,65.104 377.068,64.937 376.678,64.602C376.293,64.267 376.1,63.749 376.1,63.049L377.338,63.049C377.348,63.204 377.37,63.347 377.405,63.477C377.44,63.607 377.498,63.719 377.578,63.814C377.663,63.904 377.773,63.977 377.908,64.032C378.043,64.082 378.215,64.107 378.425,64.107C378.77,64.107 379.02,64.057 379.175,63.957C379.33,63.852 379.408,63.652 379.408,63.357C379.408,63.202 379.375,63.092 379.31,63.027C379.25,62.957 379.155,62.902 379.025,62.862C378.875,62.817 378.693,62.782 378.477,62.757C378.267,62.732 378.027,62.689 377.757,62.629C377.547,62.579 377.352,62.524 377.172,62.464C376.992,62.399 376.835,62.309 376.7,62.194C376.565,62.079 376.46,61.929 376.385,61.744C376.31,61.559 376.272,61.317 376.272,61.017C376.272,60.797 376.305,60.607 376.37,60.447C376.44,60.282 376.53,60.144 376.64,60.034C376.755,59.919 376.885,59.827 377.03,59.757C377.18,59.687 377.332,59.634 377.487,59.599C377.642,59.559 377.797,59.534 377.952,59.524C378.107,59.509 378.25,59.502 378.38,59.502C378.82,59.502 379.177,59.557 379.452,59.667C379.727,59.777 379.94,59.919 380.09,60.094C380.245,60.269 380.347,60.467 380.397,60.687C380.452,60.907 380.48,61.124 380.48,61.339L379.265,61.339C379.245,61.249 379.23,61.149 379.22,61.039C379.21,60.929 379.18,60.834 379.13,60.754C379.09,60.684 379.015,60.622 378.905,60.567C378.8,60.507 378.632,60.477 378.402,60.477C378.222,60.477 378.075,60.489 377.96,60.514C377.845,60.539 377.755,60.577 377.69,60.627C377.625,60.677 377.58,60.742 377.555,60.822C377.53,60.902 377.517,60.997 377.517,61.107C377.517,61.237 377.552,61.332 377.622,61.392C377.697,61.447 377.832,61.494 378.027,61.534C378.232,61.579 378.44,61.617 378.65,61.647C378.86,61.677 379.062,61.714 379.257,61.759C379.452,61.799 379.635,61.854 379.805,61.924C379.975,61.994 380.122,62.092 380.247,62.217C380.377,62.337 380.477,62.494 380.547,62.689C380.622,62.879 380.66,63.117 380.66,63.402L380.66,63.402Z" style="fill-rule:nonzero;"/>
                <path id="path982" d="M385.418,63.319C385.418,63.689 385.353,63.984 385.223,64.204C385.098,64.424 384.933,64.592 384.728,64.707C384.528,64.822 384.303,64.899 384.053,64.939C383.808,64.974 383.565,64.992 383.325,64.992L380.955,64.992L380.955,59.607L383.565,59.607C383.9,59.607 384.175,59.652 384.39,59.742C384.605,59.832 384.775,59.949 384.9,60.094C385.025,60.239 385.11,60.402 385.155,60.582C385.2,60.757 385.22,60.929 385.215,61.099C385.205,61.589 385.05,61.922 384.75,62.097C384.945,62.172 385.105,62.307 385.23,62.502C385.355,62.697 385.418,62.969 385.418,63.319L385.418,63.319ZM383.955,61.114C383.955,60.944 383.93,60.819 383.88,60.739C383.83,60.654 383.73,60.612 383.58,60.612L382.23,60.612L382.23,61.684L383.46,61.684C383.65,61.684 383.78,61.634 383.85,61.534C383.92,61.429 383.955,61.289 383.955,61.114L383.955,61.114ZM384.135,63.327C384.135,63.177 384.12,63.059 384.09,62.974C384.06,62.884 384.02,62.814 383.97,62.764C383.925,62.714 383.873,62.682 383.813,62.667C383.758,62.652 383.703,62.644 383.648,62.644L382.23,62.644L382.23,63.934L383.535,63.934C383.76,63.934 383.915,63.887 384,63.792C384.09,63.697 384.135,63.542 384.135,63.327L384.135,63.327Z" style="fill-rule:nonzero;"/>
                <path id="path984" d="M390.171,59.607L388.318,62.974L388.318,64.992L387.043,64.992L387.043,62.989L385.288,59.607L386.736,59.607L387.681,61.662L388.731,59.607L390.171,59.607Z" style="fill-rule:nonzero;"/>
            </g>
            <g id="text36-2-7-5-0-1-3-5-0-1-6-8">
                <path id="path987" d="M393.892,74.684C393.892,75.634 393.665,76.336 393.21,76.791C392.755,77.246 392.065,77.474 391.14,77.474C390.78,77.474 390.445,77.416 390.135,77.301C389.83,77.186 389.565,77.016 389.34,76.791C389.115,76.561 388.94,76.274 388.815,75.929C388.69,75.579 388.627,75.171 388.627,74.706C388.627,74.181 388.692,73.739 388.822,73.379C388.957,73.014 389.145,72.721 389.385,72.501C389.625,72.276 389.91,72.116 390.24,72.021C390.57,71.921 390.935,71.871 391.335,71.871C391.775,71.871 392.155,71.939 392.475,72.074C392.8,72.204 393.067,72.391 393.277,72.636C393.487,72.876 393.642,73.171 393.742,73.521C393.842,73.866 393.892,74.254 393.892,74.684L393.892,74.684ZM392.617,74.639C392.617,74.309 392.587,74.034 392.527,73.814C392.467,73.589 392.38,73.409 392.265,73.274C392.155,73.139 392.02,73.041 391.86,72.981C391.7,72.921 391.522,72.891 391.327,72.891C391.042,72.891 390.807,72.931 390.622,73.011C390.442,73.086 390.297,73.201 390.187,73.356C390.082,73.506 390.01,73.696 389.97,73.926C389.93,74.151 389.91,74.411 389.91,74.706C389.91,75.256 390.015,75.686 390.225,75.996C390.435,76.301 390.765,76.454 391.215,76.454C391.53,76.454 391.78,76.404 391.965,76.304C392.15,76.204 392.29,76.071 392.385,75.906C392.485,75.736 392.547,75.544 392.572,75.329C392.602,75.109 392.617,74.879 392.617,74.639L392.617,74.639Z" style="fill-rule:nonzero;"/>
                <path id="path989" d="M398.255,73.019L395.54,73.019L395.54,74.076L397.827,74.076L397.827,75.111L395.54,75.111L395.54,77.361L394.265,77.361L394.265,71.976L398.255,71.976L398.255,73.019Z" style="fill-rule:nonzero;"/>
                <path id="path991" d="M402.4,73.019L399.685,73.019L399.685,74.076L401.973,74.076L401.973,75.111L399.685,75.111L399.685,77.361L398.41,77.361L398.41,71.976L402.4,71.976L402.4,73.019Z" style="fill-rule:nonzero;"/>
            </g>
            <g id="text36-2-7-5-0-1-3-58-2">
                <path id="path994" d="M8.796,7.999C8.796,8.464 8.714,8.835 8.551,9.112C8.394,9.388 8.186,9.599 7.928,9.744C7.677,9.888 7.394,9.986 7.08,10.036C6.772,10.08 6.467,10.102 6.165,10.102L3.186,10.102L3.186,3.332L6.467,3.332C6.888,3.332 7.234,3.389 7.504,3.502C7.774,3.615 7.988,3.763 8.145,3.945C8.302,4.127 8.409,4.331 8.466,4.558C8.522,4.778 8.548,4.995 8.541,5.208C8.529,5.824 8.334,6.242 7.957,6.462C8.202,6.557 8.403,6.726 8.56,6.971C8.717,7.217 8.796,7.559 8.796,7.999L8.796,7.999ZM6.957,5.227C6.957,5.013 6.926,4.856 6.863,4.756C6.8,4.649 6.674,4.595 6.486,4.595L4.789,4.595L4.789,5.944L6.335,5.944C6.574,5.944 6.737,5.881 6.825,5.755C6.913,5.623 6.957,5.447 6.957,5.227L6.957,5.227ZM7.184,8.009C7.184,7.82 7.165,7.672 7.127,7.566C7.089,7.452 7.039,7.364 6.976,7.301C6.92,7.239 6.854,7.198 6.778,7.179C6.709,7.16 6.64,7.151 6.571,7.151L4.789,7.151L4.789,8.772L6.429,8.772C6.712,8.772 6.907,8.713 7.014,8.593C7.127,8.474 7.184,8.279 7.184,8.009L7.184,8.009Z" style="fill-rule:nonzero;"/>
                <path id="path996" d="M14.714,10.102L9.34,10.102L9.34,3.332L14.62,3.332L14.62,4.643L10.943,4.643L10.943,5.887L14.328,5.887L14.328,7.198L10.943,7.198L10.943,8.772L14.714,8.772L14.714,10.102Z" style="fill-rule:nonzero;"/>
                <path id="path998" d="M20.672,10.102L20.672,3.332L19.078,3.332L19.078,7.424L16.608,3.332L15.033,3.332L15.033,10.102L16.636,10.102L16.636,5.981L19.088,10.102L20.672,10.102Z" style="fill-rule:nonzero;"/>
                <path id="path1000" d="M27.151,6.726C27.151,7.33 27.085,7.845 26.953,8.273C26.821,8.7 26.617,9.049 26.341,9.319C26.07,9.59 25.728,9.788 25.313,9.913C24.904,10.039 24.417,10.102 23.851,10.102L21.372,10.102L21.372,3.332L24.219,3.332C24.753,3.332 25.206,3.411 25.577,3.568C25.948,3.719 26.249,3.942 26.482,4.237C26.715,4.526 26.884,4.881 26.991,5.303C27.098,5.717 27.151,6.192 27.151,6.726L27.151,6.726ZM25.549,6.604C25.549,6.22 25.517,5.903 25.454,5.651C25.398,5.394 25.31,5.193 25.19,5.048C25.071,4.897 24.926,4.793 24.756,4.737C24.587,4.674 24.389,4.643 24.162,4.643L22.965,4.643L22.965,8.772L24.087,8.772C24.37,8.772 24.606,8.738 24.794,8.669C24.983,8.593 25.131,8.471 25.237,8.301C25.35,8.131 25.429,7.908 25.473,7.632C25.523,7.355 25.549,7.012 25.549,6.604L25.549,6.604Z" style="fill-rule:nonzero;"/>
                <rect id="path1002" x="27.859" y="3.332" width="1.593" height="6.77" style="fill-rule:nonzero;"/>
                <path id="path1004" d="M35.893,10.102L34.016,10.102L32.743,7.914L31.471,10.102L29.594,10.102L31.81,6.538L29.821,3.332L31.65,3.332L32.743,5.199L33.837,3.332L35.666,3.332L33.668,6.538L35.893,10.102Z" style="fill-rule:nonzero;"/>
                <path id="path1006" d="M38.315,3.341L36.995,3.341L35.128,10.432L36.448,10.432L38.315,3.341Z" style="fill-rule:nonzero;"/>
                <path id="path1008" d="M44.371,10.102L42.4,10.102L40.458,7.217L39.93,7.745L39.93,10.102L38.327,10.102L38.327,3.332L39.93,3.332L39.93,5.831L42.202,3.332L44.257,3.332L41.57,6.132L44.371,10.102Z" style="fill-rule:nonzero;"/>
                <rect id="path1010" x="44.409" y="3.332" width="1.593" height="6.77" style="fill-rule:nonzero;"/>
                <path id="path1012" d="M52.443,10.102L52.443,3.332L50.849,3.332L50.849,7.424L48.379,3.332L46.804,3.332L46.804,10.102L48.407,10.102L48.407,5.981L50.859,10.102L52.443,10.102Z" style="fill-rule:nonzero;"/>
                <path id="path1014" d="M59.149,10.102L57.847,10.102L57.847,9.414C57.753,9.577 57.634,9.712 57.489,9.819C57.351,9.92 57.197,10.001 57.027,10.064C56.864,10.121 56.691,10.158 56.509,10.177C56.333,10.202 56.16,10.215 55.99,10.215C55.399,10.215 54.906,10.124 54.51,9.942C54.114,9.759 53.793,9.508 53.548,9.187C53.309,8.867 53.139,8.49 53.039,8.056C52.938,7.616 52.888,7.144 52.888,6.642C52.888,4.347 53.969,3.2 56.131,3.2C56.666,3.2 57.118,3.269 57.489,3.407C57.86,3.546 58.159,3.731 58.385,3.964C58.618,4.19 58.784,4.451 58.885,4.746C58.985,5.042 59.036,5.347 59.036,5.661L57.395,5.661C57.395,5.523 57.382,5.381 57.357,5.237C57.338,5.092 57.285,4.963 57.197,4.85C57.115,4.737 56.989,4.646 56.82,4.577C56.65,4.501 56.417,4.463 56.122,4.463C55.827,4.463 55.575,4.504 55.368,4.586C55.167,4.661 55,4.784 54.868,4.954C54.742,5.123 54.648,5.343 54.585,5.614C54.529,5.884 54.5,6.208 54.5,6.585C54.5,7 54.525,7.355 54.576,7.65C54.626,7.946 54.714,8.185 54.84,8.367C54.972,8.549 55.145,8.684 55.358,8.772C55.572,8.854 55.842,8.895 56.169,8.895C56.358,8.895 56.537,8.873 56.707,8.829C56.876,8.779 57.024,8.703 57.15,8.603C57.275,8.502 57.373,8.373 57.442,8.216C57.511,8.059 57.543,7.87 57.536,7.65L56.028,7.65L56.028,6.406L59.149,6.406L59.149,10.102Z" style="fill-rule:nonzero;"/>
            </g>
        </g>
    </g>
</svg>
