<?xml version="1.0" encoding="UTF-8" standalone="no"?>
<!DOCTYPE svg PUBLIC "-//W3C//DTD SVG 1.1//EN" "http://www.w3.org/Graphics/SVG/1.1/DTD/svg11.dtd">
<svg width="590px" height="159px" version="1.1" xmlns="http://www.w3.org/2000/svg" xmlns:xlink="http://www.w3.org/1999/xlink" xml:space="preserve" xmlns:serif="http://www.serif.com/" style="fill-rule:evenodd;clip-rule:evenodd;">
    <g transform="matrix(1.33333,0,0,1.33333,0,0)">
        <g id="Sketch049" transform="matrix(1,0,0,-1,0,0)">
            <g id="Sketch049_w0000" transform="matrix(1,0,0,1,0.162938,-119.561)">
                <path d="M0,119.055L442.205,119.055L442.205,0L0,0L0,119.055" style="fill:none;stroke:black;stroke-width:0.99px;"/>
            </g>
            <g id="Sketch049_w0001" transform="matrix(1,0,0,1,0.162938,-119.561)">
                <path d="M382.677,104.785C371.332,98.578 364.252,86.633 364.252,73.701C364.252,60.768 371.332,48.824 382.677,42.616L382.677,34.724L416.693,34.724L416.693,42.616C428.038,48.824 435.118,60.768 435.118,73.701C435.118,86.633 428.038,98.578 416.693,104.785L416.693,112.677L382.677,112.677L382.677,104.785" style="fill:none;stroke:black;stroke-width:0.99px;"/>
            </g>
            <g id="Sketch049_w0002" transform="matrix(1,0,0,1,0.162938,-119.561)">
                <path d="M66.614,99.213L304.724,99.213L304.724,53.858L66.614,53.858L66.614,99.213" style="fill:none;stroke:black;stroke-width:0.99px;"/>
            </g>
            <g id="Sketch049_w0003" transform="matrix(1,0,0,1,0.162938,-119.561)">
                <path d="M9,94.748L27.85,94.748L27.85,75.898L9,75.898L9,94.748" style="fill:none;stroke:black;stroke-width:0.99px;"/>
            </g>
            <g id="Sketch049_w0004" transform="matrix(1,0,0,1,0.162938,-119.561)">
                <path d="M50.386,32.102L69.236,32.102L69.236,13.252L50.386,13.252L50.386,32.102" style="fill:none;stroke:black;stroke-width:0.99px;"/>
            </g>
            <g id="Sketch049_w0005" transform="matrix(1,0,0,1,0.162938,-119.561)">
                <path d="M93.189,13.252L112.039,13.252L112.039,32.102L93.189,32.102L93.189,13.252" style="fill:none;stroke:black;stroke-width:0.99px;"/>
            </g>
            <g id="Sketch049_w0006" transform="matrix(1,0,0,1,0.162938,-119.561)">
                <path d="M178.795,32.102L197.646,32.102L197.646,13.252L178.795,13.252L178.795,32.102" style="fill:none;stroke:black;stroke-width:0.99px;"/>
            </g>
            <g id="Sketch049_w0007" transform="matrix(1,0,0,1,0.162938,-119.561)">
                <path d="M135.992,32.102L154.843,32.102L154.843,13.252L135.992,13.252L135.992,32.102" style="fill:none;stroke:black;stroke-width:0.99px;"/>
            </g>
            <g id="Sketch049_w0008" transform="matrix(1,0,0,1,0.162938,-119.561)">
                <path d="M361.913,32.102L380.764,32.102L380.764,13.252L361.913,13.252L361.913,32.102" style="fill:none;stroke:black;stroke-width:0.99px;"/>
            </g>
            <g id="Sketch049_w0009" transform="matrix(1,0,0,1,0.162938,-119.561)">
                <path d="M416.622,32.102L435.472,32.102L435.472,13.252L416.622,13.252L416.622,32.102" style="fill:none;stroke:black;stroke-width:0.99px;"/>
            </g>
            <g id="Sketch049_w0010" transform="matrix(1,0,0,1,0.162938,-119.561)">
                <path d="M307.205,32.102L326.055,32.102L326.055,13.252L307.205,13.252L307.205,32.102" style="fill:none;stroke:black;stroke-width:0.99px;"/>
            </g>
            <g id="Sketch049_w0011" transform="matrix(1,0,0,1,0.162938,-119.561)">
                <path d="M264.402,32.102L283.252,32.102L283.252,13.252L264.402,13.252L264.402,32.102" style="fill:none;stroke:black;stroke-width:0.99px;"/>
            </g>
            <g id="Sketch049_w0012" transform="matrix(1,0,0,1,0.162938,-119.561)">
                <path d="M221.598,32.102L240.449,32.102L240.449,13.252L221.598,13.252L221.598,32.102" style="fill:none;stroke:black;stroke-width:0.99px;"/>
            </g>
            <g id="Sketch049_w0013" transform="matrix(1,0,0,1,0.162938,-119.561)">
                <path d="M7.583,13.252L26.433,13.252L26.433,32.102L7.583,32.102L7.583,13.252" style="fill:none;stroke:black;stroke-width:0.99px;"/>
            </g>
            <g id="circle848" transform="matrix(1,0,0,1,0.162938,-119.561)">
                <circle cx="331.654" cy="65.197" r="4.252" style="fill:none;stroke:black;stroke-width:0.99px;"/>
            </g>
            <g id="circle850" transform="matrix(1,0,0,1,0.162938,-119.561)">
                <circle cx="48.189" cy="65.197" r="4.252" style="fill:none;stroke:black;stroke-width:0.99px;"/>
            </g>
            <g id="circle852" transform="matrix(1,0,0,1,0.162938,-119.561)">
                <circle cx="344.409" cy="104.882" r="5.244" style="fill:none;stroke:black;stroke-width:0.99px;"/>
            </g>
            <g id="circle854" transform="matrix(1,0,0,1,0.162938,-119.561)">
                <circle cx="344.409" cy="22.677" r="5.244" style="fill:none;stroke:black;stroke-width:0.99px;"/>
            </g>
            <g id="circle856" transform="matrix(1,0,0,1,0.162938,-119.561)">
                <circle cx="38.551" cy="104.882" r="5.244" style="fill:none;stroke:black;stroke-width:0.99px;"/>
            </g>
            <g id="circle858" transform="matrix(1,0,0,1,0.162938,-119.561)">
                <circle cx="38.551" cy="22.677" r="5.244" style="fill:none;stroke:black;stroke-width:0.99px;"/>
            </g>
        </g>
    </g>
</svg>
