<?xml version="1.0" encoding="UTF-8" standalone="no"?>
<!DOCTYPE svg PUBLIC "-//W3C//DTD SVG 1.1//EN" "http://www.w3.org/Graphics/SVG/1.1/DTD/svg11.dtd">
<svg width="590px" height="159px" version="1.1" xmlns="http://www.w3.org/2000/svg" xmlns:xlink="http://www.w3.org/1999/xlink" xml:space="preserve" xmlns:serif="http://www.serif.com/" style="fill-rule:evenodd;clip-rule:evenodd;">
    <g transform="matrix(1.33333,0,0,1.33333,0,0)">
        <path id="Sketch050_w0000" d="M0,0L442.205,0L442.205,119.055L0,119.055L0,0" style="fill:none;stroke:rgb(255,0,0);stroke-width:0.28px;"/>
        <path id="Sketch050_w0001" d="M382.677,14.27C371.332,20.478 364.252,32.422 364.252,45.354C364.252,58.287 371.332,70.231 382.677,76.439L382.677,84.331L416.693,84.331L416.693,76.439C428.038,70.231 435.118,58.287 435.118,45.354C435.118,32.422 428.038,20.478 416.693,14.27L416.693,6.378L382.677,6.378L382.677,14.27" style="fill:none;stroke:rgb(255,0,0);stroke-width:0.28px;"/>
        <path id="Sketch050_w0002" d="M1.417,101.764L1.417,90.992C1.417,89.437 2.697,88.157 4.252,88.157L29.764,88.157C31.319,88.157 32.598,89.437 32.598,90.992L32.598,101.764C32.598,103.319 31.319,104.598 29.764,104.598L4.252,104.598C2.697,104.598 1.417,103.319 1.417,101.764" style="fill:none;stroke:rgb(255,0,0);stroke-width:0.28px;"/>
        <path id="Sketch050_w0003" d="M44.22,101.764L44.22,90.992C44.22,89.437 45.5,88.157 47.055,88.157L72.567,88.157C74.122,88.157 75.402,89.437 75.402,90.992L75.402,101.764C75.402,103.319 74.122,104.598 72.567,104.598L47.055,104.598C45.5,104.598 44.22,103.319 44.22,101.764" style="fill:none;stroke:rgb(255,0,0);stroke-width:0.28px;"/>
        <path id="Sketch050_w0004" d="M87.024,101.764L87.024,90.992C87.024,89.437 88.303,88.157 89.858,88.157L115.37,88.157C116.925,88.157 118.205,89.437 118.205,90.992L118.205,101.764C118.205,103.319 116.925,104.598 115.37,104.598L89.858,104.598C88.303,104.598 87.024,103.319 87.024,101.764" style="fill:none;stroke:rgb(255,0,0);stroke-width:0.28px;"/>
        <path id="Sketch050_w0005" d="M129.827,101.764L129.827,90.992C129.827,89.437 131.106,88.157 132.661,88.157L158.173,88.157C159.728,88.157 161.008,89.437 161.008,90.992L161.008,101.764C161.008,103.319 159.728,104.598 158.173,104.598L132.661,104.598C131.106,104.598 129.827,103.319 129.827,101.764" style="fill:none;stroke:rgb(255,0,0);stroke-width:0.28px;"/>
        <path id="Sketch050_w0006" d="M172.63,101.764L172.63,90.992C172.63,89.437 173.91,88.157 175.465,88.157L200.976,88.157C202.531,88.157 203.811,89.437 203.811,90.992L203.811,101.764C203.811,103.319 202.531,104.598 200.976,104.598L175.465,104.598C173.91,104.598 172.63,103.319 172.63,101.764" style="fill:none;stroke:rgb(255,0,0);stroke-width:0.28px;"/>
        <path id="Sketch050_w0007" d="M215.433,101.764L215.433,90.992C215.433,89.437 216.713,88.157 218.268,88.157L243.78,88.157C245.335,88.157 246.614,89.437 246.614,90.992L246.614,101.764C246.614,103.319 245.335,104.598 243.78,104.598L218.268,104.598C216.713,104.598 215.433,103.319 215.433,101.764" style="fill:none;stroke:rgb(255,0,0);stroke-width:0.28px;"/>
        <path id="Sketch050_w0008" d="M258.236,101.764L258.236,90.992C258.236,89.437 259.516,88.157 261.071,88.157L286.583,88.157C288.138,88.157 289.417,89.437 289.417,90.992L289.417,101.764C289.417,103.319 288.138,104.598 286.583,104.598L261.071,104.598C259.516,104.598 258.236,103.319 258.236,101.764" style="fill:none;stroke:rgb(255,0,0);stroke-width:0.28px;"/>
        <path id="Sketch050_w0009" d="M301.039,101.764L301.039,90.992C301.039,89.437 302.319,88.157 303.874,88.157L329.386,88.157C330.941,88.157 332.22,89.437 332.22,90.992L332.22,101.764C332.22,103.319 330.941,104.598 329.386,104.598L303.874,104.598C302.319,104.598 301.039,103.319 301.039,101.764" style="fill:none;stroke:rgb(255,0,0);stroke-width:0.28px;"/>
        <path id="Sketch050_w0010" d="M355.748,101.764L355.748,90.992C355.748,89.437 357.028,88.157 358.583,88.157L384.094,88.157C385.65,88.157 386.929,89.437 386.929,90.992L386.929,101.764C386.929,103.319 385.65,104.598 384.094,104.598L358.583,104.598C357.028,104.598 355.748,103.319 355.748,101.764" style="fill:none;stroke:rgb(255,0,0);stroke-width:0.28px;"/>
        <path id="Sketch050_w0011" d="M410.457,101.764L410.457,90.992C410.457,89.437 411.736,88.157 413.291,88.157L438.803,88.157C440.358,88.157 441.638,89.437 441.638,90.992L441.638,101.764C441.638,103.319 440.358,104.598 438.803,104.598L413.291,104.598C411.736,104.598 410.457,103.319 410.457,101.764" style="fill:none;stroke:rgb(255,0,0);stroke-width:0.28px;"/>
        <path id="Sketch050_w0012" d="M2.835,39.118L2.835,28.346C2.835,26.791 4.114,25.512 5.669,25.512L31.181,25.512C32.736,25.512 34.016,26.791 34.016,28.346L34.016,39.118C34.016,40.673 32.736,41.953 31.181,41.953L5.669,41.953C4.114,41.953 2.835,40.673 2.835,39.118" style="fill:none;stroke:rgb(255,0,0);stroke-width:0.28px;"/>
        <path id="Sketch050_w0013" d="M106.724,22.677L278.787,22.677L278.787,62.362L106.724,62.362L106.724,22.677" style="fill:none;stroke:rgb(255,0,0);stroke-width:0.28px;"/>
        <g id="circle863" transform="matrix(1,0,0,-1,-0.131471,119.071)">
            <circle cx="295.937" cy="89.291" r="3.685" style="fill:none;stroke:rgb(255,0,0);stroke-width:0.28px;"/>
        </g>
        <g id="circle865" transform="matrix(1,0,0,-1,-0.131471,119.071)">
            <circle cx="295.937" cy="63.78" r="3.685" style="fill:none;stroke:rgb(255,0,0);stroke-width:0.28px;"/>
        </g>
        <g id="circle867" transform="matrix(1,0,0,-1,-0.131471,119.071)">
            <circle cx="79.087" cy="89.291" r="3.685" style="fill:none;stroke:rgb(255,0,0);stroke-width:0.28px;"/>
        </g>
        <g id="circle869" transform="matrix(1,0,0,-1,-0.131471,119.071)">
            <circle cx="79.087" cy="63.78" r="3.685" style="fill:none;stroke:rgb(255,0,0);stroke-width:0.28px;"/>
        </g>
        <g id="circle871" transform="matrix(1,0,0,-1,-0.131471,119.071)">
            <circle cx="38.551" cy="104.882" r="5.244" style="fill:none;stroke:rgb(255,0,0);stroke-width:0.28px;"/>
        </g>
        <g id="circle873" transform="matrix(1,0,0,-1,-0.131471,119.071)">
            <circle cx="344.409" cy="104.882" r="5.244" style="fill:none;stroke:rgb(255,0,0);stroke-width:0.28px;"/>
        </g>
        <g id="circle875" transform="matrix(1,0,0,-1,-0.131471,119.071)">
            <circle cx="344.409" cy="22.677" r="5.244" style="fill:none;stroke:rgb(255,0,0);stroke-width:0.28px;"/>
        </g>
        <g id="circle877" transform="matrix(1,0,0,-1,-0.131471,119.071)">
            <circle cx="38.551" cy="22.677" r="5.244" style="fill:none;stroke:rgb(255,0,0);stroke-width:0.28px;"/>
        </g>
        <path id="Sketch050_w0022" d="M94.677,25.795C94.677,24.085 93.27,22.677 91.559,22.677C89.849,22.677 88.441,24.085 88.441,25.795L88.441,59.244C88.441,60.955 89.849,62.362 91.559,62.362C93.27,62.362 94.677,60.955 94.677,59.244L94.677,25.795" style="fill:none;stroke:rgb(255,0,0);stroke-width:0.28px;"/>
    </g>
</svg>
