<?xml version="1.0" standalone="no"?>
<!DOCTYPE svg PUBLIC "-//W3C//DTD SVG 1.1//EN"
  "http://www.w3.org/Graphics/SVG/1.1/DTD/svg11.dtd">
<svg width="186.14999389648438mm" height="52.79999923706055mm" viewBox="-93.07499694824219 -26.399999618530273 186.14999389648438 52.79999923706055" xmlns="http://www.w3.org/2000/svg" version="1.1">
	<title>svgOutput</title>
	<desc>made with tinkercad</desc>
<path d="M -92.07499694824219 25.399999618530273 L -92.07499694824219 1.1102230246251565e-16 L -92.07499694824219 -8.192000389099121 L -92.07499694824219 -8.566344261169434 L -92.07499694824219 -9.451655387878418 L -92.07499694824219 -10.420577049255371 L -92.07499694824219 -11.500499725341797 L -92.07499694824219 -12.877166748046875 L -92.07499694824219 -14.656999588012695 L -92.07499694824219 -16.384000778198242 L -92.07499694824219 -25.399999618530273 L -81.91999816894531 -25.399999618530273 L -65.53600311279297 -25.399999618530273 L -49.152000427246094 -25.399999618530273 L -32.768001556396484 -25.399999618530273 L 0 -25.399999618530273 L 30.5 -25.399999618530273 L 32.768001556396484 -25.399999618530273 L 49.152000427246094 -25.399999618530273 L 65.53600311279297 -25.399999618530273 L 81.91999816894531 -25.399999618530273 L 92.07499694824219 -25.399999618530273 L 92.07499694824219 -16.384000778198242 L 92.07499694824219 -8.192000389099121 L 92.07499694824219 1.1102230246251565e-16 L 92.07499694824219 25.399999618530273 L 79.77999877929688 25.399999618530273 L 76.247314453125 25.399999618530273 L 73.39588928222656 25.399999618530273 L 71.10771179199219 25.399999618530273 L 69.1098861694336 25.399999618530273 L 67.31587982177734 25.399999618530273 L 65.60179901123047 25.399999618530273 L 65.53600311279297 25.399999618530273 L 57.34400177001953 25.399999618530273 L 49.152000427246094 25.399999618530273 L 32.768001556396484 25.399999618530273 L 16.384000778198242 25.399999618530273 L 2.2208337783813477 25.399999618530273 L 0 25.399999618530273 L -8.192000389099121 25.399999618530273 L -16.384000778198242 25.399999618530273 L -32.768001556396484 25.399999618530273 L -49.152000427246094 25.399999618530273 L -57.34400177001953 25.399999618530273 L -65.53600311279297 25.399999618530273 L -81.91999816894531 25.399999618530273 L -92.07499694824219 25.399999618530273 M 8.473999977111816 13.552000045776367 L 8.510000228881836 14.064000129699707 L 8.619000434875488 14.564000129699707 L 8.79800033569336 15.045000076293945 L 9.043999671936035 15.494000434875488 L 9.35099983215332 15.904999732971191 L 9.713000297546387 16.267000198364258 L 9.869635581970215 16.384000778198242 L 10.12399959564209 16.573999404907227 L 10.572999954223633 16.81999969482422 L 11.053999900817871 16.999000549316406 L 11.553999900817871 17.107999801635742 L 12.065999984741211 17.143999099731445 L 12.57699966430664 17.107999801635742 L 13.07800006866455 16.999000549316406 L 13.557999610900879 16.81999969482422 L 14.008000373840332 16.573999404907227 L 14.26174545288086 16.384000778198242 L 14.418000221252441 16.267000198364258 L 14.779999732971191 15.904999732971191 L 15.088000297546387 15.494000434875488 L 15.333000183105469 15.045000076293945 L 15.51200008392334 14.564000129699707 L 15.621000289916992 14.064000129699707 L 15.657999992370605 13.552000045776367 L 15.621000289916992 13.041000366210938 L 15.51200008392334 12.539999961853027 L 15.418025016784668 12.288000106811523 L 15.333000183105469 12.0600004196167 L 15.088000297546387 11.609999656677246 L 14.779999732971191 11.199999809265137 L 14.418000221252441 10.838000297546387 L 14.008000373840332 10.529999732971191 L 13.557999610900879 10.28499984741211 L 13.07800006866455 10.105999946594238 L 12.57699966430664 9.996999740600586 L 12.288000106811523 9.97607421875 L 12.065999984741211 9.960000038146973 L 11.553999900817871 9.996999740600586 L 11.053999900817871 10.105999946594238 L 10.572999954223633 10.28499984741211 L 10.12399959564209 10.529999732971191 L 9.713000297546387 10.838000297546387 L 9.35099983215332 11.199999809265137 L 9.043999671936035 11.609999656677246 L 8.79800033569336 12.0600004196167 L 8.712974548339844 12.288000106811523 L 8.619000434875488 12.539999961853027 L 8.510000228881836 13.041000366210938 L 8.473999977111816 13.552000045776367 M -86.30000305175781 -6.416999816894531 L -86.10199737548828 -6.556000232696533 L -86.01599884033203 -6.642000198364258 L -85.93099975585938 -6.7270002365112305 L -85.79199981689453 -6.925000190734863 L -85.69000244140625 -7.144999980926514 L -85.62699890136719 -7.379000186920166 L -85.60600280761719 -7.619999885559082 L -85.62699890136719 -7.861000061035156 L -85.69000244140625 -8.095000267028809 L -85.73497009277344 -8.192000389099121 L -85.79199981689453 -8.3149995803833 L -85.93099975585938 -8.512999534606934 L -86.10199737548828 -8.684000015258789 L -86.30000305175781 -8.822999954223633 L -86.5199966430664 -8.925000190734863 L -86.75399780273438 -8.98799991607666 L -86.99500274658203 -9.008999824523926 L -87.23600006103516 -8.98799991607666 L -87.47000122070312 -8.925000190734863 L -87.69000244140625 -8.822999954223633 L -87.88800048828125 -8.684000015258789 L -88.05899810791016 -8.512999534606934 L -88.197998046875 -8.3149995803833 L -88.2550277709961 -8.192000389099121 L -88.30000305175781 -8.095000267028809 L -88.36299896240234 -7.861000061035156 L -88.38400268554688 -7.619999885559082 L -88.36299896240234 -7.379000186920166 L -88.30000305175781 -7.144999980926514 L -88.197998046875 -6.925000190734863 L -88.06400299072266 -6.734122276306152 L -88.05899810791016 -6.7270002365112305 L -87.88800048828125 -6.556000232696533 L -87.69000244140625 -6.416999816894531 L -87.47000122070312 -6.315000057220459 L -87.23600006103516 -6.251999855041504 L -86.99500274658203 -6.230999946594238 L -86.75399780273438 -6.251999855041504 L -86.5199966430664 -6.315000057220459 L -86.30000305175781 -6.416999816894531 M 1.718000054359436 16.267000198364258 L 2.0799999237060547 15.904999732971191 L 2.388000011444092 15.494000434875488 L 2.632999897003174 15.045000076293945 L 2.812000036239624 14.564000129699707 L 2.9210000038146973 14.064000129699707 L 2.9579999446868896 13.552000045776367 L 2.9210000038146973 13.041000366210938 L 2.812000036239624 12.539999961853027 L 2.718024969100952 12.288000106811523 L 2.632999897003174 12.0600004196167 L 2.388000011444092 11.609999656677246 L 2.0799999237060547 11.199999809265137 L 1.718000054359436 10.838000297546387 L 1.3079999685287476 10.529999732971191 L 0.8579999804496765 10.28499984741211 L 0.3779999911785126 10.105999946594238 L -8.544244108619255e-15 10.023760795593262 L -0.12300000339746475 9.996999740600586 L -0.6340000033378601 9.960000038146973 L -1.1460000276565552 9.996999740600586 L -1.6460000276565552 10.105999946594238 L -2.127000093460083 10.28499984741211 L -2.5759999752044678 10.529999732971191 L -2.986999988555908 10.838000297546387 L -3.3489999771118164 11.199999809265137 L -3.6559998989105225 11.609999656677246 L -3.9019999504089355 12.0600004196167 L -3.987025022506714 12.288000106811523 L -4.080999851226807 12.539999961853027 L -4.190000057220459 13.041000366210938 L -4.22599983215332 13.552000045776367 L -4.190000057220459 14.064000129699707 L -4.080999851226807 14.564000129699707 L -3.9019999504089355 15.045000076293945 L -3.6559998989105225 15.494000434875488 L -3.3489999771118164 15.904999732971191 L -2.986999988555908 16.267000198364258 L -2.83036470413208 16.384000778198242 L -2.5759999752044678 16.573999404907227 L -2.127000093460083 16.81999969482422 L -1.6460000276565552 16.999000549316406 L -1.1460000276565552 17.107999801635742 L -0.6340000033378601 17.143999099731445 L -0.12300000339746475 17.107999801635742 L 1.708848821723851e-14 17.081239700317383 L 0.3779999911785126 16.999000549316406 L 0.8579999804496765 16.81999969482422 L 1.3079999685287476 16.573999404907227 L 1.5355955362319946 16.403581619262695 L 1.5617458820343018 16.384000778198242 L 1.718000054359436 16.267000198364258 M 22.413000106811523 16.267000198364258 L 22.56963539123535 16.384000778198242 L 22.823999404907227 16.573999404907227 L 23.273000717163086 16.81999969482422 L 23.753999710083008 16.999000549316406 L 24.253999710083008 17.107999801635742 L 24.766000747680664 17.143999099731445 L 25.277000427246094 17.107999801635742 L 25.777999877929688 16.999000549316406 L 26.257999420166016 16.81999969482422 L 26.70800018310547 16.573999404907227 L 26.961746215820312 16.384000778198242 L 27.118000030517578 16.267000198364258 L 27.479999542236328 15.904999732971191 L 27.788000106811523 15.494000434875488 L 28.033000946044922 15.045000076293945 L 28.211999893188477 14.564000129699707 L 28.320999145507812 14.064000129699707 L 28.357999801635742 13.552000045776367 L 28.320999145507812 13.041000366210938 L 28.211999893188477 12.539999961853027 L 28.118024826049805 12.288000106811523 L 28.033000946044922 12.0600004196167 L 27.788000106811523 11.609999656677246 L 27.479999542236328 11.199999809265137 L 27.118000030517578 10.838000297546387 L 26.70800018310547 10.529999732971191 L 26.257999420166016 10.28499984741211 L 25.777999877929688 10.105999946594238 L 25.277000427246094 9.996999740600586 L 24.766000747680664 9.960000038146973 L 24.576000213623047 9.973730087280273 L 24.253999710083008 9.996999740600586 L 23.753999710083008 10.105999946594238 L 23.273000717163086 10.28499984741211 L 22.823999404907227 10.529999732971191 L 22.413000106811523 10.838000297546387 L 22.051000595092773 11.199999809265137 L 21.743999481201172 11.609999656677246 L 21.49799919128418 12.0600004196167 L 21.412975311279297 12.288000106811523 L 21.319000244140625 12.539999961853027 L 21.209999084472656 13.041000366210938 L 21.173999786376953 13.552000045776367 L 21.209999084472656 14.064000129699707 L 21.319000244140625 14.564000129699707 L 21.49799919128418 15.045000076293945 L 21.743999481201172 15.494000434875488 L 22.051000595092773 15.904999732971191 L 22.413000106811523 16.267000198364258 M -52.926998138427734 16.81999969482422 L -52.44599914550781 16.999000549316406 L -51.94599914550781 17.107999801635742 L -51.433998107910156 17.143999099731445 L -50.92300033569336 17.107999801635742 L -50.422000885009766 16.999000549316406 L -49.94200134277344 16.81999969482422 L -49.492000579833984 16.573999404907227 L -49.23825454711914 16.384000778198242 L -49.152000427246094 16.319414138793945 L -49.082000732421875 16.267000198364258 L -48.720001220703125 15.904999732971191 L -48.4119987487793 15.494000434875488 L -48.16699981689453 15.045000076293945 L -47.987998962402344 14.564000129699707 L -47.87900161743164 14.064000129699707 L -47.84199905395508 13.552000045776367 L -47.87900161743164 13.041000366210938 L -47.987998962402344 12.539999961853027 L -48.081974029541016 12.288000106811523 L -48.16699981689453 12.0600004196167 L -48.4119987487793 11.609999656677246 L -48.720001220703125 11.199999809265137 L -49.082000732421875 10.838000297546387 L -49.152000427246094 10.785414695739746 L -49.492000579833984 10.529999732971191 L -49.94200134277344 10.28499984741211 L -50.422000885009766 10.105999946594238 L -50.92300033569336 9.996999740600586 L -51.433998107910156 9.960000038146973 L -51.94599914550781 9.996999740600586 L -52.44599914550781 10.105999946594238 L -52.926998138427734 10.28499984741211 L -53.375999450683594 10.529999732971191 L -53.7869987487793 10.838000297546387 L -54.14899826049805 11.199999809265137 L -54.45600128173828 11.609999656677246 L -54.70199966430664 12.0600004196167 L -54.787025451660156 12.288000106811523 L -54.88100051879883 12.539999961853027 L -54.9900016784668 13.041000366210938 L -55.0260009765625 13.552000045776367 L -54.9900016784668 14.064000129699707 L -54.88100051879883 14.564000129699707 L -54.70199966430664 15.045000076293945 L -54.45600128173828 15.494000434875488 L -54.14899826049805 15.904999732971191 L -53.7869987487793 16.267000198364258 L -53.63036346435547 16.384000778198242 L -53.375999450683594 16.573999404907227 L -52.926998138427734 16.81999969482422 M 30.5 -14.937999725341797 L 0 -14.937999725341797 L -30.5 -14.937999725341797 L -30.5 -0.9380000233650206 L 0 -0.9380000233650206 L 30.5 -0.9380000233650206 L 30.5 -14.937999725341797 M 47.8129997253418 16.267000198364258 L 47.969635009765625 16.384000778198242 L 48.2239990234375 16.573999404907227 L 48.67300033569336 16.81999969482422 L 49.152000427246094 16.998254776000977 L 49.15399932861328 16.999000549316406 L 49.65399932861328 17.107999801635742 L 50.16600036621094 17.143999099731445 L 50.676998138427734 17.107999801635742 L 51.178001403808594 16.999000549316406 L 51.65800094604492 16.81999969482422 L 52.108001708984375 16.573999404907227 L 52.36174774169922 16.384000778198242 L 52.518001556396484 16.267000198364258 L 52.880001068115234 15.904999732971191 L 53.1879997253418 15.494000434875488 L 53.43299865722656 15.045000076293945 L 53.61199951171875 14.564000129699707 L 53.72100067138672 14.064000129699707 L 53.757999420166016 13.552000045776367 L 53.72100067138672 13.041000366210938 L 53.61199951171875 12.539999961853027 L 53.51802444458008 12.288000106811523 L 53.43299865722656 12.0600004196167 L 53.1879997253418 11.609999656677246 L 52.880001068115234 11.199999809265137 L 52.518001556396484 10.838000297546387 L 52.108001708984375 10.529999732971191 L 51.65800094604492 10.28499984741211 L 51.178001403808594 10.105999946594238 L 50.676998138427734 9.996999740600586 L 50.16600036621094 9.960000038146973 L 49.65399932861328 9.996999740600586 L 49.15399932861328 10.105999946594238 L 49.152000427246094 10.106743812561035 L 48.67300033569336 10.28499984741211 L 48.2239990234375 10.529999732971191 L 47.8129997253418 10.838000297546387 L 47.45100021362305 11.199999809265137 L 47.14400100708008 11.609999656677246 L 46.89799880981445 12.0600004196167 L 46.71900177001953 12.539999961853027 L 46.61000061035156 13.041000366210938 L 46.57400131225586 13.552000045776367 L 46.61000061035156 14.064000129699707 L 46.71900177001953 14.564000129699707 L 46.89799880981445 15.045000076293945 L 47.14400100708008 15.494000434875488 L 47.45100021362305 15.904999732971191 L 47.8129997253418 16.267000198364258 M -66.48699951171875 16.267000198364258 L -66.33036804199219 16.384000778198242 L -66.07599639892578 16.573999404907227 L -65.62699890136719 16.81999969482422 L -65.53600311279297 16.853864669799805 L -65.14600372314453 16.999000549316406 L -64.64600372314453 17.107999801635742 L -64.13400268554688 17.143999099731445 L -63.62300109863281 17.107999801635742 L -63.12200164794922 16.999000549316406 L -62.641998291015625 16.81999969482422 L -62.19200134277344 16.573999404907227 L -61.938255310058594 16.384000778198242 L -61.78200149536133 16.267000198364258 L -61.41999816894531 15.904999732971191 L -61.11199951171875 15.494000434875488 L -60.867000579833984 15.045000076293945 L -60.6879997253418 14.564000129699707 L -60.57899856567383 14.064000129699707 L -60.54199981689453 13.552000045776367 L -60.57899856567383 13.041000366210938 L -60.6879997253418 12.539999961853027 L -60.78197479248047 12.288000106811523 L -60.867000579833984 12.0600004196167 L -61.11199951171875 11.609999656677246 L -61.41999816894531 11.199999809265137 L -61.78200149536133 10.838000297546387 L -62.19200134277344 10.529999732971191 L -62.641998291015625 10.28499984741211 L -63.12200164794922 10.105999946594238 L -63.62300109863281 9.996999740600586 L -64.13400268554688 9.960000038146973 L -64.64600372314453 9.996999740600586 L -65.14600372314453 10.105999946594238 L -65.53600311279297 10.251134872436523 L -65.62699890136719 10.28499984741211 L -66.07599639892578 10.529999732971191 L -66.48699951171875 10.838000297546387 L -66.8489990234375 11.199999809265137 L -67.15599822998047 11.609999656677246 L -67.4020004272461 12.0600004196167 L -67.58100128173828 12.539999961853027 L -67.69000244140625 13.041000366210938 L -67.72599792480469 13.552000045776367 L -67.69000244140625 14.064000129699707 L -67.58100128173828 14.564000129699707 L -67.4020004272461 15.045000076293945 L -67.15599822998047 15.494000434875488 L -66.8489990234375 15.904999732971191 L -66.48699951171875 16.267000198364258 M 65.21800231933594 16.267000198364258 L 65.53600311279297 15.949000358581543 L 65.58000183105469 15.904999732971191 L 65.88800048828125 15.494000434875488 L 66.13300323486328 15.045000076293945 L 66.31199645996094 14.564000129699707 L 66.4209976196289 14.064000129699707 L 66.45800018310547 13.552000045776367 L 66.4209976196289 13.041000366210938 L 66.31199645996094 12.539999961853027 L 66.13300323486328 12.0600004196167 L 65.88800048828125 11.609999656677246 L 65.58000183105469 11.199999809265137 L 65.53600311279297 11.156000137329102 L 65.21800231933594 10.838000297546387 L 64.80799865722656 10.529999732971191 L 64.35800170898438 10.28499984741211 L 63.87799835205078 10.105999946594238 L 63.37699890136719 9.996999740600586 L 62.86600112915039 9.960000038146973 L 62.354000091552734 9.996999740600586 L 61.854000091552734 10.105999946594238 L 61.37300109863281 10.28499984741211 L 60.92399978637695 10.529999732971191 L 60.51300048828125 10.838000297546387 L 60.1510009765625 11.199999809265137 L 59.84400177001953 11.609999656677246 L 59.597999572753906 12.0600004196167 L 59.51297378540039 12.288000106811523 L 59.41899871826172 12.539999961853027 L 59.310001373291016 13.041000366210938 L 59.27399826049805 13.552000045776367 L 59.310001373291016 14.064000129699707 L 59.41899871826172 14.564000129699707 L 59.597999572753906 15.045000076293945 L 59.84400177001953 15.494000434875488 L 60.1510009765625 15.904999732971191 L 60.51300048828125 16.267000198364258 L 60.66963577270508 16.384000778198242 L 60.92399978637695 16.573999404907227 L 61.37300109863281 16.81999969482422 L 61.854000091552734 16.999000549316406 L 62.354000091552734 17.107999801635742 L 62.86600112915039 17.143999099731445 L 63.37699890136719 17.107999801635742 L 63.87799835205078 16.999000549316406 L 64.35800170898438 16.81999969482422 L 64.80799865722656 16.573999404907227 L 65.0617446899414 16.384000778198242 L 65.21800231933594 16.267000198364258 M -40.22700119018555 16.81999969482422 L -39.74599838256836 16.999000549316406 L -39.24599838256836 17.107999801635742 L -38.73400115966797 17.143999099731445 L -38.222999572753906 17.107999801635742 L -37.72200012207031 16.999000549316406 L -37.242000579833984 16.81999969482422 L -36.79199981689453 16.573999404907227 L -36.53825378417969 16.384000778198242 L -36.38199996948242 16.267000198364258 L -36.02000045776367 15.904999732971191 L -35.71200180053711 15.494000434875488 L -35.46699905395508 15.045000076293945 L -35.28799819946289 14.564000129699707 L -35.17900085449219 14.064000129699707 L -35.141998291015625 13.552000045776367 L -35.17900085449219 13.041000366210938 L -35.28799819946289 12.539999961853027 L -35.38197326660156 12.288000106811523 L -35.46699905395508 12.0600004196167 L -35.71200180053711 11.609999656677246 L -36.02000045776367 11.199999809265137 L -36.38199996948242 10.838000297546387 L -36.79199981689453 10.529999732971191 L -37.242000579833984 10.28499984741211 L -37.72200012207031 10.105999946594238 L -38.222999572753906 9.996999740600586 L -38.73400115966797 9.960000038146973 L -39.24599838256836 9.996999740600586 L -39.74599838256836 10.105999946594238 L -40.22700119018555 10.28499984741211 L -40.67599868774414 10.529999732971191 L -40.959999084472656 10.742827415466309 L -41.08700180053711 10.838000297546387 L -41.44900131225586 11.199999809265137 L -41.75600051879883 11.609999656677246 L -42.00199890136719 12.0600004196167 L -42.0870246887207 12.288000106811523 L -42.180999755859375 12.539999961853027 L -42.290000915527344 13.041000366210938 L -42.32600021362305 13.552000045776367 L -42.290000915527344 14.064000129699707 L -42.180999755859375 14.564000129699707 L -42.00199890136719 15.045000076293945 L -41.75600051879883 15.494000434875488 L -41.44900131225586 15.904999732971191 L -41.08700180053711 16.267000198364258 L -40.959999084472656 16.36186408996582 L -40.93036651611328 16.384000778198242 L -40.67599868774414 16.573999404907227 L -40.22700119018555 16.81999969482422 M 56.26100158691406 -3.1700000762939453 L 56.82099914550781 -3.3369998931884766 L 57.34400177001953 -3.5686841011047363 L 57.35599899291992 -3.5739998817443848 L 57.85599899291992 -3.877000093460083 L 58.3129997253418 -4.241000175476074 L 58.720001220703125 -4.660999774932861 L 59.06999969482422 -5.130000114440918 L 59.356998443603516 -5.639999866485596 L 59.57699966430664 -6.182000160217285 L 59.724998474121094 -6.748000144958496 L 59.79999923706055 -7.328000068664551 L 59.79999923706055 -7.9120001792907715 L 59.7637939453125 -8.192000389099121 L 59.724998474121094 -8.491999626159668 L 59.57699966430664 -9.057999610900879 L 59.356998443603516 -9.600000381469727 L 59.06999969482422 -10.109999656677246 L 58.720001220703125 -10.579000473022461 L 58.3129997253418 -10.99899959564209 L 57.85599899291992 -11.36299991607666 L 57.35599899291992 -11.666000366210938 L 57.34400177001953 -11.671316146850586 L 56.82099914550781 -11.902999877929688 L 56.26100158691406 -12.069999694824219 L 55.68299865722656 -12.163000106811523 L 55.0989990234375 -12.182000160217285 L 54.516998291015625 -12.12600040435791 L 53.94599914550781 -11.994999885559082 L 53.39799880981445 -11.793000221252441 L 52.87900161743164 -11.52299976348877 L 52.39899826049805 -11.187999725341797 L 51.965999603271484 -10.795000076293945 L 51.58700180053711 -10.350000381469727 L 51.268001556396484 -9.859999656677246 L 51.013999938964844 -9.333000183105469 L 50.83000183105469 -8.777999877929688 L 50.71799850463867 -8.204000473022461 L 50.71723937988281 -8.192000389099121 L 50.680999755859375 -7.619999885559082 L 50.71799850463867 -7.035999774932861 L 50.83000183105469 -6.461999893188477 L 51.013999938964844 -5.9070000648498535 L 51.268001556396484 -5.380000114440918 L 51.58700180053711 -4.889999866485596 L 51.965999603271484 -4.445000171661377 L 52.350521087646484 -4.0960001945495605 L 52.39899826049805 -4.052000045776367 L 52.87900161743164 -3.7170000076293945 L 53.39799880981445 -3.447000026702881 L 53.94599914550781 -3.244999885559082 L 54.516998291015625 -3.114000082015991 L 55.0989990234375 -3.058000087738037 L 55.68299865722656 -3.0769999027252197 L 56.26100158691406 -3.1700000762939453 M -61.595001220703125 -4.0279998779296875 L -61.08399963378906 -4.064000129699707 L -60.93691635131836 -4.0960001945495605 L -60.58300018310547 -4.172999858856201 L -60.10300064086914 -4.353000164031982 L -59.65299987792969 -4.5980000495910645 L -59.24300003051758 -4.90500020980835 L -58.880001068115234 -5.26800012588501 L -58.573001861572266 -5.677999973297119 L -58.327999114990234 -6.127999782562256 L -58.14799880981445 -6.607999801635742 L -58.03900146484375 -7.109000205993652 L -58.00299835205078 -7.619999885559082 L -58.03900146484375 -8.130999565124512 L -58.05227279663086 -8.192000389099121 L -58.14799880981445 -8.631999969482422 L -58.327999114990234 -9.112000465393066 L -58.573001861572266 -9.562000274658203 L -58.880001068115234 -9.972000122070312 L -59.24300003051758 -10.335000038146973 L -59.65299987792969 -10.642000198364258 L -60.10300064086914 -10.88700008392334 L -60.58300018310547 -11.067000389099121 L -61.08399963378906 -11.175999641418457 L -61.439998626708984 -11.201080322265625 L -61.595001220703125 -11.211999893188477 L -62.10599899291992 -11.175999641418457 L -62.606998443603516 -11.067000389099121 L -63.08700180053711 -10.88700008392334 L -63.5369987487793 -10.642000198364258 L -63.946998596191406 -10.335000038146973 L -64.30999755859375 -9.972000122070312 L -64.61699676513672 -9.562000274658203 L -64.86199951171875 -9.112000465393066 L -65.04199981689453 -8.631999969482422 L -65.13772583007812 -8.192000389099121 L -65.1510009765625 -8.130999565124512 L -65.18699645996094 -7.619999885559082 L -65.1510009765625 -7.109000205993652 L -65.04199981689453 -6.607999801635742 L -64.86199951171875 -6.127999782562256 L -64.61699676513672 -5.677999973297119 L -64.30999755859375 -5.26800012588501 L -63.946998596191406 -4.90500020980835 L -63.5369987487793 -4.5980000495910645 L -63.08700180053711 -4.353000164031982 L -62.606998443603516 -4.172999858856201 L -62.253082275390625 -4.0960001945495605 L -62.10599899291992 -4.064000129699707 L -61.595001220703125 -4.0279998779296875 M -10.982000350952148 16.267000198364258 L -10.619999885559082 15.904999732971191 L -10.312000274658203 15.494000434875488 L -10.067000389099121 15.045000076293945 L -9.887999534606934 14.564000129699707 L -9.779000282287598 14.064000129699707 L -9.741999626159668 13.552000045776367 L -9.779000282287598 13.041000366210938 L -9.887999534606934 12.539999961853027 L -9.981974601745605 12.288000106811523 L -10.067000389099121 12.0600004196167 L -10.312000274658203 11.609999656677246 L -10.619999885559082 11.199999809265137 L -10.982000350952148 10.838000297546387 L -11.392000198364258 10.529999732971191 L -11.842000007629395 10.28499984741211 L -12.288000106811523 10.11867904663086 L -12.321999549865723 10.105999946594238 L -12.822999954223633 9.996999740600586 L -13.333999633789062 9.960000038146973 L -13.845999717712402 9.996999740600586 L -14.345999717712402 10.105999946594238 L -14.82699966430664 10.28499984741211 L -15.276000022888184 10.529999732971191 L -15.687000274658203 10.838000297546387 L -16.048999786376953 11.199999809265137 L -16.356000900268555 11.609999656677246 L -16.384000778198242 11.661219596862793 L -16.601999282836914 12.0600004196167 L -16.68702507019043 12.288000106811523 L -16.7810001373291 12.539999961853027 L -16.889999389648438 13.041000366210938 L -16.926000595092773 13.552000045776367 L -16.889999389648438 14.064000129699707 L -16.7810001373291 14.564000129699707 L -16.601999282836914 15.045000076293945 L -16.384000778198242 15.442893981933594 L -16.356000900268555 15.494000434875488 L -16.048999786376953 15.904999732971191 L -15.687000274658203 16.267000198364258 L -15.530364990234375 16.384000778198242 L -15.276000022888184 16.573999404907227 L -14.82699966430664 16.81999969482422 L -14.345999717712402 16.999000549316406 L -13.845999717712402 17.107999801635742 L -13.333999633789062 17.143999099731445 L -12.822999954223633 17.107999801635742 L -12.321999549865723 16.999000549316406 L -11.842000007629395 16.81999969482422 L -11.392000198364258 16.573999404907227 L -11.138254165649414 16.384000778198242 L -10.982000350952148 16.267000198364258 M 85.60600280761719 -7.619999885559082 L 85.62699890136719 -7.379000186920166 L 85.69000244140625 -7.144999980926514 L 85.79199981689453 -6.925000190734863 L 85.93099975585938 -6.7270002365112305 L 86.01599884033203 -6.642000198364258 L 86.10199737548828 -6.556000232696533 L 86.30000305175781 -6.416999816894531 L 86.5199966430664 -6.315000057220459 L 86.75399780273438 -6.251999855041504 L 86.99500274658203 -6.230999946594238 L 87.23600006103516 -6.251999855041504 L 87.47000122070312 -6.315000057220459 L 87.69000244140625 -6.416999816894531 L 87.88800048828125 -6.556000232696533 L 88.05899810791016 -6.7270002365112305 L 88.06400299072266 -6.734122276306152 L 88.197998046875 -6.925000190734863 L 88.30000305175781 -7.144999980926514 L 88.36299896240234 -7.379000186920166 L 88.38400268554688 -7.619999885559082 L 88.36299896240234 -7.861000061035156 L 88.30000305175781 -8.095000267028809 L 88.2550277709961 -8.192000389099121 L 88.197998046875 -8.3149995803833 L 88.05899810791016 -8.512999534606934 L 87.88800048828125 -8.684000015258789 L 87.69000244140625 -8.822999954223633 L 87.47000122070312 -8.925000190734863 L 87.23600006103516 -8.98799991607666 L 86.99500274658203 -9.008999824523926 L 86.75399780273438 -8.98799991607666 L 86.5199966430664 -8.925000190734863 L 86.30000305175781 -8.822999954223633 L 86.10199737548828 -8.684000015258789 L 85.93099975585938 -8.512999534606934 L 85.79199981689453 -8.3149995803833 L 85.73497009277344 -8.192000389099121 L 85.69000244140625 -8.095000267028809 L 85.62699890136719 -7.861000061035156 L 85.60600280761719 -7.619999885559082 M -25.02199935913086 10.105999946594238 L -25.523000717163086 9.996999740600586 L -26.034000396728516 9.960000038146973 L -26.54599952697754 9.996999740600586 L -27.04599952697754 10.105999946594238 L -27.527000427246094 10.28499984741211 L -27.97599983215332 10.529999732971191 L -28.386999130249023 10.838000297546387 L -28.749000549316406 11.199999809265137 L -29.055999755859375 11.609999656677246 L -29.302000045776367 12.0600004196167 L -29.387025833129883 12.288000106811523 L -29.481000900268555 12.539999961853027 L -29.59000015258789 13.041000366210938 L -29.625999450683594 13.552000045776367 L -29.59000015258789 14.064000129699707 L -29.481000900268555 14.564000129699707 L -29.302000045776367 15.045000076293945 L -29.055999755859375 15.494000434875488 L -28.749000549316406 15.904999732971191 L -28.386999130249023 16.267000198364258 L -28.230365753173828 16.384000778198242 L -27.97599983215332 16.573999404907227 L -27.527000427246094 16.81999969482422 L -27.04599952697754 16.999000549316406 L -26.54599952697754 17.107999801635742 L -26.034000396728516 17.143999099731445 L -25.523000717163086 17.107999801635742 L -25.02199935913086 16.999000549316406 L -24.54199981689453 16.81999969482422 L -24.091999053955078 16.573999404907227 L -23.838254928588867 16.384000778198242 L -23.68199920654297 16.267000198364258 L -23.31999969482422 15.904999732971191 L -23.011999130249023 15.494000434875488 L -22.767000198364258 15.045000076293945 L -22.58799934387207 14.564000129699707 L -22.479000091552734 14.064000129699707 L -22.441999435424805 13.552000045776367 L -22.479000091552734 13.041000366210938 L -22.58799934387207 12.539999961853027 L -22.681974411010742 12.288000106811523 L -22.767000198364258 12.0600004196167 L -23.011999130249023 11.609999656677246 L -23.31999969482422 11.199999809265137 L -23.68199920654297 10.838000297546387 L -24.091999053955078 10.529999732971191 L -24.54199981689453 10.28499984741211 L -24.576000213623047 10.272320747375488 L -25.02199935913086 10.105999946594238 M -83.8359146118164 -4.0960001945495605 L -86.01599884033203 -4.0960001945495605 L -86.51399993896484 -6.144000053405762 L -90.11199951171875 1.1102230246251565e-16 L -81.91999816894531 1.1102230246251565e-16 L -83.8359146118164 -4.0960001945495605 z" fill="none" stroke="rgb(255,0,0)" stroke-width="0.001mm" />
</svg>