<?xml version="1.0" encoding="UTF-8" standalone="no"?>
<!DOCTYPE svg PUBLIC "-//W3C//DTD SVG 1.1//EN" "http://www.w3.org/Graphics/SVG/1.1/DTD/svg11.dtd">
<svg width="704px" height="200px" version="1.1" xmlns="http://www.w3.org/2000/svg" xmlns:xlink="http://www.w3.org/1999/xlink" xml:space="preserve" xmlns:serif="http://www.serif.com/" style="fill-rule:evenodd;clip-rule:evenodd;">
    <g transform="matrix(1.33333,0,0,1.33333,0,0)">
        <g id="Layer1">
            <g transform="matrix(1,0,0,1,45.382,-28.728)">
                <g transform="matrix(11,0,0,11,32.5753,122.978)">
                    <path d="M0.55,-0.358C0.55,-0.295 0.543,-0.241 0.53,-0.195C0.516,-0.149 0.498,-0.112 0.475,-0.082C0.451,-0.051 0.424,-0.029 0.392,-0.015C0.36,0 0.326,0.008 0.29,0.008C0.253,0.008 0.219,0 0.187,-0.015C0.156,-0.029 0.128,-0.051 0.105,-0.082C0.082,-0.112 0.063,-0.149 0.05,-0.195C0.037,-0.241 0.03,-0.295 0.03,-0.358C0.03,-0.421 0.037,-0.475 0.05,-0.521C0.063,-0.567 0.082,-0.605 0.105,-0.635C0.128,-0.665 0.156,-0.688 0.187,-0.703C0.219,-0.717 0.253,-0.725 0.29,-0.725C0.326,-0.725 0.36,-0.717 0.392,-0.703C0.424,-0.688 0.451,-0.665 0.475,-0.635C0.498,-0.605 0.516,-0.567 0.53,-0.521C0.543,-0.475 0.55,-0.421 0.55,-0.358ZM0.458,-0.358C0.458,-0.413 0.453,-0.459 0.444,-0.496C0.435,-0.533 0.422,-0.563 0.407,-0.586C0.391,-0.608 0.373,-0.624 0.353,-0.634C0.333,-0.644 0.312,-0.649 0.29,-0.649C0.268,-0.649 0.246,-0.644 0.226,-0.634C0.206,-0.624 0.188,-0.608 0.173,-0.586C0.157,-0.563 0.145,-0.533 0.136,-0.496C0.127,-0.459 0.122,-0.413 0.122,-0.358C0.122,-0.303 0.127,-0.258 0.136,-0.221C0.145,-0.184 0.157,-0.154 0.173,-0.131C0.188,-0.108 0.206,-0.092 0.226,-0.082C0.246,-0.072 0.268,-0.068 0.29,-0.068C0.312,-0.068 0.333,-0.072 0.353,-0.082C0.373,-0.092 0.391,-0.108 0.407,-0.131C0.422,-0.154 0.435,-0.184 0.444,-0.221C0.453,-0.258 0.458,-0.303 0.458,-0.358Z" style="fill-rule:nonzero;"/>
                </g>
            </g>
            <path d="M2.835,146.835L2.835,2.835L524.835,2.835L524.835,146.835L2.835,146.835" style="fill:none;fill-rule:nonzero;stroke:rgb(13,40,242);stroke-width:1px;"/>
            <path d="M287.855,113.25L287.957,114.701L288.266,116.118L288.774,117.482L289.471,118.755L290.341,119.92L291.368,120.946L292.533,121.816L293.805,122.513L295.169,123.021L296.586,123.33L298.037,123.432L299.486,123.33L300.906,123.021L302.267,122.513L303.542,121.816L304.705,120.946L305.731,119.92L306.604,118.755L307.298,117.482L307.806,116.118L308.115,114.701L308.22,113.25L308.115,111.801L307.806,110.381L307.298,109.02L306.604,107.745L305.731,106.583L304.705,105.557L303.542,104.683L302.267,103.989L300.906,103.482L299.486,103.173L298.037,103.068L296.586,103.173L295.169,103.482L293.805,103.989L292.533,104.683L291.368,105.557L290.341,106.583L289.471,107.745L288.774,109.02L288.533,109.667L288.266,110.381L287.957,111.801L287.855,113.25" style="fill:none;fill-rule:nonzero;stroke:rgb(13,40,242);stroke-width:1px;"/>
            <path d="M19.205,56.645L19.766,56.251L20.251,55.766L20.645,55.205L20.934,54.581L21.112,53.918L21.172,53.235L21.112,52.551L20.934,51.888L20.806,51.613L20.645,51.265L20.251,50.703L19.766,50.219L19.205,49.825L18.581,49.535L17.918,49.357L17.235,49.297L16.551,49.357L15.888,49.535L15.265,49.825L14.703,50.219L14.219,50.703L13.825,51.265L13.535,51.888L13.357,52.551L13.297,53.235L13.357,53.918L13.535,54.581L13.825,55.205L14.204,55.746L14.219,55.766L14.703,56.251L15.265,56.645L15.888,56.934L16.551,57.112L17.235,57.172L17.918,57.112L18.581,56.934L19.205,56.645" style="fill:none;fill-rule:nonzero;stroke:rgb(13,40,242);stroke-width:1px;"/>
            <path d="M268.705,120.946L269.731,119.92L270.604,118.755L271.298,117.482L271.806,116.118L272.115,114.701L272.22,113.25L272.115,111.801L271.806,110.381L271.298,109.02L270.604,107.745L269.731,106.583L268.705,105.557L267.542,104.683L266.267,103.989L264.906,103.482L263.835,103.248L263.486,103.173L262.037,103.068L260.586,103.173L259.169,103.482L257.805,103.989L256.533,104.683L255.368,105.557L254.341,106.583L253.471,107.745L252.774,109.02L252.266,110.381L251.957,111.801L251.855,113.25L251.957,114.701L252.266,116.118L252.774,117.482L253.471,118.755L254.341,119.92L255.368,120.946L255.812,121.277L256.533,121.816L257.805,122.513L259.169,123.021L260.586,123.33L262.037,123.432L263.486,123.33L264.906,123.021L266.267,122.513L267.542,121.816L268.262,121.277L268.705,120.946" style="fill:none;fill-rule:nonzero;stroke:rgb(13,40,242);stroke-width:1px;"/>
            <path d="M327.368,120.946L328.533,121.816L329.805,122.513L331.169,123.021L332.586,123.33L334.037,123.432L335.486,123.33L336.906,123.021L338.267,122.513L339.542,121.816L340.262,121.277L340.705,120.946L341.731,119.92L342.604,118.755L343.298,117.482L343.806,116.118L344.115,114.701L344.22,113.25L344.115,111.801L343.806,110.381L343.539,109.667L343.298,109.02L342.604,107.745L341.731,106.583L340.705,105.557L339.542,104.683L338.267,103.989L336.906,103.482L335.486,103.173L334.037,103.068L332.586,103.173L331.169,103.482L329.805,103.989L328.533,104.683L327.368,105.557L326.341,106.583L325.471,107.745L324.774,109.02L324.533,109.667L324.266,110.381L323.957,111.801L323.855,113.25L323.957,114.701L324.266,116.118L324.774,117.482L325.471,118.755L326.341,119.92L327.368,120.946" style="fill:none;fill-rule:nonzero;stroke:rgb(13,40,242);stroke-width:1px;"/>
            <path d="M113.805,122.513L115.169,123.021L116.586,123.33L118.037,123.432L119.486,123.33L120.906,123.021L122.267,122.513L123.542,121.816L124.262,121.277L124.705,120.946L125.731,119.92L126.604,118.755L127.298,117.482L127.806,116.118L128.115,114.701L128.22,113.25L128.115,111.801L127.806,110.381L127.298,109.02L126.604,107.745L125.731,106.583L124.705,105.557L123.542,104.683L122.267,103.989L120.906,103.482L119.486,103.173L118.037,103.068L116.586,103.173L115.169,103.482L113.805,103.989L112.533,104.683L111.368,105.557L110.341,106.583L109.471,107.745L108.774,109.02L108.266,110.381L107.957,111.801L107.855,113.25L107.957,114.701L108.266,116.118L108.774,117.482L109.471,118.755L110.341,119.92L111.368,120.946L112.533,121.816L113.805,122.513" style="fill:none;fill-rule:nonzero;stroke:rgb(13,40,242);stroke-width:1px;"/>
            <path d="M350.291,32.491L177.378,32.491L177.378,72.176L350.291,72.176L350.291,32.491" style="fill:none;fill-rule:nonzero;stroke:rgb(13,40,242);stroke-width:1px;"/>
            <path d="M399.368,120.946L400.533,121.816L401.805,122.513L403.163,123.019L403.169,123.021L404.586,123.33L406.037,123.432L407.486,123.33L408.906,123.021L410.267,122.513L411.542,121.816L412.262,121.277L412.705,120.946L413.731,119.92L414.604,118.755L415.298,117.482L415.806,116.118L416.115,114.701L416.22,113.25L416.115,111.801L415.806,110.381L415.298,109.02L414.604,107.745L413.731,106.583L412.705,105.557L411.542,104.683L410.267,103.989L408.906,103.482L407.486,103.173L406.037,103.068L404.586,103.173L403.169,103.482L401.805,103.989L400.533,104.683L399.368,105.557L398.341,106.583L397.471,107.745L396.774,109.02L396.266,110.381L395.957,111.801L395.855,113.25L395.957,114.701L396.266,116.118L396.774,117.482L397.471,118.755L398.341,119.92L399.368,120.946" style="fill:none;fill-rule:nonzero;stroke:rgb(13,40,242);stroke-width:1px;"/>
            <path d="M75.368,120.946L75.812,121.277L76.533,121.816L77.805,122.513L78.063,122.609L79.169,123.021L80.586,123.33L82.037,123.432L83.486,123.33L84.906,123.021L86.267,122.513L87.542,121.816L88.262,121.277L88.705,120.946L89.731,119.92L90.604,118.755L91.298,117.482L91.806,116.118L92.115,114.701L92.22,113.25L92.115,111.801L91.806,110.381L91.298,109.02L90.604,107.745L89.731,106.583L88.705,105.557L87.542,104.683L86.267,103.989L84.906,103.482L83.486,103.173L82.037,103.068L80.586,103.173L79.169,103.482L78.063,103.893L77.805,103.989L76.533,104.683L75.368,105.557L74.341,106.583L73.471,107.745L72.774,109.02L72.266,110.381L71.957,111.801L71.855,113.25L71.957,114.701L72.266,116.118L72.774,117.482L73.471,118.755L74.341,119.92L75.368,120.946" style="fill:none;fill-rule:nonzero;stroke:rgb(13,40,242);stroke-width:1px;"/>
            <path d="M448.705,120.946L449.606,120.044L449.731,119.92L450.604,118.755L451.298,117.482L451.806,116.118L452.115,114.701L452.22,113.25L452.115,111.801L451.806,110.381L451.298,109.02L450.604,107.745L449.731,106.583L449.606,106.458L448.705,105.557L447.542,104.683L446.267,103.989L444.906,103.482L443.486,103.173L442.037,103.068L440.586,103.173L439.169,103.482L437.805,103.989L436.533,104.683L435.368,105.557L434.341,106.583L433.471,107.745L432.774,109.02L432.266,110.381L431.957,111.801L431.855,113.25L431.957,114.701L432.266,116.118L432.774,117.482L433.471,118.755L434.341,119.92L435.368,120.946L436.533,121.816L437.805,122.513L439.169,123.021L440.586,123.33L442.037,123.432L443.486,123.33L444.906,123.021L446.267,122.513L447.542,121.816L448.262,121.277L448.705,120.946" style="fill:none;fill-rule:nonzero;stroke:rgb(13,40,242);stroke-width:1px;"/>
            <path d="M149.805,122.513L151.169,123.021L152.586,123.33L154.037,123.432L155.486,123.33L156.906,123.021L158.267,122.513L159.542,121.816L160.262,121.277L160.705,120.946L161.731,119.92L162.604,118.755L163.298,117.482L163.806,116.118L164.115,114.701L164.22,113.25L164.115,111.801L163.806,110.381L163.298,109.02L162.604,107.745L161.731,106.583L160.705,105.557L159.542,104.683L158.267,103.989L156.906,103.482L155.486,103.173L154.037,103.068L152.586,103.173L151.169,103.482L149.805,103.989L148.533,104.683L147.728,105.287L147.368,105.557L146.341,106.583L145.471,107.745L144.774,109.02L144.266,110.381L143.957,111.801L143.855,113.25L143.957,114.701L144.266,116.118L144.774,117.482L145.471,118.755L146.341,119.92L147.368,120.946L147.728,121.215L147.812,121.277L148.533,121.816L149.805,122.513" style="fill:none;fill-rule:nonzero;stroke:rgb(13,40,242);stroke-width:1px;"/>
            <path d="M423.315,65.849L424.902,65.375L426.385,64.719L426.419,64.704L427.836,63.845L429.131,62.813L430.285,61.622L431.277,60.293L432.091,58.847L432.714,57.311L433.134,55.706L433.346,54.062L433.346,52.407L433.244,51.613L433.134,50.763L432.714,49.158L432.091,47.622L431.277,46.176L430.285,44.847L429.131,43.656L427.836,42.625L426.419,41.766L426.385,41.751L424.902,41.094L423.315,40.62L421.676,40.357L420.021,40.303L418.371,40.462L416.752,40.833L415.199,41.406L413.728,42.171L412.367,43.121L411.14,44.235L410.066,45.496L409.161,46.885L408.441,48.379L407.92,49.952L407.602,51.579L407.6,51.613L407.497,53.235L407.602,54.89L407.92,56.517L408.441,58.09L409.161,59.584L410.066,60.973L411.14,62.235L412.23,63.224L412.367,63.349L413.728,64.298L415.199,65.064L416.752,65.636L418.371,66.008L420.021,66.166L421.676,66.112L423.315,65.849" style="fill:none;fill-rule:nonzero;stroke:rgb(13,40,242);stroke-width:1px;"/>
            <path d="M89.235,63.417L90.683,63.315L92.103,63.006L93.464,62.495L94.74,61.801L95.902,60.931L96.931,59.902L97.801,58.74L98.495,57.464L99.006,56.103L99.315,54.683L99.417,53.235L99.315,51.786L99.006,50.366L98.495,49.005L97.801,47.73L96.931,46.568L95.902,45.539L94.74,44.668L93.464,43.974L92.103,43.464L90.683,43.155L89.235,43.053L87.786,43.155L86.366,43.464L85.005,43.974L83.73,44.668L82.568,45.539L81.539,46.568L80.668,47.73L79.974,49.005L79.464,50.366L79.192,51.613L79.155,51.786L79.053,53.235L79.155,54.683L79.464,56.103L79.974,57.464L80.668,58.74L81.539,59.902L82.568,60.931L83.73,61.801L85.005,62.495L86.366,63.006L87.786,63.315L89.235,63.417" style="fill:none;fill-rule:nonzero;stroke:rgb(13,40,242);stroke-width:1px;"/>
            <path d="M232.705,120.946L233.731,119.92L234.604,118.755L235.298,117.482L235.806,116.118L236.115,114.701L236.22,113.25L236.115,111.801L235.806,110.381L235.298,109.02L234.604,107.745L233.731,106.583L232.705,105.557L231.542,104.683L230.267,103.989L228.906,103.482L227.486,103.173L226.037,103.068L224.586,103.173L223.169,103.482L221.805,103.989L220.533,104.683L219.368,105.557L218.341,106.583L217.471,107.745L216.774,109.02L216.266,110.381L215.957,111.801L215.855,113.25L215.957,114.701L216.266,116.118L216.774,117.482L217.471,118.755L218.341,119.92L219.368,120.946L219.812,121.277L220.533,121.816L221.805,122.513L223.169,123.021L224.586,123.33L226.037,123.432L227.486,123.33L228.906,123.021L230.267,122.513L231.542,121.816L232.262,121.277L232.705,120.946" style="fill:none;fill-rule:nonzero;stroke:rgb(13,40,242);stroke-width:1px;"/>
            <path d="M506.497,53.235L506.557,53.918L506.735,54.581L507.025,55.205L507.419,55.766L507.903,56.251L508.465,56.645L509.088,56.934L509.751,57.112L510.435,57.172L511.118,57.112L511.781,56.934L512.405,56.645L512.966,56.251L513.451,55.766L513.465,55.746L513.845,55.205L514.134,54.581L514.312,53.918L514.372,53.235L514.312,52.551L514.134,51.888L513.845,51.265L513.451,50.703L512.966,50.219L512.405,49.825L511.781,49.535L511.118,49.357L510.435,49.297L509.751,49.357L509.088,49.535L508.465,49.825L507.903,50.219L507.419,50.703L507.025,51.265L506.863,51.613L506.735,51.888L506.557,52.551L506.497,53.235" style="fill:none;fill-rule:nonzero;stroke:rgb(13,40,242);stroke-width:1px;"/>
            <path d="M192.906,103.482L191.486,103.173L190.037,103.068L188.586,103.173L187.169,103.482L185.805,103.989L184.533,104.683L183.368,105.557L182.341,106.583L181.471,107.745L180.774,109.02L180.266,110.381L179.957,111.801L179.855,113.25L179.957,114.701L180.266,116.118L180.774,117.482L181.471,118.755L182.341,119.92L183.368,120.946L183.812,121.277L184.533,121.816L185.805,122.513L187.169,123.021L188.586,123.33L190.037,123.432L191.486,123.33L192.906,123.021L194.267,122.513L195.542,121.816L196.705,120.946L197.731,119.92L198.604,118.755L199.298,117.482L199.806,116.118L200.115,114.701L200.22,113.25L200.115,111.801L199.806,110.381L199.298,109.02L198.604,107.745L197.731,106.583L196.705,105.557L195.542,104.683L194.267,103.989L192.906,103.482" style="fill:none;fill-rule:nonzero;stroke:rgb(13,40,242);stroke-width:1px;"/>
            <g transform="matrix(1,0,0,1,189.42,-29.493)">
                <g transform="matrix(11,0,0,11,32.5753,122.978)">
                    <path d="M0.365,-0.259L0.365,-0.554C0.365,-0.563 0.365,-0.572 0.366,-0.583C0.367,-0.593 0.368,-0.603 0.369,-0.614L0.108,-0.259L0.365,-0.259ZM0.552,-0.259L0.552,-0.208C0.552,-0.202 0.55,-0.198 0.547,-0.194C0.544,-0.19 0.539,-0.189 0.532,-0.189L0.443,-0.189L0.443,-0L0.365,-0L0.365,-0.189L0.047,-0.189C0.04,-0.189 0.035,-0.19 0.03,-0.194C0.025,-0.198 0.022,-0.203 0.021,-0.209L0.012,-0.254L0.36,-0.717L0.443,-0.717L0.443,-0.259L0.552,-0.259Z" style="fill-rule:nonzero;"/>
                </g>
            </g>
            <g transform="matrix(1,0,0,1,81.337,-28.7225)">
                <g transform="matrix(11,0,0,11,32.5753,122.978)">
                    <path d="M0.509,-0.068L0.509,-0L0.125,-0L0.125,-0.068L0.279,-0.068L0.279,-0.557C0.279,-0.571 0.279,-0.586 0.28,-0.601L0.153,-0.492C0.148,-0.488 0.144,-0.486 0.14,-0.485C0.135,-0.484 0.131,-0.484 0.128,-0.485C0.124,-0.485 0.12,-0.487 0.117,-0.489C0.114,-0.491 0.112,-0.493 0.11,-0.495L0.082,-0.534L0.296,-0.718L0.368,-0.718L0.368,-0.068L0.509,-0.068Z" style="fill-rule:nonzero;"/>
                </g>
            </g>
            <g transform="matrix(1,0,0,1,225.26,-28.7747)">
                <g transform="matrix(11,0,0,11,32.5753,122.978)">
                    <path d="M0.181,-0.446C0.218,-0.454 0.253,-0.458 0.284,-0.458C0.321,-0.458 0.354,-0.452 0.383,-0.442C0.412,-0.431 0.436,-0.415 0.455,-0.396C0.474,-0.377 0.488,-0.354 0.498,-0.328C0.508,-0.301 0.513,-0.273 0.513,-0.242C0.513,-0.204 0.506,-0.169 0.493,-0.139C0.48,-0.108 0.462,-0.082 0.439,-0.06C0.416,-0.038 0.388,-0.021 0.357,-0.01C0.326,0.002 0.292,0.008 0.256,0.008C0.235,0.008 0.214,0.006 0.195,0.002C0.176,-0.002 0.158,-0.008 0.141,-0.015C0.124,-0.022 0.108,-0.03 0.094,-0.039C0.08,-0.048 0.067,-0.057 0.056,-0.068L0.084,-0.106C0.09,-0.114 0.097,-0.119 0.107,-0.119C0.114,-0.119 0.121,-0.116 0.13,-0.111C0.138,-0.106 0.148,-0.1 0.16,-0.094C0.172,-0.087 0.186,-0.081 0.202,-0.076C0.218,-0.071 0.238,-0.069 0.26,-0.069C0.285,-0.069 0.308,-0.073 0.328,-0.081C0.347,-0.089 0.365,-0.1 0.379,-0.115C0.393,-0.13 0.404,-0.147 0.412,-0.168C0.42,-0.189 0.424,-0.212 0.424,-0.238C0.424,-0.26 0.42,-0.28 0.414,-0.298C0.407,-0.316 0.397,-0.331 0.384,-0.344C0.371,-0.357 0.355,-0.367 0.335,-0.374C0.315,-0.381 0.292,-0.384 0.266,-0.384C0.248,-0.384 0.229,-0.383 0.21,-0.38C0.19,-0.377 0.17,-0.372 0.15,-0.365L0.094,-0.382L0.152,-0.717L0.491,-0.717L0.491,-0.678C0.491,-0.665 0.487,-0.654 0.479,-0.646C0.471,-0.638 0.458,-0.634 0.439,-0.634L0.214,-0.634L0.181,-0.446Z" style="fill-rule:nonzero;"/>
                </g>
            </g>
            <g transform="matrix(1,0,0,1,118.016,-28.6867)">
                <g transform="matrix(11,0,0,11,32.5753,122.978)">
                    <path d="M0.494,-0.085C0.503,-0.085 0.511,-0.082 0.517,-0.076C0.522,-0.07 0.525,-0.063 0.525,-0.054L0.525,-0L0.047,-0L0.047,-0.031C0.047,-0.037 0.048,-0.043 0.051,-0.05C0.054,-0.057 0.058,-0.063 0.064,-0.069L0.293,-0.299C0.312,-0.318 0.329,-0.337 0.345,-0.355C0.361,-0.373 0.374,-0.391 0.385,-0.409C0.396,-0.427 0.405,-0.445 0.411,-0.463C0.417,-0.482 0.42,-0.501 0.42,-0.523C0.42,-0.544 0.416,-0.562 0.41,-0.578C0.403,-0.594 0.394,-0.607 0.382,-0.617C0.371,-0.627 0.357,-0.635 0.342,-0.64C0.326,-0.645 0.309,-0.648 0.291,-0.648C0.273,-0.648 0.256,-0.645 0.241,-0.64C0.225,-0.635 0.212,-0.627 0.2,-0.618C0.188,-0.608 0.178,-0.597 0.17,-0.584C0.162,-0.571 0.156,-0.557 0.153,-0.541C0.149,-0.529 0.144,-0.522 0.137,-0.518C0.13,-0.514 0.12,-0.513 0.108,-0.515L0.062,-0.523C0.066,-0.555 0.075,-0.584 0.089,-0.609C0.102,-0.634 0.119,-0.656 0.14,-0.673C0.16,-0.69 0.184,-0.702 0.21,-0.711C0.236,-0.72 0.265,-0.725 0.296,-0.725C0.326,-0.725 0.354,-0.72 0.381,-0.711C0.407,-0.702 0.43,-0.689 0.449,-0.672C0.468,-0.655 0.484,-0.634 0.495,-0.609C0.505,-0.584 0.511,-0.556 0.511,-0.525C0.511,-0.498 0.507,-0.474 0.499,-0.451C0.491,-0.428 0.48,-0.406 0.467,-0.386C0.453,-0.365 0.437,-0.345 0.419,-0.325C0.401,-0.305 0.383,-0.286 0.363,-0.266L0.174,-0.073C0.187,-0.076 0.2,-0.079 0.214,-0.081C0.228,-0.083 0.241,-0.085 0.254,-0.085L0.494,-0.085Z" style="fill-rule:nonzero;"/>
                </g>
            </g>
            <g transform="matrix(1,0,0,1,260.785,-28.7747)">
                <g transform="matrix(11,0,0,11,32.5753,122.978)">
                    <path d="M0.289,-0.066C0.313,-0.066 0.335,-0.07 0.354,-0.078C0.374,-0.085 0.39,-0.096 0.404,-0.11C0.418,-0.123 0.429,-0.139 0.436,-0.158C0.444,-0.177 0.448,-0.197 0.448,-0.219C0.448,-0.242 0.444,-0.263 0.437,-0.282C0.429,-0.301 0.419,-0.317 0.405,-0.33C0.392,-0.343 0.376,-0.354 0.357,-0.361C0.338,-0.368 0.318,-0.371 0.296,-0.371C0.272,-0.371 0.25,-0.367 0.231,-0.359C0.211,-0.351 0.195,-0.34 0.181,-0.326C0.168,-0.312 0.157,-0.296 0.15,-0.278C0.143,-0.26 0.14,-0.241 0.14,-0.221C0.14,-0.198 0.143,-0.177 0.15,-0.158C0.156,-0.139 0.166,-0.123 0.179,-0.109C0.192,-0.095 0.207,-0.085 0.226,-0.077C0.244,-0.07 0.265,-0.066 0.289,-0.066ZM0.237,-0.448C0.231,-0.44 0.225,-0.432 0.219,-0.425C0.213,-0.417 0.207,-0.41 0.202,-0.403C0.219,-0.414 0.238,-0.423 0.258,-0.43C0.278,-0.436 0.301,-0.439 0.325,-0.439C0.354,-0.439 0.381,-0.434 0.407,-0.425C0.432,-0.415 0.455,-0.401 0.474,-0.383C0.493,-0.365 0.508,-0.343 0.52,-0.316C0.531,-0.29 0.537,-0.26 0.537,-0.226C0.537,-0.193 0.531,-0.162 0.519,-0.134C0.507,-0.105 0.49,-0.081 0.468,-0.06C0.447,-0.039 0.421,-0.022 0.391,-0.01C0.361,0.002 0.327,0.008 0.291,0.008C0.255,0.008 0.222,0.002 0.193,-0.009C0.164,-0.021 0.139,-0.037 0.118,-0.058C0.098,-0.079 0.082,-0.105 0.071,-0.135C0.06,-0.165 0.054,-0.199 0.054,-0.237C0.054,-0.268 0.061,-0.301 0.075,-0.337C0.089,-0.372 0.111,-0.41 0.141,-0.451L0.323,-0.695C0.328,-0.701 0.334,-0.706 0.342,-0.71C0.35,-0.714 0.36,-0.717 0.371,-0.717L0.45,-0.717L0.237,-0.448Z" style="fill-rule:nonzero;"/>
                </g>
            </g>
            <g transform="matrix(1,0,0,1,152.888,-28.7307)">
                <g transform="matrix(11,0,0,11,32.5753,122.978)">
                    <path d="M0.065,-0.523C0.07,-0.555 0.079,-0.584 0.092,-0.609C0.105,-0.634 0.122,-0.656 0.143,-0.673C0.163,-0.69 0.187,-0.702 0.213,-0.711C0.24,-0.72 0.268,-0.725 0.299,-0.725C0.329,-0.725 0.357,-0.72 0.383,-0.712C0.409,-0.703 0.431,-0.691 0.449,-0.675C0.468,-0.659 0.482,-0.639 0.493,-0.617C0.503,-0.594 0.508,-0.569 0.508,-0.541C0.508,-0.518 0.505,-0.498 0.499,-0.48C0.493,-0.462 0.485,-0.447 0.474,-0.434C0.463,-0.42 0.45,-0.409 0.435,-0.4C0.42,-0.39 0.403,-0.383 0.384,-0.377C0.43,-0.365 0.465,-0.344 0.489,-0.315C0.512,-0.286 0.524,-0.249 0.524,-0.206C0.524,-0.173 0.518,-0.143 0.505,-0.117C0.493,-0.09 0.476,-0.068 0.454,-0.049C0.432,-0.031 0.407,-0.017 0.378,-0.007C0.349,0.003 0.319,0.008 0.286,0.008C0.248,0.008 0.215,0.003 0.188,-0.006C0.161,-0.016 0.138,-0.029 0.12,-0.046C0.101,-0.062 0.086,-0.082 0.074,-0.105C0.062,-0.128 0.051,-0.152 0.043,-0.179L0.082,-0.195C0.092,-0.199 0.101,-0.201 0.111,-0.199C0.12,-0.197 0.127,-0.191 0.132,-0.182C0.136,-0.173 0.141,-0.162 0.148,-0.149C0.154,-0.135 0.163,-0.123 0.175,-0.111C0.186,-0.099 0.2,-0.089 0.218,-0.081C0.235,-0.072 0.258,-0.068 0.285,-0.068C0.31,-0.068 0.331,-0.072 0.35,-0.08C0.369,-0.088 0.385,-0.099 0.397,-0.112C0.41,-0.125 0.419,-0.139 0.426,-0.156C0.432,-0.171 0.435,-0.187 0.435,-0.203C0.435,-0.222 0.432,-0.24 0.428,-0.256C0.423,-0.272 0.413,-0.286 0.4,-0.298C0.386,-0.309 0.367,-0.318 0.343,-0.325C0.319,-0.332 0.289,-0.335 0.252,-0.335L0.252,-0.4C0.282,-0.4 0.308,-0.403 0.33,-0.41C0.351,-0.416 0.369,-0.424 0.382,-0.436C0.396,-0.447 0.406,-0.46 0.412,-0.475C0.418,-0.49 0.421,-0.507 0.421,-0.526C0.421,-0.547 0.418,-0.565 0.411,-0.58C0.405,-0.595 0.396,-0.608 0.385,-0.618C0.373,-0.628 0.36,-0.635 0.344,-0.641C0.329,-0.646 0.312,-0.648 0.294,-0.648C0.276,-0.648 0.259,-0.645 0.244,-0.64C0.228,-0.635 0.215,-0.627 0.203,-0.618C0.191,-0.608 0.181,-0.597 0.173,-0.584C0.165,-0.571 0.159,-0.557 0.156,-0.541C0.152,-0.529 0.146,-0.522 0.14,-0.518C0.133,-0.514 0.124,-0.513 0.112,-0.515L0.065,-0.523Z" style="fill-rule:nonzero;"/>
                </g>
            </g>
            <g transform="matrix(1,0,0,1,297.55,-28.7307)">
                <g transform="matrix(11,0,0,11,32.5753,122.978)">
                    <path d="M0.541,-0.717L0.541,-0.677C0.541,-0.665 0.539,-0.656 0.537,-0.649C0.534,-0.641 0.532,-0.635 0.53,-0.63L0.233,-0.032C0.228,-0.023 0.222,-0.015 0.215,-0.009C0.207,-0.003 0.197,-0 0.184,-0L0.12,-0L0.421,-0.591C0.425,-0.599 0.43,-0.607 0.435,-0.614C0.439,-0.621 0.444,-0.628 0.45,-0.634L0.076,-0.634C0.07,-0.634 0.065,-0.636 0.061,-0.641C0.056,-0.645 0.054,-0.65 0.054,-0.656L0.054,-0.717L0.541,-0.717Z" style="fill-rule:nonzero;"/>
                </g>
            </g>
            <g transform="matrix(1,0,0,1,333.631,-5.73208)">
                <g transform="matrix(11,0,0,11,32.5753,122.978)">
                    <path d="M0.595,-0.148C0.6,-0.148 0.605,-0.146 0.609,-0.142L0.647,-0.1C0.618,-0.066 0.582,-0.04 0.54,-0.021C0.498,-0.002 0.448,0.008 0.389,0.008C0.337,0.008 0.291,-0.001 0.249,-0.019C0.206,-0.037 0.171,-0.062 0.141,-0.094C0.111,-0.126 0.088,-0.165 0.072,-0.21C0.056,-0.255 0.048,-0.304 0.048,-0.358C0.048,-0.412 0.056,-0.462 0.073,-0.507C0.09,-0.552 0.114,-0.59 0.145,-0.623C0.176,-0.655 0.213,-0.68 0.256,-0.698C0.299,-0.716 0.346,-0.725 0.398,-0.725C0.449,-0.725 0.494,-0.716 0.533,-0.7C0.572,-0.684 0.606,-0.662 0.636,-0.634L0.604,-0.589C0.602,-0.586 0.599,-0.583 0.596,-0.581C0.593,-0.579 0.589,-0.578 0.584,-0.578C0.578,-0.578 0.57,-0.581 0.562,-0.587C0.553,-0.594 0.542,-0.601 0.528,-0.609C0.514,-0.617 0.496,-0.624 0.475,-0.631C0.454,-0.637 0.428,-0.641 0.398,-0.641C0.361,-0.641 0.327,-0.634 0.296,-0.621C0.265,-0.608 0.239,-0.59 0.217,-0.566C0.195,-0.541 0.177,-0.511 0.165,-0.477C0.153,-0.442 0.147,-0.402 0.147,-0.358C0.147,-0.313 0.153,-0.274 0.166,-0.239C0.179,-0.204 0.196,-0.174 0.218,-0.15C0.24,-0.126 0.267,-0.107 0.297,-0.095C0.327,-0.082 0.36,-0.076 0.395,-0.076C0.416,-0.076 0.435,-0.077 0.452,-0.079C0.469,-0.082 0.485,-0.086 0.5,-0.091C0.514,-0.096 0.528,-0.103 0.54,-0.111C0.553,-0.119 0.565,-0.129 0.578,-0.141C0.583,-0.146 0.589,-0.148 0.595,-0.148Z" style="fill-rule:nonzero;"/>
                </g>
                <g transform="matrix(11,0,0,11,39.9233,122.978)">
                    <path d="M0.498,-0.082L0.498,-0L0.092,-0L0.092,-0.717L0.188,-0.717L0.188,-0.082L0.498,-0.082Z" style="fill-rule:nonzero;"/>
                </g>
                <g transform="matrix(11,0,0,11,45.5718,122.978)">
                    <path d="M0.29,-0.37C0.318,-0.37 0.343,-0.373 0.364,-0.38C0.386,-0.387 0.404,-0.396 0.418,-0.409C0.433,-0.421 0.444,-0.436 0.451,-0.454C0.458,-0.471 0.462,-0.49 0.462,-0.511C0.462,-0.554 0.448,-0.586 0.42,-0.608C0.392,-0.629 0.35,-0.64 0.294,-0.64L0.188,-0.64L0.188,-0.37L0.29,-0.37ZM0.621,-0L0.535,-0C0.517,-0 0.504,-0.007 0.496,-0.021L0.31,-0.277C0.304,-0.284 0.298,-0.29 0.292,-0.294C0.285,-0.297 0.275,-0.299 0.262,-0.299L0.188,-0.299L0.188,-0L0.092,-0L0.092,-0.717L0.294,-0.717C0.339,-0.717 0.379,-0.712 0.412,-0.703C0.445,-0.694 0.472,-0.68 0.493,-0.663C0.515,-0.646 0.531,-0.625 0.541,-0.6C0.551,-0.576 0.557,-0.548 0.557,-0.518C0.557,-0.493 0.553,-0.469 0.545,-0.447C0.537,-0.425 0.525,-0.405 0.51,-0.388C0.495,-0.37 0.476,-0.355 0.454,-0.343C0.432,-0.331 0.408,-0.321 0.38,-0.315C0.392,-0.308 0.403,-0.298 0.412,-0.285L0.621,-0Z" style="fill-rule:nonzero;"/>
                </g>
            </g>
            <g transform="matrix(1,0,0,1,40.3539,-89.3843)">
                <g transform="matrix(11,0,0,11,32.5753,122.978)">
                    <rect x="0.092" y="-0.717" width="0.097" height="0.717" style="fill-rule:nonzero;"/>
                </g>
                <g transform="matrix(11,0,0,11,35.6553,122.978)">
                    <path d="M0.713,-0.358C0.713,-0.304 0.704,-0.256 0.687,-0.212C0.67,-0.167 0.646,-0.13 0.615,-0.099C0.584,-0.067 0.547,-0.043 0.503,-0.026C0.46,-0.009 0.412,-0 0.359,-0L0.092,-0L0.092,-0.717L0.359,-0.717C0.412,-0.717 0.46,-0.708 0.503,-0.691C0.547,-0.674 0.584,-0.649 0.615,-0.618C0.646,-0.586 0.67,-0.549 0.687,-0.505C0.704,-0.46 0.713,-0.412 0.713,-0.358ZM0.613,-0.358C0.613,-0.402 0.607,-0.441 0.595,-0.476C0.583,-0.511 0.566,-0.54 0.544,-0.564C0.522,-0.588 0.495,-0.606 0.464,-0.619C0.433,-0.632 0.398,-0.638 0.359,-0.638L0.189,-0.638L0.189,-0.079L0.359,-0.079C0.398,-0.079 0.433,-0.085 0.464,-0.098C0.495,-0.11 0.522,-0.128 0.544,-0.152C0.566,-0.176 0.583,-0.205 0.595,-0.24C0.607,-0.275 0.613,-0.314 0.613,-0.358Z" style="fill-rule:nonzero;"/>
                </g>
                <g transform="matrix(11,0,0,11,44.0208,122.978)">
                    <path d="M0.534,-0.079L0.533,-0L0.092,-0L0.092,-0.717L0.533,-0.717L0.533,-0.638L0.189,-0.638L0.189,-0.4L0.468,-0.4L0.468,-0.324L0.189,-0.324L0.189,-0.079L0.534,-0.079Z" style="fill-rule:nonzero;"/>
                </g>
                <g transform="matrix(11,0,0,11,50.3733,122.978)">
                    <path d="M0.672,-0.717L0.672,-0L0.624,-0C0.616,-0 0.609,-0.001 0.604,-0.004C0.599,-0.007 0.594,-0.011 0.589,-0.018L0.175,-0.558C0.175,-0.549 0.176,-0.541 0.176,-0.533C0.176,-0.525 0.177,-0.518 0.177,-0.511L0.177,-0L0.092,-0L0.092,-0.717L0.142,-0.717C0.146,-0.717 0.15,-0.716 0.153,-0.716C0.156,-0.715 0.158,-0.714 0.161,-0.713C0.163,-0.712 0.165,-0.71 0.168,-0.708C0.17,-0.706 0.172,-0.703 0.175,-0.7L0.59,-0.161C0.589,-0.169 0.588,-0.178 0.588,-0.186C0.587,-0.194 0.587,-0.202 0.587,-0.209L0.587,-0.717L0.672,-0.717Z" style="fill-rule:nonzero;"/>
                </g>
                <g transform="matrix(11,0,0,11,58.7718,122.978)">
                    <path d="M0.576,-0.635L0.344,-0.635L0.344,-0L0.248,-0L0.248,-0.635L0.015,-0.635L0.015,-0.717L0.576,-0.717L0.576,-0.635Z" style="fill-rule:nonzero;"/>
                </g>
            </g>
            <g transform="matrix(1,0,0,1,450.873,-108.077)">
                <g transform="matrix(11,0,0,11,32.5753,122.978)">
                    <path d="M0.638,-0L0.542,-0C0.535,-0 0.529,-0.002 0.525,-0.006C0.521,-0.01 0.517,-0.014 0.515,-0.019L0.323,-0.32C0.32,-0.312 0.317,-0.305 0.314,-0.299L0.127,-0.019C0.123,-0.014 0.12,-0.01 0.116,-0.006C0.112,-0.002 0.107,-0 0.1,-0L0.01,-0L0.257,-0.368L0.02,-0.717L0.117,-0.717C0.124,-0.717 0.129,-0.715 0.132,-0.713C0.135,-0.711 0.138,-0.707 0.141,-0.703L0.328,-0.416C0.33,-0.423 0.334,-0.431 0.339,-0.439L0.515,-0.701C0.518,-0.706 0.521,-0.709 0.525,-0.712C0.528,-0.715 0.533,-0.717 0.538,-0.717L0.63,-0.717L0.393,-0.373L0.638,-0Z" style="fill-rule:nonzero;"/>
                </g>
                <g transform="matrix(11,0,0,11,39.7143,122.978)">
                    <path d="M0.303,-0.345C0.331,-0.345 0.355,-0.349 0.376,-0.356C0.397,-0.363 0.415,-0.374 0.43,-0.387C0.444,-0.4 0.455,-0.416 0.463,-0.434C0.47,-0.452 0.474,-0.472 0.474,-0.495C0.474,-0.54 0.459,-0.576 0.431,-0.602C0.403,-0.627 0.36,-0.64 0.303,-0.64L0.188,-0.64L0.188,-0.345L0.303,-0.345ZM0.303,-0.717C0.348,-0.717 0.388,-0.711 0.421,-0.701C0.455,-0.69 0.483,-0.675 0.505,-0.656C0.527,-0.637 0.543,-0.613 0.554,-0.586C0.565,-0.559 0.57,-0.528 0.57,-0.495C0.57,-0.461 0.564,-0.431 0.553,-0.403C0.541,-0.375 0.524,-0.352 0.501,-0.332C0.479,-0.312 0.451,-0.296 0.418,-0.285C0.385,-0.274 0.346,-0.268 0.303,-0.268L0.188,-0.268L0.188,-0L0.092,-0L0.092,-0.717L0.303,-0.717Z" style="fill-rule:nonzero;"/>
                </g>
                <g transform="matrix(11,0,0,11,46.3198,122.978)">
                    <path d="M0.672,-0.717L0.672,-0L0.624,-0C0.616,-0 0.609,-0.001 0.604,-0.004C0.599,-0.007 0.594,-0.011 0.589,-0.018L0.175,-0.558C0.175,-0.549 0.176,-0.541 0.176,-0.533C0.176,-0.525 0.177,-0.518 0.177,-0.511L0.177,-0L0.092,-0L0.092,-0.717L0.142,-0.717C0.146,-0.717 0.15,-0.716 0.153,-0.716C0.156,-0.715 0.158,-0.714 0.161,-0.713C0.163,-0.712 0.165,-0.71 0.168,-0.708C0.17,-0.706 0.172,-0.703 0.175,-0.7L0.59,-0.161C0.589,-0.169 0.588,-0.178 0.588,-0.186C0.587,-0.194 0.587,-0.202 0.587,-0.209L0.587,-0.717L0.672,-0.717Z" style="fill-rule:nonzero;"/>
                </g>
                <g transform="matrix(11,0,0,11,54.7183,122.978)">
                    <path d="M0.713,-0.358C0.713,-0.304 0.704,-0.256 0.687,-0.212C0.67,-0.167 0.646,-0.13 0.615,-0.099C0.584,-0.067 0.547,-0.043 0.503,-0.026C0.46,-0.009 0.412,-0 0.359,-0L0.092,-0L0.092,-0.717L0.359,-0.717C0.412,-0.717 0.46,-0.708 0.503,-0.691C0.547,-0.674 0.584,-0.649 0.615,-0.618C0.646,-0.586 0.67,-0.549 0.687,-0.505C0.704,-0.46 0.713,-0.412 0.713,-0.358ZM0.613,-0.358C0.613,-0.402 0.607,-0.441 0.595,-0.476C0.583,-0.511 0.566,-0.54 0.544,-0.564C0.522,-0.588 0.495,-0.606 0.464,-0.619C0.433,-0.632 0.398,-0.638 0.359,-0.638L0.189,-0.638L0.189,-0.079L0.359,-0.079C0.398,-0.079 0.433,-0.085 0.464,-0.098C0.495,-0.11 0.522,-0.128 0.544,-0.152C0.566,-0.176 0.583,-0.205 0.595,-0.24C0.607,-0.275 0.613,-0.314 0.613,-0.358Z" style="fill-rule:nonzero;"/>
                </g>
                <g transform="matrix(11,0,0,11,63.0838,122.978)">
                    <path d="M0.29,-0.37C0.318,-0.37 0.343,-0.373 0.364,-0.38C0.386,-0.387 0.404,-0.396 0.418,-0.409C0.433,-0.421 0.444,-0.436 0.451,-0.454C0.458,-0.471 0.462,-0.49 0.462,-0.511C0.462,-0.554 0.448,-0.586 0.42,-0.608C0.392,-0.629 0.35,-0.64 0.294,-0.64L0.188,-0.64L0.188,-0.37L0.29,-0.37ZM0.621,-0L0.535,-0C0.517,-0 0.504,-0.007 0.496,-0.021L0.31,-0.277C0.304,-0.284 0.298,-0.29 0.292,-0.294C0.285,-0.297 0.275,-0.299 0.262,-0.299L0.188,-0.299L0.188,-0L0.092,-0L0.092,-0.717L0.294,-0.717C0.339,-0.717 0.379,-0.712 0.412,-0.703C0.445,-0.694 0.472,-0.68 0.493,-0.663C0.515,-0.646 0.531,-0.625 0.541,-0.6C0.551,-0.576 0.557,-0.548 0.557,-0.518C0.557,-0.493 0.553,-0.469 0.545,-0.447C0.537,-0.425 0.525,-0.405 0.51,-0.388C0.495,-0.37 0.476,-0.355 0.454,-0.343C0.432,-0.331 0.408,-0.321 0.38,-0.315C0.392,-0.308 0.403,-0.298 0.412,-0.285L0.621,-0Z" style="fill-rule:nonzero;"/>
                </g>
            </g>
            <g transform="matrix(1,0,0,1,364.987,-37.1456)">
                <g transform="matrix(11,0,0,11,32.5753,122.978)">
                    <path d="M0.754,-0.358C0.754,-0.304 0.745,-0.255 0.728,-0.21C0.711,-0.165 0.687,-0.127 0.656,-0.095C0.625,-0.062 0.588,-0.037 0.544,-0.019C0.501,-0.001 0.453,0.008 0.4,0.008C0.347,0.008 0.299,-0.001 0.256,-0.019C0.213,-0.037 0.175,-0.062 0.145,-0.095C0.114,-0.127 0.09,-0.165 0.073,-0.21C0.055,-0.255 0.047,-0.304 0.047,-0.358C0.047,-0.412 0.055,-0.461 0.073,-0.506C0.09,-0.551 0.114,-0.589 0.145,-0.622C0.175,-0.654 0.213,-0.68 0.256,-0.698C0.299,-0.716 0.347,-0.725 0.4,-0.725C0.453,-0.725 0.501,-0.716 0.544,-0.698C0.588,-0.68 0.625,-0.654 0.656,-0.622C0.687,-0.589 0.711,-0.551 0.728,-0.506C0.745,-0.461 0.754,-0.412 0.754,-0.358ZM0.654,-0.358C0.654,-0.402 0.648,-0.442 0.636,-0.477C0.624,-0.511 0.607,-0.541 0.585,-0.565C0.563,-0.589 0.536,-0.608 0.505,-0.621C0.474,-0.634 0.439,-0.641 0.4,-0.641C0.362,-0.641 0.327,-0.634 0.296,-0.621C0.264,-0.608 0.237,-0.589 0.215,-0.565C0.193,-0.541 0.176,-0.511 0.164,-0.477C0.152,-0.442 0.146,-0.402 0.146,-0.358C0.146,-0.314 0.152,-0.275 0.164,-0.24C0.176,-0.205 0.193,-0.175 0.215,-0.151C0.237,-0.127 0.264,-0.109 0.296,-0.096C0.327,-0.083 0.362,-0.077 0.4,-0.077C0.439,-0.077 0.474,-0.083 0.505,-0.096C0.536,-0.109 0.563,-0.127 0.585,-0.151C0.607,-0.175 0.624,-0.205 0.636,-0.24C0.648,-0.275 0.654,-0.314 0.654,-0.358Z" style="fill-rule:nonzero;"/>
                </g>
                <g transform="matrix(11,0,0,11,41.3808,122.978)">
                    <path d="M0.189,-0.638L0.189,-0.387L0.483,-0.387L0.483,-0.308L0.189,-0.308L0.189,-0L0.092,-0L0.092,-0.717L0.533,-0.717L0.533,-0.638L0.189,-0.638Z" style="fill-rule:nonzero;"/>
                </g>
                <g transform="matrix(11,0,0,11,47.6013,122.978)">
                    <path d="M0.189,-0.638L0.189,-0.387L0.483,-0.387L0.483,-0.308L0.189,-0.308L0.189,-0L0.092,-0L0.092,-0.717L0.533,-0.717L0.533,-0.638L0.189,-0.638Z" style="fill-rule:nonzero;"/>
                </g>
            </g>
            <g transform="matrix(1,0,0,1,343.886,-51.1992)">
                <g transform="matrix(11,0,0,11,32.5753,122.978)">
                    <path d="M0.458,-0.605C0.455,-0.6 0.452,-0.596 0.448,-0.593C0.445,-0.591 0.44,-0.59 0.436,-0.59C0.43,-0.59 0.423,-0.592 0.416,-0.598C0.408,-0.604 0.398,-0.61 0.387,-0.617C0.375,-0.624 0.361,-0.63 0.345,-0.636C0.329,-0.641 0.31,-0.644 0.287,-0.644C0.265,-0.644 0.246,-0.641 0.229,-0.635C0.213,-0.629 0.199,-0.622 0.188,-0.612C0.177,-0.602 0.168,-0.59 0.163,-0.576C0.157,-0.563 0.154,-0.548 0.154,-0.533C0.154,-0.513 0.159,-0.496 0.169,-0.483C0.179,-0.47 0.192,-0.458 0.208,-0.449C0.224,-0.44 0.242,-0.432 0.263,-0.425C0.283,-0.418 0.304,-0.411 0.326,-0.404C0.347,-0.396 0.368,-0.388 0.389,-0.379C0.409,-0.37 0.428,-0.358 0.444,-0.344C0.46,-0.33 0.473,-0.313 0.483,-0.293C0.493,-0.272 0.498,-0.247 0.498,-0.218C0.498,-0.186 0.492,-0.157 0.482,-0.129C0.471,-0.102 0.455,-0.078 0.435,-0.058C0.414,-0.037 0.389,-0.021 0.359,-0.01C0.329,0.002 0.296,0.008 0.258,0.008C0.211,0.008 0.169,-0 0.131,-0.017C0.092,-0.034 0.06,-0.057 0.033,-0.086L0.061,-0.132C0.064,-0.135 0.067,-0.138 0.071,-0.141C0.075,-0.143 0.079,-0.145 0.084,-0.145C0.088,-0.145 0.093,-0.143 0.098,-0.139C0.104,-0.136 0.11,-0.131 0.117,-0.126C0.124,-0.121 0.132,-0.115 0.141,-0.109C0.15,-0.102 0.16,-0.096 0.172,-0.091C0.183,-0.086 0.196,-0.081 0.211,-0.078C0.226,-0.074 0.242,-0.073 0.261,-0.073C0.284,-0.073 0.304,-0.076 0.322,-0.082C0.34,-0.088 0.355,-0.097 0.368,-0.109C0.38,-0.12 0.39,-0.134 0.397,-0.15C0.403,-0.166 0.407,-0.184 0.407,-0.204C0.407,-0.225 0.402,-0.243 0.392,-0.257C0.382,-0.271 0.369,-0.282 0.353,-0.292C0.337,-0.301 0.319,-0.309 0.298,-0.315C0.277,-0.322 0.256,-0.328 0.235,-0.335C0.214,-0.342 0.193,-0.35 0.172,-0.359C0.151,-0.368 0.133,-0.38 0.117,-0.394C0.101,-0.408 0.088,-0.426 0.078,-0.448C0.068,-0.469 0.064,-0.496 0.064,-0.528C0.064,-0.553 0.068,-0.577 0.078,-0.601C0.088,-0.625 0.102,-0.646 0.121,-0.664C0.14,-0.682 0.163,-0.697 0.191,-0.708C0.218,-0.719 0.25,-0.725 0.286,-0.725C0.326,-0.725 0.362,-0.718 0.395,-0.706C0.428,-0.693 0.456,-0.675 0.482,-0.651L0.458,-0.605Z" style="fill-rule:nonzero;"/>
                </g>
                <g transform="matrix(11,0,0,11,38.5428,122.978)">
                    <path d="M0.576,-0.635L0.344,-0.635L0.344,-0L0.248,-0L0.248,-0.635L0.015,-0.635L0.015,-0.717L0.576,-0.717L0.576,-0.635Z" style="fill-rule:nonzero;"/>
                </g>
                <g transform="matrix(11,0,0,11,45.0383,122.978)">
                    <path d="M0.343,-0.077C0.371,-0.077 0.395,-0.08 0.415,-0.087C0.435,-0.093 0.451,-0.102 0.464,-0.113C0.477,-0.125 0.486,-0.138 0.492,-0.154C0.498,-0.17 0.501,-0.188 0.501,-0.207C0.501,-0.244 0.488,-0.273 0.462,-0.294C0.435,-0.316 0.396,-0.327 0.343,-0.327L0.188,-0.327L0.188,-0.077L0.343,-0.077ZM0.188,-0.64L0.188,-0.396L0.316,-0.396C0.343,-0.396 0.367,-0.399 0.387,-0.405C0.407,-0.411 0.424,-0.419 0.437,-0.43C0.45,-0.44 0.46,-0.453 0.467,-0.468C0.473,-0.483 0.476,-0.5 0.476,-0.518C0.476,-0.56 0.463,-0.591 0.438,-0.611C0.413,-0.63 0.373,-0.64 0.32,-0.64L0.188,-0.64ZM0.32,-0.717C0.364,-0.717 0.402,-0.712 0.434,-0.704C0.466,-0.695 0.492,-0.683 0.512,-0.667C0.533,-0.651 0.548,-0.631 0.558,-0.608C0.567,-0.585 0.572,-0.559 0.572,-0.53C0.572,-0.512 0.569,-0.495 0.564,-0.479C0.558,-0.463 0.55,-0.448 0.539,-0.434C0.528,-0.42 0.514,-0.407 0.497,-0.396C0.48,-0.385 0.461,-0.376 0.438,-0.369C0.491,-0.359 0.53,-0.34 0.557,-0.312C0.583,-0.285 0.597,-0.249 0.597,-0.204C0.597,-0.174 0.591,-0.146 0.58,-0.121C0.569,-0.096 0.552,-0.075 0.531,-0.057C0.509,-0.039 0.483,-0.025 0.452,-0.015C0.42,-0.005 0.385,-0 0.345,-0L0.092,-0L0.092,-0.717L0.32,-0.717Z" style="fill-rule:nonzero;"/>
                </g>
                <g transform="matrix(11,0,0,11,51.8968,122.978)">
                    <path d="M0.361,-0.286L0.361,-0L0.264,-0L0.264,-0.286L0.001,-0.717L0.086,-0.717C0.095,-0.717 0.101,-0.714 0.107,-0.71C0.112,-0.706 0.116,-0.701 0.12,-0.694L0.284,-0.416C0.29,-0.404 0.295,-0.393 0.3,-0.383C0.305,-0.373 0.309,-0.362 0.313,-0.352C0.317,-0.362 0.321,-0.373 0.326,-0.383C0.33,-0.393 0.335,-0.404 0.341,-0.416L0.505,-0.694C0.507,-0.7 0.512,-0.705 0.517,-0.71C0.522,-0.714 0.529,-0.717 0.538,-0.717L0.623,-0.717L0.361,-0.286Z" style="fill-rule:nonzero;"/>
                </g>
            </g>
            <g transform="matrix(1,0,0,1,340.503,-65.634)">
                <g transform="matrix(11,0,0,11,32.5753,122.978)">
                    <path d="M0.576,-0.635L0.344,-0.635L0.344,-0L0.248,-0L0.248,-0.635L0.015,-0.635L0.015,-0.717L0.576,-0.717L0.576,-0.635Z" style="fill-rule:nonzero;"/>
                </g>
                <g transform="matrix(11,0,0,11,39.0708,122.978)">
                    <path d="M0.534,-0.079L0.533,-0L0.092,-0L0.092,-0.717L0.533,-0.717L0.533,-0.638L0.189,-0.638L0.189,-0.4L0.468,-0.4L0.468,-0.324L0.189,-0.324L0.189,-0.079L0.534,-0.079Z" style="fill-rule:nonzero;"/>
                </g>
                <g transform="matrix(11,0,0,11,45.4233,122.978)">
                    <path d="M0.458,-0.605C0.455,-0.6 0.452,-0.596 0.448,-0.593C0.445,-0.591 0.44,-0.59 0.436,-0.59C0.43,-0.59 0.423,-0.592 0.416,-0.598C0.408,-0.604 0.398,-0.61 0.387,-0.617C0.375,-0.624 0.361,-0.63 0.345,-0.636C0.329,-0.641 0.31,-0.644 0.287,-0.644C0.265,-0.644 0.246,-0.641 0.229,-0.635C0.213,-0.629 0.199,-0.622 0.188,-0.612C0.177,-0.602 0.168,-0.59 0.163,-0.576C0.157,-0.563 0.154,-0.548 0.154,-0.533C0.154,-0.513 0.159,-0.496 0.169,-0.483C0.179,-0.47 0.192,-0.458 0.208,-0.449C0.224,-0.44 0.242,-0.432 0.263,-0.425C0.283,-0.418 0.304,-0.411 0.326,-0.404C0.347,-0.396 0.368,-0.388 0.389,-0.379C0.409,-0.37 0.428,-0.358 0.444,-0.344C0.46,-0.33 0.473,-0.313 0.483,-0.293C0.493,-0.272 0.498,-0.247 0.498,-0.218C0.498,-0.186 0.492,-0.157 0.482,-0.129C0.471,-0.102 0.455,-0.078 0.435,-0.058C0.414,-0.037 0.389,-0.021 0.359,-0.01C0.329,0.002 0.296,0.008 0.258,0.008C0.211,0.008 0.169,-0 0.131,-0.017C0.092,-0.034 0.06,-0.057 0.033,-0.086L0.061,-0.132C0.064,-0.135 0.067,-0.138 0.071,-0.141C0.075,-0.143 0.079,-0.145 0.084,-0.145C0.088,-0.145 0.093,-0.143 0.098,-0.139C0.104,-0.136 0.11,-0.131 0.117,-0.126C0.124,-0.121 0.132,-0.115 0.141,-0.109C0.15,-0.102 0.16,-0.096 0.172,-0.091C0.183,-0.086 0.196,-0.081 0.211,-0.078C0.226,-0.074 0.242,-0.073 0.261,-0.073C0.284,-0.073 0.304,-0.076 0.322,-0.082C0.34,-0.088 0.355,-0.097 0.368,-0.109C0.38,-0.12 0.39,-0.134 0.397,-0.15C0.403,-0.166 0.407,-0.184 0.407,-0.204C0.407,-0.225 0.402,-0.243 0.392,-0.257C0.382,-0.271 0.369,-0.282 0.353,-0.292C0.337,-0.301 0.319,-0.309 0.298,-0.315C0.277,-0.322 0.256,-0.328 0.235,-0.335C0.214,-0.342 0.193,-0.35 0.172,-0.359C0.151,-0.368 0.133,-0.38 0.117,-0.394C0.101,-0.408 0.088,-0.426 0.078,-0.448C0.068,-0.469 0.064,-0.496 0.064,-0.528C0.064,-0.553 0.068,-0.577 0.078,-0.601C0.088,-0.625 0.102,-0.646 0.121,-0.664C0.14,-0.682 0.163,-0.697 0.191,-0.708C0.218,-0.719 0.25,-0.725 0.286,-0.725C0.326,-0.725 0.362,-0.718 0.395,-0.706C0.428,-0.693 0.456,-0.675 0.482,-0.651L0.458,-0.605Z" style="fill-rule:nonzero;"/>
                </g>
                <g transform="matrix(11,0,0,11,51.3908,122.978)">
                    <path d="M0.576,-0.635L0.344,-0.635L0.344,-0L0.248,-0L0.248,-0.635L0.015,-0.635L0.015,-0.717L0.576,-0.717L0.576,-0.635Z" style="fill-rule:nonzero;"/>
                </g>
            </g>
            <g transform="matrix(1,0,0,1,352.899,-81.2048)">
                <g transform="matrix(11,0,0,11,32.5753,122.978)">
                    <path d="M0.754,-0.358C0.754,-0.304 0.745,-0.255 0.728,-0.21C0.711,-0.165 0.687,-0.127 0.656,-0.095C0.625,-0.062 0.588,-0.037 0.544,-0.019C0.501,-0.001 0.453,0.008 0.4,0.008C0.347,0.008 0.299,-0.001 0.256,-0.019C0.213,-0.037 0.175,-0.062 0.145,-0.095C0.114,-0.127 0.09,-0.165 0.073,-0.21C0.055,-0.255 0.047,-0.304 0.047,-0.358C0.047,-0.412 0.055,-0.461 0.073,-0.506C0.09,-0.551 0.114,-0.589 0.145,-0.622C0.175,-0.654 0.213,-0.68 0.256,-0.698C0.299,-0.716 0.347,-0.725 0.4,-0.725C0.453,-0.725 0.501,-0.716 0.544,-0.698C0.588,-0.68 0.625,-0.654 0.656,-0.622C0.687,-0.589 0.711,-0.551 0.728,-0.506C0.745,-0.461 0.754,-0.412 0.754,-0.358ZM0.654,-0.358C0.654,-0.402 0.648,-0.442 0.636,-0.477C0.624,-0.511 0.607,-0.541 0.585,-0.565C0.563,-0.589 0.536,-0.608 0.505,-0.621C0.474,-0.634 0.439,-0.641 0.4,-0.641C0.362,-0.641 0.327,-0.634 0.296,-0.621C0.264,-0.608 0.237,-0.589 0.215,-0.565C0.193,-0.541 0.176,-0.511 0.164,-0.477C0.152,-0.442 0.146,-0.402 0.146,-0.358C0.146,-0.314 0.152,-0.275 0.164,-0.24C0.176,-0.205 0.193,-0.175 0.215,-0.151C0.237,-0.127 0.264,-0.109 0.296,-0.096C0.327,-0.083 0.362,-0.077 0.4,-0.077C0.439,-0.077 0.474,-0.083 0.505,-0.096C0.536,-0.109 0.563,-0.127 0.585,-0.151C0.607,-0.175 0.624,-0.205 0.636,-0.24C0.648,-0.275 0.654,-0.314 0.654,-0.358Z" style="fill-rule:nonzero;"/>
                </g>
                <g transform="matrix(11,0,0,11,41.3808,122.978)">
                    <path d="M0.672,-0.717L0.672,-0L0.624,-0C0.616,-0 0.609,-0.001 0.604,-0.004C0.599,-0.007 0.594,-0.011 0.589,-0.018L0.175,-0.558C0.175,-0.549 0.176,-0.541 0.176,-0.533C0.176,-0.525 0.177,-0.518 0.177,-0.511L0.177,-0L0.092,-0L0.092,-0.717L0.142,-0.717C0.146,-0.717 0.15,-0.716 0.153,-0.716C0.156,-0.715 0.158,-0.714 0.161,-0.713C0.163,-0.712 0.165,-0.71 0.168,-0.708C0.17,-0.706 0.172,-0.703 0.175,-0.7L0.59,-0.161C0.589,-0.169 0.588,-0.178 0.588,-0.186C0.587,-0.194 0.587,-0.202 0.587,-0.209L0.587,-0.717L0.672,-0.717Z" style="fill-rule:nonzero;"/>
                </g>
            </g>
            <g transform="matrix(1,0,0,1,367.567,-93.7468)">
                <g transform="matrix(11,0,0,11,32.5753,122.978)">
                    <path d="M0.472,-0.266L0.36,-0.558C0.356,-0.566 0.353,-0.576 0.349,-0.588C0.345,-0.599 0.342,-0.612 0.339,-0.625C0.332,-0.598 0.324,-0.575 0.317,-0.557L0.205,-0.266L0.472,-0.266ZM0.674,-0L0.599,-0C0.59,-0 0.583,-0.002 0.578,-0.007C0.573,-0.011 0.569,-0.016 0.566,-0.023L0.499,-0.196L0.178,-0.196L0.111,-0.023C0.109,-0.017 0.105,-0.012 0.099,-0.007C0.093,-0.002 0.086,-0 0.078,-0L0.003,-0L0.29,-0.717L0.388,-0.717L0.674,-0Z" style="fill-rule:nonzero;"/>
                </g>
                <g transform="matrix(11,0,0,11,40.0223,122.978)">
                    <path d="M0.498,-0.082L0.498,-0L0.092,-0L0.092,-0.717L0.188,-0.717L0.188,-0.082L0.498,-0.082Z" style="fill-rule:nonzero;"/>
                </g>
                <g transform="matrix(11,0,0,11,44.6368,122.978)">
                    <path d="M0.576,-0.635L0.344,-0.635L0.344,-0L0.248,-0L0.248,-0.635L0.015,-0.635L0.015,-0.717L0.576,-0.717L0.576,-0.635Z" style="fill-rule:nonzero;"/>
                </g>
            </g>
            <g transform="matrix(1,0,0,1,426.747,-5.73208)">
                <g transform="matrix(11,0,0,11,32.5753,122.978)">
                    <path d="M0.674,-0.717L0.382,-0L0.295,-0L0.003,-0.717L0.081,-0.717C0.089,-0.717 0.096,-0.714 0.102,-0.71C0.107,-0.706 0.111,-0.7 0.114,-0.694L0.316,-0.188C0.32,-0.177 0.324,-0.164 0.328,-0.151C0.332,-0.138 0.336,-0.124 0.34,-0.109C0.343,-0.124 0.346,-0.138 0.35,-0.151C0.354,-0.164 0.358,-0.177 0.362,-0.188L0.564,-0.694C0.566,-0.699 0.569,-0.704 0.575,-0.709C0.581,-0.714 0.588,-0.717 0.597,-0.717L0.674,-0.717Z" style="fill-rule:nonzero;"/>
                </g>
                <g transform="matrix(11,0,0,11,40.0223,122.978)">
                    <path d="M0.189,-0.638L0.189,-0.387L0.483,-0.387L0.483,-0.308L0.189,-0.308L0.189,-0L0.092,-0L0.092,-0.717L0.533,-0.717L0.533,-0.638L0.189,-0.638Z" style="fill-rule:nonzero;"/>
                </g>
                <g transform="matrix(11,0,0,11,46.2428,122.978)">
                    <path d="M0.29,-0.37C0.318,-0.37 0.343,-0.373 0.364,-0.38C0.386,-0.387 0.404,-0.396 0.418,-0.409C0.433,-0.421 0.444,-0.436 0.451,-0.454C0.458,-0.471 0.462,-0.49 0.462,-0.511C0.462,-0.554 0.448,-0.586 0.42,-0.608C0.392,-0.629 0.35,-0.64 0.294,-0.64L0.188,-0.64L0.188,-0.37L0.29,-0.37ZM0.621,-0L0.535,-0C0.517,-0 0.504,-0.007 0.496,-0.021L0.31,-0.277C0.304,-0.284 0.298,-0.29 0.292,-0.294C0.285,-0.297 0.275,-0.299 0.262,-0.299L0.188,-0.299L0.188,-0L0.092,-0L0.092,-0.717L0.294,-0.717C0.339,-0.717 0.379,-0.712 0.412,-0.703C0.445,-0.694 0.472,-0.68 0.493,-0.663C0.515,-0.646 0.531,-0.625 0.541,-0.6C0.551,-0.576 0.557,-0.548 0.557,-0.518C0.557,-0.493 0.553,-0.469 0.545,-0.447C0.537,-0.425 0.525,-0.405 0.51,-0.388C0.495,-0.37 0.476,-0.355 0.454,-0.343C0.432,-0.331 0.408,-0.321 0.38,-0.315C0.392,-0.308 0.403,-0.298 0.412,-0.285L0.621,-0Z" style="fill-rule:nonzero;"/>
                </g>
            </g>
        </g>
    </g>
</svg>
