<?xml version="1.0" encoding="UTF-8" standalone="no"?>
<!DOCTYPE svg PUBLIC "-//W3C//DTD SVG 1.1//EN" "http://www.w3.org/Graphics/SVG/1.1/DTD/svg11.dtd">
<svg width="1920px" height="1152px" version="1.1" xmlns="http://www.w3.org/2000/svg" xmlns:xlink="http://www.w3.org/1999/xlink" xml:space="preserve" xmlns:serif="http://www.serif.com/" style="fill-rule:evenodd;clip-rule:evenodd;">
    <g transform="matrix(1,0,0,1,57.3347,-95.5971)">
        <path d="M0,1010.16L680.315,1010.16L680.315,1066.85L691.654,1066.85L691.654,1010.16L710.551,1010.16L710.551,1123.54L-30.236,1123.54L-30.236,1010.16L-11.339,1010.16L-11.339,1066.85L0,1066.85L0,1010.16Z" style="fill:none;fill-rule:nonzero;stroke:black;stroke-width:1px;"/>
    </g>
    <g transform="matrix(1,0,0,1,23.1859,-477.724)">
        <path d="M313.757,1066.85L302.418,1066.85L302.418,1123.54L17.064,1123.54L17.064,1062.98L5.725,1062.98L5.725,995.541L17.064,995.541L17.064,922.055L5.725,922.055L5.725,916.885L19.932,922.055L45.785,851.023L35.13,847.145L60.984,776.114L71.639,779.992L123.47,637.587L112.815,633.709L138.668,562.677L149.323,566.555L175.177,495.523L165.459,491.986L376.119,491.986C380.266,491.986 383.678,495.398 383.678,499.545L383.678,1123.54L313.757,1123.54L313.757,1066.85Z" style="fill:none;fill-rule:nonzero;stroke:black;stroke-width:1px;"/>
    </g>
    <g transform="matrix(1,0,0,1,427.306,-476.92)">
        <path d="M313.757,1066.85L302.418,1066.85L302.418,1123.54L17.064,1123.54L17.064,1062.98L5.725,1062.98L5.725,995.541L17.064,995.541L17.064,922.055L5.725,922.055L5.725,916.885L19.932,922.055L45.785,851.023L35.13,847.145L60.984,776.114L71.639,779.992L123.47,637.587L112.815,633.709L138.668,562.677L149.323,566.555L175.177,495.523L165.459,491.986L376.119,491.986C380.266,491.986 383.678,495.398 383.678,499.545L383.678,1123.54L313.757,1123.54L313.757,1066.85Z" style="fill:none;fill-rule:nonzero;stroke:black;stroke-width:1px;"/>
    </g>
    <g id="_0" serif:id="0" transform="matrix(1.33333,0,0,1.33333,846.293,5.7726)">
        <g transform="matrix(1,0,0,1,698.617,-464.275)">
            <path d="M-691.654,624.603L-680.315,624.603L-680.315,549.012L-691.654,549.012L-691.654,473.422L12.254,473.422L12.254,549.012L-0,549.012L-0,624.603L12.254,624.603L12.254,776.147L-0,776.147L0,851.737L12.254,851.737L12.254,927.328L-691.654,927.328L-691.654,851.737L-680.315,851.737L-680.315,776.147L-691.654,776.147L-691.654,624.603Z" style="fill:none;fill-rule:nonzero;stroke:black;stroke-width:1px;"/>
        </g>
        <g transform="matrix(1,0,0,1,698.617,-464.275)">
            <path d="M-476.445,501.315C-476.445,497.686 -479.43,494.701 -483.059,494.701C-486.687,494.701 -489.673,497.686 -489.673,501.315C-489.673,504.943 -486.687,507.929 -483.059,507.929C-479.43,507.929 -476.445,504.943 -476.445,501.315Z" style="fill:none;fill-rule:nonzero;stroke:black;stroke-width:1px;"/>
        </g>
        <g transform="matrix(1,0,0,1,698.617,-464.275)">
            <path d="M-476.445,900.958C-476.445,897.329 -479.43,894.343 -483.059,894.343C-486.687,894.343 -489.673,897.329 -489.673,900.958C-489.673,904.586 -486.687,907.572 -483.059,907.572C-479.43,907.572 -476.445,904.586 -476.445,900.958Z" style="fill:none;fill-rule:nonzero;stroke:black;stroke-width:1px;"/>
        </g>
        <g transform="matrix(1,0,0,1,698.617,-464.275)">
            <path d="M-192.98,501.315C-192.98,497.686 -195.966,494.701 -199.594,494.701C-203.223,494.701 -206.208,497.686 -206.208,501.315C-206.208,504.943 -203.223,507.929 -199.594,507.929C-195.966,507.929 -192.98,504.943 -192.98,501.315Z" style="fill:none;fill-rule:nonzero;stroke:black;stroke-width:1px;"/>
        </g>
        <g transform="matrix(1,0,0,1,698.617,-464.275)">
            <path d="M-192.98,900.958C-192.98,897.329 -195.966,894.343 -199.594,894.343C-203.223,894.343 -206.208,897.329 -206.208,900.958C-206.208,904.586 -203.223,907.572 -199.594,907.572C-195.966,907.572 -192.98,904.586 -192.98,900.958Z" style="fill:none;fill-rule:nonzero;stroke:black;stroke-width:1px;"/>
        </g>
        <g transform="matrix(1,0,0,1,698.617,-464.275)">
            <path d="M-192.035,886.97L-490.618,886.97" style="fill:none;fill-rule:nonzero;stroke:black;stroke-width:1px;"/>
        </g>
        <g transform="matrix(1,0,0,1,698.617,-464.275)">
            <path d="M-490.618,886.97C-494.765,886.97 -498.177,890.25 -498.177,894.236" style="fill:none;fill-rule:nonzero;stroke:black;stroke-width:1px;"/>
        </g>
        <g transform="matrix(1,0,0,1,698.617,-464.275)">
            <path d="M-498.177,894.236L-498.177,897.869" style="fill:none;fill-rule:nonzero;stroke:black;stroke-width:1px;"/>
        </g>
        <g transform="matrix(1,0,0,1,698.617,-464.275)">
            <path d="M-505.736,905.136C-501.589,905.136 -498.177,901.855 -498.177,897.869" style="fill:none;fill-rule:nonzero;stroke:black;stroke-width:1px;"/>
        </g>
        <g transform="matrix(1,0,0,1,698.617,-464.275)">
            <path d="M-505.736,905.136L-630.082,905.136" style="fill:none;fill-rule:nonzero;stroke:black;stroke-width:1px;"/>
        </g>
        <g transform="matrix(1,0,0,1,698.617,-464.275)">
            <path d="M-633.862,901.502C-633.862,903.496 -632.156,905.136 -630.082,905.136" style="fill:none;fill-rule:nonzero;stroke:black;stroke-width:1px;"/>
        </g>
        <g transform="matrix(1,0,0,1,698.617,-464.275)">
            <path d="M-633.862,901.502L-633.862,515.302" style="fill:none;fill-rule:nonzero;stroke:black;stroke-width:1px;"/>
        </g>
        <g transform="matrix(1,0,0,1,698.617,-464.275)">
            <path d="M-630.082,511.669C-632.156,511.669 -633.862,513.309 -633.862,515.302" style="fill:none;fill-rule:nonzero;stroke:black;stroke-width:1px;"/>
        </g>
        <g transform="matrix(1,0,0,1,698.617,-464.275)">
            <path d="M-630.082,511.669L-52.571,511.669" style="fill:none;fill-rule:nonzero;stroke:black;stroke-width:1px;"/>
        </g>
        <g transform="matrix(1,0,0,1,698.617,-464.275)">
            <path d="M-48.791,515.302C-48.791,513.309 -50.497,511.669 -52.571,511.669" style="fill:none;fill-rule:nonzero;stroke:black;stroke-width:1px;"/>
        </g>
        <g transform="matrix(1,0,0,1,698.617,-464.275)">
            <path d="M-48.791,515.302L-48.791,901.502" style="fill:none;fill-rule:nonzero;stroke:black;stroke-width:1px;"/>
        </g>
        <g transform="matrix(1,0,0,1,698.617,-464.275)">
            <path d="M-52.571,905.136C-50.497,905.136 -48.791,903.496 -48.791,901.502" style="fill:none;fill-rule:nonzero;stroke:black;stroke-width:1px;"/>
        </g>
        <g transform="matrix(1,0,0,1,698.617,-464.275)">
            <path d="M-52.571,905.136L-176.917,905.136" style="fill:none;fill-rule:nonzero;stroke:black;stroke-width:1px;"/>
        </g>
        <g transform="matrix(1,0,0,1,698.617,-464.275)">
            <path d="M-184.476,897.869C-184.476,901.855 -181.064,905.136 -176.917,905.136" style="fill:none;fill-rule:nonzero;stroke:black;stroke-width:1px;"/>
        </g>
        <g transform="matrix(1,0,0,1,698.617,-464.275)">
            <path d="M-184.476,897.869L-184.476,894.236" style="fill:none;fill-rule:nonzero;stroke:black;stroke-width:1px;"/>
        </g>
        <g transform="matrix(1,0,0,1,698.617,-464.275)">
            <path d="M-184.476,894.236C-184.476,890.25 -187.888,886.97 -192.035,886.97" style="fill:none;fill-rule:nonzero;stroke:black;stroke-width:1px;"/>
        </g>
    </g>
    <g transform="matrix(1,0,0,1,725.558,-247.645)">
        <path d="M12.254,922.055L12.254,995.541L0.915,995.541L0.915,1062.98L12.254,1062.98L12.254,1123.54L-691.654,1123.54L-691.654,1062.98L-680.315,1062.98L-680.315,995.541L-691.654,995.541L-691.654,922.055L12.254,922.055Z" style="fill:none;fill-rule:nonzero;stroke:black;stroke-width:1px;"/>
    </g>
</svg>
