<?xml version="1.0" encoding="UTF-8" standalone="no"?>
<!DOCTYPE svg PUBLIC "-//W3C//DTD SVG 1.1//EN" "http://www.w3.org/Graphics/SVG/1.1/DTD/svg11.dtd">
<svg width="2906px" height="653px" version="1.1" xmlns="http://www.w3.org/2000/svg" xmlns:xlink="http://www.w3.org/1999/xlink" xml:space="preserve" xmlns:serif="http://www.serif.com/" style="fill-rule:evenodd;clip-rule:evenodd;stroke-linecap:round;stroke-linejoin:round;">
    <g transform="matrix(1.33333,0,0,1.33333,0,0)">
        <g id="p-0">
            <path d="M37.049,449.915L46.276,449.915C46.474,449.915 46.276,449.717 46.276,449.915L46.276,458.22C46.276,458.331 46.363,458.419 46.474,458.419L63.482,458.419C63.592,458.419 63.68,458.331 63.68,458.22L63.68,449.915C63.68,449.717 63.482,449.915 63.68,449.915L80.291,449.915C80.49,449.915 80.291,449.717 80.291,449.915L80.291,458.22C80.291,458.331 80.379,458.419 80.49,458.419L97.498,458.419C97.608,458.419 97.696,458.331 97.696,458.22L97.696,449.915C97.696,449.717 97.498,449.915 97.696,449.915L114.307,449.915C114.506,449.915 114.307,449.717 114.307,449.915L114.307,458.22C114.307,458.331 114.395,458.419 114.506,458.419L131.513,458.419C131.624,458.419 131.712,458.331 131.712,458.22L131.712,449.915C131.712,449.717 131.513,449.915 131.712,449.915L148.323,449.915C148.521,449.915 148.323,449.717 148.323,449.915L148.323,458.22C148.323,458.331 148.411,458.419 148.521,458.419L165.529,458.419C165.64,458.419 165.728,458.331 165.728,458.22L165.728,449.915C165.728,449.717 165.529,449.915 165.728,449.915L182.339,449.915C182.537,449.915 182.339,449.717 182.339,449.915L182.339,458.22C182.339,458.331 182.426,458.419 182.537,458.419L199.545,458.419C199.655,458.419 199.743,458.331 199.743,458.22L199.743,449.915C199.743,449.717 199.545,449.915 199.743,449.915L216.354,449.915C216.553,449.915 216.354,449.717 216.354,449.915L216.354,458.22C216.354,458.331 216.442,458.419 216.553,458.419L233.561,458.419C233.671,458.419 233.759,458.331 233.759,458.22L233.759,449.915C233.759,449.717 233.561,449.915 233.759,449.915L250.37,449.915C250.569,449.915 250.37,449.717 250.37,449.915L250.37,458.22C250.37,458.331 250.458,458.419 250.569,458.419L267.576,458.419C267.687,458.419 267.775,458.331 267.775,458.22L267.775,449.915C267.775,449.717 267.576,449.915 267.775,449.915L284.386,449.915C284.584,449.915 284.386,449.717 284.386,449.915L284.386,458.22C284.386,458.331 284.474,458.419 284.584,458.419L301.592,458.419C301.703,458.419 301.791,458.331 301.791,458.22L301.791,449.915C301.791,449.717 301.592,449.915 301.791,449.915L318.402,449.915C318.6,449.915 318.402,449.717 318.402,449.915L318.402,458.22C318.402,458.331 318.489,458.419 318.6,458.419L335.608,458.419C335.718,458.419 335.806,458.331 335.806,458.22L335.806,449.915C335.806,449.717 335.608,449.915 335.806,449.915L352.417,449.915C352.616,449.915 352.417,449.717 352.417,449.915L352.417,458.22C352.417,458.331 352.505,458.419 352.616,458.419L369.624,458.419C369.734,458.419 369.822,458.331 369.822,458.22L369.822,449.915C369.822,449.717 369.624,449.915 369.822,449.915L379.049,449.915C379.159,449.915 379.247,449.827 379.247,449.717L379.247,433.474C379.247,433.276 379.049,433.474 379.247,433.474L387.553,433.474C387.663,433.474 387.751,433.386 387.751,433.276L387.751,416.268C387.751,416.157 387.663,416.069 387.553,416.069L379.247,416.069C379.049,416.069 379.247,416.268 379.247,416.069L379.247,399.458C379.247,399.26 379.049,399.458 379.247,399.458L387.553,399.458C387.663,399.458 387.751,399.37 387.751,399.26L387.751,382.252C387.751,382.141 387.663,382.054 387.553,382.054L379.247,382.054C379.049,382.054 379.247,382.252 379.247,382.054L379.247,365.443C379.247,365.244 379.049,365.443 379.247,365.443L387.553,365.443C387.663,365.443 387.751,365.355 387.751,365.244L387.751,348.236C387.751,348.126 387.663,348.038 387.553,348.038L379.247,348.038C379.049,348.038 379.247,348.236 379.247,348.038L379.247,331.427C379.247,331.228 379.049,331.427 379.247,331.427L387.553,331.427C387.663,331.427 387.751,331.339 387.751,331.228L387.751,314.22C387.751,314.11 387.663,314.022 387.553,314.022L379.247,314.022C379.049,314.022 379.247,314.22 379.247,314.022L379.247,297.411C379.247,297.213 379.049,297.411 379.247,297.411L387.553,297.411C387.663,297.411 387.751,297.323 387.751,297.213L387.751,280.205C387.751,280.094 387.663,280.006 387.553,280.006L379.247,280.006C379.049,280.006 379.247,280.205 379.247,280.006L379.247,263.395C379.247,263.197 379.049,263.395 379.247,263.395L387.553,263.395C387.663,263.395 387.751,263.307 387.751,263.197L387.751,246.189C387.751,246.078 387.663,245.991 387.553,245.991L379.247,245.991C379.049,245.991 379.247,246.189 379.247,245.991L379.247,229.38C379.247,229.181 379.049,229.38 379.247,229.38L387.553,229.38C387.663,229.38 387.751,229.292 387.751,229.181L387.751,212.173C387.751,212.063 387.663,211.975 387.553,211.975L379.247,211.975C379.049,211.975 379.247,212.173 379.247,211.975L379.247,195.364C379.247,195.165 379.049,195.364 379.247,195.364L387.553,195.364C387.663,195.364 387.751,195.276 387.751,195.165L387.751,178.157C387.751,178.047 387.663,177.959 387.553,177.959L379.247,177.959C379.049,177.959 379.247,178.157 379.247,177.959L379.247,161.717C379.247,161.614 379.171,161.529 379.069,161.518L368.957,160.455C368.759,160.435 368.935,160.654 368.957,160.455L369.825,152.195C369.836,152.087 369.757,151.991 369.649,151.98L352.735,150.199C352.624,150.188 352.528,150.267 352.517,150.378L351.646,158.638C351.626,158.834 351.845,158.658 351.646,158.638L335.126,156.9C334.93,156.881 335.106,157.099 335.126,156.9L335.996,148.64C336.008,148.533 335.928,148.433 335.818,148.422L318.903,146.645C318.796,146.633 318.696,146.713 318.685,146.82L317.818,155.081C317.798,155.279 318.016,155.103 317.818,155.081L301.297,153.346C301.102,153.323 301.277,153.541 301.297,153.346L302.165,145.086C302.176,144.975 302.1,144.879 301.989,144.867L285.075,143.09C284.967,143.079 284.868,143.158 284.856,143.266L283.989,151.526C283.966,151.724 284.185,151.546 283.989,151.526L267.469,149.788C267.27,149.769 267.449,149.987 267.469,149.788L268.336,141.528C268.347,141.42 268.268,141.324 268.16,141.313L251.246,139.533C251.135,139.521 251.039,139.601 251.028,139.711L250.16,147.971C250.138,148.167 250.356,147.991 250.16,147.971L233.64,146.234C233.442,146.214 233.617,146.432 233.64,146.234L234.507,137.974C234.519,137.866 234.439,137.767 234.332,137.755L217.414,135.978C217.307,135.967 217.21,136.046 217.199,136.154L216.329,144.414C216.309,144.612 216.527,144.437 216.329,144.414L199.809,142.679C199.613,142.656 199.789,142.875 199.809,142.679L200.679,134.419C200.69,134.308 200.611,134.212 200.5,134.201L183.586,132.423C183.478,132.412 183.379,132.491 183.368,132.599L182.5,140.859C182.48,141.058 182.699,140.879 182.5,140.859L165.98,139.122C165.781,139.102 165.96,139.32 165.98,139.122L166.847,130.861C166.859,130.754 166.782,130.657 166.671,130.643L149.757,128.866C149.647,128.854 149.55,128.934 149.539,129.044L148.671,137.305C148.649,137.5 148.867,137.324 148.671,137.305L132.151,135.567C131.953,135.547 132.131,135.765 132.151,135.567L133.019,127.307C133.03,127.199 132.951,127.1 132.843,127.089L115.929,125.311C115.818,125.3 115.722,125.379 115.71,125.487L114.84,133.747C114.82,133.946 115.038,133.77 114.84,133.747L98.323,132.012C98.124,131.99 98.3,132.208 98.323,132.012L99.19,123.752C99.201,123.642 99.122,123.545 99.014,123.534L82.097,121.757C81.989,121.745 81.893,121.822 81.879,121.932L81.011,130.192C80.991,130.388 81.21,130.212 81.011,130.192L64.491,128.455C64.295,128.435 64.471,128.653 64.491,128.455L65.361,120.195C65.373,120.087 65.293,119.988 65.183,119.976L48.268,118.199C48.161,118.188 48.061,118.267 48.05,118.378L47.183,126.638C47.163,126.833 47.381,126.658 47.183,126.638L37.069,125.575C36.952,125.561 36.85,125.654 36.85,125.77L36.85,142.98C36.85,143.178 37.049,142.98 36.85,142.98L28.545,142.98C28.434,142.98 28.346,143.067 28.346,143.178L28.346,160.186C28.346,160.294 28.434,160.384 28.545,160.384L36.85,160.384C37.049,160.384 36.85,160.186 36.85,160.384L36.85,176.995C36.85,177.194 37.049,176.995 36.85,176.995L28.545,176.995C28.434,176.995 28.346,177.083 28.346,177.194L28.346,194.202C28.346,194.309 28.434,194.4 28.545,194.4L36.85,194.4C37.049,194.4 36.85,194.202 36.85,194.4L36.85,211.011C36.85,211.209 37.049,211.011 36.85,211.011L28.545,211.011C28.434,211.011 28.346,211.099 28.346,211.209L28.346,228.217C28.346,228.325 28.434,228.416 28.545,228.416L36.85,228.416C37.049,228.416 36.85,228.217 36.85,228.416L36.85,245.027C36.85,245.225 37.049,245.027 36.85,245.027L28.545,245.027C28.434,245.027 28.346,245.115 28.346,245.225L28.346,262.233C28.346,262.341 28.434,262.431 28.545,262.431L36.85,262.431C37.049,262.431 36.85,262.233 36.85,262.431L36.85,279.043C36.85,279.241 37.049,279.043 36.85,279.043L28.545,279.043C28.434,279.043 28.346,279.13 28.346,279.241L28.346,296.249C28.346,296.357 28.434,296.447 28.545,296.447L36.85,296.447C37.049,296.447 36.85,296.249 36.85,296.447L36.85,313.058C36.85,313.257 37.049,313.058 36.85,313.058L28.545,313.058C28.434,313.058 28.346,313.146 28.346,313.257L28.346,330.265C28.346,330.372 28.434,330.463 28.545,330.463L36.85,330.463C37.049,330.463 36.85,330.265 36.85,330.463L36.85,347.074C36.85,347.272 37.049,347.074 36.85,347.074L28.545,347.074C28.434,347.074 28.346,347.162 28.346,347.272L28.346,364.28C28.346,364.388 28.434,364.479 28.545,364.479L36.85,364.479C37.049,364.479 36.85,364.28 36.85,364.479L36.85,381.09C36.85,381.288 37.049,381.09 36.85,381.09L28.545,381.09C28.434,381.09 28.346,381.178 28.346,381.288L28.346,398.296C28.346,398.404 28.434,398.494 28.545,398.494L36.85,398.494C37.049,398.494 36.85,398.296 36.85,398.494L36.85,415.106C36.85,415.304 37.049,415.106 36.85,415.106L28.545,415.106C28.434,415.106 28.346,415.193 28.346,415.304L28.346,432.312C28.346,432.42 28.434,432.51 28.545,432.51L36.85,432.51C37.049,432.51 36.85,432.312 36.85,432.51L36.85,449.717C36.85,449.827 36.938,449.915 37.049,449.915Z" style="fill:none;fill-rule:nonzero;stroke:black;stroke-width:0.4px;"/>
        </g>
        <g id="p-1">
            <path d="M400.706,449.915L409.932,449.915C410.131,449.915 409.932,449.717 409.932,449.915L409.932,458.22C409.932,458.331 410.02,458.419 410.131,458.419L427.139,458.419C427.249,458.419 427.337,458.331 427.337,458.22L427.337,449.915C427.337,449.717 427.139,449.915 427.337,449.915L443.948,449.915C444.146,449.915 443.948,449.717 443.948,449.915L443.948,458.22C443.948,458.331 444.036,458.419 444.146,458.419L461.154,458.419C461.265,458.419 461.353,458.331 461.353,458.22L461.353,449.915C461.353,449.717 461.154,449.915 461.353,449.915L477.964,449.915C478.162,449.915 477.964,449.717 477.964,449.915L477.964,458.22C477.964,458.331 478.052,458.419 478.162,458.419L495.17,458.419C495.281,458.419 495.369,458.331 495.369,458.22L495.369,449.915C495.369,449.717 495.17,449.915 495.369,449.915L511.98,449.915C512.178,449.915 511.98,449.717 511.98,449.915L511.98,458.22C511.98,458.331 512.067,458.419 512.178,458.419L529.186,458.419C529.296,458.419 529.384,458.331 529.384,458.22L529.384,449.915C529.384,449.717 529.186,449.915 529.384,449.915L545.995,449.915C546.194,449.915 545.995,449.717 545.995,449.915L545.995,458.22C545.995,458.331 546.083,458.419 546.194,458.419L563.202,458.419C563.312,458.419 563.4,458.331 563.4,458.22L563.4,449.915C563.4,449.717 563.202,449.915 563.4,449.915L580.011,449.915C580.209,449.915 580.011,449.717 580.011,449.915L580.011,458.22C580.011,458.331 580.099,458.419 580.209,458.419L597.217,458.419C597.328,458.419 597.416,458.331 597.416,458.22L597.416,449.915C597.416,449.717 597.217,449.915 597.416,449.915L614.027,449.915C614.225,449.915 614.027,449.717 614.027,449.915L614.027,458.22C614.027,458.331 614.115,458.419 614.225,458.419L631.233,458.419C631.344,458.419 631.431,458.331 631.431,458.22L631.431,449.915C631.431,449.717 631.233,449.915 631.431,449.915L648.043,449.915C648.241,449.915 648.043,449.717 648.043,449.915L648.043,458.22C648.043,458.331 648.13,458.419 648.241,458.419L665.249,458.419C665.359,458.419 665.447,458.331 665.447,458.22L665.447,449.915C665.447,449.717 665.249,449.915 665.447,449.915L682.058,449.915C682.257,449.915 682.058,449.717 682.058,449.915L682.058,458.22C682.058,458.331 682.146,458.419 682.257,458.419L699.265,458.419C699.375,458.419 699.463,458.331 699.463,458.22L699.463,449.915C699.463,449.717 699.265,449.915 699.463,449.915L716.074,449.915C716.272,449.915 716.074,449.717 716.074,449.915L716.074,458.22C716.074,458.331 716.162,458.419 716.272,458.419L733.28,458.419C733.391,458.419 733.479,458.331 733.479,458.22L733.479,449.915C733.479,449.717 733.28,449.915 733.479,449.915L742.706,449.915C742.816,449.915 742.904,449.827 742.904,449.717L742.904,433.474C742.904,433.276 742.706,433.474 742.904,433.474L751.209,433.474C751.32,433.474 751.408,433.386 751.408,433.276L751.408,416.268C751.408,416.157 751.32,416.069 751.209,416.069L742.904,416.069C742.706,416.069 742.904,416.268 742.904,416.069L742.904,399.458C742.904,399.26 742.706,399.458 742.904,399.458L751.209,399.458C751.32,399.458 751.408,399.37 751.408,399.26L751.408,382.252C751.408,382.141 751.32,382.054 751.209,382.054L742.904,382.054C742.706,382.054 742.904,382.252 742.904,382.054L742.904,365.443C742.904,365.244 742.706,365.443 742.904,365.443L751.209,365.443C751.32,365.443 751.408,365.355 751.408,365.244L751.408,348.236C751.408,348.126 751.32,348.038 751.209,348.038L742.904,348.038C742.706,348.038 742.904,348.236 742.904,348.038L742.904,331.427C742.904,331.228 742.706,331.427 742.904,331.427L751.209,331.427C751.32,331.427 751.408,331.339 751.408,331.228L751.408,314.22C751.408,314.11 751.32,314.022 751.209,314.022L742.904,314.022C742.706,314.022 742.904,314.22 742.904,314.022L742.904,297.411C742.904,297.213 742.706,297.411 742.904,297.411L751.209,297.411C751.32,297.411 751.408,297.323 751.408,297.213L751.408,280.205C751.408,280.094 751.32,280.006 751.209,280.006L742.904,280.006C742.706,280.006 742.904,280.205 742.904,280.006L742.904,263.395C742.904,263.197 742.706,263.395 742.904,263.395L751.209,263.395C751.32,263.395 751.408,263.307 751.408,263.197L751.408,246.189C751.408,246.078 751.32,245.991 751.209,245.991L742.904,245.991C742.706,245.991 742.904,246.189 742.904,245.991L742.904,229.38C742.904,229.181 742.706,229.38 742.904,229.38L751.209,229.38C751.32,229.38 751.408,229.292 751.408,229.181L751.408,212.173C751.408,212.063 751.32,211.975 751.209,211.975L742.904,211.975C742.706,211.975 742.904,212.173 742.904,211.975L742.904,195.364C742.904,195.165 742.706,195.364 742.904,195.364L751.209,195.364C751.32,195.364 751.408,195.276 751.408,195.165L751.408,178.157C751.408,178.047 751.32,177.959 751.209,177.959L742.904,177.959C742.706,177.959 742.904,178.157 742.904,177.959L742.904,161.717C742.904,161.614 742.827,161.529 742.725,161.518L732.614,160.455C732.416,160.435 732.591,160.654 732.614,160.455L733.482,152.195C733.493,152.087 733.414,151.991 733.306,151.98L716.391,150.199C716.281,150.188 716.185,150.267 716.173,150.378L715.303,158.638C715.283,158.834 715.501,158.658 715.303,158.638L698.783,156.9C698.587,156.881 698.763,157.099 698.783,156.9L699.653,148.64C699.664,148.533 699.585,148.433 699.474,148.422L682.56,146.645C682.452,146.633 682.353,146.713 682.342,146.82L681.474,155.081C681.454,155.279 681.673,155.103 681.474,155.081L664.954,153.346C664.758,153.323 664.934,153.541 664.954,153.346L665.821,145.086C665.833,144.975 665.756,144.879 665.646,144.867L648.731,143.09C648.624,143.079 648.524,143.158 648.513,143.266L647.646,151.526C647.623,151.724 647.841,151.546 647.646,151.526L631.125,149.788C630.927,149.769 631.106,149.987 631.125,149.788L631.993,141.528C632.004,141.42 631.925,141.324 631.817,141.313L614.903,139.533C614.792,139.521 614.696,139.601 614.684,139.711L613.817,147.971C613.794,148.167 614.013,147.991 613.817,147.971L597.297,146.234C597.098,146.214 597.274,146.432 597.297,146.234L598.164,137.974C598.175,137.866 598.096,137.767 597.988,137.755L581.071,135.978C580.963,135.967 580.867,136.046 580.856,136.154L579.986,144.414C579.966,144.612 580.184,144.437 579.986,144.414L563.465,142.679C563.27,142.656 563.445,142.875 563.465,142.679L564.335,134.419C564.347,134.308 564.267,134.212 564.157,134.201L547.243,132.423C547.135,132.412 547.036,132.491 547.024,132.599L546.157,140.859C546.137,141.058 546.355,140.879 546.157,140.859L529.637,139.122C529.438,139.102 529.617,139.32 529.637,139.122L530.504,130.861C530.515,130.754 530.439,130.657 530.328,130.643L513.414,128.866C513.303,128.854 513.207,128.934 513.196,129.044L512.328,137.305C512.306,137.5 512.524,137.324 512.328,137.305L495.808,135.567C495.609,135.547 495.788,135.765 495.808,135.567L496.675,127.307C496.687,127.199 496.607,127.1 496.5,127.089L479.585,125.311C479.475,125.3 479.378,125.379 479.367,125.487L478.497,133.747C478.477,133.946 478.695,133.77 478.497,133.747L461.979,132.012C461.781,131.99 461.957,132.208 461.979,132.012L462.847,123.752C462.858,123.642 462.779,123.545 462.671,123.534L445.754,121.757C445.646,121.745 445.55,121.822 445.535,121.932L444.668,130.192C444.648,130.388 444.866,130.212 444.668,130.192L428.148,128.455C427.952,128.435 428.128,128.653 428.148,128.455L429.018,120.195C429.029,120.087 428.95,119.988 428.839,119.976L411.925,118.199C411.817,118.188 411.718,118.267 411.707,118.378L410.839,126.638C410.82,126.833 411.038,126.658 410.839,126.638L400.725,125.575C400.609,125.561 400.507,125.654 400.507,125.77L400.507,142.98C400.507,143.178 400.706,142.98 400.507,142.98L392.202,142.98C392.091,142.98 392.003,143.067 392.003,143.178L392.003,160.186C392.003,160.294 392.091,160.384 392.202,160.384L400.507,160.384C400.706,160.384 400.507,160.186 400.507,160.384L400.507,176.995C400.507,177.194 400.706,176.995 400.507,176.995L392.202,176.995C392.091,176.995 392.003,177.083 392.003,177.194L392.003,194.202C392.003,194.309 392.091,194.4 392.202,194.4L400.507,194.4C400.706,194.4 400.507,194.202 400.507,194.4L400.507,211.011C400.507,211.209 400.706,211.011 400.507,211.011L392.202,211.011C392.091,211.011 392.003,211.099 392.003,211.209L392.003,228.217C392.003,228.325 392.091,228.416 392.202,228.416L400.507,228.416C400.706,228.416 400.507,228.217 400.507,228.416L400.507,245.027C400.507,245.225 400.706,245.027 400.507,245.027L392.202,245.027C392.091,245.027 392.003,245.115 392.003,245.225L392.003,262.233C392.003,262.341 392.091,262.431 392.202,262.431L400.507,262.431C400.706,262.431 400.507,262.233 400.507,262.431L400.507,279.043C400.507,279.241 400.706,279.043 400.507,279.043L392.202,279.043C392.091,279.043 392.003,279.13 392.003,279.241L392.003,296.249C392.003,296.357 392.091,296.447 392.202,296.447L400.507,296.447C400.706,296.447 400.507,296.249 400.507,296.447L400.507,313.058C400.507,313.257 400.706,313.058 400.507,313.058L392.202,313.058C392.091,313.058 392.003,313.146 392.003,313.257L392.003,330.265C392.003,330.372 392.091,330.463 392.202,330.463L400.507,330.463C400.706,330.463 400.507,330.265 400.507,330.463L400.507,347.074C400.507,347.272 400.706,347.074 400.507,347.074L392.202,347.074C392.091,347.074 392.003,347.162 392.003,347.272L392.003,364.28C392.003,364.388 392.091,364.479 392.202,364.479L400.507,364.479C400.706,364.479 400.507,364.28 400.507,364.479L400.507,381.09C400.507,381.288 400.706,381.09 400.507,381.09L392.202,381.09C392.091,381.09 392.003,381.178 392.003,381.288L392.003,398.296C392.003,398.404 392.091,398.494 392.202,398.494L400.507,398.494C400.706,398.494 400.507,398.296 400.507,398.494L400.507,415.106C400.507,415.304 400.706,415.106 400.507,415.106L392.202,415.106C392.091,415.106 392.003,415.193 392.003,415.304L392.003,432.312C392.003,432.42 392.091,432.51 392.202,432.51L400.507,432.51C400.706,432.51 400.507,432.312 400.507,432.51L400.507,449.717C400.507,449.827 400.595,449.915 400.706,449.915Z" style="fill:none;fill-rule:nonzero;stroke:black;stroke-width:0.4px;"/>
        </g>
        <g id="p-2">
            <path d="M758.183,460.743L776.112,460.743C776.222,460.743 776.31,460.655 776.31,460.545L776.31,452.239C776.31,452.041 776.112,452.239 776.31,452.239L792.921,452.239C793.12,452.239 792.921,452.041 792.921,452.239L792.921,460.545C792.921,460.655 793.009,460.743 793.12,460.743L810.128,460.743C810.238,460.743 810.326,460.655 810.326,460.545L810.326,452.239C810.326,452.041 810.128,452.239 810.326,452.239L826.937,452.239C827.135,452.239 826.937,452.041 826.937,452.239L826.937,460.545C826.937,460.655 827.025,460.743 827.135,460.743L844.143,460.743C844.254,460.743 844.342,460.655 844.342,460.545L844.342,452.239C844.342,452.041 844.143,452.239 844.342,452.239L860.953,452.239C861.151,452.239 860.953,452.041 860.953,452.239L860.953,460.545C860.953,460.655 861.041,460.743 861.151,460.743L878.159,460.743C878.27,460.743 878.357,460.655 878.357,460.545L878.357,452.239C878.357,452.041 878.159,452.239 878.357,452.239L894.969,452.239C895.167,452.239 894.969,452.041 894.969,452.239L894.969,460.545C894.969,460.655 895.056,460.743 895.167,460.743L912.175,460.743C912.285,460.743 912.373,460.655 912.373,460.545L912.373,452.239C912.373,452.041 912.175,452.239 912.373,452.239L928.984,452.239C929.183,452.239 928.984,452.041 928.984,452.239L928.984,460.545C928.984,460.655 929.072,460.743 929.183,460.743L946.191,460.743C946.301,460.743 946.389,460.655 946.389,460.545L946.389,452.239C946.389,452.041 946.191,452.239 946.389,452.239L963,452.239C963.198,452.239 963,452.041 963,452.239L963,460.545C963,460.655 963.088,460.743 963.198,460.743L980.206,460.743C980.317,460.743 980.405,460.655 980.405,460.545L980.405,452.239C980.405,452.041 980.206,452.239 980.405,452.239L997.016,452.239C997.214,452.239 997.016,452.041 997.016,452.239L997.016,460.545C997.016,460.655 997.104,460.743 997.214,460.743L1014.22,460.743C1014.33,460.743 1014.42,460.655 1014.42,460.545L1014.42,452.239C1014.42,452.041 1014.22,452.239 1014.42,452.239L1031.03,452.239C1031.23,452.239 1031.03,452.041 1031.03,452.239L1031.03,460.545C1031.03,460.655 1031.12,460.743 1031.23,460.743L1048.24,460.743C1048.35,460.743 1048.44,460.655 1048.44,460.545L1048.44,452.239C1048.44,452.041 1048.24,452.239 1048.44,452.239L1065.05,452.239C1065.25,452.239 1065.05,452.041 1065.05,452.239L1065.05,460.545C1065.05,460.655 1065.13,460.743 1065.25,460.743L1082.25,460.743C1082.36,460.743 1082.45,460.655 1082.45,460.545L1082.45,452.239C1082.45,452.041 1082.25,452.239 1082.45,452.239L1099.06,452.239C1099.26,452.239 1099.06,452.041 1099.06,452.239L1099.06,460.545C1099.06,460.655 1099.15,460.743 1099.26,460.743L1117.19,460.743C1117.3,460.743 1117.39,460.655 1117.39,460.545L1117.39,440.135C1117.39,440.025 1117.3,439.937 1117.19,439.937L1108.88,439.937C1108.69,439.937 1108.88,440.135 1108.88,439.937L1108.88,423.326C1108.88,423.128 1108.69,423.326 1108.88,423.326L1117.19,423.326C1117.3,423.326 1117.39,423.238 1117.39,423.128L1117.39,406.12C1117.39,406.009 1117.3,405.921 1117.19,405.921L1108.88,405.921C1108.69,405.921 1108.88,406.12 1108.88,405.921L1108.88,389.31C1108.88,389.112 1108.69,389.31 1108.88,389.31L1117.19,389.31C1117.3,389.31 1117.39,389.222 1117.39,389.112L1117.39,372.104C1117.39,371.993 1117.3,371.906 1117.19,371.906L1108.88,371.906C1108.69,371.906 1108.88,372.104 1108.88,371.906L1108.88,355.294C1108.88,355.096 1108.69,355.294 1108.88,355.294L1117.19,355.294C1117.3,355.294 1117.39,355.207 1117.39,355.096L1117.39,338.088C1117.39,337.978 1117.3,337.89 1117.19,337.89L1108.88,337.89C1108.69,337.89 1108.88,338.088 1108.88,337.89L1108.88,321.279C1108.88,321.08 1108.69,321.279 1108.88,321.279L1117.19,321.279C1117.3,321.279 1117.39,321.191 1117.39,321.08L1117.39,304.072C1117.39,303.962 1117.3,303.874 1117.19,303.874L1108.88,303.874C1108.69,303.874 1108.88,304.072 1108.88,303.874L1108.88,287.263C1108.88,287.065 1108.69,287.263 1108.88,287.263L1117.19,287.263C1117.3,287.263 1117.39,287.175 1117.39,287.065L1117.39,270.057C1117.39,269.946 1117.3,269.858 1117.19,269.858L1108.88,269.858C1108.69,269.858 1108.88,270.057 1108.88,269.858L1108.88,253.247C1108.88,253.049 1108.69,253.247 1108.88,253.247L1117.19,253.247C1117.3,253.247 1117.39,253.159 1117.39,253.049L1117.39,236.041C1117.39,235.93 1117.3,235.843 1117.19,235.843L1108.88,235.843C1108.69,235.843 1108.88,236.041 1108.88,235.843L1108.88,219.231C1108.88,219.033 1108.69,219.231 1108.88,219.231L1117.19,219.231C1117.3,219.231 1117.39,219.144 1117.39,219.033L1117.39,202.025C1117.39,201.915 1117.3,201.827 1117.19,201.827L1108.88,201.827C1108.69,201.827 1108.88,202.025 1108.88,201.827L1108.88,185.216C1108.88,185.017 1108.69,185.216 1108.88,185.216L1117.19,185.216C1117.3,185.216 1117.39,185.128 1117.39,185.017L1117.39,168.009C1117.39,167.899 1117.3,167.811 1117.19,167.811L1108.88,167.811C1108.69,167.811 1108.88,168.009 1108.88,167.811L1108.88,151.2C1108.88,151.002 1108.69,151.2 1108.88,151.2L1117.19,151.2C1117.3,151.2 1117.39,151.112 1117.39,151.002L1117.39,133.994C1117.39,133.883 1117.3,133.795 1117.19,133.795L1108.88,133.795C1108.69,133.795 1108.88,133.994 1108.88,133.795L1108.88,117.184C1108.88,116.986 1108.69,117.184 1108.88,117.184L1117.19,117.184C1117.3,117.184 1117.39,117.096 1117.39,116.986L1117.39,99.978C1117.39,99.867 1117.3,99.78 1117.19,99.78L1108.88,99.78C1108.69,99.78 1108.88,99.978 1108.88,99.78L1108.88,83.169C1108.88,82.97 1108.69,83.169 1108.88,83.169L1117.19,83.169C1117.3,83.169 1117.39,83.081 1117.39,82.97L1117.39,65.962C1117.39,65.852 1117.3,65.764 1117.19,65.764L1108.88,65.764C1108.69,65.764 1108.88,65.962 1108.88,65.764L1108.88,49.153C1108.88,48.954 1108.69,49.153 1108.88,49.153L1117.19,49.153C1117.3,49.153 1117.39,49.065 1117.39,48.954L1117.39,28.545C1117.39,28.434 1117.3,28.346 1117.19,28.346L1099.26,28.346C1099.15,28.346 1099.06,28.434 1099.06,28.545L1099.06,36.85C1099.06,37.049 1099.26,36.85 1099.06,36.85L1082.45,36.85C1082.25,36.85 1082.45,37.049 1082.45,36.85L1082.45,28.545C1082.45,28.434 1082.36,28.346 1082.25,28.346L1065.25,28.346C1065.13,28.346 1065.05,28.434 1065.05,28.545L1065.05,36.85C1065.05,37.049 1065.25,36.85 1065.05,36.85L1048.44,36.85C1048.24,36.85 1048.44,37.049 1048.44,36.85L1048.44,28.545C1048.44,28.434 1048.35,28.346 1048.24,28.346L1031.23,28.346C1031.12,28.346 1031.03,28.434 1031.03,28.545L1031.03,36.85C1031.03,37.049 1031.23,36.85 1031.03,36.85L1014.42,36.85C1014.22,36.85 1014.42,37.049 1014.42,36.85L1014.42,28.545C1014.42,28.434 1014.33,28.346 1014.22,28.346L997.214,28.346C997.104,28.346 997.016,28.434 997.016,28.545L997.016,36.85C997.016,37.049 997.214,36.85 997.016,36.85L980.405,36.85C980.206,36.85 980.405,37.049 980.405,36.85L980.405,28.545C980.405,28.434 980.317,28.346 980.206,28.346L963.198,28.346C963.088,28.346 963,28.434 963,28.545L963,36.85C963,37.049 963.198,36.85 963,36.85L946.389,36.85C946.191,36.85 946.389,37.049 946.389,36.85L946.389,28.545C946.389,28.434 946.301,28.346 946.191,28.346L929.183,28.346C929.072,28.346 928.984,28.434 928.984,28.545L928.984,36.85C928.984,37.049 929.183,36.85 928.984,36.85L912.373,36.85C912.175,36.85 912.373,37.049 912.373,36.85L912.373,28.545C912.373,28.434 912.285,28.346 912.175,28.346L895.167,28.346C895.056,28.346 894.969,28.434 894.969,28.545L894.969,36.85C894.969,37.049 895.167,36.85 894.969,36.85L878.357,36.85C878.159,36.85 878.357,37.049 878.357,36.85L878.357,28.545C878.357,28.434 878.27,28.346 878.159,28.346L861.151,28.346C861.041,28.346 860.953,28.434 860.953,28.545L860.953,36.85C860.953,37.049 861.151,36.85 860.953,36.85L844.342,36.85C844.143,36.85 844.342,37.049 844.342,36.85L844.342,28.545C844.342,28.434 844.254,28.346 844.143,28.346L827.135,28.346C827.025,28.346 826.937,28.434 826.937,28.545L826.937,36.85C826.937,37.049 827.135,36.85 826.937,36.85L810.326,36.85C810.128,36.85 810.326,37.049 810.326,36.85L810.326,28.545C810.326,28.434 810.238,28.346 810.128,28.346L793.12,28.346C793.009,28.346 792.921,28.434 792.921,28.545L792.921,36.85C792.921,37.049 793.12,36.85 792.921,36.85L776.31,36.85C776.112,36.85 776.31,37.049 776.31,36.85L776.31,28.545C776.31,28.434 776.222,28.346 776.112,28.346L758.183,28.346C758.072,28.346 757.984,28.434 757.984,28.545L757.984,48.954C757.984,49.065 758.072,49.153 758.183,49.153L766.488,49.153C766.687,49.153 766.488,48.954 766.488,49.153L766.488,65.764C766.488,65.962 766.687,65.764 766.488,65.764L758.183,65.764C758.072,65.764 757.984,65.852 757.984,65.962L757.984,82.97C757.984,83.081 758.072,83.169 758.183,83.169L766.488,83.169C766.687,83.169 766.488,82.97 766.488,83.169L766.488,99.78C766.488,99.978 766.687,99.78 766.488,99.78L758.183,99.78C758.072,99.78 757.984,99.867 757.984,99.978L757.984,116.986C757.984,117.096 758.072,117.184 758.183,117.184L766.488,117.184C766.687,117.184 766.488,116.986 766.488,117.184L766.488,133.795C766.488,133.994 766.687,133.795 766.488,133.795L758.183,133.795C758.072,133.795 757.984,133.883 757.984,133.994L757.984,151.002C757.984,151.112 758.072,151.2 758.183,151.2L766.488,151.2C766.687,151.2 766.488,151.002 766.488,151.2L766.488,167.811C766.488,168.009 766.687,167.811 766.488,167.811L758.183,167.811C758.072,167.811 757.984,167.899 757.984,168.009L757.984,185.017C757.984,185.128 758.072,185.216 758.183,185.216L766.488,185.216C766.687,185.216 766.488,185.017 766.488,185.216L766.488,201.827C766.488,202.025 766.687,201.827 766.488,201.827L758.183,201.827C758.072,201.827 757.984,201.915 757.984,202.025L757.984,219.033C757.984,219.144 758.072,219.231 758.183,219.231L766.488,219.231C766.687,219.231 766.488,219.033 766.488,219.231L766.488,235.843C766.488,236.041 766.687,235.843 766.488,235.843L758.183,235.843C758.072,235.843 757.984,235.93 757.984,236.041L757.984,253.049C757.984,253.159 758.072,253.247 758.183,253.247L766.488,253.247C766.687,253.247 766.488,253.049 766.488,253.247L766.488,269.858C766.488,270.057 766.687,269.858 766.488,269.858L758.183,269.858C758.072,269.858 757.984,269.946 757.984,270.057L757.984,287.065C757.984,287.175 758.072,287.263 758.183,287.263L766.488,287.263C766.687,287.263 766.488,287.065 766.488,287.263L766.488,303.874C766.488,304.072 766.687,303.874 766.488,303.874L758.183,303.874C758.072,303.874 757.984,303.962 757.984,304.072L757.984,321.08C757.984,321.191 758.072,321.279 758.183,321.279L766.488,321.279C766.687,321.279 766.488,321.08 766.488,321.279L766.488,337.89C766.488,338.088 766.687,337.89 766.488,337.89L758.183,337.89C758.072,337.89 757.984,337.978 757.984,338.088L757.984,355.096C757.984,355.207 758.072,355.294 758.183,355.294L766.488,355.294C766.687,355.294 766.488,355.096 766.488,355.294L766.488,371.906C766.488,372.104 766.687,371.906 766.488,371.906L758.183,371.906C758.072,371.906 757.984,371.993 757.984,372.104L757.984,389.112C757.984,389.222 758.072,389.31 758.183,389.31L766.488,389.31C766.687,389.31 766.488,389.112 766.488,389.31L766.488,405.921C766.488,406.12 766.687,405.921 766.488,405.921L758.183,405.921C758.072,405.921 757.984,406.009 757.984,406.12L757.984,423.128C757.984,423.238 758.072,423.326 758.183,423.326L766.488,423.326C766.687,423.326 766.488,423.128 766.488,423.326L766.488,439.937C766.488,440.135 766.687,439.937 766.488,439.937L758.183,439.937C758.072,439.937 757.984,440.025 757.984,440.135L757.984,460.545C757.984,460.655 758.072,460.743 758.183,460.743Z" style="fill:none;fill-rule:nonzero;stroke:black;stroke-width:0.4px;"/>
            <path d="M1134.99,460.743L1151.43,460.743C1151.54,460.743 1151.63,460.655 1151.63,460.545L1151.63,452.239C1151.63,452.041 1151.43,452.239 1151.63,452.239L1168.24,452.239C1168.44,452.239 1168.24,452.041 1168.24,452.239L1168.24,460.545C1168.24,460.655 1168.33,460.743 1168.44,460.743L1185.45,460.743C1185.56,460.743 1185.65,460.655 1185.65,460.545L1185.65,452.239C1185.65,452.041 1185.45,452.239 1185.65,452.239L1202.26,452.239C1202.46,452.239 1202.26,452.041 1202.26,452.239L1202.26,460.545C1202.26,460.655 1202.35,460.743 1202.46,460.743L1219.46,460.743C1219.58,460.743 1219.66,460.655 1219.66,460.545L1219.66,452.239C1219.66,452.041 1219.46,452.239 1219.66,452.239L1236.27,452.239C1236.47,452.239 1236.27,452.041 1236.27,452.239L1236.27,460.545C1236.27,460.655 1236.36,460.743 1236.47,460.743L1253.48,460.743C1253.59,460.743 1253.68,460.655 1253.68,460.545L1253.68,452.239C1253.68,452.041 1253.48,452.239 1253.68,452.239L1270.29,452.239C1270.49,452.239 1270.29,452.041 1270.29,452.239L1270.29,460.545C1270.29,460.655 1270.38,460.743 1270.49,460.743L1287.5,460.743C1287.61,460.743 1287.69,460.655 1287.69,460.545L1287.69,452.239C1287.69,452.041 1287.5,452.239 1287.69,452.239L1304.31,452.239C1304.5,452.239 1304.31,452.041 1304.31,452.239L1304.31,460.545C1304.31,460.655 1304.39,460.743 1304.5,460.743L1321.51,460.743C1321.62,460.743 1321.71,460.655 1321.71,460.545L1321.71,452.239C1321.71,452.041 1321.51,452.239 1321.71,452.239L1338.32,452.239C1338.52,452.239 1338.32,452.041 1338.32,452.239L1338.32,460.545C1338.32,460.655 1338.41,460.743 1338.52,460.743L1355.53,460.743C1355.64,460.743 1355.73,460.655 1355.73,460.545L1355.73,452.239C1355.73,452.041 1355.53,452.239 1355.73,452.239L1372.34,452.239C1372.54,452.239 1372.34,452.041 1372.34,452.239L1372.34,460.545C1372.34,460.655 1372.42,460.743 1372.54,460.743L1389.54,460.743C1389.65,460.743 1389.74,460.655 1389.74,460.545L1389.74,452.239C1389.74,452.041 1389.54,452.239 1389.74,452.239L1406.35,452.239C1406.55,452.239 1406.35,452.041 1406.35,452.239L1406.35,460.545C1406.35,460.655 1406.44,460.743 1406.55,460.743L1422.99,460.743L1422.19,460.743C1422.3,460.743 1422.39,460.655 1422.39,460.545L1422.39,440.334C1422.39,440.135 1422.19,440.334 1422.39,440.334L1430.65,440.334C1430.76,440.334 1430.85,440.246 1430.85,440.135L1430.85,423.128C1430.85,423.017 1430.76,422.929 1430.65,422.929L1422.39,422.929C1422.19,422.929 1422.39,423.128 1422.39,422.929L1422.39,406.318C1422.39,406.12 1422.19,406.318 1422.39,406.318L1430.65,406.318C1430.76,406.318 1430.85,406.23 1430.85,406.12L1430.85,389.112C1430.85,389.001 1430.76,388.913 1430.65,388.913L1422.39,388.913C1422.19,388.913 1422.39,389.112 1422.39,388.913L1422.39,372.302C1422.39,372.104 1422.19,372.302 1422.39,372.302L1430.65,372.302C1430.76,372.302 1430.85,372.214 1430.85,372.104L1430.85,355.096C1430.85,354.986 1430.76,354.898 1430.65,354.898L1422.39,354.898C1422.19,354.898 1422.39,355.096 1422.39,354.898L1422.39,338.287C1422.39,338.088 1422.19,338.287 1422.39,338.287L1430.65,338.287C1430.76,338.287 1430.85,338.199 1430.85,338.088L1430.85,321.08C1430.85,320.97 1430.76,320.882 1430.65,320.882L1422.39,320.882C1422.19,320.882 1422.39,321.08 1422.39,320.882L1422.39,304.271C1422.39,304.072 1422.19,304.271 1422.39,304.271L1430.65,304.271C1430.76,304.271 1430.85,304.183 1430.85,304.072L1430.85,287.065C1430.85,286.954 1430.76,286.866 1430.65,286.866L1422.39,286.866C1422.19,286.866 1422.39,287.065 1422.39,286.866L1422.39,270.255C1422.39,270.057 1422.19,270.255 1422.39,270.255L1430.65,270.255C1430.76,270.255 1430.85,270.167 1430.85,270.057L1430.85,253.049C1430.85,252.938 1430.76,252.85 1430.65,252.85L1422.39,252.85C1422.19,252.85 1422.39,253.049 1422.39,252.85L1422.39,236.239C1422.39,236.041 1422.19,236.239 1422.39,236.239L1430.65,236.239C1430.76,236.239 1430.85,236.151 1430.85,236.041L1430.85,219.033C1430.85,218.923 1430.76,218.835 1430.65,218.835L1422.39,218.835C1422.19,218.835 1422.39,219.033 1422.39,218.835L1422.39,202.224C1422.39,202.025 1422.19,202.224 1422.39,202.224L1430.65,202.224C1430.76,202.224 1430.85,202.136 1430.85,202.025L1430.85,185.017C1430.85,184.907 1430.76,184.819 1430.65,184.819L1422.39,184.819C1422.19,184.819 1422.39,185.017 1422.39,184.819L1422.39,168.208C1422.39,168.009 1422.19,168.208 1422.39,168.208L1430.65,168.208C1430.76,168.208 1430.85,168.12 1430.85,168.009L1430.85,151.002C1430.85,150.891 1430.76,150.803 1430.65,150.803L1422.39,150.803C1422.19,150.803 1422.39,151.002 1422.39,150.803L1422.39,134.192C1422.39,133.994 1422.19,134.192 1422.39,134.192L1430.65,134.192C1430.76,134.192 1430.85,134.104 1430.85,133.994L1430.85,116.986C1430.85,116.875 1430.76,116.787 1430.65,116.787L1422.39,116.787C1422.19,116.787 1422.39,116.986 1422.39,116.787L1422.39,100.176C1422.39,99.978 1422.19,100.176 1422.39,100.176L1430.65,100.176C1430.76,100.176 1430.85,100.089 1430.85,99.978L1430.85,82.97C1430.85,82.86 1430.76,82.772 1430.65,82.772L1422.39,82.772C1422.19,82.772 1422.39,82.97 1422.39,82.772L1422.39,66.161C1422.39,65.962 1422.19,66.161 1422.39,66.161L1430.65,66.161C1430.76,66.161 1430.85,66.073 1430.85,65.962L1430.85,48.954C1430.85,48.844 1430.76,48.756 1430.65,48.756L1422.39,48.756C1422.19,48.756 1422.39,48.954 1422.39,48.756L1422.39,28.545C1422.39,28.434 1422.3,28.346 1422.19,28.346L1422.99,28.346L1406.55,28.346C1406.44,28.346 1406.35,28.434 1406.35,28.545L1406.35,36.85C1406.35,37.049 1406.55,36.85 1406.35,36.85L1389.74,36.85C1389.54,36.85 1389.74,37.049 1389.74,36.85L1389.74,28.545C1389.74,28.434 1389.65,28.346 1389.54,28.346L1372.54,28.346C1372.42,28.346 1372.34,28.434 1372.34,28.545L1372.34,36.85C1372.34,37.049 1372.54,36.85 1372.34,36.85L1355.73,36.85C1355.53,36.85 1355.73,37.049 1355.73,36.85L1355.73,28.545C1355.73,28.434 1355.64,28.346 1355.53,28.346L1338.52,28.346C1338.41,28.346 1338.32,28.434 1338.32,28.545L1338.32,36.85C1338.32,37.049 1338.52,36.85 1338.32,36.85L1321.71,36.85C1321.51,36.85 1321.71,37.049 1321.71,36.85L1321.71,28.545C1321.71,28.434 1321.62,28.346 1321.51,28.346L1304.5,28.346C1304.39,28.346 1304.31,28.434 1304.31,28.545L1304.31,36.85C1304.31,37.049 1304.5,36.85 1304.31,36.85L1287.69,36.85C1287.5,36.85 1287.69,37.049 1287.69,36.85L1287.69,28.545C1287.69,28.434 1287.61,28.346 1287.5,28.346L1270.49,28.346C1270.38,28.346 1270.29,28.434 1270.29,28.545L1270.29,36.85C1270.29,37.049 1270.49,36.85 1270.29,36.85L1253.68,36.85C1253.48,36.85 1253.68,37.049 1253.68,36.85L1253.68,28.545C1253.68,28.434 1253.59,28.346 1253.48,28.346L1236.47,28.346C1236.36,28.346 1236.27,28.434 1236.27,28.545L1236.27,36.85C1236.27,37.049 1236.47,36.85 1236.27,36.85L1219.66,36.85C1219.46,36.85 1219.66,37.049 1219.66,36.85L1219.66,28.545C1219.66,28.434 1219.58,28.346 1219.46,28.346L1202.46,28.346C1202.35,28.346 1202.26,28.434 1202.26,28.545L1202.26,36.85C1202.26,37.049 1202.46,36.85 1202.26,36.85L1185.65,36.85C1185.45,36.85 1185.65,37.049 1185.65,36.85L1185.65,28.545C1185.65,28.434 1185.56,28.346 1185.45,28.346L1168.44,28.346C1168.33,28.346 1168.24,28.434 1168.24,28.545L1168.24,36.85C1168.24,37.049 1168.44,36.85 1168.24,36.85L1151.63,36.85C1151.43,36.85 1151.63,37.049 1151.63,36.85L1151.63,28.545C1151.63,28.434 1151.54,28.346 1151.43,28.346L1134.99,28.346C1134.88,28.346 1134.79,28.434 1134.79,28.545L1134.79,48.756C1134.79,48.954 1134.99,48.756 1134.79,48.756L1126.49,48.756C1126.38,48.756 1126.29,48.844 1126.29,48.954L1126.29,65.962C1126.29,66.073 1126.38,66.161 1126.49,66.161L1134.79,66.161C1134.99,66.161 1134.79,65.962 1134.79,66.161L1134.79,82.772C1134.79,82.97 1134.99,82.772 1134.79,82.772L1126.49,82.772C1126.38,82.772 1126.29,82.86 1126.29,82.97L1126.29,99.978C1126.29,100.089 1126.38,100.176 1126.49,100.176L1134.79,100.176C1134.99,100.176 1134.79,99.978 1134.79,100.176L1134.79,116.787C1134.79,116.986 1134.99,116.787 1134.79,116.787L1126.49,116.787C1126.38,116.787 1126.29,116.875 1126.29,116.986L1126.29,133.994C1126.29,134.104 1126.38,134.192 1126.49,134.192L1134.79,134.192C1134.99,134.192 1134.79,133.994 1134.79,134.192L1134.79,150.803C1134.79,151.002 1134.99,150.803 1134.79,150.803L1126.49,150.803C1126.38,150.803 1126.29,150.891 1126.29,151.002L1126.29,168.009C1126.29,168.12 1126.38,168.208 1126.49,168.208L1134.79,168.208C1134.99,168.208 1134.79,168.009 1134.79,168.208L1134.79,184.819C1134.79,185.017 1134.99,184.819 1134.79,184.819L1126.49,184.819C1126.38,184.819 1126.29,184.907 1126.29,185.017L1126.29,202.025C1126.29,202.136 1126.38,202.224 1126.49,202.224L1134.79,202.224C1134.99,202.224 1134.79,202.025 1134.79,202.224L1134.79,218.835C1134.79,219.033 1134.99,218.835 1134.79,218.835L1126.49,218.835C1126.38,218.835 1126.29,218.923 1126.29,219.033L1126.29,236.041C1126.29,236.151 1126.38,236.239 1126.49,236.239L1134.79,236.239C1134.99,236.239 1134.79,236.041 1134.79,236.239L1134.79,252.85C1134.79,253.049 1134.99,252.85 1134.79,252.85L1126.49,252.85C1126.38,252.85 1126.29,252.938 1126.29,253.049L1126.29,270.057C1126.29,270.167 1126.38,270.255 1126.49,270.255L1134.79,270.255C1134.99,270.255 1134.79,270.057 1134.79,270.255L1134.79,286.866C1134.79,287.065 1134.99,286.866 1134.79,286.866L1126.49,286.866C1126.38,286.866 1126.29,286.954 1126.29,287.065L1126.29,304.072C1126.29,304.183 1126.38,304.271 1126.49,304.271L1134.79,304.271C1134.99,304.271 1134.79,304.072 1134.79,304.271L1134.79,320.882C1134.79,321.08 1134.99,320.882 1134.79,320.882L1126.49,320.882C1126.38,320.882 1126.29,320.97 1126.29,321.08L1126.29,338.088C1126.29,338.199 1126.38,338.287 1126.49,338.287L1134.79,338.287C1134.99,338.287 1134.79,338.088 1134.79,338.287L1134.79,354.898C1134.79,355.096 1134.99,354.898 1134.79,354.898L1126.49,354.898C1126.38,354.898 1126.29,354.986 1126.29,355.096L1126.29,372.104C1126.29,372.214 1126.38,372.302 1126.49,372.302L1134.79,372.302C1134.99,372.302 1134.79,372.104 1134.79,372.302L1134.79,388.913C1134.79,389.112 1134.99,388.913 1134.79,388.913L1126.49,388.913C1126.38,388.913 1126.29,389.001 1126.29,389.112L1126.29,406.12C1126.29,406.23 1126.38,406.318 1126.49,406.318L1134.79,406.318C1134.99,406.318 1134.79,406.12 1134.79,406.318L1134.79,422.929C1134.79,423.128 1134.99,422.929 1134.79,422.929L1126.49,422.929C1126.38,422.929 1126.29,423.017 1126.29,423.128L1126.29,440.135C1126.29,440.246 1126.38,440.334 1126.49,440.334L1134.79,440.334C1134.99,440.334 1134.79,440.135 1134.79,440.334L1134.79,460.545C1134.79,460.655 1134.88,460.743 1134.99,460.743Z" style="fill:none;fill-rule:nonzero;stroke:black;stroke-width:0.4px;"/>
            <g transform="matrix(1,0,0,1,-1.23778,-1.17163)">
                <path d="M1440.79,460.743L1458.82,460.743C1458.93,460.743 1459.02,460.655 1459.02,460.545L1459.02,452.239C1459.02,452.041 1458.82,452.239 1459.02,452.239L1475.63,452.239C1475.82,452.239 1475.63,452.041 1475.63,452.239L1475.63,460.545C1475.63,460.655 1475.72,460.743 1475.82,460.743L1492.83,460.743C1492.94,460.743 1493.03,460.655 1493.03,460.545L1493.03,452.239C1493.03,452.041 1492.83,452.239 1493.03,452.239L1509.64,452.239C1509.84,452.239 1509.64,452.041 1509.64,452.239L1509.64,460.545C1509.64,460.655 1509.73,460.743 1509.84,460.743L1526.85,460.743C1526.96,460.743 1527.05,460.655 1527.05,460.545L1527.05,452.239C1527.05,452.041 1526.85,452.239 1527.05,452.239L1543.66,452.239C1543.86,452.239 1543.66,452.041 1543.66,452.239L1543.66,460.545C1543.66,460.655 1543.75,460.743 1543.86,460.743L1560.86,460.743C1560.97,460.743 1561.06,460.655 1561.06,460.545L1561.06,452.239C1561.06,452.041 1560.86,452.239 1561.06,452.239L1577.67,452.239C1577.87,452.239 1577.67,452.041 1577.67,452.239L1577.67,460.545C1577.67,460.655 1577.76,460.743 1577.87,460.743L1594.88,460.743C1594.99,460.743 1595.08,460.655 1595.08,460.545L1595.08,452.239C1595.08,452.041 1594.88,452.239 1595.08,452.239L1611.69,452.239C1611.89,452.239 1611.69,452.041 1611.69,452.239L1611.69,460.545C1611.69,460.655 1611.78,460.743 1611.89,460.743L1628.89,460.743C1629.01,460.743 1629.09,460.655 1629.09,460.545L1629.09,452.239C1629.09,452.041 1628.89,452.239 1629.09,452.239L1645.7,452.239C1645.9,452.239 1645.7,452.041 1645.7,452.239L1645.7,460.545C1645.7,460.655 1645.8,460.743 1645.9,460.743L1662.91,460.743C1663.02,460.743 1663.11,460.655 1663.11,460.545L1663.11,452.239C1663.11,452.041 1662.91,452.239 1663.11,452.239L1679.72,452.239C1679.92,452.239 1679.72,452.041 1679.72,452.239L1679.72,460.545C1679.72,460.655 1679.81,460.743 1679.92,460.743L1696.93,460.743C1697.04,460.743 1697.12,460.655 1697.12,460.545L1697.12,452.239C1697.12,452.041 1696.93,452.239 1697.12,452.239L1713.74,452.239C1713.93,452.239 1713.74,452.041 1713.74,452.239L1713.74,460.545C1713.74,460.655 1713.83,460.743 1713.93,460.743L1730.94,460.743C1731.05,460.743 1731.14,460.655 1731.14,460.545L1731.14,452.239C1731.14,452.041 1730.94,452.239 1731.14,452.239L1747.75,452.239C1747.95,452.239 1747.75,452.041 1747.75,452.239L1747.75,460.545C1747.75,460.655 1747.84,460.743 1747.95,460.743L1764.96,460.743C1765.07,460.743 1765.16,460.655 1765.16,460.545L1765.16,452.239C1765.16,452.041 1764.96,452.239 1765.16,452.239L1781.77,452.239C1781.97,452.239 1781.77,452.041 1781.77,452.239L1781.77,460.545C1781.77,460.655 1781.86,460.743 1781.97,460.743L1800.84,460.743C1800.95,460.743 1801.04,460.655 1801.04,460.545L1801.04,440.135C1801.04,440.025 1800.95,439.937 1800.84,439.937L1792.53,439.937C1792.34,439.937 1792.53,440.135 1792.53,439.937L1792.53,423.326C1792.53,423.128 1792.34,423.326 1792.53,423.326L1800.84,423.326C1800.95,423.326 1801.04,423.238 1801.04,423.128L1801.04,406.12C1801.04,406.009 1800.95,405.921 1800.84,405.921L1792.53,405.921C1792.34,405.921 1792.53,406.12 1792.53,405.921L1792.53,389.31C1792.53,389.112 1792.34,389.31 1792.53,389.31L1800.84,389.31C1800.95,389.31 1801.04,389.222 1801.04,389.112L1801.04,372.104C1801.04,371.993 1800.95,371.906 1800.84,371.906L1792.53,371.906C1792.34,371.906 1792.53,372.104 1792.53,371.906L1792.53,355.294C1792.53,355.096 1792.34,355.294 1792.53,355.294L1800.84,355.294C1800.95,355.294 1801.04,355.207 1801.04,355.096L1801.04,338.088C1801.04,337.978 1800.95,337.89 1800.84,337.89L1792.53,337.89C1792.34,337.89 1792.53,338.088 1792.53,337.89L1792.53,321.279C1792.53,321.08 1792.34,321.279 1792.53,321.279L1800.84,321.279C1800.95,321.279 1801.04,321.191 1801.04,321.08L1801.04,304.072C1801.04,303.962 1800.95,303.874 1800.84,303.874L1792.53,303.874C1792.34,303.874 1792.53,304.072 1792.53,303.874L1792.53,287.263C1792.53,287.065 1792.34,287.263 1792.53,287.263L1800.84,287.263C1800.95,287.263 1801.04,287.175 1801.04,287.065L1801.04,270.057C1801.04,269.946 1800.95,269.858 1800.84,269.858L1792.53,269.858C1792.34,269.858 1792.53,270.057 1792.53,269.858L1792.53,253.247C1792.53,253.049 1792.34,253.247 1792.53,253.247L1800.84,253.247C1800.95,253.247 1801.04,253.159 1801.04,253.049L1801.04,236.041C1801.04,235.93 1800.95,235.843 1800.84,235.843L1792.53,235.843C1792.34,235.843 1792.53,236.041 1792.53,235.843L1792.53,219.231C1792.53,219.033 1792.34,219.231 1792.53,219.231L1800.84,219.231C1800.95,219.231 1801.04,219.144 1801.04,219.033L1801.04,202.025C1801.04,201.915 1800.95,201.827 1800.84,201.827L1792.53,201.827C1792.34,201.827 1792.53,202.025 1792.53,201.827L1792.53,185.216C1792.53,185.017 1792.34,185.216 1792.53,185.216L1800.84,185.216C1800.95,185.216 1801.04,185.128 1801.04,185.017L1801.04,168.009C1801.04,167.899 1800.95,167.811 1800.84,167.811L1792.53,167.811C1792.34,167.811 1792.53,168.009 1792.53,167.811L1792.53,151.2C1792.53,151.002 1792.34,151.2 1792.53,151.2L1800.84,151.2C1800.95,151.2 1801.04,151.112 1801.04,151.002L1801.04,133.994C1801.04,133.883 1800.95,133.795 1800.84,133.795L1792.53,133.795C1792.34,133.795 1792.53,133.994 1792.53,133.795L1792.53,117.184C1792.53,116.986 1792.34,117.184 1792.53,117.184L1800.84,117.184C1800.95,117.184 1801.04,117.096 1801.04,116.986L1801.04,99.978C1801.04,99.867 1800.95,99.78 1800.84,99.78L1792.53,99.78C1792.34,99.78 1792.53,99.978 1792.53,99.78L1792.53,83.169C1792.53,82.97 1792.34,83.169 1792.53,83.169L1800.84,83.169C1800.95,83.169 1801.04,83.081 1801.04,82.97L1801.04,65.962C1801.04,65.852 1800.95,65.764 1800.84,65.764L1792.53,65.764C1792.34,65.764 1792.53,65.962 1792.53,65.764L1792.53,49.153C1792.53,48.954 1792.34,49.153 1792.53,49.153L1800.84,49.153C1800.95,49.153 1801.04,49.065 1801.04,48.954L1801.04,28.545C1801.04,28.434 1800.95,28.346 1800.84,28.346L1781.97,28.346C1781.86,28.346 1781.77,28.434 1781.77,28.545L1781.77,36.85C1781.77,37.049 1781.97,36.85 1781.77,36.85L1765.16,36.85C1764.96,36.85 1765.16,37.049 1765.16,36.85L1765.16,28.545C1765.16,28.434 1765.07,28.346 1764.96,28.346L1747.95,28.346C1747.84,28.346 1747.75,28.434 1747.75,28.545L1747.75,36.85C1747.75,37.049 1747.95,36.85 1747.75,36.85L1731.14,36.85C1730.94,36.85 1731.14,37.049 1731.14,36.85L1731.14,28.545C1731.14,28.434 1731.05,28.346 1730.94,28.346L1713.93,28.346C1713.83,28.346 1713.74,28.434 1713.74,28.545L1713.74,36.85C1713.74,37.049 1713.93,36.85 1713.74,36.85L1697.12,36.85C1696.93,36.85 1697.12,37.049 1697.12,36.85L1697.12,28.545C1697.12,28.434 1697.04,28.346 1696.93,28.346L1679.92,28.346C1679.81,28.346 1679.72,28.434 1679.72,28.545L1679.72,36.85C1679.72,37.049 1679.92,36.85 1679.72,36.85L1663.11,36.85C1662.91,36.85 1663.11,37.049 1663.11,36.85L1663.11,28.545C1663.11,28.434 1663.02,28.346 1662.91,28.346L1645.9,28.346C1645.8,28.346 1645.7,28.434 1645.7,28.545L1645.7,36.85C1645.7,37.049 1645.9,36.85 1645.7,36.85L1629.09,36.85C1628.89,36.85 1629.09,37.049 1629.09,36.85L1629.09,28.545C1629.09,28.434 1629.01,28.346 1628.89,28.346L1611.89,28.346C1611.78,28.346 1611.69,28.434 1611.69,28.545L1611.69,36.85C1611.69,37.049 1611.89,36.85 1611.69,36.85L1595.08,36.85C1594.88,36.85 1595.08,37.049 1595.08,36.85L1595.08,28.545C1595.08,28.434 1594.99,28.346 1594.88,28.346L1577.87,28.346C1577.76,28.346 1577.67,28.434 1577.67,28.545L1577.67,36.85C1577.67,37.049 1577.87,36.85 1577.67,36.85L1561.06,36.85C1560.86,36.85 1561.06,37.049 1561.06,36.85L1561.06,28.545C1561.06,28.434 1560.97,28.346 1560.86,28.346L1543.86,28.346C1543.75,28.346 1543.66,28.434 1543.66,28.545L1543.66,36.85C1543.66,37.049 1543.86,36.85 1543.66,36.85L1527.05,36.85C1526.85,36.85 1527.05,37.049 1527.05,36.85L1527.05,28.545C1527.05,28.434 1526.96,28.346 1526.85,28.346L1509.84,28.346C1509.73,28.346 1509.64,28.434 1509.64,28.545L1509.64,36.85C1509.64,37.049 1509.84,36.85 1509.64,36.85L1493.03,36.85C1492.83,36.85 1493.03,37.049 1493.03,36.85L1493.03,28.545C1493.03,28.434 1492.94,28.346 1492.83,28.346L1475.82,28.346C1475.72,28.346 1475.63,28.434 1475.63,28.545L1475.63,36.85C1475.63,37.049 1475.82,36.85 1475.63,36.85L1459.02,36.85C1458.82,36.85 1459.02,37.049 1459.02,36.85L1459.02,28.545C1459.02,28.434 1458.93,28.346 1458.82,28.346L1440.79,28.346C1440.68,28.346 1440.6,28.434 1440.6,28.545L1440.6,48.954C1440.6,49.065 1440.68,49.153 1440.79,49.153L1449.05,49.153C1449.25,49.153 1449.05,48.954 1449.05,49.153L1449.05,65.764C1449.05,65.962 1449.25,65.764 1449.05,65.764L1440.79,65.764C1440.68,65.764 1440.6,65.852 1440.6,65.962L1440.6,82.97C1440.6,83.081 1440.68,83.169 1440.79,83.169L1449.05,83.169C1449.25,83.169 1449.05,82.97 1449.05,83.169L1449.05,99.78C1449.05,99.978 1449.25,99.78 1449.05,99.78L1440.79,99.78C1440.68,99.78 1440.6,99.867 1440.6,99.978L1440.6,116.986C1440.6,117.096 1440.68,117.184 1440.79,117.184L1449.05,117.184C1449.25,117.184 1449.05,116.986 1449.05,117.184L1449.05,133.795C1449.05,133.994 1449.25,133.795 1449.05,133.795L1440.79,133.795C1440.68,133.795 1440.6,133.883 1440.6,133.994L1440.6,151.002C1440.6,151.112 1440.68,151.2 1440.79,151.2L1449.05,151.2C1449.25,151.2 1449.05,151.002 1449.05,151.2L1449.05,167.811C1449.05,168.009 1449.25,167.811 1449.05,167.811L1440.79,167.811C1440.68,167.811 1440.6,167.899 1440.6,168.009L1440.6,185.017C1440.6,185.128 1440.68,185.216 1440.79,185.216L1449.05,185.216C1449.25,185.216 1449.05,185.017 1449.05,185.216L1449.05,201.827C1449.05,202.025 1449.25,201.827 1449.05,201.827L1440.79,201.827C1440.68,201.827 1440.6,201.915 1440.6,202.025L1440.6,219.033C1440.6,219.144 1440.68,219.231 1440.79,219.231L1449.05,219.231C1449.25,219.231 1449.05,219.033 1449.05,219.231L1449.05,235.843C1449.05,236.041 1449.25,235.843 1449.05,235.843L1440.79,235.843C1440.68,235.843 1440.6,235.93 1440.6,236.041L1440.6,253.049C1440.6,253.159 1440.68,253.247 1440.79,253.247L1449.05,253.247C1449.25,253.247 1449.05,253.049 1449.05,253.247L1449.05,269.858C1449.05,270.057 1449.25,269.858 1449.05,269.858L1440.79,269.858C1440.68,269.858 1440.6,269.946 1440.6,270.057L1440.6,287.065C1440.6,287.175 1440.68,287.263 1440.79,287.263L1449.05,287.263C1449.25,287.263 1449.05,287.065 1449.05,287.263L1449.05,303.874C1449.05,304.072 1449.25,303.874 1449.05,303.874L1440.79,303.874C1440.68,303.874 1440.6,303.962 1440.6,304.072L1440.6,321.08C1440.6,321.191 1440.68,321.279 1440.79,321.279L1449.05,321.279C1449.25,321.279 1449.05,321.08 1449.05,321.279L1449.05,337.89C1449.05,338.088 1449.25,337.89 1449.05,337.89L1440.79,337.89C1440.68,337.89 1440.6,337.978 1440.6,338.088L1440.6,355.096C1440.6,355.207 1440.68,355.294 1440.79,355.294L1449.05,355.294C1449.25,355.294 1449.05,355.096 1449.05,355.294L1449.05,371.906C1449.05,372.104 1449.25,371.906 1449.05,371.906L1440.79,371.906C1440.68,371.906 1440.6,371.993 1440.6,372.104L1440.6,389.112C1440.6,389.222 1440.68,389.31 1440.79,389.31L1449.05,389.31C1449.25,389.31 1449.05,389.112 1449.05,389.31L1449.05,405.921C1449.05,406.12 1449.25,405.921 1449.05,405.921L1440.79,405.921C1440.68,405.921 1440.6,406.009 1440.6,406.12L1440.6,423.128C1440.6,423.238 1440.68,423.326 1440.79,423.326L1449.05,423.326C1449.25,423.326 1449.05,423.128 1449.05,423.326L1449.05,439.937C1449.05,440.135 1449.25,439.937 1449.05,439.937L1440.79,439.937C1440.68,439.937 1440.6,440.025 1440.6,440.135L1440.6,460.545C1440.6,460.655 1440.68,460.743 1440.79,460.743Z" style="fill:none;fill-rule:nonzero;stroke:black;stroke-width:0.4px;"/>
            </g>
            <path d="M1817.79,460.743L1835.2,460.743C1835.31,460.743 1835.4,460.655 1835.4,460.545L1835.4,452.239C1835.4,452.041 1835.2,452.239 1835.4,452.239L1852.01,452.239C1852.21,452.239 1852.01,452.041 1852.01,452.239L1852.01,460.545C1852.01,460.655 1852.1,460.743 1852.21,460.743L1869.21,460.743C1869.32,460.743 1869.41,460.655 1869.41,460.545L1869.41,452.239C1869.41,452.041 1869.21,452.239 1869.41,452.239L1886.02,452.239C1886.22,452.239 1886.02,452.041 1886.02,452.239L1886.02,460.545C1886.02,460.655 1886.11,460.743 1886.22,460.743L1903.23,460.743C1903.34,460.743 1903.43,460.655 1903.43,460.545L1903.43,452.239C1903.43,452.041 1903.23,452.239 1903.43,452.239L1920.04,452.239C1920.24,452.239 1920.04,452.041 1920.04,452.239L1920.04,460.545C1920.04,460.655 1920.13,460.743 1920.24,460.743L1937.25,460.743C1937.36,460.743 1937.44,460.655 1937.44,460.545L1937.44,452.239C1937.44,452.041 1937.25,452.239 1937.44,452.239L1954.05,452.239C1954.25,452.239 1954.05,452.041 1954.05,452.239L1954.05,460.545C1954.05,460.655 1954.14,460.743 1954.25,460.743L1971.26,460.743C1971.37,460.743 1971.46,460.655 1971.46,460.545L1971.46,452.239C1971.46,452.041 1971.26,452.239 1971.46,452.239L1988.07,452.239C1988.27,452.239 1988.07,452.041 1988.07,452.239L1988.07,460.545C1988.07,460.655 1988.16,460.743 1988.27,460.743L2005.28,460.743C2005.39,460.743 2005.48,460.655 2005.48,460.545L2005.48,452.239C2005.48,452.041 2005.28,452.239 2005.48,452.239L2022.09,452.239C2022.28,452.239 2022.09,452.041 2022.09,452.239L2022.09,460.545C2022.09,460.655 2022.18,460.743 2022.28,460.743L2039.29,460.743C2039.4,460.743 2039.49,460.655 2039.49,460.545L2039.49,452.239C2039.49,452.041 2039.29,452.239 2039.49,452.239L2056.1,452.239C2056.3,452.239 2056.1,452.041 2056.1,452.239L2056.1,460.545C2056.1,460.655 2056.19,460.743 2056.3,460.743L2073.31,460.743C2073.42,460.743 2073.51,460.655 2073.51,460.545L2073.51,452.239C2073.51,452.041 2073.31,452.239 2073.51,452.239L2090.12,452.239C2090.32,452.239 2090.12,452.041 2090.12,452.239L2090.12,460.545C2090.12,460.655 2090.21,460.743 2090.32,460.743L2107.32,460.743C2107.43,460.743 2107.52,460.655 2107.52,460.545L2107.52,452.239C2107.52,452.041 2107.32,452.239 2107.52,452.239L2124.13,452.239C2124.33,452.239 2124.13,452.041 2124.13,452.239L2124.13,460.545C2124.13,460.655 2124.22,460.743 2124.33,460.743L2141.74,460.743C2141.85,460.743 2141.94,460.655 2141.94,460.545L2141.94,440.334C2141.94,440.135 2141.74,440.334 2141.94,440.334L2150.24,440.334C2150.35,440.334 2150.44,440.246 2150.44,440.135L2150.44,423.128C2150.44,423.017 2150.35,422.929 2150.24,422.929L2141.94,422.929C2141.74,422.929 2141.94,423.128 2141.94,422.929L2141.94,406.318C2141.94,406.12 2141.74,406.318 2141.94,406.318L2150.24,406.318C2150.35,406.318 2150.44,406.23 2150.44,406.12L2150.44,389.112C2150.44,389.001 2150.35,388.913 2150.24,388.913L2141.94,388.913C2141.74,388.913 2141.94,389.112 2141.94,388.913L2141.94,372.302C2141.94,372.104 2141.74,372.302 2141.94,372.302L2150.24,372.302C2150.35,372.302 2150.44,372.214 2150.44,372.104L2150.44,355.096C2150.44,354.986 2150.35,354.898 2150.24,354.898L2141.94,354.898C2141.74,354.898 2141.94,355.096 2141.94,354.898L2141.94,338.287C2141.94,338.088 2141.74,338.287 2141.94,338.287L2150.24,338.287C2150.35,338.287 2150.44,338.199 2150.44,338.088L2150.44,321.08C2150.44,320.97 2150.35,320.882 2150.24,320.882L2141.94,320.882C2141.74,320.882 2141.94,321.08 2141.94,320.882L2141.94,304.271C2141.94,304.072 2141.74,304.271 2141.94,304.271L2150.24,304.271C2150.35,304.271 2150.44,304.183 2150.44,304.072L2150.44,287.065C2150.44,286.954 2150.35,286.866 2150.24,286.866L2141.94,286.866C2141.74,286.866 2141.94,287.065 2141.94,286.866L2141.94,270.255C2141.94,270.057 2141.74,270.255 2141.94,270.255L2150.24,270.255C2150.35,270.255 2150.44,270.167 2150.44,270.057L2150.44,253.049C2150.44,252.938 2150.35,252.85 2150.24,252.85L2141.94,252.85C2141.74,252.85 2141.94,253.049 2141.94,252.85L2141.94,236.239C2141.94,236.041 2141.74,236.239 2141.94,236.239L2150.24,236.239C2150.35,236.239 2150.44,236.151 2150.44,236.041L2150.44,219.033C2150.44,218.923 2150.35,218.835 2150.24,218.835L2141.94,218.835C2141.74,218.835 2141.94,219.033 2141.94,218.835L2141.94,202.224C2141.94,202.025 2141.74,202.224 2141.94,202.224L2150.24,202.224C2150.35,202.224 2150.44,202.136 2150.44,202.025L2150.44,185.017C2150.44,184.907 2150.35,184.819 2150.24,184.819L2141.94,184.819C2141.74,184.819 2141.94,185.017 2141.94,184.819L2141.94,168.208C2141.94,168.009 2141.74,168.208 2141.94,168.208L2150.24,168.208C2150.35,168.208 2150.44,168.12 2150.44,168.009L2150.44,151.002C2150.44,150.891 2150.35,150.803 2150.24,150.803L2141.94,150.803C2141.74,150.803 2141.94,151.002 2141.94,150.803L2141.94,134.192C2141.94,133.994 2141.74,134.192 2141.94,134.192L2150.24,134.192C2150.35,134.192 2150.44,134.104 2150.44,133.994L2150.44,116.986C2150.44,116.875 2150.35,116.787 2150.24,116.787L2141.94,116.787C2141.74,116.787 2141.94,116.986 2141.94,116.787L2141.94,100.176C2141.94,99.978 2141.74,100.176 2141.94,100.176L2150.24,100.176C2150.35,100.176 2150.44,100.089 2150.44,99.978L2150.44,82.97C2150.44,82.86 2150.35,82.772 2150.24,82.772L2141.94,82.772C2141.74,82.772 2141.94,82.97 2141.94,82.772L2141.94,66.161C2141.94,65.962 2141.74,66.161 2141.94,66.161L2150.24,66.161C2150.35,66.161 2150.44,66.073 2150.44,65.962L2150.44,48.954C2150.44,48.844 2150.35,48.756 2150.24,48.756L2141.94,48.756C2141.74,48.756 2141.94,48.954 2141.94,48.756L2141.94,28.545C2141.94,28.434 2141.85,28.346 2141.74,28.346L2124.33,28.346C2124.22,28.346 2124.13,28.434 2124.13,28.545L2124.13,36.85C2124.13,37.049 2124.33,36.85 2124.13,36.85L2107.52,36.85C2107.32,36.85 2107.52,37.049 2107.52,36.85L2107.52,28.545C2107.52,28.434 2107.43,28.346 2107.32,28.346L2090.32,28.346C2090.21,28.346 2090.12,28.434 2090.12,28.545L2090.12,36.85C2090.12,37.049 2090.32,36.85 2090.12,36.85L2073.51,36.85C2073.31,36.85 2073.51,37.049 2073.51,36.85L2073.51,28.545C2073.51,28.434 2073.42,28.346 2073.31,28.346L2056.3,28.346C2056.19,28.346 2056.1,28.434 2056.1,28.545L2056.1,36.85C2056.1,37.049 2056.3,36.85 2056.1,36.85L2039.49,36.85C2039.29,36.85 2039.49,37.049 2039.49,36.85L2039.49,28.545C2039.49,28.434 2039.4,28.346 2039.29,28.346L2022.28,28.346C2022.18,28.346 2022.09,28.434 2022.09,28.545L2022.09,36.85C2022.09,37.049 2022.28,36.85 2022.09,36.85L2005.48,36.85C2005.28,36.85 2005.48,37.049 2005.48,36.85L2005.48,28.545C2005.48,28.434 2005.39,28.346 2005.28,28.346L1988.27,28.346C1988.16,28.346 1988.07,28.434 1988.07,28.545L1988.07,36.85C1988.07,37.049 1988.27,36.85 1988.07,36.85L1971.46,36.85C1971.26,36.85 1971.46,37.049 1971.46,36.85L1971.46,28.545C1971.46,28.434 1971.37,28.346 1971.26,28.346L1954.25,28.346C1954.14,28.346 1954.05,28.434 1954.05,28.545L1954.05,36.85C1954.05,37.049 1954.25,36.85 1954.05,36.85L1937.44,36.85C1937.25,36.85 1937.44,37.049 1937.44,36.85L1937.44,28.545C1937.44,28.434 1937.36,28.346 1937.25,28.346L1920.24,28.346C1920.13,28.346 1920.04,28.434 1920.04,28.545L1920.04,36.85C1920.04,37.049 1920.24,36.85 1920.04,36.85L1903.43,36.85C1903.23,36.85 1903.43,37.049 1903.43,36.85L1903.43,28.545C1903.43,28.434 1903.34,28.346 1903.23,28.346L1886.22,28.346C1886.11,28.346 1886.02,28.434 1886.02,28.545L1886.02,36.85C1886.02,37.049 1886.22,36.85 1886.02,36.85L1869.41,36.85C1869.21,36.85 1869.41,37.049 1869.41,36.85L1869.41,28.545C1869.41,28.434 1869.32,28.346 1869.21,28.346L1852.21,28.346C1852.1,28.346 1852.01,28.434 1852.01,28.545L1852.01,36.85C1852.01,37.049 1852.21,36.85 1852.01,36.85L1835.4,36.85C1835.2,36.85 1835.4,37.049 1835.4,36.85L1835.4,28.545C1835.4,28.434 1835.31,28.346 1835.2,28.346L1817.79,28.346C1817.68,28.346 1817.6,28.434 1817.6,28.545L1817.6,48.756C1817.6,48.954 1817.79,48.756 1817.6,48.756L1809.29,48.756C1809.18,48.756 1809.09,48.844 1809.09,48.954L1809.09,65.962C1809.09,66.073 1809.18,66.161 1809.29,66.161L1817.6,66.161C1817.79,66.161 1817.6,65.962 1817.6,66.161L1817.6,82.772C1817.6,82.97 1817.79,82.772 1817.6,82.772L1809.29,82.772C1809.18,82.772 1809.09,82.86 1809.09,82.97L1809.09,99.978C1809.09,100.089 1809.18,100.176 1809.29,100.176L1817.6,100.176C1817.79,100.176 1817.6,99.978 1817.6,100.176L1817.6,116.787C1817.6,116.986 1817.79,116.787 1817.6,116.787L1809.29,116.787C1809.18,116.787 1809.09,116.875 1809.09,116.986L1809.09,133.994C1809.09,134.104 1809.18,134.192 1809.29,134.192L1817.6,134.192C1817.79,134.192 1817.6,133.994 1817.6,134.192L1817.6,150.803C1817.6,151.002 1817.79,150.803 1817.6,150.803L1809.29,150.803C1809.18,150.803 1809.09,150.891 1809.09,151.002L1809.09,168.009C1809.09,168.12 1809.18,168.208 1809.29,168.208L1817.6,168.208C1817.79,168.208 1817.6,168.009 1817.6,168.208L1817.6,184.819C1817.6,185.017 1817.79,184.819 1817.6,184.819L1809.29,184.819C1809.18,184.819 1809.09,184.907 1809.09,185.017L1809.09,202.025C1809.09,202.136 1809.18,202.224 1809.29,202.224L1817.6,202.224C1817.79,202.224 1817.6,202.025 1817.6,202.224L1817.6,218.835C1817.6,219.033 1817.79,218.835 1817.6,218.835L1809.29,218.835C1809.18,218.835 1809.09,218.923 1809.09,219.033L1809.09,236.041C1809.09,236.151 1809.18,236.239 1809.29,236.239L1817.6,236.239C1817.79,236.239 1817.6,236.041 1817.6,236.239L1817.6,252.85C1817.6,253.049 1817.79,252.85 1817.6,252.85L1809.29,252.85C1809.18,252.85 1809.09,252.938 1809.09,253.049L1809.09,270.057C1809.09,270.167 1809.18,270.255 1809.29,270.255L1817.6,270.255C1817.79,270.255 1817.6,270.057 1817.6,270.255L1817.6,286.866C1817.6,287.065 1817.79,286.866 1817.6,286.866L1809.29,286.866C1809.18,286.866 1809.09,286.954 1809.09,287.065L1809.09,304.072C1809.09,304.183 1809.18,304.271 1809.29,304.271L1817.6,304.271C1817.79,304.271 1817.6,304.072 1817.6,304.271L1817.6,320.882C1817.6,321.08 1817.79,320.882 1817.6,320.882L1809.29,320.882C1809.18,320.882 1809.09,320.97 1809.09,321.08L1809.09,338.088C1809.09,338.199 1809.18,338.287 1809.29,338.287L1817.6,338.287C1817.79,338.287 1817.6,338.088 1817.6,338.287L1817.6,354.898C1817.6,355.096 1817.79,354.898 1817.6,354.898L1809.29,354.898C1809.18,354.898 1809.09,354.986 1809.09,355.096L1809.09,372.104C1809.09,372.214 1809.18,372.302 1809.29,372.302L1817.6,372.302C1817.79,372.302 1817.6,372.104 1817.6,372.302L1817.6,388.913C1817.6,389.112 1817.79,388.913 1817.6,388.913L1809.29,388.913C1809.18,388.913 1809.09,389.001 1809.09,389.112L1809.09,406.12C1809.09,406.23 1809.18,406.318 1809.29,406.318L1817.6,406.318C1817.79,406.318 1817.6,406.12 1817.6,406.318L1817.6,422.929C1817.6,423.128 1817.79,422.929 1817.6,422.929L1809.29,422.929C1809.18,422.929 1809.09,423.017 1809.09,423.128L1809.09,440.135C1809.09,440.246 1809.18,440.334 1809.29,440.334L1817.6,440.334C1817.79,440.334 1817.6,440.135 1817.6,440.334L1817.6,460.545C1817.6,460.655 1817.68,460.743 1817.79,460.743Z" style="fill:none;fill-rule:nonzero;stroke:black;stroke-width:0.4px;"/>
            <g transform="matrix(0.982225,0,0,0.989001,9.34134,-0.369265)">
                <path d="M1083.3,84.252C1083.3,75.974 1076.54,69.254 1068.2,69.254L819.619,69.254C811.284,69.254 804.518,75.974 804.518,84.252L804.518,415.196C804.518,423.473 811.284,430.193 819.619,430.193L1068.2,430.193C1076.54,430.193 1083.3,423.473 1083.3,415.196L1083.3,84.252Z" style="fill:none;stroke:black;stroke-width:0.51px;stroke-miterlimit:1.5;"/>
            </g>
        </g>
    </g>
</svg>
