<?xml version='1.0' encoding='us-ascii'?>
<svg height="172.54mm" viewBox="0.0 0.0 768.63 172.54" width="768.63mm" xmlns="http://www.w3.org/2000/svg" xmlns:cc="http://creativecommons.org/ns#" xmlns:dc="http://purl.org/dc/elements/1.1/" xmlns:inkscape="http://www.inkscape.org/namespaces/inkscape" xmlns:rdf="http://www.w3.org/1999/02/22-rdf-syntax-ns#" xmlns:svg="http://www.w3.org/2000/svg" xmlns:xlink="http://www.w3.org/1999/xlink">
<!--
Console - Console with slanted panel

Created with Boxes.py (https://festi.info/boxes.py)
Creation date: 2021-01-01 18:27:34
Command line (remove spaces between dashes): boxes Console - -FingerJoint_angle=90.0 - -FingerJoint_style=rectangular - -FingerJoint_surroundingspaces=0.5 - -FingerJoint_edge_width=1.0 - -FingerJoint_finger=2.0 - -FingerJoint_play=0.0 - -FingerJoint_space=2.0 - -FingerJoint_width=1.0 - -Stackable_angle=60 - -Stackable_height=2.0 - -Stackable_holedistance=1.0 - -Stackable_width=4.0 - -x=146.4 - -y=120.65 - -h=114.3 - -outside=0 - -front_height=101.6 - -angle=6 - -thickness=3.0 - -format=svg - -tabs=0.0 - -debug=0 - -reference=0 - -burn=0.07
Url: http://www.festi.info/Console?FingerJoint_angle=90.0&FingerJoint_style=rectangular&FingerJoint_surroundingspaces=0.5&FingerJoint_edge_width=1.0&FingerJoint_finger=2.0&FingerJoint_play=0.0&FingerJoint_space=2.0&FingerJoint_width=1.0&Stackable_angle=60&Stackable_height=2.0&Stackable_holedistance=1.0&Stackable_width=4.0&x=146.4&y=120.65&h=114.3&outside=0&front_height=101.6&angle=6&thickness=3.0&format=svg&tabs=0.0&debug=0&reference=0&burn=0.07&render=1
SettingsUrl: http://www.festi.info/Console?FingerJoint_angle=90.0&FingerJoint_style=rectangular&FingerJoint_surroundingspaces=0.5&FingerJoint_edge_width=1.0&FingerJoint_finger=2.0&FingerJoint_play=0.0&FingerJoint_space=2.0&FingerJoint_width=1.0&Stackable_angle=60&Stackable_height=2.0&Stackable_holedistance=1.0&Stackable_width=4.0&x=146.4&y=120.65&h=114.3&outside=0&front_height=101.6&angle=6&thickness=3.0&format=svg&tabs=0.0&debug=0&reference=0&burn=0.07
-->
<title>Console</title>
<metadata>
<rdf:RDF><cc:Work>
<dc:title>Box - Console</dc:title>
<dc:date>2021-01-01 18:27:34</dc:date>
<dc:source>http://www.festi.info/Console?FingerJoint_angle=90.0&amp;FingerJoint_style=rectangular&amp;FingerJoint_surroundingspaces=0.5&amp;FingerJoint_edge_width=1.0&amp;FingerJoint_finger=2.0&amp;FingerJoint_play=0.0&amp;FingerJoint_space=2.0&amp;FingerJoint_width=1.0&amp;Stackable_angle=60&amp;Stackable_height=2.0&amp;Stackable_holedistance=1.0&amp;Stackable_width=4.0&amp;x=146.4&amp;y=120.65&amp;h=114.3&amp;outside=0&amp;front_height=101.6&amp;angle=6&amp;thickness=3.0&amp;format=svg&amp;tabs=0.0&amp;debug=0&amp;reference=0&amp;burn=0.07&amp;render=1</dc:source>
<dc:description>Console with slanted panel

Created with Boxes.py (https://festi.info/boxes.py)
Command line: boxes Console --FingerJoint_angle=90.0 --FingerJoint_style=rectangular --FingerJoint_surroundingspaces=0.5 --FingerJoint_edge_width=1.0 --FingerJoint_finger=2.0 --FingerJoint_play=0.0 --FingerJoint_space=2.0 --FingerJoint_width=1.0 --Stackable_angle=60 --Stackable_height=2.0 --Stackable_holedistance=1.0 --Stackable_width=4.0 --x=146.4 --y=120.65 --h=114.3 --outside=0 --front_height=101.6 --angle=6 --thickness=3.0 --format=svg --tabs=0.0 --debug=0 --reference=0 --burn=0.07
Url: http://www.festi.info/Console?FingerJoint_angle=90.0&amp;FingerJoint_style=rectangular&amp;FingerJoint_surroundingspaces=0.5&amp;FingerJoint_edge_width=1.0&amp;FingerJoint_finger=2.0&amp;FingerJoint_play=0.0&amp;FingerJoint_space=2.0&amp;FingerJoint_width=1.0&amp;Stackable_angle=60&amp;Stackable_height=2.0&amp;Stackable_holedistance=1.0&amp;Stackable_width=4.0&amp;x=146.4&amp;y=120.65&amp;h=114.3&amp;outside=0&amp;front_height=101.6&amp;angle=6&amp;thickness=3.0&amp;format=svg&amp;tabs=0.0&amp;debug=0&amp;reference=0&amp;burn=0.07&amp;render=1
SettingsUrl: http://www.festi.info/Console?FingerJoint_angle=90.0&amp;FingerJoint_style=rectangular&amp;FingerJoint_surroundingspaces=0.5&amp;FingerJoint_edge_width=1.0&amp;FingerJoint_finger=2.0&amp;FingerJoint_play=0.0&amp;FingerJoint_space=2.0&amp;FingerJoint_width=1.0&amp;Stackable_angle=60&amp;Stackable_height=2.0&amp;Stackable_holedistance=1.0&amp;Stackable_width=4.0&amp;x=146.4&amp;y=120.65&amp;h=114.3&amp;outside=0&amp;front_height=101.6&amp;angle=6&amp;thickness=3.0&amp;format=svg&amp;tabs=0.0&amp;debug=0&amp;reference=0&amp;burn=0.07
</dc:description>
</cc:Work></rdf:RDF></metadata>
<g id="p-0" style="fill:none;stroke-linecap:round;stroke-linejoin:round;">
  <path d="M 13.070 158.720 H 16.325 C 16.395 158.720 16.325 158.650 16.325 158.720 V 161.650 C 16.325 161.689 16.356 161.720 16.395 161.720 H 22.395 C 22.434 161.720 22.465 161.689 22.465 161.650 V 158.720 C 22.465 158.650 22.395 158.720 22.465 158.720 H 28.325 C 28.395 158.720 28.325 158.650 28.325 158.720 V 161.650 C 28.325 161.689 28.356 161.720 28.395 161.720 H 34.395 C 34.434 161.720 34.465 161.689 34.465 161.650 V 158.720 C 34.465 158.650 34.395 158.720 34.465 158.720 H 40.325 C 40.395 158.720 40.325 158.650 40.325 158.720 V 161.650 C 40.325 161.689 40.356 161.720 40.395 161.720 H 46.395 C 46.434 161.720 46.465 161.689 46.465 161.650 V 158.720 C 46.465 158.650 46.395 158.720 46.465 158.720 H 52.325 C 52.395 158.720 52.325 158.650 52.325 158.720 V 161.650 C 52.325 161.689 52.356 161.720 52.395 161.720 H 58.395 C 58.434 161.720 58.465 161.689 58.465 161.650 V 158.720 C 58.465 158.650 58.395 158.720 58.465 158.720 H 64.325 C 64.395 158.720 64.325 158.650 64.325 158.720 V 161.650 C 64.325 161.689 64.356 161.720 64.395 161.720 H 70.395 C 70.434 161.720 70.465 161.689 70.465 161.650 V 158.720 C 70.465 158.650 70.395 158.720 70.465 158.720 H 76.325 C 76.395 158.720 76.325 158.650 76.325 158.720 V 161.650 C 76.325 161.689 76.356 161.720 76.395 161.720 H 82.395 C 82.434 161.720 82.465 161.689 82.465 161.650 V 158.720 C 82.465 158.650 82.395 158.720 82.465 158.720 H 88.325 C 88.395 158.720 88.325 158.650 88.325 158.720 V 161.650 C 88.325 161.689 88.356 161.720 88.395 161.720 H 94.395 C 94.434 161.720 94.465 161.689 94.465 161.650 V 158.720 C 94.465 158.650 94.395 158.720 94.465 158.720 H 100.325 C 100.395 158.720 100.325 158.650 100.325 158.720 V 161.650 C 100.325 161.689 100.356 161.720 100.395 161.720 H 106.395 C 106.434 161.720 106.465 161.689 106.465 161.650 V 158.720 C 106.465 158.650 106.395 158.720 106.465 158.720 H 112.325 C 112.395 158.720 112.325 158.650 112.325 158.720 V 161.650 C 112.325 161.689 112.356 161.720 112.395 161.720 H 118.395 C 118.434 161.720 118.465 161.689 118.465 161.650 V 158.720 C 118.465 158.650 118.395 158.720 118.465 158.720 H 124.325 C 124.395 158.720 124.325 158.650 124.325 158.720 V 161.650 C 124.325 161.689 124.356 161.720 124.395 161.720 H 130.395 C 130.434 161.720 130.465 161.689 130.465 161.650 V 158.720 C 130.465 158.650 130.395 158.720 130.465 158.720 H 133.720 C 133.759 158.720 133.790 158.689 133.790 158.650 V 152.920 C 133.790 152.850 133.720 152.920 133.790 152.920 H 136.720 C 136.759 152.920 136.790 152.889 136.790 152.850 V 146.850 C 136.790 146.811 136.759 146.780 136.720 146.780 H 133.790 C 133.720 146.780 133.790 146.850 133.790 146.780 V 140.920 C 133.790 140.850 133.720 140.920 133.790 140.920 H 136.720 C 136.759 140.920 136.790 140.889 136.790 140.850 V 134.850 C 136.790 134.811 136.759 134.780 136.720 134.780 H 133.790 C 133.720 134.780 133.790 134.850 133.790 134.780 V 128.920 C 133.790 128.850 133.720 128.920 133.790 128.920 H 136.720 C 136.759 128.920 136.790 128.889 136.790 128.850 V 122.850 C 136.790 122.811 136.759 122.780 136.720 122.780 H 133.790 C 133.720 122.780 133.790 122.850 133.790 122.780 V 116.920 C 133.790 116.850 133.720 116.920 133.790 116.920 H 136.720 C 136.759 116.920 136.790 116.889 136.790 116.850 V 110.850 C 136.790 110.811 136.759 110.780 136.720 110.780 H 133.790 C 133.720 110.780 133.790 110.850 133.790 110.780 V 104.920 C 133.790 104.850 133.720 104.920 133.790 104.920 H 136.720 C 136.759 104.920 136.790 104.889 136.790 104.850 V 98.850 C 136.790 98.811 136.759 98.780 136.720 98.780 H 133.790 C 133.720 98.780 133.790 98.850 133.790 98.780 V 92.920 C 133.790 92.850 133.720 92.920 133.790 92.920 H 136.720 C 136.759 92.920 136.790 92.889 136.790 92.850 V 86.850 C 136.790 86.811 136.759 86.780 136.720 86.780 H 133.790 C 133.720 86.780 133.790 86.850 133.790 86.780 V 80.920 C 133.790 80.850 133.720 80.920 133.790 80.920 H 136.720 C 136.759 80.920 136.790 80.889 136.790 80.850 V 74.850 C 136.790 74.811 136.759 74.780 136.720 74.780 H 133.790 C 133.720 74.780 133.790 74.850 133.790 74.780 V 68.920 C 133.790 68.850 133.720 68.920 133.790 68.920 H 136.720 C 136.759 68.920 136.790 68.889 136.790 68.850 V 62.850 C 136.790 62.811 136.759 62.780 136.720 62.780 H 133.790 C 133.720 62.780 133.790 62.850 133.790 62.780 V 57.050 C 133.790 57.014 133.763 56.984 133.727 56.980 L 130.160 56.605 C 130.090 56.598 130.152 56.675 130.160 56.605 L 130.466 53.691 C 130.470 53.653 130.442 53.619 130.404 53.615 L 124.437 52.987 C 124.398 52.983 124.364 53.011 124.360 53.050 L 124.053 55.964 C 124.046 56.033 124.123 55.971 124.053 55.964 L 118.225 55.351 C 118.156 55.344 118.218 55.421 118.225 55.351 L 118.532 52.437 C 118.536 52.399 118.508 52.364 118.469 52.360 L 112.502 51.733 C 112.464 51.729 112.429 51.757 112.425 51.795 L 112.119 54.709 C 112.112 54.779 112.189 54.717 112.119 54.709 L 106.291 54.097 C 106.222 54.089 106.284 54.166 106.291 54.097 L 106.597 51.183 C 106.601 51.144 106.574 51.110 106.535 51.106 L 100.568 50.479 C 100.530 50.475 100.495 50.503 100.491 50.541 L 100.185 53.455 C 100.177 53.525 100.254 53.462 100.185 53.455 L 94.357 52.842 C 94.287 52.835 94.350 52.912 94.357 52.842 L 94.663 49.928 C 94.667 49.890 94.639 49.856 94.601 49.852 L 88.634 49.224 C 88.595 49.220 88.561 49.248 88.557 49.287 L 88.251 52.201 C 88.243 52.270 88.320 52.208 88.251 52.201 L 82.423 51.588 C 82.353 51.581 82.415 51.658 82.423 51.588 L 82.729 48.674 C 82.733 48.636 82.705 48.601 82.667 48.597 L 76.699 47.970 C 76.661 47.966 76.627 47.994 76.623 48.032 L 76.316 50.946 C 76.309 51.016 76.386 50.954 76.316 50.946 L 70.488 50.334 C 70.419 50.326 70.481 50.403 70.488 50.334 L 70.795 47.420 C 70.799 47.381 70.771 47.347 70.732 47.343 L 64.765 46.716 C 64.727 46.712 64.692 46.740 64.688 46.778 L 64.382 49.692 C 64.375 49.762 64.452 49.699 64.382 49.692 L 58.554 49.079 C 58.484 49.072 58.547 49.149 58.554 49.079 L 58.860 46.165 C 58.864 46.127 58.837 46.093 58.798 46.088 L 52.831 45.461 C 52.792 45.457 52.758 45.485 52.754 45.524 L 52.448 48.438 C 52.440 48.507 52.517 48.445 52.448 48.438 L 46.620 47.825 C 46.550 47.818 46.613 47.895 46.620 47.825 L 46.926 44.911 C 46.930 44.873 46.902 44.838 46.864 44.834 L 40.897 44.207 C 40.858 44.203 40.824 44.231 40.820 44.269 L 40.513 47.183 C 40.506 47.253 40.583 47.191 40.513 47.183 L 34.686 46.571 C 34.616 46.563 34.678 46.640 34.686 46.571 L 34.992 43.657 C 34.996 43.618 34.968 43.584 34.930 43.580 L 28.962 42.953 C 28.924 42.949 28.890 42.976 28.885 43.015 L 28.579 45.929 C 28.572 45.998 28.649 45.936 28.579 45.929 L 22.751 45.316 C 22.682 45.309 22.744 45.386 22.751 45.316 L 23.058 42.402 C 23.062 42.364 23.034 42.329 22.995 42.325 L 17.028 41.698 C 16.990 41.694 16.955 41.722 16.951 41.761 L 16.645 44.675 C 16.638 44.744 16.715 44.682 16.645 44.675 L 13.077 44.300 C 13.036 44.295 13.000 44.328 13.000 44.369 V 50.440 C 13.000 50.510 13.070 50.440 13.000 50.440 H 10.070 C 10.031 50.440 10.000 50.471 10.000 50.510 V 56.510 C 10.000 56.548 10.031 56.580 10.070 56.580 H 13.000 C 13.070 56.580 13.000 56.510 13.000 56.580 V 62.440 C 13.000 62.510 13.070 62.440 13.000 62.440 H 10.070 C 10.031 62.440 10.000 62.471 10.000 62.510 V 68.510 C 10.000 68.548 10.031 68.580 10.070 68.580 H 13.000 C 13.070 68.580 13.000 68.510 13.000 68.580 V 74.440 C 13.000 74.510 13.070 74.440 13.000 74.440 H 10.070 C 10.031 74.440 10.000 74.471 10.000 74.510 V 80.510 C 10.000 80.548 10.031 80.580 10.070 80.580 H 13.000 C 13.070 80.580 13.000 80.510 13.000 80.580 V 86.440 C 13.000 86.510 13.070 86.440 13.000 86.440 H 10.070 C 10.031 86.440 10.000 86.471 10.000 86.510 V 92.510 C 10.000 92.548 10.031 92.580 10.070 92.580 H 13.000 C 13.070 92.580 13.000 92.510 13.000 92.580 V 98.440 C 13.000 98.510 13.070 98.440 13.000 98.440 H 10.070 C 10.031 98.440 10.000 98.471 10.000 98.510 V 104.510 C 10.000 104.548 10.031 104.580 10.070 104.580 H 13.000 C 13.070 104.580 13.000 104.510 13.000 104.580 V 110.440 C 13.000 110.510 13.070 110.440 13.000 110.440 H 10.070 C 10.031 110.440 10.000 110.471 10.000 110.510 V 116.510 C 10.000 116.548 10.031 116.580 10.070 116.580 H 13.000 C 13.070 116.580 13.000 116.510 13.000 116.580 V 122.440 C 13.000 122.510 13.070 122.440 13.000 122.440 H 10.070 C 10.031 122.440 10.000 122.471 10.000 122.510 V 128.510 C 10.000 128.548 10.031 128.580 10.070 128.580 H 13.000 C 13.070 128.580 13.000 128.510 13.000 128.580 V 134.440 C 13.000 134.510 13.070 134.440 13.000 134.440 H 10.070 C 10.031 134.440 10.000 134.471 10.000 134.510 V 140.510 C 10.000 140.548 10.031 140.580 10.070 140.580 H 13.000 C 13.070 140.580 13.000 140.510 13.000 140.580 V 146.440 C 13.000 146.510 13.070 146.440 13.000 146.440 H 10.070 C 10.031 146.440 10.000 146.471 10.000 146.510 V 152.510 C 10.000 152.548 10.031 152.580 10.070 152.580 H 13.000 C 13.070 152.580 13.000 152.510 13.000 152.580 V 158.650 C 13.000 158.689 13.031 158.720 13.070 158.720 Z" stroke="rgb(0,0,0)" stroke-width="0.14" />
</g>
<g id="p-1" style="fill:none;stroke-linecap:round;stroke-linejoin:round;">
  <path d="M 141.360 158.720 H 144.615 C 144.685 158.720 144.615 158.650 144.615 158.720 V 161.650 C 144.615 161.689 144.646 161.720 144.685 161.720 H 150.685 C 150.724 161.720 150.755 161.689 150.755 161.650 V 158.720 C 150.755 158.650 150.685 158.720 150.755 158.720 H 156.615 C 156.685 158.720 156.615 158.650 156.615 158.720 V 161.650 C 156.615 161.689 156.646 161.720 156.685 161.720 H 162.685 C 162.724 161.720 162.755 161.689 162.755 161.650 V 158.720 C 162.755 158.650 162.685 158.720 162.755 158.720 H 168.615 C 168.685 158.720 168.615 158.650 168.615 158.720 V 161.650 C 168.615 161.689 168.646 161.720 168.685 161.720 H 174.685 C 174.724 161.720 174.755 161.689 174.755 161.650 V 158.720 C 174.755 158.650 174.685 158.720 174.755 158.720 H 180.615 C 180.685 158.720 180.615 158.650 180.615 158.720 V 161.650 C 180.615 161.689 180.646 161.720 180.685 161.720 H 186.685 C 186.724 161.720 186.755 161.689 186.755 161.650 V 158.720 C 186.755 158.650 186.685 158.720 186.755 158.720 H 192.615 C 192.685 158.720 192.615 158.650 192.615 158.720 V 161.650 C 192.615 161.689 192.646 161.720 192.685 161.720 H 198.685 C 198.724 161.720 198.755 161.689 198.755 161.650 V 158.720 C 198.755 158.650 198.685 158.720 198.755 158.720 H 204.615 C 204.685 158.720 204.615 158.650 204.615 158.720 V 161.650 C 204.615 161.689 204.646 161.720 204.685 161.720 H 210.685 C 210.724 161.720 210.755 161.689 210.755 161.650 V 158.720 C 210.755 158.650 210.685 158.720 210.755 158.720 H 216.615 C 216.685 158.720 216.615 158.650 216.615 158.720 V 161.650 C 216.615 161.689 216.646 161.720 216.685 161.720 H 222.685 C 222.724 161.720 222.755 161.689 222.755 161.650 V 158.720 C 222.755 158.650 222.685 158.720 222.755 158.720 H 228.615 C 228.685 158.720 228.615 158.650 228.615 158.720 V 161.650 C 228.615 161.689 228.646 161.720 228.685 161.720 H 234.685 C 234.724 161.720 234.755 161.689 234.755 161.650 V 158.720 C 234.755 158.650 234.685 158.720 234.755 158.720 H 240.615 C 240.685 158.720 240.615 158.650 240.615 158.720 V 161.650 C 240.615 161.689 240.646 161.720 240.685 161.720 H 246.685 C 246.724 161.720 246.755 161.689 246.755 161.650 V 158.720 C 246.755 158.650 246.685 158.720 246.755 158.720 H 252.615 C 252.685 158.720 252.615 158.650 252.615 158.720 V 161.650 C 252.615 161.689 252.646 161.720 252.685 161.720 H 258.685 C 258.724 161.720 258.755 161.689 258.755 161.650 V 158.720 C 258.755 158.650 258.685 158.720 258.755 158.720 H 262.010 C 262.049 158.720 262.080 158.689 262.080 158.650 V 152.920 C 262.080 152.850 262.010 152.920 262.080 152.920 H 265.010 C 265.049 152.920 265.080 152.889 265.080 152.850 V 146.850 C 265.080 146.811 265.049 146.780 265.010 146.780 H 262.080 C 262.010 146.780 262.080 146.850 262.080 146.780 V 140.920 C 262.080 140.850 262.010 140.920 262.080 140.920 H 265.010 C 265.049 140.920 265.080 140.889 265.080 140.850 V 134.850 C 265.080 134.811 265.049 134.780 265.010 134.780 H 262.080 C 262.010 134.780 262.080 134.850 262.080 134.780 V 128.920 C 262.080 128.850 262.010 128.920 262.080 128.920 H 265.010 C 265.049 128.920 265.080 128.889 265.080 128.850 V 122.850 C 265.080 122.811 265.049 122.780 265.010 122.780 H 262.080 C 262.010 122.780 262.080 122.850 262.080 122.780 V 116.920 C 262.080 116.850 262.010 116.920 262.080 116.920 H 265.010 C 265.049 116.920 265.080 116.889 265.080 116.850 V 110.850 C 265.080 110.811 265.049 110.780 265.010 110.780 H 262.080 C 262.010 110.780 262.080 110.850 262.080 110.780 V 104.920 C 262.080 104.850 262.010 104.920 262.080 104.920 H 265.010 C 265.049 104.920 265.080 104.889 265.080 104.850 V 98.850 C 265.080 98.811 265.049 98.780 265.010 98.780 H 262.080 C 262.010 98.780 262.080 98.850 262.080 98.780 V 92.920 C 262.080 92.850 262.010 92.920 262.080 92.920 H 265.010 C 265.049 92.920 265.080 92.889 265.080 92.850 V 86.850 C 265.080 86.811 265.049 86.780 265.010 86.780 H 262.080 C 262.010 86.780 262.080 86.850 262.080 86.780 V 80.920 C 262.080 80.850 262.010 80.920 262.080 80.920 H 265.010 C 265.049 80.920 265.080 80.889 265.080 80.850 V 74.850 C 265.080 74.811 265.049 74.780 265.010 74.780 H 262.080 C 262.010 74.780 262.080 74.850 262.080 74.780 V 68.920 C 262.080 68.850 262.010 68.920 262.080 68.920 H 265.010 C 265.049 68.920 265.080 68.889 265.080 68.850 V 62.850 C 265.080 62.811 265.049 62.780 265.010 62.780 H 262.080 C 262.010 62.780 262.080 62.850 262.080 62.780 V 57.050 C 262.080 57.014 262.053 56.984 262.017 56.980 L 258.450 56.605 C 258.380 56.598 258.442 56.675 258.450 56.605 L 258.756 53.691 C 258.760 53.653 258.732 53.619 258.694 53.615 L 252.727 52.987 C 252.688 52.983 252.654 53.011 252.650 53.050 L 252.343 55.964 C 252.336 56.033 252.413 55.971 252.343 55.964 L 246.515 55.351 C 246.446 55.344 246.508 55.421 246.515 55.351 L 246.822 52.437 C 246.826 52.399 246.798 52.364 246.759 52.360 L 240.792 51.733 C 240.754 51.729 240.719 51.757 240.715 51.795 L 240.409 54.709 C 240.402 54.779 240.479 54.717 240.409 54.709 L 234.581 54.097 C 234.512 54.089 234.574 54.166 234.581 54.097 L 234.887 51.183 C 234.891 51.144 234.864 51.110 234.825 51.106 L 228.858 50.479 C 228.820 50.475 228.785 50.503 228.781 50.541 L 228.475 53.455 C 228.467 53.525 228.544 53.462 228.475 53.455 L 222.647 52.842 C 222.577 52.835 222.640 52.912 222.647 52.842 L 222.953 49.928 C 222.957 49.890 222.929 49.856 222.891 49.852 L 216.924 49.224 C 216.885 49.220 216.851 49.248 216.847 49.287 L 216.541 52.201 C 216.533 52.270 216.610 52.208 216.541 52.201 L 210.713 51.588 C 210.643 51.581 210.705 51.658 210.713 51.588 L 211.019 48.674 C 211.023 48.636 210.995 48.601 210.957 48.597 L 204.989 47.970 C 204.951 47.966 204.917 47.994 204.913 48.032 L 204.606 50.946 C 204.599 51.016 204.676 50.954 204.606 50.946 L 198.778 50.334 C 198.709 50.326 198.771 50.403 198.778 50.334 L 199.085 47.420 C 199.089 47.381 199.061 47.347 199.022 47.343 L 193.055 46.716 C 193.017 46.712 192.982 46.740 192.978 46.778 L 192.672 49.692 C 192.665 49.762 192.742 49.699 192.672 49.692 L 186.844 49.079 C 186.774 49.072 186.837 49.149 186.844 49.079 L 187.150 46.165 C 187.154 46.127 187.127 46.093 187.088 46.088 L 181.121 45.461 C 181.082 45.457 181.048 45.485 181.044 45.524 L 180.738 48.438 C 180.730 48.507 180.807 48.445 180.738 48.438 L 174.910 47.825 C 174.840 47.818 174.903 47.895 174.910 47.825 L 175.216 44.911 C 175.220 44.873 175.192 44.838 175.154 44.834 L 169.187 44.207 C 169.148 44.203 169.114 44.231 169.110 44.269 L 168.803 47.183 C 168.796 47.253 168.873 47.191 168.803 47.183 L 162.976 46.571 C 162.906 46.563 162.968 46.640 162.976 46.571 L 163.282 43.657 C 163.286 43.618 163.258 43.584 163.220 43.580 L 157.252 42.953 C 157.214 42.949 157.180 42.976 157.175 43.015 L 156.869 45.929 C 156.862 45.998 156.939 45.936 156.869 45.929 L 151.041 45.316 C 150.972 45.309 151.034 45.386 151.041 45.316 L 151.348 42.402 C 151.352 42.364 151.324 42.329 151.285 42.325 L 145.318 41.698 C 145.280 41.694 145.245 41.722 145.241 41.761 L 144.935 44.675 C 144.928 44.744 145.005 44.682 144.935 44.675 L 141.367 44.300 C 141.326 44.295 141.290 44.328 141.290 44.369 V 50.440 C 141.290 50.510 141.360 50.440 141.290 50.440 H 138.360 C 138.321 50.440 138.290 50.471 138.290 50.510 V 56.510 C 138.290 56.548 138.321 56.580 138.360 56.580 H 141.290 C 141.360 56.580 141.290 56.510 141.290 56.580 V 62.440 C 141.290 62.510 141.360 62.440 141.290 62.440 H 138.360 C 138.321 62.440 138.290 62.471 138.290 62.510 V 68.510 C 138.290 68.548 138.321 68.580 138.360 68.580 H 141.290 C 141.360 68.580 141.290 68.510 141.290 68.580 V 74.440 C 141.290 74.510 141.360 74.440 141.290 74.440 H 138.360 C 138.321 74.440 138.290 74.471 138.290 74.510 V 80.510 C 138.290 80.548 138.321 80.580 138.360 80.580 H 141.290 C 141.360 80.580 141.290 80.510 141.290 80.580 V 86.440 C 141.290 86.510 141.360 86.440 141.290 86.440 H 138.360 C 138.321 86.440 138.290 86.471 138.290 86.510 V 92.510 C 138.290 92.548 138.321 92.580 138.360 92.580 H 141.290 C 141.360 92.580 141.290 92.510 141.290 92.580 V 98.440 C 141.290 98.510 141.360 98.440 141.290 98.440 H 138.360 C 138.321 98.440 138.290 98.471 138.290 98.510 V 104.510 C 138.290 104.548 138.321 104.580 138.360 104.580 H 141.290 C 141.360 104.580 141.290 104.510 141.290 104.580 V 110.440 C 141.290 110.510 141.360 110.440 141.290 110.440 H 138.360 C 138.321 110.440 138.290 110.471 138.290 110.510 V 116.510 C 138.290 116.548 138.321 116.580 138.360 116.580 H 141.290 C 141.360 116.580 141.290 116.510 141.290 116.580 V 122.440 C 141.290 122.510 141.360 122.440 141.290 122.440 H 138.360 C 138.321 122.440 138.290 122.471 138.290 122.510 V 128.510 C 138.290 128.548 138.321 128.580 138.360 128.580 H 141.290 C 141.360 128.580 141.290 128.510 141.290 128.580 V 134.440 C 141.290 134.510 141.360 134.440 141.290 134.440 H 138.360 C 138.321 134.440 138.290 134.471 138.290 134.510 V 140.510 C 138.290 140.548 138.321 140.580 138.360 140.580 H 141.290 C 141.360 140.580 141.290 140.510 141.290 140.580 V 146.440 C 141.290 146.510 141.360 146.440 141.290 146.440 H 138.360 C 138.321 146.440 138.290 146.471 138.290 146.510 V 152.510 C 138.290 152.548 138.321 152.580 138.360 152.580 H 141.290 C 141.360 152.580 141.290 152.510 141.290 152.580 V 158.650 C 141.290 158.689 141.321 158.720 141.360 158.720 Z" stroke="rgb(0,0,0)" stroke-width="0.14" />
</g>
<g id="p-2" style="fill:none;stroke-linecap:round;stroke-linejoin:round;">
  <path d="M 270.470 162.540 H 273.795 C 273.834 162.540 273.865 162.509 273.865 162.470 V 159.540 C 273.865 159.470 273.795 159.540 273.865 159.540 H 279.725 C 279.795 159.540 279.725 159.470 279.725 159.540 V 162.470 C 279.725 162.509 279.756 162.540 279.795 162.540 H 285.795 C 285.834 162.540 285.865 162.509 285.865 162.470 V 159.540 C 285.865 159.470 285.795 159.540 285.865 159.540 H 291.725 C 291.795 159.540 291.725 159.470 291.725 159.540 V 162.470 C 291.725 162.509 291.756 162.540 291.795 162.540 H 297.795 C 297.834 162.540 297.865 162.509 297.865 162.470 V 159.540 C 297.865 159.470 297.795 159.540 297.865 159.540 H 303.725 C 303.795 159.540 303.725 159.470 303.725 159.540 V 162.470 C 303.725 162.509 303.756 162.540 303.795 162.540 H 309.795 C 309.834 162.540 309.865 162.509 309.865 162.470 V 159.540 C 309.865 159.470 309.795 159.540 309.865 159.540 H 315.725 C 315.795 159.540 315.725 159.470 315.725 159.540 V 162.470 C 315.725 162.509 315.756 162.540 315.795 162.540 H 321.795 C 321.834 162.540 321.865 162.509 321.865 162.470 V 159.540 C 321.865 159.470 321.795 159.540 321.865 159.540 H 327.725 C 327.795 159.540 327.725 159.470 327.725 159.540 V 162.470 C 327.725 162.509 327.756 162.540 327.795 162.540 H 333.795 C 333.834 162.540 333.865 162.509 333.865 162.470 V 159.540 C 333.865 159.470 333.795 159.540 333.865 159.540 H 339.725 C 339.795 159.540 339.725 159.470 339.725 159.540 V 162.470 C 339.725 162.509 339.756 162.540 339.795 162.540 H 345.795 C 345.834 162.540 345.865 162.509 345.865 162.470 V 159.540 C 345.865 159.470 345.795 159.540 345.865 159.540 H 351.725 C 351.795 159.540 351.725 159.470 351.725 159.540 V 162.470 C 351.725 162.509 351.756 162.540 351.795 162.540 H 357.795 C 357.834 162.540 357.865 162.509 357.865 162.470 V 159.540 C 357.865 159.470 357.795 159.540 357.865 159.540 H 363.725 C 363.795 159.540 363.725 159.470 363.725 159.540 V 162.470 C 363.725 162.509 363.756 162.540 363.795 162.540 H 369.795 C 369.834 162.540 369.865 162.509 369.865 162.470 V 159.540 C 369.865 159.470 369.795 159.540 369.865 159.540 H 375.725 C 375.795 159.540 375.725 159.470 375.725 159.540 V 162.470 C 375.725 162.509 375.756 162.540 375.795 162.540 H 381.795 C 381.834 162.540 381.865 162.509 381.865 162.470 V 159.540 C 381.865 159.470 381.795 159.540 381.865 159.540 H 387.725 C 387.795 159.540 387.725 159.470 387.725 159.540 V 162.470 C 387.725 162.509 387.756 162.540 387.795 162.540 H 391.120 H 394.120 C 394.159 162.540 394.190 162.509 394.190 162.470 V 159.470 V 155.270 C 394.190 155.231 394.159 155.200 394.120 155.200 H 391.190 C 391.120 155.200 391.190 155.270 391.190 155.200 V 149.340 C 391.190 149.270 391.120 149.340 391.190 149.340 H 394.120 C 394.159 149.340 394.190 149.309 394.190 149.270 V 143.270 C 394.190 143.231 394.159 143.200 394.120 143.200 H 391.190 C 391.120 143.200 391.190 143.270 391.190 143.200 V 137.340 C 391.190 137.270 391.120 137.340 391.190 137.340 H 394.120 C 394.159 137.340 394.190 137.309 394.190 137.270 V 131.270 C 394.190 131.231 394.159 131.200 394.120 131.200 H 391.190 C 391.120 131.200 391.190 131.270 391.190 131.200 V 125.340 C 391.190 125.270 391.120 125.340 391.190 125.340 H 394.120 C 394.159 125.340 394.190 125.309 394.190 125.270 V 119.270 C 394.190 119.231 394.159 119.200 394.120 119.200 H 391.190 C 391.120 119.200 391.190 119.270 391.190 119.200 V 113.340 C 391.190 113.270 391.120 113.340 391.190 113.340 H 394.120 C 394.159 113.340 394.190 113.309 394.190 113.270 V 107.270 C 394.190 107.231 394.159 107.200 394.120 107.200 H 391.190 C 391.120 107.200 391.190 107.270 391.190 107.200 V 101.340 C 391.190 101.270 391.120 101.340 391.190 101.340 H 394.120 C 394.159 101.340 394.190 101.309 394.190 101.270 V 95.270 C 394.190 95.231 394.159 95.200 394.120 95.200 H 391.190 C 391.120 95.200 391.190 95.270 391.190 95.200 V 89.340 C 391.190 89.270 391.120 89.340 391.190 89.340 H 394.120 C 394.159 89.340 394.190 89.309 394.190 89.270 V 83.270 C 394.190 83.231 394.159 83.200 394.120 83.200 H 391.190 C 391.120 83.200 391.190 83.270 391.190 83.200 V 77.340 C 391.190 77.270 391.120 77.340 391.190 77.340 H 394.120 C 394.159 77.340 394.190 77.309 394.190 77.270 V 71.270 C 394.190 71.231 394.159 71.200 394.120 71.200 H 391.190 C 391.120 71.200 391.190 71.270 391.190 71.200 V 65.340 C 391.190 65.270 391.120 65.340 391.190 65.340 H 394.120 C 394.159 65.340 394.190 65.309 394.190 65.270 V 59.270 C 394.190 59.231 394.159 59.200 394.120 59.200 H 391.190 C 391.120 59.200 391.190 59.270 391.190 59.200 V 53.340 C 391.190 53.270 391.120 53.340 391.190 53.340 H 394.120 C 394.159 53.340 394.190 53.309 394.190 53.270 V 47.270 C 394.190 47.231 394.159 47.200 394.120 47.200 H 391.190 C 391.120 47.200 391.190 47.270 391.190 47.200 V 41.340 C 391.190 41.270 391.120 41.340 391.190 41.340 H 394.120 C 394.159 41.340 394.190 41.309 394.190 41.270 V 35.270 C 394.190 35.231 394.159 35.200 394.120 35.200 H 391.190 C 391.120 35.200 391.190 35.270 391.190 35.200 V 29.340 C 391.190 29.270 391.120 29.340 391.190 29.340 H 394.120 C 394.159 29.340 394.190 29.309 394.190 29.270 V 23.270 C 394.190 23.231 394.159 23.200 394.120 23.200 H 391.190 C 391.120 23.200 391.190 23.270 391.190 23.200 V 17.340 C 391.190 17.270 391.120 17.340 391.190 17.340 H 394.120 C 394.159 17.340 394.190 17.309 394.190 17.270 V 13.070 V 10.070 C 394.190 10.031 394.159 10.000 394.120 10.000 H 391.120 H 387.795 C 387.756 10.000 387.725 10.031 387.725 10.070 V 13.000 C 387.725 13.070 387.795 13.000 387.725 13.000 H 381.865 C 381.795 13.000 381.865 13.070 381.865 13.000 V 10.070 C 381.865 10.031 381.834 10.000 381.795 10.000 H 375.795 C 375.756 10.000 375.725 10.031 375.725 10.070 V 13.000 C 375.725 13.070 375.795 13.000 375.725 13.000 H 369.865 C 369.795 13.000 369.865 13.070 369.865 13.000 V 10.070 C 369.865 10.031 369.834 10.000 369.795 10.000 H 363.795 C 363.756 10.000 363.725 10.031 363.725 10.070 V 13.000 C 363.725 13.070 363.795 13.000 363.725 13.000 H 357.865 C 357.795 13.000 357.865 13.070 357.865 13.000 V 10.070 C 357.865 10.031 357.834 10.000 357.795 10.000 H 351.795 C 351.756 10.000 351.725 10.031 351.725 10.070 V 13.000 C 351.725 13.070 351.795 13.000 351.725 13.000 H 345.865 C 345.795 13.000 345.865 13.070 345.865 13.000 V 10.070 C 345.865 10.031 345.834 10.000 345.795 10.000 H 339.795 C 339.756 10.000 339.725 10.031 339.725 10.070 V 13.000 C 339.725 13.070 339.795 13.000 339.725 13.000 H 333.865 C 333.795 13.000 333.865 13.070 333.865 13.000 V 10.070 C 333.865 10.031 333.834 10.000 333.795 10.000 H 327.795 C 327.756 10.000 327.725 10.031 327.725 10.070 V 13.000 C 327.725 13.070 327.795 13.000 327.725 13.000 H 321.865 C 321.795 13.000 321.865 13.070 321.865 13.000 V 10.070 C 321.865 10.031 321.834 10.000 321.795 10.000 H 315.795 C 315.756 10.000 315.725 10.031 315.725 10.070 V 13.000 C 315.725 13.070 315.795 13.000 315.725 13.000 H 309.865 C 309.795 13.000 309.865 13.070 309.865 13.000 V 10.070 C 309.865 10.031 309.834 10.000 309.795 10.000 H 303.795 C 303.756 10.000 303.725 10.031 303.725 10.070 V 13.000 C 303.725 13.070 303.795 13.000 303.725 13.000 H 297.865 C 297.795 13.000 297.865 13.070 297.865 13.000 V 10.070 C 297.865 10.031 297.834 10.000 297.795 10.000 H 291.795 C 291.756 10.000 291.725 10.031 291.725 10.070 V 13.000 C 291.725 13.070 291.795 13.000 291.725 13.000 H 285.865 C 285.795 13.000 285.865 13.070 285.865 13.000 V 10.070 C 285.865 10.031 285.834 10.000 285.795 10.000 H 279.795 C 279.756 10.000 279.725 10.031 279.725 10.070 V 13.000 C 279.725 13.070 279.795 13.000 279.725 13.000 H 273.865 C 273.795 13.000 273.865 13.070 273.865 13.000 V 10.070 C 273.865 10.031 273.834 10.000 273.795 10.000 H 270.470 H 267.470 C 267.431 10.000 267.400 10.031 267.400 10.070 V 13.070 V 17.270 C 267.400 17.309 267.431 17.340 267.470 17.340 H 270.400 C 270.470 17.340 270.400 17.270 270.400 17.340 V 23.200 C 270.400 23.270 270.470 23.200 270.400 23.200 H 267.470 C 267.431 23.200 267.400 23.231 267.400 23.270 V 29.270 C 267.400 29.309 267.431 29.340 267.470 29.340 H 270.400 C 270.470 29.340 270.400 29.270 270.400 29.340 V 35.200 C 270.400 35.270 270.470 35.200 270.400 35.200 H 267.470 C 267.431 35.200 267.400 35.231 267.400 35.270 V 41.270 C 267.400 41.309 267.431 41.340 267.470 41.340 H 270.400 C 270.470 41.340 270.400 41.270 270.400 41.340 V 47.200 C 270.400 47.270 270.470 47.200 270.400 47.200 H 267.470 C 267.431 47.200 267.400 47.231 267.400 47.270 V 53.270 C 267.400 53.309 267.431 53.340 267.470 53.340 H 270.400 C 270.470 53.340 270.400 53.270 270.400 53.340 V 59.200 C 270.400 59.270 270.470 59.200 270.400 59.200 H 267.470 C 267.431 59.200 267.400 59.231 267.400 59.270 V 65.270 C 267.400 65.309 267.431 65.340 267.470 65.340 H 270.400 C 270.470 65.340 270.400 65.270 270.400 65.340 V 71.200 C 270.400 71.270 270.470 71.200 270.400 71.200 H 267.470 C 267.431 71.200 267.400 71.231 267.400 71.270 V 77.270 C 267.400 77.309 267.431 77.340 267.470 77.340 H 270.400 C 270.470 77.340 270.400 77.270 270.400 77.340 V 83.200 C 270.400 83.270 270.470 83.200 270.400 83.200 H 267.470 C 267.431 83.200 267.400 83.231 267.400 83.270 V 89.270 C 267.400 89.309 267.431 89.340 267.470 89.340 H 270.400 C 270.470 89.340 270.400 89.270 270.400 89.340 V 95.200 C 270.400 95.270 270.470 95.200 270.400 95.200 H 267.470 C 267.431 95.200 267.400 95.231 267.400 95.270 V 101.270 C 267.400 101.309 267.431 101.340 267.470 101.340 H 270.400 C 270.470 101.340 270.400 101.270 270.400 101.340 V 107.200 C 270.400 107.270 270.470 107.200 270.400 107.200 H 267.470 C 267.431 107.200 267.400 107.231 267.400 107.270 V 113.270 C 267.400 113.309 267.431 113.340 267.470 113.340 H 270.400 C 270.470 113.340 270.400 113.270 270.400 113.340 V 119.200 C 270.400 119.270 270.470 119.200 270.400 119.200 H 267.470 C 267.431 119.200 267.400 119.231 267.400 119.270 V 125.270 C 267.400 125.309 267.431 125.340 267.470 125.340 H 270.400 C 270.470 125.340 270.400 125.270 270.400 125.340 V 131.200 C 270.400 131.270 270.470 131.200 270.400 131.200 H 267.470 C 267.431 131.200 267.400 131.231 267.400 131.270 V 137.270 C 267.400 137.309 267.431 137.340 267.470 137.340 H 270.400 C 270.470 137.340 270.400 137.270 270.400 137.340 V 143.200 C 270.400 143.270 270.470 143.200 270.400 143.200 H 267.470 C 267.431 143.200 267.400 143.231 267.400 143.270 V 149.270 C 267.400 149.309 267.431 149.340 267.470 149.340 H 270.400 C 270.470 149.340 270.400 149.270 270.400 149.340 V 155.200 C 270.400 155.270 270.470 155.200 270.400 155.200 H 267.470 C 267.431 155.200 267.400 155.231 267.400 155.270 V 159.470 V 162.470 C 267.400 162.509 267.431 162.540 267.470 162.540 H 270.470 Z" stroke="rgb(0,0,0)" stroke-width="0.14" />
  <path d="M 400.400 162.540 H 406.200 C 406.239 162.540 406.270 162.509 406.270 162.470 V 159.540 C 406.270 159.470 406.200 159.540 406.270 159.540 H 412.130 C 412.200 159.540 412.130 159.470 412.130 159.540 V 162.470 C 412.130 162.509 412.161 162.540 412.200 162.540 H 418.200 C 418.239 162.540 418.270 162.509 418.270 162.470 V 159.540 C 418.270 159.470 418.200 159.540 418.270 159.540 H 424.130 C 424.200 159.540 424.130 159.470 424.130 159.540 V 162.470 C 424.130 162.509 424.161 162.540 424.200 162.540 H 430.200 C 430.239 162.540 430.270 162.509 430.270 162.470 V 159.540 C 430.270 159.470 430.200 159.540 430.270 159.540 H 436.130 C 436.200 159.540 436.130 159.470 436.130 159.540 V 162.470 C 436.130 162.509 436.161 162.540 436.200 162.540 H 442.200 C 442.239 162.540 442.270 162.509 442.270 162.470 V 159.540 C 442.270 159.470 442.200 159.540 442.270 159.540 H 448.130 C 448.200 159.540 448.130 159.470 448.130 159.540 V 162.470 C 448.130 162.509 448.161 162.540 448.200 162.540 H 454.200 C 454.239 162.540 454.270 162.509 454.270 162.470 V 159.540 C 454.270 159.470 454.200 159.540 454.270 159.540 H 460.130 C 460.200 159.540 460.130 159.470 460.130 159.540 V 162.470 C 460.130 162.509 460.161 162.540 460.200 162.540 H 466.200 C 466.239 162.540 466.270 162.509 466.270 162.470 V 159.540 C 466.270 159.470 466.200 159.540 466.270 159.540 H 472.130 C 472.200 159.540 472.130 159.470 472.130 159.540 V 162.470 C 472.130 162.509 472.161 162.540 472.200 162.540 H 478.200 C 478.239 162.540 478.270 162.509 478.270 162.470 V 159.540 C 478.270 159.470 478.200 159.540 478.270 159.540 H 484.130 C 484.200 159.540 484.130 159.470 484.130 159.540 V 162.470 C 484.130 162.509 484.161 162.540 484.200 162.540 H 490.200 C 490.239 162.540 490.270 162.509 490.270 162.470 V 159.540 C 490.270 159.470 490.200 159.540 490.270 159.540 H 496.130 C 496.200 159.540 496.130 159.470 496.130 159.540 V 162.470 C 496.130 162.509 496.161 162.540 496.200 162.540 H 502.000 H 501.718 C 501.756 162.540 501.788 162.509 501.788 162.470 V 159.470 V 155.340 C 501.788 155.270 501.718 155.340 501.788 155.340 H 504.701 C 504.740 155.340 504.771 155.309 504.771 155.270 V 149.270 C 504.771 149.231 504.740 149.200 504.701 149.200 H 501.788 C 501.718 149.200 501.788 149.270 501.788 149.200 V 143.340 C 501.788 143.270 501.718 143.340 501.788 143.340 H 504.701 C 504.740 143.340 504.771 143.309 504.771 143.270 V 137.270 C 504.771 137.231 504.740 137.200 504.701 137.200 H 501.788 C 501.718 137.200 501.788 137.270 501.788 137.200 V 131.340 C 501.788 131.270 501.718 131.340 501.788 131.340 H 504.701 C 504.740 131.340 504.771 131.309 504.771 131.270 V 125.270 C 504.771 125.231 504.740 125.200 504.701 125.200 H 501.788 C 501.718 125.200 501.788 125.270 501.788 125.200 V 119.340 C 501.788 119.270 501.718 119.340 501.788 119.340 H 504.701 C 504.740 119.340 504.771 119.309 504.771 119.270 V 113.270 C 504.771 113.231 504.740 113.200 504.701 113.200 H 501.788 C 501.718 113.200 501.788 113.270 501.788 113.200 V 107.340 C 501.788 107.270 501.718 107.340 501.788 107.340 H 504.701 C 504.740 107.340 504.771 107.309 504.771 107.270 V 101.270 C 504.771 101.231 504.740 101.200 504.701 101.200 H 501.788 C 501.718 101.200 501.788 101.270 501.788 101.200 V 95.340 C 501.788 95.270 501.718 95.340 501.788 95.340 H 504.701 C 504.740 95.340 504.771 95.309 504.771 95.270 V 89.270 C 504.771 89.231 504.740 89.200 504.701 89.200 H 501.788 C 501.718 89.200 501.788 89.270 501.788 89.200 V 83.340 C 501.788 83.270 501.718 83.340 501.788 83.340 H 504.701 C 504.740 83.340 504.771 83.309 504.771 83.270 V 77.270 C 504.771 77.231 504.740 77.200 504.701 77.200 H 501.788 C 501.718 77.200 501.788 77.270 501.788 77.200 V 71.340 C 501.788 71.270 501.718 71.340 501.788 71.340 H 504.701 C 504.740 71.340 504.771 71.309 504.771 71.270 V 65.270 C 504.771 65.231 504.740 65.200 504.701 65.200 H 501.788 C 501.718 65.200 501.788 65.270 501.788 65.200 V 59.340 C 501.788 59.270 501.718 59.340 501.788 59.340 H 504.701 C 504.740 59.340 504.771 59.309 504.771 59.270 V 53.270 C 504.771 53.231 504.740 53.200 504.701 53.200 H 501.788 C 501.718 53.200 501.788 53.270 501.788 53.200 V 47.340 C 501.788 47.270 501.718 47.340 501.788 47.340 H 504.701 C 504.740 47.340 504.771 47.309 504.771 47.270 V 41.270 C 504.771 41.231 504.740 41.200 504.701 41.200 H 501.788 C 501.718 41.200 501.788 41.270 501.788 41.200 V 35.340 C 501.788 35.270 501.718 35.340 501.788 35.340 H 504.701 C 504.740 35.340 504.771 35.309 504.771 35.270 V 29.270 C 504.771 29.231 504.740 29.200 504.701 29.200 H 501.788 C 501.718 29.200 501.788 29.270 501.788 29.200 V 23.340 C 501.788 23.270 501.718 23.340 501.788 23.340 H 504.701 C 504.740 23.340 504.771 23.309 504.771 23.270 V 17.270 C 504.771 17.231 504.740 17.200 504.701 17.200 H 501.788 C 501.718 17.200 501.788 17.270 501.788 17.200 V 13.070 V 10.070 C 501.788 10.031 501.756 10.000 501.718 10.000 H 502.000 H 496.200 C 496.161 10.000 496.130 10.031 496.130 10.070 V 13.000 C 496.130 13.070 496.200 13.000 496.130 13.000 H 490.270 C 490.200 13.000 490.270 13.070 490.270 13.000 V 10.070 C 490.270 10.031 490.239 10.000 490.200 10.000 H 484.200 C 484.161 10.000 484.130 10.031 484.130 10.070 V 13.000 C 484.130 13.070 484.200 13.000 484.130 13.000 H 478.270 C 478.200 13.000 478.270 13.070 478.270 13.000 V 10.070 C 478.270 10.031 478.239 10.000 478.200 10.000 H 472.200 C 472.161 10.000 472.130 10.031 472.130 10.070 V 13.000 C 472.130 13.070 472.200 13.000 472.130 13.000 H 466.270 C 466.200 13.000 466.270 13.070 466.270 13.000 V 10.070 C 466.270 10.031 466.239 10.000 466.200 10.000 H 460.200 C 460.161 10.000 460.130 10.031 460.130 10.070 V 13.000 C 460.130 13.070 460.200 13.000 460.130 13.000 H 454.270 C 454.200 13.000 454.270 13.070 454.270 13.000 V 10.070 C 454.270 10.031 454.239 10.000 454.200 10.000 H 448.200 C 448.161 10.000 448.130 10.031 448.130 10.070 V 13.000 C 448.130 13.070 448.200 13.000 448.130 13.000 H 442.270 C 442.200 13.000 442.270 13.070 442.270 13.000 V 10.070 C 442.270 10.031 442.239 10.000 442.200 10.000 H 436.200 C 436.161 10.000 436.130 10.031 436.130 10.070 V 13.000 C 436.130 13.070 436.200 13.000 436.130 13.000 H 430.270 C 430.200 13.000 430.270 13.070 430.270 13.000 V 10.070 C 430.270 10.031 430.239 10.000 430.200 10.000 H 424.200 C 424.161 10.000 424.130 10.031 424.130 10.070 V 13.000 C 424.130 13.070 424.200 13.000 424.130 13.000 H 418.270 C 418.200 13.000 418.270 13.070 418.270 13.000 V 10.070 C 418.270 10.031 418.239 10.000 418.200 10.000 H 412.200 C 412.161 10.000 412.130 10.031 412.130 10.070 V 13.000 C 412.130 13.070 412.200 13.000 412.130 13.000 H 406.270 C 406.200 13.000 406.270 13.070 406.270 13.000 V 10.070 C 406.270 10.031 406.239 10.000 406.200 10.000 H 400.400 C 400.361 10.000 400.330 10.031 400.330 10.070 V 13.070 V 17.200 C 400.330 17.270 400.400 17.200 400.330 17.200 H 397.400 C 397.361 17.200 397.330 17.231 397.330 17.270 V 23.270 C 397.330 23.309 397.361 23.340 397.400 23.340 H 400.330 C 400.400 23.340 400.330 23.270 400.330 23.340 V 29.200 C 400.330 29.270 400.400 29.200 400.330 29.200 H 397.400 C 397.361 29.200 397.330 29.231 397.330 29.270 V 35.270 C 397.330 35.309 397.361 35.340 397.400 35.340 H 400.330 C 400.400 35.340 400.330 35.270 400.330 35.340 V 41.200 C 400.330 41.270 400.400 41.200 400.330 41.200 H 397.400 C 397.361 41.200 397.330 41.231 397.330 41.270 V 47.270 C 397.330 47.309 397.361 47.340 397.400 47.340 H 400.330 C 400.400 47.340 400.330 47.270 400.330 47.340 V 53.200 C 400.330 53.270 400.400 53.200 400.330 53.200 H 397.400 C 397.361 53.200 397.330 53.231 397.330 53.270 V 59.270 C 397.330 59.309 397.361 59.340 397.400 59.340 H 400.330 C 400.400 59.340 400.330 59.270 400.330 59.340 V 65.200 C 400.330 65.270 400.400 65.200 400.330 65.200 H 397.400 C 397.361 65.200 397.330 65.231 397.330 65.270 V 71.270 C 397.330 71.309 397.361 71.340 397.400 71.340 H 400.330 C 400.400 71.340 400.330 71.270 400.330 71.340 V 77.200 C 400.330 77.270 400.400 77.200 400.330 77.200 H 397.400 C 397.361 77.200 397.330 77.231 397.330 77.270 V 83.270 C 397.330 83.309 397.361 83.340 397.400 83.340 H 400.330 C 400.400 83.340 400.330 83.270 400.330 83.340 V 89.200 C 400.330 89.270 400.400 89.200 400.330 89.200 H 397.400 C 397.361 89.200 397.330 89.231 397.330 89.270 V 95.270 C 397.330 95.309 397.361 95.340 397.400 95.340 H 400.330 C 400.400 95.340 400.330 95.270 400.330 95.340 V 101.200 C 400.330 101.270 400.400 101.200 400.330 101.200 H 397.400 C 397.361 101.200 397.330 101.231 397.330 101.270 V 107.270 C 397.330 107.309 397.361 107.340 397.400 107.340 H 400.330 C 400.400 107.340 400.330 107.270 400.330 107.340 V 113.200 C 400.330 113.270 400.400 113.200 400.330 113.200 H 397.400 C 397.361 113.200 397.330 113.231 397.330 113.270 V 119.270 C 397.330 119.309 397.361 119.340 397.400 119.340 H 400.330 C 400.400 119.340 400.330 119.270 400.330 119.340 V 125.200 C 400.330 125.270 400.400 125.200 400.330 125.200 H 397.400 C 397.361 125.200 397.330 125.231 397.330 125.270 V 131.270 C 397.330 131.309 397.361 131.340 397.400 131.340 H 400.330 C 400.400 131.340 400.330 131.270 400.330 131.340 V 137.200 C 400.330 137.270 400.400 137.200 400.330 137.200 H 397.400 C 397.361 137.200 397.330 137.231 397.330 137.270 V 143.270 C 397.330 143.309 397.361 143.340 397.400 143.340 H 400.330 C 400.400 143.340 400.330 143.270 400.330 143.340 V 149.200 C 400.330 149.270 400.400 149.200 400.330 149.200 H 397.400 C 397.361 149.200 397.330 149.231 397.330 149.270 V 155.270 C 397.330 155.309 397.361 155.340 397.400 155.340 H 400.330 C 400.400 155.340 400.330 155.270 400.330 155.340 V 159.470 V 162.470 C 400.330 162.509 400.361 162.540 400.400 162.540 Z" stroke="rgb(0,0,0)" stroke-width="0.14" />
  <path d="M 510.981 162.540 H 514.638 C 514.677 162.540 514.708 162.509 514.708 162.470 V 159.540 C 514.708 159.470 514.638 159.540 514.708 159.540 H 520.568 C 520.638 159.540 520.568 159.470 520.568 159.540 V 162.470 C 520.568 162.509 520.600 162.540 520.638 162.540 H 526.638 C 526.677 162.540 526.708 162.509 526.708 162.470 V 159.540 C 526.708 159.470 526.638 159.540 526.708 159.540 H 532.568 C 532.638 159.540 532.568 159.470 532.568 159.540 V 162.470 C 532.568 162.509 532.600 162.540 532.638 162.540 H 538.638 C 538.677 162.540 538.708 162.509 538.708 162.470 V 159.540 C 538.708 159.470 538.638 159.540 538.708 159.540 H 544.568 C 544.638 159.540 544.568 159.470 544.568 159.540 V 162.470 C 544.568 162.509 544.600 162.540 544.638 162.540 H 550.638 C 550.677 162.540 550.708 162.509 550.708 162.470 V 159.540 C 550.708 159.470 550.638 159.540 550.708 159.540 H 556.568 C 556.638 159.540 556.568 159.470 556.568 159.540 V 162.470 C 556.568 162.509 556.600 162.540 556.638 162.540 H 562.638 C 562.677 162.540 562.708 162.509 562.708 162.470 V 159.540 C 562.708 159.470 562.638 159.540 562.708 159.540 H 568.568 C 568.638 159.540 568.568 159.470 568.568 159.540 V 162.470 C 568.568 162.509 568.600 162.540 568.638 162.540 H 574.638 C 574.677 162.540 574.708 162.509 574.708 162.470 V 159.540 C 574.708 159.470 574.638 159.540 574.708 159.540 H 580.568 C 580.638 159.540 580.568 159.470 580.568 159.540 V 162.470 C 580.568 162.509 580.600 162.540 580.638 162.540 H 586.638 C 586.677 162.540 586.708 162.509 586.708 162.470 V 159.540 C 586.708 159.470 586.638 159.540 586.708 159.540 H 592.568 C 592.638 159.540 592.568 159.470 592.568 159.540 V 162.470 C 592.568 162.509 592.600 162.540 592.638 162.540 H 598.638 C 598.677 162.540 598.708 162.509 598.708 162.470 V 159.540 C 598.708 159.470 598.638 159.540 598.708 159.540 H 604.568 C 604.638 159.540 604.568 159.470 604.568 159.540 V 162.470 C 604.568 162.509 604.600 162.540 604.638 162.540 H 610.638 C 610.677 162.540 610.708 162.509 610.708 162.470 V 159.540 C 610.708 159.470 610.638 159.540 610.708 159.540 H 616.568 C 616.638 159.540 616.568 159.470 616.568 159.540 V 162.470 C 616.568 162.509 616.600 162.540 616.638 162.540 H 622.638 C 622.677 162.540 622.708 162.509 622.708 162.470 V 159.540 C 622.708 159.470 622.638 159.540 622.708 159.540 H 628.568 C 628.638 159.540 628.568 159.470 628.568 159.540 V 162.470 C 628.568 162.509 628.600 162.540 628.638 162.540 H 632.296 H 635.296 C 635.334 162.540 635.366 162.509 635.366 162.470 V 159.470 V 155.270 C 635.366 155.231 635.334 155.200 635.296 155.200 H 632.366 C 632.296 155.200 632.366 155.270 632.366 155.200 V 149.340 C 632.366 149.270 632.296 149.340 632.366 149.340 H 635.296 C 635.334 149.340 635.366 149.309 635.366 149.270 V 143.270 C 635.366 143.231 635.334 143.200 635.296 143.200 H 632.366 C 632.296 143.200 632.366 143.270 632.366 143.200 V 137.340 C 632.366 137.270 632.296 137.340 632.366 137.340 H 635.296 C 635.334 137.340 635.366 137.309 635.366 137.270 V 131.270 C 635.366 131.231 635.334 131.200 635.296 131.200 H 632.366 C 632.296 131.200 632.366 131.270 632.366 131.200 V 125.340 C 632.366 125.270 632.296 125.340 632.366 125.340 H 635.296 C 635.334 125.340 635.366 125.309 635.366 125.270 V 119.270 C 635.366 119.231 635.334 119.200 635.296 119.200 H 632.366 C 632.296 119.200 632.366 119.270 632.366 119.200 V 113.340 C 632.366 113.270 632.296 113.340 632.366 113.340 H 635.296 C 635.334 113.340 635.366 113.309 635.366 113.270 V 107.270 C 635.366 107.231 635.334 107.200 635.296 107.200 H 632.366 C 632.296 107.200 632.366 107.270 632.366 107.200 V 101.340 C 632.366 101.270 632.296 101.340 632.366 101.340 H 635.296 C 635.334 101.340 635.366 101.309 635.366 101.270 V 95.270 C 635.366 95.231 635.334 95.200 635.296 95.200 H 632.366 C 632.296 95.200 632.366 95.270 632.366 95.200 V 89.340 C 632.366 89.270 632.296 89.340 632.366 89.340 H 635.296 C 635.334 89.340 635.366 89.309 635.366 89.270 V 83.270 C 635.366 83.231 635.334 83.200 635.296 83.200 H 632.366 C 632.296 83.200 632.366 83.270 632.366 83.200 V 77.340 C 632.366 77.270 632.296 77.340 632.366 77.340 H 635.296 C 635.334 77.340 635.366 77.309 635.366 77.270 V 71.270 C 635.366 71.231 635.334 71.200 635.296 71.200 H 632.366 C 632.296 71.200 632.366 71.270 632.366 71.200 V 65.340 C 632.366 65.270 632.296 65.340 632.366 65.340 H 635.296 C 635.334 65.340 635.366 65.309 635.366 65.270 V 59.270 C 635.366 59.231 635.334 59.200 635.296 59.200 H 632.366 C 632.296 59.200 632.366 59.270 632.366 59.200 V 53.340 C 632.366 53.270 632.296 53.340 632.366 53.340 H 635.296 C 635.334 53.340 635.366 53.309 635.366 53.270 V 47.270 C 635.366 47.231 635.334 47.200 635.296 47.200 H 632.366 C 632.296 47.200 632.366 47.270 632.366 47.200 V 41.340 C 632.366 41.270 632.296 41.340 632.366 41.340 H 635.296 C 635.334 41.340 635.366 41.309 635.366 41.270 V 35.270 C 635.366 35.231 635.334 35.200 635.296 35.200 H 632.366 C 632.296 35.200 632.366 35.270 632.366 35.200 V 29.340 C 632.366 29.270 632.296 29.340 632.366 29.340 H 635.296 C 635.334 29.340 635.366 29.309 635.366 29.270 V 23.270 C 635.366 23.231 635.334 23.200 635.296 23.200 H 632.366 C 632.296 23.200 632.366 23.270 632.366 23.200 V 17.340 C 632.366 17.270 632.296 17.340 632.366 17.340 H 635.296 C 635.334 17.340 635.366 17.309 635.366 17.270 V 13.070 V 10.070 C 635.366 10.031 635.334 10.000 635.296 10.000 H 632.296 H 628.638 C 628.600 10.000 628.568 10.031 628.568 10.070 V 13.000 C 628.568 13.070 628.638 13.000 628.568 13.000 H 622.708 C 622.638 13.000 622.708 13.070 622.708 13.000 V 10.070 C 622.708 10.031 622.677 10.000 622.638 10.000 H 616.638 C 616.600 10.000 616.568 10.031 616.568 10.070 V 13.000 C 616.568 13.070 616.638 13.000 616.568 13.000 H 610.708 C 610.638 13.000 610.708 13.070 610.708 13.000 V 10.070 C 610.708 10.031 610.677 10.000 610.638 10.000 H 604.638 C 604.600 10.000 604.568 10.031 604.568 10.070 V 13.000 C 604.568 13.070 604.638 13.000 604.568 13.000 H 598.708 C 598.638 13.000 598.708 13.070 598.708 13.000 V 10.070 C 598.708 10.031 598.677 10.000 598.638 10.000 H 592.638 C 592.600 10.000 592.568 10.031 592.568 10.070 V 13.000 C 592.568 13.070 592.638 13.000 592.568 13.000 H 586.708 C 586.638 13.000 586.708 13.070 586.708 13.000 V 10.070 C 586.708 10.031 586.677 10.000 586.638 10.000 H 580.638 C 580.600 10.000 580.568 10.031 580.568 10.070 V 13.000 C 580.568 13.070 580.638 13.000 580.568 13.000 H 574.708 C 574.638 13.000 574.708 13.070 574.708 13.000 V 10.070 C 574.708 10.031 574.677 10.000 574.638 10.000 H 568.638 C 568.600 10.000 568.568 10.031 568.568 10.070 V 13.000 C 568.568 13.070 568.638 13.000 568.568 13.000 H 562.708 C 562.638 13.000 562.708 13.070 562.708 13.000 V 10.070 C 562.708 10.031 562.677 10.000 562.638 10.000 H 556.638 C 556.600 10.000 556.568 10.031 556.568 10.070 V 13.000 C 556.568 13.070 556.638 13.000 556.568 13.000 H 550.708 C 550.638 13.000 550.708 13.070 550.708 13.000 V 10.070 C 550.708 10.031 550.677 10.000 550.638 10.000 H 544.638 C 544.600 10.000 544.568 10.031 544.568 10.070 V 13.000 C 544.568 13.070 544.638 13.000 544.568 13.000 H 538.708 C 538.638 13.000 538.708 13.070 538.708 13.000 V 10.070 C 538.708 10.031 538.677 10.000 538.638 10.000 H 532.638 C 532.600 10.000 532.568 10.031 532.568 10.070 V 13.000 C 532.568 13.070 532.638 13.000 532.568 13.000 H 526.708 C 526.638 13.000 526.708 13.070 526.708 13.000 V 10.070 C 526.708 10.031 526.677 10.000 526.638 10.000 H 520.638 C 520.600 10.000 520.568 10.031 520.568 10.070 V 13.000 C 520.568 13.070 520.638 13.000 520.568 13.000 H 514.708 C 514.638 13.000 514.708 13.070 514.708 13.000 V 10.070 C 514.708 10.031 514.677 10.000 514.638 10.000 H 510.981 H 508.280 C 508.241 10.000 508.210 10.031 508.210 10.070 V 13.070 V 17.270 C 508.210 17.309 508.241 17.340 508.280 17.340 H 511.194 C 511.264 17.340 511.194 17.270 511.194 17.340 V 23.200 C 511.194 23.270 511.264 23.200 511.194 23.200 H 508.280 C 508.241 23.200 508.210 23.231 508.210 23.270 V 29.270 C 508.210 29.309 508.241 29.340 508.280 29.340 H 511.194 C 511.264 29.340 511.194 29.270 511.194 29.340 V 35.200 C 511.194 35.270 511.264 35.200 511.194 35.200 H 508.280 C 508.241 35.200 508.210 35.231 508.210 35.270 V 41.270 C 508.210 41.309 508.241 41.340 508.280 41.340 H 511.194 C 511.264 41.340 511.194 41.270 511.194 41.340 V 47.200 C 511.194 47.270 511.264 47.200 511.194 47.200 H 508.280 C 508.241 47.200 508.210 47.231 508.210 47.270 V 53.270 C 508.210 53.309 508.241 53.340 508.280 53.340 H 511.194 C 511.264 53.340 511.194 53.270 511.194 53.340 V 59.200 C 511.194 59.270 511.264 59.200 511.194 59.200 H 508.280 C 508.241 59.200 508.210 59.231 508.210 59.270 V 65.270 C 508.210 65.309 508.241 65.340 508.280 65.340 H 511.194 C 511.264 65.340 511.194 65.270 511.194 65.340 V 71.200 C 511.194 71.270 511.264 71.200 511.194 71.200 H 508.280 C 508.241 71.200 508.210 71.231 508.210 71.270 V 77.270 C 508.210 77.309 508.241 77.340 508.280 77.340 H 511.194 C 511.264 77.340 511.194 77.270 511.194 77.340 V 83.200 C 511.194 83.270 511.264 83.200 511.194 83.200 H 508.280 C 508.241 83.200 508.210 83.231 508.210 83.270 V 89.270 C 508.210 89.309 508.241 89.340 508.280 89.340 H 511.194 C 511.264 89.340 511.194 89.270 511.194 89.340 V 95.200 C 511.194 95.270 511.264 95.200 511.194 95.200 H 508.280 C 508.241 95.200 508.210 95.231 508.210 95.270 V 101.270 C 508.210 101.309 508.241 101.340 508.280 101.340 H 511.194 C 511.264 101.340 511.194 101.270 511.194 101.340 V 107.200 C 511.194 107.270 511.264 107.200 511.194 107.200 H 508.280 C 508.241 107.200 508.210 107.231 508.210 107.270 V 113.270 C 508.210 113.309 508.241 113.340 508.280 113.340 H 511.194 C 511.264 113.340 511.194 113.270 511.194 113.340 V 119.200 C 511.194 119.270 511.264 119.200 511.194 119.200 H 508.280 C 508.241 119.200 508.210 119.231 508.210 119.270 V 125.270 C 508.210 125.309 508.241 125.340 508.280 125.340 H 511.194 C 511.264 125.340 511.194 125.270 511.194 125.340 V 131.200 C 511.194 131.270 511.264 131.200 511.194 131.200 H 508.280 C 508.241 131.200 508.210 131.231 508.210 131.270 V 137.270 C 508.210 137.309 508.241 137.340 508.280 137.340 H 511.194 C 511.264 137.340 511.194 137.270 511.194 137.340 V 143.200 C 511.194 143.270 511.264 143.200 511.194 143.200 H 508.280 C 508.241 143.200 508.210 143.231 508.210 143.270 V 149.270 C 508.210 149.309 508.241 149.340 508.280 149.340 H 511.194 C 511.264 149.340 511.194 149.270 511.194 149.340 V 155.200 C 511.194 155.270 511.264 155.200 511.194 155.200 H 508.280 C 508.241 155.200 508.210 155.231 508.210 155.270 V 159.470 V 162.470 C 508.210 162.509 508.241 162.540 508.280 162.540 H 510.981 Z" stroke="rgb(0,0,0)" stroke-width="0.14" />
  <path d="M 641.277 162.540 H 647.417 C 647.456 162.540 647.487 162.509 647.487 162.470 V 159.540 C 647.487 159.470 647.417 159.540 647.487 159.540 H 653.347 C 653.417 159.540 653.347 159.470 653.347 159.540 V 162.470 C 653.347 162.509 653.379 162.540 653.417 162.540 H 659.417 C 659.456 162.540 659.487 162.509 659.487 162.470 V 159.540 C 659.487 159.470 659.417 159.540 659.487 159.540 H 665.347 C 665.417 159.540 665.347 159.470 665.347 159.540 V 162.470 C 665.347 162.509 665.379 162.540 665.417 162.540 H 671.417 C 671.456 162.540 671.487 162.509 671.487 162.470 V 159.540 C 671.487 159.470 671.417 159.540 671.487 159.540 H 677.347 C 677.417 159.540 677.347 159.470 677.347 159.540 V 162.470 C 677.347 162.509 677.379 162.540 677.417 162.540 H 683.417 C 683.456 162.540 683.487 162.509 683.487 162.470 V 159.540 C 683.487 159.470 683.417 159.540 683.487 159.540 H 689.347 C 689.417 159.540 689.347 159.470 689.347 159.540 V 162.470 C 689.347 162.509 689.379 162.540 689.417 162.540 H 695.417 C 695.456 162.540 695.487 162.509 695.487 162.470 V 159.540 C 695.487 159.470 695.417 159.540 695.487 159.540 H 701.347 C 701.417 159.540 701.347 159.470 701.347 159.540 V 162.470 C 701.347 162.509 701.379 162.540 701.417 162.540 H 707.417 C 707.456 162.540 707.487 162.509 707.487 162.470 V 159.540 C 707.487 159.470 707.417 159.540 707.487 159.540 H 713.347 C 713.417 159.540 713.347 159.470 713.347 159.540 V 162.470 C 713.347 162.509 713.379 162.540 713.417 162.540 H 719.417 C 719.456 162.540 719.487 162.509 719.487 162.470 V 159.540 C 719.487 159.470 719.417 159.540 719.487 159.540 H 725.347 C 725.417 159.540 725.347 159.470 725.347 159.540 V 162.470 C 725.347 162.509 725.379 162.540 725.417 162.540 H 731.417 C 731.456 162.540 731.487 162.509 731.487 162.470 V 159.540 C 731.487 159.470 731.417 159.540 731.487 159.540 H 737.347 C 737.417 159.540 737.347 159.470 737.347 159.540 V 162.470 C 737.347 162.509 737.379 162.540 737.417 162.540 H 743.417 C 743.456 162.540 743.487 162.509 743.487 162.470 V 159.540 C 743.487 159.470 743.417 159.540 743.487 159.540 H 749.347 C 749.417 159.540 749.347 159.470 749.347 159.540 V 162.470 C 749.347 162.509 749.379 162.540 749.417 162.540 H 755.558 C 755.596 162.540 755.628 162.509 755.628 162.470 V 159.470 V 155.340 C 755.628 155.270 755.558 155.340 755.628 155.340 H 758.558 C 758.596 155.340 758.628 155.309 758.628 155.270 V 149.270 C 758.628 149.231 758.596 149.200 758.558 149.200 H 755.628 C 755.558 149.200 755.628 149.270 755.628 149.200 V 143.340 C 755.628 143.270 755.558 143.340 755.628 143.340 H 758.558 C 758.596 143.340 758.628 143.309 758.628 143.270 V 137.270 C 758.628 137.231 758.596 137.200 758.558 137.200 H 755.628 C 755.558 137.200 755.628 137.270 755.628 137.200 V 131.340 C 755.628 131.270 755.558 131.340 755.628 131.340 H 758.558 C 758.596 131.340 758.628 131.309 758.628 131.270 V 125.270 C 758.628 125.231 758.596 125.200 758.558 125.200 H 755.628 C 755.558 125.200 755.628 125.270 755.628 125.200 V 119.340 C 755.628 119.270 755.558 119.340 755.628 119.340 H 758.558 C 758.596 119.340 758.628 119.309 758.628 119.270 V 113.270 C 758.628 113.231 758.596 113.200 758.558 113.200 H 755.628 C 755.558 113.200 755.628 113.270 755.628 113.200 V 107.340 C 755.628 107.270 755.558 107.340 755.628 107.340 H 758.558 C 758.596 107.340 758.628 107.309 758.628 107.270 V 101.270 C 758.628 101.231 758.596 101.200 758.558 101.200 H 755.628 C 755.558 101.200 755.628 101.270 755.628 101.200 V 95.340 C 755.628 95.270 755.558 95.340 755.628 95.340 H 758.558 C 758.596 95.340 758.628 95.309 758.628 95.270 V 89.270 C 758.628 89.231 758.596 89.200 758.558 89.200 H 755.628 C 755.558 89.200 755.628 89.270 755.628 89.200 V 83.340 C 755.628 83.270 755.558 83.340 755.628 83.340 H 758.558 C 758.596 83.340 758.628 83.309 758.628 83.270 V 77.270 C 758.628 77.231 758.596 77.200 758.558 77.200 H 755.628 C 755.558 77.200 755.628 77.270 755.628 77.200 V 71.340 C 755.628 71.270 755.558 71.340 755.628 71.340 H 758.558 C 758.596 71.340 758.628 71.309 758.628 71.270 V 65.270 C 758.628 65.231 758.596 65.200 758.558 65.200 H 755.628 C 755.558 65.200 755.628 65.270 755.628 65.200 V 59.340 C 755.628 59.270 755.558 59.340 755.628 59.340 H 758.558 C 758.596 59.340 758.628 59.309 758.628 59.270 V 53.270 C 758.628 53.231 758.596 53.200 758.558 53.200 H 755.628 C 755.558 53.200 755.628 53.270 755.628 53.200 V 47.340 C 755.628 47.270 755.558 47.340 755.628 47.340 H 758.558 C 758.596 47.340 758.628 47.309 758.628 47.270 V 41.270 C 758.628 41.231 758.596 41.200 758.558 41.200 H 755.628 C 755.558 41.200 755.628 41.270 755.628 41.200 V 35.340 C 755.628 35.270 755.558 35.340 755.628 35.340 H 758.558 C 758.596 35.340 758.628 35.309 758.628 35.270 V 29.270 C 758.628 29.231 758.596 29.200 758.558 29.200 H 755.628 C 755.558 29.200 755.628 29.270 755.628 29.200 V 23.340 C 755.628 23.270 755.558 23.340 755.628 23.340 H 758.558 C 758.596 23.340 758.628 23.309 758.628 23.270 V 17.270 C 758.628 17.231 758.596 17.200 758.558 17.200 H 755.628 C 755.558 17.200 755.628 17.270 755.628 17.200 V 13.070 V 10.070 C 755.628 10.031 755.596 10.000 755.558 10.000 H 749.417 C 749.379 10.000 749.347 10.031 749.347 10.070 V 13.000 C 749.347 13.070 749.417 13.000 749.347 13.000 H 743.487 C 743.417 13.000 743.487 13.070 743.487 13.000 V 10.070 C 743.487 10.031 743.456 10.000 743.417 10.000 H 737.417 C 737.379 10.000 737.347 10.031 737.347 10.070 V 13.000 C 737.347 13.070 737.417 13.000 737.347 13.000 H 731.487 C 731.417 13.000 731.487 13.070 731.487 13.000 V 10.070 C 731.487 10.031 731.456 10.000 731.417 10.000 H 725.417 C 725.379 10.000 725.347 10.031 725.347 10.070 V 13.000 C 725.347 13.070 725.417 13.000 725.347 13.000 H 719.487 C 719.417 13.000 719.487 13.070 719.487 13.000 V 10.070 C 719.487 10.031 719.456 10.000 719.417 10.000 H 713.417 C 713.379 10.000 713.347 10.031 713.347 10.070 V 13.000 C 713.347 13.070 713.417 13.000 713.347 13.000 H 707.487 C 707.417 13.000 707.487 13.070 707.487 13.000 V 10.070 C 707.487 10.031 707.456 10.000 707.417 10.000 H 701.417 C 701.379 10.000 701.347 10.031 701.347 10.070 V 13.000 C 701.347 13.070 701.417 13.000 701.347 13.000 H 695.487 C 695.417 13.000 695.487 13.070 695.487 13.000 V 10.070 C 695.487 10.031 695.456 10.000 695.417 10.000 H 689.417 C 689.379 10.000 689.347 10.031 689.347 10.070 V 13.000 C 689.347 13.070 689.417 13.000 689.347 13.000 H 683.487 C 683.417 13.000 683.487 13.070 683.487 13.000 V 10.070 C 683.487 10.031 683.456 10.000 683.417 10.000 H 677.417 C 677.379 10.000 677.347 10.031 677.347 10.070 V 13.000 C 677.347 13.070 677.417 13.000 677.347 13.000 H 671.487 C 671.417 13.000 671.487 13.070 671.487 13.000 V 10.070 C 671.487 10.031 671.456 10.000 671.417 10.000 H 665.417 C 665.379 10.000 665.347 10.031 665.347 10.070 V 13.000 C 665.347 13.070 665.417 13.000 665.347 13.000 H 659.487 C 659.417 13.000 659.487 13.070 659.487 13.000 V 10.070 C 659.487 10.031 659.456 10.000 659.417 10.000 H 653.417 C 653.379 10.000 653.347 10.031 653.347 10.070 V 13.000 C 653.347 13.070 653.417 13.000 653.347 13.000 H 647.487 C 647.417 13.000 647.487 13.070 647.487 13.000 V 10.070 C 647.487 10.031 647.456 10.000 647.417 10.000 H 641.277 C 641.238 10.000 641.207 10.031 641.207 10.070 V 13.070 V 17.200 C 641.207 17.270 641.277 17.200 641.207 17.200 H 638.277 C 638.238 17.200 638.207 17.231 638.207 17.270 V 23.270 C 638.207 23.309 638.238 23.340 638.277 23.340 H 641.207 C 641.277 23.340 641.207 23.270 641.207 23.340 V 29.200 C 641.207 29.270 641.277 29.200 641.207 29.200 H 638.277 C 638.238 29.200 638.207 29.231 638.207 29.270 V 35.270 C 638.207 35.309 638.238 35.340 638.277 35.340 H 641.207 C 641.277 35.340 641.207 35.270 641.207 35.340 V 41.200 C 641.207 41.270 641.277 41.200 641.207 41.200 H 638.277 C 638.238 41.200 638.207 41.231 638.207 41.270 V 47.270 C 638.207 47.309 638.238 47.340 638.277 47.340 H 641.207 C 641.277 47.340 641.207 47.270 641.207 47.340 V 53.200 C 641.207 53.270 641.277 53.200 641.207 53.200 H 638.277 C 638.238 53.200 638.207 53.231 638.207 53.270 V 59.270 C 638.207 59.309 638.238 59.340 638.277 59.340 H 641.207 C 641.277 59.340 641.207 59.270 641.207 59.340 V 65.200 C 641.207 65.270 641.277 65.200 641.207 65.200 H 638.277 C 638.238 65.200 638.207 65.231 638.207 65.270 V 71.270 C 638.207 71.309 638.238 71.340 638.277 71.340 H 641.207 C 641.277 71.340 641.207 71.270 641.207 71.340 V 77.200 C 641.207 77.270 641.277 77.200 641.207 77.200 H 638.277 C 638.238 77.200 638.207 77.231 638.207 77.270 V 83.270 C 638.207 83.309 638.238 83.340 638.277 83.340 H 641.207 C 641.277 83.340 641.207 83.270 641.207 83.340 V 89.200 C 641.207 89.270 641.277 89.200 641.207 89.200 H 638.277 C 638.238 89.200 638.207 89.231 638.207 89.270 V 95.270 C 638.207 95.309 638.238 95.340 638.277 95.340 H 641.207 C 641.277 95.340 641.207 95.270 641.207 95.340 V 101.200 C 641.207 101.270 641.277 101.200 641.207 101.200 H 638.277 C 638.238 101.200 638.207 101.231 638.207 101.270 V 107.270 C 638.207 107.309 638.238 107.340 638.277 107.340 H 641.207 C 641.277 107.340 641.207 107.270 641.207 107.340 V 113.200 C 641.207 113.270 641.277 113.200 641.207 113.200 H 638.277 C 638.238 113.200 638.207 113.231 638.207 113.270 V 119.270 C 638.207 119.309 638.238 119.340 638.277 119.340 H 641.207 C 641.277 119.340 641.207 119.270 641.207 119.340 V 125.200 C 641.207 125.270 641.277 125.200 641.207 125.200 H 638.277 C 638.238 125.200 638.207 125.231 638.207 125.270 V 131.270 C 638.207 131.309 638.238 131.340 638.277 131.340 H 641.207 C 641.277 131.340 641.207 131.270 641.207 131.340 V 137.200 C 641.207 137.270 641.277 137.200 641.207 137.200 H 638.277 C 638.238 137.200 638.207 137.231 638.207 137.270 V 143.270 C 638.207 143.309 638.238 143.340 638.277 143.340 H 641.207 C 641.277 143.340 641.207 143.270 641.207 143.340 V 149.200 C 641.207 149.270 641.277 149.200 641.207 149.200 H 638.277 C 638.238 149.200 638.207 149.231 638.207 149.270 V 155.270 C 638.207 155.309 638.238 155.340 638.277 155.340 H 641.207 C 641.277 155.340 641.207 155.270 641.207 155.340 V 159.470 V 162.470 C 641.207 162.509 641.238 162.540 641.277 162.540 Z" stroke="rgb(0,0,0)" stroke-width="0.14" />
</g>
</svg>