<?xml version="1.0" encoding="UTF-8" standalone="no"?>
<!DOCTYPE svg PUBLIC "-//W3C//DTD SVG 1.1//EN" "http://www.w3.org/Graphics/SVG/1.1/DTD/svg11.dtd">
<svg width="1059px" height="1497px" version="1.1" xmlns="http://www.w3.org/2000/svg" xmlns:xlink="http://www.w3.org/1999/xlink" xml:space="preserve" xmlns:serif="http://www.serif.com/" style="fill-rule:evenodd;clip-rule:evenodd;">
    <g id="_0" serif:id="0">
        <g transform="matrix(1,0,0,1,731.07,-803.186)">
            <path d="M-55.558,2296.98C-55.558,2294.49 -57.605,2292.44 -60.094,2292.44C-62.582,2292.44 -64.629,2294.49 -64.629,2296.98C-64.629,2299.47 -62.582,2301.51 -60.094,2301.51C-57.605,2301.51 -55.558,2299.47 -55.558,2296.98Z" style="fill:none;fill-rule:nonzero;stroke:black;stroke-width:1px;"/>
        </g>
        <g transform="matrix(1,0,0,1,731.07,-803.186)">
            <path d="M-103.595,1745.08C-103.595,1741.45 -106.581,1738.47 -110.21,1738.47C-113.838,1738.47 -116.824,1741.45 -116.824,1745.08C-116.824,1748.71 -113.838,1751.69 -110.21,1751.69C-106.581,1751.69 -103.595,1748.71 -103.595,1745.08Z" style="fill:none;fill-rule:nonzero;stroke:black;stroke-width:1px;"/>
        </g>
        <g transform="matrix(1,0,0,1,731.07,-803.186)">
            <path d="M-199.37,1783.78C-199.37,1780.15 -202.356,1777.17 -205.984,1777.17C-209.613,1777.17 -212.598,1780.15 -212.598,1783.78C-212.598,1787.41 -209.613,1790.39 -205.984,1790.39C-202.356,1790.39 -199.37,1787.41 -199.37,1783.78Z" style="fill:none;fill-rule:nonzero;stroke:black;stroke-width:1px;"/>
        </g>
        <g transform="matrix(1,0,0,1,731.07,-803.186)">
            <path d="M-579.816,1503.19C-579.816,1499.56 -582.802,1496.58 -586.43,1496.58C-590.058,1496.58 -593.044,1499.56 -593.044,1503.19C-593.044,1506.82 -590.058,1509.8 -586.43,1509.8C-582.802,1509.8 -579.816,1506.82 -579.816,1503.19Z" style="fill:none;fill-rule:nonzero;stroke:black;stroke-width:1px;"/>
        </g>
        <g transform="matrix(1,0,0,1,731.07,-803.186)">
            <path d="M-103.595,1503.19C-103.595,1499.56 -106.581,1496.58 -110.21,1496.58C-113.838,1496.58 -116.824,1499.56 -116.824,1503.19C-116.824,1506.82 -113.838,1509.8 -110.21,1509.8C-106.581,1509.8 -103.595,1506.82 -103.595,1503.19Z" style="fill:none;fill-rule:nonzero;stroke:black;stroke-width:1px;"/>
        </g>
        <g transform="matrix(1,0,0,1,731.07,-803.186)">
            <path d="M-199.37,2183.42C-199.37,2179.8 -202.356,2176.81 -205.984,2176.81C-209.613,2176.81 -212.598,2179.8 -212.598,2183.42C-212.598,2187.05 -209.613,2190.04 -205.984,2190.04C-202.356,2190.04 -199.37,2187.05 -199.37,2183.42Z" style="fill:none;fill-rule:nonzero;stroke:black;stroke-width:1px;"/>
        </g>
        <g transform="matrix(1,0,0,1,731.07,-803.186)">
            <path d="M-482.835,1783.78C-482.835,1780.15 -485.82,1777.17 -489.449,1777.17C-493.077,1777.17 -496.063,1780.15 -496.063,1783.78C-496.063,1787.41 -493.077,1790.39 -489.449,1790.39C-485.82,1790.39 -482.835,1787.41 -482.835,1783.78Z" style="fill:none;fill-rule:nonzero;stroke:black;stroke-width:1px;"/>
        </g>
        <g transform="matrix(1,0,0,1,731.07,-803.186)">
            <path d="M-631.558,2296.98C-631.558,2294.49 -633.605,2292.44 -636.094,2292.44C-638.582,2292.44 -640.629,2294.49 -640.629,2296.98C-640.629,2299.47 -638.582,2301.51 -636.094,2301.51C-633.605,2301.51 -631.558,2299.47 -631.558,2296.98Z" style="fill:none;fill-rule:nonzero;stroke:black;stroke-width:1px;"/>
        </g>
        <g transform="matrix(1,0,0,1,731.07,-803.186)">
            <path d="M-482.835,2183.42C-482.835,2179.8 -485.82,2176.81 -489.449,2176.81C-493.077,2176.81 -496.063,2179.8 -496.063,2183.42C-496.063,2187.05 -493.077,2190.04 -489.449,2190.04C-485.82,2190.04 -482.835,2187.05 -482.835,2183.42Z" style="fill:none;fill-rule:nonzero;stroke:black;stroke-width:1px;"/>
        </g>
        <g transform="matrix(1,0,0,1,731.07,-803.186)">
            <path d="M-126.991,2210.96L-610.771,2210.96C-617.216,2210.96 -622.519,2216.26 -622.519,2222.71L-622.519,2320.98C-622.519,2327.42 -617.216,2332.73 -610.771,2332.73L-126.991,2332.73C-120.546,2332.73 -115.243,2327.42 -115.243,2320.98L-115.243,2222.71C-115.243,2216.26 -120.546,2210.96 -126.991,2210.96Z" style="fill:none;fill-rule:nonzero;stroke:black;stroke-width:1px;"/>
        </g>
        <g transform="matrix(1,0,0,1,731.07,-803.186)">
            <path d="M-504.567,1786.87L-504.567,1790.5" style="fill:none;fill-rule:nonzero;stroke:black;stroke-width:1px;"/>
        </g>
        <g transform="matrix(1,0,0,1,731.07,-803.186)">
            <path d="M-504.567,1790.5C-504.567,1794.49 -501.155,1797.77 -497.008,1797.77" style="fill:none;fill-rule:nonzero;stroke:black;stroke-width:1px;"/>
        </g>
        <g transform="matrix(1,0,0,1,731.07,-803.186)">
            <path d="M-497.008,1797.77L-198.425,1797.77" style="fill:none;fill-rule:nonzero;stroke:black;stroke-width:1px;"/>
        </g>
        <g transform="matrix(1,0,0,1,731.07,-803.186)">
            <path d="M-198.425,1797.77C-194.278,1797.77 -190.866,1794.49 -190.866,1790.5" style="fill:none;fill-rule:nonzero;stroke:black;stroke-width:1px;"/>
        </g>
        <g transform="matrix(1,0,0,1,731.07,-803.186)">
            <path d="M-190.866,1790.5L-190.866,1786.87" style="fill:none;fill-rule:nonzero;stroke:black;stroke-width:1px;"/>
        </g>
        <g transform="matrix(1,0,0,1,731.07,-803.186)">
            <path d="M-183.307,1779.6C-187.454,1779.6 -190.866,1782.88 -190.866,1786.87" style="fill:none;fill-rule:nonzero;stroke:black;stroke-width:1px;"/>
        </g>
        <g transform="matrix(1,0,0,1,731.07,-803.186)">
            <path d="M-183.307,1779.6L-58.961,1779.6" style="fill:none;fill-rule:nonzero;stroke:black;stroke-width:1px;"/>
        </g>
        <g transform="matrix(1,0,0,1,731.07,-803.186)">
            <path d="M-55.181,1783.24C-55.181,1781.24 -56.887,1779.6 -58.961,1779.6" style="fill:none;fill-rule:nonzero;stroke:black;stroke-width:1px;"/>
        </g>
        <g transform="matrix(1,0,0,1,731.07,-803.186)">
            <path d="M-55.181,1783.24L-55.181,2169.44" style="fill:none;fill-rule:nonzero;stroke:black;stroke-width:1px;"/>
        </g>
        <g transform="matrix(1,0,0,1,731.07,-803.186)">
            <path d="M-58.961,2173.07C-56.887,2173.07 -55.181,2171.43 -55.181,2169.44" style="fill:none;fill-rule:nonzero;stroke:black;stroke-width:1px;"/>
        </g>
        <g transform="matrix(1,0,0,1,731.07,-803.186)">
            <path d="M-58.961,2173.07L-636.472,2173.07" style="fill:none;fill-rule:nonzero;stroke:black;stroke-width:1px;"/>
        </g>
        <g transform="matrix(1,0,0,1,731.07,-803.186)">
            <path d="M-640.252,2169.44C-640.252,2171.43 -638.546,2173.07 -636.472,2173.07" style="fill:none;fill-rule:nonzero;stroke:black;stroke-width:1px;"/>
        </g>
        <g transform="matrix(1,0,0,1,731.07,-803.186)">
            <path d="M-640.252,2169.44L-640.252,1783.24" style="fill:none;fill-rule:nonzero;stroke:black;stroke-width:1px;"/>
        </g>
        <g transform="matrix(1,0,0,1,731.07,-803.186)">
            <path d="M-636.472,1779.6C-638.546,1779.6 -640.252,1781.24 -640.252,1783.24" style="fill:none;fill-rule:nonzero;stroke:black;stroke-width:1px;"/>
        </g>
        <g transform="matrix(1,0,0,1,731.07,-803.186)">
            <path d="M-636.472,1779.6L-512.126,1779.6" style="fill:none;fill-rule:nonzero;stroke:black;stroke-width:1px;"/>
        </g>
        <g transform="matrix(1,0,0,1,731.07,-803.186)">
            <path d="M-504.567,1786.87C-504.567,1782.88 -507.979,1779.6 -512.126,1779.6" style="fill:none;fill-rule:nonzero;stroke:black;stroke-width:1px;"/>
        </g>
        <g transform="matrix(1,0,0,1,731.07,-803.186)">
            <path d="M-579.816,1745.08C-579.816,1741.45 -582.802,1738.47 -586.43,1738.47C-590.058,1738.47 -593.044,1741.45 -593.044,1745.08C-593.044,1748.71 -590.058,1751.69 -586.43,1751.69C-582.802,1751.69 -579.816,1748.71 -579.816,1745.08Z" style="fill:none;fill-rule:nonzero;stroke:black;stroke-width:1px;"/>
        </g>
        <g transform="matrix(1,0,0,1,731.07,-803.186)">
            <path d="M-123.841,1734.91C-123.841,1739.06 -127.253,1742.47 -131.4,1742.47L-186.203,1742.47C-190.35,1742.47 -193.762,1745.88 -193.762,1750.03L-193.762,1751.92C-193.762,1756.06 -197.174,1759.48 -201.321,1759.48L-401.636,1759.48C-405.783,1759.48 -409.195,1756.06 -409.195,1751.92L-409.195,1750.03C-409.195,1745.88 -412.607,1742.47 -416.754,1742.47L-562.266,1742.47C-566.413,1742.47 -569.825,1739.06 -569.825,1734.91L-569.825,1513.81C-569.825,1509.66 -566.413,1506.25 -562.266,1506.25L-382.738,1506.25C-378.591,1506.25 -375.179,1502.83 -375.179,1498.69L-375.179,1496.8C-375.179,1492.65 -371.767,1489.24 -367.62,1489.24L-258.014,1489.24C-253.867,1489.24 -250.455,1492.65 -250.455,1496.8L-250.455,1498.69C-250.455,1502.83 -247.042,1506.25 -242.896,1506.25L-131.4,1506.25C-127.253,1506.25 -123.841,1509.66 -123.841,1513.81L-123.841,1734.91Z" style="fill:none;fill-rule:nonzero;stroke:black;stroke-width:1px;"/>
        </g>
        <g transform="matrix(1,0,0,1,731.07,-803.186)">
            <path d="M-631.558,2246.71C-631.558,2244.22 -633.605,2242.18 -636.094,2242.18C-638.582,2242.18 -640.629,2244.22 -640.629,2246.71C-640.629,2249.2 -638.582,2251.25 -636.094,2251.25C-633.605,2251.25 -631.558,2249.2 -631.558,2246.71Z" style="fill:none;fill-rule:nonzero;stroke:black;stroke-width:1px;"/>
        </g>
        <g transform="matrix(1,0,0,1,731.07,-803.186)">
            <path d="M-55.558,2246.71C-55.558,2244.22 -57.605,2242.18 -60.094,2242.18C-62.582,2242.18 -64.629,2244.22 -64.629,2246.71C-64.629,2249.2 -62.582,2251.25 -60.094,2251.25C-57.605,2251.25 -55.558,2249.2 -55.558,2246.71Z" style="fill:none;fill-rule:nonzero;stroke:black;stroke-width:1px;"/>
        </g>
        <g transform="matrix(1,0,0,1,731.07,-803.186)">
            <path d="M-696,1131.97C-696,1126.79 -691.735,1122.52 -686.551,1122.52L-9.449,1122.52C-4.265,1122.52 -0,1126.79 0,1131.97L0,2361.07C0,2366.25 -4.265,2370.52 -9.449,2370.52L-686.551,2370.52C-691.735,2370.52 -696,2366.25 -696,2361.07L-696,1131.97Z" style="fill:none;fill-rule:nonzero;stroke:black;stroke-width:1px;"/>
        </g>
        <g transform="matrix(0.994783,0,0,1.31153,-21.6259,440.026)">
            <path d="M707.433,44.929C707.433,40.552 702.748,36.998 696.977,36.998L114.742,36.998C108.971,36.998 104.286,40.552 104.286,44.929L104.286,170.887C104.286,175.264 108.971,178.817 114.742,178.817L696.977,178.817C702.748,178.817 707.433,175.264 707.433,170.887L707.433,44.929Z" style="fill:none;stroke:rgb(13,242,40);stroke-width:0.86px;stroke-linecap:round;stroke-linejoin:round;stroke-miterlimit:1.5;"/>
        </g>
    </g>
</svg>
