<svg xmlns="http://www.w3.org/2000/svg" xmlns:svg="http://www.w3.org/2000/svg" xmlns:xlink="http://www.w3.org/1999/xlink" xmlns:sodipodi="http://sodipodi.sourceforge.net/DTD/sodipodi-0.dtd" xmlns:inkscape="http://www.inkscape.org/namespaces/inkscape" viewBox="0 0 793.7007874015749 1122.5196850393702" width="793.7007874015749" height="1122.5196850393702">
    <defs><marker id="DistanceX" orient="auto" refX="0.0" refY="0.0" style="overflow:visible"><path d="M 3,-3 L -3,3 M 0,-5 L  0,5" style="stroke:#000000; stroke-width:0.5"/></marker><pattern id="Hatch" patternUnits="userSpaceOnUse" width="8" height="8" x="0" y="0"><path d="M8 4 l-4,4" stroke="#000000" stroke-width="0.25" linecap="square"/><path d="M6 2 l-4,4" stroke="#000000" stroke-width="0.25" linecap="square"/><path d="M4 0 l-4,4" stroke="#000000" stroke-width="0.25" linecap="square"/></pattern><symbol id="*MODEL_SPACE"/><symbol id="*PAPER_SPACE"/></defs><g inkscape:groupmode="layer" inkscape:label="0"><path d="M -55.558082,2296.978019 A 4.535433,4.535433 -0.000000 1 0 -64.628948,2296.978019 4.535433,4.535433 -0.000000 1 0 -55.558082,2296.978019 z" style="fill:none;stroke:#000000"/><path d="M -103.595418,1745.079408 A 6.614173,6.614173 -0.000000 1 0 -116.823764,1745.079408 6.614173,6.614173 -0.000000 1 0 -103.595418,1745.079408 z" style="fill:none;stroke:#000000"/><path d="M -199.370079,1783.781227 A 6.614173,6.614173 -0.000000 1 0 -212.598425,1783.781227 6.614173,6.614173 -0.000000 1 0 -199.370079,1783.781227 z" style="fill:none;stroke:#000000"/><path d="M -579.815890,1503.189644 A 6.614173,6.614173 -0.000000 1 0 -593.044236,1503.189644 6.614173,6.614173 -0.000000 1 0 -579.815890,1503.189644 z" style="fill:none;stroke:#000000"/><path d="M -103.595418,1503.189644 A 6.614173,6.614173 -0.000000 1 0 -116.823764,1503.189644 6.614173,6.614173 -0.000000 1 0 -103.595418,1503.189644 z" style="fill:none;stroke:#000000"/><path d="M -199.370079,2183.423885 A 6.614173,6.614173 -0.000000 1 0 -212.598425,2183.423885 6.614173,6.614173 -0.000000 1 0 -199.370079,2183.423885 z" style="fill:none;stroke:#000000"/><path d="M -482.834646,1783.781227 A 6.614173,6.614173 -0.000000 1 0 -496.062992,1783.781227 6.614173,6.614173 -0.000000 1 0 -482.834646,1783.781227 z" style="fill:none;stroke:#000000"/><path d="M -631.558082,2296.978019 A 4.535433,4.535433 -0.000000 1 0 -640.628948,2296.978019 4.535433,4.535433 -0.000000 1 0 -631.558082,2296.978019 z" style="fill:none;stroke:#000000"/><path d="M -482.834646,2183.423885 A 6.614173,6.614173 -0.000000 1 0 -496.062992,2183.423885 6.614173,6.614173 -0.000000 1 0 -482.834646,2183.423885 z" style="fill:none;stroke:#000000"/><path d="M -126.991153,2210.962032 L -610.770680,2210.962032 A 11.748271,11.748271 0.0 0 0 -622.518951,2222.710303 L -622.518951,2320.978019 A 11.748271,11.748271 0.0 0 0 -610.770680,2332.726290 L -126.991153,2332.726290 A 11.748271,11.748271 0.0 0 0 -115.242882,2320.978019 L -115.242882,2222.710303 A 11.748271,11.748271 0.0 0 0 -126.991153,2210.962032 z" style="fill:none;stroke:#000000"/><path d="M -504.566929,1786.869375 -504.566929,1790.502490" style="fill:none;stroke:#000000"/><path d="M -504.566929,1790.502490 A 7.559055,7.266230 -180.000000 0 0 -497.007874,1797.768720" style="fill:none;stroke:#000000"/><path d="M -497.007874,1797.768720 -198.425197,1797.768720" style="fill:none;stroke:#000000"/><path d="M -198.425197,1797.768720 A 7.559055,7.266230 -0.000000 0 0 -190.866142,1790.502490" style="fill:none;stroke:#000000"/><path d="M -190.866142,1790.502490 -190.866142,1786.869375" style="fill:none;stroke:#000000"/><path d="M -183.307087,1779.603145 A 7.559055,7.266230 -180.000000 0 0 -190.866142,1786.869375" style="fill:none;stroke:#000000"/><path d="M -183.307087,1779.603145 -58.960630,1779.603145" style="fill:none;stroke:#000000"/><path d="M -55.181102,1783.236260 A 3.779528,3.633115 -0.000000 0 0 -58.960630,1779.603145" style="fill:none;stroke:#000000"/><path d="M -55.181102,1783.236260 -55.181102,2169.436392" style="fill:none;stroke:#000000"/><path d="M -58.960630,2173.069507 A 3.779528,3.633115 0.000000 0 0 -55.181102,2169.436392" style="fill:none;stroke:#000000"/><path d="M -58.960630,2173.069507 -636.472441,2173.069507" style="fill:none;stroke:#000000"/><path d="M -640.251969,2169.436392 A 3.779528,3.633115 -180.000000 0 0 -636.472441,2173.069507" style="fill:none;stroke:#000000"/><path d="M -640.251969,2169.436392 -640.251969,1783.236260" style="fill:none;stroke:#000000"/><path d="M -636.472441,1779.603145 A 3.779528,3.633115 -180.000000 0 0 -640.251969,1783.236260" style="fill:none;stroke:#000000"/><path d="M -636.472441,1779.603145 -512.125984,1779.603145" style="fill:none;stroke:#000000"/><path d="M -504.566929,1786.869375 A 7.559055,7.266230 -0.000000 0 0 -512.125984,1779.603145" style="fill:none;stroke:#000000"/><path d="M -579.815890,1745.079408 A 6.614173,6.614173 -0.000000 1 0 -593.044236,1745.079408 6.614173,6.614173 -0.000000 1 0 -579.815890,1745.079408 z" style="fill:none;stroke:#000000"/><path d="M -123.840587,1734.908063 A 7.559055,7.559055 0.0 0 1 -131.399642,1742.467118 L -186.202792,1742.467118 A 7.559055,7.559055 0.0 0 0 -193.761847,1750.026174 L -193.761847,1751.915937 A 7.559055,7.559055 0.0 0 1 -201.320902,1759.474992 L -401.635862,1759.474992 A 7.559055,7.559055 0.0 0 1 -409.194918,1751.915937 L -409.194918,1750.026174 A 7.559055,7.559055 0.0 0 0 -416.753973,1742.467118 L -562.265784,1742.467118 A 7.559055,7.559055 0.0 0 1 -569.824839,1734.908063 L -569.824839,1513.805701 A 7.559055,7.559055 0.0 0 1 -562.265784,1506.246646 L -382.738225,1506.246646 A 7.559055,7.559055 0.0 0 0 -375.179169,1498.687591 L -375.179169,1496.797827 A 7.559055,7.559055 0.0 0 1 -367.620114,1489.238772 L -258.013815,1489.238772 A 7.559055,7.559055 0.0 0 1 -250.454760,1496.797827 L -250.454760,1498.687591 A 7.559055,7.559055 0.0 0 0 -242.895705,1506.246646 L -131.399642,1506.246646 A 7.559055,7.559055 0.0 0 1 -123.840587,1513.805701 L -123.840587,1734.908063 z" style="fill:none;stroke:#000000"/><path d="M -631.558082,2246.710303 A 4.535433,4.535433 -0.000000 1 0 -640.628948,2246.710303 4.535433,4.535433 -0.000000 1 0 -631.558082,2246.710303 z" style="fill:none;stroke:#000000"/><path d="M -55.558082,2246.710303 A 4.535433,4.535433 -0.000000 1 0 -64.628948,2246.710303 4.535433,4.535433 -0.000000 1 0 -55.558082,2246.710303 z" style="fill:none;stroke:#000000"/><path d="M -696.000000,1131.968504 A 9.448819,9.448819 0.0 0 1 -686.551181,1122.519685 L -9.448819,1122.519685 A 9.448819,9.448819 0.0 0 1 0.000000,1131.968504 L 0.000000,2361.070866 A 9.448819,9.448819 0.0 0 1 -9.448819,2370.519685 L -686.551181,2370.519685 A 9.448819,9.448819 0.0 0 1 -696.000000,2361.070866 L -696.000000,1131.968504 z" style="fill:none;stroke:#000000"/><path d="M -20.456693,1148.976378 A 6.000000,6.000000 -0.000000 1 0 -32.456693,1148.976378 6.000000,6.000000 -0.000000 1 0 -20.456693,1148.976378 z" style="fill:none;stroke:#000000"/><path d="M -20.456693,2344.062992 A 6.000000,6.000000 -0.000000 1 0 -32.456693,2344.062992 6.000000,6.000000 -0.000000 1 0 -20.456693,2344.062992 z" style="fill:none;stroke:#000000"/><path d="M -663.543307,1148.976378 A 6.000000,6.000000 -0.000000 1 0 -675.543307,1148.976378 6.000000,6.000000 -0.000000 1 0 -663.543307,1148.976378 z" style="fill:none;stroke:#000000"/><path d="M -663.543307,2344.062992 A 6.000000,6.000000 -0.000000 1 0 -675.543307,2344.062992 6.000000,6.000000 -0.000000 1 0 -663.543307,2344.062992 z" style="fill:none;stroke:#000000"/><path d="M -48.000000,1280.561607 L -648.000000,1280.561607 L -648.000000,1466.561607 L -48.000000,1466.561607 L -48.000000,1280.561607 z" style="fill:none;stroke:#000000"/></g><desc>radio_stack_faceplate.dxf - scale = 1.000000, origin = (0.000000, 0.000000), method = manual</desc></svg>