<?xml version="1.0" encoding="UTF-8" standalone="no"?>
<!DOCTYPE svg PUBLIC "-//W3C//DTD SVG 1.1//EN" "http://www.w3.org/Graphics/SVG/1.1/DTD/svg11.dtd">
<svg width="716px" height="1340px" version="1.1" xmlns="http://www.w3.org/2000/svg" xmlns:xlink="http://www.w3.org/1999/xlink" xml:space="preserve" xmlns:serif="http://www.serif.com/" style="fill-rule:evenodd;clip-rule:evenodd;">
    <g transform="matrix(1.33333,0,0,1.33333,0,0)">
        <path d="M2.835,1001.84L2.835,2.835L533.849,2.835L533.849,1001.84L2.835,1001.84M385.77,500.848L385.77,503.575L385.855,504.519L386.113,505.437L386.529,506.299L387.096,507.076L387.797,507.747L388.604,508.294L389.5,508.694L390.455,508.941L391.439,509.023L484.702,509.023L485.195,508.983L485.671,508.859L486.119,508.657L486.524,508.385L486.873,508.051L487.157,507.662L487.366,507.231L487.494,506.772L487.536,506.299L487.536,216.649L487.494,216.176L487.366,215.717L487.157,215.286L486.873,214.897L486.524,214.56L486.119,214.288L485.671,214.087L485.195,213.965L484.702,213.925L51.557,213.925L51.063,213.965L50.587,214.087L50.139,214.288L49.734,214.56L49.385,214.897L49.102,215.286L48.892,215.717L48.764,216.176L48.722,216.649L48.722,506.299L48.764,506.772L48.892,507.231L49.102,507.662L49.385,508.051L49.734,508.385L50.139,508.657L50.587,508.859L51.063,508.983L51.557,509.023L144.819,509.023L145.803,508.941L146.758,508.694L147.654,508.294L148.462,507.747L149.162,507.076L149.729,506.299L150.146,505.437L150.401,504.519L150.489,503.575L150.489,500.848L150.574,499.904L150.831,498.986L151.248,498.124L151.815,497.347L152.235,496.943L152.512,496.675L153.323,496.128L154.219,495.728L155.174,495.482L156.158,495.4L380.1,495.4L381.084,495.482L382.039,495.728L382.935,496.128L383.746,496.675L384.443,497.347L384.449,497.355L385.01,498.124L385.427,498.986L385.685,499.904L385.77,500.848M314.24,531.207L314.24,529.79L314.152,528.803L313.897,527.851L313.481,526.955L312.914,526.144L312.214,525.447L311.406,524.88L310.51,524.46L309.555,524.205L308.571,524.12L158.329,524.12L157.346,524.205L156.39,524.46L155.494,524.88L154.687,525.447L153.986,526.144L153.42,526.955L153.003,527.851L152.745,528.803L152.66,529.79L152.66,531.207L152.575,532.191L152.317,533.146L151.9,534.042L151.333,534.849L150.636,535.55L149.825,536.117L148.929,536.533L147.974,536.788L146.991,536.876L105.888,536.876L104.902,536.961L103.949,537.216L103.054,537.636L102.243,538.203L101.543,538.9L100.979,539.711L100.559,540.607L100.304,541.559L100.219,542.546L100.219,708.372L100.304,709.356L100.559,710.311L100.979,711.207L101.064,711.329L101.543,712.015L102.243,712.715L103.054,713.282L103.949,713.699L104.902,713.954L105.888,714.042L189.51,714.042L190.497,714.127L191.449,714.382L192.345,714.801L193.156,715.368L193.856,716.066L194.423,716.876L194.839,717.772L195.094,718.724L195.18,719.711L195.18,721.128L195.267,722.112L195.443,722.77L195.523,723.067L195.939,723.963L196.506,724.771L197.206,725.471L198.014,726.038L198.91,726.454L199.865,726.71L200.852,726.797L283.056,726.797L284.043,726.71L284.995,726.454L285.891,726.038L286.702,725.471L287.399,724.771L287.966,723.963L288.386,723.067L288.42,722.94L288.641,722.112L288.726,721.128L288.726,719.711L288.814,718.724L289.069,717.772L289.485,716.876L290.052,716.066L290.752,715.368L291.56,714.801L291.563,714.8L292.456,714.382L293.411,714.127L294.395,714.042L429.046,714.042L430.03,713.954L430.985,713.699L431.881,713.282L432.689,712.715L433.389,712.015L433.956,711.207L434.373,710.311L434.628,709.356L434.716,708.372L434.716,542.546L434.628,541.559L434.373,540.607L433.956,539.711L433.389,538.9L432.689,538.203L431.881,537.636L430.985,537.216L430.03,536.961L429.046,536.876L319.91,536.876L318.923,536.788L317.971,536.533L317.075,536.117L316.264,535.55L315.567,534.849L315,534.042L314.785,533.582L314.58,533.146L314.325,532.191L314.24,531.207M53.569,155.497L53.544,155.49L52.997,155.344L52.407,155.29L51.814,155.344L51.242,155.497L50.706,155.747L50.219,156.087L49.799,156.506L49.459,156.991L49.209,157.53L49.056,158.102L49.005,158.692L49.056,159.284L49.2,159.82L49.209,159.857L49.459,160.393L49.799,160.88L50.219,161.3L50.706,161.64L51.242,161.889L51.814,162.043L52.407,162.094L52.997,162.043L53.569,161.889L54.108,161.64L54.592,161.3L55.012,160.88L55.352,160.393L55.602,159.857L55.757,159.284L55.809,158.692L55.757,158.102L55.602,157.53L55.352,156.991L55.012,156.506L54.592,156.087L54.108,155.747L53.569,155.497M162.689,211.042L163.525,210.818L163.845,210.669L164.307,210.453L165.016,209.957L165.628,209.347L166.124,208.638L166.487,207.853L166.711,207.02L166.788,206.158L166.711,205.296L166.487,204.46L166.124,203.678L165.628,202.969L165.016,202.357L164.307,201.861L163.845,201.645L163.525,201.495L162.689,201.271L161.827,201.197L160.965,201.271L160.129,201.495L159.347,201.861L158.638,202.357L158.026,202.969L157.53,203.678L157.164,204.46L156.943,205.296L156.866,206.158L156.876,206.263L156.943,207.02L157.164,207.853L157.53,208.638L158.026,209.347L158.638,209.957L159.347,210.453L160.129,210.818L160.965,211.042L161.827,211.119L162.689,211.042M158.638,502.089L158.392,502.336L158.026,502.702L157.53,503.41L157.164,504.193L156.943,505.029L156.866,505.891L156.943,506.752L157.164,507.586L157.423,508.141L157.53,508.371L158.026,509.08L158.638,509.689L159.347,510.185L160.129,510.551L160.965,510.775L161.827,510.851L162.689,510.775L163.525,510.551L163.845,510.401L164.307,510.185L165.016,509.689L165.628,509.08L166.124,508.371L166.487,507.586L166.711,506.752L166.788,505.891L166.711,505.029L166.487,504.193L166.124,503.41L165.628,502.702L165.263,502.336L165.016,502.089L164.307,501.593L163.525,501.228L162.689,501.004L161.827,500.93L160.965,501.004L160.129,501.228L159.347,501.593L158.638,502.089M23.732,88.571L24.284,89.127L24.517,89.289L24.928,89.575L25.639,89.906L26.396,90.111L27.179,90.179L27.958,90.111L28.718,89.906L29.426,89.575L30.07,89.127L30.626,88.571L31.076,87.928L31.408,87.216L31.609,86.46L31.677,85.677L31.609,84.898L31.464,84.351L31.408,84.141L31.076,83.429L30.626,82.786L30.07,82.23L29.426,81.782L28.718,81.451L27.958,81.247L27.179,81.179L26.396,81.247L25.639,81.451L24.928,81.782L24.284,82.23L23.732,82.786L23.281,83.429L22.949,84.141L22.893,84.351L22.745,84.898L22.677,85.677L22.745,86.46L22.949,87.216L23.281,87.928L23.732,88.571M443.979,531.116L443.37,531.728L442.874,532.437L442.508,533.22L442.502,533.241L442.284,534.056L442.208,534.917L442.284,535.776L442.502,536.591L442.508,536.613L442.767,537.168L442.874,537.398L443.37,538.104L443.979,538.716L444.688,539.212L445.473,539.578L446.306,539.802L447.168,539.878L448.03,539.802L448.866,539.578L449.649,539.212L450.357,538.716L450.969,538.104L451.466,537.398L451.572,537.168L451.831,536.613L452.055,535.776L452.129,534.917L452.055,534.056L451.831,533.22L451.466,532.437L450.969,531.728L450.604,531.363L450.357,531.116L449.649,530.62L448.866,530.254L448.03,530.031L447.168,529.957L446.306,530.031L445.473,530.254L444.688,530.62L443.979,531.116M52.997,124.342L53.544,124.195L53.569,124.189L54.108,123.939L54.592,123.599L55.012,123.18L55.352,122.692L55.602,122.156L55.757,121.584L55.809,120.991L55.757,120.402L55.602,119.829L55.352,119.29L55.012,118.806L54.592,118.386L54.108,118.046L53.569,117.797L52.997,117.643L52.407,117.59L51.814,117.643L51.242,117.797L50.706,118.046L50.219,118.386L49.799,118.806L49.534,119.183L49.459,119.29L49.209,119.829L49.056,120.402L49.005,120.991L49.056,121.584L49.209,122.156L49.459,122.692L49.799,123.18L50.219,123.599L50.706,123.939L51.242,124.189L51.814,124.342L52.407,124.393L52.997,124.342M378.232,502.702L377.867,502.336L377.62,502.089L376.911,501.593L376.129,501.228L375.293,501.004L374.431,500.93L373.569,501.004L372.733,501.228L371.951,501.593L371.242,502.089L370.996,502.336L370.63,502.702L370.134,503.41L369.768,504.193L369.547,505.029L369.471,505.891L369.547,506.752L369.768,507.586L370.134,508.371L370.63,509.08L371.242,509.689L371.951,510.185L372.733,510.551L373.569,510.775L374.431,510.851L375.293,510.775L376.129,510.551L376.911,510.185L377.62,509.689L378.232,509.08L378.729,508.371L379.091,507.586L379.315,506.752L379.392,505.891L379.315,505.029L379.091,504.193L378.729,503.41L378.232,502.702M487.491,743.913L486.261,743.805L50.423,743.805L49.192,743.913L47.999,744.233L46.879,744.755L45.867,745.464L44.994,746.337L44.286,747.349L43.764,748.468L43.444,749.662L43.336,750.892L43.336,970.719L43.444,971.949L43.764,973.142L44.286,974.262L44.994,975.274L45.867,976.147L46.879,976.856L47.999,977.377L49.192,977.698L50.423,977.805L486.261,977.805L487.491,977.698L488.684,977.377L489.804,976.856L490.816,976.147L491.689,975.274L492.398,974.262L492.919,973.142L493.24,971.949L493.347,970.719L493.347,750.892L493.24,749.662L492.919,748.468L492.398,747.349L491.689,746.337L490.816,745.464L489.804,744.755L488.684,744.233L487.491,743.913M93.903,101.463L93.77,102.991L93.77,176.692L93.817,177.236L93.903,178.223L94.3,179.708L94.949,181.1L95.831,182.356L96.917,183.444L98.175,184.323L99.567,184.972L101.049,185.372L102.58,185.505L465.426,185.505L466.954,185.372L468.439,184.972L469.831,184.323L471.09,183.444L472.175,182.356L473.057,181.1L473.706,179.708L474.103,178.223L474.189,177.236L474.236,176.692L474.236,102.991L474.103,101.463L473.706,99.978L473.057,98.586L472.175,97.328L471.09,96.242L469.831,95.36L468.439,94.711L466.954,94.314L465.426,94.181L102.58,94.181L101.049,94.314L99.567,94.711L98.175,95.36L96.917,96.242L95.831,97.328L94.949,98.586L94.3,99.978L93.903,101.463M442.508,714.637L442.502,714.658L442.284,715.473L442.208,716.335L442.284,717.194L442.502,718.009L442.508,718.03L442.874,718.815L443.37,719.521L443.979,720.133L444.688,720.629L445.473,720.995L446.306,721.219L447.168,721.295L448.03,721.219L448.866,720.995L449.649,720.629L450.357,720.133L450.969,719.521L451.466,718.815L451.831,718.03L452.055,717.194L452.06,717.134L452.129,716.335L452.055,715.473L451.831,714.637L451.466,713.854L450.969,713.146L450.357,712.534L449.649,712.037L448.866,711.672L448.03,711.448L447.168,711.374L446.306,711.448L445.473,711.672L444.688,712.037L443.979,712.534L443.37,713.146L442.874,713.854L442.508,714.637M371.951,210.453L372.733,210.818L372.838,210.846L373.569,211.042L374.431,211.119L375.293,211.042L376.129,210.818L376.911,210.453L377.62,209.957L378.232,209.347L378.729,208.638L379.091,207.853L379.315,207.02L379.382,206.263L379.392,206.158L379.315,205.296L379.091,204.46L378.729,203.678L378.232,202.969L377.62,202.357L376.911,201.861L376.129,201.495L375.293,201.271L374.431,201.197L373.569,201.271L372.838,201.467L372.733,201.495L371.951,201.861L371.242,202.357L370.63,202.969L370.134,203.678L369.768,204.46L369.547,205.296L369.471,206.158L369.547,207.02L369.768,207.853L370.134,208.638L370.63,209.347L371.242,209.957L371.951,210.453M512.399,978.545L512.167,978.383L512.155,978.375L511.756,978.097L511.044,977.766L510.287,977.562L509.505,977.494L508.725,977.562L507.966,977.766L507.254,978.097L506.857,978.375L506.614,978.545L506.058,979.101L505.607,979.744L505.276,980.456L505.074,981.213L505.006,981.995L505.074,982.774L505.276,983.531L505.578,984.18L505.607,984.243L506.058,984.886L506.614,985.442L507.254,985.89L507.966,986.221L508.725,986.426L509.505,986.494L510.287,986.426L511.044,986.221L511.756,985.89L512.167,985.604L512.399,985.442L512.952,984.886L513.403,984.243L513.734,983.531L513.938,982.774L514.006,981.995L513.938,981.213L513.734,980.456L513.403,979.744L512.952,979.101L512.399,978.545M487.363,160.393L487.613,159.857L487.769,159.284L487.82,158.692L487.769,158.102L487.613,157.53L487.363,156.991L487.023,156.506L486.604,156.087L486.119,155.747L485.58,155.497L485.008,155.344L484.418,155.29L483.826,155.344L483.253,155.497L483.14,155.55L482.717,155.747L482.23,156.087L481.813,156.506L481.473,156.991L481.221,157.53L481.068,158.102L481.017,158.692L481.068,159.284L481.211,159.82L481.221,159.857L481.473,160.393L481.813,160.88L482.23,161.3L482.717,161.64L483.253,161.889L483.826,162.043L484.418,162.094L485.008,162.043L485.58,161.889L486.119,161.64L486.604,161.3L487.023,160.88L487.363,160.393M94.292,532.437L94.181,532.279L93.796,531.728L93.43,531.363L93.183,531.116L92.475,530.62L91.689,530.254L90.856,530.031L89.994,529.957L89.133,530.031L88.296,530.254L87.514,530.62L86.805,531.116L86.559,531.363L86.193,531.728L85.697,532.437L85.331,533.22L85.107,534.056L85.034,534.917L85.107,535.776L85.331,536.613L85.59,537.168L85.697,537.398L86.193,538.104L86.805,538.716L87.514,539.212L88.296,539.578L89.133,539.802L89.994,539.878L90.856,539.802L91.689,539.578L92.475,539.212L93.183,538.716L93.796,538.104L94.181,537.555L94.292,537.398L94.654,536.613L94.878,535.776L94.955,534.917L94.878,534.056L94.654,533.22L94.292,532.437M482.717,123.939L483.14,124.136L483.253,124.189L483.826,124.342L484.418,124.393L485.008,124.342L485.58,124.189L486.119,123.939L486.604,123.599L487.023,123.18L487.363,122.692L487.613,122.156L487.769,121.584L487.82,120.991L487.769,120.402L487.613,119.829L487.363,119.29L487.288,119.183L487.023,118.806L486.604,118.386L486.119,118.046L485.58,117.797L485.008,117.643L484.418,117.59L483.826,117.643L483.253,117.797L482.717,118.046L482.23,118.386L481.813,118.806L481.549,119.183L481.473,119.29L481.221,119.829L481.068,120.402L481.017,120.991L481.068,121.584L481.221,122.156L481.473,122.692L481.813,123.18L482.23,123.599L482.717,123.939M505.276,84.141L505.22,84.351L505.074,84.898L505.006,85.677L505.074,86.46L505.276,87.216L505.607,87.928L506.058,88.571L506.614,89.127L507.254,89.575L507.966,89.906L508.725,90.111L509.505,90.179L510.287,90.111L511.044,89.906L511.756,89.575L512.167,89.289L512.399,89.127L512.952,88.571L513.403,87.928L513.734,87.216L513.938,86.46L514.006,85.677L513.938,84.898L513.791,84.351L513.734,84.141L513.403,83.429L512.952,82.786L512.399,82.23L511.756,81.782L511.044,81.451L510.287,81.247L509.505,81.179L508.725,81.247L507.966,81.451L507.254,81.782L506.614,82.23L506.058,82.786L505.607,83.429L505.276,84.141M23.732,984.886L24.284,985.442L24.517,985.604L24.928,985.89L25.639,986.221L26.396,986.426L27.179,986.494L27.958,986.426L28.718,986.221L29.426,985.89L30.07,985.442L30.626,984.886L31.076,984.243L31.105,984.18L31.408,983.531L31.609,982.774L31.677,981.995L31.609,981.213L31.408,980.456L31.076,979.744L30.626,979.101L30.07,978.545L29.826,978.375L29.426,978.097L28.718,977.766L27.958,977.562L27.179,977.494L26.396,977.562L25.639,977.766L24.928,978.097L24.529,978.375L24.517,978.383L24.284,978.545L23.732,979.101L23.281,979.744L22.949,980.456L22.745,981.213L22.677,981.995L22.745,982.774L22.949,983.531L23.281,984.243L23.732,984.886M85.034,716.335L85.102,717.134L85.107,717.194L85.331,718.03L85.697,718.815L86.193,719.521L86.805,720.133L87.514,720.629L88.296,720.995L89.133,721.219L89.994,721.295L90.856,721.219L91.689,720.995L92.475,720.629L93.183,720.133L93.796,719.521L94.181,718.972L94.292,718.815L94.654,718.03L94.878,717.194L94.955,716.335L94.878,715.473L94.654,714.637L94.292,713.854L94.181,713.697L93.796,713.146L93.183,712.534L92.475,712.037L91.689,711.672L90.856,711.448L89.994,711.374L89.133,711.448L88.296,711.672L87.514,712.037L86.805,712.534L86.193,713.146L85.697,713.854L85.331,714.637L85.107,715.473L85.034,716.335Z" style="fill:none;fill-rule:nonzero;stroke:rgb(13,40,242);stroke-width:1px;"/>
    </g>
</svg>
