0
SECTION
2
HEADER
9
$INSUNITS
70
4
9
$ACADVER
1
AC1014
9
$HANDSEED
5
FFFF
0
ENDSEC
0
SECTION
2
TABLES
0
TABLE
2
VPORT
5
8
100
AcDbSymbolTable
0
ENDTAB
0
TABLE
2
LTYPE
5
5
100
AcDbSymbolTable
0
LTYPE
5
14
100
AcDbSymbolTableRecord
100
AcDbLinetypeTableRecord
2
BYBLOCK
70
0
0
LTYPE
5
15
100
AcDbSymbolTableRecord
100
AcDbLinetypeTableRecord
2
BYLAYER
70
0
0
ENDTAB
0
TABLE
2
LAYER
5
2
100
AcDbSymbolTable
70
2
0
LAYER
5
50
100
AcDbSymbolTableRecord
100
AcDbLayerTableRecord
2
0
70
0
6
CONTINUOUS
0
ENDTAB
0
TABLE
2
STYLE
5
3
100
AcDbSymbolTable
70
1
0
STYLE
5
11
100
AcDbSymbolTableRecord
100
AcDbTextStyleTableRecord
2
STANDARD
70
0
0
ENDTAB
0
TABLE
2
VIEW
5
6
100
AcDbSymbolTable
70
0
0
ENDTAB
0
TABLE
2
UCS
5
7
100
AcDbSymbolTable
70
0
0
ENDTAB
0
TABLE
2
APPID
5
9
100
AcDbSymbolTable
70
2
0
APPID
5
12
100
AcDbSymbolTableRecord
100
AcDbRegAppTableRecord
2
ACAD
70
0
0
ENDTAB
0
TABLE
2
DIMSTYLE
5
A
100
AcDbSymbolTable
70
1
0
ENDTAB
0
TABLE
2
BLOCK_RECORD
5
1
100
AcDbSymbolTable
70
1
0
BLOCK_RECORD
5
1F
100
AcDbSymbolTableRecord
100
AcDbBlockTableRecord
2
*MODEL_SPACE
0
BLOCK_RECORD
5
1B
100
AcDbSymbolTableRecord
100
AcDbBlockTableRecord
2
*PAPER_SPACE
0
ENDTAB
0
ENDSEC
0
SECTION
2
BLOCKS
0
BLOCK
5
20
100
AcDbEntity
100
AcDbBlockBegin
2
*MODEL_SPACE
0
ENDBLK
5
21
100
AcDbEntity
100
AcDbBlockEnd
0
BLOCK
5
1C
100
AcDbEntity
100
AcDbBlockBegin
2
*PAPER_SPACE
0
ENDBLK
5
1D
100
AcDbEntity
100
AcDbBlockEnd
0
ENDSEC
0
SECTION
2
ENTITIES
0
CIRCLE
5
100
100
AcDbEntity
8
0
100
AcDbCircle
10
-15.899742475457455
20
-310.74210093174833
30
0
40
1.2000000000000099
210
0
220
-0
230
1
0
CIRCLE
5
101
100
AcDbEntity
8
0
100
AcDbCircle
10
-29.159620890058669
20
-164.71892663173031
30
0
40
1.749999999999998
210
0
220
-0
230
1
0
CIRCLE
5
102
100
AcDbEntity
8
0
100
AcDbCircle
10
-54.499999999999972
20
-174.95878296843733
30
0
40
1.749999999999998
210
0
220
-0
230
1
0
CIRCLE
5
103
100
AcDbEntity
8
0
100
AcDbCircle
10
-155.15962089005822
20
-100.71892663173065
30
0
40
1.7500000000000246
210
0
220
-0
230
1
0
CIRCLE
5
104
100
AcDbEntity
8
0
100
AcDbCircle
10
-29.159620890058704
20
-100.71892663173058
30
0
40
1.750000000000016
210
0
220
-0
230
1
0
CIRCLE
5
105
100
AcDbEntity
8
0
100
AcDbCircle
10
-54.5
20
-280.69756952165267
30
0
40
1.749999999999998
210
0
220
-0
230
1
0
CIRCLE
5
106
100
AcDbEntity
8
0
100
AcDbCircle
10
-129.5
20
-174.95878296843733
30
0
40
1.7500000000000071
210
0
220
-0
230
1
0
CIRCLE
5
107
100
AcDbEntity
8
0
100
AcDbCircle
10
-168.29974247545692
20
-310.74210093174821
30
0
40
1.2000000000000011
210
0
220
-0
230
1
0
CIRCLE
5
108
100
AcDbEntity
8
0
100
AcDbCircle
10
-129.5
20
-280.69756952165267
30
0
40
1.7500000000000071
210
0
220
-0
230
1
0
LWPOLYLINE
5
109
100
AcDbEntity
8
0
100
AcDbPolyline
90
8
70
1
43
0.0
10
-33.599742475456949
20
-287.98370430880613
10
-161.59974247545694
20
-287.98370430880607
42
0.41421356237310841
10
-164.70813909839876
20
-291.09210093174789
10
-164.70813909839879
20
-317.09210093174784
42
0.41421356237308499
10
-161.59974247545694
20
-320.20049755468966
10
-33.599742475456949
20
-320.2004975546896
42
0.41421356237309837
10
-30.491345852515135
20
-317.09210093174784
10
-30.49134585251517
20
-291.09210093174789
42
0.41421356237309465
0
LINE
5
110
100
AcDbEntity
8
0
100
AcDbLine
10
-133.49999999999997
20
-175.7758554099849
30
0
11
-133.5
21
-176.73711710592318
31
0
0
ELLIPSE
5
111
100
AcDbEntity
8
0
100
AcDbEllipse
10
-131.5
20
-176.73711710592323
30
0
11
-2.0000000000000009
21
2.8891397606982793e-14
31
0.0
40
0.96126169593832089
41
0
42
1.5707962732050955
0
LINE
5
112
100
AcDbEntity
8
0
100
AcDbLine
10
-131.50000010717963
20
-178.65964049779987
30
0
11
-52.499999999999986
21
-178.65964049779987
31
0
0
ELLIPSE
5
113
100
AcDbEntity
8
0
100
AcDbEllipse
10
-52.500000000000007
20
-176.73711710592323
30
0
11
2.0000000000000009
21
9.0086013637971317e-15
31
0.0
40
0.96126169593832089
41
4.7123889803847003
42
6.2831853071795436
0
LINE
5
114
100
AcDbEntity
8
0
100
AcDbLine
10
-50.500000000000007
20
-176.73711710592326
30
0
11
-50.499999999999986
21
-175.77585540998487
31
0
0
ELLIPSE
5
115
100
AcDbEntity
8
0
100
AcDbEllipse
10
-48.5
20
-175.7758554099849
30
0
11
-2.0000000000000009
21
3.3160257077066591e-14
31
0.0
40
0.961261695938321
41
4.7123889803847039
42
6.2831853071796004
0
LINE
5
116
100
AcDbEntity
8
0
100
AcDbLine
10
-48.499999999999986
20
-173.85333201810826
30
0
11
-15.599999999999969
21
-173.85333201810829
31
0
0
ELLIPSE
5
117
100
AcDbEntity
8
0
100
AcDbEllipse
10
-15.599999999999985
20
-174.81459371404662
30
0
11
1.0000000000000011
21
2.3738595215448085e-14
31
0.0
40
0.961261695938321
41
5.6843418860807914e-14
42
1.5707963267948575
0
LINE
5
118
100
AcDbEntity
8
0
100
AcDbLine
10
-14.599999999999984
20
-174.81459371404654
30
0
11
-14.599999999999973
21
-276.9967119922901
31
0
0
ELLIPSE
5
119
100
AcDbEntity
8
0
100
AcDbEllipse
10
-15.599999999999968
20
-276.9967119922901
30
0
11
1.0000000000000016
21
-2.2521503409492861e-15
31
0.0
40
0.96126169593832089
41
4.7123889803846897
42
6.2831853071795862
0
LINE
5
120
100
AcDbEntity
8
0
100
AcDbLine
10
-15.599999999999968
20
-277.95797368822838
30
0
11
-168.40000000000001
21
-277.95797368822838
31
0
0
ELLIPSE
5
121
100
AcDbEntity
8
0
100
AcDbEllipse
10
-168.40000000000001
20
-276.9967119922901
30
0
11
-0.99999999999999556
21
6.8423394793528985e-17
31
0.0
40
0.96126169593832111
41
0
42
1.5707963267948966
0
LINE
5
122
100
AcDbEntity
8
0
100
AcDbLine
10
-169.39999999999998
20
-276.9967119922901
30
0
11
-169.39999999999998
21
-174.81459371404657
31
0
0
ELLIPSE
5
123
100
AcDbEntity
8
0
100
AcDbEllipse
10
-168.40000000000001
20
-174.81459371404662
30
0
11
-0.99999999999998757
21
0
31
0.0
40
0.96126169593832111
41
4.7123889267949313
42
6.2831853071795294
0
LINE
5
124
100
AcDbEntity
8
0
100
AcDbLine
10
-168.39999994641022
20
-173.85333201810829
30
0
11
-135.49999999999997
21
-173.85333201810826
31
0
0
ELLIPSE
5
125
100
AcDbEntity
8
0
100
AcDbEllipse
10
-135.49999999999997
20
-175.7758554099849
30
0
11
2.0000000000000009
21
2.3544121181476427e-16
31
0.0
40
0.961261695938321
41
0
42
1.5707963267948966
0
CIRCLE
5
126
100
AcDbEntity
8
0
100
AcDbCircle
10
-155.15962089005819
20
-164.71892663173037
30
0
40
1.7500000000000071
210
0
220
-0
230
1
0
LWPOLYLINE
5
127
100
AcDbEntity
8
0
100
AcDbPolyline
90
24
70
1
43
0.0
10
-32.766155256858696
20
-162.02775841063033
42
-0.4142135623730957
10
-34.76615525685866
20
-164.0277584106303
10
-49.266155256858596
20
-164.02775841063033
42
0.41421356237309637
10
-51.266155256858596
20
-166.02775841063033
10
-51.266155256858553
20
-166.5277584106303
42
-0.41421356237309892
10
-53.266155256858603
20
-168.52775841063033
10
-106.26615525685841
20
-168.52775841063027
42
-0.41421356237307161
10
-108.2661552568584
20
-166.52775841063033
10
-108.2661552568584
20
-166.02775841063036
42
0.41421356237309509
10
-110.2661552568584
20
-164.02775841063036
10
-148.76615525685827
20
-164.02775841063038
42
-0.41421356237309509
10
-150.76615525685827
20
-162.02775841063041
10
-150.76615525685827
20
-103.52775841063067
42
-0.41421356237309243
10
-148.7661552568583
20
-101.52775841063068
10
-101.26615525685848
20
-101.52775841063067
42
0.41421356237309509
10
-99.266155256858468
20
-99.527758410630653
10
-99.266155256858454
20
-99.027758410630639
42
-0.41421356237309509
10
-97.266155256858454
20
-97.027758410630653
10
-68.266155256858582
20
-97.027758410630611
42
-0.41421356237309243
10
-66.26615525685861
20
-99.027758410630611
10
-66.266155256858625
20
-99.527758410630611
42
0.41421356237309509
10
-64.266155256858596
20
-101.52775841063064
10
-34.766155256858688
20
-101.52775841063061
42
-0.41421356237308854
10
-32.766155256858703
20
-103.52775841063061
0
CIRCLE
5
128
100
AcDbEntity
8
0
100
AcDbCircle
10
-168.29974247545692
20
-297.44210093174752
30
0
40
1.2000000000000011
210
0
220
-0
230
1
0
CIRCLE
5
129
100
AcDbEntity
8
0
100
AcDbCircle
10
-15.899742475457455
20
-297.44210093174689
30
0
40
1.2000000000000099
210
0
220
-0
230
1
0
LWPOLYLINE
5
130
100
AcDbEntity
8
0
100
AcDbPolyline
90
8
70
1
43
0.0
10
-184.14999999999998
20
-2.5
42
-0.41421356237310203
10
-181.64999999999998
20
-2.7755575615628914e-16
10
-2.5
20
0
42
-0.41421356237309492
10
0
20
-2.5
10
2.4424906541753444e-14
20
-327.70000000000005
42
-0.41421356237309787
10
-2.5
20
-330.20000000000005
10
-181.64999999999998
20
-330.2000000000001
42
-0.41421356237310752
10
-184.14999999999998
20
-327.70000000000005
0
CIRCLE
5
131
100
AcDbEntity
8
0
100
AcDbCircle
10
-6.9999999999999929
20
-6.9999999999999929
30
0
40
1.5874999999999995
210
0
220
-0
230
1
0
CIRCLE
5
132
100
AcDbEntity
8
0
100
AcDbCircle
10
-6.9999999999999929
20
-323.19999999999999
30
0
40
1.5874999999999995
210
0
220
-0
230
1
0
CIRCLE
5
133
100
AcDbEntity
8
0
100
AcDbCircle
10
-177.15000000000001
20
-6.9999999999999929
30
0
40
1.5875000000000126
210
0
220
-0
230
1
0
CIRCLE
5
134
100
AcDbEntity
8
0
100
AcDbCircle
10
-177.15000000000001
20
-323.19999999999999
30
0
40
1.5875000000000126
210
0
220
-0
230
1
0
LWPOLYLINE
5
135
100
AcDbEntity
8
0
100
AcDbPolyline
90
4
70
1
43
0.0
10
-12.699999999999996
20
-41.815258410630634
10
-171.44999999999999
20
-41.815258410630634
10
-171.44999999999999
20
-91.027758410630668
10
-12.699999999999999
20
-91.027758410630668
0
ENDSEC
0
SECTION
2
OBJECTS
0
DICTIONARY
5
C
100
AcDbDictionary
3
ACAD_GROUP
350
D
3
ACAD_MLINESTYLE
350
17
0
DICTIONARY
5
D
100
AcDbDictionary
0
DICTIONARY
5
1A
330
C
100
AcDbDictionary
0
DICTIONARY
5
17
100
AcDbDictionary
0
ENDSEC
0
EOF
