<?xml version="1.0" standalone="no"?>
<!DOCTYPE svg PUBLIC "-//W3C//DTD SVG 1.1//EN"
  "http://www.w3.org/Graphics/SVG/1.1/DTD/svg11.dtd">
<svg width="189.3300018310547mm" height="354.4259948730469mm" viewBox="-94.66500091552734 -177.21299743652344 189.3300018310547 354.4259948730469" xmlns="http://www.w3.org/2000/svg" version="1.1">
	<title>svgOutput</title>
	<desc>made with tinkercad</desc>
<path d="M -93.66500091552734 176.21299743652344 L -93.66500091552734 172.03199768066406 L -93.66500091552734 163.83999633789062 L -93.66500091552734 131.07200622558594 L -93.66500091552734 117.82676696777344 L -93.66500091552734 107.31664276123047 L -93.66500091552734 100.95099639892578 L -93.66500091552734 96.40095520019531 L -93.66500091552734 92.7579574584961 L -93.66500091552734 89.61255645751953 L -93.66500091552734 86.65491485595703 L -93.66500091552734 85.18499755859375 L -93.66500091552734 65.53600311279297 L -93.66500091552734 2.3589999675750732 L -93.66500091552734 1.1102230246251565e-16 L -93.66500091552734 -65.53600311279297 L -93.66500091552734 -98.30400085449219 L -93.66500091552734 -101.74500274658203 L -93.66500091552734 -114.68800354003906 L -93.66500091552734 -131.07200622558594 L -93.66500091552734 -139.26400756835938 L -93.66500091552734 -147.45599365234375 L -93.66500091552734 -163.83999633789062 L -93.66500091552734 -176.21299743652344 L -65.53600311279297 -176.21299743652344 L -61.584999084472656 -176.21299743652344 L 0 -176.21299743652344 L 65.53600311279297 -176.21299743652344 L 93.66500091552734 -176.21299743652344 L 93.66500091552734 -163.83999633789062 L 93.66500091552734 -147.45599365234375 L 93.66500091552734 -139.26400756835938 L 93.66500091552734 -131.07200622558594 L 93.66500091552734 -114.68800354003906 L 93.66500091552734 -98.30400085449219 L 93.66500091552734 -65.53600311279297 L 93.66500091552734 1.1102230246251565e-16 L 93.66500091552734 0.963988482952118 L 93.66500091552734 65.53600311279297 L 93.66500091552734 85.18499755859375 L 93.66500091552734 131.07200622558594 L 93.66500091552734 163.83999633789062 L 93.66500091552734 172.03199768066406 L 93.66500091552734 176.21299743652344 L 81.91999816894531 176.21299743652344 L 79.37699890136719 176.21299743652344 L 65.53600311279297 176.21299743652344 L 0 176.21299743652344 L -65.53600311279297 176.21299743652344 L -81.91999816894531 176.21299743652344 L -93.66500091552734 176.21299743652344 M 41.42599868774414 -0.524999976158142 L 41.42599868774414 1.1102230246251565e-16 L 41.42599868774414 0.43700000643730175 L 41.45600128173828 0.7699999809265138 L 41.547000885009766 1.093999981880188 L 41.694000244140625 1.3980000019073486 L 41.89400100708008 1.6720000505447388 L 42.14099884033203 1.909000039100647 L 42.42599868774414 2.1019999980926514 L 42.742000579833984 2.243000030517578 L 43.07899856567383 2.3299999237060547 L 43.42599868774414 2.3589999675750732 L 49.152000427246094 2.3589999675750732 L 65.53600311279297 2.3589999675750732 L 76.3270034790039 2.3589999675750732 L 76.5009994506836 2.3450000286102295 L 76.66899871826172 2.3010001182556152 L 76.8270034790039 2.2300000190734863 L 76.97000122070312 2.134000062942505 L 77.09300231933594 2.0160000324249268 L 77.19300079345703 1.878999948501587 L 77.26699829101562 1.7269999980926514 L 77.31199645996094 1.565000057220459 L 77.3270034790039 1.3980000019073486 L 77.3270034790039 1.1102230246251565e-16 L 77.3270034790039 -65.53600311279297 L 77.3270034790039 -98.30400085449219 L 77.3270034790039 -100.78399658203125 L 77.31199645996094 -100.95099639892578 L 77.26699829101562 -101.11299896240234 L 77.19300079345703 -101.26499938964844 L 77.09300231933594 -101.4020004272461 L 76.97000122070312 -101.52100372314453 L 76.8270034790039 -101.61699676513672 L 76.66899871826172 -101.68800354003906 L 76.5009994506836 -101.73100280761719 L 76.3270034790039 -101.74500274658203 L 65.53600311279297 -101.74500274658203 L 49.152000427246094 -101.74500274658203 L 40.959999084472656 -101.74500274658203 L 32.768001556396484 -101.74500274658203 L 0 -101.74500274658203 L -32.768001556396484 -101.74500274658203 L -40.959999084472656 -101.74500274658203 L -49.152000427246094 -101.74500274658203 L -60.441768646240234 -101.74500274658203 L -65.53600311279297 -101.74500274658203 L -76.47699737548828 -101.74500274658203 L -76.6510009765625 -101.73100280761719 L -76.81900024414062 -101.68800354003906 L -76.97699737548828 -101.61699676513672 L -77.12000274658203 -101.52100372314453 L -77.24299621582031 -101.4020004272461 L -77.34300231933594 -101.26499938964844 L -77.41699981689453 -101.11299896240234 L -77.46199798583984 -100.95099639892578 L -77.47699737548828 -100.78399658203125 L -77.47699737548828 -98.30400085449219 L -77.47699737548828 -65.53600311279297 L -77.47699737548828 1.1102230246251565e-16 L -77.47699737548828 1.3980000019073486 L -77.46199798583984 1.565000057220459 L -77.41699981689453 1.7269999980926514 L -77.34300231933594 1.878999948501587 L -77.24299621582031 2.0160000324249268 L -77.12000274658203 2.134000062942505 L -76.97699737548828 2.2300000190734863 L -76.81900024414062 2.3010001182556152 L -76.6510009765625 2.3450000286102295 L -76.47699737548828 2.3589999675750732 L -65.53600311279297 2.3589999675750732 L -49.152000427246094 2.3589999675750732 L -43.57600021362305 2.3589999675750732 L -43.229000091552734 2.3299999237060547 L -42.891998291015625 2.243000030517578 L -42.57600021362305 2.1019999980926514 L -42.29100036621094 1.909000039100647 L -42.04399871826172 1.6720000505447388 L -41.84400177001953 1.3980000019073486 L -41.696998596191406 1.093999981880188 L -41.606998443603516 0.7699999809265138 L -41.57600021362305 0.43700000643730175 L -41.57600021362305 1.1102230246251565e-16 L -41.57600021362305 -0.524999976158142 L -41.54600143432617 -0.8579999804496764 L -41.45500183105469 -1.1820000410079956 L -41.30799865722656 -1.4859999418258667 L -41.108001708984375 -1.7599999904632568 L -40.959999084472656 -1.9025853872299194 L -40.86199951171875 -1.996999979019165 L -40.57600021362305 -2.190000057220459 L -40.2599983215332 -2.3310000896453857 L -39.92300033569336 -2.4179999828338623 L -39.57600021362305 -2.447000026702881 L -36.340999603271484 -2.447000026702881 L -32.768001556396484 -2.447000026702881 L 0 -2.447000026702881 L 32.768001556396484 -2.447000026702881 L 36.86399841308594 -2.447000026702881 L 39.42599868774414 -2.447000026702881 L 39.77299880981445 -2.4179999828338623 L 40.11000061035156 -2.3310000896453857 L 40.42599868774414 -2.190000057220459 L 40.71200180053711 -1.996999979019165 L 40.95800018310547 -1.7599999904632568 L 40.959999084472656 -1.7572599649429321 L 41.15800094604492 -1.4859999418258667 L 41.30500030517578 -1.1820000410079956 L 41.395999908447266 -0.8579999804496764 L 41.42599868774414 -0.524999976158142 M 16.191999435424805 10.1850004196167 L 16.191999435424805 9.6850004196167 L 16.160999298095703 9.336999893188477 L 16.09851837158203 9.103737831115723 L 16.070999145507812 9.00100040435791 L 15.923999786376953 8.6850004196167 L 15.723999977111816 8.39900016784668 L 15.47700023651123 8.152999877929688 L 15.192000389099121 7.953000068664551 L 14.87600040435791 7.804999828338623 L 14.538999557495117 7.715000152587891 L 14.192000389099121 7.684999942779541 L 0 7.684999942779541 L -32.768001556396484 7.684999942779541 L -38.810001373291016 7.684999942779541 L -39.15700149536133 7.715000152587891 L -39.49399948120117 7.804999828338623 L -39.810001373291016 7.953000068664551 L -40.095001220703125 8.152999877929688 L -40.134159088134766 8.192000389099121 L -40.34199905395508 8.39900016784668 L -40.54199981689453 8.6850004196167 L -40.68899917602539 9.00100040435791 L -40.779998779296875 9.336999893188477 L -40.810001373291016 9.6850004196167 L -40.810001373291016 10.1850004196167 L -40.84000015258789 10.531999588012695 L -40.930999755859375 10.869000434875488 L -41.077999114990234 11.1850004196167 L -41.27799987792969 11.470000267028809 L -41.52399826049805 11.717000007629395 L -41.810001373291016 11.916999816894531 L -42.125999450683594 12.064000129699707 L -42.4630012512207 12.154000282287598 L -42.810001373291016 12.1850004196167 L -44.14339065551758 12.1850004196167 L -49.152000427246094 12.1850004196167 L -57.310001373291016 12.1850004196167 L -57.34400177001953 12.187931060791016 L -57.65800094604492 12.21500015258789 L -57.93053436279297 12.288000106811523 L -57.99399948120117 12.305000305175781 L -58.310001373291016 12.45300006866455 L -58.59600067138672 12.652999877929688 L -58.84299850463867 12.89900016784668 L -59.04199981689453 13.1850004196167 L -59.189998626708984 13.50100040435791 L -59.279998779296875 13.836999893188477 L -59.310001373291016 14.1850004196167 L -59.310001373291016 16.384000778198242 L -59.310001373291016 32.768001556396484 L -59.310001373291016 65.53600311279297 L -59.310001373291016 72.68499755859375 L -59.279998779296875 73.03199768066406 L -59.189998626708984 73.36900329589844 L -59.04199981689453 73.68499755859375 L -59.0119743347168 73.72799682617188 L -58.84299850463867 73.97000122070312 L -58.59600067138672 74.21700286865234 L -58.310001373291016 74.41699981689453 L -57.99399948120117 74.56400299072266 L -57.65800094604492 74.65399932861328 L -57.34400177001953 74.68196868896484 L -57.310001373291016 74.68499755859375 L -49.152000427246094 74.68499755859375 L -32.768001556396484 74.68499755859375 L -27.809999465942383 74.68499755859375 L -27.461999893188477 74.71499633789062 L -27.125999450683594 74.80500030517578 L -26.809999465942383 74.9530029296875 L -26.52400016784668 75.15299987792969 L -26.277000427246094 75.39900207519531 L -26.07699966430664 75.68499755859375 L -25.93000030517578 76.0009994506836 L -25.90865707397461 76.08068084716797 L -25.84000015258789 76.33699798583984 L -25.809999465942383 76.68499755859375 L -25.809999465942383 77.18499755859375 L -25.77899932861328 77.53199768066406 L -25.716955184936523 77.76432800292969 L -25.701017379760742 77.8239974975586 L -25.68899917602539 77.86900329589844 L -25.54199981689453 78.18499755859375 L -25.341999053955078 78.47000122070312 L -25.094999313354492 78.71700286865234 L -24.809999465942383 78.91699981689453 L -24.576000213623047 79.0258560180664 L -24.493999481201172 79.06400299072266 L -24.156999588012695 79.15399932861328 L -23.80900001525879 79.18499755859375 L -16.384000778198242 79.18499755859375 L 0 79.18499755859375 L 5.190999984741211 79.18499755859375 L 5.539000034332275 79.15399932861328 L 5.875 79.06400299072266 L 6.190999984741211 78.91699981689453 L 6.4770002365112305 78.71700286865234 L 6.7230000495910645 78.47000122070312 L 6.922999858856201 78.18499755859375 L 7.071000099182129 77.86900329589844 L 7.083017826080322 77.8239974975586 L 7.160999774932861 77.53199768066406 L 7.190999984741211 77.18499755859375 L 7.190999984741211 76.68499755859375 L 7.2220001220703125 76.33699798583984 L 7.311999797821045 76.0009994506836 L 7.459000110626221 75.68499755859375 L 7.658999919891357 75.39900207519531 L 7.906000137329102 75.15299987792969 L 8.190999984741211 74.9530029296875 L 8.192000389099121 74.95252990722656 L 8.506999969482422 74.80500030517578 L 8.843999862670898 74.71499633789062 L 9.190999984741211 74.68499755859375 L 16.384000778198242 74.68499755859375 L 32.768001556396484 74.68499755859375 L 49.152000427246094 74.68499755859375 L 56.69300079345703 74.68499755859375 L 57.040000915527344 74.65399932861328 L 57.34400177001953 74.57281494140625 L 57.37699890136719 74.56400299072266 L 57.69300079345703 74.41699981689453 L 57.97800064086914 74.21700286865234 L 58.224998474121094 73.97000122070312 L 58.39482498168945 73.72799682617188 L 58.42499923706055 73.68499755859375 L 58.571998596191406 73.36900329589844 L 58.6619987487793 73.03199768066406 L 58.69300079345703 72.68499755859375 L 58.69300079345703 65.53600311279297 L 58.69300079345703 32.768001556396484 L 58.69300079345703 16.384000778198242 L 58.69300079345703 14.1850004196167 L 58.6619987487793 13.836999893188477 L 58.571998596191406 13.50100040435791 L 58.42499923706055 13.1850004196167 L 58.224998474121094 12.89900016784668 L 57.97800064086914 12.652999877929688 L 57.69300079345703 12.45300006866455 L 57.37699890136719 12.305000305175781 L 57.34400177001953 12.296187400817871 L 57.040000915527344 12.21500015258789 L 56.69300079345703 12.1850004196167 L 49.152000427246094 12.1850004196167 L 32.768001556396484 12.1850004196167 L 18.191999435424805 12.1850004196167 L 17.8439998626709 12.154000282287598 L 17.507999420166016 12.064000129699707 L 17.191999435424805 11.916999816894531 L 16.9060001373291 11.717000007629395 L 16.65999984741211 11.470000267028809 L 16.459999084472656 11.1850004196167 L 16.384000778198242 11.022729873657227 L 16.312000274658203 10.869000434875488 L 16.290199279785156 10.787369728088379 L 16.222000122070312 10.531999588012695 L 16.191999435424805 10.1850004196167 M -75.76699829101562 -122.35700225830078 L -75.7760009765625 -122.35940551757812 L -75.96900177001953 -122.41100311279297 L -76.177001953125 -122.43000030517578 L -76.38600158691406 -122.41100311279297 L -76.58799743652344 -122.35700225830078 L -76.7770004272461 -122.26899719238281 L -76.9489974975586 -122.14900207519531 L -77.09700012207031 -122.0009994506836 L -77.21700286865234 -121.83000183105469 L -77.30500030517578 -121.63999938964844 L -77.35900115966797 -121.43800354003906 L -77.37699890136719 -121.2300033569336 L -77.35900115966797 -121.02100372314453 L -77.3084716796875 -120.83200073242188 L -77.30500030517578 -120.81900024414062 L -77.21700286865234 -120.62999725341797 L -77.09700012207031 -120.45800018310547 L -76.9489974975586 -120.30999755859375 L -76.7770004272461 -120.19000244140625 L -76.58799743652344 -120.10199737548828 L -76.38600158691406 -120.0479965209961 L -76.177001953125 -120.02999877929688 L -75.96900177001953 -120.0479965209961 L -75.76699829101562 -120.10199737548828 L -75.5770034790039 -120.19000244140625 L -75.40599822998047 -120.30999755859375 L -75.25800323486328 -120.45800018310547 L -75.13800048828125 -120.62999725341797 L -75.05000305175781 -120.81900024414062 L -75.04646301269531 -120.83200073242188 L -74.99500274658203 -121.02100372314453 L -74.97699737548828 -121.2300033569336 L -74.99500274658203 -121.43800354003906 L -75.05000305175781 -121.63999938964844 L -75.13800048828125 -121.83000183105469 L -75.25800323486328 -122.0009994506836 L -75.40599822998047 -122.14900207519531 L -75.5770034790039 -122.26899719238281 L -75.76699829101562 -122.35700225830078 M -37.27199935913086 -102.76200103759766 L -36.97700119018555 -102.84100341796875 L -36.86399841308594 -102.89381408691406 L -36.70100021362305 -102.97000122070312 L -36.45100021362305 -103.1449966430664 L -36.23500061035156 -103.36000061035156 L -36.060001373291016 -103.61000061035156 L -35.93199920654297 -103.88700103759766 L -35.85300064086914 -104.18099975585938 L -35.82600021362305 -104.48500061035156 L -35.85300064086914 -104.78900146484375 L -35.93199920654297 -105.08399963378906 L -36.060001373291016 -105.36000061035156 L -36.23500061035156 -105.61000061035156 L -36.45100021362305 -105.82599639892578 L -36.70100021362305 -106.0009994506836 L -36.86399841308594 -106.07718658447266 L -36.97700119018555 -106.12999725341797 L -37.27199935913086 -106.20899963378906 L -37.57600021362305 -106.23500061035156 L -37.880001068115234 -106.20899963378906 L -38.17499923706055 -106.12999725341797 L -38.45100021362305 -106.0009994506836 L -38.70100021362305 -105.82599639892578 L -38.91699981689453 -105.61000061035156 L -39.09199905395508 -105.36000061035156 L -39.22100067138672 -105.08399963378906 L -39.29899978637695 -104.78900146484375 L -39.32600021362305 -104.48500061035156 L -39.32271194458008 -104.447998046875 L -39.29899978637695 -104.18099975585938 L -39.22100067138672 -103.88700103759766 L -39.09199905395508 -103.61000061035156 L -38.91699981689453 -103.36000061035156 L -38.70100021362305 -103.1449966430664 L -38.45100021362305 -102.97000122070312 L -38.17499923706055 -102.84100341796875 L -37.880001068115234 -102.76200103759766 L -37.57600021362305 -102.73500061035156 L -37.27199935913086 -102.76200103759766 M -38.70100021362305 -0.08699999749660481 L -38.78799819946289 1.1102230246251565e-16 L -38.91699981689453 0.1289999932050706 L -39.09199905395508 0.3790000081062318 L -39.22100067138672 0.6549999713897706 L -39.29899978637695 0.9499999880790712 L -39.32600021362305 1.253999948501587 L -39.29899978637695 1.5579999685287476 L -39.22100067138672 1.8519999980926514 L -39.129722595214844 2.0480000972747803 L -39.09199905395508 2.128999948501587 L -38.91699981689453 2.378999948501587 L -38.70100021362305 2.5940001010894775 L -38.45100021362305 2.7690000534057617 L -38.17499923706055 2.8980000019073486 L -37.880001068115234 2.9769999980926514 L -37.57600021362305 3.003999948501587 L -37.27199935913086 2.9769999980926514 L -36.97700119018555 2.8980000019073486 L -36.86399841308594 2.845184803009033 L -36.70100021362305 2.7690000534057617 L -36.45100021362305 2.5940001010894775 L -36.23500061035156 2.378999948501587 L -36.060001373291016 2.128999948501587 L -35.93199920654297 1.8519999980926514 L -35.85300064086914 1.5579999685287476 L -35.82600021362305 1.253999948501587 L -35.85300064086914 0.9499999880790712 L -35.93199920654297 0.6549999713897706 L -36.060001373291016 0.3790000081062318 L -36.23500061035156 0.1289999932050706 L -36.36399841308594 1.1102230246251565e-16 L -36.45100021362305 -0.08699999749660481 L -36.70100021362305 -0.26199999451637257 L -36.97700119018555 -0.39100000262260426 L -37.27199935913086 -0.469999998807907 L -37.57600021362305 -0.4959999918937682 L -37.880001068115234 -0.469999998807907 L -38.17499923706055 -0.39100000262260426 L -38.45100021362305 -0.26199999451637257 L -38.70100021362305 -0.08699999749660481 M -86.29299926757812 -145.9669952392578 L -86.0979995727539 -145.77099609375 L -86.01599884033203 -145.71392822265625 L -85.87100219726562 -145.61300659179688 L -85.62000274658203 -145.49600219726562 L -85.35299682617188 -145.4239959716797 L -85.0770034790039 -145.39999389648438 L -84.802001953125 -145.4239959716797 L -84.53399658203125 -145.49600219726562 L -84.28399658203125 -145.61300659179688 L -84.05699920654297 -145.77099609375 L -83.86100006103516 -145.9669952392578 L -83.7020034790039 -146.19400024414062 L -83.58499908447266 -146.44500732421875 L -83.51399993896484 -146.71200561523438 L -83.48999786376953 -146.98800659179688 L -83.51399993896484 -147.26300048828125 L -83.56532287597656 -147.45599365234375 L -83.58499908447266 -147.52999877929688 L -83.7020034790039 -147.781005859375 L -83.86100006103516 -148.00799560546875 L -84.05699920654297 -148.20399475097656 L -84.28399658203125 -148.36199951171875 L -84.53399658203125 -148.47900390625 L -84.802001953125 -148.55099487304688 L -85.0770034790039 -148.5749969482422 L -85.35299682617188 -148.55099487304688 L -85.62000274658203 -148.47900390625 L -85.87100219726562 -148.36199951171875 L -86.0979995727539 -148.20399475097656 L -86.29299926757812 -148.00799560546875 L -86.4520034790039 -147.781005859375 L -86.56900024414062 -147.52999877929688 L -86.58895874023438 -147.45599365234375 L -86.64099884033203 -147.26300048828125 L -86.66500091552734 -146.98800659179688 L -86.64099884033203 -146.71200561523438 L -86.56900024414062 -146.44500732421875 L -86.4520034790039 -146.19400024414062 L -86.29299926757812 -145.9669952392578 M 61.96099853515625 10.152999877929688 L 61.8744010925293 10.239999771118164 L 61.74599838256836 10.369000434875488 L 61.57099914550781 10.619000434875488 L 61.44200134277344 10.895000457763672 L 61.439998626708984 10.90246868133545 L 61.362998962402344 11.1899995803833 L 61.33599853515625 11.494000434875488 L 61.362998962402344 11.79699993133545 L 61.439998626708984 12.084531784057617 L 61.44200134277344 12.092000007629395 L 61.53327941894531 12.288000106811523 L 61.57099914550781 12.369000434875488 L 61.74599838256836 12.618000030517578 L 61.96099853515625 12.833999633789062 L 62.21099853515625 13.008999824523926 L 62.487998962402344 13.137999534606934 L 62.78200149536133 13.217000007629395 L 63.08599853515625 13.244000434875488 L 63.38999938964844 13.217000007629395 L 63.685001373291016 13.137999534606934 L 63.96099853515625 13.008999824523926 L 64.21099853515625 12.833999633789062 L 64.427001953125 12.618000030517578 L 64.60199737548828 12.369000434875488 L 64.63972473144531 12.288000106811523 L 64.73100280761719 12.092000007629395 L 64.80999755859375 11.79699993133545 L 64.83599853515625 11.494000434875488 L 64.80999755859375 11.1899995803833 L 64.73100280761719 10.895000457763672 L 64.60199737548828 10.619000434875488 L 64.427001953125 10.369000434875488 L 64.2979965209961 10.239999771118164 L 64.21099853515625 10.152999877929688 L 63.96099853515625 9.977999687194824 L 63.685001373291016 9.848999977111816 L 63.38999938964844 9.770000457763672 L 63.08599853515625 9.744000434875488 L 62.78200149536133 9.770000457763672 L 62.487998962402344 9.848999977111816 L 62.21099853515625 9.977999687194824 L 61.96099853515625 10.152999877929688 M -75.96900177001953 -133.34800720214844 L -75.7760009765625 -133.39959716796875 L -75.76699829101562 -133.40199279785156 L -75.5770034790039 -133.49000549316406 L -75.40599822998047 -133.61000061035156 L -75.25800323486328 -133.75799560546875 L -75.13800048828125 -133.92999267578125 L -75.05000305175781 -134.11900329589844 L -74.99500274658203 -134.3209991455078 L -74.97699737548828 -134.52999877929688 L -74.99500274658203 -134.73800659179688 L -75.05000305175781 -134.94000244140625 L -75.13800048828125 -135.1300048828125 L -75.16466522216797 -135.16799926757812 L -75.25800323486328 -135.30099487304688 L -75.40599822998047 -135.44900512695312 L -75.5770034790039 -135.56900024414062 L -75.76699829101562 -135.65699768066406 L -75.96900177001953 -135.71099853515625 L -76.177001953125 -135.72999572753906 L -76.38600158691406 -135.71099853515625 L -76.58799743652344 -135.65699768066406 L -76.7770004272461 -135.56900024414062 L -76.9489974975586 -135.44900512695312 L -77.09700012207031 -135.30099487304688 L -77.1903305053711 -135.16799926757812 L -77.21700286865234 -135.1300048828125 L -77.30500030517578 -134.94000244140625 L -77.35900115966797 -134.73800659179688 L -77.37699890136719 -134.52999877929688 L -77.35900115966797 -134.3209991455078 L -77.30500030517578 -134.11900329589844 L -77.21700286865234 -133.92999267578125 L -77.09700012207031 -133.75799560546875 L -76.9489974975586 -133.61000061035156 L -76.7770004272461 -133.49000549316406 L -76.58799743652344 -133.40199279785156 L -76.38600158691406 -133.34800720214844 L -76.177001953125 -133.3300018310547 L -75.96900177001953 -133.34800720214844 M 38.766998291015625 0.1289999932050706 L 38.63800048828125 1.1102230246251565e-16 L 38.55099868774414 -0.08699999749660481 L 38.30099868774414 -0.26199999451637257 L 38.025001525878906 -0.39100000262260426 L 37.72999954223633 -0.469999998807907 L 37.42599868774414 -0.4959999918937682 L 37.12200164794922 -0.469999998807907 L 36.86399841308594 -0.4009084701538085 L 36.82699966430664 -0.39100000262260426 L 36.55099868774414 -0.26199999451637257 L 36.30099868774414 -0.08699999749660481 L 36.2140007019043 1.1102230246251565e-16 L 36.084999084472656 0.1289999932050706 L 35.90999984741211 0.3790000081062318 L 35.78099822998047 0.6549999713897706 L 35.702999114990234 0.9499999880790712 L 35.67599868774414 1.253999948501587 L 35.702999114990234 1.5579999685287476 L 35.78099822998047 1.8519999980926514 L 35.90999984741211 2.128999948501587 L 36.084999084472656 2.378999948501587 L 36.30099868774414 2.5940001010894775 L 36.55099868774414 2.7690000534057617 L 36.82699966430664 2.8980000019073486 L 36.86399841308594 2.9079084396362305 L 37.12200164794922 2.9769999980926514 L 37.42599868774414 3.003999948501587 L 37.72999954223633 2.9769999980926514 L 38.025001525878906 2.8980000019073486 L 38.30099868774414 2.7690000534057617 L 38.55099868774414 2.5940001010894775 L 38.766998291015625 2.378999948501587 L 38.94200134277344 2.128999948501587 L 39.06999969482422 1.8519999980926514 L 39.14899826049805 1.5579999685287476 L 39.17599868774414 1.253999948501587 L 39.14899826049805 0.9499999880790712 L 39.06999969482422 0.6549999713897706 L 38.94200134277344 0.3790000081062318 L 38.766998291015625 0.1289999932050706 M 77.31099700927734 85.2229995727539 L 76.87699890136719 85.18499755859375 L 65.53600311279297 85.18499755859375 L 32.768001556396484 85.18499755859375 L 0 85.18499755859375 L -32.768001556396484 85.18499755859375 L -65.53600311279297 85.18499755859375 L -76.87699890136719 85.18499755859375 L -77.31099700927734 85.2229995727539 L -77.73200225830078 85.33599853515625 L -78.12699890136719 85.5199966430664 L -78.48400115966797 85.7699966430664 L -78.79199981689453 86.0780029296875 L -79.04199981689453 86.43499755859375 L -79.22599792480469 86.83000183105469 L -79.33899688720703 87.2509994506836 L -79.37699890136719 87.68499755859375 L -79.37699890136719 131.07200622558594 L -79.37699890136719 163.83999633789062 L -79.37699890136719 165.23500061035156 L -79.33899688720703 165.66900634765625 L -79.22599792480469 166.08999633789062 L -79.04199981689453 166.48500061035156 L -78.79199981689453 166.8419952392578 L -78.48400115966797 167.14999389648438 L -78.12699890136719 167.39999389648438 L -77.73200225830078 167.58399963378906 L -77.31099700927734 167.69700622558594 L -76.87699890136719 167.73500061035156 L -65.53600311279297 167.73500061035156 L 0 167.73500061035156 L 65.53600311279297 167.73500061035156 L 76.87699890136719 167.73500061035156 L 77.31099700927734 167.69700622558594 L 77.73200225830078 167.58399963378906 L 78.12699890136719 167.39999389648438 L 78.48400115966797 167.14999389648438 L 78.79199981689453 166.8419952392578 L 79.04199981689453 166.48500061035156 L 79.22599792480469 166.08999633789062 L 79.33899688720703 165.66900634765625 L 79.37699890136719 165.23500061035156 L 79.37699890136719 163.83999633789062 L 79.37699890136719 131.07200622558594 L 79.37699890136719 87.68499755859375 L 79.33899688720703 87.2509994506836 L 79.22599792480469 86.83000183105469 L 79.04199981689453 86.43499755859375 L 78.79199981689453 86.0780029296875 L 78.48400115966797 85.7699966430664 L 78.12699890136719 85.5199966430664 L 77.73200225830078 85.33599853515625 L 77.31099700927734 85.2229995727539 M -61.53799819946289 -141.41900634765625 L -61.584999084472656 -140.8800048828125 L -61.584999084472656 -131.07200622558594 L -61.584999084472656 -114.87999725341797 L -61.56829071044922 -114.68800354003906 L -61.53799819946289 -114.33999633789062 L -61.39799880981445 -113.81600189208984 L -61.16899871826172 -113.32499694824219 L -60.858001708984375 -112.88200378417969 L -60.474998474121094 -112.49800109863281 L -60.03099822998047 -112.18800354003906 L -59.540000915527344 -111.95899963378906 L -59.016998291015625 -111.81800079345703 L -58.47700119018555 -111.77100372314453 L -49.152000427246094 -111.77100372314453 L -32.768001556396484 -111.77100372314453 L 0 -111.77100372314453 L 32.768001556396484 -111.77100372314453 L 49.152000427246094 -111.77100372314453 L 65.53600311279297 -111.77100372314453 L 69.5270004272461 -111.77100372314453 L 70.06600189208984 -111.81800079345703 L 70.58999633789062 -111.95899963378906 L 71.08100128173828 -112.18800354003906 L 71.5250015258789 -112.49800109863281 L 71.90799713134766 -112.88200378417969 L 72.21900177001953 -113.32499694824219 L 72.447998046875 -113.81600189208984 L 72.58799743652344 -114.33999633789062 L 72.6182861328125 -114.68800354003906 L 72.63500213623047 -114.87999725341797 L 72.63500213623047 -122.87999725341797 L 72.63500213623047 -131.07200622558594 L 72.63500213623047 -139.26400756835938 L 72.63500213623047 -140.8800048828125 L 72.58799743652344 -141.41900634765625 L 72.447998046875 -141.9429931640625 L 72.21900177001953 -142.4340057373047 L 71.90799713134766 -142.8780059814453 L 71.5250015258789 -143.26100158691406 L 71.08100128173828 -143.57200622558594 L 70.58999633789062 -143.80099487304688 L 70.06600189208984 -143.9409942626953 L 69.5270004272461 -143.98800659179688 L 65.53600311279297 -143.98800659179688 L 0 -143.98800659179688 L -58.47700119018555 -143.98800659179688 L -59.016998291015625 -143.9409942626953 L -59.540000915527344 -143.80099487304688 L -60.03099822998047 -143.57200622558594 L -60.474998474121094 -143.26100158691406 L -60.858001708984375 -142.8780059814453 L -61.16899871826172 -142.4340057373047 L -61.39799880981445 -141.9429931640625 L -61.53799819946289 -141.41900634765625 M 61.44200134277344 74.8949966430664 L 61.439998626708984 74.9024658203125 L 61.362998962402344 75.19000244140625 L 61.33599853515625 75.49400329589844 L 61.362998962402344 75.7969970703125 L 61.439998626708984 76.08453369140625 L 61.44200134277344 76.09200286865234 L 61.57099914550781 76.36900329589844 L 61.74599838256836 76.61799621582031 L 61.96099853515625 76.83399963378906 L 62.21099853515625 77.00900268554688 L 62.487998962402344 77.13800048828125 L 62.78200149536133 77.21700286865234 L 63.08599853515625 77.24400329589844 L 63.38999938964844 77.21700286865234 L 63.487998962402344 77.19075775146484 L 63.685001373291016 77.13800048828125 L 63.96099853515625 77.00900268554688 L 64.21099853515625 76.83399963378906 L 64.427001953125 76.61799621582031 L 64.60199737548828 76.36900329589844 L 64.73100280761719 76.09200286865234 L 64.80999755859375 75.7969970703125 L 64.81180572509766 75.7760009765625 L 64.83599853515625 75.49400329589844 L 64.80999755859375 75.19000244140625 L 64.73100280761719 74.8949966430664 L 64.60199737548828 74.61900329589844 L 64.427001953125 74.36900329589844 L 64.21099853515625 74.15299987792969 L 63.96099853515625 73.97799682617188 L 63.685001373291016 73.8489990234375 L 63.487998962402344 73.7962417602539 L 63.38999938964844 73.7699966430664 L 63.08599853515625 73.74400329589844 L 62.78200149536133 73.7699966430664 L 62.487998962402344 73.8489990234375 L 62.21099853515625 73.97799682617188 L 61.96099853515625 74.15299987792969 L 61.74599838256836 74.36900329589844 L 61.57099914550781 74.61900329589844 L 61.44200134277344 74.8949966430664 M 36.55099868774414 -102.97000122070312 L 36.82699966430664 -102.84100341796875 L 36.86399841308594 -102.83109283447266 L 37.12200164794922 -102.76200103759766 L 37.42599868774414 -102.73500061035156 L 37.72999954223633 -102.76200103759766 L 38.025001525878906 -102.84100341796875 L 38.30099868774414 -102.97000122070312 L 38.55099868774414 -103.1449966430664 L 38.766998291015625 -103.36000061035156 L 38.94200134277344 -103.61000061035156 L 39.06999969482422 -103.88700103759766 L 39.14899826049805 -104.18099975585938 L 39.17271423339844 -104.447998046875 L 39.17599868774414 -104.48500061035156 L 39.14899826049805 -104.78900146484375 L 39.06999969482422 -105.08399963378906 L 38.94200134277344 -105.36000061035156 L 38.766998291015625 -105.61000061035156 L 38.55099868774414 -105.82599639892578 L 38.30099868774414 -106.0009994506836 L 38.025001525878906 -106.12999725341797 L 37.72999954223633 -106.20899963378906 L 37.42599868774414 -106.23500061035156 L 37.12200164794922 -106.20899963378906 L 36.86399841308594 -106.13990783691406 L 36.82699966430664 -106.12999725341797 L 36.55099868774414 -106.0009994506836 L 36.30099868774414 -105.82599639892578 L 36.084999084472656 -105.61000061035156 L 35.90999984741211 -105.36000061035156 L 35.78099822998047 -105.08399963378906 L 35.702999114990234 -104.78900146484375 L 35.67599868774414 -104.48500061035156 L 35.702999114990234 -104.18099975585938 L 35.78099822998047 -103.88700103759766 L 35.90999984741211 -103.61000061035156 L 36.084999084472656 -103.36000061035156 L 36.30099868774414 -103.1449966430664 L 36.55099868774414 -102.97000122070312 M 86.0979995727539 167.99600219726562 L 86.01599884033203 167.9389190673828 L 86.01179504394531 167.93600463867188 L 85.87100219726562 167.83799743652344 L 85.62000274658203 167.7209930419922 L 85.35299682617188 167.6490020751953 L 85.0770034790039 167.625 L 84.802001953125 167.6490020751953 L 84.53399658203125 167.7209930419922 L 84.28299713134766 167.83799743652344 L 84.142822265625 167.93600463867188 L 84.05699920654297 167.99600219726562 L 83.86100006103516 168.19200134277344 L 83.7020034790039 168.41900634765625 L 83.58499908447266 168.6699981689453 L 83.51399993896484 168.93699645996094 L 83.48999786376953 169.21299743652344 L 83.51399993896484 169.48800659179688 L 83.58499908447266 169.7550048828125 L 83.69174194335938 169.98399353027344 L 83.7020034790039 170.00599670410156 L 83.86100006103516 170.23300170898438 L 84.05699920654297 170.4290008544922 L 84.28299713134766 170.58700561523438 L 84.53399658203125 170.70399475097656 L 84.802001953125 170.7760009765625 L 85.0770034790039 170.8000030517578 L 85.35299682617188 170.7760009765625 L 85.62000274658203 170.70399475097656 L 85.87100219726562 170.58700561523438 L 86.01599884033203 170.48606872558594 L 86.0979995727539 170.4290008544922 L 86.29299926757812 170.23300170898438 L 86.4520034790039 170.00599670410156 L 86.56900024414062 169.7550048828125 L 86.64099884033203 169.48800659179688 L 86.66500091552734 169.21299743652344 L 86.64099884033203 168.93699645996094 L 86.56900024414062 168.6699981689453 L 86.4520034790039 168.41900634765625 L 86.29299926757812 168.19200134277344 L 86.0979995727539 167.99600219726562 M 77.26599884033203 -120.62999725341797 L 77.35399627685547 -120.81900024414062 L 77.35753631591797 -120.83200073242188 L 77.40899658203125 -121.02100372314453 L 77.427001953125 -121.2300033569336 L 77.40899658203125 -121.43800354003906 L 77.35399627685547 -121.63999938964844 L 77.26599884033203 -121.83000183105469 L 77.14600372314453 -122.0009994506836 L 76.99800109863281 -122.14900207519531 L 76.8270034790039 -122.26899719238281 L 76.63700103759766 -122.35700225830078 L 76.43499755859375 -122.41100311279297 L 76.22699737548828 -122.43000030517578 L 76.01799774169922 -122.41100311279297 L 75.81600189208984 -122.35700225830078 L 75.7760009765625 -122.33837890625 L 75.62699890136719 -122.26899719238281 L 75.45500183105469 -122.14900207519531 L 75.30799865722656 -122.0009994506836 L 75.18800354003906 -121.83000183105469 L 75.0989990234375 -121.63999938964844 L 75.04499816894531 -121.43800354003906 L 75.0270004272461 -121.2300033569336 L 75.04499816894531 -121.02100372314453 L 75.09552764892578 -120.83200073242188 L 75.0989990234375 -120.81900024414062 L 75.18800354003906 -120.62999725341797 L 75.30799865722656 -120.45800018310547 L 75.45500183105469 -120.30999755859375 L 75.62699890136719 -120.19000244140625 L 75.81600189208984 -120.10199737548828 L 76.01799774169922 -120.0479965209961 L 76.22699737548828 -120.02999877929688 L 76.43499755859375 -120.0479965209961 L 76.63700103759766 -120.10199737548828 L 76.8270034790039 -120.19000244140625 L 76.99800109863281 -120.30999755859375 L 77.14600372314453 -120.45800018310547 L 77.26599884033203 -120.62999725341797 M -61.4010009765625 10.619000434875488 L -61.439998626708984 10.563285827636719 L -61.57600021362305 10.369000434875488 L -61.70500183105469 10.239999771118164 L -61.79199981689453 10.152999877929688 L -62.04199981689453 9.977999687194824 L -62.319000244140625 9.848999977111816 L -62.612998962402344 9.770000457763672 L -62.91699981689453 9.744000434875488 L -63.22100067138672 9.770000457763672 L -63.51599884033203 9.848999977111816 L -63.79199981689453 9.977999687194824 L -64.04199981689453 10.152999877929688 L -64.12899780273438 10.239999771118164 L -64.25800323486328 10.369000434875488 L -64.43299865722656 10.619000434875488 L -64.56199645996094 10.895000457763672 L -64.64099884033203 11.1899995803833 L -64.66699981689453 11.494000434875488 L -64.64099884033203 11.79699993133545 L -64.56199645996094 12.092000007629395 L -64.47071838378906 12.288000106811523 L -64.43299865722656 12.369000434875488 L -64.25800323486328 12.618000030517578 L -64.04199981689453 12.833999633789062 L -63.79199981689453 13.008999824523926 L -63.51599884033203 13.137999534606934 L -63.22100067138672 13.217000007629395 L -62.91699981689453 13.244000434875488 L -62.612998962402344 13.217000007629395 L -62.319000244140625 13.137999534606934 L -62.04199981689453 13.008999824523926 L -61.79199981689453 12.833999633789062 L -61.57600021362305 12.618000030517578 L -61.439998626708984 12.424491882324219 L -61.4010009765625 12.369000434875488 L -61.36357116699219 12.288000106811523 L -61.27299880981445 12.092000007629395 L -61.194000244140625 11.79699993133545 L -61.16699981689453 11.494000434875488 L -61.194000244140625 11.1899995803833 L -61.27299880981445 10.895000457763672 L -61.4010009765625 10.619000434875488 M 75.62699890136719 -133.49000549316406 L 75.7760009765625 -133.42062377929688 L 75.81600189208984 -133.40199279785156 L 76.01799774169922 -133.34800720214844 L 76.22699737548828 -133.3300018310547 L 76.43499755859375 -133.34800720214844 L 76.63700103759766 -133.40199279785156 L 76.8270034790039 -133.49000549316406 L 76.99800109863281 -133.61000061035156 L 77.14600372314453 -133.75799560546875 L 77.26599884033203 -133.92999267578125 L 77.35399627685547 -134.11900329589844 L 77.40899658203125 -134.3209991455078 L 77.427001953125 -134.52999877929688 L 77.40899658203125 -134.73800659179688 L 77.35399627685547 -134.94000244140625 L 77.26599884033203 -135.1300048828125 L 77.23933410644531 -135.16799926757812 L 77.14600372314453 -135.30099487304688 L 76.99800109863281 -135.44900512695312 L 76.8270034790039 -135.56900024414062 L 76.63700103759766 -135.65699768066406 L 76.43499755859375 -135.71099853515625 L 76.22699737548828 -135.72999572753906 L 76.01799774169922 -135.71099853515625 L 75.81600189208984 -135.65699768066406 L 75.62699890136719 -135.56900024414062 L 75.45500183105469 -135.44900512695312 L 75.30799865722656 -135.30099487304688 L 75.21466827392578 -135.16799926757812 L 75.18800354003906 -135.1300048828125 L 75.0989990234375 -134.94000244140625 L 75.04499816894531 -134.73800659179688 L 75.0270004272461 -134.52999877929688 L 75.04499816894531 -134.3209991455078 L 75.0989990234375 -134.11900329589844 L 75.18800354003906 -133.92999267578125 L 75.30799865722656 -133.75799560546875 L 75.45500183105469 -133.61000061035156 L 75.62699890136719 -133.49000549316406 M 83.58499908447266 -147.52999877929688 L 83.56532287597656 -147.45599365234375 L 83.51399993896484 -147.26300048828125 L 83.48999786376953 -146.98800659179688 L 83.51399993896484 -146.71200561523438 L 83.58499908447266 -146.44500732421875 L 83.7020034790039 -146.19400024414062 L 83.86100006103516 -145.9669952392578 L 84.05699920654297 -145.77099609375 L 84.28299713134766 -145.61300659179688 L 84.53399658203125 -145.49600219726562 L 84.802001953125 -145.4239959716797 L 85.0770034790039 -145.39999389648438 L 85.35299682617188 -145.4239959716797 L 85.62000274658203 -145.49600219726562 L 85.87100219726562 -145.61300659179688 L 86.01599884033203 -145.71392822265625 L 86.0979995727539 -145.77099609375 L 86.29299926757812 -145.9669952392578 L 86.4520034790039 -146.19400024414062 L 86.56900024414062 -146.44500732421875 L 86.64099884033203 -146.71200561523438 L 86.66500091552734 -146.98800659179688 L 86.64099884033203 -147.26300048828125 L 86.58895874023438 -147.45599365234375 L 86.56900024414062 -147.52999877929688 L 86.4520034790039 -147.781005859375 L 86.29299926757812 -148.00799560546875 L 86.0979995727539 -148.20399475097656 L 85.87100219726562 -148.36199951171875 L 85.62000274658203 -148.47900390625 L 85.35299682617188 -148.55099487304688 L 85.0770034790039 -148.5749969482422 L 84.802001953125 -148.55099487304688 L 84.53399658203125 -148.47900390625 L 84.28299713134766 -148.36199951171875 L 84.05699920654297 -148.20399475097656 L 83.86100006103516 -148.00799560546875 L 83.7020034790039 -147.781005859375 L 83.58499908447266 -147.52999877929688 M -86.29299926757812 170.23300170898438 L -86.0979995727539 170.4290008544922 L -86.01599884033203 170.48606872558594 L -85.87100219726562 170.58700561523438 L -85.62000274658203 170.70399475097656 L -85.35299682617188 170.7760009765625 L -85.0770034790039 170.8000030517578 L -84.802001953125 170.7760009765625 L -84.53399658203125 170.70399475097656 L -84.28399658203125 170.58700561523438 L -84.05699920654297 170.4290008544922 L -83.86100006103516 170.23300170898438 L -83.7020034790039 170.00599670410156 L -83.69174194335938 169.98399353027344 L -83.58499908447266 169.7550048828125 L -83.51399993896484 169.48800659179688 L -83.48999786376953 169.21299743652344 L -83.51399993896484 168.93699645996094 L -83.58499908447266 168.6699981689453 L -83.7020034790039 168.41900634765625 L -83.86100006103516 168.19200134277344 L -84.05699920654297 167.99600219726562 L -84.14320373535156 167.93600463867188 L -84.28399658203125 167.83799743652344 L -84.53399658203125 167.7209930419922 L -84.802001953125 167.6490020751953 L -85.0770034790039 167.625 L -85.35299682617188 167.6490020751953 L -85.62000274658203 167.7209930419922 L -85.87100219726562 167.83799743652344 L -86.01179504394531 167.93600463867188 L -86.01599884033203 167.9389190673828 L -86.0979995727539 167.99600219726562 L -86.29299926757812 168.19200134277344 L -86.4520034790039 168.41900634765625 L -86.56900024414062 168.6699981689453 L -86.64099884033203 168.93699645996094 L -86.66500091552734 169.21299743652344 L -86.64099884033203 169.48800659179688 L -86.56900024414062 169.7550048828125 L -86.4520034790039 170.00599670410156 L -86.29299926757812 170.23300170898438 M -64.66699981689453 75.49400329589844 L -64.6427993774414 75.7760009765625 L -64.64099884033203 75.7969970703125 L -64.56199645996094 76.09200286865234 L -64.43299865722656 76.36900329589844 L -64.25800323486328 76.61799621582031 L -64.04199981689453 76.83399963378906 L -63.79199981689453 77.00900268554688 L -63.51599884033203 77.13800048828125 L -63.22100067138672 77.21700286865234 L -62.91699981689453 77.24400329589844 L -62.612998962402344 77.21700286865234 L -62.319000244140625 77.13800048828125 L -62.04199981689453 77.00900268554688 L -61.79199981689453 76.83399963378906 L -61.57600021362305 76.61799621582031 L -61.439998626708984 76.42449188232422 L -61.4010009765625 76.36900329589844 L -61.27299880981445 76.09200286865234 L -61.194000244140625 75.7969970703125 L -61.16699981689453 75.49400329589844 L -61.194000244140625 75.19000244140625 L -61.27299880981445 74.8949966430664 L -61.4010009765625 74.61900329589844 L -61.439998626708984 74.56328582763672 L -61.57600021362305 74.36900329589844 L -61.79199981689453 74.15299987792969 L -62.04199981689453 73.97799682617188 L -62.319000244140625 73.8489990234375 L -62.612998962402344 73.7699966430664 L -62.91699981689453 73.74400329589844 L -63.22100067138672 73.7699966430664 L -63.51599884033203 73.8489990234375 L -63.79199981689453 73.97799682617188 L -64.04199981689453 74.15299987792969 L -64.25800323486328 74.36900329589844 L -64.43299865722656 74.61900329589844 L -64.56199645996094 74.8949966430664 L -64.64099884033203 75.19000244140625 L -64.66699981689453 75.49400329589844 z" fill="none" stroke="rgb(255,0,0)" stroke-width="0.001mm" />
</svg>