<?xml version="1.0" encoding="UTF-8" standalone="no"?>
<!DOCTYPE svg PUBLIC "-//W3C//DTD SVG 1.1//EN" "http://www.w3.org/Graphics/SVG/1.1/DTD/svg11.dtd">
<svg width="2579px" height="1361px" version="1.1" xmlns="http://www.w3.org/2000/svg" xmlns:xlink="http://www.w3.org/1999/xlink" xml:space="preserve" xmlns:serif="http://www.serif.com/" style="fill-rule:evenodd;clip-rule:evenodd;stroke-linecap:round;stroke-linejoin:round;">
    <g transform="matrix(1.33333,0,0,1.33333,0,0)">
        <g id="Cut">
            <g id="p-0">
                <path d="M28.545,992.041L62.844,992.041C62.955,992.041 63.043,991.953 63.043,991.843L63.043,983.537C63.043,983.339 62.844,983.537 63.043,983.537L79.654,983.537C79.852,983.537 79.654,983.339 79.654,983.537L79.654,991.843C79.654,991.953 79.741,992.041 79.852,992.041L96.86,992.041C96.97,992.041 97.058,991.953 97.058,991.843L97.058,983.537C97.058,983.339 96.86,983.537 97.058,983.537L113.669,983.537C113.868,983.537 113.669,983.339 113.669,983.537L113.669,991.843C113.669,991.953 113.757,992.041 113.868,992.041L130.876,992.041C130.986,992.041 131.074,991.953 131.074,991.843L131.074,983.537C131.074,983.339 130.876,983.537 131.074,983.537L147.685,983.537C147.883,983.537 147.685,983.339 147.685,983.537L147.685,991.843C147.685,991.953 147.773,992.041 147.883,992.041L164.891,992.041C165.002,992.041 165.09,991.953 165.09,991.843L165.09,983.537C165.09,983.339 164.891,983.537 165.09,983.537L181.701,983.537C181.899,983.537 181.701,983.339 181.701,983.537L181.701,991.843C181.701,991.953 181.789,992.041 181.899,992.041L198.907,992.041C199.018,992.041 199.106,991.953 199.106,991.843L199.106,983.537C199.106,983.339 198.907,983.537 199.106,983.537L215.717,983.537C215.915,983.537 215.717,983.339 215.717,983.537L215.717,991.843C215.717,991.953 215.804,992.041 215.915,992.041L232.923,992.041C233.033,992.041 233.121,991.953 233.121,991.843L233.121,983.537C233.121,983.339 232.923,983.537 233.121,983.537L249.732,983.537C249.931,983.537 249.732,983.339 249.732,983.537L249.732,991.843C249.732,991.953 249.82,992.041 249.931,992.041L266.939,992.041C267.049,992.041 267.137,991.953 267.137,991.843L267.137,983.537C267.137,983.339 266.939,983.537 267.137,983.537L283.748,983.537C283.946,983.537 283.748,983.339 283.748,983.537L283.748,991.843C283.748,991.953 283.836,992.041 283.946,992.041L300.954,992.041C301.065,992.041 301.153,991.953 301.153,991.843L301.153,983.537C301.153,983.339 300.954,983.537 301.153,983.537L317.764,983.537C317.962,983.537 317.764,983.339 317.764,983.537L317.764,991.843C317.764,991.953 317.852,992.041 317.962,992.041L334.97,992.041C335.081,992.041 335.169,991.953 335.169,991.843L335.169,983.537C335.169,983.339 334.97,983.537 335.169,983.537L351.78,983.537C351.978,983.537 351.78,983.339 351.78,983.537L351.78,991.843C351.78,991.953 351.867,992.041 351.978,992.041L368.986,992.041C369.096,992.041 369.184,991.953 369.184,991.843L369.184,983.537C369.184,983.339 368.986,983.537 369.184,983.537L385.795,983.537C385.994,983.537 385.795,983.339 385.795,983.537L385.795,991.843C385.795,991.953 385.883,992.041 385.994,992.041L403.002,992.041C403.112,992.041 403.2,991.953 403.2,991.843L403.2,983.537C403.2,983.339 403.002,983.537 403.2,983.537L419.811,983.537C420.009,983.537 419.811,983.339 419.811,983.537L419.811,991.843C419.811,991.953 419.899,992.041 420.009,992.041L437.017,992.041C437.128,992.041 437.216,991.953 437.216,991.843L437.216,983.537C437.216,983.339 437.017,983.537 437.216,983.537L453.827,983.537C454.025,983.537 453.827,983.339 453.827,983.537L453.827,991.843C453.827,991.953 453.915,992.041 454.025,992.041L471.033,992.041C471.144,992.041 471.231,991.953 471.231,991.843L471.231,983.537C471.231,983.339 471.033,983.537 471.231,983.537L487.843,983.537C488.041,983.537 487.843,983.339 487.843,983.537L487.843,991.843C487.843,991.953 487.93,992.041 488.041,992.041L505.049,992.041C505.159,992.041 505.247,991.953 505.247,991.843L505.247,983.537C505.247,983.339 505.049,983.537 505.247,983.537L521.858,983.537C522.057,983.537 521.858,983.339 521.858,983.537L521.858,991.843C521.858,991.953 521.946,992.041 522.057,992.041L539.065,992.041C539.175,992.041 539.263,991.953 539.263,991.843L539.263,983.537C539.263,983.339 539.065,983.537 539.263,983.537L555.874,983.537C556.072,983.537 555.874,983.339 555.874,983.537L555.874,991.843C555.874,991.953 555.962,992.041 556.072,992.041L573.08,992.041C573.191,992.041 573.279,991.953 573.279,991.843L573.279,983.537C573.279,983.339 573.08,983.537 573.279,983.537L589.89,983.537C590.088,983.537 589.89,983.339 589.89,983.537L589.89,991.843C589.89,991.953 589.978,992.041 590.088,992.041L607.096,992.041C607.207,992.041 607.294,991.953 607.294,991.843L607.294,983.537C607.294,983.339 607.096,983.537 607.294,983.537L623.906,983.537C624.104,983.537 623.906,983.339 623.906,983.537L623.906,991.843C623.906,991.953 623.993,992.041 624.104,992.041L641.112,992.041C641.222,992.041 641.31,991.953 641.31,991.843L641.31,983.537C641.31,983.339 641.112,983.537 641.31,983.537L657.921,983.537C658.12,983.537 657.921,983.339 657.921,983.537L657.921,991.843C657.921,991.953 658.009,992.041 658.12,992.041L675.128,992.041C675.238,992.041 675.326,991.953 675.326,991.843L675.326,983.537C675.326,983.339 675.128,983.537 675.326,983.537L691.937,983.537C692.135,983.537 691.937,983.339 691.937,983.537L691.937,991.843C691.937,991.953 692.025,992.041 692.135,992.041L709.143,992.041C709.254,992.041 709.342,991.953 709.342,991.843L709.342,983.537C709.342,983.339 709.143,983.537 709.342,983.537L725.953,983.537C726.151,983.537 725.953,983.339 725.953,983.537L725.953,991.843C725.953,991.953 726.041,992.041 726.151,992.041L743.159,992.041C743.27,992.041 743.357,991.953 743.357,991.843L743.357,983.537C743.357,983.339 743.159,983.537 743.357,983.537L759.969,983.537C760.167,983.537 759.969,983.339 759.969,983.537L759.969,991.843C759.969,991.953 760.056,992.041 760.167,992.041L777.175,992.041C777.285,992.041 777.373,991.953 777.373,991.843L777.373,983.537C777.373,983.339 777.175,983.537 777.373,983.537L793.984,983.537C794.183,983.537 793.984,983.339 793.984,983.537L793.984,991.843C793.984,991.953 794.072,992.041 794.183,992.041L811.191,992.041C811.301,992.041 811.389,991.953 811.389,991.843L811.389,983.537C811.389,983.339 811.191,983.537 811.389,983.537L828,983.537C828.198,983.537 828,983.339 828,983.537L828,991.843C828,991.953 828.088,992.041 828.198,992.041L845.206,992.041C845.317,992.041 845.405,991.953 845.405,991.843L845.405,983.537C845.405,983.339 845.206,983.537 845.405,983.537L862.016,983.537C862.214,983.537 862.016,983.339 862.016,983.537L862.016,991.843C862.016,991.953 862.104,992.041 862.214,992.041L879.222,992.041C879.333,992.041 879.42,991.953 879.42,991.843L879.42,983.537C879.42,983.339 879.222,983.537 879.42,983.537L896.031,983.537C896.23,983.537 896.031,983.339 896.031,983.537L896.031,991.843C896.031,991.953 896.119,992.041 896.23,992.041L913.238,992.041C913.348,992.041 913.436,991.953 913.436,991.843L913.436,983.537C913.436,983.339 913.238,983.537 913.436,983.537L930.047,983.537C930.246,983.537 930.047,983.339 930.047,983.537L930.047,991.843C930.047,991.953 930.135,992.041 930.246,992.041L964.545,992.041C964.655,992.041 964.743,991.953 964.743,991.843L964.743,960.378C964.743,960.267 964.655,960.18 964.545,960.18L956.239,960.18C956.041,960.18 956.239,960.378 956.239,960.18L956.239,943.569C956.239,943.37 956.041,943.569 956.239,943.569L964.545,943.569C964.655,943.569 964.743,943.481 964.743,943.37L964.743,926.362C964.743,926.252 964.655,926.164 964.545,926.164L956.239,926.164C956.041,926.164 956.239,926.362 956.239,926.164L956.239,909.553C956.239,909.354 956.041,909.553 956.239,909.553L964.545,909.553C964.655,909.553 964.743,909.465 964.743,909.354L964.743,892.346C964.743,892.236 964.655,892.148 964.545,892.148L956.239,892.148C956.041,892.148 956.239,892.346 956.239,892.148L956.239,875.537C956.239,875.339 956.041,875.537 956.239,875.537L964.545,875.537C964.655,875.537 964.743,875.449 964.743,875.339L964.743,858.331C964.743,858.22 964.655,858.132 964.545,858.132L956.239,858.132C956.041,858.132 956.239,858.331 956.239,858.132L956.239,841.521C956.239,841.323 956.041,841.521 956.239,841.521L964.545,841.521C964.655,841.521 964.743,841.433 964.743,841.323L964.743,824.315C964.743,824.204 964.655,824.117 964.545,824.117L956.239,824.117C956.041,824.117 956.239,824.315 956.239,824.117L956.239,807.506C956.239,807.307 956.041,807.506 956.239,807.506L964.545,807.506C964.655,807.506 964.743,807.418 964.743,807.307L964.743,775.843C964.743,775.732 964.655,775.644 964.545,775.644L930.246,775.644C930.135,775.644 930.047,775.732 930.047,775.843L930.047,784.148C930.047,784.346 930.246,784.148 930.047,784.148L913.436,784.148C913.238,784.148 913.436,784.346 913.436,784.148L913.436,775.843C913.436,775.732 913.348,775.644 913.238,775.644L896.23,775.644C896.119,775.644 896.031,775.732 896.031,775.843L896.031,784.148C896.031,784.346 896.23,784.148 896.031,784.148L879.42,784.148C879.222,784.148 879.42,784.346 879.42,784.148L879.42,775.843C879.42,775.732 879.333,775.644 879.222,775.644L862.214,775.644C862.104,775.644 862.016,775.732 862.016,775.843L862.016,784.148C862.016,784.346 862.214,784.148 862.016,784.148L845.405,784.148C845.206,784.148 845.405,784.346 845.405,784.148L845.405,775.843C845.405,775.732 845.317,775.644 845.206,775.644L828.198,775.644C828.088,775.644 828,775.732 828,775.843L828,784.148C828,784.346 828.198,784.148 828,784.148L811.389,784.148C811.191,784.148 811.389,784.346 811.389,784.148L811.389,775.843C811.389,775.732 811.301,775.644 811.191,775.644L794.183,775.644C794.072,775.644 793.984,775.732 793.984,775.843L793.984,784.148C793.984,784.346 794.183,784.148 793.984,784.148L777.373,784.148C777.175,784.148 777.373,784.346 777.373,784.148L777.373,775.843C777.373,775.732 777.285,775.644 777.175,775.644L760.167,775.644C760.056,775.644 759.969,775.732 759.969,775.843L759.969,784.148C759.969,784.346 760.167,784.148 759.969,784.148L743.357,784.148C743.159,784.148 743.357,784.346 743.357,784.148L743.357,775.843C743.357,775.732 743.27,775.644 743.159,775.644L726.151,775.644C726.041,775.644 725.953,775.732 725.953,775.843L725.953,784.148C725.953,784.346 726.151,784.148 725.953,784.148L709.342,784.148C709.143,784.148 709.342,784.346 709.342,784.148L709.342,775.843C709.342,775.732 709.254,775.644 709.143,775.644L692.135,775.644C692.025,775.644 691.937,775.732 691.937,775.843L691.937,784.148C691.937,784.346 692.135,784.148 691.937,784.148L675.326,784.148C675.128,784.148 675.326,784.346 675.326,784.148L675.326,775.843C675.326,775.732 675.238,775.644 675.128,775.644L658.12,775.644C658.009,775.644 657.921,775.732 657.921,775.843L657.921,784.148C657.921,784.346 658.12,784.148 657.921,784.148L641.31,784.148C641.112,784.148 641.31,784.346 641.31,784.148L641.31,775.843C641.31,775.732 641.222,775.644 641.112,775.644L624.104,775.644C623.993,775.644 623.906,775.732 623.906,775.843L623.906,784.148C623.906,784.346 624.104,784.148 623.906,784.148L607.294,784.148C607.096,784.148 607.294,784.346 607.294,784.148L607.294,775.843C607.294,775.732 607.207,775.644 607.096,775.644L590.088,775.644C589.978,775.644 589.89,775.732 589.89,775.843L589.89,784.148C589.89,784.346 590.088,784.148 589.89,784.148L573.279,784.148C573.08,784.148 573.279,784.346 573.279,784.148L573.279,775.843C573.279,775.732 573.191,775.644 573.08,775.644L556.072,775.644C555.962,775.644 555.874,775.732 555.874,775.843L555.874,784.148C555.874,784.346 556.072,784.148 555.874,784.148L539.263,784.148C539.065,784.148 539.263,784.346 539.263,784.148L539.263,775.843C539.263,775.732 539.175,775.644 539.065,775.644L522.057,775.644C521.946,775.644 521.858,775.732 521.858,775.843L521.858,784.148C521.858,784.346 522.057,784.148 521.858,784.148L505.247,784.148C505.049,784.148 505.247,784.346 505.247,784.148L505.247,775.843C505.247,775.732 505.159,775.644 505.049,775.644L488.041,775.644C487.93,775.644 487.843,775.732 487.843,775.843L487.843,784.148C487.843,784.346 488.041,784.148 487.843,784.148L471.231,784.148C471.033,784.148 471.231,784.346 471.231,784.148L471.231,775.843C471.231,775.732 471.144,775.644 471.033,775.644L454.025,775.644C453.915,775.644 453.827,775.732 453.827,775.843L453.827,784.148C453.827,784.346 454.025,784.148 453.827,784.148L437.216,784.148C437.017,784.148 437.216,784.346 437.216,784.148L437.216,775.843C437.216,775.732 437.128,775.644 437.017,775.644L420.009,775.644C419.899,775.644 419.811,775.732 419.811,775.843L419.811,784.148C419.811,784.346 420.009,784.148 419.811,784.148L403.2,784.148C403.002,784.148 403.2,784.346 403.2,784.148L403.2,775.843C403.2,775.732 403.112,775.644 403.002,775.644L385.994,775.644C385.883,775.644 385.795,775.732 385.795,775.843L385.795,784.148C385.795,784.346 385.994,784.148 385.795,784.148L369.184,784.148C368.986,784.148 369.184,784.346 369.184,784.148L369.184,775.843C369.184,775.732 369.096,775.644 368.986,775.644L351.978,775.644C351.867,775.644 351.78,775.732 351.78,775.843L351.78,784.148C351.78,784.346 351.978,784.148 351.78,784.148L335.169,784.148C334.97,784.148 335.169,784.346 335.169,784.148L335.169,775.843C335.169,775.732 335.081,775.644 334.97,775.644L317.962,775.644C317.852,775.644 317.764,775.732 317.764,775.843L317.764,784.148C317.764,784.346 317.962,784.148 317.764,784.148L301.153,784.148C300.954,784.148 301.153,784.346 301.153,784.148L301.153,775.843C301.153,775.732 301.065,775.644 300.954,775.644L283.946,775.644C283.836,775.644 283.748,775.732 283.748,775.843L283.748,784.148C283.748,784.346 283.946,784.148 283.748,784.148L267.137,784.148C266.939,784.148 267.137,784.346 267.137,784.148L267.137,775.843C267.137,775.732 267.049,775.644 266.939,775.644L249.931,775.644C249.82,775.644 249.732,775.732 249.732,775.843L249.732,784.148C249.732,784.346 249.931,784.148 249.732,784.148L233.121,784.148C232.923,784.148 233.121,784.346 233.121,784.148L233.121,775.843C233.121,775.732 233.033,775.644 232.923,775.644L215.915,775.644C215.804,775.644 215.717,775.732 215.717,775.843L215.717,784.148C215.717,784.346 215.915,784.148 215.717,784.148L199.106,784.148C198.907,784.148 199.106,784.346 199.106,784.148L199.106,775.843C199.106,775.732 199.018,775.644 198.907,775.644L181.899,775.644C181.789,775.644 181.701,775.732 181.701,775.843L181.701,784.148C181.701,784.346 181.899,784.148 181.701,784.148L165.09,784.148C164.891,784.148 165.09,784.346 165.09,784.148L165.09,775.843C165.09,775.732 165.002,775.644 164.891,775.644L147.883,775.644C147.773,775.644 147.685,775.732 147.685,775.843L147.685,784.148C147.685,784.346 147.883,784.148 147.685,784.148L131.074,784.148C130.876,784.148 131.074,784.346 131.074,784.148L131.074,775.843C131.074,775.732 130.986,775.644 130.876,775.644L113.868,775.644C113.757,775.644 113.669,775.732 113.669,775.843L113.669,784.148C113.669,784.346 113.868,784.148 113.669,784.148L97.058,784.148C96.86,784.148 97.058,784.346 97.058,784.148L97.058,775.843C97.058,775.732 96.97,775.644 96.86,775.644L79.852,775.644C79.741,775.644 79.654,775.732 79.654,775.843L79.654,784.148C79.654,784.346 79.852,784.148 79.654,784.148L63.043,784.148C62.844,784.148 63.043,784.346 63.043,784.148L63.043,775.843C63.043,775.732 62.955,775.644 62.844,775.644L28.545,775.644C28.434,775.644 28.346,775.732 28.346,775.843L28.346,807.307C28.346,807.418 28.434,807.506 28.545,807.506L36.85,807.506C37.049,807.506 36.85,807.307 36.85,807.506L36.85,824.117C36.85,824.315 37.049,824.117 36.85,824.117L28.545,824.117C28.434,824.117 28.346,824.204 28.346,824.315L28.346,841.323C28.346,841.433 28.434,841.521 28.545,841.521L36.85,841.521C37.049,841.521 36.85,841.323 36.85,841.521L36.85,858.132C36.85,858.331 37.049,858.132 36.85,858.132L28.545,858.132C28.434,858.132 28.346,858.22 28.346,858.331L28.346,875.339C28.346,875.449 28.434,875.537 28.545,875.537L36.85,875.537C37.049,875.537 36.85,875.339 36.85,875.537L36.85,892.148C36.85,892.346 37.049,892.148 36.85,892.148L28.545,892.148C28.434,892.148 28.346,892.236 28.346,892.346L28.346,909.354C28.346,909.465 28.434,909.553 28.545,909.553L36.85,909.553C37.049,909.553 36.85,909.354 36.85,909.553L36.85,926.164C36.85,926.362 37.049,926.164 36.85,926.164L28.545,926.164C28.434,926.164 28.346,926.252 28.346,926.362L28.346,943.37C28.346,943.481 28.434,943.569 28.545,943.569L36.85,943.569C37.049,943.569 36.85,943.37 36.85,943.569L36.85,960.18C36.85,960.378 37.049,960.18 36.85,960.18L28.545,960.18C28.434,960.18 28.346,960.267 28.346,960.378L28.346,991.843C28.346,991.953 28.434,992.041 28.545,992.041Z" style="fill:none;fill-rule:nonzero;stroke:black;stroke-width:0.4px;"/>
            </g>
            <g id="p-1">
                <path d="M977.698,992.041L1000.59,992.041C1000.7,992.041 1000.79,991.953 1000.79,991.843L1000.79,983.537C1000.79,983.339 1000.59,983.537 1000.79,983.537L1017.4,983.537C1017.6,983.537 1017.4,983.339 1017.4,983.537L1017.4,991.843C1017.4,991.953 1017.49,992.041 1017.6,992.041L1034.6,992.041C1034.71,992.041 1034.8,991.953 1034.8,991.843L1034.8,983.537C1034.8,983.339 1034.6,983.537 1034.8,983.537L1051.41,983.537C1051.61,983.537 1051.41,983.339 1051.41,983.537L1051.41,991.843C1051.41,991.953 1051.5,992.041 1051.61,992.041L1068.62,992.041C1068.73,992.041 1068.82,991.953 1068.82,991.843L1068.82,983.537C1068.82,983.339 1068.62,983.537 1068.82,983.537L1085.43,983.537C1085.63,983.537 1085.43,983.339 1085.43,983.537L1085.43,991.843C1085.43,991.953 1085.52,992.041 1085.63,992.041L1102.63,992.041C1102.75,992.041 1102.83,991.953 1102.83,991.843L1102.83,983.537C1102.83,983.339 1102.63,983.537 1102.83,983.537L1119.44,983.537C1119.64,983.537 1119.44,983.339 1119.44,983.537L1119.44,991.843C1119.44,991.953 1119.53,992.041 1119.64,992.041L1136.65,992.041C1136.76,992.041 1136.85,991.953 1136.85,991.843L1136.85,983.537C1136.85,983.339 1136.65,983.537 1136.85,983.537L1153.46,983.537C1153.66,983.537 1153.46,983.339 1153.46,983.537L1153.46,991.843C1153.46,991.953 1153.55,992.041 1153.66,992.041L1170.67,992.041C1170.78,992.041 1170.87,991.953 1170.87,991.843L1170.87,983.537C1170.87,983.339 1170.67,983.537 1170.87,983.537L1187.48,983.537C1187.67,983.537 1187.48,983.339 1187.48,983.537L1187.48,991.843C1187.48,991.953 1187.56,992.041 1187.67,992.041L1204.68,992.041C1204.79,992.041 1204.88,991.953 1204.88,991.843L1204.88,983.537C1204.88,983.339 1204.68,983.537 1204.88,983.537L1221.49,983.537C1221.69,983.537 1221.49,983.339 1221.49,983.537L1221.49,991.843C1221.49,991.953 1221.58,992.041 1221.69,992.041L1238.7,992.041C1238.81,992.041 1238.9,991.953 1238.9,991.843L1238.9,983.537C1238.9,983.339 1238.7,983.537 1238.9,983.537L1255.51,983.537C1255.71,983.537 1255.51,983.339 1255.51,983.537L1255.51,991.843C1255.51,991.953 1255.6,992.041 1255.71,992.041L1272.71,992.041C1272.82,992.041 1272.91,991.953 1272.91,991.843L1272.91,983.537C1272.91,983.339 1272.71,983.537 1272.91,983.537L1289.52,983.537C1289.72,983.537 1289.52,983.339 1289.52,983.537L1289.52,991.843C1289.52,991.953 1289.61,992.041 1289.72,992.041L1306.73,992.041C1306.84,992.041 1306.93,991.953 1306.93,991.843L1306.93,983.537C1306.93,983.339 1306.73,983.537 1306.93,983.537L1323.54,983.537C1323.74,983.537 1323.54,983.339 1323.54,983.537L1323.54,991.843C1323.54,991.953 1323.63,992.041 1323.74,992.041L1340.75,992.041C1340.86,992.041 1340.94,991.953 1340.94,991.843L1340.94,983.537C1340.94,983.339 1340.75,983.537 1340.94,983.537L1357.55,983.537C1357.75,983.537 1357.55,983.339 1357.55,983.537L1357.55,991.843C1357.55,991.953 1357.64,992.041 1357.75,992.041L1374.76,992.041C1374.87,992.041 1374.96,991.953 1374.96,991.843L1374.96,983.537C1374.96,983.339 1374.76,983.537 1374.96,983.537L1391.57,983.537C1391.77,983.537 1391.57,983.339 1391.57,983.537L1391.57,991.843C1391.57,991.953 1391.66,992.041 1391.77,992.041L1408.78,992.041C1408.89,992.041 1408.98,991.953 1408.98,991.843L1408.98,983.537C1408.98,983.339 1408.78,983.537 1408.98,983.537L1425.59,983.537C1425.78,983.537 1425.59,983.339 1425.59,983.537L1425.59,991.843C1425.59,991.953 1425.67,992.041 1425.78,992.041L1442.79,992.041C1442.9,992.041 1442.99,991.953 1442.99,991.843L1442.99,983.537C1442.99,983.339 1442.79,983.537 1442.99,983.537L1459.6,983.537C1459.8,983.537 1459.6,983.339 1459.6,983.537L1459.6,991.843C1459.6,991.953 1459.69,992.041 1459.8,992.041L1482.69,992.041C1482.8,992.041 1482.89,991.953 1482.89,991.843L1482.89,960.576C1482.89,960.378 1482.69,960.576 1482.89,960.576L1491.19,960.576C1491.3,960.576 1491.39,960.489 1491.39,960.378L1491.39,943.37C1491.39,943.26 1491.3,943.172 1491.19,943.172L1482.89,943.172C1482.69,943.172 1482.89,943.37 1482.89,943.172L1482.89,926.561C1482.89,926.362 1482.69,926.561 1482.89,926.561L1491.19,926.561C1491.3,926.561 1491.39,926.473 1491.39,926.362L1491.39,909.354C1491.39,909.244 1491.3,909.156 1491.19,909.156L1482.89,909.156C1482.69,909.156 1482.89,909.354 1482.89,909.156L1482.89,892.545C1482.89,892.346 1482.69,892.545 1482.89,892.545L1491.19,892.545C1491.3,892.545 1491.39,892.457 1491.39,892.346L1491.39,875.339C1491.39,875.228 1491.3,875.14 1491.19,875.14L1482.89,875.14C1482.69,875.14 1482.89,875.339 1482.89,875.14L1482.89,858.529C1482.89,858.331 1482.69,858.529 1482.89,858.529L1491.19,858.529C1491.3,858.529 1491.39,858.441 1491.39,858.331L1491.39,841.323C1491.39,841.212 1491.3,841.124 1491.19,841.124L1482.89,841.124C1482.69,841.124 1482.89,841.323 1482.89,841.124L1482.89,824.513C1482.89,824.315 1482.69,824.513 1482.89,824.513L1491.19,824.513C1491.3,824.513 1491.39,824.426 1491.39,824.315L1491.39,807.307C1491.39,807.197 1491.3,807.109 1491.19,807.109L1482.89,807.109C1482.69,807.109 1482.89,807.307 1482.89,807.109L1482.89,775.843C1482.89,775.732 1482.8,775.644 1482.69,775.644L1459.8,775.644C1459.69,775.644 1459.6,775.732 1459.6,775.843L1459.6,784.148C1459.6,784.346 1459.8,784.148 1459.6,784.148L1442.99,784.148C1442.79,784.148 1442.99,784.346 1442.99,784.148L1442.99,775.843C1442.99,775.732 1442.9,775.644 1442.79,775.644L1425.78,775.644C1425.67,775.644 1425.59,775.732 1425.59,775.843L1425.59,784.148C1425.59,784.346 1425.78,784.148 1425.59,784.148L1408.98,784.148C1408.78,784.148 1408.98,784.346 1408.98,784.148L1408.98,775.843C1408.98,775.732 1408.89,775.644 1408.78,775.644L1391.77,775.644C1391.66,775.644 1391.57,775.732 1391.57,775.843L1391.57,784.148C1391.57,784.346 1391.77,784.148 1391.57,784.148L1374.96,784.148C1374.76,784.148 1374.96,784.346 1374.96,784.148L1374.96,775.843C1374.96,775.732 1374.87,775.644 1374.76,775.644L1357.75,775.644C1357.64,775.644 1357.55,775.732 1357.55,775.843L1357.55,784.148C1357.55,784.346 1357.75,784.148 1357.55,784.148L1340.94,784.148C1340.75,784.148 1340.94,784.346 1340.94,784.148L1340.94,775.843C1340.94,775.732 1340.86,775.644 1340.75,775.644L1323.74,775.644C1323.63,775.644 1323.54,775.732 1323.54,775.843L1323.54,784.148C1323.54,784.346 1323.74,784.148 1323.54,784.148L1306.93,784.148C1306.73,784.148 1306.93,784.346 1306.93,784.148L1306.93,775.843C1306.93,775.732 1306.84,775.644 1306.73,775.644L1289.72,775.644C1289.61,775.644 1289.52,775.732 1289.52,775.843L1289.52,784.148C1289.52,784.346 1289.72,784.148 1289.52,784.148L1272.91,784.148C1272.71,784.148 1272.91,784.346 1272.91,784.148L1272.91,775.843C1272.91,775.732 1272.82,775.644 1272.71,775.644L1255.71,775.644C1255.6,775.644 1255.51,775.732 1255.51,775.843L1255.51,784.148C1255.51,784.346 1255.71,784.148 1255.51,784.148L1238.9,784.148C1238.7,784.148 1238.9,784.346 1238.9,784.148L1238.9,775.843C1238.9,775.732 1238.81,775.644 1238.7,775.644L1221.69,775.644C1221.58,775.644 1221.49,775.732 1221.49,775.843L1221.49,784.148C1221.49,784.346 1221.69,784.148 1221.49,784.148L1204.88,784.148C1204.68,784.148 1204.88,784.346 1204.88,784.148L1204.88,775.843C1204.88,775.732 1204.79,775.644 1204.68,775.644L1187.67,775.644C1187.56,775.644 1187.48,775.732 1187.48,775.843L1187.48,784.148C1187.48,784.346 1187.67,784.148 1187.48,784.148L1170.87,784.148C1170.67,784.148 1170.87,784.346 1170.87,784.148L1170.87,775.843C1170.87,775.732 1170.78,775.644 1170.67,775.644L1153.66,775.644C1153.55,775.644 1153.46,775.732 1153.46,775.843L1153.46,784.148C1153.46,784.346 1153.66,784.148 1153.46,784.148L1136.85,784.148C1136.65,784.148 1136.85,784.346 1136.85,784.148L1136.85,775.843C1136.85,775.732 1136.76,775.644 1136.65,775.644L1119.64,775.644C1119.53,775.644 1119.44,775.732 1119.44,775.843L1119.44,784.148C1119.44,784.346 1119.64,784.148 1119.44,784.148L1102.83,784.148C1102.63,784.148 1102.83,784.346 1102.83,784.148L1102.83,775.843C1102.83,775.732 1102.75,775.644 1102.63,775.644L1085.63,775.644C1085.52,775.644 1085.43,775.732 1085.43,775.843L1085.43,784.148C1085.43,784.346 1085.63,784.148 1085.43,784.148L1068.82,784.148C1068.62,784.148 1068.82,784.346 1068.82,784.148L1068.82,775.843C1068.82,775.732 1068.73,775.644 1068.62,775.644L1051.61,775.644C1051.5,775.644 1051.41,775.732 1051.41,775.843L1051.41,784.148C1051.41,784.346 1051.61,784.148 1051.41,784.148L1034.8,784.148C1034.6,784.148 1034.8,784.346 1034.8,784.148L1034.8,775.843C1034.8,775.732 1034.71,775.644 1034.6,775.644L1017.6,775.644C1017.49,775.644 1017.4,775.732 1017.4,775.843L1017.4,784.148C1017.4,784.346 1017.6,784.148 1017.4,784.148L1000.79,784.148C1000.59,784.148 1000.79,784.346 1000.79,784.148L1000.79,775.843C1000.79,775.732 1000.7,775.644 1000.59,775.644L977.698,775.644C977.587,775.644 977.499,775.732 977.499,775.843L977.499,807.109C977.499,807.307 977.698,807.109 977.499,807.109L969.194,807.109C969.083,807.109 968.995,807.197 968.995,807.307L968.995,824.315C968.995,824.426 969.083,824.513 969.194,824.513L977.499,824.513C977.698,824.513 977.499,824.315 977.499,824.513L977.499,841.124C977.499,841.323 977.698,841.124 977.499,841.124L969.194,841.124C969.083,841.124 968.995,841.212 968.995,841.323L968.995,858.331C968.995,858.441 969.083,858.529 969.194,858.529L977.499,858.529C977.698,858.529 977.499,858.331 977.499,858.529L977.499,875.14C977.499,875.339 977.698,875.14 977.499,875.14L969.194,875.14C969.083,875.14 968.995,875.228 968.995,875.339L968.995,892.346C968.995,892.457 969.083,892.545 969.194,892.545L977.499,892.545C977.698,892.545 977.499,892.346 977.499,892.545L977.499,909.156C977.499,909.354 977.698,909.156 977.499,909.156L969.194,909.156C969.083,909.156 968.995,909.244 968.995,909.354L968.995,926.362C968.995,926.473 969.083,926.561 969.194,926.561L977.499,926.561C977.698,926.561 977.499,926.362 977.499,926.561L977.499,943.172C977.499,943.37 977.698,943.172 977.499,943.172L969.194,943.172C969.083,943.172 968.995,943.26 968.995,943.37L968.995,960.378C968.995,960.489 969.083,960.576 969.194,960.576L977.499,960.576C977.698,960.576 977.499,960.378 977.499,960.576L977.499,991.843C977.499,991.953 977.587,992.041 977.698,992.041Z" style="fill:none;fill-rule:nonzero;stroke:black;stroke-width:0.4px;"/>
            </g>
            <g id="p-2">
                <path d="M977.698,771.392L1000.59,771.392C1000.7,771.392 1000.79,771.304 1000.79,771.194L1000.79,762.888C1000.79,762.69 1000.59,762.888 1000.79,762.888L1017.4,762.888C1017.6,762.888 1017.4,762.69 1017.4,762.888L1017.4,771.194C1017.4,771.304 1017.49,771.392 1017.6,771.392L1034.6,771.392C1034.71,771.392 1034.8,771.304 1034.8,771.194L1034.8,762.888C1034.8,762.69 1034.6,762.888 1034.8,762.888L1051.41,762.888C1051.61,762.888 1051.41,762.69 1051.41,762.888L1051.41,771.194C1051.41,771.304 1051.5,771.392 1051.61,771.392L1068.62,771.392C1068.73,771.392 1068.82,771.304 1068.82,771.194L1068.82,762.888C1068.82,762.69 1068.62,762.888 1068.82,762.888L1085.43,762.888C1085.63,762.888 1085.43,762.69 1085.43,762.888L1085.43,771.194C1085.43,771.304 1085.52,771.392 1085.63,771.392L1102.63,771.392C1102.75,771.392 1102.83,771.304 1102.83,771.194L1102.83,762.888C1102.83,762.69 1102.63,762.888 1102.83,762.888L1119.44,762.888C1119.64,762.888 1119.44,762.69 1119.44,762.888L1119.44,771.194C1119.44,771.304 1119.53,771.392 1119.64,771.392L1136.65,771.392C1136.76,771.392 1136.85,771.304 1136.85,771.194L1136.85,762.888C1136.85,762.69 1136.65,762.888 1136.85,762.888L1153.46,762.888C1153.66,762.888 1153.46,762.69 1153.46,762.888L1153.46,771.194C1153.46,771.304 1153.55,771.392 1153.66,771.392L1170.67,771.392C1170.78,771.392 1170.87,771.304 1170.87,771.194L1170.87,762.888C1170.87,762.69 1170.67,762.888 1170.87,762.888L1187.48,762.888C1187.67,762.888 1187.48,762.69 1187.48,762.888L1187.48,771.194C1187.48,771.304 1187.56,771.392 1187.67,771.392L1204.68,771.392C1204.79,771.392 1204.88,771.304 1204.88,771.194L1204.88,762.888C1204.88,762.69 1204.68,762.888 1204.88,762.888L1221.49,762.888C1221.69,762.888 1221.49,762.69 1221.49,762.888L1221.49,771.194C1221.49,771.304 1221.58,771.392 1221.69,771.392L1238.7,771.392C1238.81,771.392 1238.9,771.304 1238.9,771.194L1238.9,762.888C1238.9,762.69 1238.7,762.888 1238.9,762.888L1255.51,762.888C1255.71,762.888 1255.51,762.69 1255.51,762.888L1255.51,771.194C1255.51,771.304 1255.6,771.392 1255.71,771.392L1272.71,771.392C1272.82,771.392 1272.91,771.304 1272.91,771.194L1272.91,762.888C1272.91,762.69 1272.71,762.888 1272.91,762.888L1289.52,762.888C1289.72,762.888 1289.52,762.69 1289.52,762.888L1289.52,771.194C1289.52,771.304 1289.61,771.392 1289.72,771.392L1306.73,771.392C1306.84,771.392 1306.93,771.304 1306.93,771.194L1306.93,762.888C1306.93,762.69 1306.73,762.888 1306.93,762.888L1323.54,762.888C1323.74,762.888 1323.54,762.69 1323.54,762.888L1323.54,771.194C1323.54,771.304 1323.63,771.392 1323.74,771.392L1340.75,771.392C1340.86,771.392 1340.94,771.304 1340.94,771.194L1340.94,762.888C1340.94,762.69 1340.75,762.888 1340.94,762.888L1357.55,762.888C1357.75,762.888 1357.55,762.69 1357.55,762.888L1357.55,771.194C1357.55,771.304 1357.64,771.392 1357.75,771.392L1374.76,771.392C1374.87,771.392 1374.96,771.304 1374.96,771.194L1374.96,762.888C1374.96,762.69 1374.76,762.888 1374.96,762.888L1391.57,762.888C1391.77,762.888 1391.57,762.69 1391.57,762.888L1391.57,771.194C1391.57,771.304 1391.66,771.392 1391.77,771.392L1408.78,771.392C1408.89,771.392 1408.98,771.304 1408.98,771.194L1408.98,762.888C1408.98,762.69 1408.78,762.888 1408.98,762.888L1425.59,762.888C1425.78,762.888 1425.59,762.69 1425.59,762.888L1425.59,771.194C1425.59,771.304 1425.67,771.392 1425.78,771.392L1442.79,771.392C1442.9,771.392 1442.99,771.304 1442.99,771.194L1442.99,762.888C1442.99,762.69 1442.79,762.888 1442.99,762.888L1459.6,762.888C1459.8,762.888 1459.6,762.69 1459.6,762.888L1459.6,771.194C1459.6,771.304 1459.69,771.392 1459.8,771.392L1482.69,771.392C1482.8,771.392 1482.89,771.304 1482.89,771.194L1482.89,739.928C1482.89,739.729 1482.69,739.928 1482.89,739.928L1491.19,739.928C1491.3,739.928 1491.39,739.84 1491.39,739.729L1491.39,722.721C1491.39,722.611 1491.3,722.523 1491.19,722.523L1482.89,722.523C1482.69,722.523 1482.89,722.721 1482.89,722.523L1482.89,705.912C1482.89,705.713 1482.69,705.912 1482.89,705.912L1491.19,705.912C1491.3,705.912 1491.39,705.824 1491.39,705.713L1491.39,688.706C1491.39,688.595 1491.3,688.507 1491.19,688.507L1482.89,688.507C1482.69,688.507 1482.89,688.706 1482.89,688.507L1482.89,671.896C1482.89,671.698 1482.69,671.896 1482.89,671.896L1491.19,671.896C1491.3,671.896 1491.39,671.808 1491.39,671.698L1491.39,654.69C1491.39,654.579 1491.3,654.491 1491.19,654.491L1482.89,654.491C1482.69,654.491 1482.89,654.69 1482.89,654.491L1482.89,637.88C1482.89,637.682 1482.69,637.88 1482.89,637.88L1491.19,637.88C1491.3,637.88 1491.39,637.792 1491.39,637.682L1491.39,620.674C1491.39,620.563 1491.3,620.476 1491.19,620.476L1482.89,620.476C1482.69,620.476 1482.89,620.674 1482.89,620.476L1482.89,603.865C1482.89,603.666 1482.69,603.865 1482.89,603.865L1491.19,603.865C1491.3,603.865 1491.39,603.777 1491.39,603.666L1491.39,586.658C1491.39,586.548 1491.3,586.46 1491.19,586.46L1482.89,586.46C1482.69,586.46 1482.89,586.658 1482.89,586.46L1482.89,555.194C1482.89,555.083 1482.8,554.995 1482.69,554.995L1459.8,554.995C1459.69,554.995 1459.6,555.083 1459.6,555.194L1459.6,563.499C1459.6,563.698 1459.8,563.499 1459.6,563.499L1442.99,563.499C1442.79,563.499 1442.99,563.698 1442.99,563.499L1442.99,555.194C1442.99,555.083 1442.9,554.995 1442.79,554.995L1425.78,554.995C1425.67,554.995 1425.59,555.083 1425.59,555.194L1425.59,563.499C1425.59,563.698 1425.78,563.499 1425.59,563.499L1408.98,563.499C1408.78,563.499 1408.98,563.698 1408.98,563.499L1408.98,555.194C1408.98,555.083 1408.89,554.995 1408.78,554.995L1391.77,554.995C1391.66,554.995 1391.57,555.083 1391.57,555.194L1391.57,563.499C1391.57,563.698 1391.77,563.499 1391.57,563.499L1374.96,563.499C1374.76,563.499 1374.96,563.698 1374.96,563.499L1374.96,555.194C1374.96,555.083 1374.87,554.995 1374.76,554.995L1357.75,554.995C1357.64,554.995 1357.55,555.083 1357.55,555.194L1357.55,563.499C1357.55,563.698 1357.75,563.499 1357.55,563.499L1340.94,563.499C1340.75,563.499 1340.94,563.698 1340.94,563.499L1340.94,555.194C1340.94,555.083 1340.86,554.995 1340.75,554.995L1323.74,554.995C1323.63,554.995 1323.54,555.083 1323.54,555.194L1323.54,563.499C1323.54,563.698 1323.74,563.499 1323.54,563.499L1306.93,563.499C1306.73,563.499 1306.93,563.698 1306.93,563.499L1306.93,555.194C1306.93,555.083 1306.84,554.995 1306.73,554.995L1289.72,554.995C1289.61,554.995 1289.52,555.083 1289.52,555.194L1289.52,563.499C1289.52,563.698 1289.72,563.499 1289.52,563.499L1272.91,563.499C1272.71,563.499 1272.91,563.698 1272.91,563.499L1272.91,555.194C1272.91,555.083 1272.82,554.995 1272.71,554.995L1255.71,554.995C1255.6,554.995 1255.51,555.083 1255.51,555.194L1255.51,563.499C1255.51,563.698 1255.71,563.499 1255.51,563.499L1238.9,563.499C1238.7,563.499 1238.9,563.698 1238.9,563.499L1238.9,555.194C1238.9,555.083 1238.81,554.995 1238.7,554.995L1221.69,554.995C1221.58,554.995 1221.49,555.083 1221.49,555.194L1221.49,563.499C1221.49,563.698 1221.69,563.499 1221.49,563.499L1204.88,563.499C1204.68,563.499 1204.88,563.698 1204.88,563.499L1204.88,555.194C1204.88,555.083 1204.79,554.995 1204.68,554.995L1187.67,554.995C1187.56,554.995 1187.48,555.083 1187.48,555.194L1187.48,563.499C1187.48,563.698 1187.67,563.499 1187.48,563.499L1170.87,563.499C1170.67,563.499 1170.87,563.698 1170.87,563.499L1170.87,555.194C1170.87,555.083 1170.78,554.995 1170.67,554.995L1153.66,554.995C1153.55,554.995 1153.46,555.083 1153.46,555.194L1153.46,563.499C1153.46,563.698 1153.66,563.499 1153.46,563.499L1136.85,563.499C1136.65,563.499 1136.85,563.698 1136.85,563.499L1136.85,555.194C1136.85,555.083 1136.76,554.995 1136.65,554.995L1119.64,554.995C1119.53,554.995 1119.44,555.083 1119.44,555.194L1119.44,563.499C1119.44,563.698 1119.64,563.499 1119.44,563.499L1102.83,563.499C1102.63,563.499 1102.83,563.698 1102.83,563.499L1102.83,555.194C1102.83,555.083 1102.75,554.995 1102.63,554.995L1085.63,554.995C1085.52,554.995 1085.43,555.083 1085.43,555.194L1085.43,563.499C1085.43,563.698 1085.63,563.499 1085.43,563.499L1068.82,563.499C1068.62,563.499 1068.82,563.698 1068.82,563.499L1068.82,555.194C1068.82,555.083 1068.73,554.995 1068.62,554.995L1051.61,554.995C1051.5,554.995 1051.41,555.083 1051.41,555.194L1051.41,563.499C1051.41,563.698 1051.61,563.499 1051.41,563.499L1034.8,563.499C1034.6,563.499 1034.8,563.698 1034.8,563.499L1034.8,555.194C1034.8,555.083 1034.71,554.995 1034.6,554.995L1017.6,554.995C1017.49,554.995 1017.4,555.083 1017.4,555.194L1017.4,563.499C1017.4,563.698 1017.6,563.499 1017.4,563.499L1000.79,563.499C1000.59,563.499 1000.79,563.698 1000.79,563.499L1000.79,555.194C1000.79,555.083 1000.7,554.995 1000.59,554.995L977.698,554.995C977.587,554.995 977.499,555.083 977.499,555.194L977.499,586.46C977.499,586.658 977.698,586.46 977.499,586.46L969.194,586.46C969.083,586.46 968.995,586.548 968.995,586.658L968.995,603.666C968.995,603.777 969.083,603.865 969.194,603.865L977.499,603.865C977.698,603.865 977.499,603.666 977.499,603.865L977.499,620.476C977.499,620.674 977.698,620.476 977.499,620.476L969.194,620.476C969.083,620.476 968.995,620.563 968.995,620.674L968.995,637.682C968.995,637.792 969.083,637.88 969.194,637.88L977.499,637.88C977.698,637.88 977.499,637.682 977.499,637.88L977.499,654.491C977.499,654.69 977.698,654.491 977.499,654.491L969.194,654.491C969.083,654.491 968.995,654.579 968.995,654.69L968.995,671.698C968.995,671.808 969.083,671.896 969.194,671.896L977.499,671.896C977.698,671.896 977.499,671.698 977.499,671.896L977.499,688.507C977.499,688.706 977.698,688.507 977.499,688.507L969.194,688.507C969.083,688.507 968.995,688.595 968.995,688.706L968.995,705.713C968.995,705.824 969.083,705.912 969.194,705.912L977.499,705.912C977.698,705.912 977.499,705.713 977.499,705.912L977.499,722.523C977.499,722.721 977.698,722.523 977.499,722.523L969.194,722.523C969.083,722.523 968.995,722.611 968.995,722.721L968.995,739.729C968.995,739.84 969.083,739.928 969.194,739.928L977.499,739.928C977.698,739.928 977.499,739.729 977.499,739.928L977.499,771.194C977.499,771.304 977.587,771.392 977.698,771.392Z" style="fill:none;fill-rule:nonzero;stroke:black;stroke-width:0.4px;"/>
            </g>
            <g id="p-3">
                <path d="M28.545,771.392L62.844,771.392C62.955,771.392 63.043,771.304 63.043,771.194L63.043,762.888C63.043,762.69 62.844,762.888 63.043,762.888L79.654,762.888C79.852,762.888 79.654,762.69 79.654,762.888L79.654,771.194C79.654,771.304 79.741,771.392 79.852,771.392L96.86,771.392C96.97,771.392 97.058,771.304 97.058,771.194L97.058,762.888C97.058,762.69 96.86,762.888 97.058,762.888L113.669,762.888C113.868,762.888 113.669,762.69 113.669,762.888L113.669,771.194C113.669,771.304 113.757,771.392 113.868,771.392L130.876,771.392C130.986,771.392 131.074,771.304 131.074,771.194L131.074,762.888C131.074,762.69 130.876,762.888 131.074,762.888L147.685,762.888C147.883,762.888 147.685,762.69 147.685,762.888L147.685,771.194C147.685,771.304 147.773,771.392 147.883,771.392L164.891,771.392C165.002,771.392 165.09,771.304 165.09,771.194L165.09,762.888C165.09,762.69 164.891,762.888 165.09,762.888L181.701,762.888C181.899,762.888 181.701,762.69 181.701,762.888L181.701,771.194C181.701,771.304 181.789,771.392 181.899,771.392L198.907,771.392C199.018,771.392 199.106,771.304 199.106,771.194L199.106,762.888C199.106,762.69 198.907,762.888 199.106,762.888L215.717,762.888C215.915,762.888 215.717,762.69 215.717,762.888L215.717,771.194C215.717,771.304 215.804,771.392 215.915,771.392L232.923,771.392C233.033,771.392 233.121,771.304 233.121,771.194L233.121,762.888C233.121,762.69 232.923,762.888 233.121,762.888L249.732,762.888C249.931,762.888 249.732,762.69 249.732,762.888L249.732,771.194C249.732,771.304 249.82,771.392 249.931,771.392L266.939,771.392C267.049,771.392 267.137,771.304 267.137,771.194L267.137,762.888C267.137,762.69 266.939,762.888 267.137,762.888L283.748,762.888C283.946,762.888 283.748,762.69 283.748,762.888L283.748,771.194C283.748,771.304 283.836,771.392 283.946,771.392L300.954,771.392C301.065,771.392 301.153,771.304 301.153,771.194L301.153,762.888C301.153,762.69 300.954,762.888 301.153,762.888L317.764,762.888C317.962,762.888 317.764,762.69 317.764,762.888L317.764,771.194C317.764,771.304 317.852,771.392 317.962,771.392L334.97,771.392C335.081,771.392 335.169,771.304 335.169,771.194L335.169,762.888C335.169,762.69 334.97,762.888 335.169,762.888L351.78,762.888C351.978,762.888 351.78,762.69 351.78,762.888L351.78,771.194C351.78,771.304 351.867,771.392 351.978,771.392L368.986,771.392C369.096,771.392 369.184,771.304 369.184,771.194L369.184,762.888C369.184,762.69 368.986,762.888 369.184,762.888L385.795,762.888C385.994,762.888 385.795,762.69 385.795,762.888L385.795,771.194C385.795,771.304 385.883,771.392 385.994,771.392L403.002,771.392C403.112,771.392 403.2,771.304 403.2,771.194L403.2,762.888C403.2,762.69 403.002,762.888 403.2,762.888L419.811,762.888C420.009,762.888 419.811,762.69 419.811,762.888L419.811,771.194C419.811,771.304 419.899,771.392 420.009,771.392L437.017,771.392C437.128,771.392 437.216,771.304 437.216,771.194L437.216,762.888C437.216,762.69 437.017,762.888 437.216,762.888L453.827,762.888C454.025,762.888 453.827,762.69 453.827,762.888L453.827,771.194C453.827,771.304 453.915,771.392 454.025,771.392L471.033,771.392C471.144,771.392 471.231,771.304 471.231,771.194L471.231,762.888C471.231,762.69 471.033,762.888 471.231,762.888L487.843,762.888C488.041,762.888 487.843,762.69 487.843,762.888L487.843,771.194C487.843,771.304 487.93,771.392 488.041,771.392L505.049,771.392C505.159,771.392 505.247,771.304 505.247,771.194L505.247,762.888C505.247,762.69 505.049,762.888 505.247,762.888L521.858,762.888C522.057,762.888 521.858,762.69 521.858,762.888L521.858,771.194C521.858,771.304 521.946,771.392 522.057,771.392L539.065,771.392C539.175,771.392 539.263,771.304 539.263,771.194L539.263,762.888C539.263,762.69 539.065,762.888 539.263,762.888L555.874,762.888C556.072,762.888 555.874,762.69 555.874,762.888L555.874,771.194C555.874,771.304 555.962,771.392 556.072,771.392L573.08,771.392C573.191,771.392 573.279,771.304 573.279,771.194L573.279,762.888C573.279,762.69 573.08,762.888 573.279,762.888L589.89,762.888C590.088,762.888 589.89,762.69 589.89,762.888L589.89,771.194C589.89,771.304 589.978,771.392 590.088,771.392L607.096,771.392C607.207,771.392 607.294,771.304 607.294,771.194L607.294,762.888C607.294,762.69 607.096,762.888 607.294,762.888L623.906,762.888C624.104,762.888 623.906,762.69 623.906,762.888L623.906,771.194C623.906,771.304 623.993,771.392 624.104,771.392L641.112,771.392C641.222,771.392 641.31,771.304 641.31,771.194L641.31,762.888C641.31,762.69 641.112,762.888 641.31,762.888L657.921,762.888C658.12,762.888 657.921,762.69 657.921,762.888L657.921,771.194C657.921,771.304 658.009,771.392 658.12,771.392L675.128,771.392C675.238,771.392 675.326,771.304 675.326,771.194L675.326,762.888C675.326,762.69 675.128,762.888 675.326,762.888L691.937,762.888C692.135,762.888 691.937,762.69 691.937,762.888L691.937,771.194C691.937,771.304 692.025,771.392 692.135,771.392L709.143,771.392C709.254,771.392 709.342,771.304 709.342,771.194L709.342,762.888C709.342,762.69 709.143,762.888 709.342,762.888L725.953,762.888C726.151,762.888 725.953,762.69 725.953,762.888L725.953,771.194C725.953,771.304 726.041,771.392 726.151,771.392L743.159,771.392C743.27,771.392 743.357,771.304 743.357,771.194L743.357,762.888C743.357,762.69 743.159,762.888 743.357,762.888L759.969,762.888C760.167,762.888 759.969,762.69 759.969,762.888L759.969,771.194C759.969,771.304 760.056,771.392 760.167,771.392L777.175,771.392C777.285,771.392 777.373,771.304 777.373,771.194L777.373,762.888C777.373,762.69 777.175,762.888 777.373,762.888L793.984,762.888C794.183,762.888 793.984,762.69 793.984,762.888L793.984,771.194C793.984,771.304 794.072,771.392 794.183,771.392L811.191,771.392C811.301,771.392 811.389,771.304 811.389,771.194L811.389,762.888C811.389,762.69 811.191,762.888 811.389,762.888L828,762.888C828.198,762.888 828,762.69 828,762.888L828,771.194C828,771.304 828.088,771.392 828.198,771.392L845.206,771.392C845.317,771.392 845.405,771.304 845.405,771.194L845.405,762.888C845.405,762.69 845.206,762.888 845.405,762.888L862.016,762.888C862.214,762.888 862.016,762.69 862.016,762.888L862.016,771.194C862.016,771.304 862.104,771.392 862.214,771.392L879.222,771.392C879.333,771.392 879.42,771.304 879.42,771.194L879.42,762.888C879.42,762.69 879.222,762.888 879.42,762.888L896.031,762.888C896.23,762.888 896.031,762.69 896.031,762.888L896.031,771.194C896.031,771.304 896.119,771.392 896.23,771.392L913.238,771.392C913.348,771.392 913.436,771.304 913.436,771.194L913.436,762.888C913.436,762.69 913.238,762.888 913.436,762.888L930.047,762.888C930.246,762.888 930.047,762.69 930.047,762.888L930.047,771.194C930.047,771.304 930.135,771.392 930.246,771.392L964.545,771.392C964.655,771.392 964.743,771.304 964.743,771.194L964.743,739.729C964.743,739.619 964.655,739.531 964.545,739.531L956.239,739.531C956.041,739.531 956.239,739.729 956.239,739.531L956.239,722.92C956.239,722.721 956.041,722.92 956.239,722.92L964.545,722.92C964.655,722.92 964.743,722.832 964.743,722.721L964.743,705.713C964.743,705.603 964.655,705.515 964.545,705.515L956.239,705.515C956.041,705.515 956.239,705.713 956.239,705.515L956.239,688.904C956.239,688.706 956.041,688.904 956.239,688.904L964.545,688.904C964.655,688.904 964.743,688.816 964.743,688.706L964.743,671.698C964.743,671.587 964.655,671.499 964.545,671.499L956.239,671.499C956.041,671.499 956.239,671.698 956.239,671.499L956.239,654.888C956.239,654.69 956.041,654.888 956.239,654.888L964.545,654.888C964.655,654.888 964.743,654.8 964.743,654.69L964.743,637.682C964.743,637.571 964.655,637.483 964.545,637.483L956.239,637.483C956.041,637.483 956.239,637.682 956.239,637.483L956.239,620.872C956.239,620.674 956.041,620.872 956.239,620.872L964.545,620.872C964.655,620.872 964.743,620.785 964.743,620.674L964.743,603.666C964.743,603.556 964.655,603.468 964.545,603.468L956.239,603.468C956.041,603.468 956.239,603.666 956.239,603.468L956.239,586.857C956.239,586.658 956.041,586.857 956.239,586.857L964.545,586.857C964.655,586.857 964.743,586.769 964.743,586.658L964.743,555.194C964.743,555.083 964.655,554.995 964.545,554.995L930.246,554.995C930.135,554.995 930.047,555.083 930.047,555.194L930.047,563.499C930.047,563.698 930.246,563.499 930.047,563.499L913.436,563.499C913.238,563.499 913.436,563.698 913.436,563.499L913.436,555.194C913.436,555.083 913.348,554.995 913.238,554.995L896.23,554.995C896.119,554.995 896.031,555.083 896.031,555.194L896.031,563.499C896.031,563.698 896.23,563.499 896.031,563.499L879.42,563.499C879.222,563.499 879.42,563.698 879.42,563.499L879.42,555.194C879.42,555.083 879.333,554.995 879.222,554.995L862.214,554.995C862.104,554.995 862.016,555.083 862.016,555.194L862.016,563.499C862.016,563.698 862.214,563.499 862.016,563.499L845.405,563.499C845.206,563.499 845.405,563.698 845.405,563.499L845.405,555.194C845.405,555.083 845.317,554.995 845.206,554.995L828.198,554.995C828.088,554.995 828,555.083 828,555.194L828,563.499C828,563.698 828.198,563.499 828,563.499L811.389,563.499C811.191,563.499 811.389,563.698 811.389,563.499L811.389,555.194C811.389,555.083 811.301,554.995 811.191,554.995L794.183,554.995C794.072,554.995 793.984,555.083 793.984,555.194L793.984,563.499C793.984,563.698 794.183,563.499 793.984,563.499L777.373,563.499C777.175,563.499 777.373,563.698 777.373,563.499L777.373,555.194C777.373,555.083 777.285,554.995 777.175,554.995L760.167,554.995C760.056,554.995 759.969,555.083 759.969,555.194L759.969,563.499C759.969,563.698 760.167,563.499 759.969,563.499L743.357,563.499C743.159,563.499 743.357,563.698 743.357,563.499L743.357,555.194C743.357,555.083 743.27,554.995 743.159,554.995L726.151,554.995C726.041,554.995 725.953,555.083 725.953,555.194L725.953,563.499C725.953,563.698 726.151,563.499 725.953,563.499L709.342,563.499C709.143,563.499 709.342,563.698 709.342,563.499L709.342,555.194C709.342,555.083 709.254,554.995 709.143,554.995L692.135,554.995C692.025,554.995 691.937,555.083 691.937,555.194L691.937,563.499C691.937,563.698 692.135,563.499 691.937,563.499L675.326,563.499C675.128,563.499 675.326,563.698 675.326,563.499L675.326,555.194C675.326,555.083 675.238,554.995 675.128,554.995L658.12,554.995C658.009,554.995 657.921,555.083 657.921,555.194L657.921,563.499C657.921,563.698 658.12,563.499 657.921,563.499L641.31,563.499C641.112,563.499 641.31,563.698 641.31,563.499L641.31,555.194C641.31,555.083 641.222,554.995 641.112,554.995L624.104,554.995C623.993,554.995 623.906,555.083 623.906,555.194L623.906,563.499C623.906,563.698 624.104,563.499 623.906,563.499L607.294,563.499C607.096,563.499 607.294,563.698 607.294,563.499L607.294,555.194C607.294,555.083 607.207,554.995 607.096,554.995L590.088,554.995C589.978,554.995 589.89,555.083 589.89,555.194L589.89,563.499C589.89,563.698 590.088,563.499 589.89,563.499L573.279,563.499C573.08,563.499 573.279,563.698 573.279,563.499L573.279,555.194C573.279,555.083 573.191,554.995 573.08,554.995L556.072,554.995C555.962,554.995 555.874,555.083 555.874,555.194L555.874,563.499C555.874,563.698 556.072,563.499 555.874,563.499L539.263,563.499C539.065,563.499 539.263,563.698 539.263,563.499L539.263,555.194C539.263,555.083 539.175,554.995 539.065,554.995L522.057,554.995C521.946,554.995 521.858,555.083 521.858,555.194L521.858,563.499C521.858,563.698 522.057,563.499 521.858,563.499L505.247,563.499C505.049,563.499 505.247,563.698 505.247,563.499L505.247,555.194C505.247,555.083 505.159,554.995 505.049,554.995L488.041,554.995C487.93,554.995 487.843,555.083 487.843,555.194L487.843,563.499C487.843,563.698 488.041,563.499 487.843,563.499L471.231,563.499C471.033,563.499 471.231,563.698 471.231,563.499L471.231,555.194C471.231,555.083 471.144,554.995 471.033,554.995L454.025,554.995C453.915,554.995 453.827,555.083 453.827,555.194L453.827,563.499C453.827,563.698 454.025,563.499 453.827,563.499L437.216,563.499C437.017,563.499 437.216,563.698 437.216,563.499L437.216,555.194C437.216,555.083 437.128,554.995 437.017,554.995L420.009,554.995C419.899,554.995 419.811,555.083 419.811,555.194L419.811,563.499C419.811,563.698 420.009,563.499 419.811,563.499L403.2,563.499C403.002,563.499 403.2,563.698 403.2,563.499L403.2,555.194C403.2,555.083 403.112,554.995 403.002,554.995L385.994,554.995C385.883,554.995 385.795,555.083 385.795,555.194L385.795,563.499C385.795,563.698 385.994,563.499 385.795,563.499L369.184,563.499C368.986,563.499 369.184,563.698 369.184,563.499L369.184,555.194C369.184,555.083 369.096,554.995 368.986,554.995L351.978,554.995C351.867,554.995 351.78,555.083 351.78,555.194L351.78,563.499C351.78,563.698 351.978,563.499 351.78,563.499L335.169,563.499C334.97,563.499 335.169,563.698 335.169,563.499L335.169,555.194C335.169,555.083 335.081,554.995 334.97,554.995L317.962,554.995C317.852,554.995 317.764,555.083 317.764,555.194L317.764,563.499C317.764,563.698 317.962,563.499 317.764,563.499L301.153,563.499C300.954,563.499 301.153,563.698 301.153,563.499L301.153,555.194C301.153,555.083 301.065,554.995 300.954,554.995L283.946,554.995C283.836,554.995 283.748,555.083 283.748,555.194L283.748,563.499C283.748,563.698 283.946,563.499 283.748,563.499L267.137,563.499C266.939,563.499 267.137,563.698 267.137,563.499L267.137,555.194C267.137,555.083 267.049,554.995 266.939,554.995L249.931,554.995C249.82,554.995 249.732,555.083 249.732,555.194L249.732,563.499C249.732,563.698 249.931,563.499 249.732,563.499L233.121,563.499C232.923,563.499 233.121,563.698 233.121,563.499L233.121,555.194C233.121,555.083 233.033,554.995 232.923,554.995L215.915,554.995C215.804,554.995 215.717,555.083 215.717,555.194L215.717,563.499C215.717,563.698 215.915,563.499 215.717,563.499L199.106,563.499C198.907,563.499 199.106,563.698 199.106,563.499L199.106,555.194C199.106,555.083 199.018,554.995 198.907,554.995L181.899,554.995C181.789,554.995 181.701,555.083 181.701,555.194L181.701,563.499C181.701,563.698 181.899,563.499 181.701,563.499L165.09,563.499C164.891,563.499 165.09,563.698 165.09,563.499L165.09,555.194C165.09,555.083 165.002,554.995 164.891,554.995L147.883,554.995C147.773,554.995 147.685,555.083 147.685,555.194L147.685,563.499C147.685,563.698 147.883,563.499 147.685,563.499L131.074,563.499C130.876,563.499 131.074,563.698 131.074,563.499L131.074,555.194C131.074,555.083 130.986,554.995 130.876,554.995L113.868,554.995C113.757,554.995 113.669,555.083 113.669,555.194L113.669,563.499C113.669,563.698 113.868,563.499 113.669,563.499L97.058,563.499C96.86,563.499 97.058,563.698 97.058,563.499L97.058,555.194C97.058,555.083 96.97,554.995 96.86,554.995L79.852,554.995C79.741,554.995 79.654,555.083 79.654,555.194L79.654,563.499C79.654,563.698 79.852,563.499 79.654,563.499L63.043,563.499C62.844,563.499 63.043,563.698 63.043,563.499L63.043,555.194C63.043,555.083 62.955,554.995 62.844,554.995L28.545,554.995C28.434,554.995 28.346,555.083 28.346,555.194L28.346,586.658C28.346,586.769 28.434,586.857 28.545,586.857L36.85,586.857C37.049,586.857 36.85,586.658 36.85,586.857L36.85,603.468C36.85,603.666 37.049,603.468 36.85,603.468L28.545,603.468C28.434,603.468 28.346,603.556 28.346,603.666L28.346,620.674C28.346,620.785 28.434,620.872 28.545,620.872L36.85,620.872C37.049,620.872 36.85,620.674 36.85,620.872L36.85,637.483C36.85,637.682 37.049,637.483 36.85,637.483L28.545,637.483C28.434,637.483 28.346,637.571 28.346,637.682L28.346,654.69C28.346,654.8 28.434,654.888 28.545,654.888L36.85,654.888C37.049,654.888 36.85,654.69 36.85,654.888L36.85,671.499C36.85,671.698 37.049,671.499 36.85,671.499L28.545,671.499C28.434,671.499 28.346,671.587 28.346,671.698L28.346,688.706C28.346,688.816 28.434,688.904 28.545,688.904L36.85,688.904C37.049,688.904 36.85,688.706 36.85,688.904L36.85,705.515C36.85,705.713 37.049,705.515 36.85,705.515L28.545,705.515C28.434,705.515 28.346,705.603 28.346,705.713L28.346,722.721C28.346,722.832 28.434,722.92 28.545,722.92L36.85,722.92C37.049,722.92 36.85,722.721 36.85,722.92L36.85,739.531C36.85,739.729 37.049,739.531 36.85,739.531L28.545,739.531C28.434,739.531 28.346,739.619 28.346,739.729L28.346,771.194C28.346,771.304 28.434,771.392 28.545,771.392Z" style="fill:none;fill-rule:nonzero;stroke:black;stroke-width:0.4px;"/>
            </g>
            <g id="p-4">
                <path d="M37.049,542.239L62.646,542.239C62.844,542.239 62.646,542.041 62.646,542.239L62.646,550.545C62.646,550.655 62.734,550.743 62.844,550.743L79.852,550.743C79.963,550.743 80.05,550.655 80.05,550.545L80.05,542.239C80.05,542.041 79.852,542.239 80.05,542.239L96.661,542.239C96.86,542.239 96.661,542.041 96.661,542.239L96.661,550.545C96.661,550.655 96.749,550.743 96.86,550.743L113.868,550.743C113.978,550.743 114.066,550.655 114.066,550.545L114.066,542.239C114.066,542.041 113.868,542.239 114.066,542.239L130.677,542.239C130.876,542.239 130.677,542.041 130.677,542.239L130.677,550.545C130.677,550.655 130.765,550.743 130.876,550.743L147.883,550.743C147.994,550.743 148.082,550.655 148.082,550.545L148.082,542.239C148.082,542.041 147.883,542.239 148.082,542.239L164.693,542.239C164.891,542.239 164.693,542.041 164.693,542.239L164.693,550.545C164.693,550.655 164.781,550.743 164.891,550.743L181.899,550.743C182.01,550.743 182.098,550.655 182.098,550.545L182.098,542.239C182.098,542.041 181.899,542.239 182.098,542.239L198.709,542.239C198.907,542.239 198.709,542.041 198.709,542.239L198.709,550.545C198.709,550.655 198.797,550.743 198.907,550.743L215.915,550.743C216.026,550.743 216.113,550.655 216.113,550.545L216.113,542.239C216.113,542.041 215.915,542.239 216.113,542.239L232.724,542.239C232.923,542.239 232.724,542.041 232.724,542.239L232.724,550.545C232.724,550.655 232.812,550.743 232.923,550.743L249.931,550.743C250.041,550.743 250.129,550.655 250.129,550.545L250.129,542.239C250.129,542.041 249.931,542.239 250.129,542.239L266.74,542.239C266.939,542.239 266.74,542.041 266.74,542.239L266.74,550.545C266.74,550.655 266.828,550.743 266.939,550.743L283.946,550.743C284.057,550.743 284.145,550.655 284.145,550.545L284.145,542.239C284.145,542.041 283.946,542.239 284.145,542.239L300.756,542.239C300.954,542.239 300.756,542.041 300.756,542.239L300.756,550.545C300.756,550.655 300.844,550.743 300.954,550.743L317.962,550.743C318.073,550.743 318.161,550.655 318.161,550.545L318.161,542.239C318.161,542.041 317.962,542.239 318.161,542.239L334.772,542.239C334.97,542.239 334.772,542.041 334.772,542.239L334.772,550.545C334.772,550.655 334.86,550.743 334.97,550.743L351.978,550.743C352.089,550.743 352.176,550.655 352.176,550.545L352.176,542.239C352.176,542.041 351.978,542.239 352.176,542.239L368.787,542.239C368.986,542.239 368.787,542.041 368.787,542.239L368.787,550.545C368.787,550.655 368.875,550.743 368.986,550.743L385.994,550.743C386.104,550.743 386.192,550.655 386.192,550.545L386.192,542.239C386.192,542.041 385.994,542.239 386.192,542.239L402.803,542.239C403.002,542.239 402.803,542.041 402.803,542.239L402.803,550.545C402.803,550.655 402.891,550.743 403.002,550.743L420.009,550.743C420.12,550.743 420.208,550.655 420.208,550.545L420.208,542.239C420.208,542.041 420.009,542.239 420.208,542.239L436.819,542.239C437.017,542.239 436.819,542.041 436.819,542.239L436.819,550.545C436.819,550.655 436.907,550.743 437.017,550.743L454.025,550.743C454.136,550.743 454.224,550.655 454.224,550.545L454.224,542.239C454.224,542.041 454.025,542.239 454.224,542.239L470.835,542.239C471.033,542.239 470.835,542.041 470.835,542.239L470.835,550.545C470.835,550.655 470.923,550.743 471.033,550.743L488.041,550.743C488.151,550.743 488.239,550.655 488.239,550.545L488.239,542.239C488.239,542.041 488.041,542.239 488.239,542.239L504.85,542.239C505.049,542.239 504.85,542.041 504.85,542.239L504.85,550.545C504.85,550.655 504.938,550.743 505.049,550.743L522.057,550.743C522.167,550.743 522.255,550.655 522.255,550.545L522.255,542.239C522.255,542.041 522.057,542.239 522.255,542.239L538.866,542.239C539.065,542.239 538.866,542.041 538.866,542.239L538.866,550.545C538.866,550.655 538.954,550.743 539.065,550.743L556.072,550.743C556.183,550.743 556.271,550.655 556.271,550.545L556.271,542.239C556.271,542.041 556.072,542.239 556.271,542.239L572.882,542.239C573.08,542.239 572.882,542.041 572.882,542.239L572.882,550.545C572.882,550.655 572.97,550.743 573.08,550.743L590.088,550.743C590.199,550.743 590.287,550.655 590.287,550.545L590.287,542.239C590.287,542.041 590.088,542.239 590.287,542.239L606.898,542.239C607.096,542.239 606.898,542.041 606.898,542.239L606.898,550.545C606.898,550.655 606.986,550.743 607.096,550.743L624.104,550.743C624.214,550.743 624.302,550.655 624.302,550.545L624.302,542.239C624.302,542.041 624.104,542.239 624.302,542.239L640.913,542.239C641.112,542.239 640.913,542.041 640.913,542.239L640.913,550.545C640.913,550.655 641.001,550.743 641.112,550.743L658.12,550.743C658.23,550.743 658.318,550.655 658.318,550.545L658.318,542.239C658.318,542.041 658.12,542.239 658.318,542.239L674.929,542.239C675.128,542.239 674.929,542.041 674.929,542.239L674.929,550.545C674.929,550.655 675.017,550.743 675.128,550.743L692.135,550.743C692.246,550.743 692.334,550.655 692.334,550.545L692.334,542.239C692.334,542.041 692.135,542.239 692.334,542.239L708.945,542.239C709.143,542.239 708.945,542.041 708.945,542.239L708.945,550.545C708.945,550.655 709.033,550.743 709.143,550.743L726.151,550.743C726.262,550.743 726.35,550.655 726.35,550.545L726.35,542.239C726.35,542.041 726.151,542.239 726.35,542.239L742.961,542.239C743.159,542.239 742.961,542.041 742.961,542.239L742.961,550.545C742.961,550.655 743.049,550.743 743.159,550.743L760.167,550.743C760.277,550.743 760.365,550.655 760.365,550.545L760.365,542.239C760.365,542.041 760.167,542.239 760.365,542.239L776.976,542.239C777.175,542.239 776.976,542.041 776.976,542.239L776.976,550.545C776.976,550.655 777.064,550.743 777.175,550.743L794.183,550.743C794.293,550.743 794.381,550.655 794.381,550.545L794.381,542.239C794.381,542.041 794.183,542.239 794.381,542.239L810.992,542.239C811.191,542.239 810.992,542.041 810.992,542.239L810.992,550.545C810.992,550.655 811.08,550.743 811.191,550.743L828.198,550.743C828.309,550.743 828.397,550.655 828.397,550.545L828.397,542.239C828.397,542.041 828.198,542.239 828.397,542.239L845.008,542.239C845.206,542.239 845.008,542.041 845.008,542.239L845.008,550.545C845.008,550.655 845.096,550.743 845.206,550.743L862.214,550.743C862.325,550.743 862.413,550.655 862.413,550.545L862.413,542.239C862.413,542.041 862.214,542.239 862.413,542.239L879.024,542.239C879.222,542.239 879.024,542.041 879.024,542.239L879.024,550.545C879.024,550.655 879.111,550.743 879.222,550.743L896.23,550.743C896.34,550.743 896.428,550.655 896.428,550.545L896.428,542.239C896.428,542.041 896.23,542.239 896.428,542.239L913.039,542.239C913.238,542.239 913.039,542.041 913.039,542.239L913.039,550.545C913.039,550.655 913.127,550.743 913.238,550.743L930.246,550.743C930.356,550.743 930.444,550.655 930.444,550.545L930.444,542.239C930.444,542.041 930.246,542.239 930.444,542.239L956.041,542.239C956.151,542.239 956.239,542.151 956.239,542.041L956.239,519.35C956.239,519.151 956.041,519.35 956.239,519.35L964.545,519.35C964.655,519.35 964.743,519.262 964.743,519.151L964.743,502.143C964.743,502.033 964.655,501.945 964.545,501.945L956.239,501.945C956.041,501.945 956.239,502.143 956.239,501.945L956.239,485.334C956.239,485.135 956.041,485.334 956.239,485.334L964.545,485.334C964.655,485.334 964.743,485.246 964.743,485.135L964.743,468.128C964.743,468.017 964.655,467.929 964.545,467.929L956.239,467.929C956.041,467.929 956.239,468.128 956.239,467.929L956.239,451.318C956.239,451.12 956.041,451.318 956.239,451.318L964.545,451.318C964.655,451.318 964.743,451.23 964.743,451.12L964.743,434.112C964.743,434.001 964.655,433.913 964.545,433.913L956.239,433.913C956.041,433.913 956.239,434.112 956.239,433.913L956.239,417.302C956.239,417.104 956.041,417.302 956.239,417.302L964.545,417.302C964.655,417.302 964.743,417.214 964.743,417.104L964.743,400.096C964.743,399.986 964.655,399.898 964.545,399.898L956.239,399.898C956.041,399.898 956.239,400.096 956.239,399.898L956.239,383.287C956.239,383.088 956.041,383.287 956.239,383.287L964.545,383.287C964.655,383.287 964.743,383.199 964.743,383.088L964.743,366.08C964.743,365.97 964.655,365.882 964.545,365.882L956.239,365.882C956.041,365.882 956.239,366.08 956.239,365.882L956.239,349.271C956.239,349.072 956.041,349.271 956.239,349.271L964.545,349.271C964.655,349.271 964.743,349.183 964.743,349.072L964.743,332.065C964.743,331.954 964.655,331.866 964.545,331.866L956.239,331.866C956.041,331.866 956.239,332.065 956.239,331.866L956.239,315.255C956.239,315.057 956.041,315.255 956.239,315.255L964.545,315.255C964.655,315.255 964.743,315.167 964.743,315.057L964.743,298.049C964.743,297.938 964.655,297.85 964.545,297.85L956.239,297.85C956.041,297.85 956.239,298.049 956.239,297.85L956.239,281.239C956.239,281.041 956.041,281.239 956.239,281.239L964.545,281.239C964.655,281.239 964.743,281.151 964.743,281.041L964.743,264.033C964.743,263.923 964.655,263.835 964.545,263.835L956.239,263.835C956.041,263.835 956.239,264.033 956.239,263.835L956.239,247.224C956.239,247.025 956.041,247.224 956.239,247.224L964.545,247.224C964.655,247.224 964.743,247.136 964.743,247.025L964.743,230.017C964.743,229.907 964.655,229.819 964.545,229.819L956.239,229.819C956.041,229.819 956.239,230.017 956.239,229.819L956.239,213.208C956.239,213.009 956.041,213.208 956.239,213.208L964.545,213.208C964.655,213.208 964.743,213.12 964.743,213.009L964.743,196.002C964.743,195.891 964.655,195.803 964.545,195.803L956.239,195.803C956.041,195.803 956.239,196.002 956.239,195.803L956.239,179.192C956.239,178.994 956.041,179.192 956.239,179.192L964.545,179.192C964.655,179.192 964.743,179.104 964.743,178.994L964.743,161.986C964.743,161.875 964.655,161.787 964.545,161.787L956.239,161.787C956.041,161.787 956.239,161.986 956.239,161.787L956.239,145.176C956.239,144.978 956.041,145.176 956.239,145.176L964.545,145.176C964.655,145.176 964.743,145.089 964.743,144.978L964.743,127.97C964.743,127.86 964.655,127.772 964.545,127.772L956.239,127.772C956.041,127.772 956.239,127.97 956.239,127.772L956.239,111.161C956.239,110.962 956.041,111.161 956.239,111.161L964.545,111.161C964.655,111.161 964.743,111.073 964.743,110.962L964.743,93.954C964.743,93.844 964.655,93.756 964.545,93.756L956.239,93.756C956.041,93.756 956.239,93.954 956.239,93.756L956.239,77.145C956.239,76.946 956.041,77.145 956.239,77.145L964.545,77.145C964.655,77.145 964.743,77.057 964.743,76.946L964.743,59.939C964.743,59.828 964.655,59.74 964.545,59.74L956.239,59.74C956.041,59.74 956.239,59.939 956.239,59.74L956.239,37.049C956.239,36.938 956.151,36.85 956.041,36.85L930.444,36.85C930.246,36.85 930.444,37.049 930.444,36.85L930.444,28.545C930.444,28.434 930.356,28.346 930.246,28.346L913.238,28.346C913.127,28.346 913.039,28.434 913.039,28.545L913.039,36.85C913.039,37.049 913.238,36.85 913.039,36.85L896.428,36.85C896.23,36.85 896.428,37.049 896.428,36.85L896.428,28.545C896.428,28.434 896.34,28.346 896.23,28.346L879.222,28.346C879.111,28.346 879.024,28.434 879.024,28.545L879.024,36.85C879.024,37.049 879.222,36.85 879.024,36.85L862.413,36.85C862.214,36.85 862.413,37.049 862.413,36.85L862.413,28.545C862.413,28.434 862.325,28.346 862.214,28.346L845.206,28.346C845.096,28.346 845.008,28.434 845.008,28.545L845.008,36.85C845.008,37.049 845.206,36.85 845.008,36.85L828.397,36.85C828.198,36.85 828.397,37.049 828.397,36.85L828.397,28.545C828.397,28.434 828.309,28.346 828.198,28.346L811.191,28.346C811.08,28.346 810.992,28.434 810.992,28.545L810.992,36.85C810.992,37.049 811.191,36.85 810.992,36.85L794.381,36.85C794.183,36.85 794.381,37.049 794.381,36.85L794.381,28.545C794.381,28.434 794.293,28.346 794.183,28.346L777.175,28.346C777.064,28.346 776.976,28.434 776.976,28.545L776.976,36.85C776.976,37.049 777.175,36.85 776.976,36.85L760.365,36.85C760.167,36.85 760.365,37.049 760.365,36.85L760.365,28.545C760.365,28.434 760.277,28.346 760.167,28.346L743.159,28.346C743.049,28.346 742.961,28.434 742.961,28.545L742.961,36.85C742.961,37.049 743.159,36.85 742.961,36.85L726.35,36.85C726.151,36.85 726.35,37.049 726.35,36.85L726.35,28.545C726.35,28.434 726.262,28.346 726.151,28.346L709.143,28.346C709.033,28.346 708.945,28.434 708.945,28.545L708.945,36.85C708.945,37.049 709.143,36.85 708.945,36.85L692.334,36.85C692.135,36.85 692.334,37.049 692.334,36.85L692.334,28.545C692.334,28.434 692.246,28.346 692.135,28.346L675.128,28.346C675.017,28.346 674.929,28.434 674.929,28.545L674.929,36.85C674.929,37.049 675.128,36.85 674.929,36.85L658.318,36.85C658.12,36.85 658.318,37.049 658.318,36.85L658.318,28.545C658.318,28.434 658.23,28.346 658.12,28.346L641.112,28.346C641.001,28.346 640.913,28.434 640.913,28.545L640.913,36.85C640.913,37.049 641.112,36.85 640.913,36.85L624.302,36.85C624.104,36.85 624.302,37.049 624.302,36.85L624.302,28.545C624.302,28.434 624.214,28.346 624.104,28.346L607.096,28.346C606.986,28.346 606.898,28.434 606.898,28.545L606.898,36.85C606.898,37.049 607.096,36.85 606.898,36.85L590.287,36.85C590.088,36.85 590.287,37.049 590.287,36.85L590.287,28.545C590.287,28.434 590.199,28.346 590.088,28.346L573.08,28.346C572.97,28.346 572.882,28.434 572.882,28.545L572.882,36.85C572.882,37.049 573.08,36.85 572.882,36.85L556.271,36.85C556.072,36.85 556.271,37.049 556.271,36.85L556.271,28.545C556.271,28.434 556.183,28.346 556.072,28.346L539.065,28.346C538.954,28.346 538.866,28.434 538.866,28.545L538.866,36.85C538.866,37.049 539.065,36.85 538.866,36.85L522.255,36.85C522.057,36.85 522.255,37.049 522.255,36.85L522.255,28.545C522.255,28.434 522.167,28.346 522.057,28.346L505.049,28.346C504.938,28.346 504.85,28.434 504.85,28.545L504.85,36.85C504.85,37.049 505.049,36.85 504.85,36.85L488.239,36.85C488.041,36.85 488.239,37.049 488.239,36.85L488.239,28.545C488.239,28.434 488.151,28.346 488.041,28.346L471.033,28.346C470.923,28.346 470.835,28.434 470.835,28.545L470.835,36.85C470.835,37.049 471.033,36.85 470.835,36.85L454.224,36.85C454.025,36.85 454.224,37.049 454.224,36.85L454.224,28.545C454.224,28.434 454.136,28.346 454.025,28.346L437.017,28.346C436.907,28.346 436.819,28.434 436.819,28.545L436.819,36.85C436.819,37.049 437.017,36.85 436.819,36.85L420.208,36.85C420.009,36.85 420.208,37.049 420.208,36.85L420.208,28.545C420.208,28.434 420.12,28.346 420.009,28.346L403.002,28.346C402.891,28.346 402.803,28.434 402.803,28.545L402.803,36.85C402.803,37.049 403.002,36.85 402.803,36.85L386.192,36.85C385.994,36.85 386.192,37.049 386.192,36.85L386.192,28.545C386.192,28.434 386.104,28.346 385.994,28.346L368.986,28.346C368.875,28.346 368.787,28.434 368.787,28.545L368.787,36.85C368.787,37.049 368.986,36.85 368.787,36.85L352.176,36.85C351.978,36.85 352.176,37.049 352.176,36.85L352.176,28.545C352.176,28.434 352.089,28.346 351.978,28.346L334.97,28.346C334.86,28.346 334.772,28.434 334.772,28.545L334.772,36.85C334.772,37.049 334.97,36.85 334.772,36.85L318.161,36.85C317.962,36.85 318.161,37.049 318.161,36.85L318.161,28.545C318.161,28.434 318.073,28.346 317.962,28.346L300.954,28.346C300.844,28.346 300.756,28.434 300.756,28.545L300.756,36.85C300.756,37.049 300.954,36.85 300.756,36.85L284.145,36.85C283.946,36.85 284.145,37.049 284.145,36.85L284.145,28.545C284.145,28.434 284.057,28.346 283.946,28.346L266.939,28.346C266.828,28.346 266.74,28.434 266.74,28.545L266.74,36.85C266.74,37.049 266.939,36.85 266.74,36.85L250.129,36.85C249.931,36.85 250.129,37.049 250.129,36.85L250.129,28.545C250.129,28.434 250.041,28.346 249.931,28.346L232.923,28.346C232.812,28.346 232.724,28.434 232.724,28.545L232.724,36.85C232.724,37.049 232.923,36.85 232.724,36.85L216.113,36.85C215.915,36.85 216.113,37.049 216.113,36.85L216.113,28.545C216.113,28.434 216.026,28.346 215.915,28.346L198.907,28.346C198.797,28.346 198.709,28.434 198.709,28.545L198.709,36.85C198.709,37.049 198.907,36.85 198.709,36.85L182.098,36.85C181.899,36.85 182.098,37.049 182.098,36.85L182.098,28.545C182.098,28.434 182.01,28.346 181.899,28.346L164.891,28.346C164.781,28.346 164.693,28.434 164.693,28.545L164.693,36.85C164.693,37.049 164.891,36.85 164.693,36.85L148.082,36.85C147.883,36.85 148.082,37.049 148.082,36.85L148.082,28.545C148.082,28.434 147.994,28.346 147.883,28.346L130.876,28.346C130.765,28.346 130.677,28.434 130.677,28.545L130.677,36.85C130.677,37.049 130.876,36.85 130.677,36.85L114.066,36.85C113.868,36.85 114.066,37.049 114.066,36.85L114.066,28.545C114.066,28.434 113.978,28.346 113.868,28.346L96.86,28.346C96.749,28.346 96.661,28.434 96.661,28.545L96.661,36.85C96.661,37.049 96.86,36.85 96.661,36.85L80.05,36.85C79.852,36.85 80.05,37.049 80.05,36.85L80.05,28.545C80.05,28.434 79.963,28.346 79.852,28.346L62.844,28.346C62.734,28.346 62.646,28.434 62.646,28.545L62.646,36.85C62.646,37.049 62.844,36.85 62.646,36.85L37.049,36.85C36.938,36.85 36.85,36.938 36.85,37.049L36.85,59.74C36.85,59.939 37.049,59.74 36.85,59.74L28.545,59.74C28.434,59.74 28.346,59.828 28.346,59.939L28.346,76.946C28.346,77.057 28.434,77.145 28.545,77.145L36.85,77.145C37.049,77.145 36.85,76.946 36.85,77.145L36.85,93.756C36.85,93.954 37.049,93.756 36.85,93.756L28.545,93.756C28.434,93.756 28.346,93.844 28.346,93.954L28.346,110.962C28.346,111.073 28.434,111.161 28.545,111.161L36.85,111.161C37.049,111.161 36.85,110.962 36.85,111.161L36.85,127.772C36.85,127.97 37.049,127.772 36.85,127.772L28.545,127.772C28.434,127.772 28.346,127.86 28.346,127.97L28.346,144.978C28.346,145.089 28.434,145.176 28.545,145.176L36.85,145.176C37.049,145.176 36.85,144.978 36.85,145.176L36.85,161.787C36.85,161.986 37.049,161.787 36.85,161.787L28.545,161.787C28.434,161.787 28.346,161.875 28.346,161.986L28.346,178.994C28.346,179.104 28.434,179.192 28.545,179.192L36.85,179.192C37.049,179.192 36.85,178.994 36.85,179.192L36.85,195.803C36.85,196.002 37.049,195.803 36.85,195.803L28.545,195.803C28.434,195.803 28.346,195.891 28.346,196.002L28.346,213.009C28.346,213.12 28.434,213.208 28.545,213.208L36.85,213.208C37.049,213.208 36.85,213.009 36.85,213.208L36.85,229.819C36.85,230.017 37.049,229.819 36.85,229.819L28.545,229.819C28.434,229.819 28.346,229.907 28.346,230.017L28.346,247.025C28.346,247.136 28.434,247.224 28.545,247.224L36.85,247.224C37.049,247.224 36.85,247.025 36.85,247.224L36.85,263.835C36.85,264.033 37.049,263.835 36.85,263.835L28.545,263.835C28.434,263.835 28.346,263.923 28.346,264.033L28.346,281.041C28.346,281.151 28.434,281.239 28.545,281.239L36.85,281.239C37.049,281.239 36.85,281.041 36.85,281.239L36.85,297.85C36.85,298.049 37.049,297.85 36.85,297.85L28.545,297.85C28.434,297.85 28.346,297.938 28.346,298.049L28.346,315.057C28.346,315.167 28.434,315.255 28.545,315.255L36.85,315.255C37.049,315.255 36.85,315.057 36.85,315.255L36.85,331.866C36.85,332.065 37.049,331.866 36.85,331.866L28.545,331.866C28.434,331.866 28.346,331.954 28.346,332.065L28.346,349.072C28.346,349.183 28.434,349.271 28.545,349.271L36.85,349.271C37.049,349.271 36.85,349.072 36.85,349.271L36.85,365.882C36.85,366.08 37.049,365.882 36.85,365.882L28.545,365.882C28.434,365.882 28.346,365.97 28.346,366.08L28.346,383.088C28.346,383.199 28.434,383.287 28.545,383.287L36.85,383.287C37.049,383.287 36.85,383.088 36.85,383.287L36.85,399.898C36.85,400.096 37.049,399.898 36.85,399.898L28.545,399.898C28.434,399.898 28.346,399.986 28.346,400.096L28.346,417.104C28.346,417.214 28.434,417.302 28.545,417.302L36.85,417.302C37.049,417.302 36.85,417.104 36.85,417.302L36.85,433.913C36.85,434.112 37.049,433.913 36.85,433.913L28.545,433.913C28.434,433.913 28.346,434.001 28.346,434.112L28.346,451.12C28.346,451.23 28.434,451.318 28.545,451.318L36.85,451.318C37.049,451.318 36.85,451.12 36.85,451.318L36.85,467.929C36.85,468.128 37.049,467.929 36.85,467.929L28.545,467.929C28.434,467.929 28.346,468.017 28.346,468.128L28.346,485.135C28.346,485.246 28.434,485.334 28.545,485.334L36.85,485.334C37.049,485.334 36.85,485.135 36.85,485.334L36.85,501.945C36.85,502.143 37.049,501.945 36.85,501.945L28.545,501.945C28.434,501.945 28.346,502.033 28.346,502.143L28.346,519.151C28.346,519.262 28.434,519.35 28.545,519.35L36.85,519.35C37.049,519.35 36.85,519.151 36.85,519.35L36.85,542.041C36.85,542.151 36.938,542.239 37.049,542.239Z" style="fill:none;fill-rule:nonzero;stroke:black;stroke-width:0.4px;"/>
            </g>
            <g id="p-5">
                <path d="M977.698,542.239L1003.29,542.239C1003.49,542.239 1003.29,542.041 1003.29,542.239L1003.29,550.545C1003.29,550.655 1003.38,550.743 1003.49,550.743L1020.5,550.743C1020.61,550.743 1020.7,550.655 1020.7,550.545L1020.7,542.239C1020.7,542.041 1020.5,542.239 1020.7,542.239L1037.31,542.239C1037.51,542.239 1037.31,542.041 1037.31,542.239L1037.31,550.545C1037.31,550.655 1037.4,550.743 1037.51,550.743L1054.52,550.743C1054.63,550.743 1054.71,550.655 1054.71,550.545L1054.71,542.239C1054.71,542.041 1054.52,542.239 1054.71,542.239L1071.33,542.239C1071.52,542.239 1071.33,542.041 1071.33,542.239L1071.33,550.545C1071.33,550.655 1071.41,550.743 1071.52,550.743L1088.53,550.743C1088.64,550.743 1088.73,550.655 1088.73,550.545L1088.73,542.239C1088.73,542.041 1088.53,542.239 1088.73,542.239L1105.34,542.239C1105.54,542.239 1105.34,542.041 1105.34,542.239L1105.34,550.545C1105.34,550.655 1105.43,550.743 1105.54,550.743L1122.55,550.743C1122.66,550.743 1122.75,550.655 1122.75,550.545L1122.75,542.239C1122.75,542.041 1122.55,542.239 1122.75,542.239L1139.36,542.239C1139.56,542.239 1139.36,542.041 1139.36,542.239L1139.36,550.545C1139.36,550.655 1139.44,550.743 1139.56,550.743L1156.56,550.743C1156.67,550.743 1156.76,550.655 1156.76,550.545L1156.76,542.239C1156.76,542.041 1156.56,542.239 1156.76,542.239L1173.37,542.239C1173.57,542.239 1173.37,542.041 1173.37,542.239L1173.37,550.545C1173.37,550.655 1173.46,550.743 1173.57,550.743L1190.58,550.743C1190.69,550.743 1190.78,550.655 1190.78,550.545L1190.78,542.239C1190.78,542.041 1190.58,542.239 1190.78,542.239L1207.39,542.239C1207.59,542.239 1207.39,542.041 1207.39,542.239L1207.39,550.545C1207.39,550.655 1207.48,550.743 1207.59,550.743L1224.6,550.743C1224.71,550.743 1224.79,550.655 1224.79,550.545L1224.79,542.239C1224.79,542.041 1224.6,542.239 1224.79,542.239L1241.4,542.239C1241.6,542.239 1241.4,542.041 1241.4,542.239L1241.4,550.545C1241.4,550.655 1241.49,550.743 1241.6,550.743L1258.61,550.743C1258.72,550.743 1258.81,550.655 1258.81,550.545L1258.81,542.239C1258.81,542.041 1258.61,542.239 1258.81,542.239L1275.42,542.239C1275.62,542.239 1275.42,542.041 1275.42,542.239L1275.42,550.545C1275.42,550.655 1275.51,550.743 1275.62,550.743L1292.63,550.743C1292.74,550.743 1292.83,550.655 1292.83,550.545L1292.83,542.239C1292.83,542.041 1292.63,542.239 1292.83,542.239L1309.44,542.239C1309.63,542.239 1309.44,542.041 1309.44,542.239L1309.44,550.545C1309.44,550.655 1309.52,550.743 1309.63,550.743L1326.64,550.743C1326.75,550.743 1326.84,550.655 1326.84,550.545L1326.84,542.239C1326.84,542.041 1326.64,542.239 1326.84,542.239L1343.45,542.239C1343.65,542.239 1343.45,542.041 1343.45,542.239L1343.45,550.545C1343.45,550.655 1343.54,550.743 1343.65,550.743L1360.66,550.743C1360.77,550.743 1360.86,550.655 1360.86,550.545L1360.86,542.239C1360.86,542.041 1360.66,542.239 1360.86,542.239L1377.47,542.239C1377.67,542.239 1377.47,542.041 1377.47,542.239L1377.47,550.545C1377.47,550.655 1377.56,550.743 1377.67,550.743L1394.67,550.743C1394.79,550.743 1394.87,550.655 1394.87,550.545L1394.87,542.239C1394.87,542.041 1394.67,542.239 1394.87,542.239L1411.48,542.239C1411.68,542.239 1411.48,542.041 1411.48,542.239L1411.48,550.545C1411.48,550.655 1411.57,550.743 1411.68,550.743L1428.69,550.743C1428.8,550.743 1428.89,550.655 1428.89,550.545L1428.89,542.239C1428.89,542.041 1428.69,542.239 1428.89,542.239L1445.5,542.239C1445.7,542.239 1445.5,542.041 1445.5,542.239L1445.5,550.545C1445.5,550.655 1445.59,550.743 1445.7,550.743L1462.71,550.743C1462.82,550.743 1462.9,550.655 1462.9,550.545L1462.9,542.239C1462.9,542.041 1462.71,542.239 1462.9,542.239L1479.52,542.239C1479.71,542.239 1479.52,542.041 1479.52,542.239L1479.52,550.545C1479.52,550.655 1479.6,550.743 1479.71,550.743L1496.72,550.743C1496.83,550.743 1496.92,550.655 1496.92,550.545L1496.92,542.239C1496.92,542.041 1496.72,542.239 1496.92,542.239L1513.53,542.239C1513.73,542.239 1513.53,542.041 1513.53,542.239L1513.53,550.545C1513.53,550.655 1513.62,550.743 1513.73,550.743L1530.74,550.743C1530.85,550.743 1530.93,550.655 1530.93,550.545L1530.93,542.239C1530.93,542.041 1530.74,542.239 1530.93,542.239L1547.55,542.239C1547.75,542.239 1547.55,542.041 1547.55,542.239L1547.55,550.545C1547.55,550.655 1547.63,550.743 1547.75,550.743L1564.75,550.743C1564.86,550.743 1564.95,550.655 1564.95,550.545L1564.95,542.239C1564.95,542.041 1564.75,542.239 1564.95,542.239L1581.56,542.239C1581.76,542.239 1581.56,542.041 1581.56,542.239L1581.56,550.545C1581.56,550.655 1581.65,550.743 1581.76,550.743L1598.77,550.743C1598.88,550.743 1598.97,550.655 1598.97,550.545L1598.97,542.239C1598.97,542.041 1598.77,542.239 1598.97,542.239L1615.58,542.239C1615.78,542.239 1615.58,542.041 1615.58,542.239L1615.58,550.545C1615.58,550.655 1615.67,550.743 1615.78,550.743L1632.78,550.743C1632.89,550.743 1632.98,550.655 1632.98,550.545L1632.98,542.239C1632.98,542.041 1632.78,542.239 1632.98,542.239L1649.59,542.239C1649.79,542.239 1649.59,542.041 1649.59,542.239L1649.59,550.545C1649.59,550.655 1649.68,550.743 1649.79,550.743L1666.8,550.743C1666.91,550.743 1667,550.655 1667,550.545L1667,542.239C1667,542.041 1666.8,542.239 1667,542.239L1683.61,542.239C1683.81,542.239 1683.61,542.041 1683.61,542.239L1683.61,550.545C1683.61,550.655 1683.7,550.743 1683.81,550.743L1700.82,550.743C1700.93,550.743 1701.01,550.655 1701.01,550.545L1701.01,542.239C1701.01,542.041 1700.82,542.239 1701.01,542.239L1717.62,542.239C1717.82,542.239 1717.62,542.041 1717.62,542.239L1717.62,550.545C1717.62,550.655 1717.71,550.743 1717.82,550.743L1734.83,550.743C1734.94,550.743 1735.03,550.655 1735.03,550.545L1735.03,542.239C1735.03,542.041 1734.83,542.239 1735.03,542.239L1751.64,542.239C1751.84,542.239 1751.64,542.041 1751.64,542.239L1751.64,550.545C1751.64,550.655 1751.73,550.743 1751.84,550.743L1768.85,550.743C1768.96,550.743 1769.05,550.655 1769.05,550.545L1769.05,542.239C1769.05,542.041 1768.85,542.239 1769.05,542.239L1785.66,542.239C1785.86,542.239 1785.66,542.041 1785.66,542.239L1785.66,550.545C1785.66,550.655 1785.75,550.743 1785.86,550.743L1802.86,550.743C1802.97,550.743 1803.06,550.655 1803.06,550.545L1803.06,542.239C1803.06,542.041 1802.86,542.239 1803.06,542.239L1819.67,542.239C1819.87,542.239 1819.67,542.041 1819.67,542.239L1819.67,550.545C1819.67,550.655 1819.76,550.743 1819.87,550.743L1836.88,550.743C1836.99,550.743 1837.08,550.655 1837.08,550.545L1837.08,542.239C1837.08,542.041 1836.88,542.239 1837.08,542.239L1853.69,542.239C1853.89,542.239 1853.69,542.041 1853.69,542.239L1853.69,550.545C1853.69,550.655 1853.78,550.743 1853.89,550.743L1870.89,550.743C1871.01,550.743 1871.09,550.655 1871.09,550.545L1871.09,542.239C1871.09,542.041 1870.89,542.239 1871.09,542.239L1896.69,542.239C1896.8,542.239 1896.89,542.151 1896.89,542.041L1896.89,519.35C1896.89,519.151 1896.69,519.35 1896.89,519.35L1905.19,519.35C1905.3,519.35 1905.39,519.262 1905.39,519.151L1905.39,502.143C1905.39,502.033 1905.3,501.945 1905.19,501.945L1896.89,501.945C1896.69,501.945 1896.89,502.143 1896.89,501.945L1896.89,485.334C1896.89,485.135 1896.69,485.334 1896.89,485.334L1905.19,485.334C1905.3,485.334 1905.39,485.246 1905.39,485.135L1905.39,468.128C1905.39,468.017 1905.3,467.929 1905.19,467.929L1896.89,467.929C1896.69,467.929 1896.89,468.128 1896.89,467.929L1896.89,451.318C1896.89,451.12 1896.69,451.318 1896.89,451.318L1905.19,451.318C1905.3,451.318 1905.39,451.23 1905.39,451.12L1905.39,434.112C1905.39,434.001 1905.3,433.913 1905.19,433.913L1896.89,433.913C1896.69,433.913 1896.89,434.112 1896.89,433.913L1896.89,417.302C1896.89,417.104 1896.69,417.302 1896.89,417.302L1905.19,417.302C1905.3,417.302 1905.39,417.214 1905.39,417.104L1905.39,400.096C1905.39,399.986 1905.3,399.898 1905.19,399.898L1896.89,399.898C1896.69,399.898 1896.89,400.096 1896.89,399.898L1896.89,383.287C1896.89,383.088 1896.69,383.287 1896.89,383.287L1905.19,383.287C1905.3,383.287 1905.39,383.199 1905.39,383.088L1905.39,366.08C1905.39,365.97 1905.3,365.882 1905.19,365.882L1896.89,365.882C1896.69,365.882 1896.89,366.08 1896.89,365.882L1896.89,349.271C1896.89,349.072 1896.69,349.271 1896.89,349.271L1905.19,349.271C1905.3,349.271 1905.39,349.183 1905.39,349.072L1905.39,332.065C1905.39,331.954 1905.3,331.866 1905.19,331.866L1896.89,331.866C1896.69,331.866 1896.89,332.065 1896.89,331.866L1896.89,315.255C1896.89,315.057 1896.69,315.255 1896.89,315.255L1905.19,315.255C1905.3,315.255 1905.39,315.167 1905.39,315.057L1905.39,298.049C1905.39,297.938 1905.3,297.85 1905.19,297.85L1896.89,297.85C1896.69,297.85 1896.89,298.049 1896.89,297.85L1896.89,281.239C1896.89,281.041 1896.69,281.239 1896.89,281.239L1905.19,281.239C1905.3,281.239 1905.39,281.151 1905.39,281.041L1905.39,264.033C1905.39,263.923 1905.3,263.835 1905.19,263.835L1896.89,263.835C1896.69,263.835 1896.89,264.033 1896.89,263.835L1896.89,247.224C1896.89,247.025 1896.69,247.224 1896.89,247.224L1905.19,247.224C1905.3,247.224 1905.39,247.136 1905.39,247.025L1905.39,230.017C1905.39,229.907 1905.3,229.819 1905.19,229.819L1896.89,229.819C1896.69,229.819 1896.89,230.017 1896.89,229.819L1896.89,213.208C1896.89,213.009 1896.69,213.208 1896.89,213.208L1905.19,213.208C1905.3,213.208 1905.39,213.12 1905.39,213.009L1905.39,196.002C1905.39,195.891 1905.3,195.803 1905.19,195.803L1896.89,195.803C1896.69,195.803 1896.89,196.002 1896.89,195.803L1896.89,179.192C1896.89,178.994 1896.69,179.192 1896.89,179.192L1905.19,179.192C1905.3,179.192 1905.39,179.104 1905.39,178.994L1905.39,161.986C1905.39,161.875 1905.3,161.787 1905.19,161.787L1896.89,161.787C1896.69,161.787 1896.89,161.986 1896.89,161.787L1896.89,145.176C1896.89,144.978 1896.69,145.176 1896.89,145.176L1905.19,145.176C1905.3,145.176 1905.39,145.089 1905.39,144.978L1905.39,127.97C1905.39,127.86 1905.3,127.772 1905.19,127.772L1896.89,127.772C1896.69,127.772 1896.89,127.97 1896.89,127.772L1896.89,111.161C1896.89,110.962 1896.69,111.161 1896.89,111.161L1905.19,111.161C1905.3,111.161 1905.39,111.073 1905.39,110.962L1905.39,93.954C1905.39,93.844 1905.3,93.756 1905.19,93.756L1896.89,93.756C1896.69,93.756 1896.89,93.954 1896.89,93.756L1896.89,77.145C1896.89,76.946 1896.69,77.145 1896.89,77.145L1905.19,77.145C1905.3,77.145 1905.39,77.057 1905.39,76.946L1905.39,59.939C1905.39,59.828 1905.3,59.74 1905.19,59.74L1896.89,59.74C1896.69,59.74 1896.89,59.939 1896.89,59.74L1896.89,37.049C1896.89,36.938 1896.8,36.85 1896.69,36.85L1871.09,36.85C1870.89,36.85 1871.09,37.049 1871.09,36.85L1871.09,28.545C1871.09,28.434 1871.01,28.346 1870.89,28.346L1853.89,28.346C1853.78,28.346 1853.69,28.434 1853.69,28.545L1853.69,36.85C1853.69,37.049 1853.89,36.85 1853.69,36.85L1837.08,36.85C1836.88,36.85 1837.08,37.049 1837.08,36.85L1837.08,28.545C1837.08,28.434 1836.99,28.346 1836.88,28.346L1819.87,28.346C1819.76,28.346 1819.67,28.434 1819.67,28.545L1819.67,36.85C1819.67,37.049 1819.87,36.85 1819.67,36.85L1803.06,36.85C1802.86,36.85 1803.06,37.049 1803.06,36.85L1803.06,28.545C1803.06,28.434 1802.97,28.346 1802.86,28.346L1785.86,28.346C1785.75,28.346 1785.66,28.434 1785.66,28.545L1785.66,36.85C1785.66,37.049 1785.86,36.85 1785.66,36.85L1769.05,36.85C1768.85,36.85 1769.05,37.049 1769.05,36.85L1769.05,28.545C1769.05,28.434 1768.96,28.346 1768.85,28.346L1751.84,28.346C1751.73,28.346 1751.64,28.434 1751.64,28.545L1751.64,36.85C1751.64,37.049 1751.84,36.85 1751.64,36.85L1735.03,36.85C1734.83,36.85 1735.03,37.049 1735.03,36.85L1735.03,28.545C1735.03,28.434 1734.94,28.346 1734.83,28.346L1717.82,28.346C1717.71,28.346 1717.62,28.434 1717.62,28.545L1717.62,36.85C1717.62,37.049 1717.82,36.85 1717.62,36.85L1701.01,36.85C1700.82,36.85 1701.01,37.049 1701.01,36.85L1701.01,28.545C1701.01,28.434 1700.93,28.346 1700.82,28.346L1683.81,28.346C1683.7,28.346 1683.61,28.434 1683.61,28.545L1683.61,36.85C1683.61,37.049 1683.81,36.85 1683.61,36.85L1667,36.85C1666.8,36.85 1667,37.049 1667,36.85L1667,28.545C1667,28.434 1666.91,28.346 1666.8,28.346L1649.79,28.346C1649.68,28.346 1649.59,28.434 1649.59,28.545L1649.59,36.85C1649.59,37.049 1649.79,36.85 1649.59,36.85L1632.98,36.85C1632.78,36.85 1632.98,37.049 1632.98,36.85L1632.98,28.545C1632.98,28.434 1632.89,28.346 1632.78,28.346L1615.78,28.346C1615.67,28.346 1615.58,28.434 1615.58,28.545L1615.58,36.85C1615.58,37.049 1615.78,36.85 1615.58,36.85L1598.97,36.85C1598.77,36.85 1598.97,37.049 1598.97,36.85L1598.97,28.545C1598.97,28.434 1598.88,28.346 1598.77,28.346L1581.76,28.346C1581.65,28.346 1581.56,28.434 1581.56,28.545L1581.56,36.85C1581.56,37.049 1581.76,36.85 1581.56,36.85L1564.95,36.85C1564.75,36.85 1564.95,37.049 1564.95,36.85L1564.95,28.545C1564.95,28.434 1564.86,28.346 1564.75,28.346L1547.75,28.346C1547.63,28.346 1547.55,28.434 1547.55,28.545L1547.55,36.85C1547.55,37.049 1547.75,36.85 1547.55,36.85L1530.93,36.85C1530.74,36.85 1530.93,37.049 1530.93,36.85L1530.93,28.545C1530.93,28.434 1530.85,28.346 1530.74,28.346L1513.73,28.346C1513.62,28.346 1513.53,28.434 1513.53,28.545L1513.53,36.85C1513.53,37.049 1513.73,36.85 1513.53,36.85L1496.92,36.85C1496.72,36.85 1496.92,37.049 1496.92,36.85L1496.92,28.545C1496.92,28.434 1496.83,28.346 1496.72,28.346L1479.71,28.346C1479.6,28.346 1479.52,28.434 1479.52,28.545L1479.52,36.85C1479.52,37.049 1479.71,36.85 1479.52,36.85L1462.9,36.85C1462.71,36.85 1462.9,37.049 1462.9,36.85L1462.9,28.545C1462.9,28.434 1462.82,28.346 1462.71,28.346L1445.7,28.346C1445.59,28.346 1445.5,28.434 1445.5,28.545L1445.5,36.85C1445.5,37.049 1445.7,36.85 1445.5,36.85L1428.89,36.85C1428.69,36.85 1428.89,37.049 1428.89,36.85L1428.89,28.545C1428.89,28.434 1428.8,28.346 1428.69,28.346L1411.68,28.346C1411.57,28.346 1411.48,28.434 1411.48,28.545L1411.48,36.85C1411.48,37.049 1411.68,36.85 1411.48,36.85L1394.87,36.85C1394.67,36.85 1394.87,37.049 1394.87,36.85L1394.87,28.545C1394.87,28.434 1394.79,28.346 1394.67,28.346L1377.67,28.346C1377.56,28.346 1377.47,28.434 1377.47,28.545L1377.47,36.85C1377.47,37.049 1377.67,36.85 1377.47,36.85L1360.86,36.85C1360.66,36.85 1360.86,37.049 1360.86,36.85L1360.86,28.545C1360.86,28.434 1360.77,28.346 1360.66,28.346L1343.65,28.346C1343.54,28.346 1343.45,28.434 1343.45,28.545L1343.45,36.85C1343.45,37.049 1343.65,36.85 1343.45,36.85L1326.84,36.85C1326.64,36.85 1326.84,37.049 1326.84,36.85L1326.84,28.545C1326.84,28.434 1326.75,28.346 1326.64,28.346L1309.63,28.346C1309.52,28.346 1309.44,28.434 1309.44,28.545L1309.44,36.85C1309.44,37.049 1309.63,36.85 1309.44,36.85L1292.83,36.85C1292.63,36.85 1292.83,37.049 1292.83,36.85L1292.83,28.545C1292.83,28.434 1292.74,28.346 1292.63,28.346L1275.62,28.346C1275.51,28.346 1275.42,28.434 1275.42,28.545L1275.42,36.85C1275.42,37.049 1275.62,36.85 1275.42,36.85L1258.81,36.85C1258.61,36.85 1258.81,37.049 1258.81,36.85L1258.81,28.545C1258.81,28.434 1258.72,28.346 1258.61,28.346L1241.6,28.346C1241.49,28.346 1241.4,28.434 1241.4,28.545L1241.4,36.85C1241.4,37.049 1241.6,36.85 1241.4,36.85L1224.79,36.85C1224.6,36.85 1224.79,37.049 1224.79,36.85L1224.79,28.545C1224.79,28.434 1224.71,28.346 1224.6,28.346L1207.59,28.346C1207.48,28.346 1207.39,28.434 1207.39,28.545L1207.39,36.85C1207.39,37.049 1207.59,36.85 1207.39,36.85L1190.78,36.85C1190.58,36.85 1190.78,37.049 1190.78,36.85L1190.78,28.545C1190.78,28.434 1190.69,28.346 1190.58,28.346L1173.57,28.346C1173.46,28.346 1173.37,28.434 1173.37,28.545L1173.37,36.85C1173.37,37.049 1173.57,36.85 1173.37,36.85L1156.76,36.85C1156.56,36.85 1156.76,37.049 1156.76,36.85L1156.76,28.545C1156.76,28.434 1156.67,28.346 1156.56,28.346L1139.56,28.346C1139.44,28.346 1139.36,28.434 1139.36,28.545L1139.36,36.85C1139.36,37.049 1139.56,36.85 1139.36,36.85L1122.75,36.85C1122.55,36.85 1122.75,37.049 1122.75,36.85L1122.75,28.545C1122.75,28.434 1122.66,28.346 1122.55,28.346L1105.54,28.346C1105.43,28.346 1105.34,28.434 1105.34,28.545L1105.34,36.85C1105.34,37.049 1105.54,36.85 1105.34,36.85L1088.73,36.85C1088.53,36.85 1088.73,37.049 1088.73,36.85L1088.73,28.545C1088.73,28.434 1088.64,28.346 1088.53,28.346L1071.52,28.346C1071.41,28.346 1071.33,28.434 1071.33,28.545L1071.33,36.85C1071.33,37.049 1071.52,36.85 1071.33,36.85L1054.71,36.85C1054.52,36.85 1054.71,37.049 1054.71,36.85L1054.71,28.545C1054.71,28.434 1054.63,28.346 1054.52,28.346L1037.51,28.346C1037.4,28.346 1037.31,28.434 1037.31,28.545L1037.31,36.85C1037.31,37.049 1037.51,36.85 1037.31,36.85L1020.7,36.85C1020.5,36.85 1020.7,37.049 1020.7,36.85L1020.7,28.545C1020.7,28.434 1020.61,28.346 1020.5,28.346L1003.49,28.346C1003.38,28.346 1003.29,28.434 1003.29,28.545L1003.29,36.85C1003.29,37.049 1003.49,36.85 1003.29,36.85L977.698,36.85C977.587,36.85 977.499,36.938 977.499,37.049L977.499,59.74C977.499,59.939 977.698,59.74 977.499,59.74L969.194,59.74C969.083,59.74 968.995,59.828 968.995,59.939L968.995,76.946C968.995,77.057 969.083,77.145 969.194,77.145L977.499,77.145C977.698,77.145 977.499,76.946 977.499,77.145L977.499,93.756C977.499,93.954 977.698,93.756 977.499,93.756L969.194,93.756C969.083,93.756 968.995,93.844 968.995,93.954L968.995,110.962C968.995,111.073 969.083,111.161 969.194,111.161L977.499,111.161C977.698,111.161 977.499,110.962 977.499,111.161L977.499,127.772C977.499,127.97 977.698,127.772 977.499,127.772L969.194,127.772C969.083,127.772 968.995,127.86 968.995,127.97L968.995,144.978C968.995,145.089 969.083,145.176 969.194,145.176L977.499,145.176C977.698,145.176 977.499,144.978 977.499,145.176L977.499,161.787C977.499,161.986 977.698,161.787 977.499,161.787L969.194,161.787C969.083,161.787 968.995,161.875 968.995,161.986L968.995,178.994C968.995,179.104 969.083,179.192 969.194,179.192L977.499,179.192C977.698,179.192 977.499,178.994 977.499,179.192L977.499,195.803C977.499,196.002 977.698,195.803 977.499,195.803L969.194,195.803C969.083,195.803 968.995,195.891 968.995,196.002L968.995,213.009C968.995,213.12 969.083,213.208 969.194,213.208L977.499,213.208C977.698,213.208 977.499,213.009 977.499,213.208L977.499,229.819C977.499,230.017 977.698,229.819 977.499,229.819L969.194,229.819C969.083,229.819 968.995,229.907 968.995,230.017L968.995,247.025C968.995,247.136 969.083,247.224 969.194,247.224L977.499,247.224C977.698,247.224 977.499,247.025 977.499,247.224L977.499,263.835C977.499,264.033 977.698,263.835 977.499,263.835L969.194,263.835C969.083,263.835 968.995,263.923 968.995,264.033L968.995,281.041C968.995,281.151 969.083,281.239 969.194,281.239L977.499,281.239C977.698,281.239 977.499,281.041 977.499,281.239L977.499,297.85C977.499,298.049 977.698,297.85 977.499,297.85L969.194,297.85C969.083,297.85 968.995,297.938 968.995,298.049L968.995,315.057C968.995,315.167 969.083,315.255 969.194,315.255L977.499,315.255C977.698,315.255 977.499,315.057 977.499,315.255L977.499,331.866C977.499,332.065 977.698,331.866 977.499,331.866L969.194,331.866C969.083,331.866 968.995,331.954 968.995,332.065L968.995,349.072C968.995,349.183 969.083,349.271 969.194,349.271L977.499,349.271C977.698,349.271 977.499,349.072 977.499,349.271L977.499,365.882C977.499,366.08 977.698,365.882 977.499,365.882L969.194,365.882C969.083,365.882 968.995,365.97 968.995,366.08L968.995,383.088C968.995,383.199 969.083,383.287 969.194,383.287L977.499,383.287C977.698,383.287 977.499,383.088 977.499,383.287L977.499,399.898C977.499,400.096 977.698,399.898 977.499,399.898L969.194,399.898C969.083,399.898 968.995,399.986 968.995,400.096L968.995,417.104C968.995,417.214 969.083,417.302 969.194,417.302L977.499,417.302C977.698,417.302 977.499,417.104 977.499,417.302L977.499,433.913C977.499,434.112 977.698,433.913 977.499,433.913L969.194,433.913C969.083,433.913 968.995,434.001 968.995,434.112L968.995,451.12C968.995,451.23 969.083,451.318 969.194,451.318L977.499,451.318C977.698,451.318 977.499,451.12 977.499,451.318L977.499,467.929C977.499,468.128 977.698,467.929 977.499,467.929L969.194,467.929C969.083,467.929 968.995,468.017 968.995,468.128L968.995,485.135C968.995,485.246 969.083,485.334 969.194,485.334L977.499,485.334C977.698,485.334 977.499,485.135 977.499,485.334L977.499,501.945C977.499,502.143 977.698,501.945 977.499,501.945L969.194,501.945C969.083,501.945 968.995,502.033 968.995,502.143L968.995,519.151C968.995,519.262 969.083,519.35 969.194,519.35L977.499,519.35C977.698,519.35 977.499,519.151 977.499,519.35L977.499,542.041C977.499,542.151 977.587,542.239 977.698,542.239Z" style="fill:none;fill-rule:nonzero;stroke:black;stroke-width:0.4px;"/>
            </g>
            <g transform="matrix(1.00986,0,0,0.964271,-2.43127,2.09905)">
                <path d="M912.701,85.239C912.701,79.109 907.949,74.132 902.095,74.132L86.117,74.132C80.264,74.132 75.512,79.109 75.512,85.239L75.512,510.954C75.512,517.084 80.264,522.06 86.117,522.06L902.095,522.06C907.949,522.06 912.701,517.084 912.701,510.954L912.701,85.239Z" style="fill:none;stroke:black;stroke-width:0.51px;stroke-miterlimit:1.5;"/>
            </g>
            <g transform="matrix(0.853604,0,0,0.813586,1015.42,47.0177)">
                <path d="M912.701,118.869C912.701,94.178 893.595,74.132 870.062,74.132L118.151,74.132C94.618,74.132 75.512,94.178 75.512,118.869L75.512,477.324C75.512,502.015 94.618,522.06 118.151,522.06L870.062,522.06C893.595,522.06 912.701,502.015 912.701,477.324L912.701,118.869Z" style="fill:none;stroke:black;stroke-width:0.6px;stroke-miterlimit:1.5;"/>
            </g>
        </g>
    </g>
</svg>
