<svg xmlns="http://www.w3.org/2000/svg" xmlns:svg="http://www.w3.org/2000/svg" xmlns:xlink="http://www.w3.org/1999/xlink" xmlns:sodipodi="http://sodipodi.sourceforge.net/DTD/sodipodi-0.dtd" xmlns:inkscape="http://www.inkscape.org/namespaces/inkscape" viewBox="0 0 793.7007874015749 1122.5196850393702" width="793.7007874015749" height="1122.5196850393702">
    <defs><marker id="DistanceX" orient="auto" refX="0.0" refY="0.0" style="overflow:visible"><path d="M 3,-3 L -3,3 M 0,-5 L  0,5" style="stroke:#000000; stroke-width:0.5"/></marker><pattern id="Hatch" patternUnits="userSpaceOnUse" width="8" height="8" x="0" y="0"><path d="M8 4 l-4,4" stroke="#000000" stroke-width="0.25" linecap="square"/><path d="M6 2 l-4,4" stroke="#000000" stroke-width="0.25" linecap="square"/><path d="M4 0 l-4,4" stroke="#000000" stroke-width="0.25" linecap="square"/></pattern><symbol id="*MODEL_SPACE"/><symbol id="*PAPER_SPACE"/></defs><g inkscape:groupmode="layer" inkscape:label="0"><path d="M -55.558082,2320.263689 A 4.535433,4.535433 -0.000000 1 0 -64.628948,2320.263689 4.535433,4.535433 -0.000000 1 0 -55.558082,2320.263689 z" style="fill:none;stroke:#000000"/><path d="M -103.595418,1787.262715 A 6.614173,6.614173 -0.000000 1 0 -116.823764,1787.262715 6.614173,6.614173 -0.000000 1 0 -103.595418,1787.262715 z" style="fill:none;stroke:#000000"/><path d="M -199.370079,1814.625951 A 6.614173,6.614173 -0.000000 1 0 -212.598425,1814.625951 6.614173,6.614173 -0.000000 1 0 -199.370079,1814.625951 z" style="fill:none;stroke:#000000"/><path d="M -579.815890,1545.372951 A 6.614173,6.614173 -0.000000 1 0 -593.044236,1545.372951 6.614173,6.614173 -0.000000 1 0 -579.815890,1545.372951 z" style="fill:none;stroke:#000000"/><path d="M -103.595418,1545.372951 A 6.614173,6.614173 -0.000000 1 0 -116.823764,1545.372951 6.614173,6.614173 -0.000000 1 0 -103.595418,1545.372951 z" style="fill:none;stroke:#000000"/><path d="M -199.370079,2214.268609 A 6.614173,6.614173 -0.000000 1 0 -212.598425,2214.268609 6.614173,6.614173 -0.000000 1 0 -199.370079,2214.268609 z" style="fill:none;stroke:#000000"/><path d="M -482.834646,1814.625951 A 6.614173,6.614173 -0.000000 1 0 -496.062992,1814.625951 6.614173,6.614173 -0.000000 1 0 -482.834646,1814.625951 z" style="fill:none;stroke:#000000"/><path d="M -631.558082,2320.263689 A 4.535433,4.535433 -0.000000 1 0 -640.628948,2320.263689 4.535433,4.535433 -0.000000 1 0 -631.558082,2320.263689 z" style="fill:none;stroke:#000000"/><path d="M -482.834646,2214.268609 A 6.614173,6.614173 -0.000000 1 0 -496.062992,2214.268609 6.614173,6.614173 -0.000000 1 0 -482.834646,2214.268609 z" style="fill:none;stroke:#000000"/><path d="M -126.991153,2234.247701 L -610.770680,2234.247701 A 11.748271,11.748271 0.0 0 0 -622.518951,2245.995972 L -622.518951,2344.263689 A 11.748271,11.748271 0.0 0 0 -610.770680,2356.011959 L -126.991153,2356.011959 A 11.748271,11.748271 0.0 0 0 -115.242882,2344.263689 L -115.242882,2245.995972 A 11.748271,11.748271 0.0 0 0 -126.991153,2234.247701 z" style="fill:none;stroke:#000000"/><path d="M -504.566929,1817.714099 -504.566929,1821.347214" style="fill:none;stroke:#000000"/><path d="M -504.566929,1821.347214 A 7.559055,7.266230 -180.000000 0 0 -497.007874,1828.613444" style="fill:none;stroke:#000000"/><path d="M -497.007874,1828.613444 -198.425197,1828.613444" style="fill:none;stroke:#000000"/><path d="M -198.425197,1828.613444 A 7.559055,7.266230 -0.000000 0 0 -190.866142,1821.347214" style="fill:none;stroke:#000000"/><path d="M -190.866142,1821.347214 -190.866142,1817.714099" style="fill:none;stroke:#000000"/><path d="M -183.307087,1810.447869 A 7.559055,7.266230 -180.000000 0 0 -190.866142,1817.714099" style="fill:none;stroke:#000000"/><path d="M -183.307087,1810.447869 -58.960630,1810.447869" style="fill:none;stroke:#000000"/><path d="M -55.181102,1814.080984 A 3.779528,3.633115 -0.000000 0 0 -58.960630,1810.447869" style="fill:none;stroke:#000000"/><path d="M -55.181102,1814.080984 -55.181102,2200.281116" style="fill:none;stroke:#000000"/><path d="M -58.960630,2203.914231 A 3.779528,3.633115 0.000000 0 0 -55.181102,2200.281116" style="fill:none;stroke:#000000"/><path d="M -58.960630,2203.914231 -636.472441,2203.914231" style="fill:none;stroke:#000000"/><path d="M -640.251969,2200.281116 A 3.779528,3.633115 -180.000000 0 0 -636.472441,2203.914231" style="fill:none;stroke:#000000"/><path d="M -640.251969,2200.281116 -640.251969,1814.080984" style="fill:none;stroke:#000000"/><path d="M -636.472441,1810.447869 A 3.779528,3.633115 -180.000000 0 0 -640.251969,1814.080984" style="fill:none;stroke:#000000"/><path d="M -636.472441,1810.447869 -512.125984,1810.447869" style="fill:none;stroke:#000000"/><path d="M -504.566929,1817.714099 A 7.559055,7.266230 -0.000000 0 0 -512.125984,1810.447869" style="fill:none;stroke:#000000"/><path d="M -579.815890,1787.262715 A 6.614173,6.614173 -0.000000 1 0 -593.044236,1787.262715 6.614173,6.614173 -0.000000 1 0 -579.815890,1787.262715 z" style="fill:none;stroke:#000000"/><path d="M -123.840587,1777.091370 A 7.559055,7.559055 0.0 0 1 -131.399642,1784.650425 L -186.202792,1784.650425 A 7.559055,7.559055 0.0 0 0 -193.761847,1792.209481 L -193.761847,1794.099244 A 7.559055,7.559055 0.0 0 1 -201.320902,1801.658300 L -401.635862,1801.658300 A 7.559055,7.559055 0.0 0 1 -409.194918,1794.099244 L -409.194918,1792.209481 A 7.559055,7.559055 0.0 0 0 -416.753973,1784.650425 L -562.265784,1784.650425 A 7.559055,7.559055 0.0 0 1 -569.824839,1777.091370 L -569.824839,1555.989008 A 7.559055,7.559055 0.0 0 1 -562.265784,1548.429953 L -382.738225,1548.429953 A 7.559055,7.559055 0.0 0 0 -375.179169,1540.870898 L -375.179169,1538.981134 A 7.559055,7.559055 0.0 0 1 -367.620114,1531.422079 L -258.013815,1531.422079 A 7.559055,7.559055 0.0 0 1 -250.454760,1538.981134 L -250.454760,1540.870898 A 7.559055,7.559055 0.0 0 0 -242.895705,1548.429953 L -131.399642,1548.429953 A 7.559055,7.559055 0.0 0 1 -123.840587,1555.989008 L -123.840587,1777.091370 z" style="fill:none;stroke:#000000"/><path d="M -631.558082,2269.995972 A 4.535433,4.535433 -0.000000 1 0 -640.628948,2269.995972 4.535433,4.535433 -0.000000 1 0 -631.558082,2269.995972 z" style="fill:none;stroke:#000000"/><path d="M -55.558082,2269.995972 A 4.535433,4.535433 -0.000000 1 0 -64.628948,2269.995972 4.535433,4.535433 -0.000000 1 0 -55.558082,2269.995972 z" style="fill:none;stroke:#000000"/><path d="M -696.000000,1131.968504 A 9.448819,9.448819 0.0 0 1 -686.551181,1122.519685 L -9.448819,1122.519685 A 9.448819,9.448819 0.0 0 1 0.000000,1131.968504 L 0.000000,2361.070866 A 9.448819,9.448819 0.0 0 1 -9.448819,2370.519685 L -686.551181,2370.519685 A 9.448819,9.448819 0.0 0 1 -696.000000,2361.070866 L -696.000000,1131.968504 z" style="fill:none;stroke:#000000"/></g><desc>radio_stack_faceplate.dxf - scale = 1.000000, origin = (0.000000, 0.000000), method = manual</desc></svg>